/* XPM */
static constexpr const char* flag_16x16[] = {
/* columns rows colors chars-per-pixel */
"16 16 68 1 ",
"  c black",
". c #10100E",
"X c #131311",
"o c #272727",
"O c #272729",
"+ c #2B2B2C",
"@ c gray23",
"# c #3E3E3F",
"$ c #610F0F",
"% c #730000",
"& c #672F31",
"* c #653336",
"= c #3F3F40",
"- c #334247",
"; c gray26",
": c #454245",
"> c #464346",
", c #444445",
"< c #454546",
"1 c #59595E",
"2 c #5D5D61",
"3 c #636369",
"4 c #767679",
"5 c #860101",
"6 c #880101",
"7 c #8D0505",
"8 c #8B0808",
"9 c #9B0202",
"0 c #9C0000",
"q c #9D0606",
"w c #970A0A",
"e c #9B0A0A",
"r c #9D1010",
"t c #9D1111",
"y c #991616",
"u c #A60E0E",
"i c #A70E0E",
"p c #A51212",
"a c #AF1111",
"s c #AF1616",
"d c #AA1E1E",
"f c #B31B1B",
"g c #B51C1C",
"h c #B61C1C",
"j c #A42222",
"k c #AF2E2E",
"l c #BE2323",
"z c #B72B2B",
"x c #B53939",
"c c #C51D1D",
"v c #C02222",
"b c #C02626",
"n c #C32A2A",
"m c #C52828",
"M c #D12A2A",
"N c #D32A2A",
"B c #CF3232",
"V c #C13838",
"C c #C33A3A",
"Z c #D03232",
"A c #B54242",
"S c #B84343",
"D c #B94B4B",
"F c #C84242",
"G c #C94747",
"H c #A9A9AB",
"J c #BABABD",
"K c None",
/* pixels */
"KKKKK$KKKKKKKKKK",
"KKKKK87%KKKKKKKK",
"KKKKKyt95KKKKKKK",
"KKKKKjduiq6KKKKK",
"KKKKKkzhgsaewKKK",
"KKKKKxVmnbvcpKKK",
"KKKKKSFBZMfKKKKK",
"KKKKKDGNlrKKKKKK",
"KKKKKAC0KKKKKKKK",
"KKKKK*&KKKKKKKKK",
"KKKKK-KKKKKKKKKK",
"KKKKK:>KKKKKKKKK",
"KKKK.OOXKKKKKKKK",
"KKKo 31 +KKKKKKK",
"KKK;#,<=@KKKKKKK",
"KKKK4JH2KKKKKKKK"
};
