/* XPM */
static constexpr const char *mine_16x16[] = {
/* columns rows colors chars-per-pixel */
"16 16 122 2 ",
"   c #3F3F3D",
".  c #40403F",
"X  c #454543",
"o  c #444444",
"O  c #464646",
"+  c #4B4B49",
"@  c #4F4F50",
"#  c #565655",
"$  c #545456",
"%  c #575758",
"&  c #585858",
"*  c #58585A",
"=  c gray36",
"-  c #5E5E5C",
";  c #5E5E5F",
":  c gray38",
">  c gray39",
",  c #626264",
"<  c #646465",
"1  c #656566",
"2  c gray40",
"3  c #676768",
"4  c #6A6A68",
"5  c #68686A",
"6  c #68686B",
"7  c #6A6A6C",
"8  c #6C6C6E",
"9  c #6F6F73",
"0  c gray45",
"q  c #747475",
"w  c #777775",
"e  c #747477",
"r  c #767677",
"t  c #767679",
"y  c #77777B",
"u  c #787879",
"i  c #79797B",
"p  c gray48",
"a  c #7A7A7B",
"s  c #7C7C7D",
"d  c #7D7D80",
"f  c #828281",
"g  c #808082",
"h  c #828284",
"j  c #838385",
"k  c #818186",
"l  c #818187",
"z  c #848484",
"x  c #858586",
"c  c #868688",
"v  c #86868A",
"b  c gray54",
"n  c #8C8C8B",
"m  c #8B8B8F",
"M  c gray55",
"N  c #8E8E8D",
"B  c #8D8D91",
"V  c #8C8C92",
"C  c #919193",
"Z  c #929292",
"A  c #929295",
"S  c #939395",
"D  c #929296",
"F  c #939397",
"G  c #949495",
"H  c #959595",
"J  c #979797",
"K  c #939398",
"L  c #95959B",
"P  c #989899",
"I  c #98989A",
"U  c #9A9A9A",
"Y  c #9A9A9B",
"T  c #9A9A9D",
"R  c #99999F",
"E  c #9D9D9F",
"W  c #9F9FA0",
"Q  c #9C9CA2",
"!  c #9D9DA4",
"~  c #A0A0A0",
"^  c #A0A0A1",
"/  c #A1A1A4",
"(  c #A0A0A5",
")  c #A3A3A4",
"_  c gray65",
"`  c #A5A5AA",
"'  c #A6A6AC",
"]  c #AAAAAB",
"[  c #A8A8AE",
"{  c #ACACAD",
"}  c #ADADAF",
"|  c #AEAEAE",
" . c #ACACB4",
".. c #B1B1B1",
"X. c #B0B0B4",
"o. c #B4B4B4",
"O. c #B4B4B5",
"+. c #B1B1B9",
"@. c #B5B5B9",
"#. c #B7B7B8",
"$. c #B7B7BA",
"%. c #B8B8B9",
"&. c #BABAC1",
"*. c #BFBFC1",
"=. c #BDBDC5",
"-. c #C2C2C5",
";. c #C8C8CC",
":. c #CCCCCF",
">. c #CFCFD3",
",. c #D6D6D9",
"<. c #D7D7D9",
"1. c #DDDDE1",
"2. c #DFDFE1",
"3. c #E0E0E3",
"4. c #E6E6E7",
"5. c #E6E6E8",
"6. c #E6E6EA",
"7. c #E9E9EB",
"8. c #F0F0F3",
"9. c #F6F6F8",
"0. c white",
"q. c None",
/* pixels */
"q.q.q.q.q.q.q.q.q.q.q.q.q.q.q.q.",
"q.q.q.q.= q.q.q.Q q.q.q.q.q.q.q.",
"q.q.q.q.3 < q.( R h a q.q.q.q.q.",
"q.> 2 q.q H P +.6 D _ b q.q.q.q.",
"q., i r q J ] ` : E *.#.A =.l q.",
"q.q.+ @ S -.{ | ..:.8.9.>.9 q.q.",
"q.V m x 6./   x O.1.0.0.7.q.q.q.",
"q.k / 2.4.X F [ } ,.5.4 ^ $.q.q.",
"q.q.q.<.3.* e t Y %.&.! t @.X.q.",
"q.q.q.o.;.T . 0 U ~ c y v 5 % q.",
"q.q.8 W _ ) G M n Z f w - q.q.q.",
"q.q.$ o N I [ j C p z x q.q.q.q.",
"q.q.q.q.s B  .K d # 1 1 q.q.q.q.",
"q.q.q.q.u 7 ' g q.q.O & q.q.q.q.",
"q.q.q.q.; q.L q.q.q.q.q.q.q.q.q.",
"q.q.q.q.q.q.q.q.q.q.q.q.q.q.q.q."
};
