/* XPM */
static constexpr const char* smiley3_16x16[] = {
/* columns rows colors chars-per-pixel */
"16 16 156 2 ",
"   c black",
".  c #030000",
"X  c #0A0900",
"o  c #00000C",
"O  c #00000D",
"+  c #292F0A",
"@  c #2F3406",
"#  c #303022",
"$  c #37362C",
"%  c #38382D",
"&  c #413F04",
"*  c #43440E",
"=  c #494D0A",
"-  c #5B5A04",
";  c #56560D",
":  c #676705",
">  c #6B6E00",
",  c #797900",
"<  c #78780C",
"1  c #4E4F26",
"2  c #474528",
"3  c #747525",
"4  c #7C7A26",
"5  c #747431",
"6  c #757536",
"7  c #000043",
"8  c #141441",
"9  c #333340",
"0  c #44444D",
"q  c #5A5957",
"w  c #585858",
"e  c #69694D",
"r  c #6C6C4D",
"t  c #70704B",
"y  c #7A7A4E",
"u  c #8A8B09",
"i  c #919106",
"p  c #BFBF0C",
"a  c #A4A416",
"s  c #B2B018",
"d  c #B1B11B",
"f  c #B2B21C",
"g  c #BCBD1D",
"h  c #A1A326",
"j  c #ADAD26",
"k  c #A1A12C",
"l  c #B3B336",
"z  c #BEBE39",
"x  c #C4BC15",
"c  c #C1C10D",
"v  c #C9C90E",
"b  c #D5C708",
"n  c #DBD20A",
"m  c #DDD30A",
"M  c #D9D909",
"N  c #DDDD0B",
"B  c #DCDE0B",
"V  c #DBDB0D",
"C  c #DADA0E",
"Z  c #E2D509",
"A  c #EAD309",
"S  c #EDDB0A",
"D  c #F5DB0A",
"F  c #F7DC0B",
"G  c #F8D80A",
"H  c #E3E30A",
"J  c #E7E70A",
"K  c #E7E70C",
"L  c #E8E80A",
"P  c #ECEC09",
"I  c #E9E90C",
"U  c #E8E80D",
"Y  c yellow",
"T  c #F1F20B",
"R  c #F7F70A",
"E  c #F6F60B",
"W  c #F0F00D",
"Q  c #F5F50C",
"!  c #F5F50D",
"~  c #F9F40A",
"^  c #F8F70B",
"/  c #FEF50B",
"(  c #FAFA0B",
")  c #FFFA0B",
"_  c #FFFF0B",
"`  c #FFFF0C",
"'  c #FFFF0D",
"]  c #FFFF0E",
"[  c #FFFF0F",
"{  c #E7E71C",
"}  c #E8E81A",
"|  c #F5F511",
" . c #F6F610",
".. c #F9F913",
"X. c #FFFF10",
"o. c #FEFE11",
"O. c #FFFF11",
"+. c #FDFD13",
"@. c #FFFF12",
"#. c #FFFF13",
"$. c #FFFF14",
"%. c #FFFF17",
"&. c #FFFF19",
"*. c #FEFE1B",
"=. c #FFFF1B",
"-. c #FFFF1D",
";. c #FFFF1E",
":. c #D7D729",
">. c #CDCD35",
",. c #DDDD3F",
"<. c #EBEB27",
"1. c #FFFF21",
"2. c #FFFF22",
"3. c #FBFB24",
"4. c #FFFF26",
"5. c #F7F729",
"6. c #FDFC2B",
"7. c #FEFE2A",
"8. c #FFFF2B",
"9. c #FEFE2C",
"0. c #E8E83A",
"q. c #FEFE30",
"w. c #FBFC35",
"e. c #FFFF34",
"r. c #FFFF35",
"t. c #FDFD37",
"y. c #FEFE37",
"u. c #FFFF37",
"i. c #FDFD3D",
"p. c #FEFE3C",
"a. c #FFFF3C",
"s. c #8C8C43",
"d. c #B2B245",
"f. c #B3B455",
"g. c #B7B754",
"h. c #83837E",
"j. c #D5D541",
"k. c #D9D940",
"l. c #FBFB42",
"z. c #FAFA43",
"x. c #FDFD41",
"c. c #FFFF41",
"v. c #FFFF42",
"b. c #FFFF43",
"n. c #FDFD47",
"m. c #FFFF4A",
"M. c #FEFE4D",
"N. c #FEFE4F",
"B. c #FFFF51",
"V. c #FFFF53",
"C. c #FFFF56",
"Z. c #8C8C9C",
"A. c #96979B",
"S. c #CCCCD7",
"D. c #CDCDD8",
"F. c None",
/* pixels */
"F.F.F.F.F.F.G F D G F.F.F.F.F.F.",
"F.F.F.F.A m ) _ _ / n S F.F.F.F.",
"F.F.F.b & O = T B + O - Z F.F.F.",
"F.F.x @   .   < :   X   > Y F.F.",
"F.4 3   % h.w 0 9 q h.$ o h s F.",
"F._ X., 7 S.A.C c Z.D.8 i l 6 2 ",
"~ ` [  .f g.0.%.&.,.f.g X.Y _ V ",
"^ ` X.%.-.] 2.7.9.4.%.2.*.+.' P ",
"( ` | =.3.q.y.c.b.p.t.6.1...' L ",
"R ' u { 8.w.x.M.N.n.i.e.d v [ M ",
"F.' p * <.a.m.V.C.B.v.j ; ..` F.",
"F.E [ a # k >.k.j.z 5 1 } O.J F.",
"F.F.' O.:.s.t e r y d.5.$.Q F.F.",
"F.F.F.' [ ;.u.z.l.r.;.#.! F.F.F.",
"F.F.F.F.W [ ] [ X.@.o.I F.F.F.F.",
"F.F.F.F.F.F.H U K N F.F.F.F.F.F."
};
