/* XPM */
static constexpr const char *smiley2_16x16[] = {
/* columns rows colors chars-per-pixel */
"16 16 128 2 ",
"   c #7C7C22",
".  c #777833",
"X  c #747442",
"o  c #B2B215",
"O  c #B9B915",
"+  c #BBBA15",
"@  c #ACAC27",
"#  c #B2B23E",
"$  c #DDDD0A",
"%  c #DEDE0A",
"&  c #DBDB0E",
"*  c #D3D310",
"=  c #F4D709",
"-  c #F7D90B",
";  c #F7DF0A",
":  c #E4E20A",
">  c #E4E40A",
",  c #E7E70A",
"<  c #E7E70B",
"1  c #E8E80A",
"2  c #E8E80B",
"3  c #ECEC0B",
"4  c #EFEF0C",
"5  c #F7E00A",
"6  c #F7E40A",
"7  c #F7E50A",
"8  c #FBE40A",
"9  c #F3EE0B",
"0  c #F4F409",
"q  c #F7F70A",
"w  c #F6F60B",
"e  c #F3F30C",
"r  c #F9F60B",
"t  c #FCF50A",
"y  c #FFFB0B",
"u  c #FFFF09",
"i  c #FFFD0A",
"p  c #FEFE0B",
"a  c #FFFF0B",
"s  c #F8F80C",
"d  c #F9F90C",
"f  c #FAFA0D",
"g  c #FDFD0D",
"h  c #FFFF0C",
"j  c #FFFF0D",
"k  c #FFFE0E",
"l  c #FFFF0E",
"z  c #FFFF0F",
"x  c #E7E713",
"c  c #EDEE18",
"v  c #F5F510",
"b  c #F4F411",
"n  c #FCFC10",
"m  c #FDFC10",
"M  c #FFFF10",
"N  c #FEFE11",
"B  c #FFFF12",
"V  c #FFFF13",
"C  c #FEFE14",
"Z  c #FFFF14",
"A  c #FFFF15",
"S  c #FFFF16",
"D  c #FFFF17",
"F  c #F3F31F",
"G  c #F6F61E",
"H  c #FDFD19",
"J  c #FEFE18",
"K  c #FFFF18",
"L  c #FFFF19",
"P  c #FDFD1B",
"I  c #FFFF1A",
"U  c #FEFE1B",
"Y  c #FFFF1B",
"T  c #FDFD1C",
"R  c #FEFD1C",
"E  c #FFFF1D",
"W  c #FEFE1E",
"Q  c #FFFF1F",
"!  c #C8C823",
"~  c #CBCB35",
"^  c #FEFE20",
"/  c #FFFF22",
"(  c #FEFE24",
")  c #FFFF27",
"_  c #F2F22D",
"`  c #FFFF2D",
"'  c #FFFF2F",
"]  c #E0E037",
"[  c #E3E338",
"{  c #F7F736",
"}  c #FFFF31",
"|  c #FEFD32",
" . c #FFFF33",
".. c #FFFF35",
"X. c #FFFF36",
"o. c #FFFF38",
"O. c #FDFD3B",
"+. c #FFFF3A",
"@. c #FFFF3E",
"#. c #888857",
"$. c #8C8C5B",
"%. c #97975C",
"&. c #A2A343",
"*. c #A3A447",
"=. c #A8A842",
"-. c #A8A85D",
";. c #B6B660",
":. c #BDBD61",
">. c #CFCF4B",
",. c #D1D146",
"<. c #D7D843",
"1. c #FFFF41",
"2. c #FFFF42",
"3. c #FFFF43",
"4. c #FFFF45",
"5. c #FFFF46",
"6. c #FFFF47",
"7. c #FFFF48",
"8. c #FEFF49",
"9. c #FFFF4A",
"0. c #FFFF4C",
"q. c #FEFE4E",
"w. c #FFFF4E",
"e. c #FFFF50",
"r. c #FDFD53",
"t. c #FEFE52",
"y. c #FFFF52",
"u. c None",
/* pixels */
"u.u.u.u.u.u.- ; 5 = u.u.u.u.u.u.",
"u.u.u.u.8 y a a a a y 7 u.u.u.u.",
"u.u.6 a a u a j j a u a i u.u.u.",
"u.u.a a 4 + m z z b O d a a u.u.",
"u.t a h x =.H B z F &.0 l h 9 u.",
"u.a h z V L K U P I Y Z M h a u.",
"r h k B H R D z l Z Y T C l h : ",
"q h z J S W [ ,.>.<._ D L N j 1 ",
"s h V S ~ #.%.;.:.-.$.*.G V l , ",
"w l z @ X ] o.4.6.@.{ # . v l $ ",
"u.h *   ) +.8.t.r.q.3.} ! o a u.",
"u.p & c ` O.7.e.y.w.2.| E n 2 u.",
"u.u.j V ^  .1.9.0.5.o.( Z g u.u.",
"u.u.u.j Z Q ` ..X.' / S f u.u.u.",
"u.u.u.u.e M A L I S M 3 u.u.u.u.",
"u.u.u.u.u.u.> 2 < % u.u.u.u.u.u."
};
