<svg data-name="Layer 1" xmlns="http://www.w3.org/2000/svg" width="962.67538" height="543.62114" viewBox="0 0 962.67538 543.62114" xmlns:xlink="http://www.w3.org/1999/xlink"><path d="M940.04172,523.32617a6.12593,6.12593,0,0,0,4.134-8.43476l15.89945-14.87L949.0758,497.378l-13.41206,14.52608a6.15912,6.15912,0,0,0,4.378,11.42212Z" transform="translate(-118.66231 -178.18943)" fill="#ffb6b6"/><path d="M948.25522,511.34832l-7.41494-10.45461L968.6917,472.087l6.46693-45.40663a15.44484,15.44484,0,0,1,20.22307-12.45791h0a15.46133,15.46133,0,0,1,9.70252,19.56865l-16.49981,48.95373Z" transform="translate(-118.66231 -178.18943)" fill="#e4e4e4"/><polygon points="881.887 526.632 873.656 526.632 869.74 494.882 881.889 494.883 881.887 526.632" fill="#ffb6b6"/><path d="M1004.97791,720.45079H999.1371l-1.04256-5.51442-2.67014,5.51442H979.93317a3.48229,3.48229,0,0,1-1.97875-6.34789l12.37083-8.54374v-5.57489l13.012.77663Z" transform="translate(-118.66231 -178.18943)" fill="#2f2e41"/><polygon points="932.67 518.256 925.44 522.19 906.825 496.174 917.496 490.367 932.67 518.256" fill="#ffb6b6"/><path d="M1062.6924,708.057l-5.13042,2.79175-3.5515-4.34541.29035,6.12-13.6071,7.4044a3.48229,3.48229,0,0,1-4.7722-4.63l6.78255-13.41754-2.66465-4.89684,11.80058-5.53719Z" transform="translate(-118.66231 -178.18943)" fill="#2f2e41"/><path d="M1004.01757,693.51564H987.00668v-60.575l-10.53121-39.49174a226.07589,226.07589,0,0,1-5.91466-86.68913l.01473-.11868.09147-.07675c.27039-.22725,27.22411-22.514,44.27337-5.4649,11.49185,11.492.69353,52.81459.08924,55.08271v71.23588Z" transform="translate(-118.66231 -178.18943)" fill="#2f2e41"/><path d="M1003.97605,407.89573l-.09-.09-21.69.33-11.57995,27.18c-10.72,16.65-.47,26.12.25,27.62l-2.05,20.43-1.32,13.18-2.12,21.22,49.71-16.24-5.53-22.15,6.38995-31.95A43.69794,43.69794,0,0,0,1003.97605,407.89573Z" transform="translate(-118.66231 -178.18943)" fill="#e4e4e4"/><polygon points="875.207 455.064 910.153 504.218 923.558 494.687 894.373 434.711 875.207 455.064" fill="#2f2e41"/><circle cx="872.3521" cy="204.39965" r="20.02422" fill="#ffb6b6"/><polygon points="891.664 281.866 869.824 307.066 848.834 318.356 850.154 305.176 862.514 298.236 891.664 281.866" opacity="0.1"/><path d="M976.98924,420.11521l-1.87891-8.23291a21.16108,21.16108,0,0,1,2.91992-16.1792,14.70817,14.70817,0,0,0,.45215-15.00733,11.54206,11.54206,0,0,0-10.05615-6.33447h-.5v-.5c0-7.18017,5.5957-12.24805,10.79834-12.53857.188-1.49414,1.24707-2.8335,3.09131-3.897,4.40478-2.53955,12.92138-3.09033,19.35644.29444a6.101,6.101,0,0,1,3.76612-4.9917,6.01754,6.01754,0,0,1,3.28857-.189,7.44815,7.44815,0,0,1,2.09229-4.79882c1.77636-1.72168,4.62646-2.376,7.82031-1.79883,4.38574.7959,8.70849,3.58984,12.17236,7.86816,3.0708,3.793,5.20264,8.26319,7.26465,12.58594,2.02734,4.25146,4.12353,8.64746,7.1626,12.36963,3.3291,4.07764,7.4541,6.71973,11.61523,7.43945,4.853.83985,9.8335-1.1582,12.11279-4.85742l.45264-.73438.41211.75782c2.56055,4.70508,1.51318,11.17041-2.49121,15.37256-3.59082,3.769-9.22607,5.689-15.06934,5.13134-4.94726-.47021-9.937-2.57275-14.83105-6.248-4.86133-3.65039-7.86768-7.68555-8.93555-11.99366a32.50107,32.50107,0,0,1-.64209-4.04345c-.33105-2.84864-.64306-5.53955-2.396-7.52-1.57471-1.78076-4.01221-2.55225-6.17334-3.13526l-.42432-.11377a5.54177,5.54177,0,0,1-2.3623,4.02491,3.9981,3.9981,0,0,1-1.29053.49707c2.50586,10.08545,1.47607,17.80713-3.06494,22.95508-7.66455,8.69091-22.39209,6.90332-23.01563,6.82373l-.41455-.05372-.021-.41748a23.24209,23.24209,0,0,0-.40966-3.33593c-2.10938,5.08252-9.20557,18.52246-10.15479,19.87793Z" transform="translate(-118.66231 -178.18943)" fill="#2f2e41"/><path d="M269.84414,452.44778a6.61764,6.61764,0,0,1-10.13609.47786l-21.5655,9.37924,2.1006-12.03869,20.15692-7.061a6.65349,6.65349,0,0,1,9.44407,9.24261Z" transform="translate(-118.66231 -178.18943)" fill="#a0616a"/><path d="M255.453,456.2066l-50.08943,22.31169-.10745-.03844-57.08926-20.34376a18.80383,18.80383,0,0,1-8.4331-24.39256h0a18.78361,18.78361,0,0,1,26.80668-8.35028l42.485,25.59256,41.19723-5.33928Z" transform="translate(-118.66231 -178.18943)" fill="#3f3d56"/><path d="M276.43844,309.304c-18.9357-41.88446-18.23752-94.975,11.15-130.31888A211.78288,211.78288,0,0,0,363.3893,303.067c15.12988,11.94661,33.20189,23.65875,37.335,42.48842,2.572,11.71622-1.0735,24.10868-7.37567,34.31445-6.30274,10.20611-15.08781,18.60158-23.773,26.87545l-.97445,2.83145C330.80918,383.4113,295.37414,351.18847,276.43844,309.304Z" transform="translate(-118.66231 -178.18943)" fill="#f0f0f0"/><path d="M288.40644,179.49617c-6.7632,37.03391-1.73891,76.46828,14.69983,110.3983,3.554,7.33559,7.7977,14.46766,13.47938,20.36749a44.709,44.709,0,0,0,20.29881,11.90081c7.14749,2.08686,14.70025,3.39378,21.216,7.18175,6.86793,3.99271,11.13012,10.69219,12.79049,18.37494,2.03152,9.40007.56428,18.9695-1.19576,28.27774-1.95419,10.335-4.14773,21.03891-1.31592,31.42834.34311,1.25883-1.63022,1.71762-1.97282.4607-4.92686-18.07584,4.65222-35.90346,3.31326-54.07674-.62478-8.48-3.80889-16.82307-11.07988-21.73631-6.35817-4.29642-14.14549-5.65079-21.40074-7.70123-7.61812-2.153-14.45973-5.44171-20.28143-10.89692-5.95527-5.58037-10.48673-12.56155-14.2127-19.77411a175.61893,175.61893,0,0,1-16.873-52.23105,184.227,184.227,0,0,1,.59847-62.57164c.23362-1.27927,2.16808-.673,1.936.59793Z" transform="translate(-118.66231 -178.18943)" fill="#fff"/><path d="M297.18109,279.14754a27.15837,27.15837,0,0,1-32.47161-13.503c-.58922-1.1627,1.18987-2.13293,1.77987-.96869a25.14805,25.14805,0,0,0,30.231,12.49883c1.2395-.40375,1.69309,1.57138.46069,1.97282Z" transform="translate(-118.66231 -178.18943)" fill="#fff"/><path d="M333.121,321.582a52.34556,52.34556,0,0,0,4.23431-37.91219c-.33864-1.26,1.63458-1.71917,1.97282-.46069a54.44727,54.44727,0,0,1-4.48638,39.44211c-.61135,1.15425-2.32878.07875-1.72075-1.06923Z" transform="translate(-118.66231 -178.18943)" fill="#fff"/><path d="M285.10628,221.38924a15.37294,15.37294,0,0,0,12.04718-8.22492c.59641-1.16143,2.31328-.08464,1.72074,1.06923a17.22664,17.22664,0,0,1-13.30723,9.12851,1.047,1.047,0,0,1-1.21676-.75606,1.01807,1.01807,0,0,1,.75607-1.21676Z" transform="translate(-118.66231 -178.18943)" fill="#fff"/><path d="M443.21925,179.39538c-.35179.73581-.70358,1.47161-1.04716,2.22246a202.45226,202.45226,0,0,0-11.55664,30.74029c-.24594.81141-.483,1.63743-.70505,2.45422a213.43056,213.43056,0,0,0-6.48339,78.31089,207.26711,207.26711,0,0,0,5.62258,30.98629c3.67061,14.04667,8.76811,28.98479,7.61786,43.01084a35.555,35.555,0,0,1-.58151,4.36224L372.131,410.546c-.18989.01583-.37164.04662-.56224.06289l-2.48221,1.67644c-.17369-.515-.34276-1.05288-.51645-1.56788-.102-.29832-.18974-.60535-.29173-.90367-.06349-.20164-.12631-.4038-.19512-.58212-.02138-.067-.04205-.13452-.05457-.187-.06881-.17832-.11379-.35127-.17368-.515q-1.43005-4.50592-2.80173-9.04763c-.00892-.01461-.00892-.01461-.00359-.03792-6.90882-23.08817-11.95083-46.956-13.20989-70.83026-.03764-.71831-.08491-1.45078-.09334-2.18693a197.77974,197.77974,0,0,1,1.11481-32.25648,174.84708,174.84708,0,0,1,2.99416-17.43622,145.39676,145.39676,0,0,1,16.84409-42.22447c15.54093-26.12154,39.263-46.982,68.29588-54.55729C441.73822,179.75911,442.46748,179.574,443.21925,179.39538Z" transform="translate(-118.66231 -178.18943)" fill="#f0f0f0"/><path d="M443.57126,180.29492c-27.697,25.49759-47.42761,60.0087-54.73041,96.99718-1.57884,7.99682-2.4845,16.24636-1.50011,24.37782a44.70934,44.70934,0,0,0,9.04236,21.72342c4.45044,5.96952,9.694,11.56031,12.61588,18.50771,3.07976,7.32292,2.44933,15.23821-.8505,22.37212-4.03744,8.72854-10.9704,15.48582-17.9799,21.85826-7.78271,7.07537-15.97861,14.30117-19.97272,24.3015-.48395,1.21167-2.33577.38991-1.85256-.81994,6.94908-17.39885,25.3309-25.86594,35.20339-41.18243,4.60668-7.147,7.08746-15.7255,4.24009-24.02608-2.4899-7.25851-7.89222-13.02841-12.45062-19.03373-4.78639-6.30568-8.269-13.05066-9.63289-20.9114-1.39518-8.0411-.81014-16.34343.55734-24.34555a175.619,175.619,0,0,1,17.97457-51.86226,184.22718,184.22718,0,0,1,38.1503-49.59963c.95674-.88077,2.13628.768,1.18578,1.643Z" transform="translate(-118.66231 -178.18943)" fill="#fff"/><path d="M390.58032,265.14391a27.15838,27.15838,0,0,1-17.797-30.33151c.22957-1.2831,2.23422-.98664,2.00435.29816a25.14806,25.14806,0,0,0,16.61264,28.1808c1.23275.42389.40577,2.274-.81994,1.85255Z" transform="translate(-118.66231 -178.18943)" fill="#fff"/><path d="M393.72792,320.66375a52.34552,52.34552,0,0,0,26.2066-27.72141c.48822-1.20992,2.34018-.38853,1.85256.81993a54.44724,54.44724,0,0,1-27.329,28.79121c-1.18306.55353-1.90681-1.33921-.73016-1.88973Z" transform="translate(-118.66231 -178.18943)" fill="#fff"/><path d="M415.71374,211.75727a15.373,15.373,0,0,0,14.571.68609c1.17546-.56825,1.898,1.32518.73017,1.88973a17.22665,17.22665,0,0,1-16.12108-.72327,1.047,1.047,0,0,1-.51631-1.33624,1.01806,1.01806,0,0,1,1.33624-.51631Z" transform="translate(-118.66231 -178.18943)" fill="#fff"/><path d="M688.43844,331.304c-18.9357-41.88446-18.23752-94.975,11.15-130.31888A211.78288,211.78288,0,0,0,775.3893,325.067c15.12988,11.94661,33.20189,23.65875,37.335,42.48842,2.572,11.71622-1.0735,24.10868-7.37567,34.31445-6.30274,10.20611-15.08781,18.60158-23.773,26.87545l-.97445,2.83145C742.80918,405.4113,707.37414,373.18847,688.43844,331.304Z" transform="translate(-118.66231 -178.18943)" fill="#f0f0f0"/><path d="M700.40644,201.49617c-6.7632,37.03391-1.73891,76.46828,14.69983,110.3983,3.554,7.33559,7.7977,14.46766,13.47938,20.36749a44.709,44.709,0,0,0,20.29881,11.90081c7.14749,2.08686,14.70025,3.39378,21.216,7.18175,6.86793,3.99271,11.13012,10.69219,12.79049,18.37494,2.03152,9.40007.56428,18.9695-1.19576,28.27774-1.95419,10.335-4.14773,21.03891-1.31592,31.42834.34311,1.25883-1.63022,1.71762-1.97282.4607-4.92686-18.07584,4.65222-35.90346,3.31326-54.07674-.62478-8.48-3.80889-16.82307-11.07988-21.73631-6.35817-4.29642-14.14549-5.65079-21.40074-7.70123-7.61812-2.153-14.45973-5.44171-20.28143-10.89692-5.95527-5.58037-10.48673-12.56155-14.2127-19.77411a175.61893,175.61893,0,0,1-16.873-52.23105,184.227,184.227,0,0,1,.59847-62.57164c.23362-1.27927,2.16808-.673,1.936.59793Z" transform="translate(-118.66231 -178.18943)" fill="#fff"/><path d="M709.18109,301.14754a27.15837,27.15837,0,0,1-32.47161-13.503c-.58922-1.1627,1.18987-2.13293,1.77987-.96869a25.14805,25.14805,0,0,0,30.23105,12.49883c1.2395-.40375,1.69309,1.57138.46069,1.97282Z" transform="translate(-118.66231 -178.18943)" fill="#fff"/><path d="M745.121,343.582a52.34556,52.34556,0,0,0,4.23431-37.91219c-.33864-1.26,1.63458-1.71917,1.97282-.46069a54.44727,54.44727,0,0,1-4.48638,39.44211c-.61135,1.15425-2.32878.07875-1.72075-1.06923Z" transform="translate(-118.66231 -178.18943)" fill="#fff"/><path d="M697.10628,243.38924a15.37294,15.37294,0,0,0,12.04718-8.22492c.59641-1.16143,2.31328-.08464,1.72074,1.06923a17.22664,17.22664,0,0,1-13.30723,9.12851,1.047,1.047,0,0,1-1.21676-.75606,1.01807,1.01807,0,0,1,.75607-1.21676Z" transform="translate(-118.66231 -178.18943)" fill="#fff"/><path d="M855.21925,201.39538c-.35179.73581-.70358,1.47161-1.04716,2.22246a202.45226,202.45226,0,0,0-11.55664,30.74029c-.24594.81141-.48295,1.63743-.70505,2.45422a213.43056,213.43056,0,0,0-6.48339,78.31089,207.26711,207.26711,0,0,0,5.62258,30.98629c3.67061,14.04667,8.76811,28.98479,7.61786,43.01084a35.555,35.555,0,0,1-.58151,4.36224L784.131,432.546c-.18989.01583-.37164.04662-.56224.06289l-2.48221,1.67644c-.17369-.515-.34276-1.05288-.51645-1.56788-.102-.29832-.18974-.60535-.29173-.90367-.06349-.20164-.12631-.4038-.19512-.58212-.02138-.067-.04205-.13452-.05457-.187-.06881-.17832-.11379-.35127-.17368-.515q-1.43006-4.50592-2.80173-9.04763c-.00892-.01461-.00892-.01461-.00359-.03792-6.90882-23.08817-11.95083-46.956-13.20989-70.83026-.03764-.71831-.08491-1.45078-.09334-2.18693a197.77974,197.77974,0,0,1,1.11481-32.25648,174.84708,174.84708,0,0,1,2.99416-17.43622,145.39676,145.39676,0,0,1,16.84409-42.22447c15.54093-26.12154,39.263-46.982,68.29588-54.55729C853.73822,201.75911,854.46748,201.574,855.21925,201.39538Z" transform="translate(-118.66231 -178.18943)" fill="#f0f0f0"/><path d="M855.57126,202.29492c-27.697,25.49759-47.42761,60.0087-54.73041,96.99718-1.57884,7.99682-2.4845,16.24636-1.50011,24.37782a44.70934,44.70934,0,0,0,9.04236,21.72342c4.45044,5.96952,9.694,11.56031,12.61588,18.50771,3.07976,7.32292,2.44933,15.23821-.8505,22.37212-4.03744,8.72854-10.9704,15.48582-17.9799,21.85826-7.78271,7.07537-15.97861,14.30117-19.97272,24.3015-.484,1.21167-2.33577.38991-1.85256-.81994,6.94908-17.39885,25.3309-25.86594,35.20339-41.18243,4.60668-7.147,7.08746-15.7255,4.24009-24.02608-2.4899-7.25851-7.89222-13.02841-12.45062-19.03373-4.78639-6.30568-8.269-13.05066-9.63289-20.9114-1.39518-8.0411-.81014-16.34343.55734-24.34555a175.619,175.619,0,0,1,17.97457-51.86226,184.22718,184.22718,0,0,1,38.1503-49.59963c.95674-.88077,2.13628.768,1.18578,1.643Z" transform="translate(-118.66231 -178.18943)" fill="#fff"/><path d="M802.58032,287.14391a27.15838,27.15838,0,0,1-17.79705-30.33151c.22957-1.2831,2.23422-.98664,2.00435.29816a25.14806,25.14806,0,0,0,16.61264,28.1808c1.23275.42389.40577,2.274-.81994,1.85255Z" transform="translate(-118.66231 -178.18943)" fill="#fff"/><path d="M805.72792,342.66375a52.34552,52.34552,0,0,0,26.2066-27.72141c.48822-1.20992,2.34018-.38853,1.85256.81993a54.44724,54.44724,0,0,1-27.329,28.79121c-1.18306.55353-1.90681-1.33921-.73016-1.88973Z" transform="translate(-118.66231 -178.18943)" fill="#fff"/><path d="M827.71374,233.75727a15.373,15.373,0,0,0,14.571.68609c1.17546-.56825,1.898,1.32518.73017,1.88973a17.22665,17.22665,0,0,1-16.12108-.72327,1.047,1.047,0,0,1-.51631-1.33624,1.01806,1.01806,0,0,1,1.33624-.51631Z" transform="translate(-118.66231 -178.18943)" fill="#fff"/><path d="M305.468,606.52917H792.64882V324.48108a7.98,7.98,0,0,0-7.971-7.97078H313.439a7.98,7.98,0,0,0-7.971,7.97078Z" transform="translate(-118.66231 -178.18943)" fill="#cacaca"/><rect x="201.85784" y="149.34498" width="457.07652" height="259.49057" fill="#fff"/><path d="M305.044,598.8971v34.805a10.98729,10.98729,0,0,0,10.98725,10.98741H495.84588v68.68868h-2.38875a1.42719,1.42719,0,0,0-1.42728,1.42723V719.583a1.4272,1.4272,0,0,0,1.42728,1.42728H605.08369A1.42721,1.42721,0,0,0,606.511,719.583v-4.77756a1.4272,1.4272,0,0,0-1.42729-1.42723h-2.38875V644.68955H782.50957a10.98729,10.98729,0,0,0,10.98726-10.98741v-34.805Z" transform="translate(-118.66231 -178.18943)" fill="#3f3d56"/><path d="M462.64875,455.86222H351.26235a2.93113,2.93113,0,0,1-2.92773-2.92774V407.73871a2.93113,2.93113,0,0,1,2.92773-2.92774h111.3864a2.9311,2.9311,0,0,1,2.92774,2.92774v45.19577A2.9311,2.9311,0,0,1,462.64875,455.86222Z" transform="translate(-118.66231 -178.18943)" fill="#1c80cb"/><path d="M452.04272,477.5429H361.86846a3.51328,3.51328,0,0,1,0-7.02656h90.17426C456.5735,470.45309,456.61882,477.60672,452.04272,477.5429Z" transform="translate(-118.66231 -178.18943)" fill="#e4e4e4"/><path d="M452.04272,493.64545H361.86846a3.51328,3.51328,0,0,1,0-7.02657h90.17426C456.5735,486.55564,456.61882,493.70926,452.04272,493.64545Z" transform="translate(-118.66231 -178.18943)" fill="#e4e4e4"/><path d="M452.04272,509.748H361.86846a3.51328,3.51328,0,0,1,0-7.02656h90.17426C456.5735,502.65818,456.61882,509.81181,452.04272,509.748Z" transform="translate(-118.66231 -178.18943)" fill="#e4e4e4"/><path d="M604.75161,455.86222H493.36521a2.93114,2.93114,0,0,1-2.92774-2.92774V407.73871a2.93114,2.93114,0,0,1,2.92774-2.92774h111.3864a2.9311,2.9311,0,0,1,2.92774,2.92774v45.19577A2.9311,2.9311,0,0,1,604.75161,455.86222Z" transform="translate(-118.66231 -178.18943)" fill="#1c80cb"/><path d="M594.14557,477.5429H503.97132a3.51328,3.51328,0,0,1,0-7.02656h90.17425C598.67636,470.45309,598.72168,477.60672,594.14557,477.5429Z" transform="translate(-118.66231 -178.18943)" fill="#e4e4e4"/><path d="M594.14557,493.64545H503.97132a3.51328,3.51328,0,0,1,0-7.02657h90.17425C598.67636,486.55564,598.72168,493.70926,594.14557,493.64545Z" transform="translate(-118.66231 -178.18943)" fill="#e4e4e4"/><path d="M594.14557,509.748H503.97132a3.51328,3.51328,0,0,1,0-7.02656h90.17425C598.67636,502.65818,598.72168,509.81181,594.14557,509.748Z" transform="translate(-118.66231 -178.18943)" fill="#e4e4e4"/><path d="M746.85447,455.86222H635.46807a2.93114,2.93114,0,0,1-2.92774-2.92774V407.73871a2.93114,2.93114,0,0,1,2.92774-2.92774h111.3864a2.93109,2.93109,0,0,1,2.92773,2.92774v45.19577A2.93109,2.93109,0,0,1,746.85447,455.86222Z" transform="translate(-118.66231 -178.18943)" fill="#1c80cb"/><path d="M736.24843,477.5429H646.07417a3.51328,3.51328,0,0,1,0-7.02656h90.17426C740.77922,470.45309,740.82453,477.60672,736.24843,477.5429Z" transform="translate(-118.66231 -178.18943)" fill="#e4e4e4"/><path d="M736.24843,493.64545H646.07417a3.51329,3.51329,0,0,1,0-7.02657h90.17426C740.77922,486.55564,740.82453,493.70926,736.24843,493.64545Z" transform="translate(-118.66231 -178.18943)" fill="#e4e4e4"/><path d="M736.24843,509.748H646.07417a3.51328,3.51328,0,0,1,0-7.02656h90.17426C740.77922,502.65818,740.82453,509.81181,736.24843,509.748Z" transform="translate(-118.66231 -178.18943)" fill="#e4e4e4"/><path d="M937.18888,405.42124l.3044,56.64907,1.24156-.07,1.17974,20.973-2.30479.12607.06405,12.6,1.84525-.0364.37369,20.991-2.10081.03841,1.00052,184.85558a18.27387,18.27387,0,0,1-18.15627,18.35551L716.43737,721.01a18.27168,18.27168,0,0,1-18.35552-18.15627L696.47821,406.727a18.274,18.274,0,0,1,18.15632-18.35555l204.1988-1.10652A18.28056,18.28056,0,0,1,937.18888,405.42124Z" transform="translate(-118.66231 -178.18943)" fill="#3f3d56"/><path d="M920.932,708.25758,716.0143,709.3688a5.63387,5.63387,0,0,1-5.65788-5.59685l-1.6165-298.09543a5.63388,5.63388,0,0,1,5.59685-5.65788l204.91767-1.11122a5.63388,5.63388,0,0,1,5.65788,5.59685l1.6165,298.09543A5.63388,5.63388,0,0,1,920.932,708.25758Z" transform="translate(-118.66231 -178.18943)" fill="#fff"/><circle cx="697.32397" cy="215.22126" r="1.55299" fill="#fff"/><path d="M876.93435,482.81148h-118.6a3.121,3.121,0,0,1-3.11734-3.11734V431.57142a3.121,3.121,0,0,1,3.11734-3.11735h118.6a3.12092,3.12092,0,0,1,3.11734,3.11735v48.12272A3.12091,3.12091,0,0,1,876.93435,482.81148Z" transform="translate(-118.66231 -178.18943)" fill="#1c80cb"/><path d="M865.64145,505.89624H769.62736a3.74081,3.74081,0,0,1,0-7.48162h96.01409C870.46566,498.34729,870.51391,505.96419,865.64145,505.89624Z" transform="translate(-118.66231 -178.18943)" fill="#e4e4e4"/><path d="M865.64145,523.04161H769.62736a3.74081,3.74081,0,0,1,0-7.48161h96.01409C870.46566,515.49266,870.51391,523.10956,865.64145,523.04161Z" transform="translate(-118.66231 -178.18943)" fill="#e4e4e4"/><path d="M865.64145,540.187H769.62736a3.74081,3.74081,0,0,1,0-7.48162h96.01409C870.46566,532.638,870.51391,540.25493,865.64145,540.187Z" transform="translate(-118.66231 -178.18943)" fill="#e4e4e4"/><path d="M876.93435,622.44619h-118.6a3.121,3.121,0,0,1-3.11734-3.11734V571.20613a3.121,3.121,0,0,1,3.11734-3.11734h118.6a3.12091,3.12091,0,0,1,3.11734,3.11734v48.12272A3.12091,3.12091,0,0,1,876.93435,622.44619Z" transform="translate(-118.66231 -178.18943)" fill="#1c80cb"/><path d="M865.64145,645.531H769.62736a3.74081,3.74081,0,0,1,0-7.48162h96.01409C870.46566,637.982,870.51391,645.5989,865.64145,645.531Z" transform="translate(-118.66231 -178.18943)" fill="#e4e4e4"/><path d="M865.64145,662.67632H769.62736a3.74081,3.74081,0,0,1,0-7.48161h96.01409C870.46566,655.12737,870.51391,662.74427,865.64145,662.67632Z" transform="translate(-118.66231 -178.18943)" fill="#e4e4e4"/><path d="M865.64145,679.8217H769.62736a3.74081,3.74081,0,0,1,0-7.48162h96.01409C870.46566,672.27274,870.51391,679.88964,865.64145,679.8217Z" transform="translate(-118.66231 -178.18943)" fill="#e4e4e4"/><path d="M349.98025,706.46386l-.39447-163.25421,1.48812-.00363-.07174-30.02654-1.48829.00409-.12176-50.12433A14.25548,14.25548,0,0,0,335.1023,448.838l-106.0859.25614a14.25568,14.25568,0,0,0-14.22174,14.28965l.08442,34.9495-2.37037.05913.52355,20.99347,1.8976-.04737.01122,4.6322-2.01939.05038.52355,20.99347,1.54659-.03856.391,161.81239a14.22975,14.22975,0,0,0,14.2901,14.22191l106.08544-.25631A14.27288,14.27288,0,0,0,349.98025,706.46386Z" transform="translate(-118.66231 -178.18943)" fill="#3f3d56"/><path d="M226.42894,714.47707a6.84509,6.84509,0,0,1-4.53067-6.41991l-.59405-245.97341a6.83148,6.83148,0,0,1,6.81445-6.84724l22.57174-.0545-.2796.6893a7.87377,7.87377,0,0,0,7.31633,10.83l50.09342-.12087a7.97437,7.97437,0,0,0,6.12062-3.80071,7.8083,7.8083,0,0,0,.54383-7.06283l-.28275-.68824,23.31542-.05671a6.8404,6.8404,0,0,1,6.84753,6.81507l.56735,234.67945a18.147,18.147,0,0,1-18.08251,18.16865l-98.10425.23709A6.84149,6.84149,0,0,1,226.42894,714.47707Z" transform="translate(-118.66231 -178.18943)" fill="#fff"/><circle cx="146.4126" cy="281.26989" r="1.55299" fill="#fff"/><path d="M325.10758,536.6074h-80.5977a2.12093,2.12093,0,0,1-2.11847-2.11847V501.78587a2.12093,2.12093,0,0,1,2.11847-2.11847h80.5977a2.1209,2.1209,0,0,1,2.11847,2.11847v32.70306A2.1209,2.1209,0,0,1,325.10758,536.6074Z" transform="translate(-118.66231 -178.18943)" fill="#1c80cb"/><path d="M317.4332,552.29525H252.18432a2.54217,2.54217,0,1,1,0-5.08433H317.4332C320.71161,547.16516,320.7444,552.34142,317.4332,552.29525Z" transform="translate(-118.66231 -178.18943)" fill="#e4e4e4"/><path d="M317.4332,563.94683H252.18432a2.54216,2.54216,0,1,1,0-5.08432H317.4332C320.71161,558.81674,320.7444,563.993,317.4332,563.94683Z" transform="translate(-118.66231 -178.18943)" fill="#e4e4e4"/><path d="M317.4332,575.59842H252.18432a2.54217,2.54217,0,1,1,0-5.08433H317.4332C320.71161,570.46833,320.7444,575.6446,317.4332,575.59842Z" transform="translate(-118.66231 -178.18943)" fill="#e4e4e4"/><path d="M325.10758,634.6074h-80.5977a2.12093,2.12093,0,0,1-2.11847-2.11847V599.78587a2.12093,2.12093,0,0,1,2.11847-2.11847h80.5977a2.1209,2.1209,0,0,1,2.11847,2.11847v32.70306A2.1209,2.1209,0,0,1,325.10758,634.6074Z" transform="translate(-118.66231 -178.18943)" fill="#1c80cb"/><path d="M317.4332,650.29525H252.18432a2.54217,2.54217,0,1,1,0-5.08433H317.4332C320.71161,645.16516,320.7444,650.34142,317.4332,650.29525Z" transform="translate(-118.66231 -178.18943)" fill="#e4e4e4"/><path d="M317.4332,661.94683H252.18432a2.54216,2.54216,0,1,1,0-5.08432H317.4332C320.71161,656.81674,320.7444,661.993,317.4332,661.94683Z" transform="translate(-118.66231 -178.18943)" fill="#e4e4e4"/><path d="M317.4332,673.59842H252.18432a2.54217,2.54217,0,1,1,0-5.08433H317.4332C320.71161,668.46833,320.7444,673.6446,317.4332,673.59842Z" transform="translate(-118.66231 -178.18943)" fill="#e4e4e4"/><polygon points="26.276 533.887 35.034 533.886 39.2 500.107 26.274 500.107 26.276 533.887" fill="#a0616a"/><path d="M142.70435,709.21694l2.465-.0001,9.62386-3.9138,5.1581,3.91321h.0007a10.99172,10.99172,0,0,1,10.99113,10.991v.35716l-28.2383.001Z" transform="translate(-118.66231 -178.18943)" fill="#2f2e41"/><polygon points="60.214 528.368 68.756 530.297 80.261 498.265 67.653 495.418 60.214 528.368" fill="#a0616a"/><path d="M177.32671,703.27632l2.4045.5429,10.2496-1.69774,4.16941,4.9533.00068.00015A10.99172,10.99172,0,0,1,202.451,720.217l-.07867.34839-27.54492-6.21926Z" transform="translate(-118.66231 -178.18943)" fill="#2f2e41"/><path d="M133.8464,505.56584c-4.106,12.3837-3.67191,25.82586.98694,40.253l1.99158,81.22822s-2.96729,53.26781,6.60759,72.01237h13.88623l6.87528-76.877.86335-51.60031L194.828,614.11534,175.8662,697.8025l17.09066,1.52785,30.76994-90.82-37.964-88.11123Z" transform="translate(-118.66231 -178.18943)" fill="#2f2e41"/><path d="M188.239,523.00094l-50.49349-8.07656a9.63782,9.63782,0,0,1-5.67975-13.49028l2.28984-4.58024-.88947-48.12064a35.64634,35.64634,0,0,1,17.30724-31.18055l4.924-2.9442,2.48846-6.31935,22.946.55965.06686,8.288,8.21752,13.10363-.00028.05432-.51563,71.32157-2.26477,7.36036,3.42445,8.561Z" transform="translate(-118.66231 -178.18943)" fill="#3f3d56"/><circle cx="53.09785" cy="201.39295" r="20.8488" fill="#a0616a"/><path d="M150.05018,384.12736c-.62184-2.61971-.33636-6.30613.01506-8.9439a25.03488,25.03488,0,0,1,10.59629-17.38371,7.63308,7.63308,0,0,1,3.80219-1.511,3.28225,3.28225,0,0,1,3.3002,1.99618,6.84182,6.84182,0,0,1,3.85979-3.82755,12.058,12.058,0,0,1,5.49444-.74022,20.08043,20.08043,0,0,1,16.75193,11.97471c.55687,1.3229,2.11229-3.56353,2.81784-2.31358a5.5571,5.5571,0,0,0,3.15143,2.76892c1.38252.38578,1.94405,6.08184,2.48811,4.75362a6.33175,6.33175,0,0,1-6.05343,8.82879,34.87045,34.87045,0,0,1-4.143-.793,10.32926,10.32926,0,0,0-11.30929,7.73074,13.68458,13.68458,0,0,0-1.80033-4.00552,4.63181,4.63181,0,0,0-3.71586-2.04167,5.20379,5.20379,0,0,0-3.57591,2.05553c-.91785,1.07771-1.6072,2.33509-2.53183,3.407-2.71306,3.14524-6.38255,10.4801-10.24894,9.94515C155.89762,395.60572,150.89921,387.70421,150.05018,384.12736Z" transform="translate(-118.66231 -178.18943)" fill="#2f2e41"/><path d="M249.48233,507.78258a6.61758,6.61758,0,0,1-9.07526-4.53961l-23.39772-2.3639,7.71913-9.47405,21.03544,3.69727a6.65349,6.65349,0,0,1,3.71841,12.68029Z" transform="translate(-118.66231 -178.18943)" fill="#a0616a"/><path d="M235.09107,504.02424l-54.60268-5.031-.07493-.08608L140.563,453.24549a18.80384,18.80384,0,0,1,4.5716-25.40108h0a18.78363,18.78363,0,0,1,27.46639,5.82433l24.54475,43.09887,38.54677,15.48763Z" transform="translate(-118.66231 -178.18943)" fill="#3f3d56"/><path d="M1080.147,721.81057H119.853a1.19069,1.19069,0,0,1,0-2.38137h960.294a1.19068,1.19068,0,0,1,0,2.38137Z" transform="translate(-118.66231 -178.18943)" fill="#ccc"/><path d="M913.14647,508.986a6.1259,6.1259,0,0,0,6.69209-6.59176l19.92412-8.7715-9.50512-6.13405-17.463,9.27a6.15912,6.15912,0,0,0,.35195,12.22733Z" transform="translate(-118.66231 -178.18943)" fill="#ffb6b6"/><path d="M924.86061,500.40062l-3.538-12.31921L957.13693,470.113l21.127-40.7091a15.44485,15.44485,0,0,1,23.20607-5.06465h0a15.46132,15.46132,0,0,1,2.681,21.67678l-31.76845,40.73667Z" transform="translate(-118.66231 -178.18943)" fill="#e4e4e4"/></svg>