/* XPM */
static const char *xtd_staticlib_icon[] = {
/* columns rows colors chars-per-pixel */
"40 40 21 1 ",
"  c #003F80",
". c #004080",
"X c #004180",
"o c #004081",
"O c #004181",
"+ c #004182",
"@ c #004284",
"# c #004488",
"$ c #004489",
"% c #00478D",
"& c #00478F",
"* c #00488F",
"= c #004890",
"- c #004891",
"; c #004991",
": c #004993",
"> c #004A93",
", c #004A94",
"< c #004B95",
"1 c #004C98",
"2 c None",
/* pixels */
"2222222222222222222222222222222222222222",
"2222222222222222222222222222222222222222",
"2222222222222222222222222222222222222222",
"2222222222222222222222222222222222222222",
"22%22222222X.2.X22222222*22*22222222 .22",
"22<X2222222..2..2222222X1221X2222222..22",
"22=..OXXXX2.o2o.2XXXXO..:22:..OXXXX2.o22",
"22; 22222 2  2  2 22222 ,22, 22222 2. 22",
"22-X2.....2  2  2.....2X>22>X2.....2. 22",
"22-X2.....2  2  2.....2X>22>X2.....2. 22",
"22-X2.....2  2  2.....2X>22>X2.....2. 22",
"22-X2.....2  2  2.....2X>22>X2.....2. 22",
"22-X2.....2  2  2.....2X>22>X2.....2. 22",
"22-X2.....2  2  2.....2X>22>X2.....2. 22",
"22-X2.....2  2  2.....2X>22>X2.....2. 22",
"22-X2.....2  2  2.....2X>22>X2.....2. 22",
"22-X2.....2  2  2.....2X>22>X2.....2. 22",
"22-X2.....2  2  2.....2X>22>X2.....2. 22",
"22-X2.....2  2  2.....2X>22>X2.....2. 22",
"22-X2.....2  2  2.....2X>22>X2.....2. 22",
"22-X2.....2  2  2.....2X>22>X2.....2. 22",
"22-X2.....2  2  2.....2X>22>X2.....2. 22",
"22-X2.....2  2  2.....2X>22>X2.....2. 22",
"22-X2.....2  2  2.....2X>22>X2.....2. 22",
"22-X2.....2  2  2.....2X>22>X2.....2. 22",
"22-X2.....2  2  2.....2X>22>X2.....2. 22",
"22-X2.....2  2  2.....2X>22>X2.....2. 22",
"22-X2.....2  2  2.....2X>22>X2.....2. 22",
"22-X2.....2  2  2.....2X>22>X2.....2. 22",
"22-X2.....2  2  2.....2X>22>X2.....2. 22",
"22-X2.....2  2  2.....2X>22>X2.....2. 22",
"22-.2.XXXX2  2  2XXXX.2.>22>.2.XXXX2o 22",
"22=X2222222.X2X.2222222X:22:X2222222 X22",
"2X: ..ooooo.+2+.ooooo.. <22< ..oooooo@22",
"22.>&====*;$222$;*====&>X22X>&====*;#.22",
"222X2222222222222222222X2222X22222222222",
"2222222222222222222222222222222222222222",
"2222222222222222222222222222222222222222",
"2222222222222222222222222222222222222222",
"2222222222222222222222222222222222222222"
};
