P3
# Ppm.ppm
4 1
255

255   0   0
  0 255   0
  0   0 255
255 255 255

