P3
# Ppm.ppm
3 1
255

255   0   0
  0 255   0
  0   0 255

