P3
# Ppm.ppm
2 4
255

255   0   0
  0 255   0

  0 255 255
255   0 255

139   0   0
  0 128   0

  0 128 128
128   0 128

