P3
# Ppm.ppm
4 2
255

255   0   0
  0 255   0
  0   0 255
255 255 255

  0 255 255
255   0 255
255 255   0
192 192 192

