#define bitmap_2_3_width 2
#define bitmap_2_3_height 3
static unsigned char bitmap_2_3_bits[] = {
   0x01, 0x02, 0x01 };
