#define bitmap_2_4_width 2
#define bitmap_2_4_height 4
static unsigned char bitmap_2_4_bits[] = {
   0x01, 0x02, 0x01, 0x02 };
