P3
# Ppm.ppm
3 3
255

255   0   0
  0 255   0
  0   0 255

  0 255 255
255   0 255
255 255   0

139   0   0
  0 128   0
  0   0 128

