P3
# Ppm.ppm
1 4
255

255   0   0

  0 255 255

139   0   0

  0 128 128

