P3
# Ppm.ppm
1 3
255

255   0   0

  0 255 255

139   0   0

