/* XPM */
static constexpr const char* document_print_preview_32x32[] = {
/* columns rows colors chars-per-pixel */
"32 32 116 2 ",
"   c #474746",
".  c #494949",
"X  c #5A5A5A",
"o  c #5E605D",
"O  c #676767",
"+  c #6B6B6A",
"@  c #70716E",
"#  c #727371",
"$  c #777974",
"%  c #797A78",
"&  c #7F817D",
"*  c #81837F",
"=  c #3566A4",
"-  c #3969A4",
";  c #406DA6",
":  c #416FA8",
">  c #4872A7",
",  c #4472AB",
"<  c #4B76AD",
"1  c #4F7AB1",
"2  c #577EB0",
"3  c #5B82B3",
"4  c #6F8DB1",
"5  c #6C8FBB",
"6  c #6991C0",
"7  c #7D9CC1",
"8  c #7A9EC8",
"9  c #7FA0C6",
"0  c #7FA2C8",
"q  c #868684",
"w  c #878984",
"e  c #898A86",
"r  c #898A89",
"t  c #8F908E",
"y  c #91938F",
"u  c #939492",
"i  c #979994",
"p  c #9E9E9C",
"a  c #9EA09A",
"s  c #859DB8",
"d  c #8CA1BA",
"f  c #91A3B7",
"g  c #96A8BA",
"h  c #A3A3A2",
"j  c #A6A9A4",
"k  c #A9AAA7",
"l  c #ACADAB",
"z  c #AFB0AD",
"x  c #B4B4B3",
"c  c #B9BAB7",
"v  c #BDBCBA",
"b  c #C0BFBD",
"n  c #BEC1BC",
"m  c #C1C1BF",
"M  c #87A6C9",
"N  c #92A9C6",
"B  c #9AAEC4",
"V  c #90ABCA",
"C  c #9AB1CB",
"Z  c #9AB8D9",
"A  c #AAB8C7",
"S  c #A3B5C8",
"D  c #AABACB",
"F  c #B0BBC7",
"G  c #A3BBD4",
"H  c #AEBFD3",
"J  c #A4C0DE",
"K  c #ADC4DC",
"L  c #B1C3D5",
"P  c #B9C6D5",
"I  c #BCC9D6",
"U  c #B6C6D8",
"Y  c #BECEDF",
"T  c #B1C9E2",
"R  c #BACEE2",
"E  c #BED0E3",
"W  c #C4C4C3",
"Q  c #C8C7C5",
"!  c #C9C9C7",
"~  c #CCCCCB",
"^  c #D0CFCD",
"/  c #D1D1CF",
"(  c #C6CFD6",
")  c #C1CCD9",
"_  c #CBD2D5",
"`  c #CDD5DA",
"'  c #D4D4D3",
"]  c #D8D7D6",
"[  c #D7D9D4",
"{  c #D9D9D7",
"}  c #DCDBDA",
"|  c #E0DFDE",
" . c #DEE1DC",
".. c #E0E1DE",
"X. c #C1D2E4",
"o. c #CBD5E0",
"O. c #CEDCEB",
"+. c #D3DFEC",
"@. c #D6E1EE",
"#. c #DAE4ED",
"$. c #D5E2F0",
"%. c #DBE6F1",
"&. c #DFE9F4",
"*. c #E3E2E2",
"=. c #E8E8E7",
"-. c #E2E7EB",
";. c #E7EBED",
":. c #ECEDEC",
">. c #F0EFEF",
",. c #F0F1EF",
"<. c #E4ECF4",
"1. c #EDF1F4",
"2. c #F4F4F4",
"3. c #F8F8F7",
"4. c #FAFAFA",
"5. c None",
/* pixels */
"5.5.5.5.5.5.5.5.5.5.5.5.5.5.5.5.5.5.5.5.5.5.5.5.5.5.5.5.5.5.5.5.",
"5.5.5.5.5.5.5.5.5.5.5.5.5.5.5.5.5.5.5.5.5.5.5.5.5.5.5.5.5.5.5.5.",
"5.5.5.5.5.5.u r e r e e r r r r r r r r r r r r r u 5.5.5.5.5.5.",
"5.5.5.5.5.5.r 3.4.4.4.3.3.3.3.3.3.3.3.3.3.3.3.3.4.r 5.5.5.5.5.5.",
"5.5.5.5.5.5.r 3.! k y t t h n  .+.| | *.| | | *.4.r 5.5.5.5.5.5.",
"5.5.5.5.5.5.r k k #.3.4.4.;.n t x W W W W W *.| 3.r 5.5.5.5.5.5.",
"5.5.5.5.5.5.w } 4.L 3 = 1 C 2.:.i Q *.*.*.*.*.*.3.r 5.5.5.5.5.5.",
"5.5.5.5.5.w { ;.< 0 E +.E M - o.>.e W ~ ~ ~ ;.;.3.r 5.5.5.5.5.5.",
"5.5.5.5.5.j 3.1 K <.1.<.%.#.K < -.! l >.>.>.>.>.3.r 5.5.5.5.5.5.",
"5.5.5.5.e { B 9 %.&.1.<.%.+.K 0 5 3.r ' ' ' >.>.3.r 5.5.5.5.5.5.",
"5.5.5.5.w *.< K %.&.&.<.;.%.T J , ;.p } 2.3.4.3.3.r 5.5.5.5.5.5.",
"5.5.5.5.w  .- T $.@.#.%.#.Y J G 1 ` k ] 4.4.4.4.3.r 5.5.5.5.5.5.",
"5.5.5.5.w { , Z O.$.%.%.O.X.R K , _ i { 2.2.2.2.4.r 5.5.5.5.5.5.",
"5.5.5.5.w / d 5 Z K U P I I L V 3  .4 ] | o.| } 2.r 5.5.5.5.5.5.",
"5.5.5.5.# j :.< 5 S A A A A B < / m @ z Q Q Q Q | r O + 5.5.5.5.",
"5.5.5.# :.k { ;.1 3 d f f 4 > I ,.m j @ t l l z c q >.+.# 5.5.5.",
"5.5.# / 4.2.r ] 4.D 3 - < N 2.:.^ c a h @ % h h h u =.>.W 5.5.5.",
"5.5.+ 4.4.4.2.k k *.3.4.3.=.c $ a b c a h * e 2.4.4.4.4.4.+ 5.5.",
"5.5.O 4.=.=.~ ' ' z i r y p c ] * u c x a j y @ / } ^ ! 4.O 5.5.",
"5.5.O 3.[ >.W } =.*.*.| } } } } | e & c x h c j q >.W c 2.O 5.5.",
"5.5.O 3.r *.} } *.*.} } ' ' ' ^ ' ] p @ x b [ ..X >.q v >.O 5.5.",
"5.5.O 2.j O o O X X X X X X X X X X o X o x ..l X + u v =.O 5.5.",
"5.5.O >.] ] [ ' / ! ! Q m m b b b b b b z # X % x b b v *.O 5.5.",
"5.5.O >.} ] [ [ ' ' ' / ^ ^ ~ ! ~ Q Q Q W m m m b b v v } O 5.5.",
"5.5.O =.} ] [ [ ' ' ' / ^ ~ ~ ~ ! ! Q Q W W m m b b c b ' O 5.5.",
"5.5.O =.} [ ] ' [ ' / / / ~ ~ ~ ! ! Q Q W W m W b b b c / O 5.5.",
"5.5.O } =.*.*.| *.} } } } } } { { ] ] ' ' / ' ~ ^ ^ ~ ~ W O 5.5.",
"5.5.O O O O O O O O O O O O O O O O O O O O O O O O O O + X 5.5.",
"5.5.5.  X X X X X X X X X X X X X X X X X X X X X X X X . 5.5.5.",
"5.5.5.5.5.5.5.5.5.5.5.5.5.5.5.5.5.5.5.5.5.5.5.5.5.5.5.5.5.5.5.5.",
"5.5.5.5.5.5.5.5.5.5.5.5.5.5.5.5.5.5.5.5.5.5.5.5.5.5.5.5.5.5.5.5.",
"5.5.5.5.5.5.5.5.5.5.5.5.5.5.5.5.5.5.5.5.5.5.5.5.5.5.5.5.5.5.5.5."
};
