/* XPM */
static constexpr const char* document_print_32x32[] = {
/* columns rows colors chars-per-pixel */
"32 32 167 2 ",
"   c #474746",
".  c #494949",
"X  c gray35",
"o  c #5A5A5A",
"O  c #5F5F5F",
"+  c gray40",
"@  c #676666",
"#  c #676767",
"$  c #686868",
"%  c DimGray",
"&  c #6A6A69",
"*  c gray42",
"=  c #6C6B6B",
"-  c #6C6C6C",
";  c gray43",
":  c #717171",
">  c #858584",
",  c gray52",
"<  c #898989",
"1  c gray54",
"2  c #8D8D8C",
"3  c #909090",
"4  c #929292",
"5  c #979795",
"6  c #9B9B9B",
"7  c #A2A2A2",
"8  c #A7A7A6",
"9  c #A7A7A7",
"0  c #A9A9A9",
"q  c #ACACAC",
"w  c gray68",
"e  c #AEAEAE",
"r  c #B2B2B2",
"t  c #B9B9B9",
"y  c #BCBBB9",
"u  c #BDBCBA",
"i  c #BFBEBC",
"p  c gray",
"a  c gray75",
"s  c #C0BFBD",
"d  c #C1C1BF",
"f  c #C1C1C1",
"g  c #C3C2C0",
"h  c gray76",
"j  c #C3C3C3",
"k  c #C4C3C1",
"l  c #C4C4C3",
"z  c #C5C5C3",
"x  c gray77",
"c  c #C5C5C5",
"v  c #C7C6C4",
"b  c #C6C6C6",
"n  c #C8C7C5",
"m  c #C9C9C7",
"M  c #CBCAC8",
"N  c #CACAC9",
"B  c #CBCBCB",
"V  c #CCCBC9",
"C  c #CDCCCB",
"Z  c #CDCDCB",
"A  c #CECDCB",
"S  c gray80",
"D  c #CDCDCC",
"F  c #CECDCC",
"G  c #CECECC",
"H  c #CFCECD",
"J  c #CECECE",
"K  c #D0CFCD",
"L  c #D0CFCE",
"P  c #D1D1CF",
"I  c gray82",
"U  c #D2D1D0",
"Y  c #D2D2D0",
"T  c #D3D2D1",
"R  c LightGray",
"E  c #D4D4D2",
"W  c #D5D4D3",
"Q  c #D5D5D3",
"!  c gray83",
"~  c #D5D5D4",
"^  c #D6D5D4",
"/  c #D6D6D4",
"(  c #D7D7D5",
")  c #D7D7D6",
"_  c #D7D7D7",
"`  c #D8D7D6",
"'  c #D8D8D6",
"]  c #D9D8D7",
"[  c #D9D9D7",
"{  c #D8D8D8",
"}  c gray85",
"|  c #DADAD8",
" . c #DADAD9",
".. c #DBDBD9",
"X. c #DADADA",
"o. c gray86",
"O. c #DCDBD9",
"+. c #DCDBDA",
"@. c #DCDCDA",
"#. c #DDDDDB",
"$. c gainsboro",
"%. c #DDDDDC",
"&. c #DEDDDD",
"*. c #DEDEDD",
"=. c #DFDFDD",
"-. c #E0DFDE",
";. c #E0E0DE",
":. c #E0E0DF",
">. c gray88",
",. c #E1E1E0",
"<. c #E1E1E1",
"1. c #E2E1E1",
"2. c #E2E2E0",
"3. c #E3E2E1",
"4. c #E3E3E1",
"5. c #E2E2E2",
"6. c #E3E3E2",
"7. c #E4E3E1",
"8. c #E4E4E2",
"9. c #E5E4E3",
"0. c #E4E4E4",
"q. c #E5E5E4",
"w. c gray90",
"e. c #E6E5E4",
"r. c #E6E6E5",
"t. c #E7E7E6",
"y. c #E7E7E7",
"u. c #E8E8E7",
"i. c #E9E9E7",
"p. c #E9E9E9",
"a. c #EAEAEA",
"s. c #EBEBEA",
"d. c gray92",
"f. c #ECEBE9",
"g. c gray93",
"h. c #EEEDEC",
"j. c #EEEDED",
"k. c #EFEDED",
"l. c #EEEEED",
"z. c #EFEEED",
"x. c #EEEEEE",
"c. c #EFEEEE",
"v. c #EFEFEF",
"b. c #F0EFEE",
"n. c #F0EFEF",
"m. c #F1EFEF",
"M. c #F1F0EF",
"N. c gray94",
"B. c #F1F0F0",
"V. c #F1F1F0",
"C. c #F1F1F1",
"Z. c #F2F1F1",
"A. c gray95",
"S. c #F3F3F3",
"D. c #F4F3F3",
"F. c #F4F4F4",
"G. c #F7F6F5",
"H. c #F6F6F6",
"J. c gray97",
"K. c #F8F8F8",
"L. c #F9F9F9",
"P. c gray98",
"I. c #FBFBFB",
"U. c gray99",
"Y. c #FDFDFD",
"T. c #FEFEFE",
"R. c None",
/* pixels */
"R.R.R.R.R.R.R.R.R.R.R.R.R.R.R.R.R.R.R.R.R.R.R.R.R.R.R.R.R.R.R.R.",
"R.R.R.R.R.R.R.R.R.R.R.R.R.R.R.R.R.R.R.R.R.R.R.R.R.R.R.R.R.R.R.R.",
"R.R.R.R.R.R.3 < < < < < < < < < < < < < < < < < < 3 R.R.R.R.R.R.",
"R.R.R.R.R.R.1 K.K.K.K.K.K.K.K.K.K.K.K.K.K.K.K.K.K.1 R.R.R.R.R.R.",
"R.R.R.R.R.R.< K.>.>.>.>.>.>.>.>.>.>.>.>.>.>.>.>.K.< R.R.R.R.R.R.",
"R.R.R.R.R.R.< K.>.j j j j j j a e h j j j j >.>.K.< R.R.R.R.R.R.",
"R.R.R.R.R.R.< K.w.w.w.w.w.w.<.r 9 p 0.0.0.0.0.0.K.< R.R.R.R.R.R.",
"R.R.R.R.R.R.< K.a.S S B B B r 9 9 9 p B B B p.p.K.< R.R.R.R.R.R.",
"R.R.R.R.R.R.< K.x.x.x.x.x.b 9 9 9 9 0 5.x.x.x.g.K.< R.R.R.R.R.R.",
"R.R.R.R.R.R.< K.S.! ! ! j 9 9 9 9 9 9 e I R A.A.K.< R.R.R.R.R.R.",
"R.R.R.R.R.R.< K.K.K.K.0.0 9 9 9 9 9 9 9 j J.J.J.K.< R.R.R.R.R.R.",
"R.R.R.R.R.R.< K.Y.$.$.$.o.o.9 9 9 9 9 J.U.U.U.U.K.< R.R.R.R.R.R.",
"R.R.R.R.R.R.< K.v.N.N.N.C.C.9 9 9 9 9 v.S.F.F.F.K.< R.R.R.R.R.R.",
"R.R.R.R.R.R.< A._ _ { { { } } } X.X.X.o.o.o.$.$.A.< R.R.R.R.R.R.",
"R.R.R.R.* # < >.j j j x x x x x c c c c b b b b >.< # = R.R.R.R.",
"R.R.R.: d.I.< t q q w w w q q q q q w w w w e e t , C.<.; R.R.R.",
"R.R.; J I.I.6 7 7 7 7 7 7 7 7 7 7 7 7 7 7 7 7 7 7 4 y.g.f R.R.R.",
"R.R.- Y.T.T.T.T.T.T.T.T.T.T.Y.Y.Y.Y.Y.Y.Y.Y.Y.Y.Y.Y.Y.Y.U.& R.R.",
"R.R.# U.8.i.D ~ t.r.w.q.9.6.4.1.,.,.;.-.*.&.%.%.@.O.F m P.# R.R.",
"R.R.# L.Q Z.N 7.B.B.B.M.m.n.n.n.b.b.c.c.c.z.k.j.j.h.l y D.# R.R.",
"R.R.# H.2 h.e.f.G.G.G.G.G.G.G.G.G.G.G.G.G.G.G.G.G.h.> y l.# R.R.",
"R.R.# S.8 * + + + + @ @ + + + + + + + + + + + + + * 5 y u.# R.R.",
"R.R.# V.| [ ' / Q E Y P K G Z V M m n v z k g d s i u y 3.# R.R.",
"R.R.# l.| [ ' / Q E Y P K G Z V M m n v z k g d s i u y %.# R.R.",
"R.R.# s.| [ ' / Q E Y P K G Z V M m n v z k g d s i u y ) # R.R.",
"R.R.# u.| [ ' / Q E Y P K G Z V M m n v z k g d s i u y U # R.R.",
"R.R.% ..8.4.2.:.;.=.%.#.+. .| ] ` ( ^ W E T U P L H A C k $ R.R.",
"R.R.O $ # # # # # # # # # # # # # # # # # # # # # # # # $ X R.R.",
"R.R.R.  o X X X X X X X X X X X X X X X X X X X X X X X . R.R.R.",
"R.R.R.R.R.R.R.R.R.R.R.R.R.R.R.R.R.R.R.R.R.R.R.R.R.R.R.R.R.R.R.R.",
"R.R.R.R.R.R.R.R.R.R.R.R.R.R.R.R.R.R.R.R.R.R.R.R.R.R.R.R.R.R.R.R.",
"R.R.R.R.R.R.R.R.R.R.R.R.R.R.R.R.R.R.R.R.R.R.R.R.R.R.R.R.R.R.R.R."
};
