/* XPM */
static constexpr const char* gammasoft_32x32[] = {
/* columns rows colors chars-per-pixel */
"32 32 240 2 ",
"   c None",
".  c black",
"X  c #000F27",
"o  c #00002F",
"O  c #001027",
"+  c #00102A",
"@  c #00112F",
"#  c #0C192D",
"$  c #0C192F",
"%  c #161B27",
"&  c #1C1F24",
"*  c #000031",
"=  c #001430",
"-  c #00173A",
";  c #001A3A",
":  c #001A3B",
">  c #001B3B",
",  c #001B3C",
"<  c #001B3D",
"1  c #011C3C",
"2  c #001C3E",
"3  c #303235",
"4  c gray23",
"5  c #3E3D3B",
"6  c #3C3C3C",
"7  c #000056",
"8  c #000059",
"9  c #00005A",
"0  c #002047",
"q  c #072347",
"w  c #002B5A",
"e  c #092D59",
"r  c #1E3254",
"t  c #173158",
"y  c #193158",
"u  c #193258",
"i  c #183259",
"p  c #1C3358",
"a  c #1C3259",
"s  c #1C355D",
"d  c #2C374F",
"f  c #26395C",
"g  c #000062",
"h  c #000063",
"j  c #000064",
"k  c #000065",
"l  c #000066",
"z  c #000067",
"x  c #000068",
"c  c #000069",
"v  c #00236A",
"b  c #00246B",
"n  c #00356E",
"m  c #173867",
"M  c #143A6E",
"N  c #002279",
"B  c #002979",
"V  c #003277",
"C  c #00377C",
"Z  c #003B7A",
"A  c #063E7A",
"S  c #00387C",
"D  c #00387D",
"F  c #00397E",
"G  c #00397F",
"H  c #033E7C",
"J  c #143E76",
"K  c #2D3E62",
"L  c #283E65",
"P  c #3A4255",
"I  c #3F4658",
"U  c #00407F",
"Y  c #1E4072",
"T  c #324366",
"R  c gray26",
"E  c #404657",
"W  c #434855",
"Q  c #444854",
"!  c #444955",
"~  c #464A55",
"^  c #444956",
"/  c #404658",
"(  c #505051",
")  c #555555",
"_  c #73716A",
"`  c #77756E",
"'  c #747471",
"]  c #757572",
"[  c #767573",
"{  c #747474",
"}  c gray46",
"|  c #767676",
" . c #7A7976",
".. c #7B7A76",
"X. c #787879",
"o. c #7A7978",
"O. c #7A7A7B",
"+. c #7C7B78",
"@. c gray49",
"#. c gray50",
"$. c #82827F",
"%. c #003B81",
"&. c #003C80",
"*. c #003D80",
"=. c #003D81",
"-. c #003C82",
";. c #003E82",
":. c #004080",
">. c #004081",
",. c #004181",
"<. c #034181",
"1. c #004082",
"2. c #004083",
"3. c #004183",
"4. c #004283",
"5. c #054080",
"6. c #064180",
"7. c #074281",
"8. c #044282",
"9. c #054282",
"0. c #064282",
"q. c #074282",
"w. c #064283",
"e. c #074383",
"r. c #004284",
"t. c #054385",
"y. c #084180",
"u. c #094281",
"i. c #0A4281",
"p. c #094282",
"a. c #094384",
"s. c #0A4486",
"d. c #0F4585",
"f. c #214985",
"g. c #234A84",
"h. c #224A85",
"j. c #234A85",
"k. c #234B87",
"l. c #244B87",
"z. c #254B87",
"x. c #264C87",
"c. c #214B88",
"v. c #234C88",
"b. c #234C89",
"n. c #244C89",
"m. c #244C8A",
"M. c #5E6B8C",
"N. c #5E6C8D",
"B. c #7F7F80",
"V. c #77819A",
"C. c #808080",
"Z. c #818181",
"A. c #828180",
"S. c #828280",
"D. c #818182",
"F. c #818282",
"G. c gray51",
"H. c #838383",
"J. c #848382",
"K. c #838484",
"L. c #848484",
"P. c #858484",
"I. c #868584",
"U. c #8E8E8E",
"Y. c #9EA0A1",
"T. c #A0A0A1",
"R. c #A1A1A3",
"E. c #A2A2A3",
"W. c gray64",
"Q. c #A4A4A4",
"!. c #A5A5A5",
"~. c #A4A4A6",
"^. c gray65",
"/. c #A7A8AA",
"(. c #A8A9A9",
"). c #A8A8AA",
"_. c #A8A9AA",
"`. c #A8A9AB",
"'. c #A9A9AB",
"]. c #A9AAAB",
"[. c #A9AAAC",
"{. c #AAAAAC",
"}. c #ABABAD",
"|. c #A5A8B3",
" X c #B1B1B1",
".X c #B1B1B2",
"XX c gray70",
"oX c #B3B3B4",
"OX c #B5B5B6",
"+X c #B7B8B8",
"@X c #BBBBBB",
"#X c #BCBCBC",
"$X c #B8BBC5",
"%X c #C3C3C3",
"&X c #C5C5C5",
"*X c #C6C8CF",
"=X c #CACACA",
"-X c #CBCBCB",
";X c #CDCDCD",
":X c #D0D0D0",
">X c LightGray",
",X c gray84",
"<X c #D7D7D7",
"1X c gray86",
"2X c #D9DADE",
"3X c gainsboro",
"4X c gray87",
"5X c #DFDFDF",
"6X c gray88",
"7X c #E2E2E2",
"8X c gray89",
"9X c #E4E4E4",
"0X c #E9E9E9",
"qX c #EAEAEA",
"wX c gray92",
"eX c #ECECEC",
"rX c gray93",
"tX c #EFEFEF",
"yX c gray94",
"uX c #F1F1F1",
"iX c gray95",
"pX c #F3F3F3",
"aX c #F4F4F4",
"sX c gray96",
"dX c #F6F6F6",
"fX c gray97",
"gX c #F8F8F7",
"hX c #F8F8F8",
"jX c #F9F9F8",
"kX c #F9F9F9",
"lX c #FAFAF9",
"zX c gray98",
"xX c #FBFBFB",
"cX c gray99",
"vX c #FCFCFD",
"bX c #FDFDFD",
"nX c #FEFDFC",
"mX c #FEFEFE",
"MX c #FEFEFF",
"NX c white",
/* pixels */
"                                                                ",
"                                                                ",
"      + 2 : , , 2 , 1 1 - & 6 4 4 4 4 4 4 4 6 R 6 % @           ",
"    + >.>.r.r.>.>.r.>.s.D ! P.P.H.H.H.K.J.P.F.O.$.P *.q         ",
"    2 >.>.>.4.>.>.>.>.i.C ! J.F.F.F.F.#.F.J.| . | / *.0.0       ",
"    2 r.>.>.>.U >.U U i.D Q $.B.F.#.F.#.#.J.| . ' I D s.r.=     ",
"    1 >.4.>.U >.U >.U i.D ! F.#.#.#.F.#.#.F.{ . ' I D 0.>.2     ",
"    1 4.U U >.U >.U >.i.C ! P.F.F.F.F.F.F.H.X.3  .E D i.r.,     ",
"    2 >.>.>.>.>.U >.U 0.*.d ` +....... ..... .+._ r *.>.>.1     ",
"    2 >.>.>.>.U >.U U U t.A e a y f K s y y y a w Z 0.>.r.2     ",
"    2 >.>.H >.U U U >.H m b s.>.d.N 9 n r.r.>.>.r.>.>.>.>.:     ",
"    2 4.0.U h.h.h.h.k.Y b N.V 0.B V.|.M J x.h.h.h.h.U 0.r.1     ",
"    1 >.0.*.l l l l l 9 $XNX2Xl M.NXNX*X9 x l l l x *.0.>.1     ",
"    2 e.*.T E.[./.(.(.E.xXNXNXOX;XNXNXfXQ.(.(./.(.Y.L *.t.1     ",
"    : b.l (.NXNXNXNXNXxXfXU.,XfXpXE.@XNXgXNXNXNXNXNXE.x c.:     ",
"    : m.g oXNXxXNXcXNXpXfXQ.XXxX1XU.,XxXtXNXxXNXxXNX[.l b.:     ",
"    : m.g }.NXNXNXNXNXNXtXtXtXtXpX1XxXwXxXNXNXNXcXNX(.l m.:     ",
"    : m.g XXNXcXNXNXNXNXNXpXtXfXNXfXeXxXNXNXNXNXNXNX(.l b.:     ",
"    : m.g XXNXcXNXNXNXxX4XfXNXNXNXNXNX9XpXNXNXNXxXNX/.l b.:     ",
"    : c.g XXNXNXNXNXNXNX=X;XxXNXNXNXeXQ.xXNXNXNXNXNX/.l b.:     ",
"    : m.g XXNXcXNXNXxXNXpX4X1X7X0X4X@X&XNXNXNXNXNXNX(.l b.:     ",
"    : m.g XXNXxXNXNXNXNXxX4XNXtX7XgX=X0XNXNXNXNXNXNX[.l b.:     ",
"    : m.g XXNXNXNXNXNXNXNX4XtXNXNXxXXXNXcXNXNXNXxXNX(.l b.:     ",
"    : x.g  XNXxXNXNXNXNXNXNX;XfXNXQ.7XNXNXNXNXNXNXNX(.l b.:     ",
"    : x.g XXNXxXNXNXNXNXNXNXpX%XQ.:XNXNXNXNXNXNXxXNX(.l b.:     ",
"    : m.g XXNXNXNXNXNXNXNXNXNXNXNXNXNXNXNXNXNXNXNXNX(.l b.,     ",
"    : m.g  XNXxXNXNXNXNXNXNXNXNXNXNXNXNXNXNXNXNXxXNX/.l b.:     ",
"    , m.g XXNXNXNXNXNXNXNXNXNXNXNXNXNXNXNXNXNXNXNXNX[.l b.,     ",
"    X z.l OXNXNXNXNXNXNXNXNXNXNXNXNXNXNXNXNXNXNXNXNX[.x l.O     ",
"      # o ) F.@.@.@.@.@.@.@.@.@.@.@.@.@.@.@.@.@.@.F.( * #       ",
"                                                                ",
"                                                                "
};
