/* XPM */
static char *_6fcc4483579433986101f844b7142d7[] = {
/* columns rows colors chars-per-pixel */
"32 32 82 1 ",
"  c None",
". c #474747",
"X c #4B4B4B",
"o c #565656",
"O c #5A5A5A",
"+ c #656565",
"@ c #6D6D6D",
"# c gray46",
"$ c #7B7B7B",
"% c #3366A5",
"& c #3668A7",
"* c #3A6AA7",
"= c #3D6CA8",
"- c #3E70AC",
"; c #406FA9",
": c #4172AD",
"> c #4975AC",
", c #557CAF",
"< c #4575B0",
"1 c #4877B3",
"2 c #4C7CB6",
"3 c #5F85B4",
"4 c #5988BE",
"5 c #6387B2",
"6 c #6388B3",
"7 c #6B8CB5",
"8 c #6F90B9",
"9 c #7392B7",
"0 c #7594BA",
"q c #7996BB",
"w c #7C9ABD",
"e c #5E8BC1",
"r c #618FC3",
"t c #6C96CA",
"y c #6C9ACB",
"u c #719ECE",
"i c #709FD1",
"p c #7CA6D1",
"a c #868686",
"s c #8A8A8A",
"d c #939393",
"f c #9B9B9B",
"g c #A3A3A3",
"h c #ABABAB",
"j c gray70",
"k c #BABABA",
"l c #819EC3",
"z c #85A1C5",
"x c #84ABD4",
"c c #8BB1D7",
"v c #91B5DA",
"b c #B8C2CD",
"n c #BDC6D1",
"m c #A3C2E0",
"M c #ACC6E2",
"N c #AFC9E4",
"B c #BED3E9",
"V c #C4C4C4",
"C c #CCCCCC",
"Z c #C3CAD2",
"A c #C9CFD7",
"S c #D2D2D2",
"D c #D7D8DA",
"F c #DCDCDC",
"G c #C3D6EA",
"H c #C6D9EC",
"J c #CCDCEE",
"K c #D5DCE5",
"L c #D2DFEE",
"P c #D1E0EF",
"I c #D9E2ED",
"U c #D5E2F1",
"Y c #DBE6F2",
"T c #DEE9F4",
"R c #E3E3E3",
"E c #E5E6E8",
"W c #ECECEC",
"Q c #E3ECF5",
"! c #E8F0F7",
"~ c #EDF3F9",
"^ c #F3F3F3",
"/ c #FBFBFB",
/* pixels */
"                                ",
"          ssssss                ",
"        fSW////Rks              ",
"      sD/^ERRFEW/Wjs            ",
"     d^^Fb5*%%*6n^/Vs           ",
"    sWWD3%2ryyr2%6E/Vs          ",
"    S^F>-uMJUPBvy->W~h          ",
"   d/F7-xPQ!QTULMu:9/Ds         ",
"   VWZ&uLQQ~QQYUJcu*KWh         ",
"  sFR72mYT!!QQTUJpu29^Vs        ",
"  sEF=rGUTQQQTYUBuur;^Ss        ",
"  sED%yHPUYTQTYUvuuy%WFs        ",
"  sRF%yGJUUYYYUN  uy%EFs        ",
"  sRR=rMGJLUYU    ue;ESa        ",
"  sCE92xNBJH       2wEka        ",
"   h^A*uu          *KRf         ",
"   sR^q<i         :lWC$         ",
"    g^^,:t       -6^Ds@         ",
"    ak^^0%14  4>*l^RRVdo        ",
"     sjW/Kl>&%>zKWFIVdgd.       ",
"      sgSE^///^EFCsCjhdggX      ",
"        sgkCDSCkf$@dkhhdggo     ",
"          ssssss   o$khhdfh+.   ",
"                    .@jjhfdh#.  ",
"                      OjjhgjR$. ",
"             WWE       XhjjFRV. ",
"            W^/^WD      .gSFEk. ",
"                         .sSVO  ",
"                           ..   ",
"                                ",
"                                ",
"                                "
};
