/* XPM */
static char *e63e291d488f42cfcb016952ac7d35e0[] = {
/* columns rows colors chars-per-pixel */
"32 32 112 2 ",
"   c None",
".  c #FFF312",
"X  c #FFF412",
"o  c #FFF413",
"O  c #FFF315",
"+  c #FFF316",
"@  c #FFF414",
"#  c #FFF416",
"$  c #FFF41A",
"%  c #FFF51B",
"&  c #FFF31F",
"*  c #FFF41C",
"=  c #FFF41E",
"-  c #FFF41F",
";  c #E5DC33",
":  c #E3DB34",
">  c #F6ED39",
",  c #FAF137",
"<  c #FFF63D",
"1  c #FFF63F",
"2  c #989974",
"3  c #A1A06A",
"4  c #C3BF4B",
"5  c #C4BF4B",
"6  c #F3EB40",
"7  c #F3EB46",
"8  c #F1E94A",
"9  c #F4EC4E",
"0  c #FAF142",
"q  c #FFF640",
"w  c #FAF246",
"e  c #FFF649",
"r  c #FFF74F",
"t  c #EFE856",
"y  c #EDE65E",
"u  c #E2DD74",
"i  c #E6E065",
"p  c #E8E266",
"a  c #F7F062",
"s  c #FAF364",
"d  c #FCF667",
"f  c #FFF86F",
"g  c #FFF96F",
"h  c #E8E271",
"j  c #FBF570",
"k  c #FFF975",
"l  c #FFF97C",
"z  c #888A85",
"x  c #898B87",
"c  c #8A8C87",
"v  c #8B8D87",
"b  c #8B8C88",
"n  c #8C8E89",
"m  c #8C8E8A",
"M  c #8D8F8A",
"N  c #8E8F8A",
"B  c #BDBEBC",
"V  c #DCD890",
"C  c #D5D299",
"Z  c #E2DE8C",
"A  c #E0DC8F",
"S  c #E0DC92",
"D  c #F8F281",
"F  c #FBF582",
"G  c #FCF684",
"H  c #FAF59B",
"J  c #D3D1A8",
"K  c #DCD9A8",
"L  c #D5D4BA",
"P  c #FCF7A2",
"I  c #FEF9A6",
"U  c #FBF7AF",
"Y  c #FFFBB1",
"T  c #FEFBB5",
"R  c #CFCEC4",
"E  c #C8C8C8",
"W  c #CACACA",
"Q  c #CBCBCB",
"!  c #CDCDCD",
"~  c #D5D4C8",
"^  c #D0D0D0",
"/  c LightGray",
"(  c #D5D5D4",
")  c #D5D5D5",
"_  c gray84",
"`  c #D8D8D8",
"'  c gray85",
"]  c gray86",
"[  c gainsboro",
"{  c gray87",
"}  c #FFFCC1",
"|  c #FEFBCA",
" . c #E1E1E1",
".. c #E4E4E4",
"X. c gray90",
"o. c #E6E6E6",
"O. c #EFEFEF",
"+. c #FFFDE7",
"@. c gray94",
"#. c #F1F1F1",
"$. c gray95",
"%. c #F3F3F3",
"&. c #F4F4F4",
"*. c gray96",
"=. c #F6F6F6",
"-. c gray97",
";. c #F8F8F8",
":. c #F9F9F9",
">. c #FBFBFB",
",. c #FDFDFD",
"<. c #FEFEFE",
"1. c white",
/* pixels */
"                                                                ",
"                                                                ",
"                                                                ",
"                                                                ",
"                                                                ",
"                                              + $ $ $ .         ",
"                                            # - q r 1 - #       ",
"          n v z z z z z z z z z z z z z 3 4 ; 9 D H F e - .     ",
"        b B :.1.1.1.1.1.1.1.1.1.1.1.1.1.} l 1 g Y +.U d & #     ",
"        x -./ E E E E E E E E E E E E E C i > s P | I a & #     ",
"        v 1.Q W W W W W W W W W W W W W J u 8 w j G k > $       ",
"        v 1.! ! ! ! ! ! ! ! ! ! ! ! ! Q R A i 7 , 0 1 : #       ",
"        v 1.^ ^ ^ ^ ^ ^ ^ ^ ^ ^ ^ ^ ^ ^ / L A h y t k 5         ",
"        z 1./ ) / / / ) / / / ) / / / / / / ~ K S Z Y 2         ",
"        b 1.) ) ) ` ) ` ) ) ` ) ` ) ) ) ) ) ) ) ) ( :.z         ",
"        b 1.` ` ` ` ` ` ` ` ` ` ` ` ` ` ` ` ` ` ` ` :.z         ",
"        b :.{ ] { ] { ` { ` { ` ] ] ] ] ] ] ] ] ] ] -.z         ",
"        v :.{ { { { { { { { { { { { { { { { { { { { -.z         ",
"        z ;. . . . . . . . . . . . . . . . . . . . .-.z         ",
"  n z z z -.....X. .........X.X.....................&.z z z n   ",
"  N ;.-.:.-.X.X.X.X.X.X.X.X.X.X.X.X.X.X.X.X.X.X.X.X.-.%.-.#.z   ",
"  n &.X.X.X.X.X.X.X.X.X.X.X.X.X.X.X.X.X.X.X.X.X.X.X...X.X.#.z   ",
"  n #.X.X.X.X.X.X.X.X.X.X.X.X.X.X.X.X.X.X.X.X.X.X.X.X.X.X.#.z   ",
"  n &.#.#.%.#.%.#.#.#.#.#.#.#.#.#.#.@.@.@.@.@.@.O.O.O.O.O.O.z   ",
"  b z z z z z z z z z z z z z z z z z z z z z z z z z z z z z   ",
"                                                                ",
"                                                                ",
"                                                                ",
"                                                                ",
"                                                                ",
"                                                                ",
"                                                                "
};
