/* XPM */
static constexpr const char* flag_16x16[] = {
/* columns rows colors chars-per-pixel */
"16 16 67 1 ",
"  c black",
". c #0B0B0A",
"X c #0D0D0C",
"o c #1D1D1E",
"O c #202121",
"+ c #242426",
"@ c #272729",
"# c gray18",
"$ c #2F2F30",
"% c #2E3A3D",
"& c #323232",
"* c #363638",
"= c #393639",
"- c #39393A",
"; c #3D393B",
": c #510F11",
"> c #640000",
", c #770104",
"< c #760105",
"1 c #780107",
"2 c #7B010A",
"3 c #58272A",
"4 c #54292D",
"5 c #48474D",
"6 c #4C4C50",
"7 c #515157",
"8 c #66666B",
"9 c #850005",
"0 c #8E0000",
"q c #880009",
"w c #89000C",
"e c #8C000C",
"r c #93000D",
"t c #90030E",
"y c #9B000F",
"u c #890910",
"i c #890C13",
"p c #9A0111",
"a c #9E0312",
"s c #93161C",
"d c #981218",
"f c #A30A17",
"g c #A60916",
"h c #A50C17",
"j c #AF0E1A",
"k c #B30917",
"l c #AD121B",
"z c #B1121D",
"x c #B6151F",
"c c #A61B22",
"v c #B41720",
"b c #9E2126",
"n c #A52B2F",
"m c #B2262C",
"M c #B12B2F",
"N c #BA2F34",
"B c #AA3538",
"V c #AA363A",
"C c #BB3439",
"Z c #C11520",
"A c #C51520",
"S c #C31C26",
"D c #C21D27",
"F c #AC3C40",
"G c #A1A1A7",
"H c #B9B9BC",
"J c None",
/* pixels */
"JJJJJJJJJJ:JJJJJ",
"JJJJJJJJ>12JJJJJ",
"JJJJJJJ<9uiJJJJJ",
"JJJJJ,qrrdsJJJJJ",
"JJJweyafgcbJJJJJ",
"JJJpkjzvxmnJJJJJ",
"JJJJJhZDSNBJJJJJ",
"JJJJJJtlACFJJJJJ",
"JJJJJJJJ0MVJJJJJ",
"JJJJJJJJJ34JJJJJ",
"JJJJJJJJJJ%JJJJJ",
"JJJJJJJJJ;=JJJJJ",
"JJJJJJJJX+@.JJJJ",
"JJJJJJJO 57 oJJJ",
"JJJJJJJ#$*-$&JJJ",
"JJJJJJJJ6GH8JJJJ"
};
