/* XPM */
static constexpr const char* contact_new_32x32[] = {
/* columns rows colors chars-per-pixel */
"32 32 240 2 ",
"   c #404604",
".  c #414704",
"X  c #404605",
"o  c #424807",
"O  c #535717",
"+  c #53581B",
"@  c #53591B",
"#  c #555B18",
"$  c #6E480A",
"%  c #704B0C",
"&  c #685417",
"*  c #785317",
"=  c #795318",
"-  c #7A5419",
";  c #5B611F",
":  c #677209",
">  c #687309",
",  c #6C770A",
"<  c #697311",
"1  c #595E23",
"2  c #5E6520",
"3  c #5B6026",
"4  c #5C6228",
"5  c #5E632A",
"6  c #796521",
"7  c gray35",
"8  c #7E7D5F",
"9  c #606060",
"0  c gray40",
"q  c #6C6C6C",
"w  c #727272",
"e  c gray45",
"r  c #747474",
"t  c gray46",
"y  c #767676",
"u  c #777777",
"i  c gray47",
"p  c #797979",
"a  c gray48",
"s  c #7B7B7B",
"d  c #7C7C7C",
"f  c gray49",
"g  c #7E7E7E",
"h  c #815D22",
"j  c #825F22",
"k  c #8B662B",
"l  c #867240",
"z  c #897547",
"x  c #768020",
"c  c #798135",
"v  c #7A8236",
"b  c #7B823E",
"n  c #848C3E",
"m  c #8A923F",
"M  c #A9A438",
"N  c #B3AE3E",
"B  c #FFF412",
"V  c #FFF315",
"C  c #FFF414",
"Z  c #FFF515",
"A  c #FFF518",
"S  c #FFF41A",
"D  c #FFF41F",
"F  c #EFE522",
"G  c #FFF526",
"H  c #FFF529",
"J  c #ECE332",
"K  c #F1E830",
"L  c #FFF535",
"P  c #FFF63A",
"I  c #FAF13F",
"U  c #FDF43C",
"Y  c #FEF53C",
"T  c #828A42",
"R  c #838B42",
"E  c #878F47",
"W  c #878D4E",
"Q  c #949154",
"!  c #97945B",
"~  c #BBB65C",
"^  c #858470",
"/  c #9A9878",
"(  c #BD9A64",
")  c #BE9A64",
"_  c #BE9B64",
"`  c #BF9B64",
"'  c #BF9B65",
"]  c #AF9875",
"[  c #BAB664",
"{  c #B5B272",
"}  c #CE9D51",
"|  c #CF9D52",
" . c #D2A054",
".. c #D3A055",
"X. c #C09C66",
"o. c #C09D66",
"O. c #D3CC4C",
"+. c #D3CD4D",
"@. c #CCC650",
"#. c #C8C354",
"$. c #C8C355",
"%. c #FCF342",
"&. c #FDF442",
"*. c #FCF34A",
"=. c #FBF34D",
"-. c #FFF74F",
";. c #F6EF57",
":. c #FEF657",
">. c #FEF658",
",. c #FBF35C",
"<. c #FFF75C",
"1. c #FEF75D",
"2. c #F7F065",
"3. c #FAF360",
"4. c #F9F267",
"5. c #FEF764",
"6. c #FFF863",
"7. c #FEF768",
"8. c #FFF86B",
"9. c #FFF86C",
"0. c #FFF771",
"q. c #FFF874",
"w. c #FBF579",
"e. c #FFF97A",
"r. c gray51",
"t. c #848484",
"y. c gray52",
"u. c gray53",
"i. c #888888",
"p. c #8D8D8D",
"a. c gray56",
"s. c #9D9C86",
"d. c #92918A",
"f. c #9C9B8D",
"g. c #929292",
"h. c #939393",
"j. c #959595",
"k. c #979797",
"l. c #989898",
"z. c gray60",
"x. c #9A9A9A",
"c. c #9B9B9B",
"v. c gray61",
"b. c #9D9D9D",
"n. c gray62",
"m. c #9F9F9F",
"M. c #B7A181",
"N. c #A2A2A2",
"B. c #A4A4A4",
"V. c #A5A5A5",
"C. c #A7A7A7",
"Z. c #AAAAAA",
"A. c #AEAEAE",
"S. c #AFAFAF",
"D. c #B8BBA2",
"F. c gray69",
"G. c #B1B1B1",
"H. c #B7B7B7",
"J. c gray73",
"K. c #BCBCBC",
"L. c #FEF88C",
"P. c #F3EF9E",
"I. c #F9F492",
"U. c #F9F494",
"Y. c #FEF995",
"T. c #FFFA97",
"R. c #C4C6B3",
"E. c #FAF5A0",
"W. c #FEFAAA",
"Q. c #FFFBAE",
"!. c #F9F6BB",
"~. c #FBF8BB",
"^. c #FFFCB8",
"/. c #FFFBBD",
"(. c gray77",
"). c #C6C6C6",
"_. c gray78",
"`. c #CECFC2",
"'. c #C8C8C8",
"]. c gray79",
"[. c #CACACA",
"{. c #CBCBCB",
"}. c gray80",
"|. c #CDCDCD",
" X c #D9DACF",
".X c gray82",
"XX c #D2D2D2",
"oX c LightGray",
"OX c gray83",
"+X c #D5D5D5",
"@X c gray84",
"#X c #D7D7D7",
"$X c #D8D8D8",
"%X c gray85",
"&X c #DADADA",
"*X c gray86",
"=X c #DDDDDD",
"-X c gray87",
";X c #DFDFDF",
":X c #F7F5D1",
">X c gray88",
",X c #E1E1E1",
"<X c #E2E2E2",
"1X c gray89",
"2X c #E4E4E4",
"3X c gray90",
"4X c #E6E6E6",
"5X c #E7E7E7",
"6X c gray91",
"7X c #E9E9E9",
"8X c #EAEAE8",
"9X c #EBEBE9",
"0X c #EAEAEA",
"qX c gray92",
"wX c #ECECEC",
"eX c gray93",
"rX c #EEEEEE",
"tX c #EFEFEF",
"yX c #FFFEE9",
"uX c gray94",
"iX c #F1F1F0",
"pX c #F1F1F1",
"aX c gray95",
"sX c #F3F3F3",
"dX c #F4F4F4",
"fX c gray96",
"gX c #F6F6F6",
"hX c gray97",
"jX c #FFFEF1",
"kX c #F8F8F7",
"lX c #F8F8F8",
"zX c #F9F9F9",
"xX c gray98",
"cX c #FBFBFB",
"vX c #FDFCFB",
"bX c gray99",
"nX c #FDFDFD",
"mX c #FEFEFE",
"MX c white",
"NX c None",
/* pixels */
"NXNXNXNXNXNXNXNXNXNXNXNXNXNXNXNXNXNXNXNXNXNXNXNXNXNXNXNXNXNXNXNX",
"NXNXNXNXNXNXNXNXNXNXNXNXNXNXNXNXNXNXNXNXNXNXNXNXNXNXNXNXNXNXNXNX",
"NXNXNXNXNXNXNXNXNXNXNXNXNXNXNXNXNXNXNXNXNXNXNXNXNXZ V C NXNXNXNX",
"NXNXNXNXNXNXNXNXNXNXNXNXNXNXNXNXNXNXNXNXNXNXNXB S D G D S NXNXNX",
"NXNXNXNXNXNXNXNXNXNXNXNXNXNXNXNXNXNXNXNXNXNXNXS L 6.0.<.H A NXNX",
"NXNXz.k.x.x.x.x.x.x.x.x.x.x.x.x.x.x.x.x.x.{ +.K 2.E.~.U.;.J F NX",
"NXz.6XMXMXMXMXMXMXMXMXMXMXMXMXMXMXMXMXMXMX^.q.P e./.jXQ.8.I O.NX",
"NXh.MXMXMXvX] - - ] vXMXmXnXnXbXcXxXzXlXhX!.w.&.5.Y.W.L.>.-.#.NX",
"NXh.MXMXMXM.k o.X.k M.mXnXbXcXxXzXzXlXhXgX:XI.,.Y 1.7.:.U 9.[ NX",
"NXh.MXMXMX= ' .. .` = bXcX].=XzX].].gXfXdX8XQ $.3.*.%.=.4.T.s.NX",
"NXh.MXMXMX= _ | } ) * cXxXF.g.r i.9 b.0 n.2Xd.! ~ N @.M P.yXh.NX",
"NXh.MXMXMXl j ( ( h z zXlXq S.d y.G.i.N.u.2X7 r f.8 / ^ 9XMXh.NX",
"NXh.MXMXD.# 6 % $ & O R.hXgXfXdXsXaXaXpXuXtXrXeXwXwXqX0X7XMXh.NX",
"NXh.MXnX@ v x , > m c 3 fXoX{.{.[.[.].'.'.'._.|.qX0X7X6X6XMXh.NX",
"NXh.MXkXo b < : : n W o iXsXaXpXuXtXtXrXeXwXqX0X0X7X6X5X4XMXh.NX",
"NXh.MXxX5 ; T E E R 2 + aX.X[.].'.'._._.).}.0X7X6X5X4X3X2XMXh.NX",
"NXh.MXlX X4 .     X 1 `.pXuXtXrXeXwXwXqX0X7X6X5X4X4X3X2X1XMXh.NX",
"NXh.MXhXgXfXdXsXsXaXpXuXtXrXrXeXwXqX0X7X6X6X5X4X3X2X1X<X<XMXh.NX",
"NXh.MXfXg dXt.d pXs tXs a eXp qXi 7X7Xu 5Xy y 2Xt t <Xr >XMXh.NX",
"NXh.MXdXf aXr.d uXs rXa p qXi 0Xi 6X5Xy 3Xt t 1Xr r >Xe -XMXh.NX",
"NXh.MXaXd pXr.s rXa wXp p 0Xi 6Xu 4X4Xy 2Xt r ,Xe e ;Xw =XMXh.NX",
"NXh.MXpXs tX*X%X1X+X<X+X+XOX&XoX#X@XOX$X%XXX+XOX].OX=Xw =XMXh.NX",
"NXh.MXtXs rXS.F.V.Z.(.B.A.K.XXA.H.c.b._.C.p.k.J.m.v.=Xw =XMXh.NX",
"NXh.mXuXeXwXqX0X0X7X6X5X4X3X2X2X1X<X,X>X;X-X-X=X=X=X=X=X>XnXh.NX",
"NXl.<XmXMXMXMXMXMXMXMXMXMXMXMXMXMXMXMXMXMXMXMXMXMXMXMXMXnX=Xj.NX",
"NXNXh.h.h.h.h.h.h.h.h.h.h.h.h.h.h.h.h.h.h.h.h.h.h.h.h.h.h.a.NXNX",
"NXNXNXNXNXNXNXNXNXNXNXNXNXNXNXNXNXNXNXNXNXNXNXNXNXNXNXNXNXNXNXNX",
"NXNXNXNXNXNXNXNXNXNXNXNXNXNXNXNXNXNXNXNXNXNXNXNXNXNXNXNXNXNXNXNX",
"NXNXNXNXNXNXNXNXNXNXNXNXNXNXNXNXNXNXNXNXNXNXNXNXNXNXNXNXNXNXNXNX",
"NXNXNXNXNXNXNXNXNXNXNXNXNXNXNXNXNXNXNXNXNXNXNXNXNXNXNXNXNXNXNXNX",
"NXNXNXNXNXNXNXNXNXNXNXNXNXNXNXNXNXNXNXNXNXNXNXNXNXNXNXNXNXNXNXNX",
"NXNXNXNXNXNXNXNXNXNXNXNXNXNXNXNXNXNXNXNXNXNXNXNXNXNXNXNXNXNXNXNX"
};
