/* XPM */
static const char *add_64x64_xpm[] = {
/* columns rows colors chars-per-pixel */
"64 64 80 1 ",
"  c #2B62B4",
". c #0054CC",
"X c #215BCF",
"o c #235ED1",
"O c #2662D2",
"+ c #2A65D2",
"@ c #2C6AD6",
"# c #256ADA",
"$ c #2D6ED9",
"% c #3166D3",
"& c #366CD4",
"* c #386DD4",
"= c #306FD9",
"- c #2F7DD6",
"; c #2E72DC",
": c #3971D7",
"> c #3374DC",
", c #3A74D9",
"< c #3679DE",
"1 c #3C7ADE",
"2 c #347CE3",
"3 c #3A7DE1",
"4 c #407DDE",
"5 c #497EDB",
"6 c #547FDA",
"7 c #3180D7",
"8 c #3E85D6",
"9 c #3484DB",
"0 c #3D86D9",
"q c #3788DF",
"w c #3C89DF",
"e c #3D82E3",
"r c #3788E0",
"t c #3B8CE2",
"y c #3C87E8",
"u c #3E8AEA",
"i c #3790E7",
"p c #3E91E5",
"a c #3C96EA",
"s c #4281D1",
"d c #4180DF",
"f c #4F83DF",
"g c #418BDE",
"h c #5C8DD4",
"j c #5484DE",
"k c #5B86DE",
"l c #548DDA",
"z c #5F88DF",
"x c #5B92DA",
"c c #6287DD",
"v c #6289DF",
"b c #6593D6",
"n c #6894D7",
"m c #6394D9",
"M c #6B96D9",
"N c #6D98DB",
"B c #7594D6",
"V c #7197D9",
"C c #7399DB",
"Z c #7A9BDB",
"A c #4185E4",
"S c #4E82E0",
"D c #438AE5",
"F c #4988E5",
"G c #428DEB",
"H c #498AE8",
"J c #4395E7",
"K c #4991E1",
"L c #4593EE",
"P c #4895EF",
"I c #5F9DE5",
"U c #5892EC",
"Y c #4291F2",
"T c #4896F0",
"R c #4E9AF5",
"E c #6088E0",
"W c #4BA2FB",
"Q c #97B7F7",
"! c #98B7F7",
"~ c None",
/* pixels */
"~~~~~~~~~~~~~~~~~~~~~~~~~~~~~~~~~~~~~~~~~~~~~~~~~~~~~~~~~~~~~~~~",
"~~~~~~~~~~~~~~~~~~~~~~~~BQZCZBCCNNnnmMh~~~~~~~~~~~~~~~~~~~~~~~~~",
"~~~~~~~~~~~~~~~~~~~~~~~C!cvvccc6zzkkj6Us~~~~~~~~~~~~~~~~~~~~~~~~",
"~~~~~~~~~~~~~~~~~~~~~~~Zc.+X+X+Xo++o++=8~~~~~~~~~~~~~~~~~~~~~~~~",
"~~~~~~~~~~~~~~~~~~~~~~~Zv+****5%******,s~~~~~~~~~~~~~~~~~~~~~~~~",
"~~~~~~~~~~~~~~~~~~~~~~~Zc+***%%*%*%*&%1s~~~~~~~~~~~~~~~~~~~~~~~~",
"~~~~~~~~~~~~~~~~~~~~~~~ZcO&%**%%**&&&&18~~~~~~~~~~~~~~~~~~~~~~~~",
"~~~~~~~~~~~~~~~~~~~~~~~CcO&*%****%&&&&18~~~~~~~~~~~~~~~~~~~~~~~~",
"~~~~~~~~~~~~~~~~~~~~~~~Cc+&&&&&&**%*&&3s~~~~~~~~~~~~~~~~~~~~~~~~",
"~~~~~~~~~~~~~~~~~~~~~~~Cko*&&&&&****&&18~~~~~~~~~~~~~~~~~~~~~~~~",
"~~~~~~~~~~~~~~~~~~~~~~~Nk+*&&&:&:**&*&38~~~~~~~~~~~~~~~~~~~~~~~~",
"~~~~~~~~~~~~~~~~~~~~~~~Mk+**&&&&&*****10~~~~~~~~~~~~~~~~~~~~~~~~",
"~~~~~~~~~~~~~~~~~~~~~~~Mk+***=&&&:&::&3s~~~~~~~~~~~~~~~~~~~~~~~~",
"~~~~~~~~~~~~~~~~~~~~~~~Mk+*&*&:&&::::&es~~~~~~~~~~~~~~~~~~~~~~~~",
"~~~~~~~~~~~~~~~~~~~~~~~mk+**:&&&::&::&30~~~~~~~~~~~~~~~~~~~~~~~~",
"~~~~~~~~~~~~~~~~~~~~~~~mk+:***::::::::38~~~~~~~~~~~~~~~~~~~~~~~~",
"~~~~~~~~~~~~~~~~~~~~~~~mj@***:::::::,:40~~~~~~~~~~~~~~~~~~~~~~~~",
"~~~~~~~~~~~~~~~~~~~~~~~xj%::::::::,:,:30~~~~~~~~~~~~~~~~~~~~~~~~",
"~~~~~~~~~~~~~~~~~~~~~~~mf=:::::,,,:,,:40~~~~~~~~~~~~~~~~~~~~~~~~",
"~~~~~~~~~~~~~~~~~~~~~~~xf%:::::::,,,,:0d~~~~~~~~~~~~~~~~~~~~~~~~",
"~~~~~~~~~~~~~~~~~~~~~~~xS&::::,,,,,,,,40~~~~~~~~~~~~~~~~~~~~~~~~",
"~~~~~~~~~~~~~~~~~~~~~~~xS&:::,,,,,,,,,A0~~~~~~~~~~~~~~~~~~~~~~~~",
"~~~~~~~~~~~~~~~~~~~~~~~lf&::,:,,,,,,4,A0~~~~~~~~~~~~~~~~~~~~~~~~",
"~~BZZZCCCCNMMMMmmmxxxxlIs*,,,,,,1,,,,,0JgtgwgwDDDDgKDgKggKKKg~~~",
"~bQ66EvcEczkkkjjjjjffSS5,:,,,,,,,1,,4,44AAAAAAHAHHHHHFHFHHHHR0~~",
"~Q6. X%oo%OO+@+%@@@%%=&::,:,,,,1144,,4,44,444441344434344Ae4Ag~~",
"~BBX5%**&&***::&:::::,::,,,,,,1,,,,41144441d44A444444AAAAdAdLw~~",
"~QcX*%*%&&**&&&:**:*::,,:,,,,,4,444,4,3,><1<,2,33333340edAfdHg~~",
"~CcO&%**&&&&&*&**::::,:,,,,,,1,1>>>====>>>>;>><<<<<2<<333333Dw~~",
"~BcO**%**&*&*&&&::::::,:,,,>:=@$$$$$=>=2>><<<<<<2131e<333333yq~~",
"~VzO*%**%&&&***:::::,,,::@@@@@@@===>>>>>;<<<<3<333333333eee3uq~~",
"~VzO***%&&&***::::::,:=@#@@@@;;===>>>>><<<<<<33333333eeeeeeeuw~~",
"~Bco***&=***&&:::::>@O++#@$@@$@;>>>>>><<<<<<33<e<eeeeeeeeeeeGr~~",
"~nk%*%&&*****::::&@O++#@@@@$;$>&=>>>2><<3<3e<eeeeeeeeeAAAyAeGt~~",
"~nko*%&&***=*::*@OOO#++@@@@&@>;>>><>><<2<<<ee3eeeeeeeAAyAyAAGt~~",
"~nko**&&****::@OoO+++##@@$;@$>;>>>><,23,e<e<eeeeDeyeyDDDDDDDLt~~",
"~bj+&&&&=**:=+oOOO#O@@@@@@;&$>>>>>><2213e3eeeeeeeDADDDDDDDDDYt~~",
"~b6+&&&&&&*@ooooOOO++#@@$;$;>>>><<<<13<3<eeeeeDeeDDyDyDDDHDDLt~~",
"~hU&111111=##$#$#;;;;;>;@>;>;>>>><<3333euuuuGLLGLLLLLLLTTTPPWt~~",
"~~s80s8889-<77779979999i>@@>>><><<<<3eeattitttptpptppppppppJt ~~",
"~~~~~~~~~~~~~~~~~~~~~~~92@>>>>><<<33<<uq~~~~~~~~~~~~~~~~~~~~~~~~",
"~~~~~~~~~~~~~~~~~~~~~~~r2$=>>><<<333e3Gt~~~~~~~~~~~~~~~~~~~~~~~~",
"~~~~~~~~~~~~~~~~~~~~~~~92@>>><<<<<33eeur~~~~~~~~~~~~~~~~~~~~~~~~",
"~~~~~~~~~~~~~~~~~~~~~~~r2>>><><<333eeeGr~~~~~~~~~~~~~~~~~~~~~~~~",
"~~~~~~~~~~~~~~~~~~~~~~~r2;>><<<<333eeeGt~~~~~~~~~~~~~~~~~~~~~~~~",
"~~~~~~~~~~~~~~~~~~~~~~~r2>><<<<3<eeeeeGq~~~~~~~~~~~~~~~~~~~~~~~~",
"~~~~~~~~~~~~~~~~~~~~~~~92;><><<3ee3eeeJt~~~~~~~~~~~~~~~~~~~~~~~~",
"~~~~~~~~~~~~~~~~~~~~~~~t3;><<<333eeeeyLt~~~~~~~~~~~~~~~~~~~~~~~~",
"~~~~~~~~~~~~~~~~~~~~~~~q2>><<<33eeeeeALt~~~~~~~~~~~~~~~~~~~~~~~~",
"~~~~~~~~~~~~~~~~~~~~~~~ee>><<333eeeeDALt~~~~~~~~~~~~~~~~~~~~~~~~",
"~~~~~~~~~~~~~~~~~~~~~~~q2><<333eeeeDDyLt~~~~~~~~~~~~~~~~~~~~~~~~",
"~~~~~~~~~~~~~~~~~~~~~~~t3><<<<33eeAeDDTy~~~~~~~~~~~~~~~~~~~~~~~~",
"~~~~~~~~~~~~~~~~~~~~~~~te22<333eeeeDDDYt~~~~~~~~~~~~~~~~~~~~~~~~",
"~~~~~~~~~~~~~~~~~~~~~~~02>,2133eeeDADDTt~~~~~~~~~~~~~~~~~~~~~~~~",
"~~~~~~~~~~~~~~~~~~~~~~~w32,223eeeyyADDTt~~~~~~~~~~~~~~~~~~~~~~~~",
"~~~~~~~~~~~~~~~~~~~~~~~w322,133eeeDDDHTt~~~~~~~~~~~~~~~~~~~~~~~~",
"~~~~~~~~~~~~~~~~~~~~~~~we>133eeeAeyDHDTy~~~~~~~~~~~~~~~~~~~~~~~~",
"~~~~~~~~~~~~~~~~~~~~~~~we><<323eeADDDDTt~~~~~~~~~~~~~~~~~~~~~~~~",
"~~~~~~~~~~~~~~~~~~~~~~~Dy<2<33eeeDDDGDTp~~~~~~~~~~~~~~~~~~~~~~~~",
"~~~~~~~~~~~~~~~~~~~~~~~g3>,2<33eeAyADHPt~~~~~~~~~~~~~~~~~~~~~~~~",
"~~~~~~~~~~~~~~~~~~~~~~~gY3yyyyuuuuJLLLWw~~~~~~~~~~~~~~~~~~~~~~~~",
"~~~~~~~~~~~~~~~~~~~~~~~~9errtttrtttpppw ~~~~~~~~~~~~~~~~~~~~~~~~",
"~~~~~~~~~~~~~~~~~~~~~~~~~~~~~~~~~~~~~~~~~~~~~~~~~~~~~~~~~~~~~~~~",
"~~~~~~~~~~~~~~~~~~~~~~~~~~~~~~~~~~~~~~~~~~~~~~~~~~~~~~~~~~~~~~~~"
};
