/* XPM */
static const char *apply_64x64_xpm[] = {
/* columns rows colors chars-per-pixel */
"64 64 139 2 ",
"   c #00950C",
".  c #009B12",
"X  c #07991A",
"o  c #0C9A1D",
"O  c #109B1F",
"+  c #0EA01F",
"@  c #139D22",
"#  c #199D27",
"$  c #259E2D",
"%  c #2B9F2E",
"&  c #2D9E31",
"*  c #379E38",
"=  c #17A025",
"-  c #19A127",
";  c #1DA42A",
":  c #22A62D",
">  c #23A82E",
",  c #24A434",
"<  c #2EA030",
"1  c #26A931",
"2  c #2BAD34",
"3  c #27A539",
"4  c #2CA63D",
"5  c #2EAD39",
"6  c #30A73E",
"7  c #3AA03D",
"8  c #30AE3C",
"9  c #2FB139",
"0  c #33B33C",
"q  c #38B63F",
"w  c #38B93E",
"e  c #33A743",
"r  c #3DA643",
"t  c #36AA44",
"y  c #39AC46",
"u  c #3CAE49",
"i  c #3AB642",
"p  c #3EBA44",
"a  c #3EB14A",
"s  c #479E43",
"d  c #44A544",
"f  c #4AA546",
"g  c #45A54A",
"h  c #4BA648",
"j  c #44AD4B",
"k  c #4AAC4C",
"l  c #42BC46",
"z  c #43B44D",
"x  c #45BD4A",
"c  c #49BE4D",
"v  c #44AF51",
"b  c #4DAA51",
"n  c #56AD5D",
"m  c #46B651",
"M  c #4AB653",
"N  c #46B953",
"B  c #4CBA54",
"V  c #4EB45A",
"C  c #4FBA5C",
"Z  c #52B254",
"A  c #50BD57",
"S  c #51B45D",
"D  c #5AB15E",
"F  c #52BE59",
"G  c #5BBB5A",
"H  c #63BD5E",
"J  c #5CAB61",
"K  c #5DB564",
"L  c #5DBC65",
"P  c #5FBB69",
"I  c #62B467",
"U  c #64B46A",
"Y  c #69B76F",
"T  c #62BB6C",
"R  c #68BB6B",
"E  c #6DB673",
"W  c #6DBC72",
"Q  c #72BB78",
"!  c #46C14A",
"~  c #4AC14D",
"^  c #4EC351",
"/  c #52C654",
"(  c #55C856",
")  c #55C25B",
"_  c #5AC45D",
"`  c #57C959",
"'  c #5BCC5B",
"]  c #62C15F",
"[  c #60CF5F",
"{  c #61D05F",
"}  c #5CC462",
"|  c #5EC963",
" . c #64C462",
".. c #6AC365",
"X. c #62CB64",
"o. c #6AC76F",
"O. c #65CB6A",
"+. c #6CCD6D",
"@. c #64D162",
"#. c #69D566",
"$. c #6CD669",
"%. c #6ED96A",
"&. c #73D26F",
"*. c #72DB6D",
"=. c #67C471",
"-. c #6CC474",
";. c #71C272",
":. c #73CF76",
">. c #73C37A",
",. c #78C47F",
"<. c #75CD7A",
"1. c #79CB7C",
"2. c #77D372",
"3. c #7CD676",
"4. c #76DD71",
"5. c #78DF72",
"6. c #7DD57F",
"7. c #7BE274",
"8. c #7BE378",
"9. c #82E67C",
"0. c #84E87E",
"q. c #78C680",
"w. c #77CA81",
"e. c #7BCB82",
"r. c #7ECD88",
"t. c #7ED181",
"y. c #7FD288",
"u. c #81D483",
"i. c #80D884",
"p. c #84D58B",
"a. c #86DB8A",
"s. c #89DE8C",
"d. c #8BDA91",
"f. c #91DE95",
"g. c #86EB80",
"h. c #8CEE85",
"j. c #8EF087",
"k. c #8EE290",
"l. c None",
/* pixels */
"l.l.l.l.l.l.l.l.l.l.l.l.l.l.l.l.l.l.l.l.l.l.l.l.l.l.l.l.l.l.l.l.l.l.l.l.l.l.l.l.l.l.l.l.l.l.l.l.l.l.l.l.l.l.l.l.l.l.l.l.l.l.l.l.",
"l.l.l.l.l.l.l.l.l.l.l.l.l.l.l.l.l.l.l.l.l.l.l.l.l.l.l.l.l.l.l.l.l.l.l.l.l.l.l.l.l.l.l.l.l.l.l.l.l.l.l.l.K W R W I l.l.l.l.l.l.l.",
"l.l.l.l.l.l.l.l.l.l.l.l.l.l.l.l.l.l.l.l.l.l.l.l.l.l.l.l.l.l.l.l.l.l.l.l.l.l.l.l.l.l.l.l.l.l.l.l.l.l.d w.e.P S C L =.K l.l.l.l.l.",
"l.l.l.l.l.l.l.l.l.l.l.l.l.l.l.l.l.l.l.l.l.l.l.l.l.l.l.l.l.l.l.l.l.l.l.l.l.l.l.l.l.l.l.l.l.l.l.l.l.g p.T 4 3 4 4 3 4 M } * l.l.l.",
"l.l.l.l.l.l.l.l.l.l.l.l.l.l.l.l.l.l.l.l.l.l.l.l.l.l.l.l.l.l.l.l.l.l.l.l.l.l.l.l.l.l.l.l.l.l.l.l.l.y.P 3 t t t t y t 4 y C l.l.l.",
"l.l.l.l.l.l.l.l.l.l.l.l.l.l.l.l.l.l.l.l.l.l.l.l.l.l.l.l.l.l.l.l.l.l.l.l.l.l.l.l.l.l.l.l.l.l.l.l.W >.3 t t t t t t t t e N r l.l.",
"l.l.l.l.l.l.l.l.l.l.l.l.l.l.l.l.l.l.l.l.l.l.l.l.l.l.l.l.l.l.l.l.l.l.l.l.l.l.l.l.l.l.l.l.l.l.l.b y.u t t t t t t t t y t u j l.l.",
"l.l.l.l.l.l.l.l.l.l.l.l.l.l.l.l.l.l.l.l.l.l.l.l.l.l.l.l.l.l.l.l.l.l.l.l.l.l.l.l.l.l.l.l.l.l.l.e.P e y t t y t y y y y y u z l.l.",
"l.l.l.l.l.l.l.l.l.l.l.l.l.l.l.l.l.l.l.l.l.l.l.l.l.l.l.l.l.l.l.l.l.l.l.l.l.l.l.l.l.l.l.l.l.l.U e.6 y y u u u y y a t y t z m l.l.",
"l.l.l.l.l.l.l.l.l.l.l.l.l.l.l.l.l.l.l.l.l.l.l.l.l.l.l.l.l.l.l.l.l.l.l.l.l.l.l.l.l.l.l.l.l.l.p.C t u u u u y a y a a a y N j l.l.",
"l.l.l.l.l.l.l.l.l.l.l.l.l.l.l.l.l.l.l.l.l.l.l.l.l.l.l.l.l.l.l.l.l.l.l.l.l.l.l.l.l.l.l.l.l.Q -.5 a u u u u i a a a a a y ) 7 l.l.",
"l.l.l.l.l.l.l.l.l.l.l.l.l.l.l.l.l.l.l.l.l.l.l.l.l.l.l.l.l.l.l.l.l.l.l.l.l.l.l.l.l.l.l.l.K p.u a a a u u z u a a a a a z V l.l.l.",
"l.l.l.l.l.l.l.l.l.l.l.l.l.l.l.l.l.l.l.l.l.l.l.l.l.l.l.l.l.l.l.l.l.l.l.l.l.l.l.l.l.l.l.l.p.P t a a u a z z j a z a z a _ 7 l.l.l.",
"l.l.l.l.l.l.l.l.l.l.l.l.l.l.l.l.l.l.l.l.l.l.l.l.l.l.l.l.l.l.l.l.l.l.l.l.l.l.l.l.l.l.l.W e.t z a z z z z z z z m m z F M l.l.l.l.",
"l.l.l.l.l.l.l.l.l.l.l.l.l.l.l.l.l.l.l.l.l.l.l.l.l.l.l.l.l.l.l.l.l.l.l.l.l.l.l.l.l.l.b d.C u z z z z z z c m m m m m } l.l.l.l.l.",
"l.l.l.l.l.l.l.l.l.l.l.l.l.l.l.l.l.l.l.l.l.l.l.l.l.l.l.l.l.l.l.l.l.l.l.l.l.l.l.l.l.l.e.-.i m z m m m c z z M N N m | d l.l.l.l.l.",
"l.l.l.l.l.l.l.l.l.l.l.l.l.l.l.l.l.l.l.l.l.l.l.l.l.l.l.l.l.l.l.l.l.l.l.l.l.l.l.l.l.U a.z m z c M M N M c N B B M } Z l.l.l.l.l.l.",
"l.l.l.l.l.l.l.l.l.l.l.l.l.l.l.l.l.l.l.l.l.l.l.l.l.l.l.l.l.l.l.l.l.l.l.l.l.l.l.l.l.s.L z M M m M N B M A B B A F } l.l.l.l.l.l.l.",
"l.l.l.l.l.l.l.l.l.l.l.l.l.l.l.l.l.l.l.l.l.l.l.l.l.l.l.l.l.l.l.l.l.l.l.l.l.l.l.l.,.1.z N N B B B B A A A B F B O.d l.l.l.l.l.l.l.",
"l.l.l.l.l.l.l.l.l.l.l.l.l.l.l.l.l.l.l.l.l.l.l.l.l.l.l.l.l.l.l.l.l.l.l.l.l.l.l.D d.A N B B B A A A A A F ) F | G l.l.l.l.l.l.l.l.",
"l.l.l.l.l.l.l.l.l.l.l.l.l.l.l.l.l.l.l.l.l.l.l.l.l.l.l.l.l.l.l.l.l.l.l.l.l.l.l.p.-.c A B A A F A F F ) ) ) _ X.l.l.l.l.l.l.l.l.l.",
"l.l.l.l.l.l.l.l.l.l.l.l.l.l.l.l.l.l.l.l.l.l.l.l.l.l.l.l.l.l.l.l.l.l.l.l.l.l.W p.N A A F F F ) ) G _ _ _ ) $.g l.l.l.l.l.l.l.l.l.",
"l.l.l.l.l.l.l.l.l.l.l.l.l.l.l.l.l.l.l.l.l.l.l.l.l.l.l.l.l.l.l.l.l.l.l.l.l.k f.} B F F F F ) _ ) _ _ | _ +.G l.l.l.l.l.l.l.l.l.l.",
"l.l.l.l.l.l.l.l.l.l.l.l.l.l.l.l.l.l.l.l.l.l.l.l.l.l.l.l.l.l.l.l.l.l.l.l.l.u.e.B ) F F _ _ _ _ _ } _ _ X.O.l.l.l.l.l.l.l.l.l.l.l.",
"l.l.l.l.l.l.l.l.l.l.l.l.l.l.l.l.l.l.l.l.l.l.l.l.l.l.l.l.l.l.l.l.l.l.l.l.R f.F F ) _ _ _ _ } } } | X.X.4.h l.l.l.l.l.l.l.l.l.l.l.",
"l.l.l.l.l.l.l.l.l.l.l.l.l.l.l.l.l.l.l.l.l.l.l.l.l.l.l.l.l.l.l.l.l.l.l.l.f.o.c ) B ^ / B ^ / / / ) ^ @.G l.l.l.l.l.l.l.l.l.l.l.l.",
"l.l.l.l.l.l.l.l.l.l.l.l.l.l.l.l.l.l.l.l.l.l.l.l.l.l.l.l.l.l.l.l.l.l.l.;.<.0 p p l l x ~ ~ ~ ~ / ^ ( X.l.l.l.l.l.l.l.l.l.l.l.l.l.",
"l.l.l.l.l.l.l.l.l.l.l.l.l.l.l.l.l.l.l.l.l.l.l.l.l.l.l.l.l.l.l.l.l.l.Z s.x p l x ~ ~ ~ ~ ^ / / ( ( %.d l.l.l.l.l.l.l.l.l.l.l.l.l.",
"l.l.l.l.l.l.l.l.l.l.l.l.l.l.l.l.l.l.l.l.l.l.l.l.l.l.l.l.l.l.l.l.l.l.u.O.w x x ~ ~ ~ / / / ( ` ( #.) l.l.l.l.l.l.l.l.l.l.l.l.l.l.",
"l.l.l.l.U q.w.>.-.E J l.l.l.l.l.l.l.l.l.l.l.l.l.l.l.l.l.l.l.l.l.l.R u.w x ~ ~ ~ ^ / / ( ( ' ' @.O.l.l.l.l.l.l.l.l.l.l.l.l.l.l.l.",
"l.l.l.,.e.V e e t v L =.g l.l.l.l.l.l.l.l.l.l.l.l.l.l.l.l.l.l.l.l.s.` x ~ ~ ^ / / ( ' ' ' ' { 4.f l.l.l.l.l.l.l.l.l.l.l.l.l.l.l.",
"l.l.Q >.4 4 e t t e 3 y } g l.l.l.l.l.l.l.l.l.l.l.l.l.l.l.l.l.l.1.:.p ~ ~ ^ / / ( ` ' ' @.{ *._ l.l.l.l.l.l.l.l.l.l.l.l.l.l.l.l.",
"l.J r.e e e t e t t u t t ) b l.l.l.l.l.l.l.l.l.l.l.l.l.l.l.l.I s.c ~ ^ / / ( ' ' [ [ { @.*.$.l.l.l.l.l.l.l.l.l.l.l.l.l.l.l.l.l.",
"l.E P , y t e t t t t u y t N r l.l.l.l.l.l.l.l.l.l.l.l.l.l.l.a.O.x ^ ^ / ( ( ' [ { { @.$.7.f l.l.l.l.l.l.l.l.l.l.l.l.l.l.l.l.l.",
"l.E J e e e t t t t t y t , . 8 u l.l.l.l.l.l.l.l.l.l.l.l.l.;.u.! ^ / / / ' { { { #.#.#.7.] l.l.l.l.l.l.l.l.l.l.l.l.l.l.l.l.l.l.",
"l.Y S e t t t t t y u 4 = o = = 5 j l.l.l.l.l.l.l.l.l.l.l.Z k.` ~ / / ` ' { { { @.$.#.5.&.l.l.l.l.l.l.l.l.l.l.l.l.l.l.l.l.l.l.l.",
"l.U P 3 e t t t y t , X @ @ - ; = 5 z l.l.l.l.l.l.l.l.l.l.9.;.x / / ` ' { { @.#.$.%.*.0.h l.l.l.l.l.l.l.l.l.l.l.l.l.l.l.l.l.l.l.",
"l.l.=.4 t t t y t # X @ @ = - ; : ; 5 B l.l.l.l.l.l.l.l.R d.B / ( ' ' { { @.@.%.%.*.9.] l.l.l.l.l.l.l.l.l.l.l.l.l.l.l.l.l.l.l.l.",
"l.l.J C e t r 6 O X @ @ = - ; ; > > > 9 ^ * l.l.l.l.l.l.s.X.~ ( ` ' { { @.#.%.*.*.5.3.l.l.l.l.l.l.l.l.l.l.l.l.l.l.l.l.l.l.l.l.l.",
"l.l.l.r M e 4 X X @ @ @ = ; ; ; > > 2 2 0 / g l.l.l.l.1.9.! ( ( ' [ { @.#.$.*.*.5.h.h l.l.l.l.l.l.l.l.l.l.l.l.l.l.l.l.l.l.l.l.l.",
"l.l.l.l.u a   O @ O @ @ - ; ; 1 > 2 2 9 9 0 ' k l.l.G k./ / ` ' [ { @.$.%.*.*.*.0...l.l.l.l.l.l.l.l.l.l.l.l.l.l.l.l.l.l.l.l.l.l.",
"l.l.l.l.l.$ , X o @ @ = - ; ; > > 2 5 9 0 q w ' Z l.p.:.~ ` ` [ { { @.%.*.*.*.9.9.l.l.l.l.l.l.l.l.l.l.l.l.l.l.l.l.l.l.l.l.l.l.l.",
"l.l.l.l.l.l.$ 1 X @ = - ; ; 1 1 2 2 9 0 0 q p p / <.9.~ ( ` ' [ { #.%.%.*.5.9.h.h l.l.l.l.l.l.l.l.l.l.l.l.l.l.l.l.l.l.l.l.l.l.l.",
"l.l.l.l.l.l.l.$ 5 o = - ; ; 1 1 2 5 9 0 q p p x x ` G / ` ' [ { #.#.*.*.*.9.0.R l.l.l.l.l.l.l.l.l.l.l.l.l.l.l.l.l.l.l.l.l.l.l.l.",
"l.l.l.l.l.l.l.l.: 8 @ ; : : > 1 2 5 0 q q p l l ~ ~ ^ ( ' [ @.@.#.%.4.*.9.9.9.l.l.l.l.l.l.l.l.l.l.l.l.l.l.l.l.l.l.l.l.l.l.l.l.l.",
"l.l.l.l.l.l.l.l.l.< 0 - : : 1 2 5 5 0 q p l x x ~ ^ / ` ' { @.@.#.*.*.5.9.0.h l.l.l.l.l.l.l.l.l.l.l.l.l.l.l.l.l.l.l.l.l.l.l.l.l.",
"l.l.l.l.l.l.l.l.l.l.% i : : 2 2 9 0 8 q l l x x ^ / ( ` ' [ @.$.%.*.5.5.0...l.l.l.l.l.l.l.l.l.l.l.l.l.l.l.l.l.l.l.l.l.l.l.l.l.l.",
"l.l.l.l.l.l.l.l.l.l.l.% w > 1 2 5 0 q q l x x ~ ^ / ` [ [ @.@.$.*.4.5.0.9.l.l.l.l.l.l.l.l.l.l.l.l.l.l.l.l.l.l.l.l.l.l.l.l.l.l.l.",
"l.l.l.l.l.l.l.l.l.l.l.l.& p 2 9 0 0 i i p x ! ^ ^ ( ' ' @.@.%.*.*.5.7.j.f l.l.l.l.l.l.l.l.l.l.l.l.l.l.l.l.l.l.l.l.l.l.l.l.l.l.l.",
"l.l.l.l.l.l.l.l.l.l.l.l.l.< x 9 9 0 i i l x ~ ^ / ( ' ' @.@.%.*.5.5.j...l.l.l.l.l.l.l.l.l.l.l.l.l.l.l.l.l.l.l.l.l.l.l.l.l.l.l.l.",
"l.l.l.l.l.l.l.l.l.l.l.l.l.l.< ! i 0 i p l c ~ ^ ( ' ' @.@.%.*.5.5.0.3.l.l.l.l.l.l.l.l.l.l.l.l.l.l.l.l.l.l.l.l.l.l.l.l.l.l.l.l.l.",
"l.l.l.l.l.l.l.l.l.l.l.l.l.l.l.< ^ i i l x ~ ~ / ( ' ' @.@.#.*.*.7.h.f l.l.l.l.l.l.l.l.l.l.l.l.l.l.l.l.l.l.l.l.l.l.l.l.l.l.l.l.l.",
"l.l.l.l.l.l.l.l.l.l.l.l.l.l.l.l.< ^ l p ! ~ ~ / ( ' [ @.#.%.*.*.h...l.l.l.l.l.l.l.l.l.l.l.l.l.l.l.l.l.l.l.l.l.l.l.l.l.l.l.l.l.l.",
"l.l.l.l.l.l.l.l.l.l.l.l.l.l.l.l.l.l.( c x ~ ^ / ` ' @.@.#.%.*.9.3.l.l.l.l.l.l.l.l.l.l.l.l.l.l.l.l.l.l.l.l.l.l.l.l.l.l.l.l.l.l.l.",
"l.l.l.l.l.l.l.l.l.l.l.l.l.l.l.l.l.l.l.` ^ ~ / ( ' ' @.@.%.%.*.0.f l.l.l.l.l.l.l.l.l.l.l.l.l.l.l.l.l.l.l.l.l.l.l.l.l.l.l.l.l.l.l.",
"l.l.l.l.l.l.l.l.l.l.l.l.l.l.l.l.l.l.l.l._ / ^ ( ' ' @.#.%.*.0...l.l.l.l.l.l.l.l.l.l.l.l.l.l.l.l.l.l.l.l.l.l.l.l.l.l.l.l.l.l.l.l.",
"l.l.l.l.l.l.l.l.l.l.l.l.l.l.l.l.l.l.l.l.l.[ ' ( ' { @.#.$.7.2.l.l.l.l.l.l.l.l.l.l.l.l.l.l.l.l.l.l.l.l.l.l.l.l.l.l.l.l.l.l.l.l.l.",
"l.l.l.l.l.l.l.l.l.l.l.l.l.l.l.l.l.l.l.l.l.l._ @.` | @.#.%.9.s l.l.l.l.l.l.l.l.l.l.l.l.l.l.l.l.l.l.l.l.l.l.l.l.l.l.l.l.l.l.l.l.l.",
"l.l.l.l.l.l.l.l.l.l.l.l.l.l.l.l.l.l.l.l.l.l.l. .%.{ @.$.g.H l.l.l.l.l.l.l.l.l.l.l.l.l.l.l.l.l.l.l.l.l.l.l.l.l.l.l.l.l.l.l.l.l.l.",
"l.l.l.l.l.l.l.l.l.l.l.l.l.l.l.l.l.l.l.l.l.l.l.l.) %.4.5. .l.l.l.l.l.l.l.l.l.l.l.l.l.l.l.l.l.l.l.l.l.l.l.l.l.l.l.l.l.l.l.l.l.l.l.",
"l.l.l.l.l.l.l.l.l.l.l.l.l.l.l.l.l.l.l.l.l.l.l.l.l.l.l.l.l.l.l.l.l.l.l.l.l.l.l.l.l.l.l.l.l.l.l.l.l.l.l.l.l.l.l.l.l.l.l.l.l.l.l.l.",
"l.l.l.l.l.l.l.l.l.l.l.l.l.l.l.l.l.l.l.l.l.l.l.l.l.l.l.l.l.l.l.l.l.l.l.l.l.l.l.l.l.l.l.l.l.l.l.l.l.l.l.l.l.l.l.l.l.l.l.l.l.l.l.l.",
"l.l.l.l.l.l.l.l.l.l.l.l.l.l.l.l.l.l.l.l.l.l.l.l.l.l.l.l.l.l.l.l.l.l.l.l.l.l.l.l.l.l.l.l.l.l.l.l.l.l.l.l.l.l.l.l.l.l.l.l.l.l.l.l.",
"l.l.l.l.l.l.l.l.l.l.l.l.l.l.l.l.l.l.l.l.l.l.l.l.l.l.l.l.l.l.l.l.l.l.l.l.l.l.l.l.l.l.l.l.l.l.l.l.l.l.l.l.l.l.l.l.l.l.l.l.l.l.l.l."
};
