/* XPM */
static const char *apply_16x16_xpm[] = {
/* columns rows colors chars-per-pixel */
"16 16 110 2 ",
"   c #009500",
".  c #009600",
"X  c #009700",
"o  c #009800",
"O  c #009900",
"+  c #029A02",
"@  c #039A03",
"#  c #079C07",
"$  c #089D08",
"%  c #099D08",
"&  c #0EA00D",
"*  c #0FA00E",
"=  c #10A00F",
"-  c #13A011",
";  c #15A313",
":  c #1CA61A",
">  c #24A521",
",  c #28AB25",
"<  c #2AAC24",
"1  c #2AAC26",
"2  c #2FAE2B",
"3  c #30AF2C",
"4  c #32AF2F",
"5  c #36B231",
"6  c #37B232",
"7  c #38B134",
"8  c #3CB537",
"9  c #3DB538",
"0  c #3EB539",
"q  c #3FB53B",
"w  c #40B63B",
"e  c #43B53F",
"r  c #43B83D",
"t  c #44B83E",
"y  c #45B83F",
"u  c #49B644",
"i  c #47B942",
"p  c #48BB43",
"a  c #4ABB44",
"s  c #4BBB46",
"d  c #50BE4A",
"f  c #51BA4C",
"g  c #52BA4C",
"h  c #5DC257",
"j  c #5EC458",
"k  c #68CB5A",
"l  c #6DC566",
"z  c #69C962",
"x  c #6EC967",
"c  c #72CC66",
"v  c #79CD6F",
"b  c #74D06C",
"n  c #78D46B",
"m  c #7BCF70",
"M  c #7AD372",
"N  c #80D375",
"B  c #80D479",
"V  c #85D679",
"C  c #86D07E",
"Z  c #85D47D",
"A  c #87DE7A",
"S  c #88DE7A",
"D  c #8BDA7F",
"F  c #8DD585",
"G  c #8FD585",
"H  c #8ED686",
"J  c #89D882",
"K  c #8CDD80",
"L  c #8FDD84",
"P  c #90D787",
"I  c #93DE87",
"U  c #91D588",
"Y  c #91D689",
"T  c #92D689",
"R  c #92DA89",
"E  c #93DA89",
"W  c #96DD8C",
"Q  c #94DF8C",
"!  c #99DB90",
"~  c #9DDE94",
"^  c #91E684",
"/  c #94E487",
"(  c #9AE58E",
")  c #99E290",
"_  c #9FE697",
"`  c #9EEB91",
"'  c #9FEA92",
"]  c #A0E097",
"[  c #A1E098",
"{  c #A1E298",
"}  c #A6E59C",
"|  c #A8E69F",
" . c #A5EC99",
".. c #A8EA9D",
"X. c #A9EF9D",
"o. c #A9E6A0",
"O. c #A9E8A0",
"+. c #ACEBA1",
"@. c #ACE8A3",
"#. c #ACEEA0",
"$. c #AEEAA5",
"%. c #B1EDA7",
"&. c #B2ECA8",
"*. c #B3EDA9",
"=. c #B2EEA9",
"-. c #B7F3AC",
";. c #B9F3AF",
":. c #BCF3B2",
">. c #BFF5B5",
",. c None",
/* pixels */
",.,.,.,.,.,.,.,.,.,.,.,.+ $ * ,.",
",.,.,.,.,.,.,.,.,.,.,.+ g l f : ",
",.,.,.,.,.,.,.,.,.,.@ e U v Y < ",
",.,.,.,.,.,.,.,.,.,.= F c c P 1 ",
",.,.,.,.,.,.,.,.,.% x E k ~ h 2 ",
",.,.,.,.,.,.,.,.,.4 ] n W Z 3 ,.",
",.,.,.,.,.,.,.,.* R I K { w ,.,.",
"  > u - O ,.,.= j } S $.z 5 ,.,.",
". C G H 4 # ,., @./ +.Q 6 ,.,.,.",
"X T m N ] i ; J ..' %.p ,.,.,.,.",
"o 7 ! V D | B *.` :.b 8 ,.,.,.,.",
",.+ q [ L A &. .-._ 9 ,.,.,.,.,.",
",.,.& s o.( ^ X.;.d ,.,.,.,.,.,.",
",.,.,.: 9 O.#.>.M r ,.,.,.,.,.,.",
",.,.,.,.1 a =.) t ,.,.,.,.,.,.,.",
",.,.,.,.,.6 0 y ,.,.,.,.,.,.,.,."
};
