/* XPM */
static const char *apply_48x48_xpm[] = {
/* columns rows colors chars-per-pixel */
"48 48 151 2 ",
"   c #256F22",
".  c #277024",
"X  c #2A7126",
"o  c #267923",
"O  c #2F7C2A",
"+  c #008500",
"@  c #008D00",
"#  c #019500",
"$  c #059A05",
"%  c #089B07",
"&  c #0C9C0B",
"*  c #0F9E12",
"=  c #0E9A1E",
"-  c #129F13",
";  c #1A9718",
":  c #21831E",
">  c #208B1E",
",  c #14A113",
"<  c #19A217",
"1  c #1CA41B",
"2  c #20A71E",
"3  c #139D22",
"4  c #248121",
"5  c #288325",
"6  c #2B9F26",
"7  c #339E2F",
"8  c #369F31",
"9  c #17A025",
"0  c #1AA125",
"q  c #1DA42A",
"w  c #24A622",
"e  c #28A225",
"r  c #25AA23",
"t  c #29AA25",
"y  c #23A72C",
"u  c #2EA12B",
"i  c #23A82F",
"p  c #2CAB2A",
"a  c #32A22D",
"s  c #32AC2E",
"d  c #26A435",
"f  c #28A636",
"g  c #26A931",
"h  c #2BAC34",
"j  c #2FAD39",
"k  c #36A231",
"l  c #3AA135",
"z  c #35AE31",
"x  c #39AF34",
"c  c #33AC3C",
"v  c #3BB036",
"b  c #34B23C",
"n  c #3BB23A",
"m  c #41B43C",
"M  c #42B83F",
"N  c #36AA44",
"B  c #39AC46",
"V  c #3CAE49",
"C  c #3AB642",
"Z  c #3EB944",
"A  c #3EB14A",
"S  c #41AE4F",
"D  c #40B146",
"F  c #42BB45",
"G  c #4BBD46",
"H  c #43B34D",
"J  c #48B14B",
"K  c #45BD4A",
"L  c #4ABD4D",
"P  c #50BF4A",
"I  c #43AE51",
"U  c #46B551",
"Y  c #4AB356",
"T  c #4CBA54",
"R  c #50B757",
"E  c #52BD56",
"W  c #52B55E",
"Q  c #52BD5A",
"!  c #5BBD5F",
"~  c #56B762",
"^  c #5BBB64",
"/  c #5EBB69",
"(  c #62BD67",
")  c #62BC6C",
"_  c #67BF72",
"`  c #4BC14E",
"'  c #51C04B",
"]  c #4EC351",
"[  c #52C654",
"{  c #59C356",
"}  c #56C957",
"|  c #55C25B",
" . c #5AC45C",
".. c #5BCC5B",
"X. c #61CD5F",
"o. c #61D05F",
"O. c #5CC362",
"+. c #62C566",
"@. c #63CB64",
"#. c #6BCF66",
"$. c #65C36C",
"%. c #68C16E",
"&. c #66CB69",
"*. c #68CA6C",
"=. c #64D262",
"-. c #69D566",
";. c #6DD56B",
":. c #6ED86A",
">. c #72DA6D",
",. c #6AC472",
"<. c #6FCC72",
"1. c #6FC279",
"2. c #72C676",
"3. c #73CB74",
"4. c #75C47C",
"5. c #73CB78",
"6. c #79CD7D",
"7. c #75D275",
"8. c #7AD676",
"9. c #77DC72",
"0. c #7BDE75",
"q. c #76D179",
"w. c #7CD47D",
"e. c #7EDB7A",
"r. c #83DC7D",
"t. c #85E27F",
"y. c #7AC982",
"u. c #80CE83",
"i. c #81C789",
"p. c #85CB8C",
"a. c #82D284",
"s. c #83DC81",
"d. c #87D18D",
"f. c #88D68A",
"g. c #87CC90",
"h. c #8DCE94",
"j. c #8ED493",
"k. c #90D097",
"l. c #94D996",
"z. c #94D599",
"x. c #99D79E",
"c. c #95D999",
"v. c #99DC9B",
"b. c #87E282",
"n. c #8BE185",
"m. c #8EE289",
"M. c #92E58C",
"N. c #97E891",
"B. c #98E892",
"V. c #9CD9A1",
"C. c None",
/* pixels */
"C.C.C.C.C.C.C.C.C.C.C.C.C.C.C.C.C.C.C.C.C.C.C.C.C.C.C.C.C.C.C.C.C.C.C.C.C.C.$ % % & C.C.C.C.C.C.",
"C.C.C.C.C.C.C.C.C.C.C.C.C.C.C.C.C.C.C.C.C.C.C.C.C.C.C.C.C.C.C.C.C.C.C.C.$ h %.g.1.R y - C.C.C.C.",
"C.C.C.C.C.C.C.C.C.C.C.C.C.C.C.C.C.C.C.C.C.C.C.C.C.C.C.C.C.C.C.C.C.C.C.# ! g.) I S W ( H 1 C.C.C.",
"C.C.C.C.C.C.C.C.C.C.C.C.C.C.C.C.C.C.C.C.C.C.C.C.C.C.C.C.C.C.C.C.C.C.$ z j.W N N N N S / D ; C.C.",
"C.C.C.C.C.C.C.C.C.C.C.C.C.C.C.C.C.C.C.C.C.C.C.C.C.C.C.C.C.C.C.C.C.C.& p.%.N N N N N B I / 2 C.C.",
"C.C.C.C.C.C.C.C.C.C.C.C.C.C.C.C.C.C.C.C.C.C.C.C.C.C.C.C.C.C.C.C.C.% ^ h.A N N B N N B H ) r C.C.",
"C.C.C.C.C.C.C.C.C.C.C.C.C.C.C.C.C.C.C.C.C.C.C.C.C.C.C.C.C.C.C.C.C.i k.Q B B B B B B A H ) r C.C.",
"C.C.C.C.C.C.C.C.C.C.C.C.C.C.C.C.C.C.C.C.C.C.C.C.C.C.C.C.C.C.C.C.$ y.y.B A B A A B S A R / 2 C.C.",
"C.C.C.C.C.C.C.C.C.C.C.C.C.C.C.C.C.C.C.C.C.C.C.C.C.C.C.C.C.C.C.% T j.U V A V A A D A H ) J > C.C.",
"C.C.C.C.C.C.C.C.C.C.C.C.C.C.C.C.C.C.C.C.C.C.C.C.C.C.C.C.C.C.C.1 j.,.V A A H A H H H / O.p C.C.C.",
"C.C.C.C.C.C.C.C.C.C.C.C.C.C.C.C.C.C.C.C.C.C.C.C.C.C.C.C.C.C.% 2.d.A A H U H H H U Q ,.n > C.C.C.",
"C.C.C.C.C.C.C.C.C.C.C.C.C.C.C.C.C.C.C.C.C.C.C.C.C.C.C.C.C.& x x.^ U U U U U U T T ,.E e C.C.C.C.",
"C.C.C.C.C.C.C.C.C.C.C.C.C.C.C.C.C.C.C.C.C.C.C.C.C.C.C.C.C., d.y.H U U U T T T T $.$.p C.C.C.C.C.",
"C.C.C.C.C.C.C.C.C.C.C.C.C.C.C.C.C.C.C.C.C.C.C.C.C.C.C.C.& ! z.T T T T ] T T T O.5.n 4 C.C.C.C.C.",
"C.C.C.C.C.C.C.C.C.C.C.C.C.C.C.C.C.C.C.C.C.C.C.C.C.C.C.C.p x.,.T T T T T Q | | 5.Q e C.C.C.C.C.C.",
"C.C.C.C.C.C.C.C.C.C.C.C.C.C.C.C.C.C.C.C.C.C.C.C.C.C.C.& a.d.T T E Q | | | | <.3.s C.C.C.C.C.C.C.",
"C.C.C.C.C.C.C.C.C.C.C.C.C.C.C.C.C.C.C.C.C.C.C.C.C.C.& L V.O.Q Q | | |  . .*.w.F o C.C.C.C.C.C.C.",
"C.C.C.C.C.C.C.C.C.C.C.C.C.C.C.C.C.C.C.C.C.C.C.C.C.C.1 z.6.Q |  .| O.O.O.=.y. .6 C.C.C.C.C.C.C.C.",
"C.C.C.C.C.C.C.C.C.C.C.C.C.C.C.C.C.C.C.C.C.C.C.C.C., <.c.O.| | | } |  ...8.7.z C.C.C.C.C.C.C.C.C.",
"C.C.C.C.C.C.C.C.C.C.C.C.C.C.C.C.C.C.C.C.C.C.C.C.C.z z. .Z F K K ` ` [ O.7.F 4 C.C.C.C.C.C.C.C.C.",
"C.C.C.# # # # C.C.C.C.C.C.C.C.C.C.C.C.C.C.C.C.C.1 y.q.Z K ` ` ` [ [ ..7.{ u C.C.C.C.C.C.C.C.C.C.",
"C.C.& J _ / R e # C.C.C.C.C.C.C.C.C.C.C.C.C.C., { j.] ` ` ` [ [ }  .7.7.x C.C.C.C.C.C.C.C.C.C.C.",
"C.& _ g.W I W / W - @ C.C.C.C.C.C.C.C.C.C.C.C.r c.*.` ` ] [ [ ....;.r.G 4 C.C.C.C.C.C.C.C.C.C.C.",
"@ ) i.V N N N V ^ ^ , @ C.C.C.C.C.C.C.C.C.C., 6.f.` ` [ [ ......=.s. .u C.C.C.C.C.C.C.C.C.C.C.C.",
"# k.W N N N N N B W / 9 # C.C.C.C.C.C.C.C., K v. .] [ } ....o.=.r.8.s C.C.C.C.C.C.C.C.C.C.C.C.C.",
"# h.I N N N N N B d N U 0 $ C.C.C.C.C.C.C.2 j.q.] [ [ ....=.-.9.n.M 5 C.C.C.C.C.C.C.C.C.C.C.C.C.",
"# k.I N N N N N 9 9 0 b T h % C.C.C.C.C.1 &.c.[ [ ....o.=.-.:.n.X.a C.C.C.C.C.C.C.C.C.C.C.C.C.C.",
"# ( ) N N N N 3 3 9 9 q c Q n * C.C.C.C.v v.=.[ } ..o.=.-.:.b.e.x C.C.C.C.C.C.C.C.C.C.C.C.C.C.C.",
"C.0 4.~ N d = 3 3 9 0 q i N Q K < C.C.1 y.f.} } ..o.-.-.:.e.N.G o C.C.C.C.C.C.C.C.C.C.C.C.C.C.C.",
"C.@ - ~ Y = = 3 9 0 q q g h b ^ E 1 < { v.......o.o.-.:.9.m.@.7 C.C.C.C.C.C.C.C.C.C.C.C.C.C.C.C.",
"C.C.+ * N N 3 3 0 q q i g j b Z O. .n l.8.[ ..o.=.-.:.>.n.r.x C.C.C.C.C.C.C.C.C.C.C.C.C.C.C.C.C.",
"C.C.C.C.* B B 3 0 q i i h j b C Z @.<.a.' ....o.-.>.>.t.B.` . C.C.C.C.C.C.C.C.C.C.C.C.C.C.C.C.C.",
"C.C.C.C.C.& N V q q i g j b b b Z ` @...} ..o.-.-.>.0.N.#.7 C.C.C.C.C.C.C.C.C.C.C.C.C.C.C.C.C.C.",
"C.C.C.C.C.C.& C H h g h j b b F Z ` ] [ ....-.-.:.9.M.b.v C.C.C.C.C.C.C.C.C.C.C.C.C.C.C.C.C.C.C.",
"C.C.C.C.C.C.C., D T j h b b Z F ` ` [ } ..o.-.:.>.b.B.` . C.C.C.C.C.C.C.C.C.C.C.C.C.C.C.C.C.C.C.",
"C.C.C.C.C.C.C.C., H Q N b b b ` ` [ [ } o.=.-.:.0.B.-.k C.C.C.C.C.C.C.C.C.C.C.C.C.C.C.C.C.C.C.C.",
"C.C.C.C.C.C.C.C.C.1 U  .Z C Z ` ` [ } ..o.-.>.9.M.s.v C.C.C.C.C.C.C.C.C.C.C.C.C.C.C.C.C.C.C.C.C.",
"C.C.C.C.C.C.C.C.C.C.1 T ..Z Z K ] [ } o.o.-.>.t.B.' X C.C.C.C.C.C.C.C.C.C.C.C.C.C.C.C.C.C.C.C.C.",
"C.C.C.C.C.C.C.C.C.C.C.w L O.` ` ] [ ..X.-.-.0.M.#.l C.C.C.C.C.C.C.C.C.C.C.C.C.C.C.C.C.C.C.C.C.C.",
"C.C.C.C.C.C.C.C.C.C.C.C.w L &.| ' [ ..o.-.>.m.r.m C.C.C.C.C.C.C.C.C.C.C.C.C.C.C.C.C.C.C.C.C.C.C.",
"C.C.C.C.C.C.C.C.C.C.C.C.C.t [ 3.@.} ..o.-.r.m.' X C.C.C.C.C.C.C.C.C.C.C.C.C.C.C.C.C.C.C.C.C.C.C.",
"C.C.C.C.C.C.C.C.C.C.C.C.C.C.p { 7.@...-.>.m.@.l C.C.C.C.C.C.C.C.C.C.C.C.C.C.C.C.C.C.C.C.C.C.C.C.",
"C.C.C.C.C.C.C.C.C.C.C.C.C.C.C.s  .w.;.:.r.8.m C.C.C.C.C.C.C.C.C.C.C.C.C.C.C.C.C.C.C.C.C.C.C.C.C.",
"C.C.C.C.C.C.C.C.C.C.C.C.C.C.C.C.z { w.s.e.G X C.C.C.C.C.C.C.C.C.C.C.C.C.C.C.C.C.C.C.C.C.C.C.C.C.",
"C.C.C.C.C.C.C.C.C.C.C.C.C.C.C.C.C.k n m m O C.C.C.C.C.C.C.C.C.C.C.C.C.C.C.C.C.C.C.C.C.C.C.C.C.C.",
"C.C.C.C.C.C.C.C.C.C.C.C.C.C.C.C.C.C.C.C.C.C.C.C.C.C.C.C.C.C.C.C.C.C.C.C.C.C.C.C.C.C.C.C.C.C.C.C.",
"C.C.C.C.C.C.C.C.C.C.C.C.C.C.C.C.C.C.C.C.C.C.C.C.C.C.C.C.C.C.C.C.C.C.C.C.C.C.C.C.C.C.C.C.C.C.C.C.",
"C.C.C.C.C.C.C.C.C.C.C.C.C.C.C.C.C.C.C.C.C.C.C.C.C.C.C.C.C.C.C.C.C.C.C.C.C.C.C.C.C.C.C.C.C.C.C.C."
};
