/* XPM */
static const char *archive_32x32_xpm[] = {
/* columns rows colors chars-per-pixel */
"32 32 183 2 ",
"   c #6D5A32",
".  c #78653B",
"X  c #2C3A4D",
"o  c #293648",
"O  c #2E415C",
"+  c #324154",
"@  c #3A4C63",
"#  c #3F5168",
"$  c #4A4D4A",
"%  c #414F62",
"&  c #435265",
"*  c #44566C",
"=  c #48566A",
"-  c #46586D",
";  c #4A5A6E",
":  c #505D6F",
">  c #495A70",
",  c #5B6267",
"<  c #4F6075",
"1  c #516276",
"2  c #546579",
"3  c #5B6A7C",
"4  c #56687D",
"5  c #616E7E",
"6  c #86611F",
"7  c #896522",
"8  c #8D6925",
"9  c #916D29",
"0  c #95712D",
"q  c #886C36",
"w  c #8A703B",
"e  c #9A7631",
"r  c #9F7B35",
"t  c #987837",
"y  c #A37F38",
"u  c #8E7849",
"i  c #8B7545",
"p  c #927C4C",
"a  c #AA863E",
"s  c #A88137",
"d  c #AC8B47",
"f  c #AF924F",
"g  c #BF9F58",
"h  c #808179",
"j  c #B8AC7E",
"k  c #D5B05D",
"l  c #CCAF6A",
"z  c #CEB36B",
"x  c #D4B466",
"c  c #DEB865",
"v  c #D6B86E",
"b  c #DCBC6F",
"n  c #D9BD77",
"m  c #E1BF6B",
"M  c #DDC37D",
"N  c #E4C26D",
"B  c #E2C374",
"V  c #EAC976",
"C  c #E4C67B",
"Z  c #E5C97E",
"A  c #E9CB7E",
"S  c #FBD67E",
"D  c #5C6D81",
"F  c #576C86",
"G  c #5F7084",
"H  c #5F7998",
"J  c #667283",
"K  c #6B7787",
"L  c #65768A",
"P  c #6B798B",
"I  c #6C7D91",
"U  c #637994",
"Y  c #738395",
"T  c #76879A",
"R  c #7A8A9C",
"E  c #7C8797",
"W  c #7D8DA0",
"Q  c #888D8D",
"!  c #86909E",
"~  c #8292A4",
"^  c #8797A9",
"/  c #8A9AAC",
"(  c #8B97A6",
")  c #939FAC",
"_  c #9099A7",
"`  c #8F9FB1",
"'  c #9AA3AE",
"]  c #99A7B8",
"[  c #9BAABB",
"{  c #9DA9B7",
"}  c #B6B6A2",
"|  c #A3ACB7",
" . c #A8B2BE",
".. c #A4ABA9",
"X. c #C9BC94",
"o. c #DDC584",
"O. c #DCC78B",
"+. c #CFC49A",
"@. c #DACA99",
"#. c #E3CA83",
"$. c #E9CC83",
"%. c #E4CB8B",
"&. c #E7CA87",
"*. c #E5D28E",
"=. c #EDD28C",
"-. c #FFDB84",
";. c #FFDE8A",
":. c #F7D684",
">. c #E6CE91",
",. c #E5D192",
"<. c #EBD592",
"1. c #EBD69A",
"2. c #ECDB9C",
"3. c #EFDD97",
"4. c #F1D694",
"5. c #F0DC96",
"6. c #F2DB9B",
"7. c #F0D698",
"8. c #FFE08E",
"9. c #FEE294",
"0. c #F5E19A",
"q. c #FCE59B",
"w. c #D0C7A2",
"e. c #DBD2A8",
"r. c #EAD9A3",
"t. c #F5DEA3",
"y. c #EADEB1",
"u. c #EEE1A6",
"i. c #F4E4A5",
"p. c #FDEAA5",
"a. c #F3E4AC",
"s. c #FCEDAB",
"d. c #F5E8A8",
"f. c #FFF0AE",
"g. c #EEE2B2",
"h. c #F5E5B1",
"j. c #F6EBB1",
"k. c #F9EBB4",
"l. c #F9EAB9",
"z. c #FFF3B5",
"x. c #FDF4BB",
"c. c #FFF9BE",
"v. c #9FB2C5",
"b. c #A0AFC0",
"n. c #A5B4C5",
"m. c #ACB9C6",
"M. c #ACBBCC",
"N. c #A8B5C4",
"B. c #B3B9C2",
"V. c #AABDD0",
"C. c #BAC3CD",
"Z. c #B3C3D3",
"A. c #BDCCDC",
"S. c #C2CEDC",
"D. c #C5CBD1",
"F. c #C3D0DE",
"G. c #CDD3DB",
"H. c #CDD7D7",
"J. c #D1D5DA",
"K. c #D3D5C6",
"L. c #EAE9CE",
"P. c #F6EDC0",
"I. c #FBF3C4",
"U. c #FFF8CD",
"Y. c #F4F0CD",
"T. c #CAD7E4",
"R. c #C6D4E4",
"E. c #D3DCE6",
"W. c #D2DEEA",
"Q. c #DBE0E6",
"!. c #D7E0EA",
"~. c #DBE3EB",
"^. c #DFE8F2",
"/. c #D9E4F0",
"(. c #E3E6EB",
"). c #E3ECF5",
"_. c #EAEFF5",
"`. c #E1EFFE",
"'. c #EAF3FB",
"]. c #ECF1F6",
"[. c #F5FAFF",
"{. c #FCFCFD",
"}. c None",
/* pixels */
"}.}.}.}.}.}.}.}.}.}.}.}.}.}.}.}.}.}.}.}.}.}.}.}.}.}.}.}.}.}.}.}.",
"}.}.}.}.}.}.}.}.}.}.}.}.}.}.}.}.}.}.}.}.}.}.}.}.}.}.}.}.}.}.}.}.",
"}.}.}.}.}.}.}.}.}.}.}.}.}.}.}.}.}.}.}.}.}.}.}.}.}.}.}.}.}.}.}.}.",
"}.}.}.}.}.}.}.}.M #.@.w.+.+.O.%.#.X.N.Z.V.v.` W }.}.}.}.}.}.}.}.",
"}.}.}.}.}.M %.e.K.Q.].[.'.!.T.M.v.R.T.~ I v.Z.[ Y }.}.}.}.}.}.}.",
"}.}.#.1.h.I.L.T.[.[.[.[.[.'.'.`.Z.~.N.@ 1 / F.n.~ }.}.}.}.}.}.}.",
"M 1.l.I.U.U.Y.H.G.A.F.R.^./.E.S.[ [ ^.].F.' ~ ~ / }.}.}.}.}.}.}.",
"%.=.$.=.<.6.a.a.l.l.y.e.} } ..) W [ Q.'.N.> - T / }.}.}.}.}.}.}.",
"%.1.j.j.2.<.=.M V Z =.=.1.6.i.l.j 5 ! C.n.& < G Y }.}.}.}.}.}.}.",
"%.t.x.s.f.z.z.c.x.0.u.*.C x =.e 6 q : _ b.J [ P }.}.}.}.}.}.}.}.",
"%.a.z.f.f.5.3.0.q.q.9.9.q.B =.6 7   K J.(.` ~ 1 }.}.}.}.}.}.}.}.",
"%.u.s.s.s.0.V N N q.9.8.;.c 4.7 9 q % E ] * ^ 3 }.}.}.}.}.}.}.}.",
"%.$.Z #.#.=.3.0.q.9.9.8.-.c 7.8 9 w :  .T.( A.I }.}.}.}.}.}.}.}.",
"%.<.a.2.=.Z Z M A M N B V k 6.8 0 . K D.H.T I < }.}.}.}.}.}.}.}.",
">.a.x.z.x.c.x.j.2.<.*.v x M 0.0 e y % _ n.* [ L }.}.}.}.}.}.}.}.",
">.a.z.f.f.p.i.q.q.p.p.f.d.z i.e y p 5  ._.m.Z.L }.}.}.}.}.}.}.}.",
",.a.k.z.f.=.N b B 9.;.;.-.k i.y y p 2 ' | 2 Y < }.}.}.}.}.}.}.}.",
">.<.=.$.3.0.0.q.q.9.8.;.S m a.y a d = | S.D Z.T }.}.}.}.}.}.}.}.",
"#.h.a.i.3.<.*.=.Z A :.:.S m k.a d u K D.{.M.^ D }.}.}.}.}.}.}.}.",
"}.v O.,.r.j.I.I.x.i.%.#.b k s.a i , D B./ @ W F I }.}.}.}.}.}.}.",
"}.}.}.}.}.v n %.r.g.P.I.l.j.l.a h D.M.G.F.- W H U }.}.}.}.}.}.}.",
"}.}.}.}.}.}.}.}.}.}.f g l o.@.s Q M.)._.!.{ ^ W ^ }.}.}.}.}.}.}.",
"}.}.}.}.}.}.}.}.}.}.}.}.}.}.. $ Y [ Q.'.m.> > T / }.}.}.}.}.}.}.",
"}.}.}.}.}.}.}.}.}.}.}.}.}.* X o = ( C.(.n.> 1 L I }.}.}.}.}.}.}.",
"}.}.}.}.}.}.}.}.}.}.}.}.}.4 L J D ) [ ) / X 4 @ 1 }.}.}.}.}.}.}.",
"}.}.}.}.}.}.}.}.}.}.}.}.}.D / T Y E.Z.G.S.- 2 O - }.}.}.}.}.}.}.",
"}.}.}.}.}.}.}.}.}.}.}.}.}.}.P E Y m.(.E.~ : # L ~ b.[ T }.}.}.}.",
"}.}.}.}.}.}.}.}.}.}.}.}.}.}.}.}.E ] E.'.N.; > R / M.^.W > }.}.}.",
"}.}.}.}.}.}.}.}.}.}.}.}.}.}.}.}.}./ C.!.n.> - D L W M.F & }.}.}.",
"}.}.}.}.}.}.}.}.}.}.}.}.}.}.}.}.}.}.}.D > X @ }.}.1 2 * }.}.}.}.",
"}.}.}.}.}.}.}.}.}.}.}.}.}.}.}.}.}.}.}.}.}.}.}.}.}.}.}.}.}.}.}.}.",
"}.}.}.}.}.}.}.}.}.}.}.}.}.}.}.}.}.}.}.}.}.}.}.}.}.}.}.}.}.}.}.}."
};
