/* XPM */
static const char *archive_24x24_xpm[] = {
/* columns rows colors chars-per-pixel */
"24 24 143 2 ",
"   c #775A22",
".  c #2E3B4B",
"X  c #314155",
"o  c #34465E",
"O  c #3E4E62",
"+  c #3E5066",
"@  c #726B56",
"#  c #435165",
"$  c #495769",
"%  c #47586F",
"&  c #4C5A6C",
"*  c #495A71",
"=  c #4E6076",
"-  c #536275",
";  c #58697E",
":  c #53647A",
">  c #8B6724",
",  c #916D28",
"<  c #97732E",
"1  c #9C7934",
"2  c #A38039",
"3  c #A48344",
"4  c #AA8640",
"5  c #AC8C4C",
"6  c #A48A4D",
"7  c #AF8F50",
"8  c #B69957",
"9  c #BC9D5D",
"0  c #B49455",
"q  c #BFA161",
"w  c #C7AD6C",
"e  c #D7B86F",
"r  c #D7BA71",
"t  c #DDBD73",
"y  c #DABE79",
"u  c #E1BE6C",
"i  c #DCC17C",
"p  c #E2C272",
"a  c #EBC672",
"s  c #E3C67B",
"d  c #E7CC7E",
"f  c #FBD67E",
"g  c #576A80",
"h  c #5D6E83",
"j  c #627285",
"k  c #697686",
"l  c #657689",
"z  c #6A7A8D",
"x  c #647993",
"c  c #6D7E91",
"v  c #728296",
"b  c #788799",
"n  c #7A899B",
"m  c #6D84A0",
"M  c #7E8EA1",
"N  c #80898D",
"B  c #848E9B",
"V  c #8393A5",
"C  c #8B96A3",
"Z  c #8697AA",
"A  c #8999AB",
"S  c #949DA9",
"D  c #8E9EB0",
"F  c #92A2B4",
"G  c #9DA5B0",
"H  c #9DACBD",
"J  c #A2AEBC",
"K  c #A9B1BC",
"L  c #B2BAB6",
"P  c #D7BF82",
"I  c #D9CC9D",
"U  c #E2C782",
"Y  c #E4CB85",
"T  c #E8CE85",
"R  c #E4CB8C",
"E  c #E9CD89",
"W  c #ECD285",
"Q  c #E6D18E",
"!  c #E9D28C",
"~  c #FBD985",
"^  c #FEDD8A",
"/  c #E6CF92",
"(  c #E6D293",
")  c #EBD692",
"_  c #EDDA97",
"`  c #EBD69D",
"'  c #ECDC9B",
"]  c #F1DB96",
"[  c #F3DB9B",
"{  c #FFE08E",
"}  c #FDE192",
"|  c #F7E19A",
" . c #FDE499",
".. c #D4CFA9",
"X. c #DED9BE",
"o. c #E9D7A0",
"O. c #EDDEA2",
"+. c #F4DDA2",
"@. c #EFE0A1",
"#. c #F1E2A3",
"$. c #F8E1A6",
"%. c #F3E3AA",
"&. c #F5EAAD",
"*. c #FAEDAD",
"=. c #FFF0AE",
"-. c #F0E3B2",
";. c #F8EBB4",
":. c #F6EEBF",
">. c #F9ECBC",
",. c #FEF2B3",
"<. c #FFF5B9",
"1. c #9BAEC2",
"2. c #A1B0C1",
"3. c #ABB7C4",
"4. c #A3B7CB",
"5. c #ADBBCB",
"6. c #B1BDCB",
"7. c #B5C0C7",
"8. c #BFC6C5",
"9. c #B4C1CD",
"0. c #B9C1CC",
"q. c #B4C2D1",
"w. c #BCC5D1",
"e. c #BCCCDD",
"r. c #D3D4C1",
"t. c #DCDDCB",
"y. c #C2CCD8",
"u. c #C5D1DC",
"i. c #CCD5DE",
"p. c #CAD3D4",
"a. c #E6E1C2",
"s. c #FFF8CD",
"d. c #FBF4C3",
"f. c #C6D6E7",
"g. c #D1DCE6",
"h. c #D8E4F0",
"j. c #E1E5E2",
"k. c #E5ECF4",
"l. c #E8EDF3",
"z. c #EDF4FC",
"x. c #F1F6FD",
"c. c #F3F9FF",
"v. c None",
/* pixels */
"v.v.v.v.v.v.v.v.v.v.v.v.v.v.v.v.v.v.v.v.v.v.v.v.",
"v.v.v.v.v.v.v.v.v.v.v.v.v.v.v.v.v.v.v.v.v.v.v.v.",
"v.v.v.v.v.v.v.i ( ( r r e L 4.1.F v.v.v.v.v.v.v.",
"v.v.v.v.U I X.j.k.h.u.p.9.f.D F 5.1.v v.v.v.v.v.",
"v.( O.>.s.e.c.c.c.z.x.z.4.k.z n 9.5.V v.v.v.v.v.",
"R +.%.>.>.a.r.t.y.7.5.2.A 6.x.6.j c Z v.v.v.v.v.",
"R O.' _ ) E E E ] [ $...N k 0.H O c v v.v.v.v.v.",
"R &.=.,.*.<.<.%.@.E t 5   $ B 0.Z n v.v.v.v.v.v.",
"R &.=.=.d p W  .{ ~ t 2 > $ S K h h v.v.v.v.v.v.",
"R T T ) | |  .} { ~ i 3 , # C y.D F v.v.v.v.v.v.",
"E @.%.@.Q Y i s p p e 5 < $ J K z h v.v.v.v.v.v.",
"R &.=.=.*.,.=.#.' ( Y 7 1 O C y.D D v.v.v.v.v.v.",
"( &.=.=.W p W } ^ ^ U 0 2 & G K v ; v.v.v.v.v.v.",
"/ Q ! Q ] [ } } ^ f U 8 2 $ C y.D D v.v.v.v.v.v.",
"i ` %.;.%.+._ Y p a s q @ - G K v g v.v.v.v.v.v.",
"v.v.v.y R o.-.d.d.%.*.q v 3.6.6.: m x v.v.v.v.v.",
"v.v.v.v.v.v.v.6 8 w U 7 Z f.l.i.C b Z v.v.v.v.v.",
"v.v.v.v.v.v.v.v.v.v.. . B 5.x.H + z M v.v.v.v.v.",
"v.v.v.v.v.v.v.v.v.l & : z F J b O # j v.v.v.v.v.",
"v.v.v.v.v.v.v.v.v.j z F F g.w.H O o g Z c v.v.v.",
"v.v.v.v.v.v.v.v.v.v.& & A 9.l.J = c D q.A h v.v.",
"v.v.v.v.v.v.v.v.v.v.v.v.Z J k.H + h z 5.M % v.v.",
"v.v.v.v.v.v.v.v.v.v.v.v.v.v.h % X # v.: * . v.v.",
"v.v.v.v.v.v.v.v.v.v.v.v.v.v.v.v.v.v.v.v.v.v.v.v."
};
