/* XPM */
static const char *back_64x64_xpm[] = {
/* columns rows colors chars-per-pixel */
"64 64 179 2 ",
"   c #157417",
".  c #008400",
"X  c #008E00",
"o  c #009300",
"O  c #009B00",
"+  c #00930C",
"@  c #128A10",
"#  c #029515",
"$  c #079719",
"%  c #0A961A",
"&  c #0D9A1D",
"*  c #109B1F",
"=  c #159622",
"-  c #149D22",
";  c #1A9C26",
":  c #1C9D28",
">  c #2A972D",
",  c #229E2F",
"<  c #229124",
"1  c #279C32",
"2  c #329D33",
"3  c #0FA721",
"4  c #16A125",
"5  c #19A127",
"6  c #1DA32A",
"7  c #21A62D",
"8  c #23A82F",
"9  c #26A233",
"0  c #26AA31",
"q  c #2BAD35",
"w  c #2EA53A",
"e  c #2FAF38",
"r  c #31A43E",
"t  c #3BA53D",
"y  c #33AD3E",
"u  c #35A333",
"i  c #2DB136",
"p  c #2FB038",
"a  c #33B23B",
"s  c #38B53F",
"d  c #39B83F",
"f  c #3D8F40",
"g  c #3F9343",
"h  c #3E9B46",
"j  c #3CA545",
"k  c #36AA42",
"l  c #3AAD46",
"z  c #37A049",
"x  c #3BA24C",
"c  c #3EAE4B",
"v  c #36B140",
"b  c #3AB641",
"n  c #3DB943",
"m  c #3EB14A",
"M  c #418140",
"N  c #429946",
"B  c #46974A",
"V  c #4B974D",
"C  c #459C4B",
"Z  c #499E4E",
"A  c #4F9750",
"S  c #4B9F52",
"D  c #539754",
"F  c #589758",
"G  c #5C9A5B",
"H  c #619E5F",
"J  c #44A649",
"K  c #49A14D",
"L  c #41AE4E",
"P  c #4CAB4D",
"I  c #46A944",
"U  c #41BB46",
"Y  c #42B14D",
"T  c #45BD4A",
"R  c #48BF4C",
"E  c #50B04F",
"W  c #44A553",
"Q  c #4CA355",
"!  c #44AF52",
"~  c #4AAC56",
"^  c #4DA65B",
"/  c #4DAE5A",
"(  c #52A356",
")  c #56A55B",
"_  c #5AA75C",
"`  c #52AD5D",
"'  c #5BAB5E",
"]  c #46B152",
"[  c #49B156",
"{  c #4FBE57",
"}  c #4CB159",
"|  c #58B257",
" . c #51B25E",
".. c #55B95C",
"X. c #58BA5E",
"o. c #58B358",
"O. c #56AD61",
"+. c #5AAD63",
"@. c #5FAB69",
"#. c #56B261",
"$. c #5AB164",
"%. c #57BA62",
"&. c #5BBD63",
"*. c #63AC63",
"=. c #6DA66C",
"-. c #65AE6E",
";. c #6CAC6C",
":. c #62B564",
">. c #69B067",
",. c #64B46D",
"<. c #6CB46C",
"1. c #6CBB6C",
"2. c #66BC69",
"3. c #6CB575",
"4. c #6EBD75",
"5. c #6FBB79",
"6. c #74BC7B",
"7. c #46C049",
"8. c #4BC14D",
"9. c #4EC351",
"0. c #51C654",
"q. c #55C956",
"w. c #55C55A",
"e. c #58C35F",
"r. c #57C959",
"t. c #5BCC5B",
"y. c #5FD15D",
"u. c #60CF5F",
"i. c #61D15F",
"p. c #5CCB61",
"a. c #5CC563",
"s. c #61CD63",
"d. c #64C16B",
"f. c #64D163",
"g. c #66D169",
"h. c #6AD56B",
"j. c #6FDA6E",
"k. c #72DB6F",
"l. c #6AC472",
"z. c #6EC976",
"x. c #6FC579",
"c. c #6FC979",
"v. c #75C474",
"b. c #79C578",
"n. c #7EC87E",
"m. c #74C07B",
"M. c #6FD770",
"N. c #74DB73",
"B. c #78DE77",
"V. c #7ADF78",
"C. c #7EE17B",
"Z. c #81E37E",
"A. c #78BE80",
"S. c #7EC385",
"D. c #83BD83",
"F. c #83CC84",
"G. c #85C78A",
"H. c #8ACD8C",
"J. c #85C88B",
"K. c #8DD28D",
"L. c #8CCD92",
"P. c #91D591",
"I. c #97DB97",
"U. c #93D398",
"Y. c #9ADB9D",
"T. c #8DEE8A",
"R. c #9EE29E",
"E. c #9EDEA2",
"W. c #A2E4A3",
"Q. c #A6E9A6",
"!. c #A5E6A8",
"~. c #A7EAA8",
"^. c #ABEDAC",
"/. c #AEF2AE",
"(. c #AFEFB1",
"). c #AFF1B0",
"_. c #B0F1B1",
"`. c #B7FBB8",
"'. c None",
/* pixels */
"'.'.'.'.'.'.'.'.'.'.'.'.'.'.'.'.'.'.'.'.'.'.'.'.'.'.'.'.'.'.'.'.'.'.'.'.'.'.'.'.'.'.'.'.'.'.'.'.'.'.'.'.'.'.'.'.'.'.'.'.'.'.'.'.",
"'.'.'.'.'.'.'.'.'.'.'.'.'.'.'.'.'.'.'.'.'.'.'.'.'.'.'.'.'.'.'.'.'.'.'.'.'.'.'.'.'.'.'.'.'.'.'.'.'.'.'.'.'.'.'.'.'.'.'.'.'.'.'.'.",
"'.'.'.'.'.'.'.'.'.'.'.'.'.'.'.'.'.'.'.'.'.'.'.'.'.'.'.'.'.'.'.'.'.'.'.'.'.'.'.'.'.'.'.'.'.'.'.'.'.'.'.'.'.'.'.'.'.'.'.'.'.'.'.'.",
"'.'.'.'.'.'.'.'.'.'.'.'.'.'.'.'.'.'.'.'.'.'.'.'.'.'.'.'.'.'.'.'.'.'.'.'.'.'.'.'.'.'.'.'.'.'.'.'.'.'.'.'.'.'.'.'.'.'.'.'.'.'.'.'.",
"'.'.'.'.'.'.'.'.'.'.'.'.'.'.'.'.'.'.'.'.'.'.'.'.'.'.'.'.'.'.  '.'.'.'.'.'.'.'.'.'.'.'.'.'.'.'.'.'.'.'.'.'.'.'.'.'.'.'.'.'.'.'.'.",
"'.'.'.'.'.'.'.'.'.'.'.'.'.'.'.'.'.'.'.'.'.'.'.'.'.'.'.'.'.g d.'.'.'.'.'.'.'.'.'.'.'.'.'.'.'.'.'.'.'.'.'.'.'.'.'.'.'.'.'.'.'.'.'.",
"'.'.'.'.'.'.'.'.'.'.'.'.'.'.'.'.'.'.'.'.'.'.'.'.'.'.'.'.f a.&.'.'.'.'.'.'.'.'.'.'.'.'.'.'.'.'.'.'.'.'.'.'.'.'.'.'.'.'.'.'.'.'.'.",
"'.'.'.'.'.'.'.'.'.'.'.'.'.'.'.'.'.'.'.'.'.'.'.'.'.'.'.N a.s X.'.'.'.'.'.'.'.'.'.'.'.'.'.'.'.'.'.'.'.'.'.'.'.'.'.'.'.'.'.'.'.'.'.",
"'.'.'.'.'.'.'.'.'.'.'.'.'.'.'.'.'.'.'.'.'.'.'.'.'.'.N a.i a X.'.'.'.'.'.'.'.'.'.'.'.'.'.'.'.'.'.'.'.'.'.'.'.'.'.'.'.'.'.'.'.'.'.",
"'.'.'.'.'.'.'.'.'.'.'.'.'.'.'.'.'.'.'.'.'.'.'.'.'.C w.0 i s X.'.'.'.'.'.'.'.'.'.'.'.'.'.'.'.'.'.'.'.'.'.'.'.'.'.'.'.'.'.'.'.'.'.",
"'.'.'.'.'.'.'.'.'.'.'.'.'.'.'.'.'.'.'.'.'.'.'.'.K { 8 i p s X.'.'.'.'.'.'.'.'.'.'.'.'.'.'.'.'.'.'.'.'.'.'.'.'.'.'.'.'.'.'.'.'.'.",
"'.'.'.'.'.'.'.'.'.'.'.'.'.'.'.'.'.'.'.'.'.'.'.+.&.3 q q q a X.'.'.'.'.'.'.'.'.'.'.'.'.'.'.'.'.'.'.'.'.'.'.'.'.'.'.'.'.'.'.'.'.'.",
"'.'.'.'.'.'.'.'.'.'.'.'.'.'.'.'.'.'.'.'.'.'.$.l.0 0 q q q a X.'.'.'.'.'.'.'.'.'.'.'.'.'.'.'.'.'.'.'.'.'.'.'.'.'.'.'.'.'.'.'.'.'.",
"'.'.'.'.'.'.'.'.'.'.'.'.'.'.'.'.'.'.'.'.'.2.d.Y e 8 q 0 q p ..'.'.'.'.'.'.'.'.'.'.'.'.'.'.'.'.'.'.'.'.'.'.'.'.'.'.'.'.'.'.'.'.'.",
"'.'.'.'.'.'.'.'.'.'.'.'.'.'.'.'.'.'.'.'.2.d.Y { q 7 0 q q a ..'.'.'.'.'.'.'.'.'.'.'.'.'.'.'.'.'.'.'.'.'.'.'.'.'.'.'.'.'.'.'.'.'.",
"'.'.'.'.'.'.'.'.'.'.'.'.'.'.'.'.'.'.. l.&.m ] ] 0 0 0 0 q p ..'.'.'.'.'.'.'.'.'.'.'.'.'.'.'.'.'.'.'.'.'.'.'.'.'.'.'.'.'.'.'.'.'.",
"'.'.'.'.'.'.'.'.'.'.'.'.'.'.'.'.'.@ d.&.m ] R Y 0 6 0 0 q p ..'.'.'.'.'.'.'.'.'.'.'.'.'.'.'.'.'.'.'.'.'.'.'.'.'.'.'.'.'.'.'.'.'.",
"'.'.'.'.'.'.'.'.'.'.'.'.'.'.'.'.< l.%.m ] ] ] Y 6 0 0 0 0 i %.C C V C V V V V A A A D D D D D D F F G F G F G G G H H G H M '.'.",
"'.'.'.'.'.'.'.'.'.'.'.'.'.'.'.> z...m ] T Y Y m 6 0 7 0 q q m 9.0.w.w.r.t.p.p.s.s.g.g.h.h.h.M.N.N.N.B.B.C.C.C.Z.Z.Z.Z.Z.T.<.'.'.",
"'.'.'.'.'.'.'.'.'.'.'.'.'.'.2 c. .m [ ] ] Y Y m 6 6 7 0 0 q 0 8 0 q i p a s s n n U T 7.8.9.8.0.q.q.r.r.t.t.t.i.i.i.i.i.k.<.'.'.",
"'.'.'.'.'.'.'.'.'.'.'.'.'.t z. .c ] ] Y Y Y Y l 6 6 8 8 0 q q p a a a b b n U U T 7.8.8.8.0.0.q.q.r.r.t.t.i.u.u.i.f.f.i.N.<.'.'.",
"'.'.'.'.'.'.'.'.'.'.'.'.j z.} L ] ] Y Y m Y Y l 6 6 7 8 0 0 q q q p a a a b b U U U T T 8.8.8.0.9.q.q.q.r.t.t.u.u.i.i.t.k.>.'.'.",
"'.'.'.'.'.'.'.'.'.'.'.J c.[ L ] ] c Y L Y m m l 5 6 6 7 7 0 0 q q p y a a b b n n U U T R 8.8.8.9.q.q.q.q.q.q.t.t.t.t.t.h.>.'.'.",
"'.'.'.'.'.'.'.'.'.'.P c.[ ] ] ! c ] L Y c c m l 5 6 6 7 6 0 0 0 q q e p a a s b n n U T T R 8.8.8.9.8.q.q.q.q.q.q.q.t.q.h.*.'.'.",
"'.'.'.'.'.'.'.'.'.~ c.[ ! ] ] ] ] ] c m m c m k 6 6 6 6 6 0 0 0 q q e p a a s s d n n U U T T R 8.8.8.9.0.0.0.q.q.q.q.q.f.*.'.'.",
"'.'.'.'.'.'.'.'.` v.[ [ [ [ ! ] ! c c c c c c k 5 4 6 6 6 8 0 0 0 q q e e a a a s n n n U U T T R 8.8.8.8.9.9.9.0.q.q.9.f.*.'.'.",
"'.'.'.'.'.'.'.O.x.[ [ [ ] ! ] ] ! m ] c c c c c 5 4 5 6 6 7 7 0 0 0 q q q a a a s s s n n U U U T T 8.8.8.8.8.9.9.0.0.9.s.*.'.'.",
"'.'.'.'.'.'.$.x.[ } [ [ ] ! ! ! ! ! c c c l c l 5 4 5 5 6 6 6 8 0 0 0 q q q e a a a s s b b n U U T T T T 8.8.8.R 8.8.R t.' '.'.",
"'.'.'.'.'.:.5.~ } } } [ [ ] ! ] m c L c c c c l 6 - 4 4 5 6 6 0 7 8 0 q q q p a p a a s s s n n n U U T T T T R R 8.8.T t.+.'.'.",
"'.'.'.'.,.5./ O. .} } [ [ ! ! ! ! ! c c c c c c 9 * 4 4 5 5 6 6 7 8 8 0 q q q q p p a s s s s s n n n U U U U T T T R U r._ '.'.",
"'.'.'.4.5.) O./ ` } } [ [ ! ! ! ! c L ! c c l c 9 * 4 - 5 5 6 6 6 7 7 0 0 q q q p y a a a s s s b b b n n U U U U U T n q._ '.'.",
"'.2 3.3.O.O.) O.` } / } ! ! [ ! c ! c c c c l c w $ 4 4 ; 5 5 6 6 7 7 7 0 0 0 q q q q q a a a s s s b b n b n n n U U b 0._ '.'.",
"'.| (.-.O.+.O.` ` / / } [ [ [ ! ! c ! c c c c c y $ & 4 4 - 5 5 6 6 7 7 8 8 8 q q q q p y p e a a a s s s b b b b n n d 9.( '.'.",
"'.'.1._.-.^ +.O.O./ / } [ [ ! ! ! ! ! c c c c c k & * - - 4 4 5 5 6 6 6 7 7 8 8 0 0 q q q p p e a a a a s s s s b b s a 9.( '.'.",
"'.'.'.2.(.;.^ +.` ` / / / [ ! ! ! ! ! c c c c c l - & - - - - 4 5 5 6 6 6 7 8 8 0 0 0 q q q i i e e a a a a a s s s s a R ( '.'.",
"'.'.'.'.X.(.3.W O.` ` / / [ } ! ] c ! ! c W c c c - % * * - - 4 4 5 5 6 6 6 6 7 8 8 8 0 0 q q q i e e e e e a a a a a p R ( '.'.",
"'.'.'.'.'.E _.6.x +.O./ / ~ } ! [ ! c ! ! c c c L , $ * - * - - - 5 5 5 6 6 6 7 7 7 8 8 0 0 0 q q i q q e p e e p a a q R Q '.'.",
"'.'.'.'.'.'.I ).A.x +./ / / } [ [ ! ! ! c ! ! c ! w # & & & & - - - - 5 5 5 6 6 6 7 7 8 8 8 0 8 0 q q q q q q q q p q q U D '.'.",
"'.'.'.'.'.'.'.u (.S.h #./ / } } } ! ! ! ! c c c c k $ % & & & - - - - 4 4 5 5 5 6 6 7 7 8 8 8 8 0 0 0 0 q q q q q q q 0 n S '.'.",
"'.'.'.'.'.'.'.'.'.!.J.z O./ ~ ~ [ } ! ! ! ] ! ] W c - $ & & & & * - - - - 4 5 5 5 6 5 5 7 7 7 8 7 0 0 0 0 0 0 0 0 q q 0 n S '.'.",
"'.'.'.'.'.'.'.'.'.'.Q.L.z  ./ / } ! ! [ ! ! c [ ! ! , # % & & & & - * - - - - 5 5 5 5 5 6 6 7 7 7 7 8 8 8 8 0 8 0 0 0 6 n Z '.'.",
"'.'.'.'.'.'.'.'.'.'.'.R.L.z ` / } / } ! ! ! ! ! ! ! r + % % % & & & & * - - - - 4 4 5 5 6 5 5 6 6 6 7 7 7 7 7 7 0 0 0 6 b Z '.'.",
"'.'.'.'.'.'.'.'.'.'.'.'.I.U.x  .^ / } [ [ [ ! ! ! ! c # % % $ % & & & * - * * - - 5 5 4 5 5 5 5 6 6 6 6 6 7 7 7 7 7 7 6 a Z '.'.",
"'.'.'.'.'.'.'.'.'.'.'.'.'.P.Y.x ` / } } [ [ [ [ ! ! ! : # % % % % % & & & & * - - - - - - 5 5 4 5 5 6 5 6 6 6 6 6 6 7 4 y Z '.'.",
"'.'.'.'.'.'.'.'.'.'.'.'.'.'.K.E.x #./ / [ [ [ [ [ ] [ w + % % = = = = ; = ; ; ; ; ; 5 : 7 : 6 , 6 7 , 6 7 7 , 7 7 7 7 6 k C '.'.",
"'.'.'.'.'.'.'.'.'.'.'.'.'.'.'.K.!.x / / / / / [ [ [ [ c # % o X X o o o o o o o o o o o O o O O O O O O O O O O O O O O 3 h '.'.",
"'.'.'.'.'.'.'.'.'.'.'.'.'.'.'.'.S.!.^ [  ./ } [ [ [ [ } > X F._././././././././.)._._././././././._.^._././././._./.)./.`.D.'.'.",
"'.'.'.'.'.'.'.'.'.'.'.'.'.'.'.'.'.S.^.^ ^  ./ } } } [ } j X [ :.<.1.1.1.1.1.<.1.1.,.1.<.<.<.;.;.<.;.;.;.;.=.;.;.;.=.=.=.=.'.'.'.",
"'.'.'.'.'.'.'.'.'.'.'.'.'.'.'.'.'.'.b.^.O.~ O./ } } } } ~ = k '.'.'.'.'.'.'.'.'.'.'.'.'.'.'.'.'.'.'.'.'.'.'.'.'.'.'.'.'.'.'.'.'.",
"'.'.'.'.'.'.'.'.'.'.'.'.'.'.'.'.'.'.'.v.(.+.~ `  .}  .} } k k '.'.'.'.'.'.'.'.'.'.'.'.'.'.'.'.'.'.'.'.'.'.'.'.'.'.'.'.'.'.'.'.'.",
"'.'.'.'.'.'.'.'.'.'.'.'.'.'.'.'.'.'.'.'.1./.,.! O.#. .} } } l '.'.'.'.'.'.'.'.'.'.'.'.'.'.'.'.'.'.'.'.'.'.'.'.'.'.'.'.'.'.'.'.'.",
"'.'.'.'.'.'.'.'.'.'.'.'.'.'.'.'.'.'.'.'.'.:._.3.W #. .#.} #.%.'.'.'.'.'.'.'.'.'.'.'.'.'.'.'.'.'.'.'.'.'.'.'.'.'.'.'.'.'.'.'.'.'.",
"'.'.'.'.'.'.'.'.'.'.'.'.'.'.'.'.'.'.'.'.'.'.o._.5.! $.#. .#.l.'.'.'.'.'.'.'.'.'.'.'.'.'.'.'.'.'.'.'.'.'.'.'.'.'.'.'.'.'.'.'.'.'.",
"'.'.'.'.'.'.'.'.'.'.'.'.'.'.'.'.'.'.'.'.'.'.'.P _.6.W $.#.#.l.'.'.'.'.'.'.'.'.'.'.'.'.'.'.'.'.'.'.'.'.'.'.'.'.'.'.'.'.'.'.'.'.'.",
"'.'.'.'.'.'.'.'.'.'.'.'.'.'.'.'.'.'.'.'.'.'.'.'.t /.S.W $.$.5.'.'.'.'.'.'.'.'.'.'.'.'.'.'.'.'.'.'.'.'.'.'.'.'.'.'.'.'.'.'.'.'.'.",
"'.'.'.'.'.'.'.'.'.'.'.'.'.'.'.'.'.'.'.'.'.'.'.'.'.'.^.J.W ,.5.'.'.'.'.'.'.'.'.'.'.'.'.'.'.'.'.'.'.'.'.'.'.'.'.'.'.'.'.'.'.'.'.'.",
"'.'.'.'.'.'.'.'.'.'.'.'.'.'.'.'.'.'.'.'.'.'.'.'.'.'.'.Q.L.^ m.'.'.'.'.'.'.'.'.'.'.'.'.'.'.'.'.'.'.'.'.'.'.'.'.'.'.'.'.'.'.'.'.'.",
"'.'.'.'.'.'.'.'.'.'.'.'.'.'.'.'.'.'.'.'.'.'.'.'.'.'.'.'.E.U.,.'.'.'.'.'.'.'.'.'.'.'.'.'.'.'.'.'.'.'.'.'.'.'.'.'.'.'.'.'.'.'.'.'.",
"'.'.'.'.'.'.'.'.'.'.'.'.'.'.'.'.'.'.'.'.'.'.'.'.'.'.'.'.'.Y.W.'.'.'.'.'.'.'.'.'.'.'.'.'.'.'.'.'.'.'.'.'.'.'.'.'.'.'.'.'.'.'.'.'.",
"'.'.'.'.'.'.'.'.'.'.'.'.'.'.'.'.'.'.'.'.'.'.'.'.'.'.'.'.'.'.v.'.'.'.'.'.'.'.'.'.'.'.'.'.'.'.'.'.'.'.'.'.'.'.'.'.'.'.'.'.'.'.'.'.",
"'.'.'.'.'.'.'.'.'.'.'.'.'.'.'.'.'.'.'.'.'.'.'.'.'.'.'.'.'.'.'.'.'.'.'.'.'.'.'.'.'.'.'.'.'.'.'.'.'.'.'.'.'.'.'.'.'.'.'.'.'.'.'.'.",
"'.'.'.'.'.'.'.'.'.'.'.'.'.'.'.'.'.'.'.'.'.'.'.'.'.'.'.'.'.'.'.'.'.'.'.'.'.'.'.'.'.'.'.'.'.'.'.'.'.'.'.'.'.'.'.'.'.'.'.'.'.'.'.'.",
"'.'.'.'.'.'.'.'.'.'.'.'.'.'.'.'.'.'.'.'.'.'.'.'.'.'.'.'.'.'.'.'.'.'.'.'.'.'.'.'.'.'.'.'.'.'.'.'.'.'.'.'.'.'.'.'.'.'.'.'.'.'.'.'.",
"'.'.'.'.'.'.'.'.'.'.'.'.'.'.'.'.'.'.'.'.'.'.'.'.'.'.'.'.'.'.'.'.'.'.'.'.'.'.'.'.'.'.'.'.'.'.'.'.'.'.'.'.'.'.'.'.'.'.'.'.'.'.'.'."
};
