/* XPM */
static const char *burn_disk_48x48_xpm[] = {
/* columns rows colors chars-per-pixel */
"48 48 234 2 ",
"   c #F5791C",
".  c #DE702B",
"X  c #DF7C3E",
"o  c #DE6A33",
"O  c #E3742C",
"+  c #E77C2C",
"@  c #E27935",
"#  c #FB8602",
"$  c #FB8B04",
"%  c #F9860B",
"&  c #FC9509",
"*  c #FC9A0C",
"=  c #FB9819",
"-  c #F78114",
";  c #FCA815",
":  c #FDB51C",
">  c #EF8C27",
",  c #EB872D",
"<  c #F58D2C",
"1  c #EF922D",
"2  c #F4922D",
"3  c #F39C2F",
"4  c #F99B2B",
"5  c #E78532",
"6  c #E98433",
"7  c #E98B3A",
"8  c #F38634",
"9  c #F28C34",
"0  c #ED943C",
"q  c #EC9933",
"w  c #F29C32",
"e  c #F49B3C",
"r  c #F69636",
"t  c #EEA12D",
"y  c #F4A32F",
"u  c #FBAA26",
"i  c #FEBC21",
"p  c #FDB92B",
"a  c #EEA333",
"s  c #EFAA34",
"d  c #FAAD35",
"f  c #F5A43B",
"g  c #F4AA3A",
"h  c #F9AC3C",
"j  c #F5A834",
"k  c #FCB432",
"l  c #FABD33",
"z  c #F4B53C",
"x  c #FBB53B",
"c  c #F6BA3A",
"v  c #F9B93E",
"b  c #FEC928",
"n  c #FEC22B",
"m  c #FCC839",
"M  c #FFD531",
"N  c #FFDB3D",
"B  c #E88C4C",
"V  c #E88B46",
"C  c #E99548",
"Z  c #F49D44",
"A  c #F69743",
"S  c #E99956",
"D  c #F89954",
"F  c #EEAC4A",
"G  c #F4A444",
"H  c #F4AC44",
"J  c #F4A34B",
"K  c #F7AB4A",
"L  c #F5B645",
"P  c #F9B54C",
"I  c #F4BB4D",
"U  c #F8B948",
"Y  c #EEAD50",
"T  c #EEAC59",
"R  c #ECA555",
"E  c #F6AA55",
"W  c #F9AC54",
"Q  c #F8A65C",
"!  c #F7AE5E",
"~  c #F6A557",
"^  c #F4B554",
"/  c #F9B554",
"(  c #F9B55C",
")  c #F9BB5B",
"_  c #F6BB55",
"`  c #E7B142",
"'  c #EB9F6B",
"]  c #EFAD64",
"[  c #EDA96B",
"{  c #EBA463",
"}  c #F2AE69",
"|  c #F4AD66",
" . c #EFB26E",
".. c #F9B362",
"X. c #F3BB62",
"o. c #FABD64",
"O. c #F9B46B",
"+. c #F5BB6A",
"@. c #FABB6B",
"#. c #F3B76B",
"$. c #EEAB72",
"%. c #F5BE77",
"&. c #FABC75",
"*. c #F9BA7A",
"=. c #F7B579",
"-. c #EEB673",
";. c #FBC343",
":. c #F6C34C",
">. c #FBC44B",
",. c #FBC94D",
"<. c #FBCA46",
"1. c #FED548",
"2. c #F5C254",
"3. c #FAC555",
"4. c #FBCD54",
"5. c #F6C75B",
"6. c #FAC35B",
"7. c #F6CA5C",
"8. c #FBCE5E",
"9. c #FCD255",
"0. c #FEDC53",
"q. c #FDD55D",
"w. c #FFDC5C",
"e. c #FEE15D",
"r. c #F6C165",
"t. c #FBCB63",
"y. c #F6C16B",
"u. c #FAC26C",
"i. c #FBCD6A",
"p. c #F8CA64",
"a. c #FBD464",
"s. c #FDDC64",
"d. c #FCD66B",
"f. c #FEDB6C",
"g. c #FBCC74",
"h. c #FBC37C",
"j. c #F5CC7C",
"k. c #FBCB7B",
"l. c #F8C673",
"z. c #FCD373",
"x. c #FDDB73",
"c. c #FCD27B",
"v. c #FCDB7C",
"b. c #F7DF72",
"n. c #EEC571",
"m. c #FDE263",
"M. c #FFE56B",
"N. c #FEE96C",
"B. c #FEE472",
"V. c #FCEA73",
"C. c #FDEC7A",
"Z. c #FDE07E",
"A. c #FEF17F",
"S. c #F6BF80",
"D. c #F9C382",
"F. c #FBCD82",
"G. c #F4CE8F",
"H. c #FBCB8C",
"J. c #F3C885",
"K. c #FBD383",
"L. c #FCDD84",
"P. c #FAD28B",
"I. c #FBDC8C",
"U. c #F7DD89",
"Y. c #FACD9C",
"T. c #F8CC94",
"R. c #FBD294",
"E. c #FCDC93",
"W. c #FCD29B",
"Q. c #F5D99E",
"!. c #FDDB9D",
"~. c #F2D193",
"^. c #FEE385",
"/. c #FDEE82",
"(. c #FDE28C",
"). c #FEEB8D",
"_. c #F6E985",
"`. c #FEF287",
"'. c #FDF28D",
"]. c #FDE494",
"[. c #FDE993",
"{. c #FDE59A",
"}. c #FEEA9C",
"|. c #F7E797",
" X c #FDF593",
".X c #FDF29D",
"XX c #FDFB9C",
"oX c #F7F29A",
"OX c #FDD5A2",
"+X c #FCDBA4",
"@X c #FBD5AA",
"#X c #FCDCAD",
"$X c #FCDBB8",
"%X c #F5C2BA",
"&X c #FDE3A3",
"*X c #FDEBA4",
"=X c #FCE4AD",
"-X c #FCECAB",
";X c #F7E7A8",
":X c #FDFDA3",
">X c #FDF4AC",
",X c #FEFEAB",
"<X c #FDF6A6",
"1X c #FDE2B4",
"2X c #FCEDB3",
"3X c #FDE4BC",
"4X c #FDEBBA",
"5X c #F7E9B7",
"6X c #FEF3B4",
"7X c #FEFDB3",
"8X c #FDF3BC",
"9X c #FEFDBA",
"0X c #FCDEC8",
"qX c #FDE3C3",
"wX c #FCECC3",
"eX c #FDECCC",
"rX c #FCE7CF",
"tX c #FDF4C3",
"yX c #FEFCC4",
"uX c #FDF5CC",
"iX c #FFFDCC",
"pX c #FEECD1",
"aX c #FDF4D4",
"sX c #FFFDD3",
"dX c #FDF4DB",
"fX c #FEFCDC",
"gX c #FEF5E3",
"hX c #FEFCE3",
"jX c #FFFCEB",
"kX c #FEF6EF",
"lX c #FEFDF3",
"zX c #FEF5F0",
"xX c #FDE7E1",
"cX c None",
/* pixels */
"cXcXcXcXcXcXcXcXcXcXcXcXcXcXcXcXcXcXcXcXcXcXcXcXcXcXcXcXcXcXcXcXcXcXcXcXcXcXcXcXcXcXcXcXcXcXcXcX",
"cXcXcXcXcXcXcXcXcXcXcXcXcXcXcXcXcXcXcXiXcXcXcXcXcXcXcXcXcXcXcXcXcXcXcXcXcXcXcXcXcXcXcXcXcXcXcXcX",
"cXcXcXcXcXcXcXcXcXcXcXcXcXcXcXcXcXcXcXiXtXcXcXcXcXcXcXcXcXcXcXcXcXcXcXcXcXcXcXcXcXcXcXcXcXcXcXcX",
"cXcXcXcXcXcXcXcXcXcXcXcXcXcXcXcXcXcXcXhXfXcXcXcXcXcXcXcXcXcXcXcXcXcXcXcXcXcXcXcXcXcXcXcXcXcXcXcX",
"cXcXcXcXcXcXcXcXcXcXcXcXcXcXcXcXcXcX1XhXfXcXcXcXcXcXcXcXcXcXcXcXcXcXcXcXcXcXcXcXcXcXcXcXcXcXcXcX",
"cXcXcXcXcXcXcXcXcXcXcXcXcXcXcXcXcXcXiXhXjXcXcXcXcXcXcXcXcXcXcXcXcXcXcXcXcXcXcXcXcXcXcXcXcXcXcXcX",
"cXcXcXcXcXcXcXcXcXcXcXcXcXcXcXcXcXcXiXhXfXcXcXcXcXcXcXcXcXcXcXcX%XcXcXcXcXcXcXcXcXcXcXcXcXcXcXcX",
"cXcXcXcXcXcXcXcXcXcXcXcXcXcXcXcXcX.XsXhXiXcXcXcXcXcXcXcXcXcXcXcXxXcXcXcXcXcXcXcXcXcXcXcXcXcXcXcX",
"cXcXcXcXcXcXcXcXcXcXcXcXcXcXE.>Xv.yXiXiX7XcXcXcXcXcXcXcXcXcXcXcXzX0XcXcXcXcXcXcXcXcXcXcXcXcXcXcX",
"cXcXcXcXcXcXcXcXcXcXcXcXcXL.9X:XyXfXyXXX.XcXcXcXcXcXcXcXT.rXY.qXzXgXcXcXcXcXcXcXcXcXcXcXcXcXcXcX",
"cXcXcXcXcXcXcXcXcXcXcXcXcX,X7X,XhXfX7X,X[.cXcXcXP.3X) cX3XrXrXpXlXpXcXcXcXcXcXcXcXcXcXcXcXcXcXcX",
"cXcXcXcXcXcXcXcXcXcXcXcXc 9X,X9XlXiX,X7X^.cXcXcX=XwXaXP.eXdXdXdXlX+XcXcXcXcXcXcXcXcXcXcXcXcXcXcX",
"cXcXcXcXcXcXcXcXcXcXcXcXd.9XXXiXlXhX7X:X-X:.cXcX=XeXaXwX!.gXgXgXwXcXcXcXcXcXcXcXcXcXcXcXcXcXcXcX",
"cXcXcXcXcXcXcXcXcXcXcXcX[.yX:XfXlXhXiX:X7Xp.cXcX4XpXaXeXv.jXgXzXI.cXcXcXcXcXcXcXcXcXcXcXcXcXcXcX",
"cXcXcXcXcXcXcXcXcXcXcXcX>XiX9XhXlXfXsX:X,Xv.cX7.wXaXaXeX=XjXgXlXL.cXcXcXcXcXcXcXcXcXcXcXcXcXcXcX",
"cXcXcXcXcXcXcXcXcXcXcXcXiXiXsXjXjXfXiXXXXX>Xa.a.aXdXdXuXdXjXgXlXwXcXcXcXcXcXcXcXcXcXcXcXcXcXcXcX",
"cXcXcXcXcXcXcXcXcXcXcXM.iXsXfXjXjXfX7X'.'. X*Xv.aXaXfXaXhXjXhXjXlXU.cXcXcXcXcXcXcXcXcXcXcXcXcXcX",
"cXcXcXcXcXcXcXcXcXcXcX`.sXsXsXjXlXhX<X/./.`.XX>XuXaX5XdXgXkXgXgXjXdXcXcXcXcXcXcXcXcXcXcXcXcXcXcX",
"cXcXcXcXcXcXcXcXcXcXM.`.aXtX6XjXjXjXoXV.V.C.A.>XtXuXuXhXhXjXhXgXkXhXB.cXcXcXcXcXcXcXcXcXcXcXcXcX",
"cXcXcXcXcXcXcXcXcXcXV.C.iXyX>XsXjXfX*Xm.m.m.N.`.8XtXaXfXaXgXgXhXlXlX|.cXcXcXcXcXcXcXcXcXcXcXcXcX",
"cXcXcXcXcXcXcXcXcXcXN./.tXiX>X9XiXtXtXs.1.1.0.w.>X9XtXaXhXfXgXhXlXlXdXcXcXcXcXcXcXcXcXcXcXcXcXcX",
"cXcXcXcXcXcXcXcXm.cXN./.6XtX6X6X'.8XtX*X:.,.9.4.>X8XtXtX5XfXdXhXjXlXfXoXcXcXcXcXcXcXcXcXcXcXcXcX",
"cXcXcXcXcXcXcXcXm.m.N.C..X8X8X>XB.L.3X3X/ r A ! H.+X@X+Xh R.5XrXdXlXlXjX<XcXcXcXcXcXcXcXcXcXcXcX",
"cXcXcXcXcXcXcXe.e.e.m.B.[.tX!.k.U r.qXqX=.D Q *.S.$X+X@Xg.j.;XwXrX3XrXkXjXoXcXcXcXcXcXcXcXcXcXcX",
"cXcXcXcXcXcXcXe.w.e.e.9.+X3XE.K.k.*.0X$XD ~ *.*.H.$X#XY.W.( F.+XeX1XK.3XdXwX_.cXcXcXcXcXcXcXcXcX",
"cXcXcXcXcXcXcXe.M.s.x R.wXqX&.W h.OX$XQ A | =.O.&.H.h./ / ( k.1XeXK.g.g.wXdXh.d cXcXcXcXcXcXcXcX",
"cXcXcXcXcXcXcXe.x.t.W.qX1X#XOXW &.qXO.< < ..r r Q *.J 4 d L h.3X!.u.i.t.i.3XdXh.$ cXcXcXcXcXcXcX",
"cXcXcXcXcXcXcX3.z.!.$X#X#XK.O.G &.W.< < < A 6 7 Q ~ W w y d g.!.t.4.8.t.r.6.1XpXh.% cXcXcXcXcXcX",
"cXcXcXcXcXcX# 4 E.&Xo.u.I.U H f o.f 2 2 2 9 g z L w G a y z P.2.:.>.2.3.) ) o.OXrXO.  cXcXcXcXcX",
"cXcXcXcXcXcX$ G H.H.G / c.p L y 3 w w r 1 F _ 2.j.2.s t y L i.c z L _ ) ) ) ( K H.$XA   cXcXcXcX",
"cXcXcXcXcX# L e *.J.3 w 6.l f t F F 3 T L.2XfXlXlXlXjXtXv.I a g L +.G P G K ..~ D @X| 8   cXcXcX",
"cXcXcXcX# = H 0 Y.J 1 1 x U 1 q J %.X.[.hXjXjXlXjXjXjXhXhX9X7.q Z @XQ D e e ! ! W OX&.Z % cXcXcX",
"cXcXcXcX# x > 0 C 8 6 9 I I 5 7  .-.[.fXfXhXfXQ.n.J.5XhXfXsXyXL h.~.G Z f f W h.@.@.( ! = cXcXcX",
"cXcXcXcX$ v + 7 S 6 + A r.^ 5 S [ [ 8XhXfXhXn.cXcXcXcXtXsXsXiX(.P.r.f F ( j / K.l.k.P h.= # cXcX",
"cXcXcXcX$ G O B O S O B n.] X { { -.tXfXsXfXQ.cXcXcX` uXsXiXyX(.z.I H r.u.k P c.F.k.u.F.d $ cXcX",
"cXcXcXcX$ + O ' B B X S J.-.X S R C &XhXfXsXfXtX;X5XfXsXiXsX>Xj.d.2.U U.c.U U g.K.k.k.g.x $ cXcX",
"cXcXcXcX& o . X $.$.[ ] H.J.R R F C S ;XjXjXhXsXsXsXsXfXsX6Xj.:.q.4.4.&Xv.t.i.d.g.c.6.x u $ cXcX",
"cXcXcXcX& > O O B  .[ ] h.Q.@.I :.F F Y J.3XdXjXsXdXhX4XQ.j.p.7.9.9.q.].v.a.d.z.z.,.k x & cXcXcX",
"cXcXcXcXcX= 4.6 7 ] #.#.X.R.P._ <.:.:.2.7.7.g.j.~.G.~.~.|.U.v.z.a.q.s.^.Z.d.z.z.4.k l d & cXcXcX",
"cXcXcXcXcX* k 1.q 0 #.+.r.+Xg.4.9.9.7.7.p.j.v.U.].;X;X5X;X{.U.v.x.f.f.x.B.x.x.,.m m ;.; cXcXcXcX",
"cXcXcXcXcXcX; ,.0.v G y._ i.8.8.4.q.q.d.z.v.L.E.{.;X5X8X2X*X{.(.^.x.x.x.x.x.4.<.m ,.: * cXcXcXcX",
"cXcXcXcXcXcXcX; 4.w.<.g.p.3.a.a.q.8.a.z.v.L.].&X*X6X8XtXtX6X*X].(.^.Z.Z.^.d.9.9.d.p ; cXcXcXcXcX",
"cXcXcXcXcXcXcXcX; <.s.^.z.8.d.d.d.d.f.v.L.(.{.*X2X4XtXuXuX8X2X*X].^.^.(.v.s.x.f.p ; cXcXcXcXcXcX",
"cXcXcXcXcXcXcXcXcX: p f.}.^.v.v.x.x.x.L.I.{.&X-X4X8XuXuXuXtX6X-X}.].(.^.^.^.4.: cXcXcXcXcXcXcXcX",
"cXcXcXcXcXcXcXcXcXcXcXi m B.*X[.}.}.[.{.{.{.-X2X8XuXuXaXsXuX8X-X*X*X*X].a.n i cXcXcXcXcXcXcXcXcX",
"cXcXcXcXcXcXcXcXcXcXcXcXcXb M s.^.-X4X8XeXaXuXaXuXuXaXsXdXiXtX8X6X^.1.b cXcXcXcXcXcXcXcXcXcXcXcX",
"cXcXcXcXcXcXcXcXcXcXcXcXcXcXcXcXM M 0.B.).*X8XyXuXuXtX8X*X).e.1.M cXcXcXcXcXcXcXcXcXcXcXcXcXcXcX",
"cXcXcXcXcXcXcXcXcXcXcXcXcXcXcXcXcXcXcXcXcXN N 1.N N N N cXcXcXcXcXcXcXcXcXcXcXcXcXcXcXcXcXcXcXcX"
};
