/* XPM */
static const char *burn_disk_24x24_xpm[] = {
/* columns rows colors chars-per-pixel */
"24 24 163 2 ",
"   c #E27D3B",
".  c #FB8600",
"X  c #F98208",
"o  c #FC980B",
"O  c #FC9512",
"+  c #FC9911",
"@  c #FC9E1F",
"#  c #FDA21E",
"$  c #FDA81A",
"%  c #F78922",
"&  c #F2942F",
"*  c #FB9B2C",
"=  c #E98430",
"-  c #F08C38",
";  c #EC953E",
":  c #F09532",
">  c #F4933D",
",  c #F19C39",
"<  c #FDB423",
"1  c #F7BB2E",
"2  c #EEA638",
"3  c #F0A235",
"4  c #F7AB39",
"5  c #F8AD3E",
"6  c #F6B13D",
"7  c #FCB938",
"8  c #FFD531",
"9  c #E89041",
"0  c #E7904C",
"q  c #EC9849",
"w  c #F39A4B",
"e  c #E89154",
"r  c #EC9F5B",
"t  c #F69F53",
"y  c #F7A646",
"u  c #F3AB43",
"i  c #F7A648",
"p  c #F3B74D",
"a  c #F9BD4D",
"s  c #F2A651",
"d  c #F8A350",
"f  c #F5AD53",
"g  c #F8A75D",
"h  c #FBB653",
"j  c #F6BD57",
"k  c #F5B758",
"l  c #FABE5C",
"z  c #E89E63",
"x  c #EBA167",
"c  c #EFAB6A",
"v  c #F6AD61",
"b  c #F8AF62",
"n  c #F9AC6B",
"m  c #EFB464",
"M  c #EBBE62",
"N  c #F3B563",
"B  c #F3BC66",
"V  c #F8BC67",
"C  c #F5B46C",
"Z  c #F3BA6E",
"A  c #EFB37D",
"S  c #FAB474",
"D  c #FABE72",
"F  c #FABC7A",
"G  c #FAC645",
"H  c #FECB41",
"J  c #F7C048",
"K  c #FCC249",
"L  c #FDCC49",
"P  c #F9C456",
"I  c #F7CB57",
"U  c #FCCB54",
"Y  c #F9C25A",
"T  c #FDCB5C",
"R  c #FCD356",
"E  c #FDD15B",
"W  c #FFDE5C",
"Q  c #FFE45F",
"!  c #F6CD67",
"~  c #FACB67",
"^  c #F7C56B",
"/  c #FBC769",
"(  c #F6CB6C",
")  c #FCD262",
"_  c #FDD866",
"`  c #FCD36B",
"'  c #FEDB6F",
"]  c #F4C376",
"[  c #FBC172",
"{  c #FCCE71",
"}  c #F6C57C",
"|  c #FAC67C",
" . c #F7C87D",
".. c #FCD276",
"X. c #FDDC74",
"o. c #FDD479",
"O. c #FCDC7B",
"+. c #FFE063",
"@. c #FDE76E",
"#. c #FCE96F",
"$. c #FFE472",
"%. c #FDE974",
"&. c #FFE17E",
"*. c #FAC984",
"=. c #F7CC89",
"-. c #FDD285",
";. c #FDDE83",
":. c #F7D788",
">. c #FDD28E",
",. c #FBDC8F",
"<. c #FAC790",
"1. c #F9CD92",
"2. c #F8C39E",
"3. c #FCCE99",
"4. c #FDD795",
"5. c #FCD69E",
"6. c #F5DB9C",
"7. c #FDDC9D",
"8. c #FDE486",
"9. c #FDEE87",
"0. c #FDE38D",
"q. c #FCF28E",
"w. c #FDE494",
"e. c #FEED95",
"r. c #FBE39C",
"t. c #FEEC9B",
"y. c #F9CBA2",
"u. c #FCD6A3",
"i. c #FBDCA5",
"p. c #FCD9B2",
"a. c #FCD9BA",
"s. c #F6E1A6",
"d. c #FDEAA3",
"f. c #FCE2AC",
"g. c #FDECAC",
"h. c #FCF3A2",
"j. c #FDF7AC",
"k. c #F6E5B4",
"l. c #FDE1B1",
"z. c #FDECB1",
"x. c #FEE4BC",
"c. c #FBEDBB",
"v. c #FDF4B4",
"b. c #FEFFB4",
"n. c #FDF3BB",
"m. c #FEFEBE",
"M. c #FADDD6",
"N. c #FDECC4",
"B. c #FDEBCA",
"V. c #FDF5C3",
"C. c #FEFCC2",
"Z. c #FDF4CB",
"A. c #FFFBCB",
"S. c #FDEED3",
"D. c #FDF4D3",
"F. c #FFFCD4",
"G. c #FDF4DB",
"H. c #FEFCDC",
"J. c #FEFBE4",
"K. c #FEF7EA",
"L. c #FEFBEB",
"P. c #FEFCF3",
"I. c None",
/* pixels */
"I.I.I.I.I.I.I.I.I.I.I.I.I.I.I.I.I.I.I.I.I.I.I.I.",
"I.I.I.I.I.I.I.I.I.Z.Z.I.I.I.I.I.I.I.I.I.I.I.I.I.",
"I.I.I.I.I.I.I.I.I.D.Z.I.I.I.I.I.I.I.I.I.I.I.I.I.",
"I.I.I.I.I.I.I.I.I.J.Z.I.I.I.I.I.M.I.I.I.I.I.I.I.",
"I.I.I.I.I.I.I.v.A.m.g.I.I.I.y.2.P.I.I.I.I.I.I.I.",
"I.I.I.I.I.I.8.b.L.b.e.I.i.i.S.G.K.I.I.I.I.I.I.I.",
"I.I.I.I.I.I.d.m.L.m.t.1 N.S.N.K.s.I.I.I.I.I.I.I.",
"I.I.I.I.I.I.C.H.L.C.j.) D.G.J.K.r.I.I.I.I.I.I.I.",
"I.I.I.I.I.I.F.J.L.h.q.d.D.G.J.L.G.I.I.I.I.I.I.I.",
"I.I.I.I.I.#.F.Z.L.e.@.9.V.H.J.J.P.I.I.I.I.I.I.I.",
"I.I.I.I.I.%.V.m.C.n.G L d.N.B.L.P.V.I.I.I.I.I.I.",
"I.I.I.I.Q @.g.f...x.S n u.l.:.x.G.K.n.I.I.I.I.I.",
"I.I.I.I.+.T x.4.>.a.g F 3.1.D u.N.7.S.h I.I.I.I.",
"I.I.I.I.o.x.l.[ 3.t w > C i 4 5.o.~ 4.N.* I.I.I.",
"I.I.I.@ 7.V ..5 f & - w v , u ( a Y l | p.% I.I.",
"I.I.. K 1.: a , N Z g.H.P.F.r.3 } f i b <.d X I.",
"I.I.@ 6 r = j 9 A z.J.k.^ 6.F.0.1.s y [ *.[ O I.",
"I.I.@ q e 0 ] r z D.H.s.k.k.F.d.^ ( Y ( -.>.# I.",
"I.I.#   x c =.B p m S.K.L.H.k.( R ;...! { U + I.",
"I.I.o a ; C  ...U I ! :.6.k.r.O._ X.X.` G 7 I.I.",
"I.I.I.$ P k ( ) E _ O.w.d.n.n.r.8.O.O.R T $ I.I.",
"I.I.I.I.< T o.X.' O.,.d.c.V.V.g.w.8.8.) < I.I.I.",
"I.I.I.I.I.I.L ' w.d.d.n.Z.D.F.n.g.&.H I.I.I.I.I.",
"I.I.I.I.I.I.I.I.8 W $.t.t.t.$.+.8 I.I.I.I.I.I.I."
};
