/* XPM */
static const char *burn_disk_32x32_xpm[] = {
/* columns rows colors chars-per-pixel */
"32 32 207 2 ",
"   c #F77F11",
".  c #E67C2E",
"X  c #E07837",
"o  c #FB8601",
"O  c #FB8C04",
"+  c #F7830D",
"@  c #FB8D08",
"#  c #FC9A0C",
"$  c #FC9408",
"%  c #FB9D1A",
"&  c #FBA41D",
"*  c #FDAD18",
"=  c #FDA412",
"-  c #FEB81F",
";  c #EC882D",
":  c #F28D2E",
">  c #F2962F",
",  c #F09A2E",
"<  c #E78230",
"1  c #EB8E34",
"2  c #E3803E",
"3  c #F18730",
"4  c #F78F31",
"5  c #F38C3C",
"6  c #EE9B38",
"7  c #F49931",
"8  c #F99F32",
"9  c #F2903E",
"0  c #F29B3E",
"q  c #FDAD22",
"w  c #F3A52F",
"e  c #FCA320",
"r  c #FEBB20",
"t  c #FDB828",
"y  c #F0A032",
"u  c #F5A43C",
"i  c #F6AB33",
"p  c #F9B43A",
"a  c #FCBC3B",
"s  c #FAB634",
"d  c #FEC727",
"f  c #FECA29",
"g  c #FAC23B",
"h  c #FFD734",
"j  c #FFD837",
"k  c #FFD13D",
"l  c #E48749",
"z  c #EA8F4C",
"x  c #EE9547",
"c  c #EB984C",
"v  c #F79E46",
"b  c #F8974C",
"n  c #F49B4F",
"m  c #E89A5B",
"M  c #E79454",
"N  c #F19F56",
"B  c #ECA04E",
"V  c #F4A242",
"C  c #F5AE43",
"Z  c #F2A34B",
"A  c #F2AB4A",
"S  c #F4B245",
"D  c #FAB342",
"F  c #F6BD44",
"G  c #FBB94A",
"H  c #E9A259",
"J  c #F5A654",
"K  c #F4AD51",
"L  c #F9AB50",
"P  c #F7AD5D",
"I  c #F8A85C",
"U  c #F4A35B",
"Y  c #F7B651",
"T  c #F6BC54",
"R  c #F9BF55",
"E  c #F7B25E",
"W  c #F9BD5C",
"Q  c #FBB252",
"!  c #EA9C66",
"~  c #EFAA67",
"^  c #EEAA69",
"/  c #F5AC60",
"(  c #F8AF64",
")  c #F0AE68",
"_  c #F8AD6B",
"`  c #F4B660",
"'  c #F9B364",
"]  c #F5BA63",
"[  c #F5BC6A",
"{  c #F7B96A",
"}  c #EDAA71",
"|  c #F9BC7A",
" . c #FACC4C",
".. c #FBC548",
"X. c #FBCC52",
"o. c #F9C75E",
"O. c #FACC5D",
"+. c #F8C755",
"@. c #FCD255",
"#. c #FEDB54",
"$. c #FCD25B",
"%. c #FADA5A",
"&. c #FEE25C",
"*. c #F7C166",
"=. c #FAC661",
"-. c #FDCD64",
";. c #F9C36A",
":. c #FBCB6B",
">. c #FCD464",
",. c #FDDD62",
"<. c #FBD46B",
"1. c #FDDA6E",
"2. c #F7C271",
"3. c #FBC675",
"4. c #FBC47A",
"5. c #FBCC7D",
"6. c #F4C777",
"7. c #FBD375",
"8. c #FDDB74",
"9. c #F8D07D",
"0. c #F6D87D",
"q. c #FCDD7B",
"w. c #FFE46D",
"e. c #FDE463",
"r. c #FFE276",
"t. c #FDEA73",
"y. c #FFE379",
"u. c #F6C683",
"i. c #FBC383",
"p. c #F4CB82",
"a. c #FCCF82",
"s. c #FACA8E",
"d. c #FAC78B",
"f. c #FDD285",
"g. c #FCDB84",
"h. c #FAD489",
"j. c #FBDD8A",
"k. c #F5D084",
"l. c #FCCC92",
"z. c #FBCA9C",
"x. c #FAC290",
"c. c #F3D797",
"v. c #FBD395",
"b. c #FCDC93",
"n. c #FCD39C",
"m. c #F5DD9A",
"M. c #FCDC9C",
"N. c #F4DB97",
"B. c #FEE185",
"V. c #FDEC87",
"C. c #FDE28B",
"Z. c #FDF187",
"A. c #FCF28A",
"S. c #FCE394",
"D. c #FBE39A",
"F. c #F7EF99",
"G. c #FDEA9A",
"H. c #FCE893",
"J. c #FDF39B",
"K. c #F6F195",
"L. c #F4CCAB",
"P. c #FBD7AC",
"I. c #FDDDAA",
"U. c #FCDAA3",
"Y. c #F9C9B0",
"T. c #F7DCB2",
"R. c #FDDBB3",
"E. c #FDDEBC",
"W. c #FDEAA2",
"Q. c #F6E1AF",
"!. c #FCE4AB",
"~. c #FCEBAB",
"^. c #FDE6A2",
"/. c #FDF1A3",
"(. c #FDF6A9",
"). c #FEFFAD",
"_. c #FDFBA6",
"`. c #F7E4B5",
"'. c #FCE4B5",
"]. c #FBEDB4",
"[. c #F7E7BB",
"{. c #FDE5BC",
"}. c #FCEDBC",
"|. c #FDF3B4",
" X c #FEFDB5",
".X c #FDF3BC",
"XX c #FFFBBB",
"oX c #FBDFC1",
"OX c #FEE7C4",
"+X c #FDEBC2",
"@X c #FDECCC",
"#X c #FEF5C3",
"$X c #FEFCC4",
"%X c #FDF4CA",
"&X c #FFFDCC",
"*X c #FDEDD3",
"=X c #FDE8DF",
"-X c #FDF6D4",
";X c #FEFCD4",
":X c #FDF4DA",
">X c #FFFDDC",
",X c #FEF4E1",
"<X c #FEFBE5",
"1X c #FEF7E8",
"2X c #FEFCEC",
"3X c #FFFDF2",
"4X c None",
/* pixels */
"4X4X4X4X4X4X4X4X4X4X4X4X4X4X4X4X4X4X4X4X4X4X4X4X4X4X4X4X4X4X4X4X",
"4X4X4X4X4X4X4X4X4X4X4X4X&X4X4X4X4X4X4X4X4X4X4X4X4X4X4X4X4X4X4X4X",
"4X4X4X4X4X4X4X4X4X4X4X4X<X'.4X4X4X4X4X4X4X4X4X4X4X4X4X4X4X4X4X4X",
"4X4X4X4X4X4X4X4X4X4X4X'.2X+X4X4X4X4X4X4X4X4X4X4X4X4X4X4X4X4X4X4X",
"4X4X4X4X4X4X4X4X4X4X4X$X<X].4X4X4X4X4X4X4X4X4X4X4X4X4X4X4X4X4X4X",
"4X4X4X4X4X4X4X4X4XW.H.;X&X4X4X4X4X4X4X4XY.=X4X4X4X4X4X4X4X4X4X4X",
"4X4X4X4X4X4X4X4X(.).;X$X X4X4X4X| 4XP.oX*X3X4X4X4X4X4X4X4X4X4X4X",
"4X4X4X4X4X4X4X4XXX X3XXXXX4X4XU.+Xb.*X:X,X*X4X4X4X4X4X4X4X4X4X4X",
"4X4X4X4X4X4X4Xq. X$X3X$X X7.4X!.-X@X!.1X2X4X4X4X4X4X4X4X4X4X4X4X",
"4X4X4X4X4X4X4X/.$X>X3X;X_.G.4X!.:X%X+X1X3X4X4X4X4X4X4X4X4X4X4X4X",
"4X4X4X4X4X4X4X|.;X2X3X&XJ._.q.}.:X-X1X1X3Xb.4X4X4X4X4X4X4X4X4X4X",
"4X4X4X4X4X4X%.XX;X<X2X XV.A.J.%X-X:X1X<X1X1X4X4X4X4X4X4X4X4X4X4X",
"4X4X4X4X4X4Xt.XXXX>X2X|.t.t.A..X-X:X1X<X3X3X4X4X4X4X4X4X4X4X4X4X",
"4X4X4X4X4X4Xt..X#X#X;X#X,.#.#.J.#X-X>X<X2X3X|.4X4X4X4X4X4X4X4X4X",
"4X4X4X4X4Xe.t./.#X|.G.}.b.i D 3.I.!.c.OX:X3X>XF.4X4X4X4X4X4X4X4X",
"4X4X4X4X&.&.t.V.+Xf.G !.R.b _ l.{.I.7.!.@XOX,X,XF.4X4X4X4X4X4X4X",
"4X4X4X4X&.,...l.OX5.4.oXx.U | u.P.z.i.3.'.{.D.=XI.% 4X4X4X4X4X4X",
"4X4X4X4X>.-.n.{.R.( d.z.4 I v _ i.8 D ;.'.f.:.j.@X4.o 4X4X4X4X4X",
"4X4X4X4XQ M.U.I.3.L s.v : 5 3 n P u i *.h.X.O.=.5.@X4.o 4X4X4X4X",
"4X4X4X+ E M.C f.a u u > : x J B u , w 5.F G R W W ] E.I   4X4X4X",
"4X4Xo 8 J s., Y p y ] A [ #X>X3X3X%Xg.S i p.A A L P ( z.5 o 4X4X",
"4X4X@ 0 U v < S u 1 ^ h.;X<X:X`.Q.<X>X|.A z.Z 0 V { ' d.J o 4X4X",
"4Xo % 1 z z X ] c m m ].>X>Xp.4X4Xc.;X$Xj.2.u [ u f.3.4.4.O 4X4X",
"4X@ & . ! M 2 6.m H M L.3X>X.Xm.N.&X;X$Xg.o.T c.D :.f.5.3.@ 4X4X",
"4X4X% X l } ~ u.p.K A c Q.2X2X>X>X>X#Xp.O.@.1.b.>.:.7.o.p $ 4X4X",
"4X4X# G < ) { [ U.=. .+.+.6.N.`.[.`.m.0.<.$.1.B.<.8.O.a i $ 4X4X",
"4X4X# q X.6 ] [ M.O.@.$.>.0.g.D.~.].~.S.B.1.8.r.8.X.g g & 4X4X4X",
"4X4X4X= a $.T :.O.>.$.>.8.j.S.W.].#X.X~.H.B.q.q.<. .X.q 4X4X4X4X",
"4X4X4X4X* t q.q.<.1.1.8.g.b.^.]..X#X%X].W.S.C.q.8.>.r 4X4X4X4X4X",
"4X4X4X4X4X4X- $.C.S.B.C.C.D.~.}.%X-X-X.X~.G.W.y...r 4X4X4X4X4X4X",
"4X4X4X4X4X4X4X4Xf #.y.W.#X%X-X-X:X-X;X#XG.y.k d 4X4X4X4X4X4X4X4X",
"4X4X4X4X4X4X4X4X4X4X4Xj j #.w.t.w.w.&.j h 4X4X4X4X4X4X4X4X4X4X4X"
};
