/* XPM */
static const char *calendar_16x16_xpm[] = {
/* columns rows colors chars-per-pixel */
"16 16 32 1 ",
"  c #BD5C27",
". c #C87E37",
"X c #C87F37",
"o c #D68E48",
"O c #65788E",
"+ c #66798F",
"@ c #677A90",
"# c #697C92",
"$ c #6F8298",
"% c #788BA0",
"& c #8093A9",
"* c #91A4B9",
"= c #F9B6AC",
"- c #A1B5C9",
"; c #A9BDD1",
": c #C6C6C6",
"> c #D8D8D8",
", c gainsboro",
"< c #D7E5F3",
"1 c #D9E7F5",
"2 c gray88",
"3 c gray90",
"4 c #E6E6E6",
"5 c #ECECEC",
"6 c #FEEDEA",
"7 c gray94",
"8 c #F6F6F6",
"9 c #F8F8F8",
"0 c #FBFBFB",
"q c #FEFEFE",
"w c white",
"e c None",
/* pixels */
"eeeeeeeeeeeeeeee",
"XXXXXXXXXXXXXXXX",
".oooooooooooooo.",
"                ",
";wwwwwwwwwwwwww%",
";wwwwwwwwwwwwww#",
";ww1111111111ww+",
";ww1ww1w1w1w1ww+",
";ww111===1111ww+",
";ww1ww=6=w1w1ww+",
";ww111===1111ww+",
";ww1ww1w1w1w1w8+",
"-ww111111111<5,+",
"*wwwwwwwwww92:4+",
"&wwwwwwwwq7,>30+",
"$@+++++++OO+++++"
};
