/* XPM */
static const char *calendar_48x48_xpm[] = {
/* columns rows colors chars-per-pixel */
"48 48 160 2 ",
"   c #CE6A36",
".  c #CF6C38",
"X  c #D06C37",
"o  c #D16E39",
"O  c #D5733D",
"+  c #B86C40",
"@  c #BF7243",
"#  c #AB765E",
"$  c #AE7960",
"%  c #B27D63",
"&  c #C47A4F",
"*  c #D67640",
"=  c #D87740",
"-  c #D47944",
";  c #DB7B44",
":  c #D57D48",
">  c #C57B51",
",  c #C87F55",
"<  c #B58366",
"1  c #B78168",
"2  c #BA856A",
"3  c #BB8B6B",
"4  c #DE8047",
"5  c #D6844C",
"6  c #DE8149",
"7  c #DF8D4F",
"8  c #C88C5F",
"9  c #DC8651",
"0  c #DC8B54",
"q  c #DE905A",
"w  c #E1854B",
"e  c #E3884E",
"r  c #E28C55",
"t  c #E19255",
"y  c #E1945B",
"u  c #E39A5F",
"i  c #C1916F",
"p  c #D69762",
"a  c #C08F70",
"s  c #C49473",
"d  c #E39360",
"f  c #E49D61",
"g  c #E59E68",
"h  c #DFA26A",
"j  c #E6A165",
"k  c #E7A86F",
"l  c #E9A96D",
"z  c #E7A568",
"x  c #E2A077",
"c  c #E8A771",
"v  c #E9AB71",
"b  c #E1A078",
"n  c #E6A974",
"m  c #EDB374",
"M  c #ECB57C",
"N  c #EEB87E",
"B  c #9F9699",
"V  c #B8978B",
"C  c #A89997",
"Z  c #97AABD",
"A  c #9BADBF",
"S  c #A4B0BD",
"D  c #B1B8BF",
"F  c #C18287",
"G  c #C69880",
"H  c #D19799",
"J  c #E1AC8B",
"K  c #EEBB84",
"L  c #EEBE89",
"P  c #E1B295",
"I  c #D69EA1",
"U  c #D6A3A6",
"Y  c #DFB9A2",
"T  c #C1BBBC",
"R  c #DBB1B3",
"E  c #E0B9A2",
"W  c #EFC089",
"Q  c #F0C18C",
"!  c #EFC590",
"~  c #F1CE99",
"^  c #DFCABF",
"/  c #DFC4B5",
"(  c #F4D6A1",
")  c #F9E7B3",
"_  c #FAEEBB",
"`  c #A3B3C3",
"'  c #ABB6C2",
"]  c #AEBDCD",
"[  c #B1BBC4",
"{  c #B2BFCC",
"}  c #A9BDD1",
"|  c #DFBFC5",
" . c #E0BFC2",
".. c #BCC3CC",
"X. c #BCC2C7",
"o. c #AFC2D6",
"O. c #B3C4D4",
"+. c #BAC4D1",
"@. c #BCC9D5",
"#. c #B6C8DA",
"$. c #BBCADA",
"%. c #B4C6D8",
"&. c #BECFE1",
"*. c #CEC3CB",
"=. c #C1C8CF",
"-. c #CBCBCB",
";. c #DFCBC0",
":. c #D6C7CD",
">. c #DED0CB",
",. c #C2CAD3",
"<. c #C2CEDB",
"1. c #CBCED1",
"2. c #D6CCD2",
"3. c #DDCCD2",
"4. c #C7D0DB",
"5. c #CAD3DC",
"6. c gray83",
"7. c #DED7D6",
"8. c #DCD7DF",
"9. c #D2D8DE",
"0. c #DDDDDE",
"q. c #E8C5C8",
"w. c #E7C8CC",
"e. c #E1CDD3",
"r. c #E7D0D5",
"t. c #E8D1D6",
"y. c #E1D4DA",
"u. c #FFFFCC",
"i. c #C5D5E4",
"p. c #C9D7E4",
"a. c #CDD9E6",
"s. c #C7D7E8",
"d. c #CDDBEA",
"f. c #D4DCE5",
"g. c #DEDFE0",
"h. c #D2DEEA",
"j. c #E9DEE4",
"k. c #DEE2E7",
"l. c #D4E1ED",
"z. c #DCE4ED",
"x. c #D6E3F1",
"c. c #DBE6F2",
"v. c #DDE9F5",
"b. c #E2E3E3",
"n. c #E2E6ED",
"m. c #EFE5E9",
"M. c #E4E9EE",
"N. c #E9EAEC",
"B. c #F4E8EB",
"V. c #E2EBF5",
"C. c #EAEEF4",
"Z. c #E4EEF8",
"A. c #ECF0F5",
"S. c #E7F0F9",
"D. c #ECF3FA",
"F. c #F2F3F5",
"G. c #F1F6FB",
"H. c #F5F9FC",
"J. c #FCFDFE",
"K. c None",
/* pixels */
"K.K.K.K.K.K.K.K.K.K.K.K.K.K.K.K.K.K.K.K.K.K.K.K.K.K.K.K.K.K.K.K.K.K.K.K.K.K.K.K.K.K.K.K.K.K.K.K.",
"K.K.K.K.K.K.K.K.K.K.K.K.K.K.K.K.K.K.K.K.K.K.K.K.K.K.K.K.K.K.K.K.K.K.K.K.K.K.K.K.K.K.K.K.K.K.K.K.",
"K.K.K.K.K.K.K.K.K.K.K.K.K.K.K.K.K.K.K.K.K.K.K.K.K.K.K.K.K.K.K.K.K.K.K.K.K.K.K.K.K.K.K.K.K.K.K.K.",
"K.K.7 7 7 7 7 7 7 7 7 7 K.K.K.K.K.K.K.K.K.K.K.K.K.K.K.K.K.K.K.K.K.K.K.K.K.K.K.K.K.K.K.K.K.K.K.K.",
"& u j z l N K K M M k k j u t r 7 7 7 7 K.K.K.K.K.K.K.K.K.K.K.K.K.K.K.K.K.K.K.K.K.K.K.K.K.K.K.K.",
"+ X O 5 0 y u l m m m m M N K K K M M k z u u r 7 7 7 e K.K.K.K.K.K.K.K.K.K.K.K.K.K.K.K.K.K.K.K.",
"+   .       X     . - 7 0 u g l m m m m M N K W W M M c l u u 7 7 7 7 0 7 K.K.K.K.K.K.K.K.K.K.K.",
"+ X X O X X X X .       .         O : 0 q f z l m m m m N K K W W K N v k j u 7 7 7 5 K.K.K.K.K.",
"+ O O O O O o o o O o o o o o o X   X           o - 5 0 y f l m m m m M N K W M p p 3 K.K.K.K.K.",
"+ O O O * O 9 O O O O O o o o O X O X O X X X X   .             o - 9 0 u j h 8 s s 3 K.K.K.K.K.",
"@ O ; O ; = L K n q 9 O * O O * O O O O O O O O O . o . X X                 & 3 s s 3 K.K.K.K.K.",
"+ 4 4 w ; 0 ~ _ u.! L _ ~ ( M q ; O O O O O O O O O O O O o O o O o o O X X & 3 3 s 3 K.K.K.K.K.",
"+ 6 6 6 6 6 y c L g ~ ) ( K ) r ; ; ; ; ; O ; O O O ; O O O O O O O O O O O > 3 s s < K.K.K.K.K.",
"+ w e e w 6 6 6 w 6 w 6 ; e ( ; ; ; ; ; ; ; ; ; ; ; ; O ; O ; ; O O O O O O > < 3 s < K.K.K.K.K.",
"T >.P P b d e e w w w w w w w w 6 6 w 6 6 ; 6 4 6 6 ; ; ; ; ; ; ; ; = ; * ; > < 2 3 < K.K.K.K.K.",
"4.V.v.v.v.v.v.7.>.E P b d r w w w w w w w 6 w 6 6 6 4 6 6 6 6 ; 6 ; ; ; ; ; > % 1 3 % K.K.K.K.K.",
"<.v.V.V.V.c.c.V.v.v.v.v.v.v.7.;.P P x r e e 7 w w w w 6 w w w 6 6 6 6 ; w ; > % % 1 % K.K.K.K.K.",
"4.Z.Z.V.V.y. .V.v.s.d.v.v.v.v.v.v.v.v.v.v.>.^ Y J b r 7 w w w w w 7 w w w w > # % 1 # K.K.K.K.K.",
"p.S.Z.Z.Z.V.n.Z.Z.i.%.x.v.i.s.V.v.l.d.v.v.v.v.v.v.v.v.v.6.;.E J x e e e e r , % % V C K.K.K.K.K.",
"j.D.G.D.D.S.S.S.Z.V.v.Z.Z.c.a.V.S.s.o.s.v.d.$.v.v.v.x.v.v.v.v.v.v.c.z.6./ P G C ' #.Z K.K.K.K.K.",
"h.Z.V.Z.Z.Z.D.D.j.R ;.w.e.V.Z.Z.Z.Z.Z.c.Z.l.$.l.v.l.#.v.v.c.s.c.v.v.v.v.v.v.$.` { $.Z K.K.K.K.K.",
"h.M.n.n.c.v.M.V.y.*.n.V.3.2.A.G.D.D.D.D.S.Z.Z.Z.Z.v.c.Z.V.c.#.s.v.v.v.v.v.v.@.S { #.Z K.K.K.K.K.",
"4.M.M.M.M.n.V.n.3.:.c.V.y.:.V.V.S.l.V.D.D.S.D.D.D.D.Z.Z.Z.V.Z.V.Z.v.Z.v.V.v.@.S { $.' K.K.K.K.K.",
"4.G.D.D.M.3.n.M.f.F H I H :.M.V.c.z.M.V.A.z.z.D.D.c.Z.G.D.D.D.D.S.Z.Z.Z.v.Z.&.' <.s.@.K.K.K.K.K.",
"4.G.D.D.S.V.D.D.S.#.l.c.6...z.c.M.z.V.c.v.c.M.V.V.z.c.A.A.V.l.D.G.D.G.H.F.G.a.<.$.4.@.K.K.K.K.K.",
"4.G.G.G.D.V.Z.D.S.S.D.G.S.d.A.D.Z.$.O.M.V.f.f.V.n.V.M.V.V.c.V.C.S.C.D.D.D.G.4...$.4.+.K.K.K.K.K.",
"4.G.G.G.D.j.t.C.Z.d.x.V.Z.Z.S.D.S.v.l.D.D.d.#.S.v.<.d.V.V.v.V.M.V.v.V.V.C.S.4.O.&.4.Z K.K.K.K.K.",
"4.G.G.H.D.C.m.F.D.i.$.G.Z.i.i.Z.v.Z.Z.S.A.S.D.D.S.h.i.D.A.h.] a.M.M.C.V.V.C.4.O.O.$.A K.K.K.K.K.",
"4.H.H.H.D.Z.Z.D.S.S.G.G.D.d.i.G.D.&.$.D.S.x.x.v.v.Z.D.D.D.v.l.c.D.Z.D.S.C.V.@.` ] @.Z K.K.K.K.K.",
"4.H.H.H.D.t.q.D.Z.d.x.S.Z.S.G.G.D.V.z.G.G.d.} c.S.s.&.x.Z.v.S.S.S.Z.D.D.D.D.<.` ] #.Z K.K.K.K.K.",
"4.J.H.H.D.B.B.H.G.$.O.H.D.i.i.V.V.Z.S.D.G.S.A.D.D.x.$.A.D.l.o.d.S.v.G.D.D.D.4.S O.$.Z K.K.K.K.K.",
"4.H.H.H.G.Z.S.D.S.G.G.H.G.s.a.H.D.a.#.v.S.x.x.Z.Z.Z.G.G.G.c.a.V.D.S.G.D.G.G.4.S ] #.Z K.K.K.K.K.",
"4.J.H.J.G.r.w.H.Z.d.c.Z.Z.S.H.H.D.V.h.A.H.i.} c.S.l.i.l.V.v.S.D.G.S.G.G.G.G.4.S ] #.Z K.K.K.K.K.",
"4.J.J.J.H.C.B.J.G.$.} H.D.i.s.Z.Z.Z.D.G.H.S.C.G.G.d.#.z.H.x.#.i.Z.v.G.G.G.G.5.` O.#.Z K.K.K.K.K.",
"4.J.J.H.G.D.G.J.G.G.H.J.G.d.$.J.G.p.#.D.S.Z.Z.S.S.Z.H.H.H.x.a.c.H.S.H.H.H.G.5.` { #.Z K.K.K.K.K.",
"4.J.J.J.J.G.D.A.Z.Z.D.G.D.D.J.J.G.Z.z.H.J.S.H.H.D.Z.Z.Z.Z.v.G.H.H.S.H.H.H.H.5.S ] #.A K.K.K.K.K.",
"4.J.J.J.J.J.J.J.J.J.H.H.D.S.S.S.S.D.J.J.H.S.J.J.G.S.H.H.J.v.S.S.Z.Z.H.J.H.H.5.` ] &.` K.K.K.K.K.",
"4.J.J.J.J.J.J.J.J.J.J.J.J.J.J.J.G.G.Z.S.Z.Z.G.H.H.S.J.J.J.Z.J.H.H.S.H.J.H.H.5.` ] &.` K.K.K.K.K.",
"4.J.J.J.J.J.J.J.J.J.J.J.J.J.J.J.J.J.J.J.J.H.H.S.Z.V.S.D.G.Z.J.J.J.S.H.H.J.H.5.S } $.' K.K.K.K.K.",
"[ [ ,.9.C.J.J.J.J.J.J.J.J.J.J.J.J.J.J.J.J.J.J.J.J.J.J.G.D.Z.Z.Z.D.Z.J.J.J.H.5.` ] $.` K.K.K.K.K.",
"K.K.K.K.S S ' ..9.M.F.J.J.J.J.J.J.J.J.J.J.J.J.J.J.J.J.J.J.J.J.J.H.F.J.H.F.A.=.S ] $.` K.K.K.K.K.",
"K.K.K.K.K.K.K.K.K.S S ' ..5.k.F.J.J.J.J.J.J.J.J.J.J.J.J.J.J.J.J.J.H.F.F.N.m.D ` ] $.` K.K.K.K.K.",
"K.K.K.K.K.K.K.K.K.K.K.K.K.K.K.S S +.1.f.C.J.J.J.J.J.J.J.J.J.J.J.F.F.N.b.0.0.[ ` ] $.` K.K.K.K.K.",
"K.K.K.K.K.K.K.K.K.K.K.K.K.K.K.K.K.K.K.K.S S X.@.9.C.J.J.J.J.F.F.N.b.y.0.N.-.[ ` { $.` K.K.K.K.K.",
"K.K.K.K.K.K.K.K.K.K.K.K.K.K.K.K.K.K.K.K.K.K.K.K.K.S S [ ,.9.k.M.b.b.g.-.6.6.=.` } } A K.K.K.K.K.",
"K.K.K.K.K.K.K.K.K.K.K.K.K.K.K.K.K.K.K.K.K.K.K.K.K.K.K.K.K.K.S S S [ D X.1.b.=.S A A K.K.K.K.K.K.",
"K.K.K.K.K.K.K.K.K.K.K.K.K.K.K.K.K.K.K.K.K.K.K.K.K.K.K.K.K.K.K.K.K.K.K.S S S ` A K.K.K.K.K.K.K.K.",
"K.K.K.K.K.K.K.K.K.K.K.K.K.K.K.K.K.K.K.K.K.K.K.K.K.K.K.K.K.K.K.K.K.K.K.K.K.K.K.K.K.K.K.K.K.K.K.K."
};
