/* XPM */
static const char *cancel2_48x48_xpm[] = {
/* columns rows colors chars-per-pixel */
"48 48 89 1 ",
"  c #6A1111",
". c #771313",
"X c #7E1414",
"o c #861616",
"O c #8C1515",
"+ c #841E1E",
"@ c #8B1919",
"# c #941616",
"$ c #9D1717",
"% c #931A1A",
"& c #9C1A1A",
"* c #A70707",
"= c #AD0606",
"- c #A60D0D",
"; c #AB0909",
": c #B40404",
"> c #B80707",
", c #B40C0C",
"< c #BB0B0B",
"1 c #A31717",
"2 c #AC1515",
"3 c #A41A1A",
"4 c #AC1B1B",
"5 c #B21414",
"6 c #BD1111",
"7 c #B21C1C",
"8 c #BD1C1C",
"9 c #AF2323",
"0 c #B42222",
"q c #BA2525",
"w c #B52C2C",
"e c #BB2B2B",
"r c #B73333",
"t c #BB3333",
"y c #BC3939",
"u c #C00E0E",
"i c #C41313",
"p c #C91616",
"a c #C41A1A",
"s c #CC1A1A",
"d c #D11E1E",
"f c #C52424",
"g c #CF2424",
"h c #C52E2E",
"j c #C92C2C",
"k c #D42222",
"l c #DA2525",
"z c #DD2A2A",
"x c #C43434",
"c c #CC3434",
"v c #C53C3C",
"b c #DB3232",
"n c #D23939",
"m c #D93A3A",
"M c #E22D2D",
"N c #E53131",
"B c #EB3535",
"V c #E73A3A",
"C c #EE3838",
"Z c #F23C3C",
"A c #C64242",
"S c #C94646",
"D c #C64949",
"F c #C84C4C",
"G c #D54646",
"H c #DC4444",
"J c #DC4E4E",
"K c #CB5454",
"L c #CE5C5C",
"P c #D25252",
"I c #DA5252",
"U c #D45C5C",
"Y c #DC5C5C",
"T c #E44343",
"R c #E14949",
"E c #F74040",
"W c #E25E5E",
"Q c #CF6262",
"! c #D26464",
"~ c #DF6262",
"^ c #D56C6C",
"/ c #DD6969",
"( c #D77171",
") c #D87575",
"_ c #DA7D7D",
"` c #E46565",
"' c #E66C6C",
"] c #DC8282",
"[ c None",
/* pixels */
"[[[[[[[[[[[[[[[[[[[22242223[[[[[[[[[[[[[[[[[[[[[",
"[[[[[[[[[[[[[[[27eKL(^^^^)LFt22[[[[[[[[[[[[[[[[[",
"[[[[[[[[[[[[[2qQ__!KDDSDDDK!(_Lw3[[[[[[[[[[[[[[[",
"[[[[[[[[[[[2v)]LDSAAAAAvAvvvvvK^(t3[[[[[[[[[[[[[",
"[[[[[[[[[[0!]KSSAAAvAvvAvvvvvvvvA^K0[[[[[[[[[[[[",
"[[[[[[[[2t_!DSSAAAAAvAvvvvxvvxvxxvA^t1[[[[[[[[[[",
"[[[[[[[5D]KSSAAvAAvvvvvvvvvvxvxxxvvxUD1[[[[[[[[[",
"[[[[[[2D_FSSAAAAvvte077220qtxxvxxxxxxvw$[[[[[[[[",
"[[[[[2D_DSSAvAAve7421OOO#$274qxxxxxxxxe7&[[[[[[[",
"[[[[[t_FSSAAAAt77# [[[[[[[[[#74exxxxxxx02[[[[[[[",
"[[[[0]KSAAAAAvv4[[[[[[[[[[[[[[$20xxxhxhx94[[[[[[",
"[[[7KQSSAAAvAvvx+[[[[[[[[[[[[[[[27hxhxhxe4$[[[[[",
"[[[q]DSAAAAvvvvvx[[[[[[[[[[[[[[[[3eSxjjxx02[[[[[",
"[[2!KSAAAvvvvvvvvx[[[[[[[[[[[[[[[[2DGxhhhh3&[[[[",
"[[7]DSAAAtvvvvxxvxx[[[[[[[[[[[[[[[%4Kchhhh02[[[[",
"[[KLSAAvv74vvvxvxxxx[[[[[[[[[[[[[[[1w~chjhe7o[[[",
"[2)DAAAve7[+xvxxxxxxh[[[[[[[[[[[[[[[4Kfiaaf2&[[[",
"[7_SAAAv7$[[[xvxxxxxha[[[[[[[[[[[[[[3rGii66;2[[[",
"[y!AAvvv2.[[[[xxxh8>>><[[[[[[[[[[[[[[4Upiii,2[[[",
"[KKAAAve2[[[[[[q>>>><<<<[[[[[[[[[[[[[4Fjiii<2o[[",
"3UFAvAvq3[[[[[[[>>><<<u<<[[[[[[[[[[[[4yniii65O[[",
"2(SAAAv01[[[[[[[[><<<<<uii[[[[[[[[[[[3yGpsai2@[[",
"2^SAvvv7O[[[[[[[[[><<<uu<ii[[[[[[[[[[3yIsspi,$[[",
"3^Dvvvv7#[[[[[[[[[[<uuuuiiii[[[[[[[[[3yIsssi2$[[",
"2^Dvvvv71[[[[[[[[[[[uuiuiippp[[[[[[[[4rJdddi5O[[",
"2LFvvv,51[[[[[[[[[[[[uuiiippps[[[[[[[3AGddda7o[[",
"[KKvv,:,7[[[[[[[[[[[[[iippppsss[[[[[[9Kmkkka5o[[",
"[yQv>::=2X[[[[[[[[[[[[[pppsssddk[[[[[4/bllka2[[[",
"[0)5==::2$[[[[[[[[[[[[[[ppsdddkkk[[[3rWzllli9[[[",
"[2!>::::,7[[[[[[[[[[[[[[[pdddkllll[[9UHzlzk8&[[[",
"[[Ae:=::>21[[[[[[[[[[[[[[[ddddllzzz0w'zMMzs7X[[[",
"[[0K:::::52O[[[[[[[[[[[[[[[dllllzzMz~HMNNzs9[[[[",
"[[3K5:::>:52[[[[[[[[[[[[[[[0llllMMNNTMBBNl8%[[[[",
"[[[0K::::>>24[[[[[[[[[[[[[[[7lMMMNBBBBBBMk4[[[[[",
"[[[3D8::::>>w4[[[[[[[[[[[[[[[qzMNNBBCCZBz7%[[[[[",
"[[[[0K::>>>>xy43[[[[[[[[[[[[[[qMNBBCZZZNg9[[[[[[",
"[[[[[ex>>>><>xD021[[[[[[[[[[439`CBBZZEBz9 [[[[[[",
"[[[[[$A8>>>>><aPDw4433333444wK'RNBZZEZMq@[[[[[[[",
"[[[[[[1w,>>>><<<jUUFyr44yyK/`JbMBBZZCMq@[[[[[[[[",
"[[[[[[[$-=>><<<uuiacGIYYYJmnzzMMBBBNzq%[[[[[[[[[",
"[[[[[[[[#2;>><<iuiiippsdddkklzMMNNzg9@[[[[[[[[[[",
"[[[[[[[[[[3-=><<u6uipppsddklllMzzgf4 [[[[[[[[[[[",
"[[[[[[[[[[[$2-,><iiiipssddkklkkg80%[[[[[[[[[[[[[",
"[[[[[[[[[[[[[$21;,,<iiispssaaa74$[[[[[[[[[[[[[[[",
"[[[[[[[[[[[[[[[#35222555557543@[[[[[[[[[[[[[[[[[",
"[[[[[[[[[[[[[[[[[[XO#&$$$&o.[[[[[[[[[[[[[[[[[[[[",
"[[[[[[[[[[[[[[[[[[[[[[[[[[[[[[[[[[[[[[[[[[[[[[[[",
"[[[[[[[[[[[[[[[[[[[[[[[[[[[[[[[[[[[[[[[[[[[[[[[["
};
