/* XPM */
static const char *compact_disk_16x16_xpm[] = {
/* columns rows colors chars-per-pixel */
"16 16 173 2 ",
"   c #76B697",
".  c gray53",
"X  c #868887",
"o  c #8A8589",
"O  c #888688",
"+  c #878A88",
"@  c #998F97",
"#  c #8E9290",
"$  c #8D9B94",
"%  c #959595",
"&  c #9E989D",
"*  c #90A79C",
"=  c #9AA19C",
"-  c #91BB9E",
";  c #A296A0",
":  c #94BAA7",
">  c #9DB7AB",
",  c #A0A4A1",
"<  c #AFAFAF",
"1  c #B0ABAE",
"2  c #B6A2B1",
"3  c #B3ABB1",
"4  c #BFA8BA",
"5  c #A2BCB0",
"6  c #A0BFB0",
"7  c #B6B6B6",
"8  c #B4B9B6",
"9  c #BEB4BC",
"0  c #BFB5BD",
"q  c #BEB7BD",
"w  c #B6B9B8",
"e  c #B7BDBA",
"r  c #BCBCBD",
"t  c gray75",
"y  c #C79BBE",
"u  c #C0A3BA",
"i  c #C1A7BB",
"p  c #C1B2BD",
"a  c #C3B0BF",
"s  c #99CCA9",
"d  c #9EC7B3",
"f  c #97C9B1",
"g  c #92CEB1",
"h  c #95CFB3",
"j  c #98CAB2",
"k  c #8DD4B2",
"l  c #8CD6B2",
"z  c #94D2B4",
"x  c #96D4B6",
"c  c #9ADABB",
"v  c #A3C7B6",
"b  c #A4CDB9",
"n  c #A9CBBB",
"m  c #AECEBF",
"M  c #B1C6B7",
"N  c #B5C7BB",
"B  c #B2C6BD",
"V  c #BAC1BE",
"C  c #BBC2BF",
"Z  c #BCC3BE",
"A  c #B0C9BD",
"S  c #BBC9BF",
"D  c #CE9FC4",
"F  c #CAABC3",
"G  c #CBACC4",
"H  c #CCAEC5",
"J  c #D2A8C9",
"K  c #D0AEC9",
"L  c #D6AACD",
"P  c #D6ABCD",
"I  c #C8B1C3",
"U  c #C3BFC3",
"Y  c #CABBC7",
"T  c #CEBDCA",
"R  c #D3B7CD",
"E  c #D3BBCE",
"W  c #DAABD0",
"Q  c #DEA8D2",
"!  c #DFA8D3",
"~  c #DAADD1",
"^  c #D9B7D1",
"/  c #DAB5D2",
"(  c #D4BFD0",
")  c #DDBFD7",
"_  c #E0ACD5",
"`  c #E1ACD6",
"'  c #E0BED9",
"]  c #BEC2C0",
"[  c #B4CFC2",
"{  c #B8CAC1",
"}  c #BECFC7",
"|  c #BCD0C2",
" . c #BFD9C7",
".. c #AFE9C1",
"X. c #BBEAC9",
"o. c #C3C3C3",
"O. c #C8C4C7",
"+. c #CCC0C9",
"@. c #CCC3CA",
"#. c #C8CAC9",
"$. c #CBC9CB",
"%. c #CFCDCE",
"&. c #D0C0CC",
"*. c #D1CACF",
"=. c #D0CBCF",
"-. c #C5D0C9",
";. c #CCD5CF",
":. c #C5DDCC",
">. c #C9D9CE",
",. c #D4C1D0",
"<. c #D5C1D1",
"1. c #D6C3D2",
"2. c #D8C2D3",
"3. c #D1CBD0",
"4. c #C7DFD3",
"5. c #D2D8D4",
"6. c #E4C2DD",
"7. c #E5C3DE",
"8. c #E3C4DC",
"9. c #E0C8DA",
"0. c #C4E7CF",
"q. c #C3EFD0",
"w. c #C6ECD2",
"e. c #DBE5DE",
"r. c #D5EEDD",
"t. c #C4F0D2",
"y. c #C5F1D3",
"u. c #C7F1D4",
"i. c #C9F2D5",
"p. c #D1F4DC",
"a. c #EAC2E1",
"s. c #EAC7E2",
"d. c #EBC6E3",
"f. c #E8C8E1",
"g. c #ECC8E5",
"h. c #EDCAE5",
"j. c #E9D6E4",
"k. c #EBDBE7",
"l. c #E9DEE7",
"z. c #EFD0E8",
"x. c #EFD2E9",
"c. c #F1D7EB",
"v. c #F2D9EC",
"b. c #F2DBED",
"n. c #F3DCEE",
"m. c #F2DEEE",
"M. c #D9F6E2",
"N. c #DCF6E4",
"B. c #DFF7E7",
"V. c #E6E6E6",
"C. c #E7E7E7",
"Z. c gray91",
"A. c #EAEAEA",
"S. c gray93",
"D. c #EEECED",
"F. c #EEEEEE",
"G. c #E0F7E7",
"H. c #E5F7EA",
"J. c #E9F2EC",
"K. c #E9F3EC",
"L. c #EBF6EE",
"P. c #F5E3F1",
"I. c #F7E9F3",
"U. c #F5EDF3",
"Y. c #F6ECF4",
"T. c #F9EEF6",
"R. c #EBFAF0",
"E. c #F2FCF5",
"W. c #F4FCF6",
"Q. c #F9F5F8",
"!. c #FAFEFB",
"~. c #FDFFFD",
"^. c None",
/* pixels */
"^.^.^.^.^.. . X + . . ^.^.^.^.^.",
"^.^.^.. & 0 U C } m 6 $ . ^.^.^.",
"^.^.. 4 R a q e { v f c : . ^.^.",
"^.. i P K I 9 8 B d h l z > . ^.",
"^.; _ Q L H p w A j k x b [ # ^.",
". G W ` ! J 2 r 5   g n { V 7 ^.",
". ) ^ / ~ y l.F.S.4.* ] O.@.+.. ",
"o ,.<.( E T A.t o.C.3 &.1.2.9.. ",
"O *.3.=.$.#.Z.t o.C.u ' 6.7.f.. ",
". 5.;.>. .- J.C.V.j.D a.g.d.8.. ",
". S :.0.X...s | Z F s.z.x.h.Y ^.",
"^.= w.q.u.y.t.r.e.k.b.n.c.v.@ ^.",
"^.. M i.p.M.G.H.K.U.I.P.m.1 . ^.",
"^.^.. N N.B.R.E.W.Q.T.Y.< . ^.^.",
"^.^.^.. , -.L.!.~.D.%.% . ^.^.^.",
"^.^.^.^.^.. . . . . . ^.^.^.^.^."
};
