/* XPM */
static const char *compact_disk_48x48_xpm[] = {
/* columns rows colors chars-per-pixel */
"48 48 207 2 ",
"   c #6B6B6B",
".  c #636363",
"X  c #737373",
"o  c #7B7C7B",
"O  c #777D7A",
"+  c #7C827E",
"@  c #867E84",
"#  c #B37DA7",
"$  c #7E8480",
"%  c #7B988A",
"&  c #6C9C85",
"*  c #59A580",
"=  c #69A487",
"-  c #77B58A",
";  c #7CC4A1",
":  c #848484",
">  c #888487",
",  c #8D8C8D",
"<  c #878888",
"1  c #84948B",
"2  c #968C93",
"3  c #988794",
"4  c #8C9D94",
"5  c #8F9791",
"6  c gray58",
"7  c #9C999B",
"8  c #969898",
"9  c #A38B9E",
"0  c #A3929F",
"q  c #8DA296",
"w  c #8BA797",
"e  c #94A79A",
"r  c #86B59C",
"t  c #8CAC95",
"y  c #A886A1",
"u  c #B78FAF",
"i  c #A59BA2",
"p  c #AB95A7",
"a  c #B49AAF",
"s  c #BC8BB1",
"d  c #BB91B2",
"f  c #8FB6A3",
"g  c #9AB5A7",
"h  c #A3A5A4",
"j  c #A3AFA7",
"k  c #ABABAB",
"l  c #A2BDAB",
"z  c #A5B6AB",
"x  c #B8A7B4",
"c  c #ADBCB5",
"v  c #B5B5B5",
"b  c #B3BAB6",
"n  c #BCB4BA",
"m  c #B5BDB9",
"M  c #BABABB",
"N  c #B8B6B7",
"B  c #B0A8AE",
"V  c #C48CB8",
"C  c #C3ADBE",
"Z  c #C1B3BE",
"A  c #C1B9BF",
"S  c #90C19F",
"D  c #8CCA9F",
"F  c #8CCDAE",
"G  c #86C4A6",
"H  c #91CAAF",
"J  c #96CAA6",
"K  c #85D1AD",
"L  c #8AD1AF",
"P  c #8FCFB1",
"I  c #9DC5B2",
"U  c #95CCB2",
"Y  c #9BCBB4",
"T  c #97C7B0",
"R  c #8CD5B2",
"E  c #8DD9B4",
"W  c #87D5B0",
"Q  c #93D3B4",
"!  c #99D1B6",
"~  c #9BD3B8",
"^  c #A3C3B4",
"/  c #AAC2B6",
"(  c #A2C9B7",
")  c #ADC5B9",
"_  c #A4CCB9",
"`  c #ACCBBC",
"'  c #B4C3BC",
"]  c #BAC4BE",
"[  c #B4C9BE",
"{  c #A3D1BB",
"}  c #B5D2BE",
"|  c #B1DEBF",
" . c #DB9FCE",
".. c #CDA5C4",
"X. c #C6AEC1",
"o. c #CBACC4",
"O. c #CFAFC9",
"+. c #D0A6C7",
"@. c #D4A5CA",
"#. c #D9A3CE",
"$. c #D4ACCC",
"%. c #D9AACE",
"&. c #C5B3C1",
"*. c #CAB3C5",
"=. c #C3BCC1",
"-. c #C9BDC6",
";. c #CEB4C9",
":. c #CEBCCA",
">. c #D3B3CD",
",. c #D2BCCD",
"<. c #DDA5D1",
"1. c #DCACD2",
"2. c #DBB4D3",
"3. c #D6BCD1",
"4. c #DABDD4",
"5. c #DFBDD8",
"6. c #D7B7D0",
"7. c #E1A7D4",
"8. c #E1ABD6",
"9. c #E2AFD8",
"0. c #E3BDDB",
"q. c #E9BEDF",
"w. c #E1B2D7",
"e. c #E9BFE0",
"r. c #BDC5C1",
"t. c #B5CBC0",
"y. c #BBCCC3",
"u. c #BDDEC7",
"i. c #B6DAC7",
"p. c #ACDCC5",
"a. c #A4E4C5",
"s. c #A8E2C5",
"d. c #BAE2C6",
"f. c #B4ECC5",
"g. c #BCEECB",
"h. c #B6E5C8",
"j. c #C3C2C3",
"k. c #CCC4CA",
"l. c #CCCBCC",
"z. c #C5C9C7",
"x. c #D2C2CE",
"c. c #D1C9CF",
"v. c #C5D4CA",
"b. c #CBD2CD",
"n. c #C4DCCB",
"m. c #C9DACE",
"M. c #D5C3D1",
"N. c #DAC3D5",
"B. c #D3CCD2",
"V. c #DFC3D9",
"C. c #CED4D0",
"Z. c #CBDBD0",
"A. c #D5D5D5",
"S. c gray86",
"D. c #D8D8D8",
"F. c #E3C3DC",
"G. c #E2CDDE",
"H. c #E0D0DC",
"J. c #C3E4CD",
"K. c #C2EBCE",
"L. c #C8E1CF",
"P. c #C1F0CF",
"I. c #C7E5D0",
"U. c #CAE2D1",
"Y. c #CBEBD5",
"T. c #C5ECD1",
"R. c #DAE4DD",
"E. c #D4ECDB",
"W. c #D7E7DC",
"Q. c #C4F1D2",
"!. c #C9F2D5",
"~. c #CDF3D9",
"^. c #D3F4DD",
"/. c #EAC4E2",
"(. c #EDCBE6",
"). c #E7C4E0",
"_. c #EDD4E7",
"`. c #EFD1E8",
"'. c #E8DDE5",
"]. c #F1D5EA",
"[. c #F3DCEE",
"{. c #DFE3E0",
"}. c #DBECE1",
"|. c #D7F5E0",
" X c #DBF6E3",
".X c #E4E4E4",
"XX c #E2E9E5",
"oX c #ECEBEC",
"OX c #E7E9E8",
"+X c #F1E4EE",
"@X c #F1EAEF",
"#X c #E0F6E7",
"$X c #E4F9EA",
"%X c #E9F9EE",
"&X c #E9F5ED",
"*X c #F5E4F1",
"=X c #F6EBF4",
"-X c #F9ECF5",
";X c #EDFAF1",
":X c #EFF5F0",
">X c #F3F3F3",
",X c #F9F2F7",
"<X c #F3FBF5",
"1X c #FAF3F9",
"2X c #F7FDF9",
"3X c #FAFCFB",
"4X c None",
/* pixels */
"4X4X4X4X4X4X4X4X4X4X4X4X4X4X4X4X4X4X4X< : : : : : : + 4X4X4X4X4X4X4X4X4X4X4X4X4X4X4X4X4X4X4X4X4X",
"4X4X4X4X4X4X4X4X4X4X4X4X4X4X4X< < 7 k M j.] v.v.y.v.c g 4 : $ 4X4X4X4X4X4X4X4X4X4X4X4X4X4X4X4X4X",
"4X4X4X4X4X4X4X4X4X4X4X4X4X< 7 n c.k.=.M v b c c m y./ t.i.i.^ 4 $ 4X4X4X4X4X4X4X4X4X4X4X4X4X4X4X",
"4X4X4X4X4X4X4X4X4X4X4X< i M.x.=.n n N N b b c c ) t.c I l I _ p.{ w $ 4X4X4X4X4X4X4X4X4X4X4X4X4X",
"4X4X4X4X4X4X4X4X4X4X2 :.M.&.n n n n n v v b c c ) t.I l I I T T U s.Y 1 4X4X4X4X4X4X4X4X4X4X4X4X",
"4X4X4X4X4X4X4X4X< p N.;.C C C C n n n M m m m ) y.t.^ l I I T T U F Q a.w o 4X4X4X4X4X4X4X4X4X4X",
"4X4X4X4X4X4X4X< C 4.X.C C C C Z Z Z A N v b c c t.) ( t.( Y T P F F R W a.f O 4X4X4X4X4X4X4X4X4X",
"4X4X4X4X4X4X< X.4.o.o.X.C C &.*.Z n n N v b b c y./ l I I U Y U F F K W ; a.r O 4X4X4X4X4X4X4X4X",
"4X4X4X4X4X< X.4.o.o.o.o.X.*.X.X.&.Z n n n m ) c y.t.^ ^ Y U U U Q F K K K F s.f o 4X4X4X4X4X4X4X",
"4X4X4X4X4Xa 0.....o...o.O.o.o.&.&.Z A M m M m ' y.l ( Y Y U U P R E W K F H Y p.q 4X4X4X4X4X4X4X",
"4X4X4X4X9 q.#.@.@...$.$...;.*.o.&.&.Z n n c c c t.^ ( Y Y U Q R R W E Q U T I _ i.< 4X4X4X4X4X4X",
"4X4X4X> 2.7. . .#.%.1.$.$.$.O.;.&.&.n n n v m ' t.( l U U Q Q R R R Q ! Y Y I ^ ` / o 4X4X4X4X4X",
"4X4X4Xa 0. .<. .<.1.<.1.%.$.;.o.X.X.Z n n m m ' t.^ ^ Y U P R E E ~ Q ! _ _ ( c / v.8 4X4X4X4X4X",
"4X4X> 0.#. .#.7.8.7.7.8.1.$.$.o.O.&.&.A =.' z ) t.( Y Y Q Q W R ~ ! { _ _ t./ ) ) ' r.o 4X4X4X4X",
"4X4Xa 0.#.#.%.8.8.7.8.8.1.1.%.$.O.O.X.i 2 $ % w % % ; U Q R E Q ! { _ ` ` t.y.' ' M C.6 4X4X4X4X",
"4X< >.$.$.%.1.w.8.8.8.9.8.<.%.$.>.a 3 B -.=.A t.l f = = ; E Q ! _ _ t.t.' r.y.M r.M j.v   4X4X4X",
"4X2 F.$.$.$.w.%.2.w.w.8.7.7.7.w.u p 3.n B.oX3X3X.Xz.I ; * G ~ _ ` ) t.y.r.r.j.j.j.A A c.$ 4X4X4X",
"4Xp F.O.$.>.w.2.2.w.w.1.7.8.8.V u V.=.>X2X1X2X3X2X1X@X` G & g [ ' ' r.z.j.z.j.k.j.=.-.B.7 4X4X4X",
"4XC 6.>.6.6.2.4.2.w.2.%.2.1.%.# ).=.>X>X1X2X2X1X>X2X>X>X' g % t.r.r.=.z.k.k.k.k.-.-.-.x.B 4X4X4X",
": ,.,.>.>.3.3.6.4.4.6.2.2.2.V C &.>X>X>X<X1X1X3X1X>X>X>XOXm 5 k j.j.-.k.k.k.k.x.x.k.:.x.Z   4X4X",
": V.;.,.,.N.>.,.3.4.>.>.6.2.9 F.B.>X>X>X1XS.A r.{.1X:X@X:Xj.v 7 k.k.k.k.M.x.M.M.M.,.,.,.,.X 4X4X",
"> G.:.,.,.N.x.N.N.N.,.,.3.>.p ;.OX>X:X>XD., 4X4X8 .X>X:X@XS.=.2 x.x.:.,.M.N.N.3.N.,.,.3.3.o 4X4X",
"> G.:.:.x.M.M.M.M.N.x.x.x.A 0 Z >X@X:X>Xm 4X4X4X4Xr.>X@XoXoX-.3 ;.M.M.3.V.V.N.N.V.4.3.3.4.O 4X4X",
"> D.k.k.x.M.c.c.c.B.k.x.c.=.0 l.:X:X@X>Xv 4X4X4X4X=.>XoXoXoX:.y >.N.4.N.F.V.V.V.F.V.4.4.3.o 4X4X",
"> D.k.k.x.c.c.c.c.B.k.l.l.A 8 .XoX:XoX=XC.6 4X4Xh S.oXoXoXA.*.y F.0.4.5.).F.q.0.F.0.0.0.4.o 4X4X",
"> M.k.l.l.A.l.c.C.A.c.l.z.b.5 ] >X>XoXoX>Xc.M M S.>XoXoXoXk.$.u q.q.q.q.(././.e.F.0.0.0.4.X 4X4X",
": z.l.z.l.C.A.b.C.C.b.v.v.v.g t #X>X:XOXOXoX>XoXoXOXOXoX.X,.d ..q.e.q.e./.(.e.e./.e.q.F.>.  4X4X",
"4XM b.l.b.b.C.b.C.m.v.v.v.n.} t | :X>X=XOXOXOXOXOXOXoX=Xj.%.V /././.e.(.(./.(.(./.e.q.(.x 4X4X4X",
"4Xh A.b.b.v.C.m.m.U.m.n.d.d.d.J - K.:X>X>XoXoXoXoX@XOXA F.s #././././.(.(.(.(.(././.e.`.i 4X4X4X",
"4X< W.v.v.m.Z.L.L.L.I.J.d.d.f.f.D - | $X<X>X>XoX@XOX-.6.u ..(.(.(./.(.].(.(.(.(././.e.].@ 4X4X4X",
"4X: z.n.m.n.L.U.L.J.K.P.d.d.f.f.f.J - S | #XZ.Z.W.z.x p >.(.(./.(.(.`.].(.(.(.(.(./.(.>.  4X4X4X",
"4X4Xj U.n.n.J.I.I.T.K.P.P.f.f.f.f.g.d.J t I e e e j N (.(.].(.(.(.].].`.].].].(./.(.].0 4X4X4X4X",
"4X4X: I.n.J.J.J.K.K.P.Q.Q.Q.f.g.g.g.g.g.~.Y.u.v.C.{..X_._._.].].].[.].].].].`.(.(.(.F.o 4X4X4X4X",
"4X4X4Xg Y.J.J.K.K.Q.Q.Q.!.!.~.P.g.g.Q.Q.~.^.E.W.W.R.S.'._._.].[.[.[.[.].].].`.(.`.[.p 4X4X4X4X4X",
"4X4X4X: J.J.K.K.g.Q.!.Q.!.~.~.^.~.!.Q.!.^.|.E.E.W.{..X'.].+X*X*X[.[.[.[.[.].].`.].N.o 4X4X4X4X4X",
"4X4X4X4X4 ^.g.g.P.Q.!.~.~.^.^.^.|. X|.|.|.E.E.}.}.XXOX@X=X*X*X*X*X*X[.[.[.].`.].'.2 4X4X4X4X4X4X",
"4X4X4X4Xo l ~.g.P.Q.~.~.^.^.^. X X$X X X$X%X$X$X&X:X:X=X=X=X*X*X*X*X*X[.[.].`.+Xh . 4X4X4X4X4X4X",
"4X4X4X4X4X+ } ^.Q.!.~.~.^.|.|. X X X$X%X;X%X%X%X%X>X>X=X=X=X-X*X*X*X*X[.[.[.+Xv X 4X4X4X4X4X4X4X",
"4X4X4X4X4X4X: } ^.~.~.~.^.|. X$X X$X%X;X;X;X;X;X;X>X>X>X-X-X-X-X-X*X*X*X[.oXz.$ 4X4X4X4X4X4X4X4X",
"4X4X4X4X4X4X4X+ | |.^.^.|. X X X$X%X%X;X;X;X;X<X<X<X<X,X,X,X-X=X*X*X*X*X@XM : 4X4X4X4X4X4X4X4X4X",
"4X4X4X4X4X4X4X4X+ ^  X^. X X#X#X$X%X;X;X<X<X2X<X2X2X2X1X1X1X-X-X=X=X@XoXk X 4X4X4X4X4X4X4X4X4X4X",
"4X4X4X4X4X4X4X4X4XX q E.#X X#X$X$X%X;X<X2X2X3X3X2X2X2X3X1X1X1X-X-X>XD.6 . 4X4X4X4X4X4X4X4X4X4X4X",
"4X4X4X4X4X4X4X4X4X4X4X+ z ^.%X$X$X;X<X<X2X2X3X3X3X3X3X1X1X1X1X1XOXh o 4X4X4X4X4X4X4X4X4X4X4X4X4X",
"4X4X4X4X4X4X4X4X4X4X4X4X4X: z m.<X<X<X<X3X3X3X3X3X3X3X3X3X3Xl.h o 4X4X4X4X4X4X4X4X4X4X4X4X4X4X4X",
"4X4X4X4X4X4X4X4X4X4X4X4X4X4X4Xo 1 j ] .XoX3X3X3X3XoX.Xj.k : X 4X4X4X4X4X4X4X4X4X4X4X4X4X4X4X4X4X",
"4X4X4X4X4X4X4X4X4X4X4X4X4X4X4X4X4X4X  X o O + O o o   . 4X4X4X4X4X4X4X4X4X4X4X4X4X4X4X4X4X4X4X4X",
"4X4X4X4X4X4X4X4X4X4X4X4X4X4X4X4X4X4X4X4X4X4X4X4X4X4X4X4X4X4X4X4X4X4X4X4X4X4X4X4X4X4X4X4X4X4X4X4X",
"4X4X4X4X4X4X4X4X4X4X4X4X4X4X4X4X4X4X4X4X4X4X4X4X4X4X4X4X4X4X4X4X4X4X4X4X4X4X4X4X4X4X4X4X4X4X4X4X"
};
