/* XPM */
static const char *compact_disk_32x32_xpm[] = {
/* columns rows colors chars-per-pixel */
"32 32 191 2 ",
"   c #585858",
".  c #6A6A6A",
"X  c #646464",
"o  c #737373",
"O  c #7C7C7C",
"+  c #847F83",
"@  c #64AD8A",
"#  c #7BA390",
"$  c #78B195",
"%  c #848585",
"&  c #888587",
"*  c #898488",
"=  c #88918B",
"-  c #8B9C94",
";  c #939494",
":  c #939995",
">  c #9D919A",
",  c #9C9B9C",
"<  c #A08E9C",
"1  c #A2979F",
"2  c #8FA195",
"3  c #90A095",
"4  c #95A69C",
"5  c #98A89D",
"6  c #84B89F",
"7  c #95B79F",
"8  c #A88BA2",
"9  c #A29FA1",
"0  c #A99AA5",
"q  c #AE91A8",
"w  c #B19DAC",
"e  c #BC8AB2",
"r  c #B899B1",
"t  c #94ACA0",
"y  c #9FA8A3",
"u  c #8CB9A3",
"i  c #98BAAA",
"p  c #A6A5A6",
"a  c #B2A6AF",
"s  c #ABB1AE",
"d  c #A3B8AA",
"f  c #B5A5B2",
"g  c #BCA8B8",
"h  c #BFA5B9",
"j  c #AEB7B1",
"k  c #A8BCB2",
"l  c #B5B4B5",
"z  c #B8B5B7",
"x  c #B3BAB6",
"c  c #BCB4BA",
"v  c #B4BDB9",
"b  c #BBBABB",
"n  c #C098B7",
"m  c #C699BD",
"M  c #C3ADBE",
"N  c #C3B2BF",
"B  c #87C69A",
"V  c #89C09A",
"C  c #8ECDAE",
"Z  c #90C3A0",
"A  c #94C9AF",
"S  c #9ACDA9",
"D  c #86D1AC",
"F  c #8BD0AF",
"G  c #9CC5B2",
"H  c #96CBB2",
"J  c #9BCBB4",
"K  c #8DD4B2",
"L  c #8CD8B3",
"P  c #93D3B4",
"I  c #9BD1B7",
"U  c #A6C2AF",
"Y  c #A2CAAE",
"T  c #A3C4B4",
"R  c #A9C4B7",
"E  c #A1C8B6",
"W  c #A6C7B8",
"Q  c #ADC6BB",
"!  c #A3CFBA",
"~  c #ABCABC",
"^  c #B3C4BC",
"/  c #B1CCBC",
"(  c #A4D2BC",
")  c #ADDFBC",
"_  c #CA9CC0",
"`  c #CFA6C6",
"'  c #CBABC4",
"]  c #CFAFC8",
"[  c #C7ABC1",
"{  c #D4A5CA",
"}  c #D3ACCB",
"|  c #D9ACCF",
" . c #D9A1CD",
".. c #C5B3C1",
"X. c #CBB2C6",
"o. c #C6BEC4",
"O. c #CABCC7",
"+. c #CEBDCA",
"@. c #CCB6C8",
"#. c #D3B4CD",
"$. c #D2BBCE",
"%. c #DDA4D1",
"&. c #DDACD3",
"*. c #DCB3D3",
"=. c #D6BDD1",
"-. c #DBBBD4",
";. c #E1ABD5",
":. c #E0A6D3",
">. c #E0B0D6",
",. c #E4BCDC",
"<. c #E8BDDF",
"1. c #E9BFE0",
"2. c #BDC5C1",
"3. c #B5CBC0",
"4. c #B9CAC2",
"5. c #A7DBC2",
"6. c #BDDCC6",
"7. c #BDD3C4",
"8. c #9DE2C1",
"9. c #AFE9C0",
"0. c #A1E0C1",
"q. c #B9E4C6",
"w. c #B5ECC6",
"e. c #BDEFCD",
"r. c #C3C2C3",
"t. c #C4C9C6",
"y. c #CCC4CA",
"u. c #CBCCCB",
"i. c #D1C4CE",
"p. c #C4D5C9",
"a. c #CBD4CE",
"s. c #C4DCCC",
"d. c #C9DDCF",
"f. c #D5C3D1",
"g. c #DBC3D6",
"h. c #D1CBD0",
"j. c #DAC9D6",
"k. c #DEC8D9",
"l. c #CFD5D1",
"z. c #CEDCD3",
"x. c #D3D4D3",
"c. c #D4D9D6",
"v. c #DBD3D9",
"b. c #D9D9D8",
"n. c #E3C2DC",
"m. c #E2CCDD",
"M. c #C3E4CD",
"N. c #C8E2CF",
"B. c #C1ECCE",
"V. c #C7E8D1",
"C. c #CBECD4",
"Z. c #CAE3D2",
"A. c #DCE4DE",
"S. c #D4EDDC",
"D. c #D7E9DD",
"F. c #C4F1D2",
"G. c #CAF2D6",
"H. c #CDF2D8",
"J. c #D3F3DD",
"K. c #EAC4E2",
"L. c #E7C9E0",
"P. c #EDCCE5",
"I. c #EDD1E7",
"U. c #EED4E9",
"Y. c #E8DEE6",
"T. c #F0D4EA",
"R. c #F3DBED",
"E. c #DFE6E1",
"W. c #DCF6E4",
"Q. c #D6F5E0",
"!. c #E5E2E4",
"~. c #EBE4E9",
"^. c #EBEBEB",
"/. c #E4EAE7",
"(. c #F1E1ED",
"). c #E0F7E7",
"_. c #E4F4E9",
"`. c #EDF2EE",
"'. c #E4F8EA",
"]. c #EAFAEF",
"[. c #F5E3F1",
"{. c #F6ECF4",
"}. c #F8ECF5",
"|. c #EFF4F1",
" X c #ECFAF1",
".X c #F3F3F3",
"XX c #F2FBF5",
"oX c #FAF4F9",
"OX c #F7FDF9",
"+X c #F9FAFA",
"@X c None",
/* pixels */
"@X@X@X@X@X@X@X@X@X@X@X% % % & & & % % @X@X@X@X@X@X@X@X@X@X@X@X@X",
"@X@X@X@X@X@X@X@X% % p l N t.4.3.Z.Q k 4 % O @X@X@X@X@X@X@X@X@X@X",
"@X@X@X@X@X@X@X% p $.O.c z x x x 3.k G ! 5.i % @X@X@X@X@X@X@X@X@X",
"@X@X@X@X@X% > $.#.M c c z z x Q 3.T G G P I I - O @X@X@X@X@X@X@X",
"@X@X@X@X& 0 -.' [ [ ..N b v x ^ 3.W E J H C F 8.t O @X@X@X@X@X@X",
"@X@X@X& 0 ,.` ` [ X.N N c z x ^ Q T G H P K D D 8.u O @X@X@X@X@X",
"@X@X@X> >.{ { } ] [ [ ..N z v ^ Q E J H H L K C A 5.- @X@X@X@X@X",
"@X@X& *.%. .| | } #.X.N c v x ^ R G J P L K P I G W 3.% @X@X@X@X",
"@X@Xw >.%.%.;.&.| } ' ..N c v 4.W J H K L P ! ( ~ R ^ p o @X@X@X",
"@X& -.| &.;.:.;.&.{ } @.a , : 5 # u K L P ( ( ~ 3.^ ^ t.% @X@X@X",
"@X< >.| *.;.;.;.%.&.} q N v.c.c.6.$ @ P ! W 3.4.2.r.N y.p @X@X@X",
"% g #.#.*.*.*.;.&.;.e -.~.+X+X+X+X/.Z # ~ ^ 2.r.r.y.r.r.l o @X@X",
"% $.@.#.-.*.-.#.*._ } ~..X+XOX+X.X.X/.t s r.o.y.y.y.+.O.@.O @X@X",
"% @.$.$.f.=.g.#.#.r j..X.X/.b b ^..X`.i.9 y.+.f.f.f.f.$.k.% @X@X",
"% k.+.i.f.f.f.$.f.f ~..X.XN @X@Xb {.`.v.< f.f.g.g.g.g.-.m.& @X@X",
"% v.y.i.h.h.h.y.y.a ~..X{.^ @X@X2.`.`.k.8 -.-.n.n.n.n.-.L.% @X@X",
"% o.u.u.h.l.u.u.u.y l..X^.^.r.r.^.^.^.=.n 1.,.1.K.K.1.,.K.# @X@X",
"% r.u.u.l.l.l.p.p./ 7 XX`.~.^.^.~.`.Y._ &.1.1.P.K.P.1.1.-.O @X@X",
"@Xs a.a.z.d.N.s.M.q.6 S XX.X^.`.`.Y.-.m 1.K.P.P.P.P.1.K.M . @X@X",
"@X: z.p.d.N.M.B.q.9.9.B Z Z._._.c.g m K.P.P.I.I.P.P.K.I.< @X@X@X",
"@X& p.s.M.V.B.B.B.w.w.e.) Y T d j +.U.I.I.T.T.T.T.P.P.L.% @X@X@X",
"@X@X4 V.B.B.B.F.F.G.e.B.V.H.S.D.A.Y.U.U.R.R.R.T.T.P.T.a . @X@X@X",
"@X@X% 6.F.e.F.H.J.J.J.H.G.J.S.D.E.!.(.[.[.R.[.R.T.T.g.% @X@X@X@X",
"@X@X@X= H.F.F.H.J.J.J.J.W.].'.'.`.`.}.[.[.[.[.T.T.~.;   @X@X@X@X",
"@X@X@Xo 3 J.G.H.J.W.).).'. X X XXX.X{.{.}.[.[.R.~., . @X@X@X@X@X",
"@X@X@X@XO 3 J.J.J.W.'.].].XX XOXXX.XoX}.}.}.[.~., o @X@X@X@X@X@X",
"@X@X@X@X@Xo = N._.).'.]. XOXOXOXOX+XoXoX}.{.b.; . @X@X@X@X@X@X@X",
"@X@X@X@X@X@X@X% 5 Z.]. XXXOXOX+X+XOXoXoX!.l % @X@X@X@X@X@X@X@X@X",
"@X@X@X@X@X@X@X@X@X% ; v c.A.`..X!.b.b , %   @X@X@X@X@X@X@X@X@X@X",
"@X@X@X@X@X@X@X@X@X@X@XX O O O O O o X @X@X@X@X@X@X@X@X@X@X@X@X@X",
"@X@X@X@X@X@X@X@X@X@X@X@X@X@X@X@X@X@X@X@X@X@X@X@X@X@X@X@X@X@X@X@X",
"@X@X@X@X@X@X@X@X@X@X@X@X@X@X@X@X@X@X@X@X@X@X@X@X@X@X@X@X@X@X@X@X"
};
