/* XPM */
static const char *copy2_64x64_xpm[] = {
/* columns rows colors chars-per-pixel */
"64 64 181 2 ",
"   c #000054",
".  c #002A64",
"X  c #00396F",
"o  c #004B7D",
"O  c #07497B",
"+  c #3D5A7D",
"@  c #5C697D",
"#  c #556377",
"$  c #8D4B00",
"%  c #935600",
"&  c #A25E00",
"*  c #A46000",
"=  c #875C39",
"-  c #A06937",
";  c #AF7C46",
":  c #B27F50",
">  c #8D7C75",
",  c #A37D60",
"<  c #D58400",
"1  c #DD9322",
"2  c #D78E38",
"3  c #DF9833",
"4  c #E19821",
"5  c #B8864F",
"6  c #BC8754",
"7  c #97847A",
"8  c #B09079",
"9  c #CD9A4B",
"0  c #D79148",
"q  c #DE9953",
"w  c #DE9E5D",
"e  c #C38C58",
"r  c #D4A04C",
"t  c #D8A559",
"y  c #EAAA4B",
"u  c #EAAD5D",
"i  c #E5A954",
"p  c #EEB051",
"a  c #F1B65A",
"s  c #CD9969",
"d  c #CF9B70",
"f  c #DCA769",
"g  c #CFA17B",
"h  c #E4A96B",
"j  c #E4AA64",
"k  c #EEB464",
"l  c #F0B96B",
"z  c #E0AB7D",
"x  c #E5B374",
"c  c #EBBD76",
"v  c #E9B57C",
"b  c #F1BC7D",
"n  c #F7C26A",
"m  c #EEC17F",
"M  c #F6C274",
"N  c #F9C677",
"B  c #F9C779",
"V  c #FBCB7E",
"C  c #F2C179",
"Z  c #004F83",
"A  c #205583",
"S  c #3D6189",
"D  c #27679B",
"F  c #3E72A3",
"G  c #405D80",
"H  c #436287",
"J  c #436C96",
"K  c #4E749C",
"L  c #57759B",
"P  c #67778D",
"I  c #717C8D",
"U  c #617D9F",
"Y  c #4F78A1",
"T  c #577AA2",
"R  c #607FA4",
"E  c #4582AD",
"W  c #5F81A5",
"Q  c #5C83AC",
"!  c #5280A4",
"~  c #4C86B9",
"^  c #5C86B3",
"/  c #548AB4",
"(  c #5189BD",
")  c #5D8DB9",
"_  c #5988B4",
"`  c #6C84A2",
"'  c #6385AB",
"]  c #6685A8",
"[  c #798CA4",
"{  c #7789A1",
"}  c #618EB2",
"|  c #658DB5",
" . c #6793B6",
".. c #6C95BA",
"X. c #6795BA",
"o. c #7296BD",
"O. c #7492B5",
"+. c #4F8FC5",
"@. c #5A93C9",
"#. c #6392C3",
"$. c #679AC4",
"%. c #6597CA",
"&. c #6599CC",
"*. c #699BCC",
"=. c #6E9DC3",
"-. c #70A0C8",
";. c #AF998F",
":. c #B59B8D",
">. c #BFA898",
",. c #8396AC",
"<. c #8993A4",
"1. c #9298A2",
"2. c #829FBA",
"3. c #8EA0B7",
"4. c #96A1B2",
"5. c #9FA5B0",
"6. c #A3A3AB",
"7. c #A1AAB7",
"8. c #AFB3BA",
"9. c #BCBCBC",
"0. c gray71",
"q. c #CBA687",
"w. c #DEAD88",
"e. c #DFB788",
"r. c #E8BE9D",
"t. c #CCB3A2",
"y. c #D4B9A7",
"u. c #C8BDB6",
"i. c #FBCD85",
"p. c #FACE89",
"a. c #F2C88E",
"s. c #FFD385",
"d. c #FCD18D",
"f. c #ECC495",
"g. c #EEC49D",
"h. c #F4CE95",
"j. c #FCD393",
"k. c #FCD69B",
"l. c #DAC5B7",
"z. c #EDC6A0",
"x. c #FEDCA5",
"c. c #FCDAA6",
"v. c #E8CEB8",
"b. c #F1D4BB",
"n. c #FFE7B4",
"m. c #95ACC5",
"M. c #8AA8C5",
"N. c #A9B5C7",
"B. c #B2BAC5",
"V. c #BFC4CC",
"C. c #C5C5C5",
"Z. c gray80",
"A. c #DACDC4",
"S. c #D9D1CC",
"D. c #CBCFD5",
"F. c #C7CBD1",
"G. c #CBD1D8",
"H. c #D4D4D4",
"J. c #DADADA",
"K. c #E7D9CB",
"L. c #F3DECD",
"P. c #E9DCD4",
"I. c #F4E2D4",
"U. c #DBDEE2",
"Y. c #DEE2E6",
"T. c #DFE4E8",
"R. c #E2E2E3",
"E. c #EFE9E5",
"W. c #E2E6EA",
"Q. c #E5E9ED",
"!. c #EAEBEC",
"~. c #F6EDE6",
"^. c #F5F0ED",
"/. c #E6EBF0",
"(. c #ECEEF1",
"). c #EEF1F3",
"_. c #F5F5F5",
"`. c #F6F7F8",
"'. c #F7F8F9",
"]. c #FEFEFE",
"[. c None",
/* pixels */
"[.[.[.[.[.[.[.[.[.[.[.[.[.[.[.[.[.[.[.[.[.[.[.[.[.[.[.[.[.[.[.[.[.[.[.[.[.[.[.[.[.[.[.[.[.[.[.[.[.[.[.[.[.[.[.[.[.[.[.[.[.[.[.[.",
"[.[.[.[.[.[._._._._.!._._._._._._._._._._._.!._._._.^._.H.[.[.[.[.[.[.[.[.[.[.[.[.[.[.[.[.[.[.[.[.[.[.[.[.[.[.[.[.[.[.[.[.[.[.[.",
"[.[.[.[.[.R.].].].].].].].].].].].].].].].].].].].].].].].C.[.[.[.[.[.[.[.[.[.[.[.[.[.[.[.[.[.[.[.[.[.[.[.[.[.[.[.[.[.[.[.[.[.[.",
"[.[.[.[.[.R.].].].].].].].].].].].].].].].].].].].].].]._.!.H.[.[.[.[.[.[.[.[.[.[.[.[.[.[.[.[.[.[.[.[.[.[.[.[.[.[.[.[.[.[.[.[.[.",
"[.[.[.[.[.R.].].].].].].].].].].].].].].].].].].].].].].].!.].Z.[.[.[.[.[.[.[.[.[.[.[.[.[.[.[.[.[.[.[.[.[.[.[.[.[.[.[.[.[.[.[.[.",
"[.[.[.[.[.R.].].].].].].].].].].].].].].].].].].].].].].].!.].].Z.[.[.[.[.[.[.[.[.[.[.[.[.[.[.[.[.[.[.[.[.[.[.[.[.[.[.[.[.[.[.[.",
"[.[.[.[.[.R.].].].].].].].].].E.^.].].].].].].].].].].].]._.].].].Z.[.[.[.[.[.[.[.[.[.[.[.[.[.[.[.[.[.[.[.[.[.[.[.[.[.[.[.[.[.[.",
"[.[.[.[.[.R.].].].].].].].P.q.: = , y.].].].].].].].].].]._.].].].].Z.[.[.[.[.[.[.[.[.[.[.[.[.[.[.[.[.[.[.[.[.[.[.[.[.[.[.[.[.[.",
"[.[.[.[.[.R.].].].].].].E.s d d - - * l.].'.].].].].].].]._._.!.!.!.^.C.[.[.[.[.[.[.[.[.[.[.[.[.[.[.[.[.[.[.[.[.[.[.[.[.[.[.[.[.",
"[.[.[.[.[.R.].].].].].].y.5 f.k.p.C 6 7 ].].].].].].].].]._._._.!.R.J.!.C.[.[.[.[.[.[.[.[.[.[.[.[.[.[.[.[.[.[.[.[.[.[.[.[.[.[.[.",
"[.[.[.[.[.R.].].].].].].;.f n.c.j.s.9 7 ].].].].].].].].].].].].].].].].].H.[.[.[.[.[.[.[.[.[.[.[.[.[.[.[.[.[.[.[.[.[.[.[.[.[.[.",
"[.[.[.[.[.R.].].].].].].y.C k.k.p.V i q.].].].].].].].].].].].].].].].].].R.[.[.[.[.[.[.[.[.[.[.[.[.[.[.[.[.[.[.[.[.[.[.[.[.[.[.",
"[.[.[.[.[.R.].].].].].].f.n p.i.i.b y v ].].].].].].].].].].].].].].].].].R.[.[.[.[.[.[.[.[.[.[.[.[.[.[.[.[.[.[.[.[.[.[.[.[.[.[.",
"[.[.[.[.[.R.].].].].].].~.a N N l k 4 I.].].].].].].].].].].].].].].].].].R.[.[.[.[.[.[.[.[.[.[.[.[.[.[.[.[.[.[.[.[.[.[.[.[.[.[.",
"[.[.[.[.[.R.].].].].].].].b.y u i 1 r.].].].].].].].].].].].].].].].].].].J.[.[.[.[.[.[.[.[.[.[.[.[.[.[.[.[.[.[.[.[.[.[.[.[.[.[.",
"[.[.[.[.[.R.].].].].].].].E.x h f 2 P.].].].].].].].].].].].].].].].].].].J.[.[.[.[.[.[.[.[.[.[.[.[.[.[.[.[.[.[.[.[.[.[.[.[.[.[.",
"[.[.[.[.[.R.].].].].].].B.` c.y < h <.7._.].].].].].].].].].].].].].].].].J.[.[.[.[.[.[.[.[.[.[.[.[.[.[.[.[.[.[.[.[.[.[.[.[.[.[.",
"[.[.[.[.[.R.].].].].].<.o K S.g.w.A.] X I _.].].].].].].].].].].].].].].].J.[.[.[.[.[.[.[.[.[.[.[.[.[.[.[.[.[.[.[.[.[.[.[.[.[.[.",
"[.[.[.[.[.R.].].].].B.Z ` ] Q M.M. .K L . 1.].].].].].].].].].].].].].].].J.[.[.[.[.[.[.[.[.[.[.[.[.[.[.[.[.[.[.[.[.[.[.[.[.[.[.",
"[.[.[.[.[.R.].].].].{ L '  .X.) / ) ^ K + # ].].].].].].].].].].].].].].].H.[.[.[.[.[.[.[.[.[.[.[.[.[.[.[.[.[.[.[.[.[.[.[.[.[.[.",
"[.[.[.[.[.R.].].].].[ Q  .$.*.&.&.#.^ T H @ ^.].]._.!._.!._.!._._.!._.!._.R.R.!.!.!.R.!.!.R.!.R.Z.[.[.[.[.[.[.[.[.[.[.[.[.[.[.[.",
"[.[.[.[.[.R.].].].].4.E -.*.*.&.*.#.| ' O { ].].]._.].].].].].].].].].].].].].].].].].].].].].].].9.[.[.[.[.[.[.[.[.[.[.[.[.[.[.",
"[.[.[.[.[.R.].].].].^.O.~ +.&.&.@.@.~ D P R.].].]._.].].].].].].].].].].].].].].].].].].].].].]._.!.C.[.[.[.[.[.[.[.[.[.[.[.[.[.",
"[.[.[.[.[.R.].].].].].].G.m.o.o.o.O.3.V._.].].].]._.].].].].].].].].].].].].].].].].].].].].].]._.!._.9.[.[.[.[.[.[.[.[.[.[.[.[.",
"[.[.[.[.[.R.].].].].].].].].`._._._.].].].].].].]._.].].].].].].].].].].].].].].].].].].].].].].].!.]._.9.[.[.[.[.[.[.[.[.[.[.[.",
"[.[.[.[.[.Y.].].].].].].].].].].].].].].].].].].]._.].].].].].].].].].].].].].].].].].].].].].].]._.].]._.9.[.[.[.[.[.[.[.[.[.[.",
"[.[.[.[.[.R.].].].].]._._.'.`.`.`.`.'.].].`._.].].(.].].].].].].].^.y.8 8 >.K.].].].].].].].].].]._.].].]._.9.[.[.[.[.[.[.[.[.[.",
"[.[.[.[.[.P.].].].].W.W.Q.W.Q.Q.W.Q.Q.W.Q.Q.Q./.Q.Q.].].].].].]._.g d e % $ * S.].].].].].].].].].^.]._._._.!.9.[.[.[.[.[.[.[.[.",
"[.[.[.[.[.R.].].].].].].].].].].].].].].].].].].]._.].].].].].].l.6 e.a.e.x 5 7 ].].].].].].].].]._.!.!.R.J.J.R.0.[.[.[.[.[.[.[.",
"[.[.[.[.[.R.].].].].W.T.W.Q.Q.W.Q.Q.W.W.Q.Q.Q.Q.Q.W.].].].].].].;.t n.x.j.s.9 > ].].].].].].].].].].].].].].]._._.[.[.[.[.[.[.[.",
"[.[.[.[.[.R.].].].]._.`.`._._.'.'.'.'.].].`.'.'.]._.].].].].].].t.c x.k.d.V t :.].].].].].].].].].].].].].].].].].R.[.[.[.[.[.[.",
"[.[.[.[.[.R.].].`.]._._._.].`.`._.'.`.`._.`.`.`._.!.].].].].].].r.M d.s.V N p x ].].].].].].].].].].].].].].].].].R.[.[.[.[.[.[.",
"[.[.[.[.[.R.].].].].W.W.W.W.W.W.W.Q.W.Q.Q.Q.Q.Q.W.Q.].].].].].].L.a V B N l 1 b.].].].].].].].].].].].].].].].].].R.[.[.[.[.[.[.",
"[.[.[.[.[.J.].`._.].].].].].].].].].].].].].].].]._.].].].].].].].g.p k u 3 z ].].].].].].].].].].].].].].].].].].J.[.[.[.[.[.[.",
"[.[.[.[.[.R.].].]._.T.T.W.R.T.W.W.W.W.W.W.Q.W.Q.Q.W.].].].].].].].~.k j t 2 I.].].].].].].].].].].].].].].].].].].J.[.[.[.[.[.[.",
"[.[.[.[.[.R.].].`.]._._._.`._._._._._._._._.`._.].!.].].].].].].J.4.h.j 0 q 6.G.].].].].].].].].].].].].].].].].].J.[.[.[.[.[.[.",
"[.[.[.[.[.R.]._.].]._._._._._._._._._._._._.`._._.!.].].].].].B.o J K.b q v.] . 5.].].].].].].].].].].].].].].].].J.[.[.[.[.[.[.",
"[.[.[.[.[.R.].]._._.R.U.R.R.R.W.T.W.W.T.W.R.W.W.W.R.].].].].F.o U U O.N.B.2.K L   8.].].].].].].].].].].].].].].].J.[.[.[.[.[.[.",
"[.[.[.[.[.R.]._.'.'.].].].'.'.].`.].].].].'.].].].!.].].].].{ K ]  .| / ~ _ ^ L + # ].].].].].].].].].].].].].].].J.[.[.[.[.[.[.",
"[.[.[.[.[.R.].]._._._._._.'.`.`._._._._._._._._._._.].].].`.[ ]  .X.$.$.%.#.^ T G @ _.].].].].].].].].].].].].].].J.[.[.[.[.[.[.",
"[.[.[.[.[.P.]._._._._._._._._._._.`._._._._._._._.!.].].].].,._ =.*.&.&.&.%.) T S P _.].].].].].].].].].].].].].].J.[.[.[.[.[.[.",
"[.[.[.[.[.R.].'.].`.].`.].].`.].].]._.].].].].].]._.].].].].U.! +.&.*.*.*.&.) F Z H.].].].].].].].].].].].].].].].J.[.[.[.[.[.[.",
"[.[.[.[.[.[.(.Q.!.!.!.!.!.!.R.!.R.!.!.!.R.!.R.!.R.!.].].].].].!.N.o.( +.+.Y ' 4.U.].].].].].].].].].].].].].].].].J.[.[.[.[.[.[.",
"[.[.[.[.[.[.[.[.[.[.[.[.[.[.[.[.[.[.[.[.[.[.[.[.[.H.].].].].].].]._.R.R.R.R._.].].].].].].].].].].].].].].].].].].J.[.[.[.[.[.[.",
"[.[.[.[.[.[.[.[.[.[.[.[.[.[.[.[.[.[.[.[.[.[.[.[.[.R.].].].].].].].].].].].].].].].].].].].].].].].].].].].].].].].J.[.[.[.[.[.[.",
"[.[.[.[.[.[.[.[.[.[.[.[.[.[.[.[.[.[.[.[.[.[.[.[.[.R.].].].].].].].].].].].].].].].].].].].].].].].].].].].].].].].J.[.[.[.[.[.[.",
"[.[.[.[.[.[.[.[.[.[.[.[.[.[.[.[.[.[.[.[.[.[.[.[.[.R.].].].].W.T.U.W.W.W.T.W.W.W.W.Q.W.Q.Q.Q./.Q./././././._.].].].J.[.[.[.[.[.[.",
"[.[.[.[.[.[.[.[.[.[.[.[.[.[.[.[.[.[.[.[.[.[.[.[.[.Y.].].].].].].].].].].].].].].].].].].].].].].].].].].].].].].].J.[.[.[.[.[.[.",
"[.[.[.[.[.[.[.[.[.[.[.[.[.[.[.[.[.[.[.[.[.[.[.[.[.R.].].].].!.(.(.(.(.(.(.(.(.(.).(.).).).).).)._.).).).).`.].].].J.[.[.[.[.[.[.",
"[.[.[.[.[.[.[.[.[.[.[.[.[.[.[.[.[.[.[.[.[.[.[.[.[.R.].].].].!.(.(.(.(.(.(.(.(.(.(.).).).).).).).).).).).).`.].].].J.[.[.[.[.[.[.",
"[.[.[.[.[.[.[.[.[.[.[.[.[.[.[.[.[.[.[.[.[.[.[.[.[.J.].].].'.].].].].].].].].].].].].].].].].].].].].].].].].].'.].H.[.[.[.[.[.[.",
"[.[.[.[.[.[.[.[.[.[.[.[.[.[.[.[.[.[.[.[.[.[.[.[.[.R.].].].].R.Y.Y.Y.T.Y.T.W.T.W.W.T.W.W.W.W.W.W.W.Q.Q./.T.).].].].J.[.[.[.[.[.[.",
"[.[.[.[.[.[.[.[.[.[.[.[.[.[.[.[.[.[.[.[.[.[.[.[.[.R.].].].`.].].].].].].].].].].].].].].].].].].].].].].].]._.].].H.[.[.[.[.[.[.",
"[.[.[.[.[.[.[.[.[.[.[.[.[.[.[.[.[.[.[.[.[.[.[.[.[.R.].].].`.!.!.!.(.(.!.(.!.!.(.(.!.(.(.(.(.!.).(.(.(.).(._.].].].J.[.[.[.[.[.[.",
"[.[.[.[.[.[.[.[.[.[.[.[.[.[.[.[.[.[.[.[.[.[.[.[.[.R.]._.`.`.!.!.!.Q.!.!.Q.!.(.Q.!.!.(.(.Q.(.!.).(.(.(.Q.(._.'.`.].J.[.[.[.[.[.[.",
"[.[.[.[.[.[.[.[.[.[.[.[.[.[.[.[.[.[.[.[.[.[.[.[.[.R.].].].`.].].].].].].].].].].].'.].].].].].].].].].].].'.'.].].J.[.[.[.[.[.[.",
"[.[.[.[.[.[.[.[.[.[.[.[.[.[.[.[.[.[.[.[.[.[.[.[.[.R.].'.].`.Y.U.Y.U.R.Y.Y.R.Y.Y.R.W.T.R.T.T.R.W.W.W.W.W.T.(.]._.].H.[.[.[.[.[.[.",
"[.[.[.[.[.[.[.[.[.[.[.[.[.[.[.[.[.[.[.[.[.[.[.[.[.R.].`._.`.`.`.'.'.'.`.`.`.`.`.`.`.`.`._.].`.`.]._.].`._.]._._.].J.[.[.[.[.[.[.",
"[.[.[.[.[.[.[.[.[.[.[.[.[.[.[.[.[.[.[.[.[.[.[.[.[.R.].`._.`._._._.`.`.`.'.`.`.`.`.`._.].'.`.`.`._._.`.`.`._._.].].H.[.[.[.[.[.[.",
"[.[.[.[.[.[.[.[.[.[.[.[.[.[.[.[.[.[.[.[.[.[.[.[.[.J.]._.`.`.]._.`.`.`.`.'.`.`.`.`._._._._.'.`.`._._._._._.]._._.].J.[.[.[.[.[.[.",
"[.[.[.[.[.[.[.[.[.[.[.[.[.[.[.[.[.[.[.[.[.[.[.[.[.R.].`._._.]._.]._.]._.`.`.`.`._._.]._.]._.]._.]._.]._._.]._._.].H.[.[.[.[.[.[.",
"[.[.[.[.[.[.[.[.[.[.[.[.[.[.[.[.[.[.[.[.[.[.[.[.[.R.]._.].].]._.]._.].].].'.].].].].]._.]._.].].]._.].].].].]._.].H.[.[.[.[.[.[.",
"[.[.[.[.[.[.[.[.[.[.[.[.[.[.[.[.[.[.[.[.[.[.[.[.[.[.[.[.[.[.[.[.[.[.[.[.[.[.[.[.[.[.[.[.[.[.[.[.[.[.[.[.[.[.[.[.[.[.[.[.[.[.[.[.",
"[.[.[.[.[.[.[.[.[.[.[.[.[.[.[.[.[.[.[.[.[.[.[.[.[.[.[.[.[.[.[.[.[.[.[.[.[.[.[.[.[.[.[.[.[.[.[.[.[.[.[.[.[.[.[.[.[.[.[.[.[.[.[.[."
};
