/* XPM */
static const char *copy2_48x48_xpm[] = {
/* columns rows colors chars-per-pixel */
"48 48 136 2 ",
"   c #3A506D",
".  c #405A7A",
"X  c #415B7B",
"o  c #89531F",
"O  c #835830",
"+  c #A06B38",
"@  c #8B6948",
"#  c #B67C48",
"$  c #D49A4F",
"%  c #C99757",
"&  c #E3A455",
"*  c #E7A855",
"=  c #CD9B62",
"-  c #CB9B6C",
";  c #C59971",
":  c #DFA260",
">  c #D6A76F",
",  c #E9AD60",
"<  c #F3BD6E",
"1  c #E6B276",
"2  c #EFBD71",
"3  c #ECB978",
"4  c #EEBE79",
"5  c #EFBE7E",
"6  c #F7C374",
"7  c #F7C476",
"8  c #FACB7F",
"9  c #456183",
"0  c #48678B",
"q  c #4D6B8F",
"w  c #5D6E85",
"e  c #5D6F85",
"r  c #4F6D91",
"t  c #4D6D94",
"y  c #52769F",
"u  c #51789F",
"i  c #657A94",
"p  c #567BA6",
"a  c #5D7CA0",
"s  c #5D7CA1",
"d  c #5F7EA2",
"f  c #5F7EA3",
"g  c #5A83AA",
"h  c #5A85B2",
"j  c #5E8AB9",
"k  c #6286AA",
"l  c #6486AB",
"z  c #628BB0",
"x  c #658CB0",
"c  c #668EB3",
"v  c #608EBE",
"b  c #6697BF",
"n  c #6393C5",
"m  c #6495C4",
"M  c #6698C2",
"N  c #6698C5",
"B  c #6496C8",
"V  c #6597C9",
"C  c #6699CC",
"Z  c gray53",
"A  c #8B8B8B",
"S  c gray62",
"D  c #BC9F83",
"F  c #8B96A4",
"G  c #8999AD",
"H  c #969FAB",
"J  c #909EAD",
"K  c #98A1AD",
"L  c #98A2AE",
"P  c #94A2B4",
"I  c #9AA4B1",
"U  c #93A7BE",
"Y  c gray64",
"T  c gray65",
"R  c gray68",
"E  c #AEAEAE",
"W  c #A4ACB6",
"Q  c #A6AFBA",
"!  c gray69",
"~  c gray70",
"^  c #B6B6B6",
"/  c gray",
"(  c #C7A587",
")  c #C3AB95",
"_  c #C5B4A3",
"`  c #D1BAA4",
"'  c #EEC086",
"]  c #F3CA8F",
"[  c #FBCE88",
"{  c #FBD08B",
"}  c #F1CD9E",
"|  c #FCD79C",
" . c #DFC5AD",
".. c #CFC8BC",
"X. c #DCC7B4",
"o. c #E7C3A1",
"O. c #EFCCA2",
"+. c #EECDA8",
"@. c #FDDAA4",
"#. c #F6DCB9",
"$. c #AAB9CC",
"%. c #BDC3CA",
"&. c #BFCDDB",
"*. c #C3C3C3",
"=. c gray77",
"-. c gray78",
";. c #C8C8C8",
":. c gray79",
">. c #CACFD4",
",. c #D0D0D0",
"<. c LightGray",
"1. c gray83",
"2. c gray84",
"3. c gray87",
"4. c #E4E4E4",
"5. c gray90",
"6. c gray91",
"7. c #E9E9E9",
"8. c #EAEAEA",
"9. c #ECECEC",
"0. c gray94",
"q. c gray95",
"w. c #F1F2F4",
"e. c #F2F4F5",
"r. c #F3F4F6",
"t. c gray97",
"y. c #FDF8F2",
"u. c #F8F8F8",
"i. c #F9F9F9",
"p. c gray98",
"a. c #FBFBFB",
"s. c gray99",
"d. c #FDFDFD",
"f. c #FEFEFE",
"g. c white",
"h. c None",
/* pixels */
"h.h.h.h.^ ^ ^ ^ ^ ^ ^ ^ ^ ^ ^ ^ ^ ^ ^ ^ ~ h.h.h.h.h.h.h.h.h.h.h.h.h.h.h.h.h.h.h.h.h.h.h.h.h.h.h.",
"h.h.h.h.;.g.g.g.g.g.g.g.g.g.g.g.g.g.g.0.=.! h.h.h.h.h.h.h.h.h.h.h.h.h.h.h.h.h.h.h.h.h.h.h.h.h.h.",
"h.h.h.h.;.g.g.g.g.g.g.g.g.g.g.g.g.g.g.a.2.*.E h.h.h.h.h.h.h.h.h.h.h.h.h.h.h.h.h.h.h.h.h.h.h.h.h.",
"h.h.h.h.;.g.g.g.g.g.g.g.g.g.g.g.g.g.g.g.3.8.*.E h.h.h.h.h.h.h.h.h.h.h.h.h.h.h.h.h.h.h.h.h.h.h.h.",
"h.h.h.h.;.g.g.g.g.g.g.g.g.g.g.g.g.g.g.g.5.d.8.*.Y h.h.h.h.h.h.h.h.h.h.h.h.h.h.h.h.h.h.h.h.h.h.h.",
"h.h.h.h.;.g.g.g.g.g.g.g.X.( ) ` g.g.g.g.7.g.d.9.:.T h.h.h.h.h.h.h.h.h.h.h.h.h.h.h.h.h.h.h.h.h.h.",
"h.h.h.h.;.g.g.g.g.g.g. .o.- + # D g.g.g.7.g.g.d.9.-.T h.h.h.h.h.h.h.h.h.h.h.h.h.h.h.h.h.h.h.h.h.",
"h.h.h.h.;.g.g.g.g.g.g.; = ] 4 > O g.g.g.8.g.g.g.d.6./ T h.h.h.h.h.h.h.h.h.h.h.h.h.h.h.h.h.h.h.h.",
"h.h.h.h.;.g.g.g.g.g.g.o | @.{ 2 @ g.g.g.q.7.4.3.1.,.<./ T h.h.h.h.h.h.h.h.h.h.h.h.h.h.h.h.h.h.h.",
"h.h.h.h.;.g.g.g.g.g.g.$ [ { 8 < % g.g.g.g.g.g.g.g.f.t.8.^ h.h.h.h.h.h.h.h.h.h.h.h.h.h.h.h.h.h.h.",
"h.h.h.h.;.g.g.g.g.g.g.} 6 7 < * O.g.g.g.g.g.g.g.g.g.g.g.S h.h.h.h.h.h.h.h.h.h.h.h.h.h.h.h.h.h.h.",
"h.h.h.h.;.g.g.g.g.g.g.y.' , & 1 g.g.g.g.g.g.g.g.g.g.g.g.Z h.h.h.h.h.h.h.h.h.h.h.h.h.h.h.h.h.h.h.",
"h.h.h.h.;.g.g.g.g.g.r.G ..5 : _ P r.g.g.g.g.g.g.g.g.g.g.Z h.h.h.h.h.h.h.h.h.h.h.h.h.h.h.h.h.h.h.",
"h.h.h.h.;.g.g.g.g.e.i q $.#.+.U 9 e e.^ ^ ^ ^ ^ ^ ^ ^ ^ ^ ^ ^ ^ ^ ^ ^ ~ h.h.h.h.h.h.h.h.h.h.h.h.",
"h.h.h.h.;.g.g.g.g.I r s l x z g t   Q ^ g.g.g.g.g.g.g.g.g.g.g.g.g.g.0.=.! h.h.h.h.h.h.h.h.h.h.h.",
"h.h.h.h.;.g.g.g.g.L f c b N m j y . K ^ g.g.g.g.g.g.g.g.g.g.g.g.g.g.a.2.*.E h.h.h.h.h.h.h.h.h.h.",
"h.h.h.h.;.g.g.g.g.W k M C C B v p X W ^ g.g.g.g.g.g.g.g.g.g.g.g.g.g.g.3.8.*.E h.h.h.h.h.h.h.h.h.",
"h.h.h.h.;.g.g.g.g.g.J u n C V h 0 F g.^ g.g.g.g.g.g.g.g.g.g.g.g.g.g.g.5.d.8.*.Y h.h.h.h.h.h.h.h.",
"h.h.h.h.;.g.f.f.f.f.f.w.%.H H >.w.f.f.^ g.g.g.g.g.g.g.X.( ) ` g.g.g.g.7.g.d.9.:.T h.h.h.h.h.h.h.",
"h.h.h.h.;.g.f.f.f.f.f.f.f.f.f.f.f.f.f.^ g.g.g.g.g.g. .o.- + # D g.g.g.7.g.g.d.9.-.T h.h.h.h.h.h.",
"h.h.h.h.;.g.f.f.f.&.&.&.&.&.&.&.&.&.&.^ g.g.g.g.g.g.; = ] 4 > O g.g.g.8.g.g.g.d.6./ T h.h.h.h.h.",
"h.h.h.h.;.g.d.d.d.d.d.d.d.d.d.d.d.d.d.^ g.g.g.g.g.g.o | @.{ 2 @ g.g.g.q.7.4.3.1.,.<./ T h.h.h.h.",
"h.h.h.h.;.g.d.d.d.d.d.d.d.d.d.d.d.d.d.^ g.g.g.g.g.g.$ [ { 8 < % g.g.g.g.g.g.g.g.f.t.8.^ h.h.h.h.",
"h.h.h.h.;.g.s.s.s.&.&.&.&.&.&.&.&.&.&.^ g.g.g.g.g.g.} 6 7 < * O.g.g.g.g.g.g.g.g.g.g.g.S h.h.h.h.",
"h.h.h.h.;.g.s.s.s.s.s.s.s.s.s.s.s.s.s.^ g.g.g.g.g.g.y.' , & 1 g.g.g.g.g.g.g.g.g.g.g.g.Z h.h.h.h.",
"h.h.h.h.;.g.a.a.a.a.a.a.a.a.a.a.a.a.a.^ g.g.g.g.g.r.G ..3 : _ P r.g.g.g.g.g.g.g.g.g.g.Z h.h.h.h.",
"h.h.h.h.;.g.p.p.p.&.&.&.&.&.&.&.&.&.&.^ g.g.g.g.e.i q $.#.+.U 9 w e.g.g.g.g.g.g.g.g.g.Z h.h.h.h.",
"h.h.h.h.;.g.i.i.i.i.i.i.i.i.i.i.i.i.i.^ g.g.g.g.I r a l x z g t   Q g.g.g.g.g.g.g.g.g.Z h.h.h.h.",
"h.h.h.h.;.g.i.i.i.i.i.i.i.i.i.i.i.i.i.^ g.g.g.g.L d c b N m j y . K g.g.g.g.g.g.g.g.g.Z h.h.h.h.",
"h.h.h.h.;.g.u.u.u.u.u.u.u.u.u.u.u.u.u.^ g.g.g.g.W k M C C B v p X W g.g.g.g.g.g.g.g.g.Z h.h.h.h.",
"h.h.h.h.;.g.i.i.i.i.i.i.i.i.i.i.i.i.i.^ g.g.g.g.g.J u n C V h 0 F g.g.g.g.g.g.g.g.g.g.Z h.h.h.h.",
"h.h.h.h.;.g.g.g.g.g.g.g.g.g.g.g.g.g.g.^ g.f.f.f.f.f.w.%.H H >.w.f.f.f.f.f.f.f.f.f.f.g.Z h.h.h.h.",
"h.h.h.h.R A Z Z Z Z Z Z Z Z Z Z Z Z Z ^ g.f.f.f.f.f.f.f.f.f.f.f.f.f.f.f.f.f.f.f.f.f.g.Z h.h.h.h.",
"h.h.h.h.h.h.h.h.h.h.h.h.h.h.h.h.h.h.h.^ g.f.f.f.&.&.&.&.&.&.&.&.&.&.&.&.&.&.&.f.f.f.g.Z h.h.h.h.",
"h.h.h.h.h.h.h.h.h.h.h.h.h.h.h.h.h.h.h.^ g.d.d.d.d.d.d.d.d.d.d.d.d.d.d.d.d.d.d.d.d.f.g.Z h.h.h.h.",
"h.h.h.h.h.h.h.h.h.h.h.h.h.h.h.h.h.h.h.^ g.d.d.d.d.d.d.d.d.d.d.d.d.d.d.d.d.d.d.d.d.f.g.Z h.h.h.h.",
"h.h.h.h.h.h.h.h.h.h.h.h.h.h.h.h.h.h.h.^ g.s.s.s.&.&.&.&.&.&.&.&.&.&.&.&.&.&.&.s.s.d.g.Z h.h.h.h.",
"h.h.h.h.h.h.h.h.h.h.h.h.h.h.h.h.h.h.h.^ g.s.s.s.s.s.s.s.s.s.s.s.s.s.s.s.s.s.s.s.s.s.g.Z h.h.h.h.",
"h.h.h.h.h.h.h.h.h.h.h.h.h.h.h.h.h.h.h.^ g.a.a.a.a.a.a.a.a.a.a.a.a.a.a.a.a.a.a.a.a.s.g.Z h.h.h.h.",
"h.h.h.h.h.h.h.h.h.h.h.h.h.h.h.h.h.h.h.^ g.p.p.p.&.&.&.&.&.&.&.&.&.&.&.&.&.&.&.p.p.a.g.Z h.h.h.h.",
"h.h.h.h.h.h.h.h.h.h.h.h.h.h.h.h.h.h.h.^ g.i.i.i.i.i.i.i.i.i.i.i.i.i.i.i.i.i.i.i.i.a.g.Z h.h.h.h.",
"h.h.h.h.h.h.h.h.h.h.h.h.h.h.h.h.h.h.h.^ g.i.i.i.i.i.i.i.i.i.i.i.i.i.i.i.i.i.i.i.i.p.g.Z h.h.h.h.",
"h.h.h.h.h.h.h.h.h.h.h.h.h.h.h.h.h.h.h.^ g.u.u.u.u.u.u.u.u.u.u.u.u.u.u.u.u.u.u.u.u.i.g.Z h.h.h.h.",
"h.h.h.h.h.h.h.h.h.h.h.h.h.h.h.h.h.h.h.^ g.i.i.i.i.i.i.i.i.i.i.i.i.i.i.i.i.i.i.i.i.p.g.Z h.h.h.h.",
"h.h.h.h.h.h.h.h.h.h.h.h.h.h.h.h.h.h.h.^ g.g.g.g.g.g.g.g.g.g.g.g.g.g.g.g.g.g.g.g.g.g.g.Z h.h.h.h.",
"h.h.h.h.h.h.h.h.h.h.h.h.h.h.h.h.h.h.h.R A Z Z Z Z Z Z Z Z Z Z Z Z Z Z Z Z Z Z Z Z Z Z Z h.h.h.h.",
"h.h.h.h.h.h.h.h.h.h.h.h.h.h.h.h.h.h.h.h.h.h.h.h.h.h.h.h.h.h.h.h.h.h.h.h.h.h.h.h.h.h.h.h.h.h.h.h.",
"h.h.h.h.h.h.h.h.h.h.h.h.h.h.h.h.h.h.h.h.h.h.h.h.h.h.h.h.h.h.h.h.h.h.h.h.h.h.h.h.h.h.h.h.h.h.h.h."
};
