/* XPM */
static const char *copy2_32x32_xpm[] = {
/* columns rows colors chars-per-pixel */
"32 32 88 1 ",
"  c #BE9D7F",
". c #C58D54",
"X c #D6A764",
"o c #DBA76C",
"O c #DCAB71",
"+ c #DAAF76",
"@ c #EFB766",
"# c #ECB670",
"$ c #E8B77D",
"% c #F9C97D",
"& c #F9C97E",
"* c #466285",
"= c #466385",
"- c #4E6F96",
"; c #567499",
": c #62768E",
"> c #547CA6",
", c #72859E",
"< c #72869E",
"1 c #5882AE",
"2 c #5883AF",
"3 c #6285A9",
"4 c #7287A0",
"5 c #7B95AE",
"6 c #658BB0",
"7 c #608DBD",
"8 c #6698C5",
"9 c #6598C9",
"0 c gray53",
"q c #8B8B8B",
"w c gray55",
"e c #99A3B0",
"r c #9AA5B2",
"t c #9EAAB9",
"y c #A9A9A9",
"u c gray67",
"i c #AEAEAE",
"p c #A2AFBE",
"a c gray70",
"s c gray71",
"d c #B6B6B6",
"f c #C2AA92",
"g c #C4AF9C",
"h c #C9AF98",
"j c #D0B396",
"k c #DBB792",
"l c #E4BB86",
"z c #FCD69A",
"x c #EACFAD",
"c c #E5CDB8",
"v c #F2D5B0",
"b c #8BABC7",
"n c #BFCDDB",
"m c #C1C1C2",
"M c #C2C1C2",
"N c #C5C5C5",
"B c #C6CACD",
"V c gray80",
"C c #CECECE",
"Z c #CACFD4",
"A c #D0D0D0",
"S c #D2D2D2",
"D c #D7DBDF",
"F c gray85",
"G c #DADADA",
"H c #DFDFDF",
"J c #E5D5C7",
"K c gray88",
"L c #E2E2E2",
"P c #E4E4E4",
"I c #E6E6E6",
"U c #E7E7E7",
"Y c #E4E6E9",
"T c #E9E9E9",
"R c gray92",
"E c #EEEEEE",
"W c #F7F4F1",
"Q c #F3F4F6",
"! c #F4F4F4",
"~ c gray97",
"^ c #F8F8F8",
"/ c #F9F9F9",
"( c #FBFBFB",
") c gray99",
"_ c #FDFDFD",
"` c #FEFEFE",
"' c white",
"] c None",
/* pixels */
"]]dddddddddays]]]]]]]]]]]]]]]]]]",
"]]d'''''''''SVi]]]]]]]]]]]]]]]]]",
"]]d'''''''''P!Vi]]]]]]]]]]]]]]]]",
"]]d''''c hW'K'!Ai]]]]]]]]]]]]]]]",
"]]d'''JkO.g'H''!Ni]]]]]]]]]]]]]]",
"]]d'''j+zXf'TULGCi]]]]]]]]]]]]]]",
"]]d'''v%&@x'''''`u]]]]]]]]]]]]]]",
"]]d''''l#o'''''''q]]]]]]]]]]]]]]",
"]]d''Q<B$m:Q'''''0]]]]]]]]]]]]]]",
"]]d''t;3b6*e'dddddddddays]]]]]]]",
"]]d''p6897-r'd'''''''''SVi]]]]]]",
"]]d'`Y521>4D`d'''''''''P!Vi]]]]]",
"]]d'````Z````d''''c hW'K'!Ai]]]]",
"]]d'_nnnnnnnnd'''JkO.g'I''!Ni]]]",
"]]d'_________d'''j+zXf'RIGFCi]]]",
"]]d')nnnnnnnnd'''v%&@x''''~Eu]]]",
"]]d'(((((((((d''''l#o'''''''q]]]",
"]]d'/////////d''Q,B$M:Q'''''0]]]",
"]]d'^^^^^^^^^d''t;3b6=e'''''0]]]",
"]]d''''''''''d''p6897-r'''''0]]]",
"]]iw000000000d'`Y521>4D````'0]]]",
"]]]]]]]]]]]]]d'````Z```````'0]]]",
"]]]]]]]]]]]]]d'_nnnnnnnnnn_'0]]]",
"]]]]]]]]]]]]]d'____________'0]]]",
"]]]]]]]]]]]]]d')nnnnnnnnnn)'0]]]",
"]]]]]]]]]]]]]d'(((((((((((('0]]]",
"]]]]]]]]]]]]]d'////////////'0]]]",
"]]]]]]]]]]]]]d'^^^^^^^^^^^^'0]]]",
"]]]]]]]]]]]]]d''''''''''''''0]]]",
"]]]]]]]]]]]]]iw00000000000000]]]",
"]]]]]]]]]]]]]]]]]]]]]]]]]]]]]]]]",
"]]]]]]]]]]]]]]]]]]]]]]]]]]]]]]]]"
};
