/* XPM */
static const char *copy_24x24_xpm[] = {
/* columns rows colors chars-per-pixel */
"24 24 30 1 ",
"  c gray53",
". c #8B8B8B",
"X c gray55",
"o c gray62",
"O c #A5A5A5",
"+ c gray65",
"@ c gray66",
"# c #AEAEAE",
"$ c #B1B1B1",
"% c #B6B6B6",
"& c #BFCDDB",
"* c gray77",
"= c gray80",
"- c #CDCDCD",
"; c #DADADA",
": c #E4E4E4",
"> c #E6E6E6",
", c gray91",
"< c #EEEEEE",
"1 c gray95",
"2 c #F4F4F4",
"3 c #F8F8F8",
"4 c #F9F9F9",
"5 c gray98",
"6 c #FBFBFB",
"7 c gray99",
"8 c #FDFDFD",
"9 c #FEFEFE",
"0 c white",
"q c None",
/* pixels */
"qqq%%%%%%%%%$o%qqqqqqqqq",
"qqq%000000000-=%qqqqqqqq",
"qqq%000000000<2=%qqqqqqq",
"qqq%00%%%%%%%%%$o%qqqqqq",
"qqq%00%000000000-=%qqqqq",
"qqq%00%000000000<2=%qqqq",
"qqq%00%000000000>02=%qqq",
"qqq%00%000000000:002*%qq",
"qqq%00%00000000031,;*@qq",
"qqq%00%00000000000009@qq",
"qqq%00%00&&&&&&&&&&00.qq",
"qqq%09%00000000000000 qq",
"qqq%09%00000000000000 qq",
"qqq%08%00&&&&&&&&&&00 qq",
"qqq%08%09999999999990 qq",
"qqq%07%09999999999990 qq",
"qqq%06%08&&&&&&&&&&80 qq",
"qqq%04%08888888888880 qq",
"qqq%05%07777777777770 qq",
"qqq%00%06&&&&&&&&&&60 qq",
"qqq#X %04444444444440 qq",
"qqqqqq%03333333333330 qq",
"qqqqqq%00000000000000 qq",
"qqqqqq#+OOOOOOOOOOOOO qq"
};
