/* XPM */
static const char *cut_64x64_xpm[] = {
/* columns rows colors chars-per-pixel */
"64 64 188 2 ",
"   c #00008C",
".  c #264391",
"X  c #1B40A7",
"o  c #004CB8",
"O  c #2647A4",
"+  c #3355A8",
"@  c #2951BA",
"#  c #325EB9",
"$  c #4566B4",
"%  c #4A67B1",
"&  c #4266BF",
"*  c #4569BB",
"=  c #496BBD",
"-  c #4D74B9",
";  c #5275B5",
":  c #5478BD",
">  c #194FC2",
",  c #115ECE",
"<  c #2455C4",
"1  c #285AC7",
"2  c #2857C8",
"3  c #2C5CC9",
"4  c #255EC9",
"5  c #335FC1",
"6  c #1A62CA",
"7  c #2760CA",
"8  c #2F63CC",
"9  c #3763C2",
"0  c #3462CD",
"q  c #3B63CC",
"w  c #3368CE",
"e  c #3C6ACC",
"r  c #3F72CD",
"t  c #2463D3",
"y  c #356DD2",
"u  c #3C6DD3",
"i  c #3E6FD8",
"p  c #3666D1",
"a  c #3B73D5",
"s  c #3E74D9",
"d  c #3F79D9",
"f  c #4C6EC1",
"g  c #456BCA",
"h  c #4770C2",
"j  c #4F75C4",
"k  c #4D7AC5",
"l  c #4571CC",
"z  c #4C75C9",
"x  c #4B7BCC",
"c  c #537BC8",
"v  c #426DD3",
"b  c #486FD0",
"n  c #4672D2",
"m  c #4579D4",
"M  c #4A79D4",
"N  c #4977DB",
"B  c #427CDA",
"V  c #497ADD",
"C  c #4874D6",
"Z  c #547BD1",
"A  c #547CD8",
"S  c #4F83CD",
"D  c #5982C6",
"F  c #5684CC",
"G  c #5C82CC",
"H  c #4881D7",
"J  c #4482DE",
"K  c #4D84DC",
"L  c #4C88DC",
"P  c #5685D4",
"I  c #5D84D5",
"U  c #5B8AD3",
"Y  c #5B85DA",
"T  c #548ADE",
"R  c #5A8DDA",
"E  c #518BD6",
"W  c #5291DC",
"Q  c #5E91DB",
"!  c #628CCE",
"~  c #7992CA",
"^  c #658DDB",
"/  c #688FDA",
"(  c #6290D6",
")  c #6493DE",
"_  c #6994DE",
"`  c #6B9BDA",
"'  c #6998D8",
"]  c #749CD7",
"[  c #4384E0",
"{  c #4C87E1",
"}  c #4688E2",
"|  c #4A8BE4",
" . c #548CE3",
".. c #558AE6",
"X. c #4C90E7",
"o. c #4F94EA",
"O. c #5692E6",
"+. c #5A92E4",
"@. c #579CE6",
"#. c #5293EB",
"$. c #5E93EA",
"%. c #579AEC",
"&. c #5395F0",
"*. c #669BE3",
"=. c #689BE2",
"-. c #6996E8",
";. c #649CEB",
":. c #689DEE",
">. c #6294E5",
",. c #5BA2EB",
"<. c #5DA6F5",
"1. c #5FA5F9",
"2. c #5EAFF8",
"3. c #55A3F2",
"4. c #5EB4FF",
"5. c #69A1E3",
"6. c #66A2EE",
"7. c #6DAAED",
"8. c #78A6E8",
"9. c #73A9EC",
"0. c #62A4F4",
"q. c #75A8F2",
"w. c #61B7FF",
"e. c #6BB3FB",
"r. c #65BBFF",
"t. c #69BFFF",
"y. c #6DB0F5",
"u. c #74BCFD",
"i. c #6FC3FF",
"p. c #73C3FF",
"a. c #7BC3FF",
"s. c #7AC9FF",
"d. c #9FA9B5",
"f. c #9DACBC",
"g. c #95A5B9",
"h. c #A2AEBC",
"j. c #85A7DE",
"k. c #89A1D4",
"l. c #A5B3C3",
"z. c #AEBCCC",
"x. c #B2BECB",
"c. c #88ADE2",
"v. c #8CB1E4",
"b. c #95BDEE",
"n. c #85B4F1",
"m. c #85BBF7",
"M. c #8ABEF7",
"N. c #B4C1CE",
"B. c #BBC3CD",
"V. c #B9C5D2",
"C. c #BFCBD7",
"Z. c #B9C8D7",
"A. c #8CC5FD",
"S. c #84CDFF",
"D. c #97C5F5",
"F. c #94C5F9",
"G. c #9BCCFF",
"H. c #95D6FF",
"J. c #9CD0FF",
"K. c #BBCBE3",
"L. c #B0C1E4",
"P. c #C2C7CF",
"I. c #C2CDDA",
"U. c #C4D0DD",
"Y. c #C8D1DA",
"T. c #D2D9DF",
"R. c #C7D5E4",
"E. c #C9D6E3",
"W. c #CED9E6",
"Q. c #CDDBEA",
"!. c #D5DDE6",
"~. c #D3DEEA",
"^. c #D5E1ED",
"/. c #DBE4ED",
"(. c #DBE6F2",
"). c #DFE8F2",
"_. c #E1E7EC",
"`. c #E4EBF4",
"'. c #E8EFF5",
"]. c #E2EDFA",
"[. c #E5F1FB",
"{. c #EBF3FB",
"}. c #EEF9FF",
"|. c #EEF1F5",
" X c #F1F6FC",
".X c #F4FBFE",
"XX c #FDFEFF",
"oX c None",
/* pixels */
"oXoXoXoXoXoXoXoXoXoXoXoXoXoXoXoXoXoXoXoXoXoXoXoXoXoXoXoXoXoXoXoXoXoXoXoXoXoXoXoXoXoXoXoXoXoXoXoXoXoXoXoXoXoXoXoXoXoXoXoXoXoXoXoX",
"oXoXoXoXoXoXoXoXoXoXoXoXoXoXoXoXoXoXoXoXoXoXoXoXoXoXoXoXoXoXoXoXoXoXh.oXoXoXoXoXoXoXoXoXoXoXoXoXoXoXoXoXoXoXoXoXoXoXoXoXoXoXoXoX",
"oXoXoXoXoXoXoXoXoXoXoXoXoXoXoXoXoXoXoXoXoXoXoXoXoXoXoXoXoXoXoXoXoXoX{.oXoXoXoXoXoXoXoXoXoXoXoXoXoXoXoXoXoXoXoXoXoXoXoXoXoXoXoXoX",
"oXoXoXoXoXoXoXoXoXoXoXoXoXoXoXoXoXoXoXoXoXoXoXoXoXoXoXoXoXoXoXoXoX/.].oXoXoXoXoXoXoXoXoXoXoXoXoXoXoXoXoXoXoXoXoXoXoXoXoXoXoXoXoX",
"oXoXoXoXoXoXoXoXoXoXoXoXoXoXoXoXoXoXoXoXoXoXoXoXoXoXoXoXoXoXoXoXz..X^.oXoXoXoXoXoXoXoXoXoXoXoXoXoXoXoXoXoXoXoXoXoXoXoXoXoXoXoXoX",
"oXoXoXoXoXoXoXoXoXoXoXoXoXoXoXoXoXoXoXoXoXoXoXoXoXoXoXoXoXoXoXoXU.}.^.oXoXoXoXoXoXoXoXoXoXoXoXoXoXoXoXoXoXoXoXoXoXoXoXoXoXoXoXoX",
"oXoXoXoXoXoXoXoXoXoXoXoXoXoXoXoXoXoXoXoXoXoXoXoXoXoXoXoXoXoXoXoXQ.[.^.oXoXoXoXoXoXoXoXoXoXoXoXoXoXoXoXoXoXoXoXoXoXoXoXoXoXoXoXoX",
"oXoXoXoXoXoXoXoXoXoXoXoXoXoXoXoXoXoXoXoXoXoXoXoXoXoXoXoXoXoXoXoX[.[.(.oXoXoXoXoXoXoXoXoXoXoXoXoXoXoXoXoXoXoXoXoXoXoXoXoXoXoXoXoX",
"oXoXoXoXoXoXoXoXoXoXoXoXoXoXoXoXoXoXoXoXoXoXoXoXoXoXoXoXoXoXoXZ.}.[.(.oXoXoXoXoXoXoXoXoXoXoXoXoXoXoXoXoXoXoXx.oXoXoXoXoXoXoXoXoX",
"oXoXoXoXoXoXoXoXoXoXoXoXoXoXoXoXoXoXoXoXoXoXoXoXoXoXoXoXoXoXoXU.}.[.(.oXoXoXoXoXoXoXoXoXoXoXoXoXoXoXoXoXoXB.XXoXoXoXoXoXoXoXoXoX",
"oXoXoXoXoXoXoXoXoXoXoXoXoXoXoXoXoXoXoXoXoXoXoXoXoXoXoXoXoXoXoXW..X{./.oXoXoXoXoXoXoXoXoXoXoXoXoXoXoXoXoXx.XX~.oXoXoXoXoXoXoXoXoX",
"oXoXoXoXoXoXoXoXoXoXoXoXoXoXoXoXoXoXoXoXoXoXoXoXoXoXoXoXoXoXoX!..X X(.oXoXoXoXoXoXoXoXoXoXoXoXoXoXoXoXx..X.XN.oXoXoXoXoXoXoXoXoX",
"oXoXoXoXoXoXoXoXoXoXoXoXoXoXoXoXoXoXoXoXoXoXoXoXoXoXoXoXoXoXoX_..X.X(.oXoXoXoXoXoXoXoXoXoXoXoXoXoXoXx..X[.(.oXoXoXoXoXoXoXoXoXoX",
"oXoXoXoXoXoXoXoXoXoXoXoXoXoXoXoXoXoXoXoXoXoXoXoXoXoXoXoXoXoXoX'..X.X`.oXoXoXoXoXoXoXoXoXoXoXoXoXoXN.XX].[.N.oXoXoXoXoXoXoXoXoXoX",
"oXoXoXoXoXoXoXoXoXoXoXoXoXoXoXoXoXoXoXoXoXoXoXoXoXoXoXoXoXoXoX.X.XXX`.oXoXoXoXoXoXoXoXoXoXoXoXoXN.XX[.).W.oXoXoXoXoXoXoXoXoXoXoX",
"oXoXoXoXoXoXoXoXoXoXoXoXoXoXoXoXoXoXoXoXoXoXoXoXoXoXoXoXoXoXoXXXXXXX`.oXoXoXoXoXoXoXoXoXoXoXoXB.XX[.[.}.f.oXoXoXoXoXoXoXoXoXoXoX",
"oXoXoXoXoXoXoXoXoXoXoXoXoXoXoXoXoXoXoXoXoXoXoXoXoXoXoXoXoXoXoXXXXXXX'.oXoXoXoXoXoXoXoXoXoXoXB.XX{.'..XC.oXoXoXoXoXoXoXoXoXoXoXoX",
"oXoXoXoXoXoXoXoXoXoXoXoXoXoXoXoXoXoXoXoXoXoXoXoXoXoXoXoXoXoXT.XXXXXX`.oXoXoXoXoXoXoXoXoXoXP.XX X{..X^.oXoXoXoXoXoXoXoXoXoXoXoXoX",
"oXoXoXoXoXoXoXoXoXoXoXoXoXoXoXoXoXoXoXoXoXoXoXoXoXoXoXoXoXoX!.XXXXXX`.oXoXoXoXoXoXoXoXoXP.XXXX X.X'.oXoXoXoXoXoXoXoXoXoXoXoXoXoX",
"oXoXoXoXoXoXoXoXoXoXoXoXoXoXoXoXoXoXoXoXoXoXoXoXoXoXoXoXoXoX_.XX.XXX`.oXoXoXoXoXoXoXoXP.XXXX.X.XXXd.oXoXoXoXoXoXoXoXoXoXoXoXoXoX",
"oXoXoXoXoXoXoXoXoXoXoXoXoXoXoXoXoXoXoXoXoXoXoXoXoXoXoXoXoXoX/.XX.XXX_.oXoXoXoXoXoXoXP.XXXXXXXXXXB.oXoXoXoXoXoXoXoXoXoXoXoXoXoXoX",
"oXoXoXoXoXoXoXoXoXoXoXoXoXoXoXoXoXoXoXoXoXoXoXoXoXoXoXoXoXoX`.XX XXX`.oXoXoXoXoXoXP.XXXXXXXXXXT.oXoXoXoXoXoXoXoXoXoXoXoXoXoXoXoX",
"oXoXoXoXoXoXoXoXoXoXoXoXoXoXoXoXoXoXoXoXoXoXoXoXoXoXoXoXoXoX`.XX XXX`.oXoXoXoXoXB.XXXX.XXXXX_.oXoXoXoXoXoXoXoXoXoXoXoXoXoXoXoXoX",
"oXoXoXoXoXoXoXoXoXoXoXoXoXoXoXoXoXoXoXoXoXoXoXoXoXoXoXoXoXoX'..X X.X`.oXoXoXoXB.XXXX XXXXX|.oXoXoXoXoXoXoXoXoXoXoXoXoXoXoXoXoXoX",
"oXoXoXoXoXoXoXoXoXoXoXoXoXoXoXoXoXoXoXoXoXoXoXoXoXoXoXoXoXoX.X X|..X_.oXoXoXV.XX.X X.XXXXXh.oXoXoXoXoXoXoXoXoXoXoXoXoXoXoXoXoXoX",
"oXoXoXoXoXoXoXoXoXoXoXoXoXoXoXoXoXoXoXoXoXoXoXoXoXoXoXoXoXoX.X.X|..X`.oXoXB.XX.X X X.XXXx.oXoXoXoXoXoXoXoXoXoXoXoXoXoXoXoXoXoXoX",
"oXoXoXoXoXoXoXoXoXoXoXoXoXoXoXoXoXoXoXoXoXoXoXoXoXoXoXoXoXoXXX{.{. X(.oXB.XX X X X XXXY.oXoXoXoXoXoXoXoXoXoXoXoXoXoXoXoXoXoXoXoX",
"oXoXoXoXoXoXoXoXoXoXoXoXoXoXoXoXoXoXoXoXoXoXoXoXoXoXoXoXoXR.XX{.[. X~.h..X{.{.|. XXX!.oXoXoXoXoXoXoXoXoXoXoXoXoXoXoXoXoXoXoXoXoX",
"oXoXoXoXoXoXoXoXoXoXoXoXoXoXoXoXoXoXoXoXoXoXoXoXoXoXoXoXoXE..X{.'.{./.I. X].{.{..X/.oXoXoXoXoXoXoXoXoXoXoXoXoXoXoXoXoXoXoXoXoXoX",
"oXoXoXoXoXoXoXoXoXoXoXoXoXoXoXoXoXoXoXoXoXoXoXoXoXoXoXoXoXW..X[.].{./.V.{.{.{. X{.oXoXoXoXoXoXoXoXoXoXoXoXoXoXoXoXoXoXoXoXoXoXoX",
"oXoXoXoXoXoXoXoXoXoXoXoXoXoXoXoXoXoXoXoXoXoXoXoXoXoXoXoXoX~.}.[.{.{./.V.{.'.{..Xl.oXoXoXoXoXoXoXoXoXoXoXoXoXoXoXoXoXoXoXoXoXoXoX",
"oXoXoXoXoXoXoXoXoXoXoXoXoXoXoXoXoXoXoXoXoXoXoXoXoXoXoXoXoX~.}./.U.(.^.V.[.[..XN.oXoXoXoXoXoXoXoXoXoXoXoXoXoXoXoXoXoXoXoXoXoXoXoX",
"oXoXoXoXoXoXoXoXoXoXoXoXoXoXoXoXoXoXoXoXoXoXoXoXoXoXoXoXoXQ.].x.N.l.W.V.[.}.U.oXoXoXoXoXoXoXoXoXoXoXoXoXoXoXoXoXoXoXoXoXoXoXoXoX",
"oXoXoXoXoXoXoXoXoXoXoXoXoXoXoXoXoXoXoXoXoXoXoXoXoXoXoXoX# Q.U.~.{.Z.R.V.}.W.oXoXoXoXoXoXoXoXoXoXoXoXoXoXoXoXoXoXoXoXoXoXoXoXoXoX",
"oXoXoXoXoXoXoXoXoXoXoXoXoXoXoX] ] ' oXoXoXoXoXoXoXoXG Y t K.^.l.R.[.Q.U.^.oXoXoXoXoXoXoXoXoXoXoXoXoXoXoXoXoXoXoXoXoXoXoXoXoXoXoX",
"oXoXoXoXoXoXoXoXoXoXoXoXoXv.n.q.:.;.:.( oXoXoXoXG -.N n 7 k.[.Q.^.].^.g.oXoXoXoXoXoXoXoXoXoXoXoXoXoXoXoXoXoXoXoXoXoXoXoXoXoXoXoX",
"oXoXoXoXoXoXoXoXoXoXoXj.F.q.+.O. . .T  .>.U F U -.M l n v 3 L.(.^.K.~ o oXoXoXoXoXoXoXoXoXoXoXoXoXoXoXoXoXoXoXoXoXoXoXoXoXoXoXoX",
"oXoXoXoXoXoXoXoXoXoXv.G.@.%.R F F >.+.T T  .$. .M m u 0 @ X   ; Y 6 , s + oXoXoXoXoXoXoXoXoXoXoXoXoXoXoXoXoXoXoXoXoXoXoXoXoXoXoX",
"oXoXoXoXoXoXoXoXoXj.G.0.;.D oXoXoX- ;. .R T K M a y 3 O oXoXoXoXM B e y # oXoXoXoXoXoXoXoXoXoXoXoXoXoXoXoXoXoXoXoXoXoXoXoXoXoXoX",
"oXoXoXoXoXoXoXoXoXG.y.6.; oXoXoXoXoX` 6. .L B a u 5 . oXoXoXoXoXj ..a u 9 oXoXoXoXoXoXoXoXoXoXoXoXoXoXoXoXoXoXoXoXoXoXoXoXoXoXoX",
"oXoXoXoXoXoXoXoXb.A.e.D oXoXoXoXoXoX` 0.} J J d 9 oXoXoXoXoXoXoXoX .d a e oXoXoXoXoXoXoXoXoXoXoXoXoXoXoXoXoXoXoXoXoXoXoXoXoXoXoX",
"oXoXoXoXoXoXoXoXG.p.5.oXoXoXoXoXoXoX) 1.} } J e oXoXoXoXoXoXoXoXoXP J a a oXoXoXoXoXoXoXoXoXoXoXoXoXoXoXoXoXoXoXoXoXoXoXoXoXoXoX",
"oXoXoXoXoXoXoXb.H.a.! oXoXoXoXoXoXoX5.<.| } r oXoXoXoXoXoXoXoXoXoXY } s s * oXoXoXoXoXoXoXoXoXoXoXoXoXoXoXoXoXoXoXoXoXoXoXoXoXoX",
"oXoXoXoXoXoXoXD.S.p.oXoXoXoXoXoXoXoX7.%.X.m oXoXoXoXoXoXoXoXoXoXoXR | B a a l h = oXoXoXoXoXoXoXoXoXoXoXoXoXoXoXoXoXoXoXoXoXoXoX",
"oXoXoXoXoXoXoXF.s.a.oXoXoXoXoXoXoX9.e.o.H oXoXoXoXoXoXoXoXoXoXoXoXQ | J B a y a s v * oXoXoXoXoXoXoXoXoXoXoXoXoXoXoXoXoXoXoXoXoX",
"oXoXoXoXoXoXoXF.a.s.` oXoXoXoXoX8.s.3.L oXoXoXoXoXoXoXoXoXoXoXoXoX) o.J d a a 8 7 3 u * oXoXoXoXoXoXoXoXoXoXoXoXoXoXoXoXoXoXoXoX",
"oXoXoXoXoXoXoXA.p.r.u.oXoXoXoXn.S.w.O.oXoXoXoXoXoXoXoXoXoXoXoXoXoX) o.J B a s V C 3 < u $ oXoXoXoXoXoXoXoXoXoXoXoXoXoXoXoXoXoXoX",
"oXoXoXoXoXoXoXn.s.w.t.a.m.M.A.S.w.E oXoXoXoXoXoXoXoXoXoXoXoXoXoXoX*.#.J B K k : G I 9 1 & oXoXoXoXoXoXoXoXoXoXoXoXoXoXoXoXoXoXoX",
"oXoXoXoXoXoXoXoXa.r.t.r.i.p.r.4.W oXoXoXoXoXoXoXoXoXoXoXoXoXoXoXoX*.#.[ { - oXoXoXoXI < g oXoXoXoXoXoXoXoXoXoXoXoXoXoXoXoXoXoXoX",
"oXoXoXoXoXoXoXoX5.i.r.r.r.r.<.S oXoXoXoXoXoXoXoXoXoXoXoXoXoXoXoXoX*.o.| k oXoXoXoXoX! C 3 * oXoXoXoXoXoXoXoXoXoXoXoXoXoXoXoXoXoX",
"oXoXoXoXoXoXoXoXoXR ,.,.@.E oXoXoXoXoXoXoXoXoXoXoXoXoXoXoXoXoXoXoX=.#.T oXoXoXoXoXoXoXA 2 & oXoXoXoXoXoXoXoXoXoXoXoXoXoXoXoXoXoX",
"oXoXoXoXoXoXoXoXoXoXoXoXoXoXoXoXoXoXoXoXoXoXoXoXoXoXoXoXoXoXoXoXoX=.#.x oXoXoXoXoXoXoXZ 3 = oXoXoXoXoXoXoXoXoXoXoXoXoXoXoXoXoXoX",
"oXoXoXoXoXoXoXoXoXoXoXoXoXoXoXoXoXoXoXoXoXoXoXoXoXoXoXoXoXoXoXoXoX*.&.k oXoXoXoXoXoXoXZ 3 f oXoXoXoXoXoXoXoXoXoXoXoXoXoXoXoXoXoX",
"oXoXoXoXoXoXoXoXoXoXoXoXoXoXoXoXoXoXoXoXoXoXoXoXoXoXoXoXoXoXoXoXoX*.&.x oXoXoXoXoXoXoXA 3 = oXoXoXoXoXoXoXoXoXoXoXoXoXoXoXoXoXoX",
"oXoXoXoXoXoXoXoXoXoXoXoXoXoXoXoXoXoXoXoXoXoXoXoXoXoXoXoXoXoXoXoXoX=.#.x oXoXoXoXoXoX/ v 5 % oXoXoXoXoXoXoXoXoXoXoXoXoXoXoXoXoXoX",
"oXoXoXoXoXoXoXoXoXoXoXoXoXoXoXoXoXoXoXoXoXoXoXoXoXoXoXoXoXoXoXoXoX>...m oXoXoXoXoXoXI < g oXoXoXoXoXoXoXoXoXoXoXoXoXoXoXoXoXoXoX",
"oXoXoXoXoXoXoXoXoXoXoXoXoXoXoXoXoXoXoXoXoXoXoXoXoXoXoXoXoXoXoXoXoX_ O.s Z oXoXoXoX/ v 2 f oXoXoXoXoXoXoXoXoXoXoXoXoXoXoXoXoXoXoX",
"oXoXoXoXoXoXoXoXoXoXoXoXoXoXoXoXoXoXoXoXoXoXoXoXoXoXoXoXoXoXoXoXoXoX$.y C Z oXoXY b > b oXoXoXoXoXoXoXoXoXoXoXoXoXoXoXoXoXoXoXoX",
"oXoXoXoXoXoXoXoXoXoXoXoXoXoXoXoXoXoXoXoXoXoXoXoXoXoXoXoXoXoXoXoXoXoX) u w u V V 3 > v f oXoXoXoXoXoXoXoXoXoXoXoXoXoXoXoXoXoXoXoX",
"oXoXoXoXoXoXoXoXoXoXoXoXoXoXoXoXoXoXoXoXoXoXoXoXoXoXoXoXoXoXoXoXoXoX_ ..4 8 1 < < v z oXoXoXoXoXoXoXoXoXoXoXoXoXoXoXoXoXoXoXoXoX",
"oXoXoXoXoXoXoXoXoXoXoXoXoXoXoXoXoXoXoXoXoXoXoXoXoXoXoXoXoXoXoXoXoXoXoX) ..0 0 u n j oXoXoXoXoXoXoXoXoXoXoXoXoXoXoXoXoXoXoXoXoXoX",
"oXoXoXoXoXoXoXoXoXoXoXoXoXoXoXoXoXoXoXoXoXoXoXoXoXoXoXoXoXoXoXoXoXoXoXoX^ ^ ^ Z oXoXoXoXoXoXoXoXoXoXoXoXoXoXoXoXoXoXoXoXoXoXoXoX",
"oXoXoXoXoXoXoXoXoXoXoXoXoXoXoXoXoXoXoXoXoXoXoXoXoXoXoXoXoXoXoXoXoXoXoXoXoXoXoXoXoXoXoXoXoXoXoXoXoXoXoXoXoXoXoXoXoXoXoXoXoXoXoXoX",
"oXoXoXoXoXoXoXoXoXoXoXoXoXoXoXoXoXoXoXoXoXoXoXoXoXoXoXoXoXoXoXoXoXoXoXoXoXoXoXoXoXoXoXoXoXoXoXoXoXoXoXoXoXoXoXoXoXoXoXoXoXoXoXoX"
};
