/* XPM */
static const char *cut_24x24_xpm[] = {
/* columns rows colors chars-per-pixel */
"24 24 116 2 ",
"   c #234699",
".  c #264B9E",
"X  c #264C9F",
"o  c #264CA1",
"O  c #284FA4",
"+  c #2E5AB2",
"@  c #3465BB",
"#  c #4973B0",
"$  c #2C59C5",
"%  c #2C5AC5",
"&  c #2E5EC7",
"*  c #2F5FC8",
"=  c #3965C6",
"-  c #3060C9",
";  c #3162CA",
":  c #3263CB",
">  c #3366CC",
",  c #3466CD",
"<  c #3467CD",
"1  c #366ACF",
"2  c #396ECB",
"3  c #3E75CA",
"4  c #376BD0",
"5  c #376DD0",
"6  c #396FD2",
"7  c #3B72D1",
"8  c #3B72D4",
"9  c #3F79D8",
"0  c #407CD9",
"q  c #417CDA",
"w  c #4481DD",
"e  c #4B8CD9",
"r  c #67A3DB",
"t  c #4787E0",
"y  c #4B8DE4",
"u  c #4C8FE5",
"i  c #4E92E7",
"p  c #4F94E6",
"a  c #4F94E8",
"s  c #5095E2",
"d  c #539AEC",
"f  c #569FEF",
"g  c #57A0F0",
"h  c #57A1F0",
"j  c #58A3F1",
"k  c #5FAEF8",
"l  c #879AB0",
"z  c #899DB3",
"x  c #8B9DB2",
"c  c #8EA1B6",
"v  c #8FA4BB",
"b  c #8EA3BC",
"n  c #91A0B2",
"m  c #90A0B3",
"M  c #91A1B3",
"N  c #96A4B5",
"B  c #93A6BB",
"V  c #9AABBD",
"C  c #8BA6CE",
"Z  c #9BADC0",
"A  c #9BADC2",
"S  c #9FAEC1",
"D  c #9FB1C5",
"F  c #A0B1C2",
"G  c #A2B1C2",
"H  c #A6B3C3",
"J  c #A5B5C6",
"K  c #A9B6C4",
"L  c #ADB8C5",
"P  c #ADB9C5",
"I  c #ACB9C7",
"U  c #A0B5CB",
"Y  c #A6B9CE",
"T  c #ACBBCB",
"R  c #ADBECF",
"E  c #A7BBD0",
"W  c #A6BDD5",
"Q  c #ABBED2",
"!  c #A8BED6",
"~  c #AEC0D3",
"^  c #AFC0D3",
"/  c #ABC1D6",
"(  c #B1C0D1",
")  c #B1C2D5",
"_  c #B2C3D4",
"`  c #B3C3D4",
"'  c #B7C6D5",
"]  c #B8C5D3",
"[  c #BCC7D4",
"{  c #BFC9D5",
"}  c #B0C4D8",
"|  c #B6C7DA",
" . c #B8C9DB",
".. c #BCCCDB",
"X. c #BFCEDD",
"o. c #C2CBD6",
"O. c #C2D2E4",
"+. c #C8D7E6",
"@. c #CBD9E7",
"#. c #CEDBE7",
"$. c #D3DEE8",
"%. c #D3DFEC",
"&. c #D5E0E9",
"*. c #D6E1EC",
"=. c #EBF2FA",
"-. c #ECF2F9",
";. c #ECF3FA",
":. c #F0F6FB",
">. c #F1F6FB",
",. c #F5F9FC",
"<. c #F6FAFD",
"1. c #F7FAFD",
"2. c #F8FBFD",
"3. c #FCFDFE",
"4. c #FDFEFF",
"5. c None",
/* pixels */
"5.5.5.5.5.5.5.5.5.5.5.5.5.l 5.5.5.5.5.5.5.5.5.5.",
"5.5.5.5.5.5.5.5.5.5.5.5.b z 5.5.5.5.5.5.5.5.5.5.",
"5.5.5.5.5.5.5.5.5.5.5.U ) Z 5.5.5.5.5.5.5.5.5.5.",
"5.5.5.5.5.5.5.5.5.5.5.E %.S 5.5.5.5.5.5.! 5.5.5.",
"5.5.5.5.5.5.5.5.5.5.5.Q =.G 5.5.5.5.5./ W 5.5.5.",
"5.5.5.5.5.5.5.5.5.5.5.^ :.H 5.5.5.5.} O.E 5.5.5.",
"5.5.5.5.5.5.5.5.5.5.5.` <.K 5.5.5.| +.*.B 5.5.5.",
"5.5.5.5.5.5.5.5.5.5.5.' 3.L 5.5...#.>.T 5.5.5.5.",
"5.5.5.5.5.5.5.5.5.5.5.' 4.P 5.X.&.2.[ m 5.5.5.5.",
"5.5.5.5.5.5.5.5.5.5.5._ 1.I  .$.4.o.n 5.5.5.5.5.",
"5.5.5.5.5.5.5.5.5.5.5.~ -. .@.,.{ N 5.5.5.5.5.5.",
"5.5.5.5.5.5.5.5.5.5.5.Y F R ;.] M 5.5.5.5.5.5.5.",
"5.5.5.5.5.5.5.5.5.5.5.v J V ( x 5.5.5.5.5.5.5.5.",
"5.5.5.5.5.k h i 5.8 < C A D c 5.5.5.5.5.5.5.5.5.",
"5.5.5.5.j f a t 9 5 ; = r # 5.5.5.5.5.5.5.5.5.5.",
"5.5.5.y 5.5.5.9 6 , 5.5.5.e   5.5.5.5.5.5.5.5.5.",
"5.5.5.0 5.5.5.5 , 5.5.5.5.s X 5.5.5.5.5.5.5.5.5.",
"5.5.1 4 5.5.> : 5.5.5.5.5.g p 3 . 5.5.5.5.5.5.5.",
"5.5.5.- - * & 5.5.5.5.5.5.d a u @   5.5.5.5.5.5.",
"5.5.5.% $ $ 5.5.5.5.5.5.5.a 5.5.5.  5.5.5.5.5.5.",
"5.5.5.5.5.5.5.5.5.5.5.5.5.y 5.5.5.  5.5.5.5.5.5.",
"5.5.5.5.5.5.5.5.5.5.5.5.5.t 5.5.+   5.5.5.5.5.5.",
"5.5.5.5.5.5.5.5.5.5.5.5.5.w q 7 o 5.5.5.5.5.5.5.",
"5.5.5.5.5.5.5.5.5.5.5.5.5.5.2 O   5.5.5.5.5.5.5."
};
