/* XPM */
static const char *delete_16x16_xpm[] = {
/* columns rows colors chars-per-pixel */
"16 16 125 2 ",
"   c #B50707",
".  c #B70606",
"X  c #B70909",
"o  c #B20D0D",
"O  c #B30F0F",
"+  c #B90808",
"@  c #BA0909",
"#  c #B90B0B",
"$  c #BB0A0A",
"%  c #BC0B0B",
"&  c #BB0C0C",
"*  c #BD0C0C",
"=  c #BE0C0C",
"-  c #BF0D0D",
";  c #BC0E0E",
":  c #BE0E0E",
">  c #BF0E0E",
",  c #B31212",
"<  c #B41414",
"1  c #B51515",
"2  c #B71616",
"3  c #B81818",
"4  c #BA1B1B",
"5  c #BB1B1B",
"6  c #BE1E1E",
"7  c #BE1F1F",
"8  c #B92323",
"9  c #BA2323",
"0  c #B82424",
"q  c #B92424",
"w  c #B82525",
"e  c #B92626",
"r  c #BA2727",
"t  c #B92828",
"y  c #BB2929",
"u  c #BA2B2B",
"i  c #BF3737",
"p  c #C00E0E",
"a  c #C10F0F",
"s  c #C21010",
"d  c #C31111",
"f  c #C51313",
"g  c #C61414",
"h  c #C91616",
"j  c #C91717",
"k  c #CA1717",
"l  c #C11D1D",
"z  c #C51F1F",
"x  c #C61F1F",
"c  c #CD1A1A",
"v  c #CE1B1B",
"b  c #D11E1E",
"n  c #D21F1F",
"m  c #C12222",
"M  c #C22323",
"N  c #C42020",
"B  c #C52626",
"V  c #C62727",
"C  c #C52828",
"Z  c #C72929",
"A  c #C42E2E",
"S  c #C62E2E",
"D  c #C72E2E",
"F  c #C62F2F",
"G  c #C92A2A",
"H  c #C92D2D",
"J  c #C82E2E",
"K  c #D62222",
"L  c #D62323",
"P  c #D92525",
"I  c #DA2626",
"U  c #DB2727",
"Y  c #D02E2E",
"T  c #D32F2F",
"R  c #C53030",
"E  c #C73131",
"W  c #C43232",
"Q  c #C53232",
"!  c #C53333",
"~  c #C63232",
"^  c #C43434",
"/  c #C53535",
"(  c #C43636",
")  c #C43838",
"_  c #C43939",
"`  c #C53B3B",
"'  c #C53E3E",
"]  c #DA3535",
"[  c #E02B2B",
"{  c #E02C2C",
"}  c #E32E2E",
"|  c #E42F2F",
" . c #E63131",
".. c #EB3535",
"X. c #EC3636",
"o. c #EE3838",
"O. c #F23B3B",
"+. c #F43D3D",
"@. c #C64141",
"#. c #C44444",
"$. c #C44545",
"%. c #C44646",
"&. c #C54646",
"*. c #C54A4A",
"=. c #C74F4F",
"-. c #CF4D4D",
";. c #C75050",
":. c #C85050",
">. c #CA5353",
",. c #CC5353",
"<. c #CC5454",
"1. c #CE5454",
"2. c #CF5555",
"3. c #D05555",
"4. c #D05656",
"5. c #F74040",
"6. c #D06363",
"7. c #D36969",
"8. c #D76868",
"9. c #D97070",
"0. c #D87171",
"q. c #D87272",
"w. c #D87474",
"e. c #E69898",
"r. c None",
/* pixels */
"r.r.6.>.r.r.r.r.r.r.r.r.:.*.r.r.",
"r.7.e.<.u r.r.r.r.r.r.:.w.) y r.",
"6.e.,.@.' t r.r.r.r.;.q./ W W r ",
">.<.@.' ` _ e r.r.;.0.! R R R 0 ",
"r.u ' ` _ ( ^ w =.9.~ F S D q r.",
"r.r.t _ ( ^ Q R 8.E D J H 8 r.r.",
"r.r.r.e ^ Q R F C N z x 9 r.r.r.",
"r.r.r.r.w A l : p s f 3 r.r.r.r.",
"r.r.r.r.&.-.* p d g h 4 r.r.r.r.",
"r.r.r.%.4.; > d g k c b 6 r.r.r.",
"r.r.$.3.& = a f j v n K P m r.r.",
"r.$.2.# $ - d 3 5 b L U [ } B r.",
"#.1.X + % p 2 r.r.7 I {  ...X.Z ",
"i   . @ * 1 r.r.r.r.M | X.O.+.Y ",
"r.o . @ < r.r.r.r.r.r.V o.5.] r.",
"r.r.O , r.r.r.r.r.r.r.r.G T r.r."
};
