/* XPM */
static const char *down2_24x24_xpm[] = {
/* columns rows colors chars-per-pixel */
"24 24 129 2 ",
"   c #AF1818",
".  c #AE1919",
"X  c #AF1919",
"o  c #AD1A1A",
"O  c #AC1B1B",
"+  c #AD1B1B",
"@  c #AE1A1A",
"#  c #AB1C1C",
"$  c #AA1D1D",
"%  c #AB1D1D",
"&  c #AC1C1C",
"*  c #B01818",
"=  c #B72B2B",
"-  c #BE3333",
";  c #BF3434",
":  c #BF3535",
">  c #CD1A1A",
",  c #CE1B1B",
"<  c #CF1C1C",
"1  c #CE1F1F",
"2  c #D01C1C",
"3  c #D01D1D",
"4  c #D11E1E",
"5  c #D21E1E",
"6  c #D21F1F",
"7  c #D31F1F",
"8  c #D32020",
"9  c #D42121",
"0  c #D52121",
"q  c #D62222",
"w  c #D72323",
"e  c #D82424",
"r  c #D92525",
"t  c #DA2525",
"y  c #DA2626",
"u  c #DB2626",
"i  c #DC2727",
"p  c #D32A2A",
"a  c #D42929",
"s  c #D12D2D",
"d  c #D62C2C",
"f  c #DC2828",
"g  c #DD2828",
"h  c #DD2929",
"j  c #DE2929",
"k  c #DF2A2A",
"l  c #C03636",
"z  c #C13737",
"x  c #C5373A",
"c  c #C23838",
"v  c #C33B3B",
"b  c #C43C3C",
"n  c #D53232",
"m  c #D93135",
"M  c #DB3337",
"N  c #D83438",
"B  c #DB3C3C",
"V  c #DE3E3E",
"C  c #E02B2B",
"Z  c #E12C2C",
"A  c #E22D2D",
"S  c #E32E2E",
"D  c #E53333",
"F  c #E63B3B",
"G  c #C73D40",
"H  c #CD3D43",
"J  c #CB3F45",
"K  c #E93F43",
"L  c #D64040",
"P  c #D64747",
"I  c #DB4747",
"U  c #D85151",
"Y  c #D95252",
"T  c #DC5151",
"R  c #D95757",
"E  c #DA5656",
"W  c #DB5656",
"Q  c #DA5757",
"!  c #DC5555",
"~  c #D75959",
"^  c #D55B5B",
"/  c #D65A5A",
"(  c #D75A5A",
")  c #D65B5B",
"_  c #D45C5C",
"`  c #D55C5C",
"'  c #D85858",
"]  c #D95858",
"[  c #D85959",
"{  c #DC5C5C",
"}  c #DE5E5E",
"|  c #E54545",
" . c #E74646",
".. c #EA4044",
"X. c #EB4549",
"o. c #E35050",
"O. c #E75454",
"+. c #E15F63",
"@. c #DF6367",
"#. c #DF6468",
"$. c #E16161",
"%. c #E16165",
"&. c #E06266",
"*. c #E16266",
"=. c #E06367",
"-. c #E16464",
";. c #E36565",
":. c #E46767",
">. c #E86363",
",. c #EC6363",
"<. c #E56868",
"1. c #E66868",
"2. c #E76969",
"3. c #ED6B6B",
"4. c #EA6C6C",
"5. c #EB6D6D",
"6. c #ED6E6E",
"7. c #EE6F6F",
"8. c #F16D71",
"9. c #E77E7E",
"0. c #F6737D",
"q. c #FF7888",
"w. c #FA7C89",
"e. c #E78888",
"r. c #E68989",
"t. c #E58A8A",
"y. c #E58A8B",
"u. c #E48B8B",
"i. c None",
/* pixels */
"i.i.i.i.i.* * * *   X X X X X X X X i.i.i.i.i.i.",
"i.i.i.i.i.* q.q.q.q.q.q.q.q.q.q.w.. i.i.i.i.i.i.",
"i.i.i.i.i.* q.#.@.@.=.&.*.*.%.%.y.@ i.i.i.i.i.i.",
"i.i.i.i.i.  q._ ` ^ ) ( ( ~ [ [ u.@ i.i.i.i.i.i.",
"i.i.i.i.i.X q.^ ) / ( ~ [ [ ] R t.o i.i.i.i.i.i.",
"i.i.i.i.i.X q.) ( ~ ~ [ ] R Q E r.o i.i.i.i.i.i.",
"i.i.i.i.i.X q./ ~ [ ' R Q E W W r.+ i.i.i.i.i.i.",
"i.i.i.i.i.X q.~ [ ' R E E W ! ! e.+ i.i.i.i.i.i.",
"i.i.i.i.i.. q.[ ] R E W ! ! T I 9.+ i.i.i.i.i.i.",
"i.i.i.i.i.. q.' R Y L n a 7 9 q ;.O i.i.i.i.i.i.",
"i.i.i.i.i.@ q.P s , 3 5 8 0 q e :.O i.i.i.i.i.i.",
"i.i.i.i.i.@ q.> , 3 5 8 0 w e t 1.& i.i.i.i.i.i.",
"X X X . @ @ q., 2 4 8 0 w e y i 2.& # # # # # i.",
"X H q.q.q.q.q.< 4 7 0 w e y i h 0.q.q.q.q.J # i.",
"i.X x +.N m M 3 6 9 q e y i j k K ..X.8.G % i.i.",
"i.i.@ - U 1 < 4 8 q e t i h k Z S D ,.b $ i.i.i.",
"i.i.i.@ ; { p 6 0 w r u g k Z S F 3.b $ i.i.i.i.",
"i.i.i.i.o : } d q e y f j C A F 3.b $ i.i.i.i.i.",
"i.i.i.i.i.o l -.B r u g k Z  .7.b $ i.i.i.i.i.i.",
"i.i.i.i.i.i.+ z ;.V i j C | 6.b $ i.i.i.i.i.i.i.",
"i.i.i.i.i.i.i.+ z <.o.k O.5.b % i.i.i.i.i.i.i.i.",
"i.i.i.i.i.i.i.i.O c 2.>.4.v % i.i.i.i.i.i.i.i.i.",
"i.i.i.i.i.i.i.i.i.& = $.: # i.i.i.i.i.i.i.i.i.i.",
"i.i.i.i.i.i.i.i.i.i.& # # i.i.i.i.i.i.i.i.i.i.i."
};
