/* XPM */
static const char *download_48x48_xpm[] = {
/* columns rows colors chars-per-pixel */
"48 48 192 2 ",
"   c black",
".  c #017B01",
"X  c #0A7D05",
"o  c #1B7A1B",
"O  c #1F7F20",
"+  c #494B53",
"@  c #5F647B",
"#  c #6D6D6D",
"$  c #6B6C73",
"%  c #6B6D78",
"&  c #616473",
"*  c #6F7073",
"=  c #6E7078",
"-  c #737375",
";  c #72737B",
":  c #018401",
">  c #028D01",
",  c #18840D",
"<  c #009600",
"1  c #0B9206",
"2  c #019A01",
"3  c #0A9D05",
"4  c #169D0B",
"5  c #1F8512",
"6  c #1A8D1A",
"7  c #1C9915",
"8  c #238D11",
"9  c #34991C",
"0  c #269313",
"q  c #0EA007",
"w  c #14A30A",
"e  c #1BA60E",
"r  c #00B700",
"t  c #1DA414",
"y  c #24AA12",
"u  c #2AAD15",
"i  c #39A81C",
"p  c #2EB017",
"a  c #34B21A",
"s  c #3BB51D",
"d  c #2A8B2B",
"f  c #2E922F",
"g  c #3C9C27",
"h  c #32A625",
"j  c #459F3B",
"k  c #49AB26",
"l  c #43BA22",
"z  c #4BBD25",
"x  c #56B72B",
"c  c #61BC34",
"v  c #63BB39",
"b  c #01E301",
"n  c #12E912",
"m  c #33CF33",
"M  c #3FD63F",
"N  c #53C129",
"B  c #5CC52D",
"V  c #50C027",
"C  c #60C82F",
"Z  c #63C932",
"A  c #69CC37",
"S  c #6ECE3D",
"D  c #62C332",
"F  c #4D9D4F",
"G  c #569F58",
"H  c #56B440",
"J  c #56AD48",
"K  c #63BA4B",
"L  c #75B077",
"P  c #6FC249",
"I  c #75D248",
"U  c #71C755",
"Y  c #7DD555",
"T  c #7FD759",
"R  c #61C358",
"E  c #7FCB70",
"W  c #7DCB6A",
"Q  c #82D95B",
"!  c #88D966",
"~  c #89D573",
"^  c #93DC7F",
"/  c #8FE06F",
"(  c #90E071",
")  c #96E37A",
"_  c #6D7187",
"`  c #7A7B83",
"'  c #777989",
"]  c #6D7291",
"[  c #717693",
"{  c #747994",
"}  c #7A7E96",
"|  c #777C98",
" . c #7A7F9B",
".. c #646982",
"X. c #7D8296",
"o. c #7D829D",
"O. c #7FB28B",
"+. c #8A8A8E",
"@. c #858786",
"#. c #868993",
"$. c #8D8D92",
"%. c #858899",
"&. c #868998",
"*. c #949496",
"=. c #94959C",
"-. c #9A9A9D",
";. c #98979C",
":. c #8BBB95",
">. c #8186A0",
",. c #8489A3",
"<. c #898DA5",
"1. c #8E92AA",
"2. c #9C9CA2",
"3. c #9296AD",
"4. c #9A9EAC",
"5. c #9498AE",
"6. c #999DB2",
"7. c #9EA2B4",
"8. c #94B6A2",
"9. c #A2A1A5",
"0. c #A4A4AA",
"q. c #A9A9AC",
"w. c #A5A8AA",
"e. c #A6BFAB",
"r. c #A7A9B3",
"t. c #ACADB5",
"y. c #A6A9BB",
"u. c #ABADBB",
"i. c #AEB0BA",
"p. c #B2B3B4",
"a. c #B4B5BC",
"s. c gray73",
"d. c #98DD8B",
"f. c #9DE784",
"g. c #9DE28D",
"h. c #A7EC94",
"j. c #A1E889",
"k. c #9EC6A8",
"l. c #B2CEB6",
"z. c #AED1B6",
"x. c #B4DFB8",
"c. c #AFEFAC",
"v. c #B5F3A8",
"b. c #BDF6B4",
"n. c #BFF8B7",
"m. c #BCEBBC",
"M. c #C3FABD",
"N. c #ACAFC1",
"B. c #AEB1C2",
"V. c #B3B5C3",
"C. c #B7B8C3",
"Z. c #BBBDC4",
"A. c #BBBFCA",
"S. c #BFC1CD",
"D. c #BFC2D8",
"F. c #C3C3C5",
"G. c #C3C4CB",
"H. c #C6C8CD",
"J. c #CBCBCD",
"K. c #C6C9D1",
"L. c #CDCDD3",
"P. c #CECFD9",
"I. c #C3C5D3",
"U. c #D0CFD8",
"Y. c #CFD0D3",
"T. c #CFD0D9",
"R. c #CEDDD2",
"E. c #D1D2D4",
"W. c #D4D4DC",
"Q. c #D7D8DC",
"!. c #DDDDDE",
"~. c #D8D6DD",
"^. c #C8E6C9",
"/. c #C6FCC2",
"(. c #DDDDE3",
"). c #D7D8E1",
"_. c #E1DFE6",
"`. c #DEE1E2",
"'. c #E2E2E4",
"]. c #E4E4EB",
"[. c #E8E6EE",
"{. c #E6EBEB",
"}. c #EBEBEC",
"|. c #EDEDF2",
" X c #E9E7F0",
".X c #F1EFF5",
"XX c #EFF0F3",
"oX c #F2F2F4",
"OX c #F6F4FB",
"+X c #F8F6FC",
"@X c #F9F8FA",
"#X c None",
/* pixels */
"#X#X#X#X#X#X#X#X#X#X#X#X#X#X#X#X#X#X#X#X#X#X#X#X#X#X#X#X#X#X#X#X#X#X#X#X#X#X#X#X#X#X#X#X#X#X#X#X",
"#X#X#X#X#X#X#X#X#X#X#X#X#X#X#X#X#X#X#X#X#X#X#X#X#X#X#X#X#X#X#X#X#X#X#X#X#X#X#X#X#X#X#X#X#X#X#X#X",
"#X#X#X#X#X#X#X#X#X#X#X#X#X#X#X#X#X#X#X#X#X#X#X#X#X#X#X#X#X#X#X#X#X#X#X#X#X#X#X#X#X#X#X#X#X#X#X#X",
"#X#X#X#X#X#X#X#X#X#X#X#X#X#X#X#X#X#X#X#X#X#X#X#X#X#X#X#X#X#X#X#X#X#X#X#X#X#X#X#X#X#X#X#X#X#X#X#X",
"#X#X#X#X#X#X#X#X#X#X#X#X#X#X#X#X#X#X#X#X#X#X#X#X#X#X#X#X#X#X#X#X#X#X#X#X#X#X#X#X#X#X#X#X#X#X#X#X",
"#X#X#X#X#X#X#X#X#X#X#X#X#X#X#X#X#X#X#X#X#X#X#X#X#X#X#X#X#X#X#X#X#X#X#X#X#X#X#X#X#X#X#X#X#X#X#X#X",
"#X#X#X#X#X#X#X#X#X#X#X#X#X#X#X#X#X#X#X#X#X#X#X#X#Xc D B x x x x k k #X#X#X#X#X#X#X#X#X#X#X#X#X#X",
"#X#X#X#X#X#X#X#X#X#X#X#X#X#X#X#X#X#X#X#X#X#X#Xv Y Q I I S D 9 8 0 #X#X#X#X#X#X#X#X#X#X#X#X#X#X#X",
"#X#X#X#X#X#X#X#X#X#X#X#X#X#X#X#X#X#X#X#X#X#XP h.h.f.) ( U 8 X #X#X#X#X#X#X#X#X#X#X#X#X#X#X#X#X#X",
"#X#X#X#X#X#X#X#X#X#X#X#X#X#X#X#X#X#X#X#X#Xv b.M.M.b.v.g.8 . #X#X#X#X#X#X#X#X#X#X#X#X#X#X#X#X#X#X",
"#X#X#X#X#X#X#X#X#X#X#X#X#X#X#X#X#X#X#X#X#X~ v.v.b.M.M.j X #X#X#X#X#X#X#X#X#X#X#X#X#X#X#X#X#X#X#X",
"#X#X#X#X#X#X#X#X#X#X#X#X#X#X#X#X#XK #X#Xv ) f.j.h.h.g., : #X#X#X#X#X#X#X#X#X#X#X#X#X#X#X#X#X#X#X",
"#X#X#X#X#X#X#X#X#X#X#X#X#X#X#Xt U ^ d.~ ! Q Q / ~ ) K , : #X#X#X#X#X#X#X#X#X#X#X#X#X#X#X#X#X#X#X",
"#X#X#X#X#X#X#X#X#X#X#X#X#X#X#X< N C Z T Y S I I Y Q g , 7 1 #X#X#X#X#X#X#X#X#X#X#X#X#X#X#X#X#X#X",
"#X#X#X#X#X#X#X#X#X#X#X#X#X#X#X#X4 N N B B B C A A S k 9 J ~ ~ K v J #X#X#X#X#X#X#X#X#X#X#X#X#X#X",
"#X#X#X#X#X#X#X#X#X#X#X#X#X#X#X#X> a l l V V N N B B C C D Q ^ j.c.R h #X#X#X#X#X#X#X#X#X#X#X#X#X",
"#X#X#X#X#X#X#X#X#X#X#X#X#X#X#X#X#X1 a s s l l z z z N N B B B Z t < #X#X#X#X#X#X#X#X#X#X#X#X#X#X",
"#X#X#X#X#X#X#X#X#X#X#X#X#X#X#X#X#X: 4 u a a a s s l l l z z z w < #X#X#X#X#X#X#X#X#X#X#X#X#X#X#X",
"#X#X#X#X#X#X#X#X#X#X#X#X#X#X#X#X#X#X: e y y u u u a a s s s 1 < #X#X#X#X#X#X#X#X#X#X#X#X#X#X#X#X",
"#X#X#X#X#X#X#X#X#X#X#X#X#X#X#X#X#X#X#X1 w w e e y y y u u 1 > #X#X#X#X#X#X#X#X#X#X#X#X#X#X#X#X#X",
"#X#X#X#X#X#X#X#X#X#X#X#X#X#X#X#X#X#X#Xd 2 3 w w w e e e : 6 k.L.L.J.#X#X#X#X#X#X#X#X#X#X#X#X#X#X",
"#X#X#X#X#X#X#X#X#X#X#X#X#X#X#X#XY.Y.(.l.. 2 2 2 3 3 3 : f }.OX.X[._.(.F.r.*.$.$.#X#X#X#X#X#X#X#X",
"#X#X#X#X#X#X#X#X#X#X#X#X#XY.Y.~.[.OXOXOXF < 2 2 2 < . f [.OXOX|.~.Z.q.9.0.0.9.2.=.*.2.B.#X#X#X#X",
"#X#X#X#X#X#X#X#X#X#XY.Y.~.[..X@XOXoX.X|.R.. < 2 2 . O 0.9.a.q.;.2.2.2.9.9.0.r.; -.p.V.I.D.#X#X#X",
"#X#X#X#X#X#X#X#XP.W._.|.]..X@XoXoXoXXX|.}.L > < . o +.+.+.+.+.+.+.*.-.2.2.2.4.9.r.Z.E.K.X.#X#X#X",
"#X#X#X#X#XY.Y._.|.OXOX[.G.oX@XoXoXoXoXXXXX`.d . G p.a.C.a.p.i.p.t.+.$.-.=.2.2.a.J.H.V.y...#X#X#X",
"#X#XY.L.(. X+X+X+XOX+X XV.(.}..XoXOXoXXX|.}.[.[.].].`.(.(.(.~.P.Z.q.L.).P.~. X|.P.u.3.o.@ #X#X#X",
"J.E.'.@XOX$.F.+XOXOX+XOX X(.oX@X|.{.].`.].].].'.`.(.S.A.V.t.r.q.a.P.P.W.[.|.Q.V.6.,.| ] @ #X#X#X",
"J.@X}.[.(._.@X@X+X+X+X+XOX+XoXoX|.[.(.Q.P.Z.u.6.<.,.,.,.y.V.K.~.).P.(.XX(.A.7.<.| [ ] ] &   #X#X",
"J.oX}.4.y.i.r.i.a.H.Q.[.+X+XOXOXOXOXoXoX.X X X[.[.[.[.(.(.).W.P.).|.[.I.y.1.X.[ ] ] [ % + #X#X#X",
"J.oX}.4.H.H.L.L.Y.H.G.C.u.C.H.Q.|.OXOXoX.X|.|. XP.G.~.(.W.P.W. X|.P.N.3.o.| ] ] [ { % $ #X#X#X#X",
"J.oX}.4.G.H.H.J.L.Y.E.E.E.E.L.i.a.u.A.).|.oX|._.I.G.K.P.W.].XX).V.6.,.| ] ] [ X._ $ #X#X#X#X#X#X",
"J.oX}.9.G.H.H.L.Y.Y.L.E.E.E.F.A.H.S.J.Z.a.T.}.oXXX!.E.(.XX].S.7.<.o.] ] ] } } % $ #X#X#X#X#X#X#X",
"J.@X}.9.G.H.K.L.L.Y.E.E.E.E.F.S.G.I.F.K.E.E.{.'.'.XX|.}.K.y.1.o.{ ] ] { X.` $ #X#X#X#X#X#X#X#X#X",
"J.!.oXp.H.H.J.L.Y.Y.E.E.E.E.G.A.G.G.G.H.E.E.`.z.^.`.oXB.5.>.| ] ] { o.X.= $ #X#X#X#X#X#X#X#X#X#X",
"#XJ.Y.'.'.E.H.J.L.E.Y.E.E.Y.G.A.G.G.G.K.E.E.8.M n ^.}.7. .] ] ] } %.` $ #X#X#X#X#X#X#X#X#X#X#X#X",
"#X#X#XF.F.E.'.'.'.E.Y.E.E.E.G.S.G.H.G.K.E.E.:.m b c.}.3.] ] } %.#.= * #X#X#X#X#X#X#X#X#X#X#X#X#X",
"#X#X#X#X#X#Xs.p.s.Y.!.{.'.Q.H.Z.F.G.G.H.E.J.:.r b m.}.1.{ #.&.` $ #X#X#X#X#X#X#X#X#X#X#X#X#X#X#X",
"#X#X#X#X#X#X#X#X#X#Xq.w.p.F.E.`.'.Q.J.J.E.E.!.k.x.'.}.7.&.#.- * #X#X#X#X#X#X#X#X#X#X#X#X#X#X#X#X",
"#X#X#X#X#X#X#X#X#X#X#X#X#X#X-.*.-.p.J.E.oX}.}.'.!.!.}.;.` - #X#X#X#X#X#X#X#X#X#X#X#X#X#X#X#X#X#X",
"#X#X#X#X#X#X#X#X#X#X#X#X#X#X#X#X#X#X+.@.@.*.p.J.!.{.s.# #X#X#X#X#X#X#X#X#X#X#X#X#X#X#X#X#X#X#X#X",
"#X#X#X#X#X#X#X#X#X#X#X#X#X#X#X#X#X#X#X#X#X#X#X- * # # #X#X#X#X#X#X#X#X#X#X#X#X#X#X#X#X#X#X#X#X#X",
"#X#X#X#X#X#X#X#X#X#X#X#X#X#X#X#X#X#X#X#X#X#X#X#X#X#X#X#X#X#X#X#X#X#X#X#X#X#X#X#X#X#X#X#X#X#X#X#X",
"#X#X#X#X#X#X#X#X#X#X#X#X#X#X#X#X#X#X#X#X#X#X#X#X#X#X#X#X#X#X#X#X#X#X#X#X#X#X#X#X#X#X#X#X#X#X#X#X",
"#X#X#X#X#X#X#X#X#X#X#X#X#X#X#X#X#X#X#X#X#X#X#X#X#X#X#X#X#X#X#X#X#X#X#X#X#X#X#X#X#X#X#X#X#X#X#X#X",
"#X#X#X#X#X#X#X#X#X#X#X#X#X#X#X#X#X#X#X#X#X#X#X#X#X#X#X#X#X#X#X#X#X#X#X#X#X#X#X#X#X#X#X#X#X#X#X#X",
"#X#X#X#X#X#X#X#X#X#X#X#X#X#X#X#X#X#X#X#X#X#X#X#X#X#X#X#X#X#X#X#X#X#X#X#X#X#X#X#X#X#X#X#X#X#X#X#X",
"#X#X#X#X#X#X#X#X#X#X#X#X#X#X#X#X#X#X#X#X#X#X#X#X#X#X#X#X#X#X#X#X#X#X#X#X#X#X#X#X#X#X#X#X#X#X#X#X"
};
