/* XPM */
static const char *download_16x16_xpm[] = {
/* columns rows colors chars-per-pixel */
"16 16 128 2 ",
"   c gray40",
".  c #676767",
"X  c #686868",
"o  c #6A6A6A",
"O  c gray42",
"+  c #6D6D6D",
"@  c gray44",
"#  c #747474",
"$  c gray47",
"%  c #7B7B7B",
"&  c #7C7C7C",
"*  c gray49",
"=  c gray50",
"-  c #11A10E",
";  c #1CA718",
":  c #21A411",
">  c #29AC15",
",  c #26AC1F",
"<  c #31B129",
"1  c #38B428",
"2  c #38B52E",
"3  c #30AA30",
"4  c #3EAA38",
"5  c #3DB733",
"6  c #3BB13A",
"7  c #3CB13A",
"8  c #4BBC26",
"9  c #42B936",
"0  c #36C837",
"q  c #56C12C",
"w  c #46AD49",
"e  c #42B340",
"r  c #45B240",
"t  c #44B541",
"y  c #53B855",
"u  c #55C347",
"i  c #59C54A",
"p  c #64CA53",
"a  c #71D051",
"s  c #5FC060",
"d  c #5FD460",
"f  c #75D361",
"g  c #7CD667",
"h  c #84DA5F",
"j  c #91E179",
"k  c gray56",
"l  c #909090",
"z  c #929295",
"x  c #959596",
"c  c #9B9B9B",
"v  c #9AA299",
"b  c #9497A6",
"n  c #A2A2A2",
"m  c gray64",
"M  c #AAACB8",
"N  c #ACAFBA",
"B  c #AFB1BC",
"V  c #B2B2B6",
"C  c #B4B4B4",
"Z  c gray71",
"A  c #B6B7B7",
"S  c #B0B2BD",
"D  c #B1B3BD",
"F  c #B2B4BE",
"G  c #B2B4BF",
"H  c #B9B9BA",
"J  c #BCBCBD",
"K  c #BFBFC0",
"L  c #BCBEC5",
"P  c #B6B8CA",
"I  c #B7C2C6",
"U  c #BFC1C7",
"Y  c #BFC0CC",
"T  c #C1C2C2",
"R  c #C4C4C5",
"E  c gray78",
"W  c #C2CAC1",
"Q  c #C1C3C9",
"!  c #C3C5CA",
"~  c #C7C7C8",
"^  c #C4C5CA",
"/  c #C4C6CB",
"(  c #C5C7CB",
")  c #C9C9CA",
"_  c #C8C9CB",
"`  c #CACACC",
"'  c #CBCBCC",
"]  c #CBCBCD",
"[  c #CBCCCD",
"{  c gray80",
"}  c gray81",
"|  c #D2D3D5",
" . c #D7D7DF",
".. c #DBDADD",
"X. c #DBDCDE",
"o. c #DBF5DB",
"O. c #DDDCE4",
"+. c #DDDCE5",
"@. c #DEE6E4",
"#. c #E2E1E4",
"$. c #E1E0E7",
"%. c #E3ECE7",
"&. c #E5E4ED",
"*. c #E0F2E0",
"=. c #E0F9E0",
"-. c #E3FBE3",
";. c #E8F0EB",
":. c #E9F0EE",
">. c #EDF4EE",
",. c #EBEAF2",
"<. c #F0EFF6",
"1. c #F3F4F5",
"2. c #F4F5F6",
"3. c #F5F5F6",
"4. c #F6F6F7",
"5. c #F6F7F7",
"6. c gray97",
"7. c #F3F1F8",
"8. c #F4F3F8",
"9. c #F4F2F9",
"0. c #F5F3FA",
"q. c #F6F4FB",
"w. c #F7F6FA",
"e. c #F7F5FC",
"r. c #FAFEFA",
"t. c #FBF9FD",
"y. c #FDFDFD",
"u. c None",
/* pixels */
"u.u.u.u.u.u.: : : : u.u.u.u.u.u.",
"u.u.u.u.u.u.> q 8 > u.u.u.u.u.u.",
"u.u.u.u.u.u.1 h a 1 u.u.u.u.u.u.",
"u.u.u.u.u.u.5 j g 5 u.u.u.u.u.u.",
"u.u.u.< < < < f p < < < < u.u.u.",
"u.u.{ W r , 9 i u 9 , 4 v c u.u.",
"u.u.} 9.:.t ; 2 2 ; e @.$.x u.u.",
"u.{ #.e.t.>.7 - - 6 ;.8.&.V = u.",
"u.} 9.e.O.w.%.3 w I P Y &. .% u.",
"{ ..e.e.e.e.e.q.0.7.<.,.&.+.z . ",
"{ _ ` ] [ ' ) ~ R T K J H A C m ",
"E 1.2.3.4.5.6.6.6.6.6.6.*.o.r.l ",
"Z 1.M N B S D F F G G X.s d -.* ",
"n 1.b L U Q ! ^ / ( ( | y 0 =.O ",
"k y.2.3.4.5.6.6.6.6.6.6.6.6.6.  ",
"& $ # @ + o X .                 "
};
