/* XPM */
static const char *down_24x24_xpm[] = {
/* columns rows colors chars-per-pixel */
"24 24 233 2 ",
"   c #006300",
".  c DarkGreen",
"X  c #006600",
"o  c #006800",
"O  c #006A00",
"+  c #006B00",
"@  c #006C00",
"#  c #006E00",
"$  c #006F00",
"%  c #007000",
"&  c #007200",
"*  c #007300",
"=  c #007600",
"-  c #007A00",
";  c #007C00",
":  c #007D00",
">  c #007E00",
",  c #008100",
"<  c #008300",
"1  c #008500",
"2  c #008800",
"3  c #008900",
"4  c #008C00",
"5  c #008F00",
"6  c #009000",
"7  c #009300",
"8  c #009500",
"9  c #009700",
"0  c #009800",
"q  c #009900",
"w  c #009A00",
"e  c #0A971B",
"r  c #0B971C",
"t  c #0D991D",
"y  c #1AA11B",
"u  c #109B20",
"i  c #109C20",
"p  c #139D22",
"a  c #139E22",
"s  c #149E23",
"d  c #169F25",
"f  c #179D27",
"g  c #1C9F2B",
"h  c #279D2A",
"j  c #299B2C",
"k  c #16A025",
"l  c #18A026",
"z  c #18A126",
"x  c #19A127",
"c  c #1AA227",
"v  c #1BA329",
"b  c #1CA329",
"n  c #1DA42A",
"m  c #1FA52B",
"M  c #1EA02E",
"N  c #1FA52C",
"B  c #20A62C",
"V  c #20A62D",
"C  c #21A62D",
"Z  c #22A72D",
"A  c #22A72E",
"S  c #2BA72E",
"D  c #24A82F",
"F  c #21A230",
"G  c #24A233",
"H  c #24A432",
"J  c #26A634",
"K  c #29A736",
"L  c #24A830",
"P  c #25A930",
"I  c #26A931",
"U  c #26AA31",
"Y  c #27AA32",
"T  c #28AB32",
"R  c #28AA33",
"E  c #28AB33",
"W  c #2FAA32",
"Q  c #2FAB32",
"!  c #2FAB33",
"~  c #2AAC34",
"^  c #2BAD35",
"/  c #2CAE36",
"(  c #2EAF37",
")  c #2BA938",
"_  c #2DAA39",
"`  c #2FAB3B",
"'  c #2EAF38",
"]  c #31A433",
"[  c #30A732",
"{  c #30AB34",
"}  c #30A73F",
"|  c #30A93D",
" . c #32AA3E",
".. c #30AC3C",
"X. c #31AD3D",
"o. c #3CAE3E",
"O. c #2FB038",
"+. c #30B039",
"@. c #31B13A",
"#. c #32B13A",
"$. c #33B23C",
"%. c #34B33C",
"&. c #35B33D",
"*. c #35B43D",
"=. c #38B53F",
"-. c #34AB42",
";. c #34AC40",
":. c #37AD42",
">. c #3BAC48",
",. c #3CAD49",
"<. c #3DAE49",
"1. c #3DAD4A",
"2. c #3DAD4B",
"3. c #3FAF4B",
"4. c #3FAD4D",
"5. c #3FAE4C",
"6. c #3AB641",
"7. c #3BB741",
"8. c #3CB842",
"9. c #3DB843",
"0. c #3FBA44",
"q. c #3FBA45",
"w. c #40AE4D",
"e. c #40AD4E",
"r. c #43AF4F",
"t. c #40B042",
"y. c #41B043",
"u. c #42B044",
"i. c #43B144",
"p. c #40BA45",
"a. c #42BC47",
"s. c #44B34F",
"d. c #43BC48",
"f. c #45BD49",
"g. c #45BE49",
"h. c #46BE4A",
"j. c #47BF4B",
"k. c #41AE50",
"l. c #42AE50",
"z. c #43AE50",
"x. c #43AF52",
"c. c #44AF52",
"v. c #45AF53",
"b. c #46AF53",
"n. c #49AF56",
"m. c #4BAF58",
"M. c #4EAE5A",
"N. c #47B054",
"B. c #48B055",
"V. c #48B056",
"C. c #4AB057",
"Z. c #4CB557",
"A. c #4CB159",
"S. c #4BB458",
"D. c #5BB566",
"F. c #5BBE63",
"G. c #58B864",
"H. c #5BB967",
"J. c #5DB569",
"K. c #5DB669",
"L. c #60BB6B",
"P. c #62BB6D",
"I. c #67BA72",
"U. c #68B973",
"Y. c #6EBF78",
"T. c #4AC14D",
"R. c #4BC24E",
"E. c #4DC34F",
"W. c #4EC450",
"Q. c #51C553",
"!. c #52C653",
"~. c #55C856",
"^. c #5ACB5A",
"/. c #5DCD5C",
"(. c #67C36F",
"). c #69C470",
"_. c #6AC571",
"`. c #6BC672",
"'. c #6CC672",
"]. c #6DC773",
"[. c #6EC874",
"{. c #70C975",
"}. c #70C678",
"|. c #75C77D",
" X c #73CB78",
".X c #74CC79",
"XX c #78CE7C",
"oX c #79CF7D",
"OX c #78BF81",
"+X c #78C781",
"@X c #7EC787",
"#X c #79C881",
"$X c #7CC885",
"%X c #7EC887",
"&X c #7DD180",
"*X c #7ED281",
"=X c #82C48B",
"-X c #87C58F",
";X c #82C98B",
":X c #86CB8E",
">X c #87CC8F",
",X c #82D484",
"<X c #84D685",
"1X c #86D787",
"2X c #89D98A",
"3X c #8ADA8A",
"4X c #8EDC8D",
"5X c #90DD8F",
"6X c #88CD90",
"7X c #89CD91",
"8X c #8ACE92",
"9X c #8CCF93",
"0X c #8FCB97",
"qX c #8DD094",
"wX c #8ED095",
"eX c #8ED195",
"rX c #8FD196",
"tX c #90D296",
"yX c #90D297",
"uX c #91DE90",
"iX c #94E092",
"pX c #96E194",
"aX c #9CCFA0",
"sX c #A1D2A8",
"dX c #A3D3A9",
"fX c #A4D4AA",
"gX c #A5D4AB",
"hX c #A8D5AD",
"jX c #A8D6AD",
"kX c #A9D5AE",
"lX c #AAD4B0",
"zX c #ADD7B3",
"xX c None",
/* pixels */
"xXxXxXxXxX          . X o O @ # % & xXxXxXxXxXxX",
"xXxXxXxXxX  pX5X2X<X*XXX X[.).}.yX= xXxXxXxXxXxX",
"xXxXxXxXxX  iX/.~.E.f.9.&.( Y X.tX- xXxXxXxXxXxX",
"xXxXxXxXxX. uX^.!.T.a.7.$./ I ..rX: xXxXxXxXxXxX",
"xXxXxXxXxXo 4X~.W.j.q.=.@.~ D ` eX, xXxXxXxXxXxX",
"xXxXxXxXxX+ 3XQ.T.d.8.*.' E A _ wX1 xXxXxXxXxXxX",
"xXxXxXxXxX$ 1XR.g.0.=.#.^ P N ) qX2 xXxXxXxXxXxX",
"xXxXxXxXxX* ,Xh.p.6.%.( T A b K 9X4 xXxXxXxXxXxX",
"xXxXxXxXxX= &Xp.7.&.O.~ L m c J 8X6 xXxXxXxXxXxX",
"xXxXxXxXxX- oX6.&.+.^ I V v k H 7X7 xXxXxXxXxXxX",
"xXxXxXxXxX> .X%.O.^ U C b l a F 6X9 xXxXxXxXxXxX",
"xXxXxXxXxX, {.( ~ I C n z s u M >Xq xXxXxXxXxXxX",
"- ; > , < 1 `.T L B b z s i t g :Xq q q q q q xX",
"> j ].'._.).(.A m v l s i t e r L.P.@X0XzXi.q xX",
"xX< h F.R Z m b x d p u u f G } B.A.J.dXu.q xXxX",
"xXxX3 ] |.s.:.;. .| -.>.1.4.l.v.C.D.sXy.q xXxXxX",
"xXxXxX5 [ #XZ.3.<.,.,.2.4.k.c.V.K.gXy.q xXxXxXxX",
"xXxXxXxX8 W +XS.w.5.4.e.l.c.V.K.fXt.q xXxXxXxXxX",
"xXxXxXxXxXq Q $XG.r.z.x.b.n.I.jXt.w xXxXxXxXxXxX",
"xXxXxXxXxXxXq ! %XH.N.V.m.U.hXt.0 xXxXxXxXxXxXxX",
"xXxXxXxXxXxXxX0 { ;XY.M.OXkXt.0 xXxXxXxXxXxXxXxX",
"xXxXxXxXxXxXxXxX0 S =X-XlXy.0 xXxXxXxXxXxXxXxXxX",
"xXxXxXxXxXxXxXxXxX0 y aXo.0 xXxXxXxXxXxXxXxXxXxX",
"xXxXxXxXxXxXxXxXxXxX0 q 0 xXxXxXxXxXxXxXxXxXxXxX"
};
