/* XPM */
static const char *download_32x32_xpm[] = {
/* columns rows colors chars-per-pixel */
"32 32 156 2 ",
"   c #097D09",
".  c #0C7C06",
"X  c #585A67",
"o  c #5E6279",
"O  c gray42",
"+  c #666873",
"@  c #6B6D73",
"#  c #6C6E7A",
"$  c #767676",
"%  c #70717A",
"&  c #7C7C7C",
"*  c #028401",
"=  c #008D00",
"-  c #15820A",
";  c #009500",
":  c #0A9305",
">  c #029901",
",  c #099E05",
"<  c #119608",
"1  c #129D09",
"2  c #138B11",
"3  c #289314",
"4  c #379F1B",
"5  c #0DA007",
"6  c #14A30A",
"7  c #1BA50D",
"8  c #1FA21F",
"9  c #23AA11",
"0  c #2AAC15",
"q  c #3BA61E",
"w  c #30AF18",
"e  c #3EA81F",
"r  c #2EB017",
"t  c #33B219",
"y  c #3BB51D",
"u  c #258B26",
"i  c #299329",
"p  c #3B973C",
"a  c #20A820",
"s  c #3BA92B",
"d  c #3FA839",
"f  c #32AC31",
"g  c #3DB136",
"h  c #409D33",
"j  c #43A723",
"k  c #44BA22",
"l  c #4ABC24",
"z  c #4EB327",
"x  c #4BAF33",
"c  c #10EB10",
"v  c #2DC02D",
"b  c #50C027",
"n  c #55C22A",
"m  c #5CC62E",
"M  c #5EC736",
"N  c #58C33F",
"B  c #64CA33",
"V  c #6CCD3C",
"C  c #64C837",
"Z  c #5CB841",
"A  c #54C55B",
"S  c #6ACC44",
"D  c #75D248",
"F  c #78D15F",
"G  c #7CD652",
"H  c #76C770",
"J  c #6AEB6B",
"K  c #83D95D",
"L  c #8ADD67",
"P  c #95E277",
"I  c #626780",
"U  c #767986",
"Y  c #70758D",
"T  c #7C7E88",
"R  c #777983",
"E  c #6D7391",
"W  c #717693",
"Q  c #747995",
"!  c #7A7E93",
"~  c #767C98",
"^  c #7E8297",
"/  c #7D829E",
"(  c #858585",
")  c #828594",
"_  c #8E8E93",
"`  c #949597",
"'  c #9B9B9E",
"]  c #939398",
"[  c #92A896",
"{  c #9AA29E",
"}  c #8086A0",
"|  c #868BA4",
" . c #8B8FA6",
".. c #8D91A9",
"X. c #9D9DA3",
"o. c #9397AE",
"O. c #959AB0",
"+. c #9EA2B6",
"@. c #A2A1A6",
"#. c #A4A4AC",
"$. c #A8A7AD",
"%. c #AEAEAE",
"&. c #A1BDA5",
"*. c #A3A6B8",
"=. c #A7ABBD",
"-. c #ACAEB8",
";. c #A6A8B2",
":. c #AFB1BB",
">. c #B3B3B3",
",. c #B1B3BB",
"<. c #BAB9BC",
"1. c #88C48F",
"2. c #96DA8D",
"3. c #9AE680",
"4. c #9BE29D",
"5. c #A1E98A",
"6. c #AAEE98",
"7. c #B4D0B8",
"8. c #BAF6B0",
"9. c #C2FABC",
"0. c #B3B6C5",
"q. c #B7BAC2",
"w. c #BBBCC3",
"e. c #BDBEC9",
"r. c #BFC0C6",
"t. c #BDC0CD",
"y. c gray77",
"u. c #C4C5CC",
"i. c #C7CACE",
"p. c #CBCCCE",
"a. c #C8DDCC",
"s. c #C2C3D2",
"d. c #C7C9D3",
"f. c #CDCDD3",
"g. c #CBCBD8",
"h. c #CFD0D3",
"j. c #CEDDD1",
"k. c #CED0DA",
"l. c #D2D3D5",
"z. c #D3D4DC",
"x. c #D7D8D9",
"c. c #DADADD",
"v. c #D7D8E1",
"b. c #DCDCE3",
"n. c #E0DEE4",
"m. c #DFE0E6",
"M. c #E4E4E6",
"N. c #E5E5EA",
"B. c #E8E7EF",
"V. c #EAEAEC",
"C. c #EDECF2",
"Z. c #F2F2F4",
"A. c #F6F5FA",
"S. c #F8F7FC",
"D. c #F9F8FC",
"F. c None",
/* pixels */
"F.F.F.F.F.F.F.F.F.F.F.F.F.F.F.F.F.F.F.F.F.F.F.F.F.F.F.F.F.F.F.F.",
"F.F.F.F.F.F.F.F.F.F.F.F.F.F.F.F.F.F.F.F.F.F.F.F.F.F.F.F.F.F.F.F.",
"F.F.F.F.F.F.F.F.F.F.F.F.F.F.F.F.F.F.F.F.F.F.F.F.F.F.F.F.F.F.F.F.",
"F.F.F.F.F.F.F.F.F.F.F.F.F.F.F.F.F.F.q s e e e F.F.F.F.F.F.F.F.F.",
"F.F.F.F.F.F.F.F.F.F.F.F.F.F.F.F.x S V B z 4 3 F.F.F.F.F.F.F.F.F.",
"F.F.F.F.F.F.F.F.F.F.F.F.F.F.F.H 6.5.P Z . F.F.F.F.F.F.F.F.F.F.F.",
"F.F.F.F.F.F.F.F.F.F.F.F.F.F.d 8.9.9.2.. F.F.F.F.F.F.F.F.F.F.F.F.",
"F.F.F.F.F.F.F.F.F.F.F.; = ; F P 5.6.h * F.F.F.F.F.F.F.F.F.F.F.F.",
"F.F.F.F.F.F.F.F.F.F.> M S S S G K L - = F.F.F.F.F.F.F.F.F.F.F.F.",
"F.F.F.F.F.F.F.F.F.F.F.0 n n m M C V j s g f 0 F.F.F.F.F.F.F.F.F.",
"F.F.F.F.F.F.F.F.F.F.F.: y y k b n n M m C C a F.F.F.F.F.F.F.F.F.",
"F.F.F.F.F.F.F.F.F.F.F.F.< r r y y y k l l 1 F.F.F.F.F.F.F.F.F.F.",
"F.F.F.F.F.F.F.F.F.F.F.F.F.1 7 7 9 0 t w : F.F.F.F.F.F.F.F.F.F.F.",
"F.F.F.F.F.F.F.F.F.F.F.F.l.i , 1 6 6 7 2 &.f.d.F.F.F.F.F.F.F.F.F.",
"F.F.F.F.F.F.F.F.F.f.h.z.N.7.= > > > 2 a.Z.n.y.$.] _ _ ] F.F.F.F.",
"F.F.F.F.F.F.F.f.z.n.Z.A.Z.Z.p ; ;   [ <.#.X.X.@.@.#.#.#.-.s.F.F.",
"F.F.F.F.f.z.b.C.m.D.A.A.C.V.j.* u { @.X.X.X._ X.X.X.#.w.i.| F.F.",
"F.p.p.b.C.A.A.C.r.C.Z.S.Z.Z.Z.V.B.M.m.b.c.f.;.u.u.b.B.e.o.I F.F.",
"p.V.A.D.A.A.S.S.N.B.Z.B.M.m.v.k.d.0.*.*.,.w.f.v.B.g.O.} W + F.F.",
"p.C.q.;.w.s.k.M.D.D.A.C.C.M.b.z.g.s.d.c.k.c.B.v.=.| Q E E X F.F.",
"p.Z.>.y.p.h.u.r.<.q.d.k.M.Z.C.B.N.b.z.z.M.m.0...~ E W Y + F.F.F.",
"p.Z.,.u.i.h.h.h.h.h.j.h.r.r.m.Z.B.v.b.B.t.O./ E E T # @ F.F.F.F.",
"l.Z.:.u.d.p.f.l.l.l.l.l.l.l.x.n.n.Z.k.*./ Q E ^ U @ F.F.F.F.F.F.",
"p.l.l.z.p.f.h.h.h.l.l.l.l.l.i.A J V.| Q E ~ ^ % @ F.F.F.F.F.F.F.",
"F.F.y.y.h.l.c.c.l.l.l.l.l.l.7.f c M.Y Q ) T @ F.F.F.F.F.F.F.F.F.",
"F.F.F.F.F.>.%.>.y.h.c.c.l.l.x.1.4.V.^ ) % @ F.F.F.F.F.F.F.F.F.F.",
"F.F.F.F.F.F.F.F.F.' ` ` %.<.x.V.V.V.T @ F.F.F.F.F.F.F.F.F.F.F.F.",
"F.F.F.F.F.F.F.F.F.F.F.F.F.( & & ( $ O F.F.F.F.F.F.F.F.F.F.F.F.F.",
"F.F.F.F.F.F.F.F.F.F.F.F.F.F.F.F.F.F.F.F.F.F.F.F.F.F.F.F.F.F.F.F.",
"F.F.F.F.F.F.F.F.F.F.F.F.F.F.F.F.F.F.F.F.F.F.F.F.F.F.F.F.F.F.F.F.",
"F.F.F.F.F.F.F.F.F.F.F.F.F.F.F.F.F.F.F.F.F.F.F.F.F.F.F.F.F.F.F.F.",
"F.F.F.F.F.F.F.F.F.F.F.F.F.F.F.F.F.F.F.F.F.F.F.F.F.F.F.F.F.F.F.F."
};
