/* XPM */
static const char *download_64x64_xpm[] = {
/* columns rows colors chars-per-pixel */
"64 64 221 2 ",
"   c #006F00",
".  c #007B00",
"X  c #037A05",
"o  c #117A0D",
"O  c #3A7B3C",
"+  c #444655",
"@  c #555A72",
"#  c #727274",
"$  c #018301",
"%  c #018B00",
"&  c #17860C",
"*  c #009500",
"=  c #029B01",
"-  c #0A9E05",
";  c #089908",
":  c #19980A",
">  c #188612",
",  c #1D9E1D",
"<  c #179D17",
"1  c #0F9513",
"2  c #2C9616",
"3  c #2F8F1E",
"4  c #0FA106",
"5  c #14A30A",
"6  c #1BA60D",
"7  c #19A70A",
"8  c #1DA613",
"9  c #23AA12",
"0  c #2BAD15",
"q  c #25A816",
"w  c #39A21D",
"e  c #2DB116",
"r  c #34B21A",
"t  c #3BB51D",
"y  c #39B81C",
"u  c #29A40B",
"i  c #238923",
"p  c #229D23",
"a  c #348335",
"s  c #1BB028",
"d  c #29A923",
"f  c #39B324",
"g  c #53B306",
"h  c #47AC23",
"j  c #44BA22",
"k  c #4CBE26",
"l  c #49B524",
"z  c #5DBE2E",
"x  c #51BA29",
"c  c #5AB934",
"v  c #46A132",
"b  c #61BD39",
"n  c #00C300",
"m  c #00E300",
"M  c #00E900",
"N  c #34C833",
"B  c #4CC201",
"V  c #52C300",
"C  c #56C40F",
"Z  c #49C124",
"A  c #54C22A",
"S  c #5BC42D",
"D  c #56C323",
"F  c #58C432",
"G  c #4FD93B",
"H  c #64CB2E",
"J  c #65CA32",
"K  c #69CD36",
"L  c #68CA38",
"P  c #6FD03B",
"I  c #239C46",
"U  c #499447",
"Y  c #499144",
"T  c #6FBF54",
"R  c #68936A",
"E  c #59BB6C",
"W  c #74A377",
"Q  c #4CCB4E",
"!  c #6CCC42",
"~  c #66C346",
"^  c #72C94B",
"/  c #76D549",
"(  c #7DD654",
")  c #7ED953",
"_  c #72C553",
"`  c #41EB46",
"'  c #6CC064",
"]  c #83D95C",
"[  c #85DB64",
"{  c #8ADE68",
"}  c #8CDB74",
"|  c #81CD68",
" . c #99E57E",
".. c #96E577",
"X. c #8FE16E",
"o. c #586086",
"O. c #646B8B",
"+. c #666C8B",
"@. c #6A708F",
"#. c #6D7282",
"$. c #7B7C84",
"%. c #6D7391",
"&. c #717693",
"*. c #747995",
"=. c #777C99",
"-. c #797E9A",
";. c #7A7E96",
":. c #7E8087",
">. c #7D8297",
",. c #7D829D",
"<. c #85858A",
"1. c #89898C",
"2. c #85868A",
"3. c #8D8D93",
"4. c #81859A",
"5. c #86899C",
"6. c #8C8E9C",
"7. c #818495",
"8. c #94949A",
"9. c #9A9A9E",
"0. c #949497",
"q. c #93B096",
"w. c #8187A1",
"e. c #858AA3",
"r. c #898EA5",
"t. c #868BA8",
"y. c #8D90A3",
"u. c #8D92AA",
"i. c #9395A3",
"p. c #9D9DA4",
"a. c #9296AB",
"s. c #969AAA",
"d. c #9B9EB2",
"f. c #969BB1",
"g. c #A09FA5",
"h. c #9EA3B6",
"j. c #9EA3BA",
"k. c #9CA0AF",
"l. c #A3A3A6",
"z. c #A4A4AA",
"x. c #AAAAAD",
"c. c #A2A5B4",
"v. c #AAABB4",
"b. c #A2A6B9",
"n. c #A5AABC",
"m. c #AAADBA",
"M. c #A7AAB5",
"N. c #AFB1BB",
"B. c #AFB6B6",
"V. c #B0B0B4",
"C. c #B4B5BC",
"Z. c #BCBCBC",
"A. c #B8B6BC",
"S. c #A7BCA9",
"D. c #92D18F",
"F. c #9AE585",
"G. c #97E389",
"H. c #99FB98",
"J. c #A2E98B",
"K. c #A1EF87",
"L. c #A9EE95",
"P. c #ABEF9A",
"I. c #A5E993",
"U. c #ABF39C",
"Y. c #B6C6BD",
"T. c #AAD3B3",
"R. c #AAF5A4",
"E. c #B1F3A2",
"W. c #B8F8AC",
"Q. c #BDFCB2",
"!. c #BDF6B4",
"~. c #C2FBBB",
"^. c #AAAFC0",
"/. c #ABB1C1",
"(. c #B3B5C2",
"). c #B7B9C1",
"_. c #BBBCC3",
"`. c #BABDCA",
"'. c #B7BAC9",
"]. c #BEC1CB",
"[. c #BFC0C6",
"{. c #BFC2D2",
"}. c #BEE3C2",
"|. c #C3C3C7",
" X c #C4C5CA",
".X c #C7C8CD",
"XX c #C9CACE",
"oX c #C8C7CD",
"OX c #C3C6D2",
"+X c #C4C8D4",
"@X c #CCCDD3",
"#X c #CECFD9",
"$X c #CFD0D3",
"%X c #CDD1DB",
"&X c #D1D2D5",
"*X c #D4D5DC",
"=X c #D7D8DA",
"-X c #DBDBDD",
";X c #D7D9D9",
":X c #C8FBC5",
">X c #D8E5DB",
",X c #D7D7E1",
"<X c #DCDCE3",
"1X c #DBDCE5",
"2X c #E3DDE4",
"3X c #E0DFE8",
"4X c #DFE2E4",
"5X c #E3E3E4",
"6X c #E5E4EB",
"7X c #EBEBEC",
"8X c #E8E6EB",
"9X c #EDECF2",
"0X c #F0EFF6",
"qX c #EFF0F3",
"wX c #F3F3F5",
"eX c #F6F4FA",
"rX c #F9F7FD",
"tX c #FCFCFE",
"yX c #F7F8F9",
"uX c #F0F0EF",
"iX c None",
/* pixels */
"iXiXiXiXiXiXiXiXiXiXiXiXiXiXiXiXiXiXiXiXiXiXiXiXiXiXiXiXiXiXiXiXiXiXiXiXiXiXiXiXiXiXiXiXiXiXiXiXiXiXiXiXiXiXiXiXiXiXiXiXiXiXiXiX",
"iXiXiXiXiXiXiXiXiXiXiXiXiXiXiXiXiXiXiXiXiXiXiXiXiXiXiXiXiXiXiXiXiXiXiXiXiXiXiXiXiXiXiXiXiXiXiXiXiXiXiXiXiXiXiXiXiXiXiXiXiXiXiXiX",
"iXiXiXiXiXiXiXiXiXiXiXiXiXiXiXiXiXiXiXiXiXiXiXiXiXiXiXiXiXiXiXiXiXiXiXiXiXiXiXiXiXiXiXiXiXiXiXiXiXiXiXiXiXiXiXiXiXiXiXiXiXiXiXiX",
"iXiXiXiXiXiXiXiXiXiXiXiXiXiXiXiXiXiXiXiXiXiXiXiXiXiXiXiXiXiXiXiXiXiXiXiXiXiXiXiXiXiXiXiXiXiXiXiXiXiXiXiXiXiXiXiXiXiXiXiXiXiXiXiX",
"iXiXiXiXiXiXiXiXiXiXiXiXiXiXiXiXiXiXiXiXiXiXiXiXiXiXiXiXiXiXiXiXiXiXiXiXiXiXiXiXiXiXiXiXiXiXiXiXiXiXiXiXiXiXiXiXiXiXiXiXiXiXiXiX",
"iXiXiXiXiXiXiXiXiXiXiXiXiXiXiXiXiXiXiXiXiXiXiXiXiXiXiXiXiXiXiXiXiXiXiXiXiXiXiXiXiXiXiXiXiXiXiXiXiXiXiXiXiXiXiXiXiXiXiXiXiXiXiXiX",
"iXiXiXiXiXiXiXiXiXiXiXiXiXiXiXiXiXiXiXiXiXiXiXiXiXiXiXiXiXiXiXiXiXiXiXiXiXiXiXiXiXiXiXiXiXiXiXiXiXiXiXiXiXiXiXiXiXiXiXiXiXiXiXiX",
"iXiXiXiXiXiXiXiXiXiXiXiXiXiXiXiXiXiXiXiXiXiXiXiXiXiXiXiXiXiXiXiXiXiXiXiXiXiXiXiXiXiXiXiXiXiXiXiXiXiXiXiXiXiXiXiXiXiXiXiXiXiXiXiX",
"iXiXiXiXiXiXiXiXiXiXiXiXiXiXiXiXiXiXiXiXiXiXiXiXiXiXiXiXiXiXiXiXiXiXiXz z z H z x x h h h w iXiXiXiXiXiXiXiXiXiXiXiXiXiXiXiXiXiX",
"iXiXiXiXiXiXiXiXiXiXiXiXiXiXiXiXiXiXiXiXiXiXiXiXiXiXiXiXiXiXiXiXiX~ ] / P K J K z h w 2 2 2 iXiXiXiXiXiXiXiXiXiXiXiXiXiXiXiXiXiX",
"iXiXiXiXiXiXiXiXiXiXiXiXiXiXiXiXiXiXiXiXiXiXiXiXiXiXiXiXiXiXiXg X...X.{ ] ] ] b 2 $ iXiXiXiXiXiXiXiXiXiXiXiXiXiXiXiXiXiXiXiXiXiX",
"iXiXiXiXiXiXiXiXiXiXiXiXiXiXiXiXiXiXiXiXiXiXiXiXiXiXiXiXiXiXc W.W.P.L. . ...T . X iXiXiXiXiXiXiXiXiXiXiXiXiXiXiXiXiXiXiXiXiXiXiX",
"iXiXiXiXiXiXiXiXiXiXiXiXiXiXiXiXiXiXiXiXiXiXiXiXiXiXiXiXiXiXE.:X~.~.~.~.~.} . o iXiXiXiXiXiXiXiXiXiXiXiXiXiXiXiXiXiXiXiXiXiXiXiX",
"iXiXiXiXiXiXiXiXiXiXiXiXiXiXiXiXiXiXiXiXiXiXiXiXiXiXiXiXiX| W.W.~.~.~.~.:XY X iXiXiXiXiXiXiXiXiXiXiXiXiXiXiXiXiXiXiXiXiXiXiXiXiX",
"iXiXiXiXiXiXiXiXiXiXiXiXiXiXiXiXiXiXiXiXiXiXiXiXiXiXiXiXiXK.L.L.E.E.E.~.D.X i iXiXiXiXiXiXiXiXiXiXiXiXiXiXiXiXiXiXiXiXiXiXiXiXiX",
"iXiXiXiXiXiXiXiXiXiXiXiXiXiXiXiXiXiXiXiXiXiXiXiXiXiXiXiX_ .... . .J.I.L.Y X iXiXiXiXiXiXiXiXiXiXiXiXiXiXiXiXiXiXiXiXiXiXiXiXiXiX",
"iXiXiXiXiXiXiXiXiXiXiXiXiXiXiXiXiXiXiXiXiXiX! F.J.G.} iX/ [ [ { { X. .} > & iXiXiXiXiXiXiXiXiXiXiXiXiXiXiXiXiXiXiXiXiXiXiXiXiXiX",
"iXiXiXiXiXiXiXiXiXiXiXiXiXiXiXiXiXiXiXiXiXiXJ [ G.U.R.Q.[ P / ( ] ] { T X > iXiXiXiXiXiXiXiXiXiXiXiXiXiXiXiXiXiXiXiXiXiXiXiXiXiX",
"iXiXiXiXiXiXiXiXiXiXiXiXiXiXiXiXiXiXiXiXiXiXu B g B C ! L J K P P ! ( c   $ iXiXiXiXiXiXiXiXiXiXiXiXiXiXiXiXiXiXiXiXiXiXiXiXiXiX",
"iXiXiXiXiXiXiXiXiXiXiXiXiXiXiXiXiXiXiXiXiXiXiXf F F A D A S S J J J K z w v E D.I.G.} iXiXiXiXiXiXiXiXiXiXiXiXiXiXiXiXiXiXiXiXiX",
"iXiXiXiXiXiXiXiXiXiXiXiXiXiXiXiXiXiXiXiXiXiXiX6 Z k j k Z A x A z S S H J K ^ ..P.W.~.Q.G.c iXiXiXiXiXiXiXiXiXiXiXiXiXiXiXiXiXiX",
"iXiXiXiXiXiXiXiXiXiXiXiXiXiXiXiXiXiXiXiXiXiXiXiXq y y j j j k k k x A A A S D V g B K ~ s * iXiXiXiXiXiXiXiXiXiXiXiXiXiXiXiXiXiX",
"iXiXiXiXiXiXiXiXiXiXiXiXiXiXiXiXiXiXiXiXiXiXiXiX% y r r t t t t j j j k k Z x F F F k 4 * iXiXiXiXiXiXiXiXiXiXiXiXiXiXiXiXiXiXiX",
"iXiXiXiXiXiXiXiXiXiXiXiXiXiXiXiXiXiXiXiXiXiXiXiXiX: e 0 0 0 r r y t t y j j j k Z j = iXiXiXiXiXiXiXiXiXiXiXiXiXiXiXiXiXiXiXiXiX",
"iXiXiXiXiXiXiXiXiXiXiXiXiXiXiXiXiXiXiXiXiXiXiXiXiXiX6 9 9 9 0 0 0 e e r r t t j f 1 iXiXiXiXiXiXiXiXiXiXiXiXiXiXiXiXiXiXiXiXiXiX",
"iXiXiXiXiXiXiXiXiXiXiXiXiXiXiXiXiXiXiXiXiXiXiXiXiXiXp 9 7 8 6 9 9 9 0 0 0 0 r 0 $ iXiXiXiXiXiXiXiXiXiXiXiXiXiXiXiXiXiXiXiXiXiXiX",
"iXiXiXiXiXiXiXiXiXiXiXiXiXiXiXiXiXiXiXiXiXiXiXiXiXiXiX* 8 - 5 6 7 6 6 9 9 d = % q.iXiXiXiXiXiXiXiXiXiXiXiXiXiXiXiXiXiXiXiXiXiXiX",
"iXiXiXiXiXiXiXiXiXiXiXiXiXiXiXiXiXiXiXiXiXiXiXiXiXiX6XW * , - - - 5 5 4 d * % &XeX0X8X6X2X,XiXiXiXiXiXiXiXiXiXiXiXiXiXiXiXiXiXiX",
"iXiXiXiXiXiXiXiXiXiXiXiXiXiXiXiXiXiXiXiXiXiXiX<X6XtXtX-X% < = = = - = w * i ;XtXeXeXrXrXtXtXtXrX6X,X|.l.iXiXiXiXiXiXiXiXiXiXiXiX",
"iXiXiXiXiXiXiXiXiXiXiXiXiXiXiXiXiXiXiXiX-X6XrXtXtXrXeXtXq.% p * = * p X a 4XtXrXrXeXeXeXeX9X2X@X_.V.V.C.C.v.v.x.z.iXiXiXiXiXiXiX",
"iXiXiXiXiXiXiXiXiXiXiXiXiXiXiXiXiXiX6X9XtXtXtXrXeXeXwXeX4X> = ; * , $ I =X9X*XoX#X6X2X@XA.l.9.8.p.g.l.z.v.v.p.z.A.).V.`.iXiXiXiX",
"iXiXiXiXiXiXiXiXiXiXiXiXiXiXiX<X9XtXtXtXtXtXyXyXyXwXwX7XeXS.% d , % R *X@Xl.1.$.$.<.2.2.3.p.p.g.g.g.g.l.z.z.p.g.v._.*XeX,XiXiXiX",
"iXiXiXiXiXiXiXiXiXiXiXiX<X8XtXtX6X7XtXtXtXtXtXyXyXwXwXqXwX8XU * $ O B.g.$.2.1.1.1.<.<.<.<.<.8.g.p.g.g.g.l.z.z.v.|.&X=X#XOXiXiXiX",
"iXiXiXiXiXiXiXiXiX-X8XrXtXtXtX3XM.wXtXtXtXtXyXyXyXeXwXwX9XeXY.% R 9.8.8.9.9.8.0.0.3.3.3.6.3.# 3.0.3.8.8.8.i.v.|.$X X'.m.d.iXiXiX",
"iXiXiXiXiXiXiX8XwXtXtXrXrXeXrX3Xc.=XuXtXtXtXtXtXyXyXwXwXqXuX9X4X9X6X2X5X<X,X-X*X*X*X#X&XoXV.0.V.).).).).OX5X9X1X X/.h.u.u.+.iXiX",
"iXiXiXiX<X9XeX9X0XrXeXeXrXeXeXrX*XoX5XuXyXyXwXeXeXyXyXwXwXqX9XqX9X7X7X6X8X6X6X2X-X#X XC.z.x.@X<X*X#X*X9XtXqX*X'.b.a.w.-.=.@ iXiX",
"iX-X7XtXtXtX X X<XeXeXeXrXeXrXrXrX0X6X0XtXyX0X7X8X6X5X5X5X2X2X<X,X*X#XOX'.N.c.a.r.8.l.V._.*X*X+X#X2XwX0X,X`.b.f.t.-.*.%.%.@ iXiX",
"-XtXwXwXwXwXtXtXtXtXtXrXeXrXeXeXeXrXrX0X0X0X9X6X5X=X$XOX].(.m.d.i.,.&.O.+.*.e.k.(.oX*X,X,X#X#X<X0XeX6XOX^.d.u.,.*.%.%.%.&.+ iXiX",
"8XuX7X5XM.v.). X$X<X8XwXyXtXtXtXrXeXeXeXeXeXeX0X0X9X9X6X6X1X1X1X,X,X,X,X1X1X5X6X3X1X*X#X+X-X9XyX7X#X/.h.u.,.-.%.%.@.%.-.#.iXiXiX",
"5XuXuXXXa. X[._.).C.C.A._. X*X5X0XyXrXtXrXeXeX0XeXeXeXwX0X0X0X0X9X9X9X9X6X1X1X,X*X#X+X*X6XeX9X*X'.b.a.w.-.*.%.%.%.&.e.$.iXiXiXiX",
"7XuXuX XB..X.X@X$X$X$X@XXX|.Y.Z.A._..X=X5X9XyXtXtXwX0X9X9X9X9X6X6X3X*X,X,X1X,X#X#X#X2XwXwX1X].n.f.t.,.&.%.@.@.%.,.>.$.iXiXiXiXiX",
"8X7XuX|.v..X.X.XXX@X$X@X$X&X&X;X&X$X XN._.).[.@X4X7XeXeX0X9X6X6X6X#XN. X&X*X@X#X,X0XwX6X+X^.d.u.,.=.%.%.@.%.*.6.:.iXiXiXiXiXiXiX",
"8XuXuX|.m..X X.XXX@XXX$X$X$X$X&X&X;XA.].*XN.&X_.)._. X&X6XwXwX7X3X1X,X,X#X+X*X7XeX9X%X(.h.u.,.>.&.%.%.%.&.4.5.:.iXiXiXiXiXiXiXiX",
"5XuXuX|.m..X.X.XXX@X$X$X$X&X$X&X$X;Xm.+X$Xn.4Xc.<X X|. X_.4X8X7XuX9X3X@X*X6XwX0X*X'.b.f.e.,.*.%.@.@.%.>.y.<.iXiXiXiXiXiXiXiXiXiX",
"8XwX7XXXN..X XXX@X@X@X$X$X&X$X&X$X*XB.+X$X/.-Xh.4Xc.%X>X&X-X5X>X2X5X7X7XuXyX3XOXn.d.r.,.*.%.@.@.%.*.5.6.<.iXiXiXiXiXiXiXiXiXiXiX",
";XtXwX XM..X.X.XXX@XXX$X$X$X&X&X$X-XN.{.@X/.<Xh.4Xc.*X&X&X;X5X7X5X2X-X7X0XoX/.d.u.,.=.%.%.%.@.&.4.i.3.iXiXiXiXiXiXiXiXiXiXiXiXiX",
"iX;XtXwX[.[. X.XXX$X$X$X$X$X$X&X$X;XN.{.$X/.-Xh.4Xc.&X;X&X;X5XXXT.>X2X>X8Xn.u.w.,.%.%.%.@.&.>.y.6.2.iXiXiXiXiXiXiXiXiXiXiXiXiXiX",
"iXiXiX5X9XwX4X@X.X.XXX$X$X&X$X&X$X;XN.{.$X/.-Xh.4Xc.*X;X&X;X$XE m ` >X2X7Xc.*.*.%.@.%.%.*.5.i.3.iXiXiXiXiXiXiXiXiXiXiXiXiXiXiXiX",
"iXiXiXiXiX;X5X7XyX7X-X&XXX@X$X&X&X;XC.+X$Xm.-Xj.4Xc.*X=X$X-XY.Q G M R.2X7Xb.O.&.@.%.*.4.i.3.1.iXiXiXiXiXiXiXiXiXiXiXiXiXiXiXiXiX",
"iXiXiXiXiXiXiXiXiX-X5XwXwX7X-X&XXX;Xv.{.$X/.>Xh.4Xc.*X=X&X-XB.s N M H.2X8Xz.o.@.*.7.r.p.3.iXiXiXiXiXiXiXiXiXiXiXiXiXiXiXiXiXiXiX",
"iXiXiXiXiXiXiXiXiXiXiXiXXX;X2XuXwXuX&X#X X/.%Xh.4Xc.,X*X$X;X&XI n M :X2X8Xc.O.>.5.p.3.iXiXiXiXiXiXiXiXiXiXiXiXiXiXiXiXiXiXiXiXiX",
"iXiXiXiXiXiXiXiXiXiXiXiXiXiXiXiXoX&X-X7XwX7X4X].;Xb.%X&X$X;X8X|.D.}.5X;X7Xv.*.i.p.1.iXiXiXiXiXiXiXiXiXiXiXiXiXiXiXiXiXiXiXiXiXiX",
"iXiXiXiXiXiXiXiXiXiXiXiXiXiXiXiXiXiXiXiXZ.XX;X8XqXuX8X2X;X5X5X5X3X2X-X-X8Xv.i.0.iXiXiXiXiXiXiXiXiXiXiXiXiXiXiXiXiXiXiXiXiXiXiXiX",
"iXiXiXiXiXiXiXiXiXiXiXiXiXiXiXiXiXiXiXiXiXiXiXiXiXY.XX;X7XwXyX7X6X4X-X5X7Xz.1.iXiXiXiXiXiXiXiXiXiXiXiXiXiXiXiXiXiXiXiXiXiXiXiXiX",
"iXiXiXiXiXiXiXiXiXiXiXiXiXiXiXiXiXiXiXiXiXiXiXiXiXiXiXiXiXx.Z.XX;X7XwXwXV.iXiXiXiXiXiXiXiXiXiXiXiXiXiXiXiXiXiXiXiXiXiXiXiXiXiXiX",
"iXiXiXiXiXiXiXiXiXiXiXiXiXiXiXiXiXiXiXiXiXiXiXiXiXiXiXiXiXiXiXiXiXiXg.iXiXiXiXiXiXiXiXiXiXiXiXiXiXiXiXiXiXiXiXiXiXiXiXiXiXiXiXiX",
"iXiXiXiXiXiXiXiXiXiXiXiXiXiXiXiXiXiXiXiXiXiXiXiXiXiXiXiXiXiXiXiXiXiXiXiXiXiXiXiXiXiXiXiXiXiXiXiXiXiXiXiXiXiXiXiXiXiXiXiXiXiXiXiX",
"iXiXiXiXiXiXiXiXiXiXiXiXiXiXiXiXiXiXiXiXiXiXiXiXiXiXiXiXiXiXiXiXiXiXiXiXiXiXiXiXiXiXiXiXiXiXiXiXiXiXiXiXiXiXiXiXiXiXiXiXiXiXiXiX",
"iXiXiXiXiXiXiXiXiXiXiXiXiXiXiXiXiXiXiXiXiXiXiXiXiXiXiXiXiXiXiXiXiXiXiXiXiXiXiXiXiXiXiXiXiXiXiXiXiXiXiXiXiXiXiXiXiXiXiXiXiXiXiXiX",
"iXiXiXiXiXiXiXiXiXiXiXiXiXiXiXiXiXiXiXiXiXiXiXiXiXiXiXiXiXiXiXiXiXiXiXiXiXiXiXiXiXiXiXiXiXiXiXiXiXiXiXiXiXiXiXiXiXiXiXiXiXiXiXiX",
"iXiXiXiXiXiXiXiXiXiXiXiXiXiXiXiXiXiXiXiXiXiXiXiXiXiXiXiXiXiXiXiXiXiXiXiXiXiXiXiXiXiXiXiXiXiXiXiXiXiXiXiXiXiXiXiXiXiXiXiXiXiXiXiX",
"iXiXiXiXiXiXiXiXiXiXiXiXiXiXiXiXiXiXiXiXiXiXiXiXiXiXiXiXiXiXiXiXiXiXiXiXiXiXiXiXiXiXiXiXiXiXiXiXiXiXiXiXiXiXiXiXiXiXiXiXiXiXiXiX",
"iXiXiXiXiXiXiXiXiXiXiXiXiXiXiXiXiXiXiXiXiXiXiXiXiXiXiXiXiXiXiXiXiXiXiXiXiXiXiXiXiXiXiXiXiXiXiXiXiXiXiXiXiXiXiXiXiXiXiXiXiXiXiXiX",
"iXiXiXiXiXiXiXiXiXiXiXiXiXiXiXiXiXiXiXiXiXiXiXiXiXiXiXiXiXiXiXiXiXiXiXiXiXiXiXiXiXiXiXiXiXiXiXiXiXiXiXiXiXiXiXiXiXiXiXiXiXiXiXiX"
};
