/* XPM */
static const char *earth_24x24_xpm[] = {
/* columns rows colors chars-per-pixel */
"24 24 186 2 ",
"   c #2A3B4F",
".  c #062C79",
"X  c #082F7C",
"o  c #09327E",
"O  c #294F7A",
"+  c #0C3783",
"@  c #0E3B86",
"#  c #0D3B8B",
"$  c #113F8A",
"%  c #0E3D91",
"&  c #13438E",
"*  c #1B428B",
"=  c #0C4192",
"-  c #144593",
";  c #164994",
":  c #134798",
">  c #164B9B",
",  c #194F9B",
"<  c #1D549E",
"1  c #275081",
"2  c #204D92",
"3  c #294E94",
"4  c #204F98",
"5  c #2A579F",
"6  c #2A5999",
"7  c #30599D",
"8  c #36599B",
"9  c #2A609A",
"0  c #1455A5",
"q  c #1C55A3",
"w  c #1F59A5",
"e  c #1557A9",
"r  c #165AAB",
"t  c #195DAD",
"y  c #2457A3",
"u  c #235BA5",
"i  c #2C5CA5",
"p  c #245EAA",
"a  c #3E5FA1",
"s  c #355FA4",
"d  c #1B60AF",
"f  c #1D62B1",
"g  c #2D62A3",
"h  c #2663AD",
"j  c #2A64AC",
"k  c #2B69AC",
"l  c #2761A4",
"z  c #3260A7",
"x  c #3D62A5",
"c  c #3367AB",
"v  c #356AAD",
"b  c #3C68AA",
"n  c #2366B3",
"m  c #2669B5",
"M  c #2B6CB5",
"N  c #2A6DBA",
"B  c #316CB5",
"V  c #2E71B7",
"C  c #2E72B9",
"Z  c #3176BC",
"A  c #3379BF",
"S  c #3B75B7",
"D  c #4465A6",
"F  c #456BAA",
"G  c #496CAA",
"H  c #4C71AE",
"J  c #4E77B2",
"K  c #4679B6",
"L  c #517CB6",
"P  c #2776C6",
"I  c #2676C8",
"U  c #2B78CA",
"Y  c #347BC0",
"T  c #3275CA",
"R  c #317CCF",
"E  c #3C7CCD",
"W  c #0C59E8",
"Q  c #1361E9",
"!  c #136BED",
"~  c #1A6CEC",
"^  c #1E73EC",
"/  c #1B7DF1",
"(  c #206FE9",
")  c #2B77E0",
"_  c #2876E8",
"`  c #227DEF",
"'  c #2A7EEC",
"]  c #2B7DE5",
"[  c #347EE2",
"{  c #227FF0",
"}  c #5382B8",
"|  c #3780C4",
" . c #3983C7",
".. c #3B85CA",
"X. c #3E8BCD",
"o. c #3180D7",
"O. c #3682DA",
"+. c #398CDF",
"@. c #3E81D5",
"#. c #2787E2",
"$. c #2D8AEC",
"%. c #2D85ED",
"&. c #3F8EE7",
"*. c #388BEB",
"=. c #2F95E9",
"-. c #3690E0",
";. c #3C94EF",
":. c #2384F3",
">. c #2C8BF3",
",. c #3485F1",
"<. c #318EF6",
"1. c #2C92F4",
"2. c #2E98F5",
"3. c #3394F4",
"4. c #3B94F5",
"5. c #379DF6",
"6. c #3B9DF4",
"7. c #3F9DF8",
"8. c #38A2F7",
"9. c #3CA3F9",
"0. c #4484C2",
"q. c #4280CF",
"w. c #4C8DC7",
"e. c #5897CC",
"r. c #468BD4",
"t. c #4C8FD9",
"y. c #4393D3",
"u. c #4E93D1",
"i. c #4698D7",
"p. c #479AD8",
"a. c #4A9CDD",
"s. c #4792DA",
"d. c #529CDB",
"f. c #6294C4",
"g. c #6096C9",
"h. c #649AC9",
"j. c #7099C6",
"k. c #779EC8",
"l. c #7196C3",
"z. c #4CA2DE",
"x. c #53A3DF",
"c. c #6EA3CC",
"v. c #6EA7D3",
"b. c #68A5DD",
"n. c #469BEB",
"m. c #4096F7",
"M. c #419CF7",
"N. c #4BA4E0",
"B. c #50A2E6",
"V. c #51AAE5",
"C. c #56A7E8",
"Z. c #54AFE8",
"A. c #58B5ED",
"S. c #56B2EA",
"D. c #41A3F6",
"F. c #4CA5F7",
"G. c #4CA5F9",
"H. c #4AABFA",
"J. c #46A9F7",
"K. c #55A6F7",
"L. c #5BADF4",
"P. c #4DB0F8",
"I. c #53B2FA",
"U. c #5CB7FB",
"Y. c #5AB8F6",
"T. c #68BBEA",
"R. c #63ABF5",
"E. c #64B9F7",
"W. c #65BDFC",
"Q. c #68BDFB",
"!. c #77B8F7",
"~. c #5FC1F7",
"^. c #6FC3F6",
"/. c #6FC7FD",
"(. c #65C1FD",
"). c #72C6FC",
"_. c #77CAFD",
"`. c #7CC9FC",
"'. c #81BEEB",
"]. c #8FC9F3",
"[. c #8CCDFB",
"{. c #81C8F7",
"}. c #94CEF8",
"|. c #8CD2FC",
" X c #93D0F5",
".X c None",
/* pixels */
".X.X.X.X.X.X.X.XX . . . . X X .X.X.X.X.X.X.X.X.X",
".X.X.X.X.X.XX * 8 a D 8 7 e.K 2 X .X.X.X.X.X.X.X",
".X.X.X.Xo * D D D D l.[.'.^.Y.F.d.& X .X.X.X.X.X",
".X.X.Xo 3 D D G G G k.}.{.b.G.H.7.;.c X .X.X.X.X",
".X.X+ 3 x D G L } J j.}.b.b.w.R t.&.,.u o .X.X.X",
".X.X* x D F L f.h.f.].!.R.K.t.C j @.>.%.; .X.X.X",
".X+ 5 s x F } f.c.}.[.`.).W.G.m.4.M.>.>.q.+ .X.X",
".X& y i z b K K v.|.{._./.W.U.H.4.<.M.:.~ < .X.X",
"@ B r.y i z c c g.`.).Q.(.U.I.I.F.3.R O.! j @ .X",
"@ r.4.v q u u p v ).W.U.I.F.P.P.T.n.*.N ,.# # .X",
"& +.4.0.h 0 0 e e 0.x.a.z.H.D.9.T.C.{ *.= % # .X",
"& L.D.7.P.0 e e e t e t q I.9.6.N.n.^ [ % # & .X",
"& -.6.J.E.0 r r t f d f d N.8.=.$.' ~ p % # & .X",
"& p.8.8.L.t t f f f n n f o.2.#.{ ~ ) - : - - .X",
"; V 2.1.s.t f n n m m m n P >.%.( ~ T > : : ; .X",
".X6 >.1.g w p h m m M V M P :.' ~ _ p , > : .X.X",
".X, P :.S u h M V C Y A A u.:.Q Q M w q , , .X.X",
".X.Xz ] T h m C A | ......w.! W q.h p w q .X.X.X",
".X.X< h O.m Z A  .X.y.i.y.u.#.E C M h u < .X.X.X",
".X.X.Xw } k A  .X.i.a.z.z.i.r...Y C h w .X.X.X.X",
".X.X.X.Xu h A ..y.z.V.S.Z.z.i.X.Y k u .X.X.X.X.X",
".X.X.X.X.X.Xl Z X.N.A.~.Y.V.X.A l 1 .X.X.X.X.X.X",
".X.X.X.X.X.X.X.Xg k C Z C k 9 O   .X.X.X.X.X.X.X",
".X.X.X.X.X.X.X.X.X.X.X.X.X.X.X.X.X.X.X.X.X.X.X.X"
};
