/* XPM */
static const char *edit_64x64_xpm[] = {
/* columns rows colors chars-per-pixel */
"64 64 250 2 ",
"   c #0C0600",
".  c #005E00",
"X  c #005F00",
"o  c #006700",
"O  c #387D27",
"+  c #327E32",
"@  c #337E32",
"#  c #377E36",
"$  c #544019",
"%  c #63522A",
"&  c #675128",
"*  c #7F5E26",
"=  c #70582A",
"-  c #765F2E",
";  c #4F6A26",
":  c #427932",
">  c #73602D",
",  c #7E622E",
"<  c #417D41",
"1  c #5F656D",
"2  c #6D6963",
"3  c #686568",
"4  c #696868",
"5  c DimGray",
"6  c #6A6A6A",
"7  c #6D6C6B",
"8  c #6A7676",
"9  c #747474",
"0  c #787978",
"q  c #797979",
"w  c #7F7F7E",
"e  c #B6221C",
"r  c #B2302D",
"t  c #B4332F",
"y  c #B43330",
"u  c #B23431",
"i  c #B93D39",
"p  c #BA423E",
"a  c #BE433F",
"s  c #87612C",
"d  c #83642F",
"f  c #876931",
"g  c #8B6B32",
"h  c #94753B",
"j  c #91733E",
"k  c #997538",
"l  c #987739",
"z  c #99783A",
"x  c #9C7A3C",
"c  c #9F7C3C",
"v  c #935452",
"b  c #B44D47",
"n  c #B4514C",
"m  c #B8504C",
"M  c #BC544E",
"N  c #B47A78",
"B  c #B27D7A",
"V  c #C74541",
"C  c #CB4C47",
"Z  c #C84F4A",
"A  c #CE4F4A",
"S  c #C4514C",
"D  c #C9504B",
"F  c #C9524D",
"G  c #C65651",
"H  c #CA5C56",
"J  c #D15F58",
"K  c #CD605B",
"L  c #CC615B",
"P  c #CD635E",
"I  c #CF6760",
"U  c #D66660",
"Y  c #D16A64",
"T  c #D16B65",
"R  c #D16C67",
"E  c #D6746D",
"W  c #D9726B",
"Q  c #DC746B",
"!  c #D77770",
"~  c #DB7C75",
"^  c #1C891C",
"/  c #278726",
"(  c #268826",
")  c #268926",
"_  c #268A26",
"`  c #248F24",
"'  c #258F25",
"]  c #268F24",
"[  c #229023",
"{  c #259025",
"}  c #279027",
"|  c #20B22E",
" . c #31B331",
".. c #38B338",
"X. c #3BBA3D",
"o. c #3AB948",
"O. c #539151",
"+. c #4FB94C",
"@. c #4CBA4C",
"#. c #75B54D",
"$. c #74BA4F",
"%. c #6FBB6E",
"&. c #71BC6E",
"*. c #56C35E",
"=. c #62C562",
"-. c #65C565",
";. c #62C865",
":. c #76C876",
">. c #78C779",
",. c #79C779",
"<. c #7ECD7B",
"1. c #7CCD7C",
"2. c #7DCD7D",
"3. c #7ECE7E",
"4. c #B58E3F",
"5. c #918745",
"6. c #AD8942",
"7. c #AD8A42",
"8. c #AD8A43",
"9. c #AE8A42",
"0. c #B18D42",
"q. c #A89046",
"w. c #81807E",
"e. c #83817F",
"r. c #A2977E",
"t. c #87B66D",
"y. c #C79F4E",
"u. c #C7A14F",
"i. c #C7A252",
"p. c #C8A453",
"a. c #C8A456",
"s. c #C9A65A",
"d. c #DD8078",
"f. c #DF847D",
"g. c #E08179",
"h. c #CDAD69",
"j. c #DFBE76",
"k. c #A3CA79",
"l. c #E0C27B",
"z. c #E2C47E",
"x. c #E7CC7C",
"c. c #E7CC7D",
"v. c #828180",
"b. c #838180",
"n. c #848181",
"m. c #858381",
"M. c #8B8780",
"N. c #888786",
"B. c #868983",
"V. c #8D8B8A",
"C. c #8F8D8A",
"Z. c #8F8C8C",
"A. c #90908F",
"S. c #8A9190",
"D. c #969493",
"F. c #969594",
"G. c #989694",
"H. c #999795",
"J. c #9A9795",
"K. c #989796",
"L. c #9B9896",
"P. c #9B9C96",
"I. c #A19D9B",
"U. c #A39F9C",
"Y. c #B5B3AE",
"T. c #B3B2B2",
"R. c #B5B3B1",
"E. c #B6B3B2",
"W. c #B4B3B4",
"Q. c #B8B2B2",
"!. c #BAB6B3",
"~. c #BBB7B4",
"^. c #BFBCBA",
"/. c #E38D85",
"(. c #E28E86",
"). c #E58F88",
"_. c #EF958C",
"`. c #F39A91",
"'. c #EDA298",
"]. c #F3A39A",
"[. c #F2A89F",
"{. c #D6ACA9",
"}. c #E2BEBB",
"|. c #87CF87",
" X c #88CF88",
".X c #8FDA8F",
"XX c #95CD95",
"oX c #96DB96",
"OX c #97DB97",
"+X c #98DB97",
"@X c #A3D28D",
"#X c #93E39C",
"$X c #ACE2AE",
"%X c #AFE3AF",
"&X c #BBE4AE",
"*X c #B1E4B0",
"=X c #D7DD8D",
"-X c #E2C684",
";X c #E6CA89",
":X c #F4D894",
">X c #F4D995",
",X c #F2DA9A",
"<X c #F5DF98",
"1X c #F4DE9D",
"2X c #F5DE9D",
"3X c #FDE69F",
"4X c #F7E0A0",
"5X c #F6E0A1",
"6X c #FCE5A2",
"7X c #FFE9A7",
"8X c #FFEEA6",
"9X c #FFF0AB",
"0X c #BFC1C0",
"qX c #C4C1C0",
"wX c #C4C2C0",
"eX c #C7C5C4",
"rX c #CBCBCB",
"tX c #D4D0CE",
"yX c #D1D0D1",
"uX c LightGray",
"iX c #D6D3D1",
"pX c #D5D5D5",
"aX c #D5D6D5",
"sX c #D9D8D6",
"dX c #DAD8D7",
"fX c gray85",
"gX c gainsboro",
"hX c #DDDDDD",
"jX c #F3D1CF",
"kX c #E4DFDF",
"lX c #C0E9C0",
"zX c #E2E1E1",
"xX c #E4E2E1",
"cX c #E5E3E2",
"vX c #E0E4E5",
"bX c #E7E6E5",
"nX c #E7E7E6",
"mX c #E7E7E7",
"MX c #E5E9E8",
"NX c #EAEBE8",
"BX c #EDEBEB",
"VX c #EEEDEC",
"CX c gray96",
"ZX c #F6F8F6",
"AX c gray98",
"SX c #FCFAFC",
"DX c gray99",
"FX c #FDFDFD",
"GX c #FEFEFE",
"HX c None",
/* pixels */
"HXHXHXHXHXHXHXHXHXHXHXHXHXHXHXHXHXHXHXHXHXHXHXHXHXHXHXHXHXHXHXHXHXHXHXHXHXHXHXHXHXHXHXHXHXHXHXHXHXHXHXHXHXHXHXHXHXHXHXHXHXHXHXHX",
"HXHXHXHXHXHXHXHXHXHXHXHXHXHXHXHXHXHXHXHXHXHXHXHXHXHXHXHXHXHXHXHXHXHXHXHXHXHXHXHXHXHXHXHXHXHXHXHXHXHXHXHXHXHXHX(.g.R HXHXHXHXHXHX",
"HXHXHXHXHXHXHXHXHXHXHXHXHXHXHXHXHXHXHXHXHXHXHXHXHXHXHXHXHXHXHXHXHXHXHXHXHXHXHXHXHXHXHXHXHXHXHXHXHXHXHXHXHXHX'.`.d.W U HXHXHXHXHX",
"HXHXHXHXHXHXHXHXHXHXHXHXHXHXHXHXHXHXHXHXHXHXHXHXHXHXHXHXHXHXHXHXHXHXHXHXHXHXHXHXHXHXHXHXHXHXHXHXHXHXHXHXHX[.]./.~ T K D HXHXHXHX",
"HXHXHXHXHXHXHXHXHXHXHXHXHXHXHXHXHXHXHXHXHXHXHXHXHXHXHXHXHXHXHXHXHXHXHXHXHXHXHXHXHXHXHXHXHXHXHXHXHXHXHXHX}._.).f.E I H a u HXHXHX",
"HXHXHXHXHXHXHXHXHXHXHXHXHXHXHXHXHXHXHXHXHXHXHXHXHXHXHXHXHXHXHXHXHXHXHXHXHXHXHXHXHXHXHXHXHXHXHXHXHXHXHXT.vXjXQ ! Y L S y V b HXHX",
"HXHXHXHXHXHXHXHXHXHXHXHXHXHXHXHXHXHXHXHXHXHXHXHXHXHXHXHXHXHXHXHXHXHXHXHXHXHXHXHXHXHXHXHXHXHXHXHXHXHXrXuXgXMX{.J P G i t F HXHXHX",
"HXHXHXHXHXHXHXHXHXHXHXHXHXHXHXHXHXHXHXHXHXHXHXHXHXHXHXHXHXHXHXHXHXHXHXHXHXHXHXHXHXHXHXHXHXHXHXHXHXuXDXCXmXcX0XB Z p r A n HXHXHX",
"HXHXHXHXHXHXHXHXHXHXHXHXHXHXHXHXHXHXHXHXHXHXHXHXHXHXHXHXHXHXHXHXHXHXHXHXHXHXHXHXHXHXHXHXHXHXHXHXpXAXFXVXxXdXqXS.v e C m HXHXHXHX",
"HXHXHXHXHXHXHXHXHXHXHXHXHXHXHXHXHXHXHXHXHXHXHXHXHXHXHXHXHXHXHXHXHXHXHXHXHXHXHXHXHXHXHXHXHXHXHXW.fXGXBXtX~.^.E.D.8 N M HXHXHXHXHX",
"HXHXHXHXHXHXHXHXHXHXHXHXHXHXHXHXHXHXHXHXHXHXHXHXHXHXHXHXHXHXHXHXHXHXHXHXHXHXHXHXHXHXHXHXHXHXyXaXhXzXiX!.L.m.V.q v.A.HXHXHXHXHXHX",
"HXHXHXHXHXHXHXHXHXHXHXHXHXHXHXHXHXHXHXHXHXHXHXHXHXHXHXHXHXHXHXHXHXHXHXHXHXHXHXHXHXHXHXHXHXXXZXSXnXbXwXJ.b.6 5 N.w.HXHXHXHXHXHXHX",
"HXHXHXHXHXHXHXHXHXHXHXHXHXHXHXHXHXHXHXHXHXHXHXHXHXHXHXHXHXHXHXHXHXHXHXHXHXHXHXHXHXHXHXHX3..XlXNXkXsXeXF.4 6 H.I.HXHXHXHXHXHXHXHX",
"HXHXHXHXHXHXHXHXHXHXHXHXHXHXHXHXHXHXHXHXHXHXHXHXHXHXHXHXHXHXHXHXHXHXHXHXHXHXHXHXHXHXHX1.oX*X2.&.Y.Q.R.K.9 G.U.HXHXHXHXHXHXHXHXHX",
"HXHXHXHXHXHXHXHXHXHXHXHXHXHXHXHXHXHXHXHXHXHXHXHXHXHXHXHXHXHXHXHXHXHXHXHXHXHXHXHXHXHX1.OX%X|...X.%.B.n.0 w C.HXHXHXHXHXHXHXHXHXHX",
"HXHXHXHXHXHXHXHXHXHXHXHXHXHXHXHXHXHXHXHXHXHXHXHXHXHXHXHXHXHXHXHXHXHXHXHXHXHXHXHXHX1.OX%X X .@.-.:.< 3 Z.e.HXHXHXHXHXHXHXHXHXHXHX",
"HXHXHXHXHXHXHXHXHXHXHXHXHXHXHXHXHXHXHXHXHXHXHXHXHXHXHXHXHXHXHXHXHXHXHXHXHXHXHXHX1.OX%X X .@.=.,.# . O.P.HXHXHXHXHXHXHXHXHXHXHXHX",
"HXHXHXHXHXHXHXHXHXHXHXHXHXHXHXHXHXHXHXHXHXHXHXHXHXHXHXHXHXHXHXHXHXHXHXHXHXHXHX1.OX%X X .@.=.,.+ . } ^ HXHXHXHXHXHXHXHXHXHXHXHXHX",
"HXHXHXHXHXHXHXHXHXHXHXHXHXHXHXHXHXHXHXHXHXHXHXHXHXHXHXHXHXHXHXHXHXHXHXHXHXHX1.OX%X X .@.=.,.+ . { _ HXHXHXHXHXHXHXHXHXHXHXHXHXHX",
"HXHXHXHXHXHXHXHXHXHXHXHXHXHXHXHXHXHXHXHXHXHXHXHXHXHXHXHXHXHXHXHXHXHXHXHXHX1.OX%X X .@.=.,.+ . { _ HXHXHXHXHXHXHXHXHXHXHXHXHXHXHX",
"HXHXHXHXHXHXHXHXHXHXHXHXHXHXHXHXHXHXHXHXHXHXHXHXHXHXHXHXHXHXHXHXHXHXHXHX1.OX%X X .@.=.,.+ . { _ HXHXHXHXHXHXHXHXHXHXHXHXHXHXHXHX",
"HXHXHXHXHXHXHXHXHXHXHXHXHXHXHXHXHXHXHXHXHXHXHXHXHXHXHXHXHXHXHXHXHXHXHX1.OX%X X .@.=.,.+ . { _ HXHXHXHXHXHXHXHXHXHXHXHXHXHXHXHXHX",
"HXHXHXHXHXHXHXHXHXHXHXHXHXHXHXHXHXHXHXHXHXHXHXHXHXHXHXHXHXHXHXHXHXHX1.OX%X X .@.=.,.+ . { _ HXHXHXHXHXHXHXHXHXHXHXHXHXHXHXHXHXHX",
"HXHXHXHXHXHXHXHXHXHXHXHXHXHXHXHXHXHXHXHXHXHXHXHXHXHXHXHXHXHXHXHXHX1.OX%X X .@.=.,.+ . { _ HXHXHXHXHXHXHXHXHXHXHXHXHXHXHXHXHXHXHX",
"HXHXHXHXHXHXHXHXHXHXHXHXHXHXHXHXHXHXHXHXHXHXHXHXHXHXHXHXHXHXHXHX1.OX%X X .@.=.,.+ . { _ HXHXHXHXHXHXHXHXHXHXHXHXHXHXHXHXHXHXHXHX",
"HXHXHXHXHXHXHXHXHXHXHXHXHXHXHXHXHXHXHXHXHXHXHXHXHXHXHXHXHXHXHX1.OX%X X .@.=.,.+ . { _ HXHXHXHXHXHXHXHXHXHXHXHXHXHXHXHXHXHXHXHXHX",
"HXHXHXHXHXHXHXHXHXHXHXHXHXHXHXHXHXHXHXHXHXHXHXHXHXHXHXHXHXHX1.OX%X X .@.=.,.+ . { _ HXHXHXHXHXHXHXHXHXHXHXHXHXHXHXHXHXHXHXHXHXHX",
"HXHXHXHXHXHXHXHXHXHXHXHXHXHXHXHXHXHXHXHXHXHXHXHXHXHXHXHXHX1.OX%X X .@.=.,.+ . { _ HXHXHXHXHXHXHXHXHXHXHXHXHXHXHXHXHXHXHXHXHXHXHX",
"HXHXHXHXHXHXHXHXHXHXHXHXHXHXHXHXHXHXHXHXHXHXHXHXHXHXHXHX1.OX%X X .@.=.,.+ X ` ) HXHXHXHXHXHXHXHXHXHXHXHXHXHXHXHXHXHXHXHXHXHXHXHX",
"HXHXHXHXHXHXHXHXHXHXHXHXHXHXHXHXHXHXHXHXHXHXHXHXHXHXHX1.OX%X X .@.=.,.+ . ' ( HXHXHXHXHXHXHXHXHXHXHXHXHXHXHXHXHXHXHXHXHXHXHXHXHX",
"HXHXHXHXHXHXHXHXHXHXHXHXHXHXHXHXHXHXHXHXHXHXHXHXHXHX1.OX%X X .@.=.,.+ . ' ( HXHXHXHXHXHXHXHXHXHXHXHXHXHXHXHXHXHXHXHXHXHXHXHXHXHX",
"HXHXHXHXHXHXHXHXHXHXHXHXHXHXHXHXHXHXHXHXHXHXHXHXHX1.OX%X X .@.=.,.+ . ' ( HXHXHXHXHXHXHXHXHXHXHXHXHXHXHXHXHXHXHXHXHXHXHXHXHXHXHX",
"HXHXHXHXHXHXHXHXHXHXHXHXHXHXHXHXHXHXHXHXHXHXHXHX1.OX%X X .@.=.,.+ . ' ( HXHXHXHXHXHXHXHXHXHXHXHXHXHXHXHXHXHXHXHXHXHXHXHXHXHXHXHX",
"HXHXHXHXHXHXHXHXHXHXHXHXHXHXHXHXHXHXHXHXHXHXHX1.OX%X X .@.=.,.+ . ' ( HXHXHXHXHXHXHXHXHXHXHXHXHXHXHXHXHXHXHXHXHXHXHXHXHXHXHXHXHX",
"HXHXHXHXHXHXHXHXHXHXHXHXHXHXHXHXHXHXHXHXHXHX1.OX%X X .@.=.,.+ . ' ( HXHXHXHXHXHXHXHXHXHXHXHXHXHXHXHXHXHXHXHXHXHXHXHXHXHXHXHXHXHX",
"HXHXHXHXHXHXHXHXHXHXHXHXHXHXHXHXHXHXHXHXHX1.OX%X X .@.=.,.+ . ' ( HXHXHXHXHXHXHXHXHXHXHXHXHXHXHXHXHXHXHXHXHXHXHXHXHXHXHXHXHXHXHX",
"HXHXHXHXHXHXHXHXHXHXHXHXHXHXHXHXHXHXHXHX1.OX%X X .@.=.,.+ . ' ( HXHXHXHXHXHXHXHXHXHXHXHXHXHXHXHXHXHXHXHXHXHXHXHXHXHXHXHXHXHXHXHX",
"HXHXHXHXHXHXHXHXHXHXHXHXHXHXHXHXHXHXHX1.OX%X X .@.=.,.+ . ' ( HXHXHXHXHXHXHXHXHXHXHXHXHXHXHXHXHXHXHXHXHXHXHXHXHXHXHXHXHXHXHXHXHX",
"HXHXHXHXHXHXHXHXHXHXHXHXHXHXHXHXHXHX1.OX%X X .@.=.,.+ . ' ( HXHXHXHXHXHXHXHXHXHXHXHXHXHXHXHXHXHXHXHXHXHXHXHXHXHXHXHXHXHXHXHXHXHX",
"HXHXHXHXHXHXHXHXHXHXHXHXHXHXHXHXHX1.OX%X X .@.=.,.+ . ' ( HXHXHXHXHXHXHXHXHXHXHXHXHXHXHXHXHXHXHXHXHXHXHXHXHXHXHXHXHXHXHXHXHXHXHX",
"HXHXHXHXHXHXHXHXHXHXHXHXHXHXHXHX1.OX%X X .@.=.,.+ . ' ( HXHXHXHXHXHXHXHXHXHXHXHXHXHXHXHXHXHXHXHXHXHXHXHXHXHXHXHXHXHXHXHXHXHXHXHX",
"HXHXHXHXHXHXHXHXHXHXHXHXHXHXHX1.OX%X X .@.=.,.+ . ' ( HXHXHXHXHXHXHXHXHXHXHXHXHXHXHXHXHXHXHXHXHXHXHXHXHXHXHXHXHXHXHXHXHXHXHXHXHX",
"HXHXHXHXHXHXHXHXHXHXHXHXHXHX1.OX%X X .@.=.,.+ . ' ( HXHXHXHXHXHXHXHXHXHXHXHXHXHXHXHXHXHXHXHXHXHXHXHXHXHXHXHXHXHXHXHXHXHXHXHXHXHX",
"HXHXHXHXHXHXHXHXHXHXHXHXHX1.OX%X X .@.=.,.+ . ' ( HXHXHXHXHXHXHXHXHXHXHXHXHXHXHXHXHXHXHXHXHXHXHXHXHXHXHXHXHXHXHXHXHXHXHXHXHXHXHX",
"HXHXHXHXHXHXHXHXHXHXHXHX1.OX%X X .@.=.,.+ . ' ( HXHXHXHXHXHXHXHXHXHXHXHXHXHXHXHXHXHXHXHXHXHXHXHXHXHXHXHXHXHXHXHXHXHXHXHXHXHXHXHX",
"HXHXHXHXHXHXHXHXHXHXHX1.OX%X X .@.=.,.+ . ' ( HXHXHXHXHXHXHXHXHXHXHXHXHXHXHXHXHXHXHXHXHXHXHXHXHXHXHXHXHXHXHXHXHXHXHXHXHXHXHXHXHX",
"HXHXHXHXHXHXHXHXHXHX<.+X%X X .@.=.,.+ . ' ( HXHXHXHXHXHXHXHXHXHXHXHXHXHXHXHXHXHXHXHXHXHXHXHXHXHXHXHXHXHXHXHXHXHXHXHXHXHXHXHXHXHX",
"HXHXHXHXHXHXHXHXHXk.#X$X X .@.=.,.+ . ' ( HXHXHXHXHXHXHXHXHXHXHXHXHXHXHXHXHXHXHXHXHXHXHXHXHXHXHXHXHXHXHXHXHXHXHXHXHXHXHXHXHXHXHX",
"HXHXHXHXHXHXHXHXHX=X&X@X| +.=.,.+ . ' ( HXHXHXHXHXHXHXHXHXHXHXHXHXHXHXHXHXHXHXHXHXHXHXHXHXHXHXHXHXHXHXHXHXHXHXHXHXHXHXHXHXHXHXHX",
"HXHXHXHXHXHXHXHXc.6X1X$.o.;.>.@ . ' ( HXHXHXHXHXHXHXHXHXHXHXHXHXHXHXHXHXHXHXHXHXHXHXHXHXHXHXHXHXHXHXHXHXHXHXHXHXHXHXHXHXHXHXHXHX",
"HXHXHXHXHXHXHXx.8X4Xj.#.*.t.: X ] ( HXHXHXHXHXHXHXHXHXHXHXHXHXHXHXHXHXHXHXHXHXHXHXHXHXHXHXHXHXHXHXHXHXHXHXHXHXHXHXHXHXHXHXHXHXHX",
"HXHXHXHXHXHXHX3X5Xl.y.q.5.* o [ / HXHXHXHXHXHXHXHXHXHXHXHXHXHXHXHXHXHXHXHXHXHXHXHXHXHXHXHXHXHXHXHXHXHXHXHXHXHXHXHXHXHXHXHXHXHXHX",
"HXHXHXHXHXHX<X7Xz.u.8.k s > ; O HXHXHXHXHXHXHXHXHXHXHXHXHXHXHXHXHXHXHXHXHXHXHXHXHXHXHXHXHXHXHXHXHXHXHXHXHXHXHXHXHXHXHXHXHXHXHXHX",
"HXHXHXHXHXHX9X-Xi.7.l f - % HXHXHXHXHXHXHXHXHXHXHXHXHXHXHXHXHXHXHXHXHXHXHXHXHXHXHXHXHXHXHXHXHXHXHXHXHXHXHXHXHXHXHXHXHXHXHXHXHXHX",
"HXHXHXHXHX2X;Xp.9.z g = HXHXHXHXHXHXHXHXHXHXHXHXHXHXHXHXHXHXHXHXHXHXHXHXHXHXHXHXHXHXHXHXHXHXHXHXHXHXHXHXHXHXHXHXHXHXHXHXHXHXHXHX",
"HXHXHXHX,X:Xa.6.c d & HXHXHXHXHXHXHXHXHXHXHXHXHXHXHXHXHXHXHXHXHXHXHXHXHXHXHXHXHXHXHXHXHXHXHXHXHXHXHXHXHXHXHXHXHXHXHXHXHXHXHXHXHX",
"HXHXHXHX>Xs.0.x , HXHXHXHXHXHXHXHXHXHXHXHXHXHXHXHXHXHXHXHXHXHXHXHXHXHXHXHXHXHXHXHXHXHXHXHXHXHXHXHXHXHXHXHXHXHXHXHXHXHXHXHXHXHXHX",
"HXHXHXr.h.4.h HXHXHXHXHXHXHXHXHXHXHXHXHXHXHXHXHXHXHXHXHXHXHXHXHXHXHXHXHXHXHXHXHXHXHXHXHXHXHXHXHXHXHXHXHXHXHXHXHXHXHXHXHXHXHXHXHX",
"HXHXM.1 $ j HXHXHXHXHXHXHXHXHXHXHXHXHXHXHXHXHXHXHXHXHXHXHXHXHXHXHXHXHXHXHXHXHXHXHXHXHXHXHXHXHXHXHXHXHXHXHXHXHXHXHXHXHXHXHXHXHXHX",
"HXHX7   HXHXHXHXHXHXHXHXHXHXHXHXHXHXHXHXHXHXHXHXHXHXHXHXHXHXHXHXHXHXHXHXHXHXHXHXHXHXHXHXHXHXHXHXHXHXHXHXHXHXHXHXHXHXHXHXHXHXHXHX",
"HX2 HXHXHXHXHXHXHXHXHXHXHXHXHXHXHXHXHXHXHXHXHXHXHXHXHXHXHXHXHXHXHXHXHXHXHXHXHXHXHXHXHXHXHXHXHXHXHXHXHXHXHXHXHXHXHXHXHXHXHXHXHXHX",
"HXHXHXHXHXHXHXHXHXHXHXHXHXHXHXHXHXHXHXHXHXHXHXHXHXHXHXHXHXHXHXHXHXHXHXHXHXHXHXHXHXHXHXHXHXHXHXHXHXHXHXHXHXHXHXHXHXHXHXHXHXHXHXHX",
"HXHXHXHXHXHXHXHXHXHXHXHXHXHXHXHXHXHXHXHXHXHXHXHXHXHXHXHXHXHXHXHXHXHXHXHXHXHXHXHXHXHXHXHXHXHXHXHXHXHXHXHXHXHXHXHXHXHXHXHXHXHXHXHX",
"HXHXHXHXHXHXHXHXHXHXHXHXHXHXHXHXHXHXHXHXHXHXHXHXHXHXHXHXHXHXHXHXHXHXHXHXHXHXHXHXHXHXHXHXHXHXHXHXHXHXHXHXHXHXHXHXHXHXHXHXHXHXHXHX"
};
