/* XPM */
static const char *edit_24x24_xpm[] = {
/* columns rows colors chars-per-pixel */
"24 24 45 1 ",
"  c #2D2D2D",
". c #157D15",
"X c #316919",
"o c #3A7E39",
"O c #737272",
"+ c #BB413D",
"@ c #957437",
"# c #967638",
"$ c #BE4541",
"% c #857552",
"& c #996765",
"* c #C24E49",
"= c #D06761",
"- c #D36E68",
"; c #4CA64C",
": c #53BD53",
"> c #5BBC54",
", c #7ACD7A",
"< c #A08246",
"1 c #81807F",
"2 c #80BF7E",
"3 c #CFAE65",
"4 c #D0B06A",
"5 c #A4C977",
"6 c #E5C86E",
"7 c #858382",
"8 c #868585",
"9 c #9A9796",
"0 c #E38D85",
"q c #E59088",
"w c #C8A09C",
"e c #97CE97",
"r c #90D690",
"t c #F0D791",
"y c #F1D891",
"u c #F4DC95",
"i c #DFC1BD",
"p c #C4C3C2",
"a c #C8C8C8",
"s c gray81",
"d c #D5D3D1",
"f c #E4E4E4",
"g c #EEEDEC",
"h c #F3F3F3",
"j c None",
/* pixels */
"jjjjjjjjjjjjjjjjjjjjjq-j",
"jjjjjjjjjjjjjjjjjjjji0=+",
"jjjjjjjjjjjjjjjjjjjsfw*$",
"jjjjjjjjjjjjjjjjjjagd8&j",
"jjjjjjjjjjjjjjjjjehp71jj",
"jjjjjjjjjjjjjjjj,r29Ojjj",
"jjjjjjjjjjjjjjj,r:;ojjjj",
"jjjjjjjjjjjjjj,r:;.jjjjj",
"jjjjjjjjjjjjj,r:;.jjjjjj",
"jjjjjjjjjjjj,r:;.jjjjjjj",
"jjjjjjjjjjj,r:;.jjjjjjjj",
"jjjjjjjjjj,r:;.jjjjjjjjj",
"jjjjjjjjj,r:;.jjjjjjjjjj",
"jjjjjjjj,r:;.jjjjjjjjjjj",
"jjjjjjj,r:;.jjjjjjjjjjjj",
"jjjjjj,r:;.jjjjjjjjjjjjj",
"jjjjj,r:;.jjjjjjjjjjjjjj",
"jjjj,r:;.jjjjjjjjjjjjjjj",
"jjj5r:;.jjjjjjjjjjjjjjjj",
"jj6t>;.jjjjjjjjjjjjjjjjj",
"jjy3@Xjjjjjjjjjjjjjjjjjj",
"ju4#jjjjjjjjjjjjjjjjjjjj",
"j%<jjjjjjjjjjjjjjjjjjjjj",
" jjjjjjjjjjjjjjjjjjjjjjj"
};
