/* XPM */
static const char *edit_32x32_xpm[] = {
/* columns rows colors chars-per-pixel */
"32 32 70 1 ",
"  c #1E1E1E",
". c #32302B",
"X c #117611",
"o c #1D771D",
"O c #26661C",
"+ c #297A28",
"@ c #594521",
"# c #70572A",
"$ c #5A6123",
"% c #656464",
"& c #6F6D6C",
"* c gray43",
"= c #766E6D",
"- c #637562",
"; c #7C7B7A",
": c #7F7D7B",
"> c #A63733",
", c #B83B37",
"< c #A0423E",
"1 c #BB413D",
"2 c #866B35",
"3 c #9C7A3A",
"4 c #9C7A3B",
"5 c #A0514D",
"6 c #BA5D59",
"7 c #C75A55",
"8 c #C35F59",
"9 c #D2706B",
"0 c #DB7D76",
"q c #4CBB4C",
"w c #5DB057",
"e c #5BB05A",
"r c #5BB55B",
"t c #6EC66E",
"y c #76C576",
"u c #CCAA5E",
"i c #CCAC63",
"p c #CEAE68",
"a c #E8CD7A",
"s c #878585",
"d c #9E9C9B",
"f c #AEABAA",
"g c #BDB4B2",
"h c #BCBBBA",
"j c gray",
"k c #DD908C",
"l c #E89991",
"z c #E4AAA3",
"x c #EDABA3",
"c c #E8AFAA",
"v c #ECBCB8",
"b c #85D185",
"n c #89D289",
"m c #8ED58E",
"M c #B5D186",
"N c #AFC2AB",
"B c #D5C188",
"V c #EDD181",
"C c #F2DA96",
"Z c #F2DA97",
"A c #F1DA98",
"S c #C0C0C0",
"D c #D3D0CF",
"F c gray85",
"G c #DFDADA",
"H c #D7E4D7",
"J c gray91",
"K c #EDECEB",
"L c #F3F2F2",
"P c None",
/* pixels */
"PPPPPPPPPPPPPPPPPPPPPPPPPPl08PPP",
"PPPPPPPPPPPPPPPPPPPPPPPPPzxc9>PP",
"PPPPPPPPPPPPPPPPPPPPPPPPjGvk71PP",
"PPPPPPPPPPPPPPPPPPPPPPPSJJg6,<PP",
"PPPPPPPPPPPPPPPPPPPPPPSFKDd=5PPP",
"PPPPPPPPPPPPPPPPPPPPPyHLhs;%PPPP",
"PPPPPPPPPPPPPPPPPPPPtmnNf*:PPPPP",
"PPPPPPPPPPPPPPPPPPPtmbqe-&PPPPPP",
"PPPPPPPPPPPPPPPPPPtmbqrX+PPPPPPP",
"PPPPPPPPPPPPPPPPPtmbqrXoPPPPPPPP",
"PPPPPPPPPPPPPPPPtmbqrXoPPPPPPPPP",
"PPPPPPPPPPPPPPPtmbqrXoPPPPPPPPPP",
"PPPPPPPPPPPPPPtmbqrXoPPPPPPPPPPP",
"PPPPPPPPPPPPPtmbqrXoPPPPPPPPPPPP",
"PPPPPPPPPPPPtmbqrXoPPPPPPPPPPPPP",
"PPPPPPPPPPPtmbqrXoPPPPPPPPPPPPPP",
"PPPPPPPPPPtmbqrXoPPPPPPPPPPPPPPP",
"PPPPPPPPPtmbqrXoPPPPPPPPPPPPPPPP",
"PPPPPPPPtmbqrXoPPPPPPPPPPPPPPPPP",
"PPPPPPPtmbqrXoPPPPPPPPPPPPPPPPPP",
"PPPPPPtmbqrXoPPPPPPPPPPPPPPPPPPP",
"PPPPPtmbqrXoPPPPPPPPPPPPPPPPPPPP",
"PPPPtmbqrXoPPPPPPPPPPPPPPPPPPPPP",
"PPPPMbqrXoPPPPPPPPPPPPPPPPPPPPPP",
"PPPaCqwXoPPPPPPPPPPPPPPPPPPPPPPP",
"PPVZu4$OPPPPPPPPPPPPPPPPPPPPPPPP",
"PPAi4#PPPPPPPPPPPPPPPPPPPPPPPPPP",
"PBp3@PPPPPPPPPPPPPPPPPPPPPPPPPPP",
"P.2PPPPPPPPPPPPPPPPPPPPPPPPPPPPP",
" PPPPPPPPPPPPPPPPPPPPPPPPPPPPPPP",
"PPPPPPPPPPPPPPPPPPPPPPPPPPPPPPPP",
"PPPPPPPPPPPPPPPPPPPPPPPPPPPPPPPP"
};
