/* XPM */
static const char *find_16x16_xpm[] = {
/* columns rows colors chars-per-pixel */
"16 16 39 1 ",
"  c #171415",
". c #181617",
"X c #221E1F",
"o c #242122",
"O c #242223",
"+ c #262223",
"@ c #262424",
"# c #262526",
"$ c #282526",
"% c #292526",
"& c #312D2F",
"* c #312F30",
"= c #353132",
"- c #383636",
"; c #3B3839",
": c #3F3C3D",
"> c #3F3D3E",
", c #423E3F",
"< c #404142",
"1 c #484747",
"2 c #524E4F",
"3 c #505051",
"4 c #515252",
"5 c #565555",
"6 c gray36",
"7 c #6A6A6B",
"8 c #6C6A6B",
"9 c #737474",
"0 c #787677",
"q c #797A7C",
"w c #828384",
"e c #878889",
"r c #8F8E8E",
"t c #A0A0A0",
"y c gray68",
"u c #B1B1B1",
"i c #B1B1B2",
"p c #C0C0C0",
"a c None",
/* pixels */
"aaawu=>aaawu=>aa",
"aaawu=>aaawu=>aa",
"aaaa3&aaaaa3&aaa",
"aa61@ O3&<47$Oaa",
"aa68-XO3&<qt;Oaa",
"aa60:+O3&<ei,Oaa",
"3960:+O3&<ei,O.#",
"3y60:+O3&<ei,Oo#",
"3p60:+O3&<ei,O%#",
"3p60:+O3&<ei,O%#",
"3p61@ Oaa<47$O%#",
"3pr2%#aaaa3pr2%#",
"3pr2%#aaaa3pr2%#",
"395*.#aaaa395*.#",
"3pr2%#aaaa3pr2%#",
"395*.#aaaa395*.#"
};
