/* XPM */
static const char *find_48x48_xpm[] = {
/* columns rows colors chars-per-pixel */
"48 48 180 2 ",
"   c #151313",
".  c #181616",
"X  c #1A1718",
"o  c #1D1B1C",
"O  c #211D1E",
"+  c #120F25",
"@  c #131026",
"#  c #151329",
"$  c #18172F",
"%  c #1B182C",
"&  c #1B1933",
"*  c #1B1738",
"=  c #1B1838",
"-  c #231F20",
";  c #201D2F",
":  c #221F39",
">  c #252323",
",  c #282425",
"<  c #2B2728",
"1  c #2C2B2B",
"2  c #302D2E",
"3  c #242232",
"4  c #2D2C37",
"5  c #2B2938",
"6  c #322F30",
"7  c #343333",
"8  c #383536",
"9  c #393738",
"0  c #3C3B3C",
"q  c #32313E",
"w  c #403E3F",
"e  c #231E47",
"r  c #272647",
"t  c #29254A",
"y  c #353341",
"u  c #3B3A49",
"i  c #2C2858",
"p  c #302D5E",
"a  c #353153",
"s  c #393756",
"d  c #393758",
"f  c #37365D",
"g  c #2F2A62",
"h  c #312D65",
"j  c #332D6A",
"k  c #3C3664",
"l  c #3F3E62",
"z  c #34316C",
"x  c #3D396C",
"c  c #353061",
"v  c #362E73",
"b  c #363272",
"n  c #393474",
"m  c #3C3B77",
"M  c #39377E",
"N  c #37387C",
"B  c #3D3B7C",
"V  c #423F40",
"C  c #433D6E",
"Z  c #444343",
"A  c #484647",
"S  c #49474A",
"D  c #4C4B4B",
"F  c #44424F",
"G  c #504E4E",
"H  c #444252",
"J  c #4F4D5C",
"K  c #504F50",
"L  c #504E5D",
"P  c #545354",
"I  c #585656",
"U  c #575659",
"Y  c #59575B",
"T  c #57595A",
"R  c #5B5B5B",
"E  c #615E5F",
"W  c #4F4B68",
"Q  c #494563",
"!  c #504D69",
"~  c #5D5C60",
"^  c #5F5E68",
"/  c #585566",
"(  c #494678",
")  c #544F72",
"_  c #50507D",
"`  c #636363",
"'  c #686767",
"]  c #666569",
"[  c #6C6B6B",
"{  c #706E6F",
"}  c #6F6F70",
"|  c #747373",
" . c #797777",
".. c #77767B",
"X. c #797778",
"o. c #777879",
"O. c #7B7B7B",
"+. c #817F7F",
"@. c #3D3481",
"#. c #3F3B84",
"$. c #403687",
"%. c #413F82",
"&. c #433A8C",
"*. c #483F8C",
"=. c #443E93",
"-. c #493E98",
";. c #444385",
":. c #45438C",
">. c #47488B",
",. c #4A498E",
"<. c #585986",
"1. c #545583",
"2. c #494097",
"3. c #42469A",
"4. c #4D439C",
"5. c #4D4B9B",
"6. c #484893",
"7. c #564E9A",
"8. c #4E509B",
"9. c #4C5193",
"0. c #545899",
"q. c #7C7C81",
"w. c #4C40A1",
"e. c #5047A5",
"r. c #5245AD",
"t. c #4C53AE",
"y. c #575FA7",
"u. c #595EAD",
"i. c #564BB2",
"p. c #5C4FBF",
"a. c #4F55B0",
"s. c #5057B1",
"d. c #555BB4",
"f. c #595FB7",
"g. c #5D55BD",
"h. c #5B62B4",
"j. c #5D63BA",
"k. c #6F72A8",
"l. c #686BB7",
"z. c #6469BD",
"x. c #6167BC",
"c. c #7B7EB6",
"v. c #5C4DC1",
"b. c #5F58C0",
"n. c #655CC9",
"m. c #656CC1",
"M. c #6D73C5",
"N. c #6870C8",
"B. c #757BCA",
"V. c #797FCD",
"C. c #6B65D9",
"Z. c #7068DA",
"A. c #6E60E3",
"S. c #7D82CD",
"D. c #7F84D1",
"F. c #848484",
"G. c #888687",
"H. c #898789",
"J. c #8D8C8C",
"K. c #908F8F",
"L. c #949394",
"P. c #979799",
"I. c #979898",
"U. c #9C9C9C",
"Y. c #A4A3A3",
"T. c #A8A7A8",
"R. c #ACABAC",
"E. c #B3B3B3",
"W. c #B8B7B7",
"Q. c #B6B7B8",
"!. c #BABABA",
"~. c #8589D4",
"^. c #898FD8",
"/. c #8D92DA",
"(. c #9398DF",
"). c #9095DD",
"_. c #C5C5C5",
"`. c gray83",
"'. c #D8D8D8",
"]. c None",
/* pixels */
"].].].].].].].].].].].].].].].].].].].].].].].].].].].].].].].].].].].].].].].].].].].].].].].].",
"].].].].].].].].].].].].].].].].].].].].].].].].].].].].].].].].].].].].].].].].].].].].].].].].",
"].].].].].].].].].].].].].].].].].].].].].].].].].].].].].].].].].].].].].].].].].].].].].].].].",
"].].].].].].].].].].].].].].].].].].].].].].].].].].].].].].].].].].].].].].].].].].].].].].].].",
"].].].].].].].].].].].].].].].].].].].].].].].].].].].].].].].].].].].].].].].].].].].].].].].].",
"].].].].].].].].].].].].].].].].].].].].].].].].].].].].].].].].].].].].].].].].].].].].].].].].",
"].].].].].].].].].].].].].].].].].].].].].].].].].].].].].].].].].].].].].].].].].].].].].].].].",
"].].].].].].].].].].].].].].].].].].].].].].].].].].].].].].].].].].].].].].].].].].].].].].].].",
"].].].].].].].].].].].].].].].].].].].].].].].].].].].].].].].].].].].].].].].].].].].].].].].].",
"].].].].].].].].].].].].].].].].].].].].].].].].].].].].].].].].].].].].].].].].].].].].].].].].",
"].].].].].].].].].].].].].].].].].].].].].].].].].].].].].].].].].].].].].].].].].].].].].].].].",
"].].].].].].].].].].].].].].].].].].].].].].].].].].].].].].].].].].].].].].].].].].].].].].].].",
"].].].].].].].].].].].].].].].].].].].].].].].].P I F.Y.].].].].].].].].].].].].].].].].].].].].",
"].].].].].].].].].].].].].].].].].].].].].K R R | P.J.{ R ].].].].].].].].].].].].].].].].].].].",
"].].].].].].].].].].].].].].].].].K P K D D Z 0 o D | 8 1 , ].].].].].].].].].].].].].].E Y.].].",
"].].].].].].].].].].].].].].J.' K D A Z Z V 0 0 , o O.< > - ].].].].].].].].].F.].L.| J.T.H.' ].",
"].].].].].].].].].].].].T.I.I.Y.| V 0 0 7 7 7 7 1 o T D K F.I.].].].].].` X.Y.!.R.| A H.[ A 7 < ",
"].].].].].].].].].].].].| o.O.H.I.A 7 7 7 1 1 1 0 T O.I.I.J.| ` ].].] F.R.!.Y.G.{ I 2 7 F., - - ",
"].].].].].].].].].].V P E ` ' } F.| 1 1 1 1 7 T T O.L.o.` D Z P { K.W.!.Y.+.' G 0 1 , o ' 8 - > ",
"].].].].].].].].D ' J.Y.P K I E ' F.V > > > K I.J.T K Z 8 ' F.U.'.`.L.O.E A 8 < , < 7 , I w , 2 ",
"].].].].].X.P o.U.Q.Q.T.K.D A D T [ ` 7 Z P [ U.I.R 0 1 ` +.F.J.K.E.K.V 8 - - 2 7 w A 6 U V 9 w ",
"].].F.E.U._.'._.Y.J.J.O.[ I 0 Z D P [ 0 T T T [ ` Z P ` | o.O.F.F.J.J.8 - 2 w V D K ` K.O.A ].].",
"].] U 5 @ + q I.Y.` P I G Z 8 8 0 D T T 0 7 6 1 7 Z R ` [ } | o.+.+.+.P w V S P ` F.L.G. .].].].",
"].K # + @ @ @ # | +.8 8 8 2 1 4 7 Z D R 7 > > > > > T R R ` [ } | X.X.E G Y ' G.L.G. .' E K ].].",
"` 3 @ l c.k.f = * ..A o < , , , 1 7 Z P P > > > > Z D P T T R | X.{ { ` ] H.L.G. .[ E I D w 0 ].",
"] + a /./.~.D.( t a ` o o - - > 1 7 0 D T 7 > > 7 0 Z D T o.I.E._.!.+.H.L.G. .[ E P A w w 6 2 ].",
"^ @ 0.S.B.M.M.z.h g ^ 1   - - - 1 1 9 Z P K > > 7 Z o.I.E.Q._._.W.Y.P.G.X.[ E I A w w 6 1 < , ].",
"T # 0.M.j.h.f.j.B z Q V   - - > > 1 7 0 K ` > 1 T J.I.U.R.`.'.Y.G.G. .[ E P S V w 8 2 < , - > - ",
"F $ >.s.t.3.#.#.b n k D . > > > > 1 7 0 K E > T T 4 @ @ . 3 q.Q.+.I E P A w w 8 < 2 , O > O - - ",
"K $ z w.v v @.#.@.%.k P o o 1 > 1 1 7 0 K D K T 3 @ @ # . # # F Y.E 9 V w 8 < < , O , O - - > , ",
"T : g g v @.w.w.3.:.l K o 1 7 7 7 0 0 Z D ].[ y @ @ l <._ r r & V K.6 2 2 < , , , O O O > , < 1 ",
"].u h v v #.r.v.s.9.C K o 7 0 0 Z D P ].].].} $ @ 1.(.(.D.D.N g e ` E O < O , O O O , < < 1 6 ].",
"].T g m $.2.p.A.n.2.! A , V A D P ].].].].].~ @ @ S.D.S.V.B.l.j h a } X O O > > > , , 2 2 8 9 ].",
"].].L z %.8.b.C.g.:.~ 8 V K P ].].].].].].].S @ r B.M.m.z.j.x.;.N p Y 2 X > > > , 2 2 8 0 w Z ].",
"].].].U b &.e.i.4./ D 9 ].].].].].].].].].].I @ i x.j.s.s.s.s.:.m b H Z X , 1 1 2 8 9 w Z A ].].",
"].].].].Y ! ( ) R Y ].].].].].].].].].].].].R # $ f.t.3.M b b N B B d S o 1 2 7 9 w Z S ].].].].",
"].].].].].].R E ].].].].].].].].].].].].].].T 5 & N b z z b #.%.,.;.s D > 7 8 w Z D G ].].].].].",
"].].].].].].].].].].].].].].].].].].].].].].].Z $ p h z n #.:.9.0.:.s A 1 w Z D G ].].].].].].].",
"].].].].].].].].].].].].].].].].].].].].].].].D 3 p n z m ;.e.y.h.5.y A 8 A K ].].].].].].].].].",
"].].].].].].].].].].].].].].].].].].].].].].].].Z r m %.;.8.h.N.m.,.0 u K P ].].].].].].].].].].",
"].].].].].].].].].].].].].].].].].].].].].].].].].V c %.9.y.m.Z.n.q A I ].].].].].].].].].].].].",
"].].].].].].].].].].].].].].].].].].].].].].].].].].9 u x >.9.7.7 4 ].].].].].].].].].].].].].].",
"].].].].].].].].].].].].].].].].].].].].].].].].].].].7 6 6 1 1 < ].].].].].].].].].].].].].].].",
"].].].].].].].].].].].].].].].].].].].].].].].].].].].].].].].].].].].].].].].].].].].].].].].].",
"].].].].].].].].].].].].].].].].].].].].].].].].].].].].].].].].].].].].].].].].].].].].].].].].",
"].].].].].].].].].].].].].].].].].].].].].].].].].].].].].].].].].].].].].].].].].].].].].].].].",
"].].].].].].].].].].].].].].].].].].].].].].].].].].].].].].].].].].].].].].].].].].].].].].].].",
"].].].].].].].].].].].].].].].].].].].].].].].].].].].].].].].].].].].].].].].].].].].].].].].]."
};
