/* XPM */
static const char *find_64x64_xpm[] = {
/* columns rows colors chars-per-pixel */
"64 64 192 2 ",
"   c #000000",
".  c #0A090B",
"X  c #0C0301",
"o  c #010012",
"O  c #01001C",
"+  c #131313",
"@  c #1B1619",
"#  c #1D1B1C",
"$  c #170D0F",
"%  c #221D1E",
"&  c #242600",
"*  c #272900",
"=  c #020123",
"-  c #0A0624",
";  c #0B0728",
":  c #110E2B",
">  c #120E21",
",  c #16142A",
"<  c #19172E",
"1  c #191725",
"2  c #140E39",
"3  c #1B1839",
"4  c #231F20",
"5  c #201F34",
"6  c #252223",
"7  c #292526",
"8  c #2A2728",
"9  c #2D2B2B",
"0  c #292828",
"q  c #312E2F",
"w  c #323326",
"e  c #2B2A35",
"r  c #232238",
"t  c #322F30",
"y  c #302F39",
"u  c #353333",
"i  c #393536",
"p  c #35343B",
"a  c #393739",
"s  c #3C3B3B",
"d  c #413E3F",
"f  c #43433E",
"g  c #1C1744",
"h  c #241D4D",
"j  c #25234D",
"k  c #272644",
"l  c #312E49",
"z  c #3C3B43",
"x  c #383645",
"c  c #2E255E",
"v  c #2B2758",
"b  c #322F5C",
"n  c #35325B",
"m  c #3B3957",
"M  c #2F2963",
"N  c #2D2866",
"B  c #322C66",
"V  c #332D6C",
"C  c #2F316D",
"Z  c #35316E",
"A  c #38356A",
"S  c #342D73",
"D  c #363373",
"F  c #393575",
"G  c #3C3A75",
"H  c #3A337B",
"J  c #3D3A7D",
"K  c #413F41",
"L  c #403D60",
"P  c #433D7B",
"I  c #444343",
"U  c #484546",
"Y  c #484846",
"T  c #464649",
"R  c #494748",
"E  c #4C4B4C",
"W  c #504E4E",
"Q  c #50514E",
"!  c #4F4F51",
"~  c #504F51",
"^  c #504E5B",
"/  c #545353",
"(  c #595657",
")  c #5B5B55",
"_  c #56555C",
"`  c #58575C",
"'  c #5C5C5C",
"]  c #625F5F",
"[  c #60615B",
"{  c #4A4865",
"}  c #524F66",
"|  c #5A5969",
" . c #48457A",
".. c #524D7B",
"X. c #646464",
"o. c #686667",
"O. c #6D6C6C",
"+. c #686768",
"@. c #706E6E",
"#. c #6F6F70",
"$. c #716F70",
"%. c #747374",
"&. c #787677",
"*. c #7C7B7B",
"=. c #797779",
"-. c #807F7F",
";. c #3D3482",
":. c #3E3C80",
">. c #3E3D8B",
",. c #3D3F92",
"<. c #403D84",
"1. c #43398D",
"2. c #443B92",
"3. c #483E99",
"4. c #434484",
"5. c #45448B",
"6. c #4D4688",
"7. c #5B5E8C",
"8. c #404193",
"9. c #4A4D93",
"0. c #45499C",
"q. c #4D4D9B",
"w. c #484499",
"e. c #4E519C",
"r. c #52589E",
"t. c #5D6095",
"y. c #484FAB",
"u. c #4A46A4",
"i. c #5246AE",
"p. c #544CAA",
"a. c #5152A2",
"s. c #555AAA",
"d. c #555AA3",
"f. c #574AB8",
"g. c #4D54B2",
"h. c #5057B4",
"j. c #545AB4",
"k. c #5C5BB9",
"l. c #595AB9",
"z. c #605DBD",
"x. c #5C62AD",
"c. c #5C63B4",
"v. c #5E64BA",
"b. c #7477AE",
"n. c #6066BB",
"m. c #646ABD",
"M. c #6D73BF",
"N. c #7579BA",
"B. c #5F4FC9",
"V. c #5E50C6",
"C. c #6A5EDD",
"Z. c #676DC0",
"A. c #6662CA",
"S. c #6D72C4",
"D. c #6972C7",
"F. c #7076C5",
"G. c #7379C9",
"H. c #777CC8",
"J. c #7373DB",
"K. c #6C64DB",
"L. c #6D5DE4",
"P. c #6D62E0",
"I. c #7867EE",
"U. c #817F80",
"Y. c #7D82CE",
"T. c #7D83D1",
"R. c #848383",
"E. c #8C8C8C",
"W. c #888686",
"Q. c #908F8F",
"!. c #939292",
"~. c #9B9B9B",
"^. c #989797",
"/. c #9F9FA0",
"(. c #A4A4A4",
"). c #ACACAC",
"_. c #A6A7A8",
"`. c #AFB0B1",
"'. c #B4B4B4",
"]. c #BCBCBC",
"[. c #B8B7B8",
"{. c #858ACA",
"}. c #8489D4",
"|. c #8E93DE",
" X c #8C91D0",
".X c #9197DF",
"XX c #979CE4",
"oX c #9196E2",
"OX c #C4C3C4",
"+X c #CCCBCC",
"@X c #D2D2D2",
"#X c None",
/* pixels */
"#X#X#X#X#X#X#X#X#X#X#X#X#X#X#X#X#X#X#X#X#X#X#X#X#X#X#X#X#X#X#X#X#X#X#X#X#X#X#X#X#X#X#X#X#X#X#X#X#X#X#X#X#X#X#X#X#X#X#X#X#X#X#X#X",
"#X#X#X#X#X#X#X#X#X#X#X#X#X#X#X#X#X#X#X#X#X#X#X#X#X#X#X#X#X#X#X#X#X#X#X#X#X#X#X#X#X#X#X#X#X#X#X#X#X#X#X#X#X#X#X#X#X#X#X#X#X#X#X#X",
"#X#X#X#X#X#X#X#X#X#X#X#X#X#X#X#X#X#X#X#X#X#X#X#X#X#X#X#X#X#X#X#X#X#X#X#X#X#X#X#X#X#X#X#X#X#X#X#X#X#X#X#X#X#X#X#X#X#X#X#X#X#X#X#X",
"#X#X#X#X#X#X#X#X#X#X#X#X#X#X#X#X#X#X#X#X#X#X#X#X#X#X#X#X#X#X#X#X#X#X#X#X#X#X#X#X#X#X#X#X#X#X#X#X#X#X#X#X#X#X#X#X#X#X#X#X#X#X#X#X",
"#X#X#X#X#X#X#X#X#X#X#X#X#X#X#X#X#X#X#X#X#X#X#X#X#X#X#X#X#X#X#X#X#X#X#X#X#X#X#X#X#X#X#X#X#X#X#X#X#X#X#X#X#X#X#X#X#X#X#X#X#X#X#X#X",
"#X#X#X#X#X#X#X#X#X#X#X#X#X#X#X#X#X#X#X#X#X#X#X#X#X#X#X#X#X#X#X#X#X#X#X#X#X#X#X#X#X#X#X#X#X#X#X#X#X#X#X#X#X#X#X#X#X#X#X#X#X#X#X#X",
"#X#X#X#X#X#X#X#X#X#X#X#X#X#X#X#X#X#X#X#X#X#X#X#X#X#X#X#X#X#X#X#X#X#X#X#X#X#X#X#X#X#X#X#X#X#X#X#X#X#X#X#X#X#X#X#X#X#X#X#X#X#X#X#X",
"#X#X#X#X#X#X#X#X#X#X#X#X#X#X#X#X#X#X#X#X#X#X#X#X#X#X#X#X#X#X#X#X#X#X#X#X#X#X#X#X#X#X#X#X#X#X#X#X#X#X#X#X#X#X#X#X#X#X#X#X#X#X#X#X",
"#X#X#X#X#X#X#X#X#X#X#X#X#X#X#X#X#X#X#X#X#X#X#X#X#X#X#X#X#X#X#X#X#X#X#X#X#X#X#X#X#X#X#X#X#X#X#X#X#X#X#X#X#X#X#X#X#X#X#X#X#X#X#X#X",
"#X#X#X#X#X#X#X#X#X#X#X#X#X#X#X#X#X#X#X#X#X#X#X#X#X#X#X#X#X#X#X#X#X#X#X#X#X#X#X#X#X#X#X#X#X#X#X#X#X#X#X#X#X#X#X#X#X#X#X#X#X#X#X#X",
"#X#X#X#X#X#X#X#X#X#X#X#X#X#X#X#X#X#X#X#X#X#X#X#X#X#X#X#X#X#X#X#X#X#X#X#X#X#X#X#X#X#X#X#X#X#X#X#X#X#X#X#X#X#X#X#X#X#X#X#X#X#X#X#X",
"#X#X#X#X#X#X#X#X#X#X#X#X#X#X#X#X#X#X#X#X#X#X#X#X#X#X#X#X#X#X#X#X#X#X#X#X#X#X#X#X#X#X#X#X#X#X#X#X#X#X#X#X#X#X#X#X#X#X#X#X#X#X#X#X",
"#X#X#X#X#X#X#X#X#X#X#X#X#X#X#X#X#X#X#X#X#X#X#X#X#X#X#X#X#X#X#X#X#X#X#X#X#X#X#X#X#X#X#X#X#X#X#X#X#X#X#X#X#X#X#X#X#X#X#X#X#X#X#X#X",
"#X#X#X#X#X#X#X#X#X#X#X#X#X#X#X#X#X#X#X#X#X#X#X#X#X#X#X#X#X#X#X#X#X#X#X#X#X#X#X#X#X#X#X#X#X#X#X#X#X#X#X#X#X#X#X#X#X#X#X#X#X#X#X#X",
"#X#X#X#X#X#X#X#X#X#X#X#X#X#X#X#X#X#X#X#X#X#X#X#X#X#X#X#X#X#X#X#X[ R.).).).Q.#X#X#X#X#X#X#X#X#X#X#X#X#X#X#X#X#X#X#X#X#X#X#X#X#X#X",
"#X#X#X#X#X#X#X#X#X#X#X#X#X#X#X#X#X#X#X#X#X#X#X#X#X#X#X) Q Q Q Q ` [ !.R.X.X.Q #X#X#X#X#X#X#X#X#X#X#X#X#X#X#X#X#X#X#X#X#X#X#X#X#X",
"#X#X#X#X#X#X#X#X#X#X#X#X#X#X#X#X#X#X#X#X#X#X#X#XQ Q Q Q Q Q f T ' ( ( O.s t q #X#X#X#X#X#X#X#X#X#X#X#X#X#X#X#X#X#X#X#X#X#X#X#X#X",
"#X#X#X#X#X#X#X#X#X#X#X#X#X#X#X#X#X#X#X#X#XI Q / Q Q T f f z z f T i I ] d 4 9 #X#X#X#X#X#X#X#X#X#X#X#X#X#X#X#X#X#XQ.~._.(.R.#X#X",
"#X#X#X#X#X#X#X#X#X#X#X#X#X#X#X#X#X#XE.E.~.E.! K f z f z p p p u 0 % 7 ~ d     I #X#X#X#X#X#X#X#X#X#X#X#X'.#X#X/ X.W._.R.X.] U #X",
"#X#X#X#X#X#X#X#X#X#X#X#X#X#X#X#XR.!.Q.E.E.~.E.s s s p p u u w u 9 % $ u I ' W.~.).!.#X#X#X#X#X#X#X!.`.+X+X[.!.] ' E X.o.u q 9 #X",
"#X#X#X#X#X#X#X#X#X#X#X#X#X#X#X#X%.%.*.*.R.W.~.#.# a w w w 0 0 0 9 s ' R.~._./.Q.&.%.( #X#X#X#X!.[.+X]._.W.@.] / E I / ] u % 4 4 ",
"#X#X#X#X#X#X#X#X#X#X#X#X#X#X#X( +.X.+.#.%.*.W.Q.s 0 e 0 0 0 e Y / E._.(.Q.=.X./ I % X #X*.~.OX+X[.~.-.O.( W i q 6 @ q / s @ 7 4 ",
"#X#X#X#X#X#X#X#X#X#X#X#X#X/ %.*.Y ` ' X.+.O.%.W.O.. w 0 0 # #.!.-.O.*.+.( E s 7 K O.W.(.OXOX'.!.*.o.( U i q % 7 8 8 4 d s % 4 7 ",
"#X#X#X#X#X#X#X#X#X#Xs ' R.(.[.OXR.f Q / ' X.O.%.R.p # # # y /.].`.*.Q I i 4 a &.E.~.].@X).E.&.X.( I i 9 7 7 8 q i s q u u 4 q q ",
"#X#X#X#X#X#X#X!.!.^.~.`.].OX[._.~.X.K Y Q / ' X.*.X.# I T ` _.].].!._ 6 6 u %.W.W.W.R.(.~.' Q K i 9 4 4 q i d K E d t u u u s #X",
"#X#X#X#X` ' X.X.*.[.+XOX'.~.Q.-.%.#.E s T Y / ` X.%.E ' ' ) ^.].[.W.' / E +.*.*.-.R.W.R.!.+.4 0 4 4 t u d K K R E =.O.7 U U #X#X",
"#X#X#X' X.( Q ( / +.Q.^.Q.-.$.o.' / E a s I T / ) #.' Q ) T ) E.E.+.` ) X.#.#.%.&.*.-.R.W.%.6 0 t p d K R E W @.E.~.Q.X.#X#X#X#X",
"#X#X' ( y < , < y Y / +.O.+.' E T f s u u s I Y Q [ +.p 0 6 + e T s E ) X.+.+.O.#.%.&.*.R.*.Y u K K W W ~ @.E.^.Q.U.&.%.#X#X#X#X",
"#X' _ , -       - ; T ` _ E / d i u q 9 9 u s f E / X.Q + 0 0 # # # 0 _ ' [ X.+.O.@.$.&.=.*.( I ~ W ^ @.Q.^.!.-.%.O.X.( ( #X#X#X",
"#X' e O   { 7. .  - = z ' z s s 0 0 7 6 7 q u s I ! ' ' e 6 6 6 0 6 I Q / ' ' ' | X.X.X.X.%.X.E ] @.Q.~.Q.-.&.@.X.] / W U K #X#X",
"] / =   b.XXXX.XN.n 3 2 / / 6 i 0 6 6 4 4 0 q u K T / ' I # 0 0 # p Y Q E T T ' #.W.~.).(.&.] %.Q.~.Q.U.&.@.] ] / W U d i s #X#X",
"' z   t.oX}.T.T.|.F.b v l ' a 6 9 % 4 4 4 0 9 u s I Q ' Q 0 0 6 9 f a 0 E #.W.~._.].+X@XOX).Q.~.^.U.&.@.] ] ( W K d i i t t 8 #X",
"' e   N.T.G.G.S.S.G.d.v M ^ W @ 0 4 4 6 # 6 0 q p f E ) ' u 4 9 0 . ) E./.`.].@X@X@XOX'.(.~.!.R.&.@.X.' ( W f d d t t q 7 7 7 #X",
"` 1 k F.S.Z.m.m.n.n.n.D N L ( 6 6 6 4 # 6 0 0 q u s T / X.s 6 + Y Q./.~.E.!.~.'.OX[.`.~.E.R.&.@.X.] / W U d d t q q 8 7 7 % 7 #X",
") 1 j m.n.v.j.j.j.h.j.<.B A ' u # 4 4 6 6 0 6 9 u s T Q X.f   E E.*.Q z p z T ' -.~.!.W.-.@.o.] / E U d d t t q 8 7 7 7 % % % #X",
"` 0 3 j.j.g.y.u.2.>.>.H D V ( d @ 6 6 6 6 6 0 9 u s T Q ' y 9 #.[ z e 5 , , r y T X.R.%.+.X./ W U d d u q q 8 7 7 % % % % % 7 7 ",
"' x - 0.i.,.S S H ;.;.H <.D _ Y + 6 0 0 0 4 6 0 u s I / Q + X.X.f : o   > 1     < a ' %.( / E d d t t q 8 7 7 % 7 % % % 7 % 8 8 ",
"| E 2 F ;.c S ;.2.3.3.1.<.H } Y # 6 0 9 q q 4 6 0 u s s #X#X] ! ; o e b. XT.b.L O : p ' X.s T i t q 8 7 7 % 7 % % % 7 % 7 7 q 8 ",
"#X( j B c S H 1.u.i.i.3.9.J _ Y % 7 u u i s t 9 u u #X#X#X#XX.p O > Y.XX.X|..XT.6.h g z ' E u i 7 8 7 7 % 7 % % % 7 7 7 7 q t #X",
"#X) m Z V S P 2.f.B.B.p.u.P ` I 4 u a s s E I t #X#X#X#X#X| ' <   t.|.Y.Y.Y.Y.T.H.G M h E ( 9 t 7 % % % % % % 7 7 7 8 8 q t i #X",
"#X#X` C G F ;.u.f.L.L.k.u.P ( s 0 s I E W / #X#X#X#X#X#X#X] ! =   N.T.F.F.S.D.S.F.x.M V l Q s 6 8 % 4 4 4 4 7 7 7 8 q q u s i #X",
"#X#X) } V <.5.u.z.P.C.z.3.} ( i a / W / #X#X#X#X#X#X#X#X#X] E o r F.D.Z.m.v.v.v.v.v.G Z M I Y # 7 4 4 4 7 7 8 8 q q u i s K #X#X",
"#X#X#X' { S 6.a.z.A.A.i...' W K / ( #X#X#X#X#X#X#X#X#X#X#X[ E o k m.m.v.j.j.j.j.j.l.5.D Z m T 0 % 6 7 7 8 8 q q u u d d E s #X#X",
"#X#X#X#X' } H 2.u.i.u.6.] ' K ~ #X#X#X#X#X#X#X#X#X#X#X#X#X| ! = , s.c.g.g.y.u.8.>.>.J G F n f t # 7 8 8 q t u i d d U U #X#X#X#X",
"#X#X#X#X#X' ' | ....| [ ' #X#X#X#X#X#X#X#X#X#X#X#X#X#X#X#X' ) : X 8.h.y.>.C B V Z D F :.:.A s u 4 8 9 t u i s d U E E #X#X#X#X#X",
"#X#X#X#X#X#X#X) ) ) ) #X#X#X#X#X#X#X#X#X#X#X#X#X#X#X#X#X#X#X) r . C u.Z c C D F J :.<.5.4.A s u 6 q u i s d K W E #X#X#X#X#X#X#X",
"#X#X#X#X#X#X#X#X#X#X#X#X#X#X#X#X#X#X#X#X#X#X#X#X#X#X#X#X#X#X( z : j M M C V F J <.5.5.9.9.G u u 8 u s d K E E ~ #X#X#X#X#X#X#X#X",
"#X#X#X#X#X#X#X#X#X#X#X#X#X#X#X#X#X#X#X#X#X#X#X#X#X#X#X#X#X#X/ / , v C M V D J <.5.9.a.d.e.A w a e s I U / / #X#X#X#X#X#X#X#X#X#X",
"#X#X#X#X#X#X#X#X#X#X#X#X#X#X#X#X#X#X#X#X#X#X#X#X#X#X#X#X#X#X#XQ a j F C Z F :.5.q.s.x.c.a.A w a i E Q ~ #X#X#X#X#X#X#X#X#X#X#X#X",
"#X#X#X#X#X#X#X#X#X#X#X#X#X#X#X#X#X#X#X#X#X#X#X#X#X#X#X#X#X#X#X#XQ k A G G J 5.0.s.v.D.m.a.y u a U ( / #X#X#X#X#X#X#X#X#X#X#X#X#X",
"#X#X#X#X#X#X#X#X#X#X#X#X#X#X#X#X#X#X#X#X#X#X#X#X#X#X#X#X#X#X#X#XT I b :.4.4.9.d.c.D.J.A. .& s U ( #X#X#X#X#X#X#X#X#X#X#X#X#X#X#X",
"#X#X#X#X#X#X#X#X#X#X#X#X#X#X#X#X#X#X#X#X#X#X#X#X#X#X#X#X#X#X#X#X#Xf I m :.9.r.x.D.J.I.p.& p I #X#X#X#X#X#X#X#X#X#X#X#X#X#X#X#X#X",
"#X#X#X#X#X#X#X#X#X#X#X#X#X#X#X#X#X#X#X#X#X#X#X#X#X#X#X#X#X#X#X#X#X#Xs f x A 5.r.c.k.w.* 0 a #X#X#X#X#X#X#X#X#X#X#X#X#X#X#X#X#X#X",
"#X#X#X#X#X#X#X#X#X#X#X#X#X#X#X#X#X#X#X#X#X#X#X#X#X#X#X#X#X#X#X#X#X#X#X#Xi w i p y * & 9 #X#X#X#X#X#X#X#X#X#X#X#X#X#X#X#X#X#X#X#X",
"#X#X#X#X#X#X#X#X#X#X#X#X#X#X#X#X#X#X#X#X#X#X#X#X#X#X#X#X#X#X#X#X#X#X#X#X#X#Xq 9 0 e #X#X#X#X#X#X#X#X#X#X#X#X#X#X#X#X#X#X#X#X#X#X",
"#X#X#X#X#X#X#X#X#X#X#X#X#X#X#X#X#X#X#X#X#X#X#X#X#X#X#X#X#X#X#X#X#X#X#X#X#X#X#X#X#X#X#X#X#X#X#X#X#X#X#X#X#X#X#X#X#X#X#X#X#X#X#X#X",
"#X#X#X#X#X#X#X#X#X#X#X#X#X#X#X#X#X#X#X#X#X#X#X#X#X#X#X#X#X#X#X#X#X#X#X#X#X#X#X#X#X#X#X#X#X#X#X#X#X#X#X#X#X#X#X#X#X#X#X#X#X#X#X#X",
"#X#X#X#X#X#X#X#X#X#X#X#X#X#X#X#X#X#X#X#X#X#X#X#X#X#X#X#X#X#X#X#X#X#X#X#X#X#X#X#X#X#X#X#X#X#X#X#X#X#X#X#X#X#X#X#X#X#X#X#X#X#X#X#X",
"#X#X#X#X#X#X#X#X#X#X#X#X#X#X#X#X#X#X#X#X#X#X#X#X#X#X#X#X#X#X#X#X#X#X#X#X#X#X#X#X#X#X#X#X#X#X#X#X#X#X#X#X#X#X#X#X#X#X#X#X#X#X#X#X",
"#X#X#X#X#X#X#X#X#X#X#X#X#X#X#X#X#X#X#X#X#X#X#X#X#X#X#X#X#X#X#X#X#X#X#X#X#X#X#X#X#X#X#X#X#X#X#X#X#X#X#X#X#X#X#X#X#X#X#X#X#X#X#X#X",
"#X#X#X#X#X#X#X#X#X#X#X#X#X#X#X#X#X#X#X#X#X#X#X#X#X#X#X#X#X#X#X#X#X#X#X#X#X#X#X#X#X#X#X#X#X#X#X#X#X#X#X#X#X#X#X#X#X#X#X#X#X#X#X#X",
"#X#X#X#X#X#X#X#X#X#X#X#X#X#X#X#X#X#X#X#X#X#X#X#X#X#X#X#X#X#X#X#X#X#X#X#X#X#X#X#X#X#X#X#X#X#X#X#X#X#X#X#X#X#X#X#X#X#X#X#X#X#X#X#X",
"#X#X#X#X#X#X#X#X#X#X#X#X#X#X#X#X#X#X#X#X#X#X#X#X#X#X#X#X#X#X#X#X#X#X#X#X#X#X#X#X#X#X#X#X#X#X#X#X#X#X#X#X#X#X#X#X#X#X#X#X#X#X#X#X",
"#X#X#X#X#X#X#X#X#X#X#X#X#X#X#X#X#X#X#X#X#X#X#X#X#X#X#X#X#X#X#X#X#X#X#X#X#X#X#X#X#X#X#X#X#X#X#X#X#X#X#X#X#X#X#X#X#X#X#X#X#X#X#X#X"
};
