/* XPM */
static const char *flash_disk_16x16_xpm[] = {
/* columns rows colors chars-per-pixel */
"16 16 52 1 ",
"  c #465C78",
". c #58B571",
"X c #4CFC4D",
"o c #56CF70",
"O c #4D6480",
"+ c #546C89",
"@ c #5C718B",
"# c #5A7491",
"$ c #617B99",
"% c #71859B",
"& c #74879D",
"* c #78969E",
"= c #6882A1",
"- c #6D89A8",
"; c #6E89A8",
": c #7A8FA6",
"> c #7E91A7",
", c #7B93AE",
"< c #6387B0",
"1 c #6387B1",
"2 c #6D93BF",
"3 c #68C483",
"4 c #6AE588",
"5 c #7298C4",
"6 c #799DC6",
"7 c #9190AD",
"8 c #889CB1",
"9 c #8DA8B3",
"0 c #8FA3B8",
"q c #8FA4BB",
"w c #92A6BB",
"e c #ACACBA",
"r c #ADACBA",
"t c #80A1C6",
"y c #88A6C8",
"u c #8DA9C8",
"i c #8EAAC9",
"p c #95AAC1",
"a c #A1C3E6",
"s c #A4C6E9",
"d c #ABCDEF",
"f c #A2D0E2",
"g c #B8D9E6",
"h c #BBD1E9",
"j c #B6D4F1",
"k c #C1DAF2",
"l c #ECEBF4",
"z c #EEEDF5",
"x c #EFEEF6",
"c c #EFEEF7",
"v c #F0EFF7",
"b c None",
/* pixels */
"bbbbbbbbbbbbbbbb",
"bbbbbbbbbbbbbbbb",
"bbbbbbbbbbbbbbbb",
"bbbbbbbbbbbbbbbb",
"bbbbbbbbbbbbbbbb",
"bbbbuiiiiii;;;-b",
"7777yhhhhhhpqq,=",
"7lectkkkkkg39w0$",
"7zxv6jjjjj4X.88#",
"7xrv5dddddfo*>>+",
"77772asssss:&%@O",
"bbbb1<<<<<<    b",
"bbbbbbbbbbbbbbbb",
"bbbbbbbbbbbbbbbb",
"bbbbbbbbbbbbbbbb",
"bbbbbbbbbbbbbbbb"
};
