/* XPM */
static const char *flash_disk_32x32_xpm[] = {
/* columns rows colors chars-per-pixel */
"32 32 221 2 ",
"   c #313E4C",
".  c #333367",
"X  c #3D3D6F",
"o  c #374657",
"O  c #364658",
"+  c #374759",
"@  c #3E4658",
"#  c #38485A",
"$  c #3C4D61",
"%  c #3D4E62",
"&  c #3F5267",
"*  c #52566B",
"=  c #414272",
"-  c #494A79",
";  c #4C4C7B",
":  c #4F4F7D",
">  c #475B72",
",  c #475C73",
"<  c #495F78",
"1  c #5F5F77",
"2  c #53537F",
"3  c #4E6177",
"4  c #496079",
"5  c #4B617A",
"6  c #4B627B",
"7  c #54617A",
"8  c #51677F",
"9  c #575782",
"0  c #585883",
"q  c #4F6680",
"w  c #506881",
"e  c #516882",
"r  c #526983",
"t  c #526A84",
"y  c #536B85",
"u  c #5A6A81",
"i  c #5C6A82",
"p  c #5F6A8A",
"a  c #5D7187",
"s  c #5D728B",
"d  c #636A85",
"f  c #66668F",
"g  c #646F8E",
"h  c #75758F",
"j  c #6A6B92",
"k  c #617994",
"l  c #607A95",
"z  c #637C97",
"x  c #6E7B97",
"c  c #637D99",
"v  c #7D7D91",
"b  c #757499",
"n  c #78789A",
"m  c #7A7C9D",
"M  c #7B7EA0",
"N  c #67819D",
"B  c #708AA6",
"V  c #738CA8",
"C  c #738CA9",
"Z  c #758EAA",
"A  c #758EAB",
"S  c #7D8EA8",
"D  c #7E90A5",
"F  c #7A90AA",
"G  c #7B95B3",
"H  c #7B98B6",
"J  c #7E98B5",
"K  c #7F98B5",
"L  c #7F9DBC",
"P  c #848497",
"I  c #858498",
"U  c #8182A1",
"Y  c #8283A3",
"T  c #8186A0",
"R  c #8988A8",
"E  c #8C8DA9",
"W  c #8092AC",
"Q  c #8D91AA",
"!  c #9190AE",
"~  c #9E9FAE",
"^  c #829AB6",
"/  c #879FBB",
"(  c #9796B2",
")  c #969AB1",
"_  c #9B9EB5",
"`  c #8CA4BE",
"'  c #A2A1BA",
"]  c #ACACBA",
"[  c #96C9B7",
"{  c #98CEB5",
"}  c #A8EFB2",
"|  c #84A2C1",
" . c #88A7C6",
".. c #92A9C2",
"X. c #93AAC4",
"o. c #94AEC9",
"O. c #97AEC8",
"+. c #98AFC9",
"@. c #9BB1C8",
"#. c #99B2CB",
"$. c #9FB4CB",
"%. c #98B1CC",
"&. c #9CB3CD",
"*. c #9EB6CF",
"=. c #9FBEDD",
"-. c #ABAAC2",
";. c #B0AFC5",
":. c #A2B7CC",
">. c #A0B7CE",
",. c #A7B9CB",
"<. c #A6BACF",
"1. c #B3B2C2",
"2. c #BBBBCB",
"3. c #BFBFCB",
"4. c #A6BBD0",
"5. c #A8BCD1",
"6. c #A9BDD1",
"7. c #A8BED0",
"8. c #AABED2",
"9. c #ABBFD2",
"0. c #ABBFD3",
"q. c #A8BDD4",
"w. c #A9BDD5",
"e. c #A5C1CB",
"r. c #A9C5CC",
"t. c #BFC0CA",
"y. c #ADC0D3",
"u. c #ADC2D2",
"i. c #AEC1D5",
"p. c #AEC2D5",
"a. c #AFC3D6",
"s. c #AEC2D8",
"d. c #B3C3D4",
"f. c #B2C5D8",
"g. c #B3C7DA",
"h. c #B5C6DB",
"j. c #B4C7DB",
"k. c #B5C8DB",
"l. c #B7C9DC",
"z. c #B9C9D9",
"x. c #BFCADA",
"c. c #B8CADC",
"v. c #BBCADE",
"b. c #A4C3E2",
"n. c #A9C7E5",
"m. c #B8CCE1",
"M. c #BCCFE4",
"N. c #BFD0E2",
"B. c #BED1E4",
"V. c #B6D9E8",
"C. c #B8D8EC",
"Z. c #BDDBEC",
"A. c #ADCFF0",
"S. c #AECFF0",
"D. c #B0D0F0",
"F. c #B1D1F0",
"G. c #B6D3F1",
"H. c #B6D4F1",
"J. c #B7D4F2",
"K. c #BBD6F1",
"L. c #B9D6F2",
"P. c #BBD7F3",
"I. c #BDD7F2",
"U. c #BED8F3",
"Y. c #C4C3D5",
"T. c #C9C9D3",
"R. c #CBCCD8",
"E. c #D2D3DD",
"W. c #C5E6D3",
"Q. c #D3F1D9",
"!. c #C0D3E5",
"~. c #C3D3E4",
"^. c #C2D4E7",
"/. c #C4D5E5",
"(. c #C6D6E7",
"). c #CDD7E7",
"_. c #C7D7E8",
"`. c #C3DAEF",
"'. c #CBDAE8",
"]. c #D9D9E3",
"[. c #D9DAE4",
"{. c #DFDFE7",
"}. c #D3DBEA",
"|. c #DDDBE8",
" X c #D8DDE9",
".X c #C2D9F1",
"XX c #C0D9F2",
"oX c #C5DDF2",
"OX c #C5DCF3",
"+X c #CADFF3",
"@X c #CBDFF3",
"#X c #C9DFF5",
"$X c #C7E2E5",
"%X c #CEE1F4",
"&X c #CFE1F4",
"*X c #CFE3F6",
"=X c #D3E2F1",
"-X c #D5E3F1",
";X c #D6E4F3",
":X c #D3E4F4",
">X c #D4E4F4",
",X c #D6E6F5",
"<X c #D7E6F5",
"1X c #DFE4F0",
"2X c #D9E7F5",
"3X c #DBE9F6",
"4X c #E5E4EE",
"5X c #E8E7F0",
"6X c #EBE9F1",
"7X c #E8E8F2",
"8X c #EBEAF2",
"9X c #ECEBF4",
"0X c #EEEDF5",
"qX c #EDEEF7",
"wX c #E3EDF8",
"eX c #F4F2F9",
"rX c #F5F3FA",
"tX c #F6F4FB",
"yX c #F6F4FC",
"uX c #F7F5FC",
"iX c None",
/* pixels */
"iXiXiXiXiXiXiXiXiXiXiXiXiXiXiXiXiXiXiXiXiXiXiXiXiXiXiXiXiXiXiXiX",
"iXiXiXiXiXiXiXiXiXiXiXiXiXiXiXiXiXiXiXiXiXiXiXiXiXiXiXiXiXiXiXiX",
"iXiXiXiXiXiXiXiXiXiXiXiXiXiXiXiXiXiXiXiXiXiXiXiXiXiXiXiXiXiXiXiX",
"iXiXiXiXiXiXiXiXiXiXiXiXiXiXiXiXiXiXiXiXiXiXiXiXiXiXiXiXiXiXiXiX",
"iXiXiXiXiXiXiXiXiXiXiXiXiXiXiXiXiXiXiXiXiXiXiXiXiXiXiXiXiXiXiXiX",
"iXiXiXiXiXiXiXiXiXiXiXiXiXiXiXiXiXiXiXiXiXiXiXiXiXiXiXiXiXiXiXiX",
"iXiXiXiXiXiXiXiXiXiXiXiXiXiXiXiXiXiXiXiXiXiXiXiXiXiXiXiXiXiXiXiX",
"iXiXiXiXiXiXiXiXiXiXiXiXiXiXiXiXiXiXiXiXiXiXiXiXiXiXiXiXiXiXiXiX",
"iXiXiXiXiXiXiXiXiXiXiXiXiXiXiXiXiXiXiXiXiXiXiXiXiXiXiXiXiXiXiXiX",
"iXiXiXiXiXiXiXiXiXiXiXiXiXiXiXiXiXiXiXiXiXK / ......` ^ A iXiXiX",
"iXiXiXiXiXiXiXiXiXiXiXiXiXiXiXiXiXG J ` @.6.6.6.6.6.6.8.:.F iXiX",
"iXiXiXiXiXiXiXiXiXiXiXiXiXiX6.a.d.z.u.[ { r.7.6.6.9.i.g.B.<.s iX",
"iXiXiXiXiXiXiXiXiXiXiX6.f./.=X2X<X>X$X} Q.W.e.0.p.k.!.M.+.Z 3 iX",
"iXiXiXiXiXiXiX6.6.c._.;X2X2X<X:X&X@XoXZ.V.C.`.'.^.m.X.C z 8   iX",
"iXiXiXiX6.y.4.j.-XwX3X2X,X:X%X+XOXXXK.H.F.A.J.#XO.B k t , o iXiX",
"iXiXiX5.#.o.o.o.o.o.q.l.(.>XOXXXK.G.D.S.L.U.n. .V e > % # iXiXiX",
"iXiXiX>.h.}.7X1X).v.w.%.%.*.~..XD.S.P.I.b.| N y w $ + iXiXiXiXiX",
"t.3.[.qX0X) _ 5XuX0XyXeX Xx.$.s.*XK.=.L c r 6 & O iXiXiXiXiXiXiX",
"-.-.|.tXuXuXuXuX4XQ T ].E.E g &.N.H l w 6 4 < iXiXiXiXiXiXiXiXiX",
"-.6X. 0 ! Y.9XrX8X{.R.U = - p W ,.q 6 4 < iXiXiXiXiXiXiXiXiXiXiX",
"-.6X2 9 9 9 9 b ;.n X ; f M x S D 5 < iXiXiXiXiXiXiXiXiXiXiXiXiX",
"t.T.2.( b 9 9 9 R.: j m d 7 i u a iXiXiXiXiXiXiXiXiXiXiXiXiXiXiX",
"iXiXiX~ ] 1.' R R.Y h * @ iXiXiXiXiXiXiXiXiXiXiXiXiXiXiXiXiXiXiX",
"iXiXiXiXiXiXv P I 1 iXiXiXiXiXiXiXiXiXiXiXiXiXiXiXiXiXiXiXiXiXiX",
"iXiXiXiXiXiXiXiXiXiXiXiXiXiXiXiXiXiXiXiXiXiXiXiXiXiXiXiXiXiXiXiX",
"iXiXiXiXiXiXiXiXiXiXiXiXiXiXiXiXiXiXiXiXiXiXiXiXiXiXiXiXiXiXiXiX",
"iXiXiXiXiXiXiXiXiXiXiXiXiXiXiXiXiXiXiXiXiXiXiXiXiXiXiXiXiXiXiXiX",
"iXiXiXiXiXiXiXiXiXiXiXiXiXiXiXiXiXiXiXiXiXiXiXiXiXiXiXiXiXiXiXiX",
"iXiXiXiXiXiXiXiXiXiXiXiXiXiXiXiXiXiXiXiXiXiXiXiXiXiXiXiXiXiXiXiX",
"iXiXiXiXiXiXiXiXiXiXiXiXiXiXiXiXiXiXiXiXiXiXiXiXiXiXiXiXiXiXiXiX",
"iXiXiXiXiXiXiXiXiXiXiXiXiXiXiXiXiXiXiXiXiXiXiXiXiXiXiXiXiXiXiXiX",
"iXiXiXiXiXiXiXiXiXiXiXiXiXiXiXiXiXiXiXiXiXiXiXiXiXiXiXiXiXiXiXiX"
};
