/* XPM */
static const char *folder_48x48_xpm[] = {
/* columns rows colors chars-per-pixel */
"48 48 116 2 ",
"   c #6A5B36",
".  c #7C6A3F",
"X  c #816E42",
"o  c #8E7949",
"O  c #957F4C",
"+  c #6DBF6D",
"@  c #9A844F",
"#  c #A58E54",
"$  c #AB9257",
"%  c #AE9558",
"&  c #B0975A",
"*  c #B49B5C",
"=  c #B99E5C",
"-  c #BCA15E",
";  c #BDA461",
":  c #BFA863",
">  c #A0BA6C",
",  c #B4B86C",
"<  c #BEBB6D",
"1  c #C2A45E",
"2  c #C3A762",
"3  c #C4A963",
"4  c #CBAC64",
"5  c #CBAE68",
"6  c #CDB46B",
"7  c #C1BD6E",
"8  c #D4B365",
"9  c #D9B766",
"0  c #DBB867",
"q  c #D3B46B",
"w  c #D5B96C",
"e  c #DCBB6D",
"r  c #C5B172",
"t  c #D3BD72",
"y  c #D7BE78",
"u  c #E1BE6C",
"i  c #D7C271",
"p  c #DDC474",
"a  c #DECB76",
"s  c #DBC47F",
"d  c #E4C16E",
"f  c #EBC56D",
"g  c #EFC86E",
"h  c #F1CA6F",
"j  c #E6C471",
"k  c #EAC670",
"l  c #E2CA76",
"z  c #EEC971",
"x  c #E3CE78",
"c  c #F4CD72",
"v  c #F8CF72",
"b  c #E5D27A",
"n  c #E9D57C",
"m  c #EDDB7E",
"M  c #F6D074",
"N  c #FED475",
"B  c #F5D37B",
"V  c #F8D37A",
"C  c #81C881",
"Z  c #DCC683",
"A  c #DDCA85",
"S  c #DACA8A",
"D  c #E4CD8C",
"F  c #E4D382",
"G  c #EFDE80",
"H  c #EEDE89",
"J  c #F5D384",
"K  c #F0DF80",
"L  c #FDDB84",
"P  c #F4DB8D",
"I  c #FEDE89",
"U  c #E4D393",
"Y  c #EDD294",
"T  c #EBDC94",
"R  c #E7D999",
"E  c #E9D99B",
"W  c #F2D695",
"Q  c #F6D996",
"!  c #F3E482",
"~  c #F7E984",
"^  c #F9ED86",
"/  c #F2E48C",
"(  c #FDE18F",
")  c #F5E98F",
"_  c #FBF087",
"`  c #FDF288",
"'  c #EFE29B",
"]  c #F7EB91",
"[  c #F8EE93",
"{  c #F3E59E",
"}  c #FEE699",
"|  c #FEE99F",
" . c #FCF394",
".. c #FEF799",
"X. c #FFF89A",
"o. c #EDDFA1",
"O. c #EFE4A2",
"+. c #EEE3A9",
"@. c #F1E6A3",
"#. c #F2E8A5",
"$. c #F9EAA4",
"%. c #F4ECAC",
"&. c #FBEEAB",
"*. c #FAF2AD",
"=. c #FDF8AF",
"-. c #F9E3B0",
";. c #F5ECB2",
":. c #F7F0B3",
">. c #FCF3B3",
",. c #FDF9B2",
"<. c #FAF4BB",
"1. c #FEFBB9",
"2. c #FDFBC3",
"3. c #FFFECA",
"4. c #FFFFFF",
"5. c None",
/* pixels */
"5.5.5.5.5.x a i Z s 6 6 6 q 5.5.5.5.5.5.5.5.5.5.5.5.5.5.5.5.5.5.5.5.5.5.5.5.5.5.5.5.5.5.5.5.5.5.",
"5.5.5.5.5.F 2.' b / 2.3.;.;.E E D s t q 6 q 5.5.5.5.5.5.5.5.5.5.5.5.5.5.5.5.5.5.5.5.5.5.5.5.5.5.",
"5.5.5.5.5.n X.1.2.#.b b B I I $.$.>.>.3.>.;.' E D Z y q 6 q 5.5.5.5.5.5.5.5.5.5.5.5.5.5.5.5.5.5.",
"5.5.5.5.5.n ` ` ..1.2.#.a x B v N N N N N ( ( &.| >.>.2.<.;.@.R U Z q 5.5.5.5.5.5.5.5.5.5.5.5.5.",
"5.5.5.5.5.b ` ` ` ` ..=.2.@.F x v N N N N N N N N N N N N L I } | 1.+.5 5.5.5.5.5.5.5.5.5.5.5.5.",
"5.5.5.5.5.n ` ` ` ` ` `  .=.2.+.t j N N N N N N N N N N N N N N N ( >.2 5.5.5.5.5.5.5.5.5.5.5.5.",
"5.5.5.5.5.b ` ` ` ` ` ` ` _  .1.*.: N N N N N N N N N N N N N N N I >.; 5.5.5.5.5.5.5.5.5.5.5.5.",
"5.5.5.5.5.m ` ` ` ` ` ` ` _ ^ ..,.; N N N N N N N N N N N N N N N L *.- 5.5.5.5.5.5.5.5.5.5.5.5.",
"5.5.5.5.5.b ` ` ` _ _ ` ` _ _ ..=.- N N N N N N N N N N N N N N N ( &.* 5.5.5.5.5.5.5.5.5.5.5.5.",
"5.5.5.5.5.n ` ` _ _ _ _ _ _ _ [ =.* N N N N N N N N N N N N N N N ( &.& 5.5.5.5.5.5.5.5.5.5.5.5.",
"5.5.5.5.5.b _ _ _ _ _ _ _ _ _ [ =.$ v v N N N N N N N N N N N N N L *.& 5.5.5.5.5.5.5.5.5.5.5.5.",
"5.5.5.5.5.b _ ^ _ ^ _ ^ ^ _ ^  .=.& v v v v N N N N N N N N N N N L &.& 5.5.5.5.5.5.5.5.5.5.5.5.",
"5.5.5.5.5.n _ _ ^ ^ ^ ^ ^ ^ ^ [ =.& M z v v v N N N N N N N N N N L &.& 5.5.5.5.5.5.5.5.5.5.5.5.",
"5.5.5.5.5.b ^ ^ ^ ^ ^ ^ ^ ~ ^ [ %.& z c h v v N N N N N N N ^ N N ( $.& 5.5.5.5.5.5.5.5.5.5.5.5.",
"5.5.5.5.5.b _ _ ^ ^ ~ ^ ~ ^ ^ ] *.& h c h v N N N N N N N N N N N L &.& 5.5.5.5.5.5.5.5.5.5.5.5.",
"5.5.5.5.5.n ^ ~ ~ ^ ~ ~ ~ ~ ~ ] *.& g h h v m N N N N N N N N N N L $.& 5.5.5.5.5.5.5.5.5.5.5.5.",
"5.5.5.5.5.b ~ ~ ~ ~ ~ ~ ~ ~ ~ ] ,.& f g g g v N N N N N N N N N N L $.& 5.5.5.5.5.5.5.5.5.5.5.5.",
"5.5.5.5.5.b ~ ~ ~ ~ ~ ~ ~ ~ ! ] :.& f f g g h N N N N N N N N N N L $.& 5.5.5.5.5.5.5.5.5.5.5.5.",
"5.5.5.5.5.b ~ ~ ~ ! ~ ~ ! ~ ! ] *.& j g f f h N N N N N N N N N N L $.& 5.5.5.5.5.5.5.5.5.5.5.5.",
"5.5.5.5.5.b ~ ! ~ ! ! ! ~ ! ! ) :.& d d f f h N N N N N N N N N N L $.& 5.5.5.5.5.5.5.5.5.5.5.5.",
"5.5.5.5.5.b ! ~ ! ~ ! ! ! ! ! ) :.& f d f f g N N N N N N N N N N L { & 5.5.5.5.5.5.5.5.5.5.5.5.",
"5.5.5.5.5.b ! ! ! ! ! ! ! ! ! / *.& 0 d f 0 f N M N N N N N N N N L { * 5.5.5.5.5.5.5.5.5.5.5.5.",
"5.5.5.5.5.b ! ! ! ! ! ! ! K ! / ;.& i d 0 0 g v N N N N N N N N N L { & 5.5.5.5.5.5.5.5.5.5.5.5.",
"5.5.5.5.5.b ! ! ! ! m ! ! K ! / ;.& 0 0 0 f f v N M N N N N N N N L $.& 5.5.5.5.5.5.5.5.5.5.5.5.",
"5.5.5.5.5.b K K ! K m ! m ! m / %.% 9 9 u 0 g M M N v N v N N v N L { & 5.5.5.5.5.5.5.5.5.5.5.5.",
"5.5.5.5.5.b K ! ! m ! m K m ! H %.% 9 8 9 0 f M c c M N N v v N v L { % 5.5.5.5.5.5.5.5.5.5.5.5.",
"5.5.5.5.5.x K K m ! m m m K m / %.& 8 8 9 9 d h c M v M v v N M v L { & 5.5.5.5.5.5.5.5.5.5.5.5.",
"5.5.5.5.5.x K K ! m K m m m m H %.& 8 8 8 8 d c M c M c v M M M v V %.* & 5.5.5.5.5.5.5.5.5.5.5.",
"5.5.5.5.5.b m m m m m m m m m H T * 4 4 8 8 u z c c c c M c M c v c @.@.S r & 5.5.5.5.5.5.5.5.5.",
"5.5.5.5.5.b m m m m m m n m H t ; 4 1 4 4 4 u c z z c c c c M c c c v B P #.& 5.5.5.5.5.5.5.5.5.",
"5.5.5.5.5.x m m m n m m m n #.3 1 8 4 1 4 8 k z z z c z z c c c c J -.Q c #.& 5.5.5.5.5.5.5.5.5.",
"5.5.5.5.5.x m m m m n n n n $.3 1 1 1 1 0 k k z z z g z z z c h z Q 4.4.c #.& 5.5.5.5.5.5.5.5.5.",
"5.5.5.5.5.x n m n n n n n n #.2 - 1 1 1 u u z z k z z z c c z c c Q 4.4.z @.& 5.5.5.5.5.5.5.5.5.",
"5.5.5.5.5.x n n m n n n n b #.2 = = = - k u u z u z z u u z z u u Q 4.4.z @.& 5.5.5.5.5.5.5.5.5.",
"5.5.5.5.5.a n n n n b n b n @.; * = = = u u u u u u u z u h z z k Y 4.4.k @.& 5.5.5.5.5.5.5.5.5.",
"5.5.5.5.5.a n n n n b n b b #.; & & = = u u u k z z u y D u u z j Y 4.4.j @.& 5.5.5.5.5.5.5.5.5.",
"5.5.5.5.5.a n n n b b b x x @.2 & & & & e e e u u u u u u u u u u W 4.4.u @.& 5.5.5.5.5.5.5.5.5.",
"5.5.5.5.5.i n b x b b x x x @.- $ $ & % e e e e y u u u u u u u u Y 4.4.u { & 5.5.5.5.5.5.5.5.5.",
"5.5.5.5.5.w b b n x x x x x { ; # $ $ $ e w e e e e e y u u u u u D 4.4.u { % 5.5.5.5.5.5.5.5.5.",
"5.5.5.5.5.6 a b x x x l l x ' - # # # $ q q w w e e e e y u y u e 7 + C e @.& 5.5.5.5.5.5.5.5.5.",
"5.5.5.5.5.5.* t x x x l l l E = @ # # # 6 q q w q e e e e e w e e < + + e ' & 5.5.5.5.5.5.5.5.5.",
"5.5.5.5.5.5.5.& w x l l l l E *   X o O 5 6 q q q q 6 q q w w w w < + + w { & 5.5.5.5.5.5.5.5.5.",
"5.5.5.5.5.5.5.5.& q x p a l T * 5.5.5.5.& & - 2 5 q q q q q q q w 6 , > q ' & 5.5.5.5.5.5.5.5.5.",
"5.5.5.5.5.5.5.5.5.* q l p p T * 5.5.5.5.5.5.5.5.& & - 2 q q 6 q q q q 5 5 S % 5.5.5.5.5.5.5.5.5.",
"5.5.5.5.5.5.5.5.5.5.5.6 l p T % 5.5.5.5.5.5.5.5.5.5.5.5.& * 2 5 6 q 5 # X X 5.5.5.5.5.5.5.5.5.5.",
"5.5.5.5.5.5.5.5.5.5.5.5.2 p ' & 5.5.5.5.5.5.5.5.5.5.5.5.5.5.5.5.& = = O 5.5.5.5.5.5.5.5.5.5.5.5.",
"5.5.5.5.5.5.5.5.5.5.5.5.5.2 ' # 5.5.5.5.5.5.5.5.5.5.5.5.5.5.5.5.5.5.5.5.5.5.5.5.5.5.5.5.5.5.5.5.",
"5.5.5.5.5.5.5.5.5.5.5.5.5.5.: 5.5.5.5.5.5.5.5.5.5.5.5.5.5.5.5.5.5.5.5.5.5.5.5.5.5.5.5.5.5.5.5.5."
};
