/* XPM */
static const char *folder_32x32_xpm[] = {
/* columns rows colors chars-per-pixel */
"32 32 105 2 ",
"   c #504529",
".  c #625432",
"X  c #78673D",
"o  c #937E4B",
"O  c #6DBF6D",
"+  c #9B854F",
"@  c #9D8750",
"#  c #A68E55",
"$  c #AC9357",
"%  c #AD9458",
"&  c #B0975A",
"*  c #B39A5B",
"=  c #B99E5D",
"-  c #BDA15D",
";  c #BEA362",
":  c #BDA669",
">  c #C2A45F",
",  c #C3A763",
"<  c #C6A964",
"1  c #CBAC63",
"2  c #C2AC6B",
"3  c #CBAE68",
"4  c #CFB76C",
"5  c #C1BD6D",
"6  c #CCB96D",
"7  c #D3B265",
"8  c #D9B766",
"9  c #D2B46B",
"0  c #D6BA6D",
"q  c #DCBB6D",
"w  c #CDBB7C",
"e  c #D4B771",
"r  c #D7BF71",
"t  c #E1BE6D",
"y  c #A5C173",
"u  c #D9C473",
"i  c #DDC975",
"p  c #DBC078",
"a  c #DFCD7B",
"s  c #E4C16E",
"d  c #EBC56D",
"f  c #EFC86E",
"g  c #F2CA6F",
"h  c #E7C370",
"j  c #EAC671",
"k  c #E1CA77",
"l  c #EEC971",
"z  c #E3CE79",
"x  c #F4CD72",
"c  c #E5D27A",
"v  c #E9D57C",
"b  c #EDDB7E",
"n  c #FED475",
"m  c #F5D179",
"M  c #B8E0B8",
"N  c #D6C780",
"B  c #DCC683",
"V  c #DFCA88",
"C  c #E4CE80",
"Z  c #E4D181",
"A  c #E9D684",
"S  c #EDDB83",
"D  c #E5D78B",
"F  c #EFDF89",
"G  c #F6D584",
"H  c #F0DF80",
"J  c #FDDB84",
"K  c #FFDF89",
"L  c #EDD294",
"P  c #E7D993",
"I  c #EADE96",
"U  c #E9DB9C",
"Y  c #F3D695",
"T  c #F3E482",
"R  c #F7E985",
"E  c #F9ED86",
"W  c #F2E48C",
"Q  c #F5E98F",
"!  c #FBF087",
"~  c #FCF288",
"^  c #EEE29C",
"/  c #F7EB91",
"(  c #F9EE93",
")  c #F0E49E",
"_  c #FEE598",
"`  c #FEE99E",
"'  c #FBF296",
"]  c #FDF59E",
"[  c #ECE2A5",
"{  c #F1E6A2",
"}  c #F3E9A6",
"|  c #F4ECAC",
" . c #FEF8A2",
".. c #FDF8AE",
"X. c #F5EDB3",
"o. c #F7F1B4",
"O. c #FCF2B4",
"+. c #FAF5BB",
"@. c #FCF9BC",
"#. c #FAF7C0",
"$. c #FCFAC3",
"%. c #F9F0CC",
"&. c #FEFDC9",
"*. c white",
"=. c None",
/* pixels */
"=.=.=.i i r 9 4 4 4 3 4 =.=.=.=.=.=.=.=.=.=.=.=.=.=.=.=.=.=.=.=.",
"=.=.=.D $.^ i I [ X.U U B B 9 9 9 9 9 9 =.=.=.=.=.=.=.=.=.=.=.=.",
"=.=.=.v  .$.&.[ Z D o.O.&.&.&.&.X.| U U V B e =.=.=.=.=.=.=.=.=.",
"=.=.=.c ~ ~ ] @.&.} Z 0 x n K K } ` O.O.#.&.#.3 =.=.=.=.=.=.=.=.",
"=.=.=.c ~ ~ ~ ~ ] ..$.[ - n n n n n n n n ` $.; =.=.=.=.=.=.=.=.",
"=.=.=.c ~ ~ ~ ~ ~ ! ] $.% n n n n n n n n R $.= =.=.=.=.=.=.=.=.",
"=.=.=.v ! ! ~ ~ ! ! ~ @.& n n n n n n n n K @.& =.=.=.=.=.=.=.=.",
"=.=.=.c ! ! ! ! ! R ' @.% n n n n n n n n K +.& =.=.=.=.=.=.=.=.",
"=.=.=.v ! ! R ! E ! ( +.& g n n n n n n n J +.& =.=.=.=.=.=.=.=.",
"=.=.=.c R ! E R R E ( +.& g g n n n n n n J +.& =.=.=.=.=.=.=.=.",
"=.=.=.c ! R R R R R / +.& g g n n n n n n R O.& =.=.=.=.=.=.=.=.",
"=.=.=.c R R R R R T Q +.& f f x n n n n n J o.& =.=.=.=.=.=.=.=.",
"=.=.=.c R R R T R b Q o.& f d n n n n n n J o.& =.=.=.=.=.=.=.=.",
"=.=.=.c R T T T b R Q o.& s d n n n n n n J o.& =.=.=.=.=.=.=.=.",
"=.=.=.c T T T T R T Q | & s s x n n n n n J X.& =.=.=.=.=.=.=.=.",
"=.=.=.c T T T T b R Q | & t s g n n n n n J | & =.=.=.=.=.=.=.=.",
"=.=.=.z T T H b H H W | & 8 8 x m m n n n n o.& =.=.=.=.=.=.=.=.",
"=.=.=.c b H H b b b F | & 8 8 x m n x n n G | & =.=.=.=.=.=.=.=.",
"=.=.=.z H b b S b b F | & 7 7 d x x x x x G } : & =.=.=.=.=.=.=.",
"=.=.=.z b H b b b b Z w * 7 7 s x x x x m m } } ^ % =.=.=.=.=.=.",
"=.=.=.z b b b b S } & = > 1 7 x x l l x l x G %.} & =.=.=.=.=.=.",
"=.=.=.z b b v v S } & > , 1 d j l l l l l l Y *.} & =.=.=.=.=.=.",
"=.=.=.z v v v v S { & = = 7 h h j j j j l l L *.{ % =.=.=.=.=.=.",
"=.=.=.i v v c v A { & * = 3 t h h h h h j j L *.{ & =.=.=.=.=.=.",
"=.=.=.i v c c v A ) & & & 1 q t t t t t h h L *.) & =.=.=.=.=.=.",
"=.=.=.u c c z z A { & $ $ , q q q t t t u h N M ) & =.=.=.=.=.=.",
"=.=.=.6 k z z z Z ) & # # ; 9 8 q q q q q q : O ) & =.=.=.=.=.=.",
"=.=.=.=.= 0 z j C { & o + = 9 9 9 e 0 0 0 0 e y ) & =.=.=.=.=.=.",
"=.=.=.=.=.& 4 k C { % . X @ = ; 3 9 9 9 9 0 0 r ^ & =.=.=.=.=.=.",
"=.=.=.=.=.=.% , z { & =.=.=.=.=.% & = , 3 9 9 = 2 # =.=.=.=.=.=.",
"=.=.=.=.=.=.=.& 2 P % =.=.=.=.=.=.=.=.& & & = #   =.=.=.=.=.=.=.",
"=.=.=.=.=.=.=.=.& & @ =.=.=.=.=.=.=.=.=.=.=.=.=.=.=.=.=.=.=.=.=."
};
