/* XPM */
static const char *folder_64x64_xpm[] = {
/* columns rows colors chars-per-pixel */
"64 64 186 2 ",
"   c #77653C",
".  c #8C7847",
"X  c #877446",
"o  c #937E4A",
"O  c #53BA59",
"+  c #77BA5C",
"@  c #5CBF6D",
"#  c #6ABF6D",
"$  c #63BE6A",
"%  c #6CC071",
"&  c #97814D",
"*  c #98824E",
"=  c #A58D54",
"-  c #A88F56",
";  c #AB9256",
":  c #AE9558",
">  c #B89A57",
",  c #B19659",
"<  c #B49A5A",
"1  c #B99D5C",
"2  c #BDA15E",
"3  c #B99F60",
"4  c #85BE6D",
"5  c #88BF71",
"6  c #BCA260",
"7  c #B8B96C",
"8  c #C2A45F",
"9  c #CBAA5D",
"0  c #D3AE5E",
"q  c #D6B25F",
"w  c #C3A662",
"e  c #C5A963",
"r  c #CCAC61",
"t  c #C2AD6E",
"y  c #CBB067",
"u  c #CDB36C",
"i  c #CABC6E",
"p  c #C5B86C",
"a  c #D4B364",
"s  c #DAB665",
"d  c #DCB966",
"f  c #D4B56C",
"g  c #D8B56C",
"h  c #D6B86D",
"j  c #DCBB6D",
"k  c #C1AF72",
"l  c #CAB472",
"z  c #CEBA7C",
"x  c #C8B577",
"c  c #D5BC70",
"v  c #DBBD71",
"b  c #D1BC7E",
"n  c #E3BC63",
"m  c #E1BE6D",
"M  c #F5C859",
"N  c #CFC070",
"B  c #DEC574",
"V  c #DECA79",
"C  c #E7C065",
"Z  c #ECC366",
"A  c #E4C26E",
"S  c #EBC56D",
"D  c #E4CB6D",
"F  c #EFC86F",
"G  c #F1C767",
"H  c #FFCF65",
"J  c #F2CA6D",
"K  c #F9CD6B",
"L  c #F4C961",
"P  c #E7D16F",
"I  c #E9D36F",
"U  c #FED26D",
"Y  c #E5C472",
"T  c #EAC671",
"R  c #E2CB76",
"E  c #EEC971",
"W  c #E4CD79",
"Q  c #EBCE7C",
"!  c #F4CC72",
"~  c #F8CF73",
"^  c #E7D171",
"/  c #EBD572",
"(  c #EEDB73",
")  c #E6D27A",
"_  c #E9D57C",
"`  c #E7D87B",
"'  c #ECDA7E",
"]  c #F3D474",
"[  c #FED475",
"{  c #F2DD75",
"}  c #F9D47D",
"|  c #F0DF7D",
" . c #FFD979",
".. c #F3E376",
"X. c #F7E977",
"o. c #F4E47B",
"O. c #F9E57A",
"+. c #F6E87C",
"@. c #FBEC7B",
"#. c #F9EB76",
"$. c #FFF27E",
"%. c #FFFA7F",
"&. c #D3BE81",
"*. c #CDC288",
"=. c #D6C283",
"-. c #D8C487",
";. c #DFCD87",
":. c #DAC68A",
">. c #DECD8D",
",. c #DFD18E",
"<. c #DDCD93",
"1. c #DFD097",
"2. c #E5CE83",
"3. c #EACF80",
"4. c #E2CF89",
"5. c #E8CF88",
"6. c #E7D182",
"7. c #EBD384",
"8. c #EEDE81",
"9. c #E3D28C",
"0. c #EAD38C",
"q. c #ECDD8C",
"w. c #F0DF81",
"e. c #FEDC84",
"r. c #FCDE8B",
"t. c #E4CE93",
"y. c #EEDB94",
"u. c #E3D59C",
"i. c #EED29B",
"p. c #E8D89E",
"a. c #E3D592",
"s. c #F0DD96",
"d. c #F3D69C",
"f. c #F3DD9A",
"g. c #F8DB9B",
"h. c #F3E482",
"j. c #F7E984",
"k. c #F9ED86",
"l. c #F0E28F",
"z. c #FFE28C",
"x. c #FBEF88",
"c. c #FDF285",
"v. c #FFF981",
"b. c #FCF288",
"n. c #EFE49C",
"m. c #F2E592",
"M. c #FFE491",
"N. c #F5EA95",
"B. c #F2E19C",
"V. c #FBE69C",
"C. c #F7ED98",
"Z. c #FDEC9B",
"A. c #FFF791",
"S. c #FFF894",
"D. c #FAF29C",
"F. c #FFFA99",
"G. c #CDDEBD",
"H. c #E6DAA2",
"J. c #EADEA5",
"K. c #EEE4A4",
"L. c #EEE2A8",
"P. c #F5E5A2",
"I. c #F8E7A5",
"U. c #FBE9A5",
"Y. c #F5EDAC",
"T. c #FCECAB",
"R. c #F1E5AA",
"E. c #FCF3A3",
"W. c #FFF5AC",
"Q. c #FFFCA3",
"!. c #FCEEB0",
"~. c #F8E3BC",
"^. c #FFF4B4",
"/. c #FFF8B2",
"(. c #D9EDDC",
"). c #F9E6C2",
"_. c #FFFFC6",
"`. c #E8F3E8",
"'. c #F6F3EA",
"]. c #F8F4EA",
"[. c #EAF0F6",
"{. c #ECF2F8",
"}. c #F7F9FF",
"|. c #FFFFFF",
" X c #F9F7F4",
".X c None",
/* pixels */
".X.X.X.X.X.X.XV 9.p.p.u.1..X.X.X.X.X.X.X.X.X.X.X.X.X.X.X.X.X.X.X.X.X.X.X.X.X.X.X.X.X.X.X.X.X.X.X.X.X.X.X.X.X.X.X.X.X.X.X.X.X.X.X",
".X.X.X.X.X.X.Xq.Q.K.P.U.W.W.^.T.L.J.H.u.1.:..X.X.X.X.X.X.X.X.X.X.X.X.X.X.X.X.X.X.X.X.X.X.X.X.X.X.X.X.X.X.X.X.X.X.X.X.X.X.X.X.X.X",
".X.X.X.X.X.X.X` %.k.N.y.T G ] } e.M.V.E.W./.^.^.R.L.J.u.u.>..X.X.X.X.X.X.X.X.X.X.X.X.X.X.X.X.X.X.X.X.X.X.X.X.X.X.X.X.X.X.X.X.X.X",
".X.X.X.X.X.X.X` v.#.$.S.E.n.Q J K K K U K [ [  .e.z.V.E.W./././.Y.L.J.H.u.<..X.X.X.X.X.X.X.X.X.X.X.X.X.X.X.X.X.X.X.X.X.X.X.X.X.X",
".X.X.X.X.X.X.X8.v.@.$.c.b.S.E.n.7.J U [ ] [ [ [ [ U U U U U [  . .z.M.D.W.W./.^.^.L.J.H.u.1..X.X.X.X.X.X.X.X.X.X.X.X.X.X.X.X.X.X",
".X.X.X.X.X.X.X` v.X.@.b.b.b.v.S.E.n.7.! ~ [ [ [ [ [ [  .[ [ [ [ [ [ U U U U U [  .e.M.Z.E.W._.>..X.X.X.X.X.X.X.X.X.X.X.X.X.X.X.X",
".X.X.X.X.X.X.X` v.#.@.b.A.b.b.b.c.A.E.K.7.K [ [ [ [ [ [ [ [ [ [ [ [ [  . . .[ [ [ [ U [ U H M.^..X.X.X.X.X.X.X.X.X.X.X.X.X.X.X.X",
".X.X.X.X.X.X.X` v.X.$.b.b.b.b.b.b.b.c.A.E.P.Q [ [ [ [ [ [ [ [ [ [ [ [ [ [ [ [ [ [ [ [ [ [ [ [ T..X.X.X.X.X.X.X.X.X.X.X.X.X.X.X.X",
".X.X.X.X.X.X.X` v.X.@.b.b.b.b.b.b.b.b.k.c.S.Y.W  .[ [ [ [ [ [ [ [ [ [ [ [ [ [ [ [ [ [ [ [ [ [ T..X.X.X.X.X.X.X.X.X.X.X.X.X.X.X.X",
".X.X.X.X.X.X.X` v.#.@.b.b.b.b.b.b.b.b.b.b.@.E.t.U [ [  .[ [ [ [ [ [ [ [ [ [ [ [ [ [ [  .[ [  .W..X.X.X.X.X.X.X.X.X.X.X.X.X.X.X.X",
".X.X.X.X.X.X.X` %.X.X.b.b.x.b.b.b.b.b.b.b.b.D.4.U [ [ [ [  .[ [ [ [ [ [  .[ [ [ [ [ [ [ [ [  .T..X.X.X.X.X.X.X.X.X.X.X.X.X.X.X.X",
".X.X.X.X.X.X.X` c...X.b.b.c.x.x.k.b.k.b.b.k.D.:.U [ [ [ [ [ [ [ [ [ [  .[ [ [ [ [  .[ [ [ [  .T..X.X.X.X.X.X.X.X.X.X.X.X.X.X.X.X",
".X.X.X.X.X.X.X` c.X.+.x.x.b.x.c.b.k.b.b.b.@.D.:.U [ [ [ [ [ [ [ [ [ [ [  .[  .[ [ [  .[ [ U  .U..X.X.X.X.X.X.X.X.X.X.X.X.X.X.X.X",
".X.X.X.X.X.X.X` %...X.x.x.x.x.x.k.b.k.k.b.k.D.:.K ] [ [ [ [ [ [ [  .[ [ [ [ [ [  .[ [ [ [ [  .U..X.X.X.X.X.X.X.X.X.X.X.X.X.X.X.X",
".X.X.X.X.X.X.X` $...X.k.x.k.k.x.k.x.k.k.x.k.D.-.K ~ K ] [ [ [ [ [ [ [ [ [  .[ [ U  .[ [  .[ O.P..X.X.X.X.X.X.X.X.X.X.X.X.X.X.X.X",
".X.X.X.X.X.X.X` $...X.k.k.k.c.k.k.k.k.k.k.@.D.-.G ~ ~ ~ ~ [ [ [ [ [  .[ [ [ [ [ [ [ [ [ [ [ [ Z..X.X.X.X.X.X.X.X.X.X.X.X.X.X.X.X",
".X.X.X.X.X.X.X_ @.X.o.k.k.k.k.k.k.k.k.k.x.j.D.-.G ~ J J ~ ~ ~ [ [ [  .[ [ [ [ [ [ [ [ [ [ [  .P..X.X.X.X.X.X.X.X.X.X.X.X.X.X.X.X",
".X.X.X.X.X.X.X` $...X.j.k.k.k.k.k.j.x.k.j.j.D.-.J ! ! ~ J ! [ [ [ [ [ [ [ [ [ [  .[ [ [ [ [  .P..X.X.X.X.X.X.X.X.X.X.X.X.X.X.X.X",
".X.X.X.X.X.X.X` $...o.k.k.k.k.k.j.k.j.j.k.j.C.-.J J ! J ~ J [ [  .U [ [ [ [ [ [ [ [ [ [ [ [  .P..X.X.X.X.X.X.X.X.X.X.X.X.X.X.X.X",
".X.X.X.X.X.X.X_ @.....k.j.j.j.k.j.j.j.k.j.j.C.=.Z ! J ! J ~ ~ [ [ [ [ [  .[ [  .[ [ [ [ [ [  .P..X.X.X.X.X.X.X.X.X.X.X.X.X.X.X.X",
".X.X.X.X.X.X.X_ @...o.j.j.j.j.j.j.j.j.j.j.j.C.=.Z F F ! J J [ [  .[ [ [ [ [ [ [ [ [ [ [ [ [  .N..X.X.X.X.X.X.X.X.X.X.X.X.X.X.X.X",
".X.X.X.X.X.X.X_ @.....j.k.j.j.j.j.j.j.j.j.+.C.=.Z J J F J F ~ [ [ [  .[ [ [ [ [ [  .[ [ [ [  .B..X.X.X.X.X.X.X.X.X.X.X.X.X.X.X.X",
".X.X.X.X.X.X.X_ @.{ ..j.j.j.j.j.j.h.j.j.j.o.C.=.Z E F F E J ~ [ [ [ U  .[  .[ [ [ [ [  .[ [  .B..X.X.X.X.X.X.X.X.X.X.X.X.X.X.X.X",
".X.X.X.X.X.X.X` @.( ..j.h.j.j.j.h.j.j.j.j.o.C.=.n S S S F F ~ [ [ [ [ [ [ [ [  .[ [ [ [ [ [  .B..X.X.X.X.X.X.X.X.X.X.X.X.X.X.X.X",
".X.X.X.X.X.X.X) @.{ { j.j.h.j.h.j.j.j.h.h.h.C.=.n S S S Z S ! [ [ [  .[ [ [ [ [ [ [ [ [ [ [  .B..X.X.X.X.X.X.X.X.X.X.X.X.X.X.X.X",
".X.X.X.X.X.X.X` @.{ { h.j.h.h.j.h.h.j.h.h.o.N.&.n T S S S S ! [ [ [ [ [ [ [ [ [ [ [ [ [ [ [  .B..X.X.X.X.X.X.X.X.X.X.X.X.X.X.X.X",
".X.X.X.X.X.X.X` @.( ( j.j.h.h.h.j.h.h.h.h.h.N.&.n A A A S S ! [ [ [ [ [ [ [  .[ [ [ [ [ [ [  .B..X.X.X.X.X.X.X.X.X.X.X.X.X.X.X.X",
".X.X.X.X.X.X.X` @.( ( h.h.h.h.h.h.h.h.h.h.o.N.&.n S n A Z m ! [ [ [ [ [ [ [ [ [ [ [ [ [  .[  .B..X.X.X.X.X.X.X.X.X.X.X.X.X.X.X.X",
".X.X.X.X.X.X.X) @.{ ( h.h.h.h.h.h.h.h.h.h.| N.&.n n m n Y A ! ~ ~ [ ~ [ [ [ [ [ [ [ [ [ [ [  .B..X.X.X.X.X.X.X.X.X.X.X.X.X.X.X.X",
".X.X.X.X.X.X.X) O.I ( h.h.h.h.h.h.w.| h.h.| m.&.d m m n m n F [ [ [ [ [ [ [ [ [ [ [ [ [ [ [  .s..X.X.X.X.X.X.X.X.X.X.X.X.X.X.X.X",
".X.X.X.X.X.X.X) O.( ( h.h.h.h.8.w.h.w.h.h.o.m.z s m m n n m J [ ~ [ [ [ [ [ [ [ [ [ [ [ [ [  .s..X.X.X.X.X.X.X.X.X.X.X.X.X.X.X.X",
".X.X.X.X.X.X.X) O.( ( o.8.h.8.h.h.8.' h.8.' m.&.q n d m m m S ~ ~ ~ ] [ U [ { U [ [ [ [ [ [  .s..X.X.X.X.X.X.X.X.X.X.X.X.X.X.X.X",
".X.X.X.X.X.X.X) X./ / h.w.w.w.w.w.w.w.w.| ' m.b q j d j j d E [ ! [ [ ~ [ [ ~ [ ~ [ [ [ [ [  .s..X.X.X.X.X.X.X.X.X.X.X.X.X.X.X.X",
".X.X.X.X.X.X.X) O./ / 8.| w.w.w.8.| 8.w.| ' m.z q s s s d s S ~ ! ~ ~ ~ ~ [ ~ ~ [ [ ! [ [ !  .s..X.X.X.X.X.X.X.X.X.X.X.X.X.X.X.X",
".X.X.X.X.X.X.X) o.I / h.w.w.8.w.' w.w.' w.' m.z 0 s s g s s S ~ ! [ ! ~ ! [ } ~ [ ~ ! [ [ [ [ y..X.X.X.X.X.X.X.X.X.X.X.X.X.X.X.X",
".X.X.X.X.X.X.XW O.I / ' w.8.| w.w.' | ' | ' l.z 0 a a s s a m ~ ! ! ! ] ! ! [ ! ~ ! [ [ ! ! [ y..X.X.X.X.X.X.X.X.X.X.X.X.X.X.X.X",
".X.X.X.X.X.X.X) { / / | w.' w.' ' w.' ' ' _ l.b 9 a a a a a S ~ ! ! ! ! ~ [ ! ! ~ ! ] ~ ~ ~ [ g..X.X.X.X.X.X.X.X.X.X.X.X.X.X.X.X",
".X.X.X.X.X.X.X) ..^ ^ ' | | ' ' ' ' | ' 8._ m.x 9 a r a a a m ! ! ! ! ! ! ! [ ! ~ ~ ~ ~ ~ [ ~ g.*..X.X.X.X.X.X.X.X.X.X.X.X.X.X.X",
".X.X.X.X.X.X.X) O.^ / w.' 7.' ' ' ' ' ' ' h.,.w r r r a a r m ! Q ! ! ! ! ! ! ! } ~ ! ! ~ ! ~ } I.s.<.7 .X.X.X.X.X.X.X.X.X.X.X.X",
".X.X.X.X.X.X.XW { D ^ ' ' ' ' ' ' ' _ ' q.z 1 9 r r r r r r E E E E ! ! E ! ! ! ! ! ! ! ! ! ~ G M K z.B..X.X.X.X.X.X.X.X.X.X.X.X",
".X.X.X.X.X.X.X) { P ^ | ' ' ' _ _ ' _ | a.> 9 w w r r r r g F F E E ! E ! ! ! ! ! ! ! ! ! ! ! ).~.d.[ 0..X.X.X.X.X.X.X.X.X.X.X.X",
".X.X.X.X.X.X.XW { D ^ ' _ ' ' ' _ _ _ ' a.1 w 8 9 w 8 r n E Y E E E E E E E m ! ! ! ! E ! ! E  X|.|.g.7..X.X.X.X.X.X.X.X.X.X.X.X",
".X.X.X.X.X.X.XW { D D ' ' ' _ _ _ ' _ 7.4.1 8 8 8 8 8 j T T T E T E E E ! E E ! ~ 3.E E E ! ~ ].{.|.g.0..X.X.X.X.X.X.X.X.X.X.X.X",
".X.X.X.X.X.X.XW { D ^ _ _ _ _ _ _ _ ) ' t.> 8 2 8 8 8 m Y Y Y T T T T T ! m E E m m E E E E E ].{.|.g.7..X.X.X.X.X.X.X.X.X.X.X.X",
".X.X.X.X.X.X.X) { D D _ _ _ _ _ ) _ ) ' 9.< 2 1 8 1 w m m Y S Y m E T T T T m ! ~ m m ~ ! m ~ ].{.|.g.7..X.X.X.X.X.X.X.X.X.X.X.X",
".X.X.X.X.X.X.XR ] D D _ _ _ _ ) _ _ ) _ ,., 1 1 1 1 8 m S Y m Y T m T T T T E E m ! 3.m m ! m ].{.|.d.6..X.X.X.X.X.X.X.X.X.X.X.X",
".X.X.X.X.X.X.X) ( D D _ _ _ ) _ ) ) W _ 9., < 1 1 > 2 m v m m Y m T T T m T T m ! ! m ! ! m !  X{.|.d.6..X.X.X.X.X.X.X.X.X.X.X.X",
".X.X.X.X.X.X.XV ] A D _ _ ) ) ) ) Q ) ) 9.; < < < 1 1 v m m m Y m m m m Y m m Q m m ! m m ! m  X{.|.d.6..X.X.X.X.X.X.X.X.X.X.X.X",
".X.X.X.X.X.X.XR ( D D ) ) ) ) W Q ) W ) 9.; , , , , 1 j v m m m m m Y m m Y Y m m Y Y m A Y S '.{.|.i.6..X.X.X.X.X.X.X.X.X.X.X.X",
".X.X.X.X.X.X.XR / A D ) W ) W ) W W W ) 4.- : : : , , j j j j v v m m m m m m Y m Y m Y m Y A '.[.|.i.2..X.X.X.X.X.X.X.X.X.X.X.X",
".X.X.X.X.X.X.XR / D A ) ) W ) W W W W W 9.= ; ; ; : , j j j j j v v v m m m m m m Y m m Y m A  X}.|.i.W .X.X.X.X.X.X.X.X.X.X.X.X",
".X.X.X.X.X.X.XV ^ A D ) W ) W W W W W 2.4.= - ; ; ; : h g h j j j m j m v v v j v m m m m m m G.(.`.t.2..X.X.X.X.X.X.X.X.X.X.X.X",
".X.X.X.X.X.X.XN ] A D ) ) W W W W R R W 4.= = - = - ; f h h h g g g v j j j j j v j v m j j v + O $ i 0..X.X.X.X.X.X.X.X.X.X.X.X",
".X.X.X.X.X.X.X.Xe R D W W W R W R R R W ;.- - - = = ; u f f g h g j h j j g j j v m j j j j j 5 % # i 5..X.X.X.X.X.X.X.X.X.X.X.X",
".X.X.X.X.X.X.X.X.X2 E ) R W W R R R R W ;.* * ; ; ; - y f f f f f f h h h h j g g v g j j j h 4 # # i 5..X.X.X.X.X.X.X.X.X.X.X.X",
".X.X.X.X.X.X.X.X.X.X1 ] W R W R R R B W 9..X.X  X o = f v h f u f f f f h h h h h h g g j g h 4 $ @ i 5..X.X.X.X.X.X.X.X.X.X.X.X",
".X.X.X.X.X.X.X.X.X.X.X2 ) ) R R R B B W t..X.X.X.X.X.X.X3 e u v v f f f f f f f f f f f f f f f p 7 f 4..X.X.X.X.X.X.X.X.X.X.X.X",
".X.X.X.X.X.X.X.X.X.X.X.X< W W B R B B R 9..X.X.X.X.X.X.X.X.X.X3 6 w h v c f f f f f f f f f f f g g h 9..X.X.X.X.X.X.X.X.X.X.X.X",
".X.X.X.X.X.X.X.X.X.X.X.X.X, W W B R v R 9..X.X.X.X.X.X.X.X.X.X.X.X.X.X3 w e h v h f u f f f y f h h j l .X.X.X.X.X.X.X.X.X.X.X.X",
".X.X.X.X.X.X.X.X.X.X.X.X.X.X.XB R R v R 9..X.X.X.X.X.X.X.X.X.X.X.X.X.X.X.X.X.X3 w u v v f u h l o o . .X.X.X.X.X.X.X.X.X.X.X.X.X",
".X.X.X.X.X.X.X.X.X.X.X.X.X.X.X.Xv R B R 9..X.X.X.X.X.X.X.X.X.X.X.X.X.X.X.X.X.X.X.X.X< 6 w f Q x .X.X.X.X.X.X.X.X.X.X.X.X.X.X.X.X",
".X.X.X.X.X.X.X.X.X.X.X.X.X.X.X.X.Xc B B 4..X.X.X.X.X.X.X.X.X.X.X.X.X.X.X.X.X.X.X.X.X.X.X.X.X3 .X.X.X.X.X.X.X.X.X.X.X.X.X.X.X.X.X",
".X.X.X.X.X.X.X.X.X.X.X.X.X.X.X.X.X.Xr 7.=..X.X.X.X.X.X.X.X.X.X.X.X.X.X.X.X.X.X.X.X.X.X.X.X.X.X.X.X.X.X.X.X.X.X.X.X.X.X.X.X.X.X.X",
".X.X.X.X.X.X.X.X.X.X.X.X.X.X.X.X.X.X.Xl t .X.X.X.X.X.X.X.X.X.X.X.X.X.X.X.X.X.X.X.X.X.X.X.X.X.X.X.X.X.X.X.X.X.X.X.X.X.X.X.X.X.X.X"
};
