/* XPM */
static const char *folder_16x16_xpm[] = {
/* columns rows colors chars-per-pixel */
"16 16 128 2 ",
"   c #927B43",
".  c #6DBF6D",
"X  c #9F8649",
"o  c #A98F4D",
"O  c #A89056",
"+  c #AF9657",
"@  c #BB9E56",
"#  c #B19759",
"$  c #B59A59",
"%  c #BDA057",
"&  c #BFA257",
"*  c #BDA261",
"=  c #C1A358",
"-  c #C3A559",
";  c #C5A75A",
":  c #C0A35D",
">  c #C5A75C",
",  c #C7A85B",
"<  c #C9AA5C",
"1  c #CBAB5D",
"2  c #CBAC5D",
"3  c #CBAC5E",
"4  c #CCAD5F",
"5  c #CDAE5E",
"6  c #CDAF5F",
"7  c #CFAF5F",
"8  c #CCAC62",
"9  c #CCAD65",
"0  c #CDAF67",
"q  c #C0BC6D",
"w  c #D1B160",
"e  c #D3B361",
"r  c #D0B362",
"t  c #D0B462",
"y  c #D3B367",
"u  c #D1B464",
"i  c #D1B564",
"p  c #D2B664",
"a  c #D2B665",
"s  c #D2B765",
"d  c #D7B565",
"f  c #D6B767",
"g  c #D3B865",
"h  c #D4B966",
"j  c #D5BA66",
"k  c #D5BB67",
"l  c #D6BC67",
"z  c #D6BD67",
"x  c #D0B56A",
"c  c #D2B46B",
"v  c #D7BC6C",
"b  c #DBBA6D",
"n  c #DBBB6D",
"m  c #DABE6F",
"M  c #E0BC69",
"N  c #E1BE6C",
"B  c #E6C16C",
"V  c #E4C16F",
"C  c #E5C26F",
"Z  c #E8C36C",
"A  c #EEC76F",
"S  c #F0C86E",
"D  c #E0CA70",
"F  c #E1CA73",
"G  c #E1C976",
"H  c #E2CA76",
"J  c #EDC871",
"K  c #E0C77C",
"L  c #E4CD78",
"P  c #E5CF79",
"I  c #F4CC70",
"U  c #F6CD71",
"Y  c #F4CD73",
"T  c #F8CF72",
"R  c #E5D077",
"E  c #E7D17A",
"W  c #E7D27A",
"Q  c #E8D37B",
"!  c #E9D57C",
"~  c #EAD77C",
"^  c #ECD97D",
"/  c #ECDA7E",
"(  c #EDDB7E",
")  c #EEDC7F",
"_  c #EEDD7F",
"`  c #FAD174",
"'  c #FCD274",
"]  c #FDD475",
"[  c #FED475",
"{  c #FFD575",
"}  c #F5D07B",
"|  c #F0E07D",
" . c #E8CE8E",
".. c #EFDE80",
"X. c #F0DF80",
"o. c #E4D594",
"O. c #EBD193",
"+. c #F2D695",
"@. c #F0E080",
"#. c #F1E181",
"$. c #F2E281",
"%. c #F2E382",
"&. c #F3E482",
"*. c #F4E781",
"=. c #F4E583",
"-. c #F4E683",
";. c #F5E683",
":. c #F5E784",
">. c #F6E984",
",. c #F7E985",
"<. c #F7EA85",
"1. c #F8EB85",
"2. c #F9EC86",
"3. c #F9ED86",
"4. c #FAEE86",
"5. c #FBEF87",
"6. c #FBF087",
"7. c #FBF088",
"8. c #FCF188",
"9. c #FDF288",
"0. c #FDF289",
"q. c #FDF389",
"w. c #FFF58A",
"e. c #FFE79B",
"r. c #FCFAC5",
"t. c #FFFFCC",
"y. c white",
"u. c None",
/* pixels */
"6 t 1 7 f K K K K K m u.u.u.u.u.",
"z w.*.D r x o.t.t.t.r.e u.u.u.u.",
"l q.q.0.9.| < { { { e.w u.u.u.u.",
"l 8.7.6.5.5.< T ' { { 7 u.u.u.u.",
"k 4.3.3.2.2.< I T { { 5 u.u.u.u.",
"j 1.<.,.>.>.< S U { { 2 u.u.u.u.",
"h :.;.-.=.=.< Z I ] [ < u.u.u.u.",
"h &.%.$.#.#.< M A ` ` , u.u.u.u.",
"g @.X..._ _ < d B Y }  .; u.u.u.",
"s ) ( / R F < 8 N J +.y.- u.u.u.",
"p ^ ~ ! < > : y V C O.y.= u.u.u.",
"i ! Q E < $ # 0 b n q . & u.u.u.",
"u W P L < + O * c c c 9 % u.u.u.",
"< a H G < X   o @ @ @ u.u.u.u.u.",
"u.< 3 v 4 u.u.u.u.u.u.u.u.u.u.u.",
"u.u.u.< < u.u.u.u.u.u.u.u.u.u.u."
};
