/* XPM */
static const char *forward_32x32_xpm[] = {
/* columns rows colors chars-per-pixel */
"32 32 85 1 ",
"  c #006500",
". c #006C00",
"X c #007400",
"o c #007C00",
"O c #008300",
"+ c #008C00",
"@ c #009500",
"# c #039903",
"$ c #059417",
"% c #079619",
"& c #09971A",
"* c #0D991D",
"= c #109B1F",
"- c #139D22",
"; c #1A9F29",
": c #17A025",
"> c #19A127",
", c #1DA32A",
"< c #21A62D",
"1 c #24A82F",
"2 c #21A131",
"3 c #26AA31",
"4 c #2BAC35",
"5 c #2FAF38",
"6 c #30A73F",
"7 c #2FB038",
"8 c #33B23C",
"9 c #38B53F",
"0 c #3AAD47",
"q c #3DAD4A",
"w c #3AB741",
"e c #3DB943",
"r c #3FB04B",
"t c #43AD47",
"y c #42AE4D",
"u c #41BB46",
"i c #41B24D",
"p c #45BE49",
"a c #44AF52",
"s c #49AF57",
"d c #4CAE59",
"f c #51AE5D",
"g c #47B055",
"h c #4CB455",
"j c #4DB159",
"k c #51B656",
"l c #53B45B",
"z c #51BB5A",
"x c #55AD61",
"c c #55B261",
"v c #59BD62",
"b c #61B965",
"n c #62BF6B",
"m c #66BF71",
"M c #6ABF74",
"N c #71BD7B",
"B c #4AC14E",
"V c #4EC451",
"C c #52C654",
"Z c #56C957",
"A c #5BCC5B",
"S c #65C26E",
"D c #67C171",
"F c #6BC472",
"G c #6FC875",
"H c #71CA76",
"J c #7BC57E",
"K c #74CB79",
"L c #79CF7D",
"P c #77BC80",
"I c #7DC681",
"U c #7ED180",
"Y c #83C78C",
"T c #86CB8F",
"R c #82D584",
"E c #87D888",
"W c #8BDB8B",
"Q c #90DE8F",
"! c #8ACD92",
"~ c #93CB9B",
"^ c #8ED195",
"/ c #92DF91",
"( c #95E193",
") c #A9D4AF",
"_ c None",
/* pixels */
"________________________________",
"________________________________",
"_________________@#_____________",
"_________________@G#____________",
"_________________#)I#___________",
"_________________#!~Y#__________",
"_________________#Yc~I#_________",
"_________________#Fjx~I#________",
"__oOO+O+++@@@@@@#@csjf~N#_______",
"__o^^^^^^^!!^!^TTTj0sdf~Y#______",
"__on,,>>>>--=***&%$2assf~J#_____",
"__XD<<<<,,>>:--***$-aaadl~J#____",
"__XF3311<<,,>>--**%%0qaasf~J#___",
"__XG444433<<,,>::=**0yqaadf~Y#__",
"__XH88444433<,,>:-=*2qyaaadf~J#_",
"__.L9998844431<,::-=20qyaadff~Y#",
"__.Leew99884441<,,:=;qqqyajsxPb@",
"__.Uppuue998443<,,::>qqqyaajNl@_",
"__.RBpppuee988443,,:,qqqqagFz@__",
"__.ECCVBBBu998843<,,>0rqaaMh@___",
"__.WAACVBBBue98443<,>rrriDk@____",
"__ /AAAZBBBBue98443,,rrrDk@_____",
"__ ////WWERLULKKGFF<3riSh@______",
"__   ...XXoooooO+OF<3gFh@_______",
"_________________OF34Fh@________",
"_________________OG3vk@_________",
"_________________OGztO__________",
"_________________OGtO___________",
"_________________oiO____________",
"_________________oo_____________",
"________________________________",
"________________________________"
};
