/* XPM */
static const char *gammasoft_32x32_xpm[] = {
/* columns rows colors chars-per-pixel */
"32 32 247 2 ",
"   c black",
".  c #04050B",
"X  c #001029",
"o  c #00112B",
"O  c #0B182F",
"+  c #0D1A2F",
"@  c #1E1F27",
"#  c #171C2A",
"$  c #000030",
"%  c #000031",
"&  c #001130",
"*  c #001430",
"=  c #00173B",
"-  c #001A3B",
";  c #001B3B",
":  c #001A3C",
">  c #001B3D",
",  c #001B3E",
"<  c #001C3D",
"1  c #001C3E",
"2  c #011C3E",
"3  c #001C3F",
"4  c #323337",
"5  c gray24",
"6  c #3E3E3D",
"7  c #3E3E3E",
"8  c #000056",
"9  c #000059",
"0  c #00005A",
"q  c #002048",
"w  c #082348",
"e  c #032C5B",
"r  c #0E2E5A",
"t  c #1B325A",
"y  c #1B335B",
"u  c #1C335A",
"i  c #1D335A",
"p  c #1F345A",
"a  c #1F365F",
"s  c #203355",
"d  c #2D3850",
"f  c #283A5E",
"g  c #000062",
"h  c #000063",
"j  c #000064",
"k  c #000065",
"l  c #000066",
"z  c #000067",
"x  c #000068",
"c  c #000069",
"v  c #00246B",
"b  c #00256C",
"n  c #00366E",
"m  c #183868",
"M  c #193B6E",
"N  c #00227A",
"B  c #002979",
"V  c #003377",
"C  c #00377C",
"Z  c #003B7A",
"A  c #063E7B",
"S  c #00387C",
"D  c #00387D",
"F  c #00397E",
"G  c #00397F",
"H  c #043E7C",
"J  c #153E76",
"K  c #2E3F62",
"L  c #293E66",
"P  c #3D4559",
"I  c #00407F",
"U  c #05407F",
"Y  c #1F4072",
"T  c #344467",
"R  c gray26",
"E  c #444855",
"W  c #454955",
"Q  c #464A55",
"!  c #424859",
"~  c #41485A",
"^  c #464A58",
"/  c #535353",
"(  c gray34",
")  c #74726A",
"_  c #77756E",
"`  c #757471",
"'  c #767572",
"]  c #767673",
"[  c #757574",
"{  c gray46",
"}  c #767675",
"|  c #7B7A75",
" . c #7A7976",
".. c #7B7976",
"X. c #7B7A76",
"o. c #787879",
"O. c #7A7978",
"+. c #7C7B78",
"@. c #7C7C7C",
"#. c gray50",
"$. c #003980",
"%. c #003A81",
"&. c #003C80",
"*. c #003D80",
"=. c #003C81",
"-. c #003C83",
";. c #003E82",
":. c #003F83",
">. c #004080",
",. c #004081",
"<. c #004181",
"1. c #034180",
"2. c #034181",
"3. c #004082",
"4. c #004182",
"5. c #004083",
"6. c #004183",
"7. c #024182",
"8. c #004283",
"9. c #054181",
"0. c #064180",
"q. c #074181",
"w. c #064282",
"e. c #064383",
"r. c #004284",
"t. c #054385",
"y. c #084180",
"u. c #084281",
"i. c #094281",
"p. c #0A4281",
"a. c #084282",
"s. c #094282",
"d. c #084383",
"f. c #084384",
"g. c #094384",
"h. c #0E4585",
"j. c #214984",
"k. c #214985",
"l. c #234A84",
"z. c #224A85",
"x. c #234B87",
"c. c #244B87",
"v. c #274C87",
"b. c #214B88",
"n. c #234C89",
"m. c #234C8A",
"M. c #244C88",
"N. c #244C8A",
"B. c #5E6B8C",
"V. c #5F6C8D",
"C. c #807F80",
"Z. c #78819A",
"A. c #808080",
"S. c #808081",
"D. c #808181",
"F. c #818181",
"G. c #828180",
"H. c #828280",
"J. c #838381",
"K. c #818182",
"L. c gray51",
"P. c #838383",
"I. c #848380",
"U. c #848383",
"Y. c #848483",
"T. c #838384",
"R. c #848484",
"E. c #868684",
"W. c #909090",
"Q. c #9F9FA1",
"!. c #9FA0A1",
"~. c #A1A1A3",
"^. c #A1A2A3",
"/. c #A5A5A5",
"(. c #A4A5A6",
"). c gray65",
"_. c #A7A7A7",
"`. c #A9A9A9",
"'. c #A8A9AB",
"]. c #A9A9AB",
"[. c #A9AAAC",
"{. c #AAAAAC",
"}. c #AAAAAD",
"|. c #AAABAD",
" X c #ABABAE",
".X c #A4A8B3",
"XX c #AEAEB0",
"oX c #B1B1B3",
"OX c #B1B2B3",
"+X c #B2B2B2",
"@X c #B2B2B3",
"#X c #B3B3B4",
"$X c #B3B4B5",
"%X c #B4B4B4",
"&X c #B7B7B8",
"*X c #BBBBBB",
"=X c #BCBCBC",
"-X c #B7BAC4",
";X c gray77",
":X c #C5C5C5",
">X c #C6C8CF",
",X c #CBCACA",
"<X c #CBCBCB",
"1X c #CCCCCD",
"2X c #CECECE",
"3X c gray81",
"4X c LightGray",
"5X c gray84",
"6X c #D7D7D7",
"7X c gray85",
"8X c gray86",
"9X c #D8D9DC",
"0X c #DDDDDD",
"qX c gray87",
"wX c #DFDFDE",
"eX c #DFDFDF",
"rX c #E1E1E1",
"tX c #E2E2E2",
"yX c gray89",
"uX c #E4E4E4",
"iX c #E9E9E9",
"pX c #EAEAEA",
"aX c #EBEBEA",
"sX c #ECECEC",
"dX c gray93",
"fX c #EEEEEE",
"gX c #EFEFEF",
"hX c gray94",
"jX c #F1F1F1",
"kX c gray95",
"lX c #F3F3F3",
"zX c #F4F3F3",
"xX c gray96",
"cX c #F6F6F6",
"vX c #F6F7F7",
"bX c gray97",
"nX c #F8F7F7",
"mX c #F8F8F8",
"MX c #F9F9F9",
"NX c gray98",
"BX c #FBFBFB",
"VX c #FDFCFB",
"CX c gray99",
"ZX c #FDFDFD",
"AX c #FEFEFE",
"SX c white",
"DX c None",
/* pixels */
"DXDXDXDXDXDXDXDXDXDXDXDXDXDXDXDXDXDXDXDXDXDXDXDXDXDXDXDXDXDXDXDX",
"DXDXDXDXDXDXDXDXDXDXDXDXDXDXDXDXDXDXDXDXDXDXDXDXDXDXDXDXDXDXDXDX",
"DXDXDXo 3 > > > , , > 2 = @ 6 5 5 5 5 5 5 5 7 R 6 # & DXDXDXDXDX",
"DXDXo ,.r.6.r.r.r.r.8.g.$.^ E.P.P.P.P.P.P.R.L.@.I.P -.w DXDXDXDX",
"DXDX3 r.4.,.,.,.,.,.,.s.D W J.S.F.F.F.F.A.P.} . ] ~ %.a.q DXDXDX",
"DXDX> 6.,.>.>.>.>.>.>.i.S E H.#.A.A.A.A.#.L.{   ' ~ F d.6.* DXDX",
"DXDX> r.,.>.>.>.>.>.>.i.D E G.#.#.#.#.#.#.L.[   ` ~ G q.6.1 DXDX",
"DXDX> r.,.>.>.>.>.>.>.p.C Q Y.S.K.K.K.K.D.T.o.4 O.! F u.6.> DXDX",
"DXDX> r.,.>.>.>.>.>.>.U *.d _ +...X.| | X.X. .+.) s 3.1.r.> DXDX",
"DXDX> r.,.>.>.>.>.>.>.>.t.A r p t f K a y i u p e Z 2.,.r.> DXDX",
"DXDX> r.,.>.>.>.I I >.H m v f.6.h.N 0 n 4.5.5.:.r.2.I <.8.> DXDX",
"DXDX> r.,.y.k.z.z.z.x.Y b V.V 7.B Z..XM J v.l.l.l.j.0.,.r.> DXDX",
"DXDX> 6.w.&.x k k k x 9 -XSX9Xz B.VXSX>X8 x k k j c *.9.6.> DXDX",
"DXDX> f.=.T ^.|.'.'.}.~.nXSXSX&X1XSXZXmX(.[.].'.|.Q.L ;.e.> DXDX",
"DXDX> n.k `.SXSXSXSXSXmXvXW.5XbXjX/.=XSXcXSXSXSXSXSX!.c b.; DXDX",
"DXDX- N.g $XSXBXZXZXSXlXzX_.%XbX7XW.6XNXfXSXZXZXBXSX Xk n.; DXDX",
"DXDX; m.g oXSXZXSXSXSXAXaXgXgXfXhX8XBXiXZXSXSXSXZXSX'.l n.; DXDX",
"DXDX- N.g @XSXZXSXSXAXSXSXfXdXmXSXcXpXMXSXAXSXSXZXSX].l n.; DXDX",
"DXDX- m.g @XSXZXSXSXSXNXeXmXSXSXZXSXSXtXjXSXSXSXZXSX[.l n.; DXDX",
"DXDX; m.g @XSXZXSXSXSXBX,X2XCXSXSXSXpX).CXSXSXSXZXSX].l n.; DXDX",
"DXDX; m.g @XSXZXSXSXAXSXkXeX8XrXpX0X*X:XSXZXSXSXZXSX].k n.; DXDX",
"DXDX- m.g @XSXZXSXSXSXSXNXqXSXsXyXbX<XiXSXAXSXSXZXSX].l n.; DXDX",
"DXDX; m.g @XSXZXSXSXSXAXSXwXjXSXSXNX+XSXAXSXSXSXZXSX].l n.; DXDX",
"DXDX- m.g @XSXZXSXSXSXSXSXBX3XcXCX_.uXSXAXSXSXSXZXSX].l n.; DXDX",
"DXDX; m.g @XSXZXSXSXSXSXAXSXxX;X/.4XSXZXSXSXSXSXZXSX].l n.; DXDX",
"DXDX; m.g @XSXZXSXSXSXSXSXAXSXSXSXSXAXSXSXSXSXSXZXSX].l n.; DXDX",
"DXDX: n.g OXSXZXSXSXSXSXSXSXAXAXSXZXSXSXSXSXSXSXZXSX].l n.: DXDX",
"DXDX< m.h #XSXAXSXSXSXSXSXSXSXSXSXSXSXSXSXSXSXSXAXSX{.z n.< DXDX",
"DXDXX M.l &XSXSXSXSXSXSXSXSXSXSXSXSXSXSXSXSXSXSXSXSXXXc c.X DXDX",
"DXDXDX+ $ ( U.#.#.#.C.#.A.#.A.A.#.#.#.A.#.#.A.#.#.P./ % O DXDXDX",
"DXDXDXDXDXDXDXDXDXDXDXDXDXDXDXDXDXDXDXDXDXDXDXDXDXDXDXDXDXDXDXDX",
"DXDXDXDXDXDXDXDXDXDXDXDXDXDXDXDXDXDXDXDXDXDXDXDXDXDXDXDXDXDXDXDX"
};
