/* XPM */
static const char *hard_disk_48x48_xpm[] = {
/* columns rows colors chars-per-pixel */
"48 48 114 2 ",
"   c #37383E",
".  c #525563",
"X  c #51556C",
"o  c #575C74",
"O  c #6C6C6D",
"+  c #6C6D74",
"@  c #696C7A",
"#  c #6F7073",
"$  c #6E707D",
"%  c gray45",
"&  c #73747C",
"*  c gray48",
"=  c #00C300",
"-  c #1AD41A",
";  c #00F000",
":  c #1FEE1F",
">  c #25DE25",
",  c #3CEE3D",
"<  c #379F44",
"1  c #62BE68",
"2  c #6FB57C",
"3  c #6A6E87",
"4  c #6C728F",
"5  c #737687",
"6  c #777A89",
"7  c #7D7F8A",
"8  c #6D7291",
"9  c #717693",
"0  c #757A94",
"q  c #7A7E95",
"w  c #767C98",
"e  c #797F9A",
"r  c #7E8297",
"t  c #7D829D",
"y  c gray52",
"u  c #81828A",
"i  c #898989",
"p  c #808495",
"a  c #868997",
"s  c #8A8C95",
"d  c #81859B",
"f  c #85889A",
"g  c #8A8D9B",
"h  c #939394",
"j  c #9B9B9B",
"k  c #8086A0",
"l  c #858AA3",
"z  c #898DA6",
"x  c #8D92A9",
"c  c #9B9CA5",
"v  c #9195AC",
"b  c #9599AA",
"n  c #969BB0",
"m  c #989CB1",
"M  c #9EA2B6",
"N  c #A5A5A5",
"B  c #A1A2A8",
"V  c #ABABAC",
"C  c #A5A7B3",
"Z  c #A6A9B7",
"A  c #A9ABB5",
"S  c #A3A7BA",
"D  c #A5A9BB",
"F  c #ABADBB",
"G  c #ADB0BB",
"H  c #B5B5B5",
"J  c #B3B5BE",
"K  c #B9B9BA",
"L  c #99CDA1",
"P  c #A9D9AE",
"I  c #ABAFC0",
"U  c #B3B6C3",
"Y  c #B6B8C1",
"T  c #BABBC3",
"R  c #BCBDCB",
"E  c #BEC0C7",
"W  c #C4C4C3",
"Q  c #C4C4CB",
"!  c #C7C9CE",
"~  c #CBCBCD",
"^  c #CAD6CD",
"/  c #C2C4D1",
"(  c #C7C9D0",
")  c #CDCDD3",
"_  c #CECFD9",
"`  c #D0CFD5",
"'  c #CFD1D3",
"]  c #CFD1D9",
"[  c #D1D2D5",
"{  c #D3D4DB",
"}  c #D8D7DD",
"|  c #D6D8DC",
" . c #DCDCDD",
".. c #C4E1C6",
"X. c #CED1E4",
"o. c #D7D7E1",
"O. c #D6D8E0",
"+. c #DCDCE3",
"@. c #DFDFE8",
"#. c #E1DFE6",
"$. c #DFE0E4",
"%. c #E2E2E5",
"&. c #E4E4EA",
"*. c #E8E7EE",
"=. c #E7E8EC",
"-. c #EBEBEE",
";. c #EDECF2",
":. c #F0EFF6",
">. c #EFF0F2",
",. c #F2F2F4",
"<. c #F6F4FB",
"1. c #F8F7FB",
"2. c #F9F8FB",
"3. c None",
/* pixels */
"3.3.3.3.3.3.3.3.3.3.3.3.3.3.3.3.3.3.3.3.3.3.3.3.3.3.3.3.3.3.3.3.3.3.3.3.3.3.3.3.3.3.3.3.3.3.3.3.",
"3.3.3.3.3.3.3.3.3.3.3.3.3.3.3.3.3.3.3.3.3.3.3.3.3.3.3.3.3.3.3.3.3.3.3.3.3.3.3.3.3.3.3.3.3.3.3.3.",
"3.3.3.3.3.3.3.3.3.3.3.3.3.3.3.3.3.3.3.3.3.3.3.3.3.3.3.3.3.3.3.3.3.3.3.3.3.3.3.3.3.3.3.3.3.3.3.3.",
"3.3.3.3.3.3.3.3.3.3.3.3.3.3.3.3.3.3.3.3.3.3.3.3.3.3.3.3.3.3.3.3.3.3.3.3.3.3.3.3.3.3.3.3.3.3.3.3.",
"3.3.3.3.3.3.3.3.3.3.3.3.3.3.3.3.3.3.3.3.3.3.3.3.3.3.3.3.3.3.3.3.3.3.3.3.3.3.3.3.3.3.3.3.3.3.3.3.",
"3.3.3.3.3.3.3.3.3.3.3.3.3.3.3.3.3.3.3.3.3.3.3.3.3.3.3.3.3.3.3.3.3.3.3.3.3.3.3.3.3.3.3.3.3.3.3.3.",
"3.3.3.3.3.3.3.3.3.3.3.3.3.3.3.3.3.3.3.3.3.3.3.3.3.3.3.3.3.3.3.3.3.3.3.3.3.3.3.3.3.3.3.3.3.3.3.3.",
"3.3.3.3.3.3.3.3.3.3.3.3.3.3.3.3.3.3.3.3.3.3.3.3.3.3.3.3.3.3.3.3.3.3.3.3.3.3.3.3.3.3.3.3.3.3.3.3.",
"3.3.3.3.3.3.3.3.3.3.3.3.3.3.3.3.3.3.3.3.3.3.3.3.3.3.3.3.3.3.3.3.3.3.3.3.3.3.3.3.3.3.3.3.3.3.3.3.",
"3.3.3.3.3.3.3.3.3.3.3.3.3.3.3.3.3.3.3.3.3.3.3.3.3.3.3.3.3.3.3.3.3.3.3.3.3.3.3.3.3.3.3.3.3.3.3.3.",
"3.3.3.3.3.3.3.3.3.3.3.3.3.3.3.3.3.3.3.3.3.3.3.3.3.3.3.3.3.3.3.3.3.3.3.3.3.3.3.3.3.3.3.3.3.3.3.3.",
"3.3.3.3.3.3.3.3.3.3.3.3.3.3.3.3.3.3.3.3.3.3.3.3.3.3.3.3.3.3.3.3.3.3.3.3.3.3.3.3.3.3.3.3.3.3.3.3.",
"3.3.3.3.3.3.3.3.3.3.3.3.3.3.3.3.3.3.3.3.3.3.3.3.3.3.3.3.3.3.3.3.3.3.3.3.3.3.3.3.3.3.3.3.3.3.3.3.",
"3.3.3.3.3.3.3.3.3.3.3.3.3.3.3.3.3.3.3.3.3.3.3.3.3.3.3.3.3.3.3.3.3.3.3.3.3.3.3.3.3.3.3.3.3.3.3.3.",
"3.3.3.3.3.3.3.3.3.3.3.3.3.3.3.3.3.3.3.3.3.3.3.3.3.3.3.3.3.3.3.3.3.3.3.3.3.3.3.3.3.3.3.3.3.3.3.3.",
"3.3.3.3.3.3.3.3.3.3.3.3.3.3.3.3.3.3.3.3.3.) ` ` ) 3.3.3.3.3.3.3.3.3.3.3.3.3.3.3.3.3.3.3.3.3.3.3.",
"3.3.3.3.3.3.3.3.3.3.3.3.3.3.3.3.3.3.` ) { &.&.&.#.&.o.} } ) ) ) ( ) 3.3.3.3.3.3.3.3.3.3.3.3.3.3.",
"3.3.3.3.3.3.3.3.3.3.3.3.3.3.3.3.` { #.:.1.c { <.<.<.<.<.<.<.:.;.*.+.{ _ Q E T 3.3.3.3.3.3.3.3.3.",
"3.3.3.3.3.3.3.3.3.3.3.3.3.` [ +.-.<.<.1.,.,.,.,.:.<.<.<.<.<.<.:.:.:.;.;.*.#.{ / Y C J 3.3.3.3.3.",
"3.3.3.3.3.3.3.3.3.3.` ) +.*.2.2.,.,.:.;.;.*.-.&.&.%.@.+.#.#.*.:.:.;.;.*.&.#.] c Q _ { o.3.3.3.3.",
"3.3.3.3.3.3.3.` ` } &.:.&.2.2.,.,.,.>.;.-.-.=.&.&.%.@.+.+.o.} } o.#.=.&.@.o.O._ { =.;./ q 3.3.3.",
"3.3.3.3.3.` { %.:.1.1.R +.2.<.,.,.,.,.;.-.-.=.&.&.%.#.@.+.o.o.} ] K @.o.o._ _ $.,.o.R x o 3.3.3.",
"3.3.` ` #.:.1.<.<.<.<.) Q %.-.,.,.,.,.;.;.-.-.=.&.%.%.%.+.o.{ ( K H o.] _ +.;.&./ S z e X 3.3.3.",
"~  .-.<.T B { <.<.<.<.<.%.%.<.<.;.&.&.%.&.&.%.$.+.} R R F A C H R { ] { ;.;._ I v k w 4 X 3.3.3.",
"W ,.>. .%.-.2.2.1.1.1.1.1.1.,.:.;.&.o.{ ( Y Z v z z l v D R _ { _ { =.;.O.I n l w 8 8 3 . 3.3.3.",
"W -.} c A F C J T ) $.;.1.1.<.<.<.<.<.,.;.;.*.=.&.=.&.#.+.o.] _ %.:.@.R M z e 8 8 4 0 @   3.3.3.",
"W -.[ A Q ! ~ ) ) W T J G Y ) @.,.<.<.,.;.;.-.-.Q ( o.o.{ _ +.;.-./ S x t 8 8 8 0 5 + 3.3.3.3.3.",
"W -.| A ! ! ~ ) ' ' ' [ [ [ Y U G Y Q @.1.;.-.%.T ( ] ] o.*.;._ I v t 0 8 8 0 q @ + 3.3.3.3.3.3.",
"W -.[ A Q ! ) ) ) ' ' [ [ ' J ] Y ) E E J $.-.,.;.o.{ &.;.o.U m l w 8 8 9 e 6 + 3.3.3.3.3.3.3.3.",
"W ,.| A Q ! ( ^ ' ' ' [ [ | J ] Y ] G | [  .%.%.%.,.;.@.R M z e 9 4 8 q p & + 3.3.3.3.3.3.3.3.3.",
"W -.%.Z Q ! ( ) ' ' ' [ [ [ J | J ' G | [  .| P %.%.&.D x e w 8 8 0 f 7 + 3.3.3.3.3.3.3.3.3.3.3.",
"3.~  .$. .` ~ ) ' ' ' ' ' | J ] Y ] G | [  .2 > , %.*.t w 8 8 9 r a & + 3.3.3.3.3.3.3.3.3.3.3.3.",
"3.3.3.W ~ [  .%. .^ [ [ [ [ K [ J [ G | [ E 1 - ; =.,.5 8 8 r g 7 + 3.3.3.3.3.3.3.3.3.3.3.3.3.3.",
"3.3.3.3.3.3.K H W [  .=. .| T ) J ] G | [  .< = : %.,.8 q a a & + 3.3.3.3.3.3.3.3.3.3.3.3.3.3.3.",
"3.3.3.3.3.3.3.3.3.V V N H ~  .%.| | W { [  .^ L .. .>.a g u # 3.3.3.3.3.3.3.3.3.3.3.3.3.3.3.3.3.",
"3.3.3.3.3.3.3.3.3.3.3.3.3.j j h N H ~  .>.-.%.%.$.$. .s & # 3.3.3.3.3.3.3.3.3.3.3.3.3.3.3.3.3.3.",
"3.3.3.3.3.3.3.3.3.3.3.3.3.3.3.3.3.3.i y i j K [ %.%.h O 3.3.3.3.3.3.3.3.3.3.3.3.3.3.3.3.3.3.3.3.",
"3.3.3.3.3.3.3.3.3.3.3.3.3.3.3.3.3.3.3.3.3.3.* % % O O 3.3.3.3.3.3.3.3.3.3.3.3.3.3.3.3.3.3.3.3.3.",
"3.3.3.3.3.3.3.3.3.3.3.3.3.3.3.3.3.3.3.3.3.3.3.3.3.3.3.3.3.3.3.3.3.3.3.3.3.3.3.3.3.3.3.3.3.3.3.3.",
"3.3.3.3.3.3.3.3.3.3.3.3.3.3.3.3.3.3.3.3.3.3.3.3.3.3.3.3.3.3.3.3.3.3.3.3.3.3.3.3.3.3.3.3.3.3.3.3.",
"3.3.3.3.3.3.3.3.3.3.3.3.3.3.3.3.3.3.3.3.3.3.3.3.3.3.3.3.3.3.3.3.3.3.3.3.3.3.3.3.3.3.3.3.3.3.3.3.",
"3.3.3.3.3.3.3.3.3.3.3.3.3.3.3.3.3.3.3.3.3.3.3.3.3.3.3.3.3.3.3.3.3.3.3.3.3.3.3.3.3.3.3.3.3.3.3.3.",
"3.3.3.3.3.3.3.3.3.3.3.3.3.3.3.3.3.3.3.3.3.3.3.3.3.3.3.3.3.3.3.3.3.3.3.3.3.3.3.3.3.3.3.3.3.3.3.3.",
"3.3.3.3.3.3.3.3.3.3.3.3.3.3.3.3.3.3.3.3.3.3.3.3.3.3.3.3.3.3.3.3.3.3.3.3.3.3.3.3.3.3.3.3.3.3.3.3.",
"3.3.3.3.3.3.3.3.3.3.3.3.3.3.3.3.3.3.3.3.3.3.3.3.3.3.3.3.3.3.3.3.3.3.3.3.3.3.3.3.3.3.3.3.3.3.3.3.",
"3.3.3.3.3.3.3.3.3.3.3.3.3.3.3.3.3.3.3.3.3.3.3.3.3.3.3.3.3.3.3.3.3.3.3.3.3.3.3.3.3.3.3.3.3.3.3.3.",
"3.3.3.3.3.3.3.3.3.3.3.3.3.3.3.3.3.3.3.3.3.3.3.3.3.3.3.3.3.3.3.3.3.3.3.3.3.3.3.3.3.3.3.3.3.3.3.3.",
"3.3.3.3.3.3.3.3.3.3.3.3.3.3.3.3.3.3.3.3.3.3.3.3.3.3.3.3.3.3.3.3.3.3.3.3.3.3.3.3.3.3.3.3.3.3.3.3."
};
