/* XPM */
static const char *hard_disk_16x16_xpm[] = {
/* columns rows colors chars-per-pixel */
"16 16 109 2 ",
"   c gray40",
".  c #676767",
"X  c #686868",
"o  c #6A6A6A",
"O  c gray42",
"+  c #6D6D6D",
"@  c gray44",
"#  c #747474",
"$  c gray47",
"%  c #7C7C7C",
"&  c gray49",
"*  c gray50",
"=  c #53B855",
"-  c #5FC060",
";  c #5FD260",
":  c #909090",
">  c #929295",
",  c #959596",
"<  c #9B9B9B",
"1  c #9497A6",
"2  c #A2A2A2",
"3  c gray64",
"4  c #A9A9A9",
"5  c gray67",
"6  c #AAACB8",
"7  c #ACAFBA",
"8  c #AFB1BC",
"9  c gray69",
"0  c #B2B2B6",
"q  c #B4B4B4",
"w  c #B6B6B7",
"e  c #B6B7B7",
"r  c #B7B7B7",
"t  c #B0B2BD",
"y  c #B1B3BD",
"u  c #B2B4BE",
"i  c #B2B4BF",
"p  c #B9B9BA",
"a  c #BCBCBD",
"s  c gray75",
"d  c #80DB81",
"f  c #BCBEC5",
"g  c #B6B8C9",
"h  c #C1C2C2",
"j  c #C0C1C7",
"k  c #C4C4C5",
"l  c #C5C5C5",
"z  c #C6C6C6",
"x  c #C1C3C9",
"c  c #C3C5CA",
"v  c #C7C7C8",
"b  c #C4C6CA",
"n  c #C4C6CB",
"m  c #C5C7CB",
"M  c #C0C0CC",
"N  c #C9C9CA",
"B  c #C8C9CB",
"V  c #CBCBCB",
"C  c #CACACC",
"Z  c #CBCBCC",
"A  c #CBCBCD",
"S  c #CBCCCD",
"D  c gray80",
"F  c gray81",
"G  c #C8D7CA",
"H  c #C3C4D3",
"J  c #D1D1D2",
"K  c #D2D2D3",
"L  c #D2D3D5",
"P  c #D6D7DF",
"I  c #D7D7DF",
"U  c #DEDDE0",
"Y  c #DDDCE5",
"T  c #DEDDE5",
"R  c #E2E1E4",
"E  c #E1E0E7",
"W  c #E5E5EB",
"Q  c #E5E4ED",
"!  c #E0F2E0",
"~  c #E3F7E3",
"^  c #E0F9E0",
"/  c #E3FBE3",
"(  c #EBEAF2",
")  c #F0EEF6",
"_  c #F1F0F5",
"`  c #F1F2F4",
"'  c #F3F4F5",
"]  c #F4F5F6",
"[  c #F5F5F6",
"{  c #F6F6F7",
"}  c #F6F7F7",
"|  c gray97",
" . c #F2F0F8",
".. c #F3F1F8",
"X. c #F4F3F8",
"o. c #F4F2F9",
"O. c #F5F3FA",
"+. c #F6F4FB",
"@. c #F6F6FA",
"#. c #F7F6FA",
"$. c #F7F5FC",
"%. c #F8F6FC",
"&. c #F8F7FC",
"*. c #FAFEFA",
"=. c #F9F8FC",
"-. c #FAF9FD",
";. c #FBF9FD",
":. c #FDFDFD",
">. c None",
/* pixels */
">.>.>.>.>.>.>.>.>.>.>.>.>.>.>.>.",
">.>.>.>.>.>.>.>.>.>.>.>.>.>.>.>.",
">.>.D D D D V z s r 9 4 2 < >.>.",
">.>.J $.$.$.$.+.O...) ( E , >.>.",
">.D R %.;.;.;.-.=.&.@.X.Q 0 * >.",
">.F o. .T #._ W P H g M Q I # >.",
"D U $.$.$.$.$.+.O...) ( Q Y > . ",
"Z B C A S Z N v k h s a p e q 3 ",
"K ' ] [ { } | | | | | | ! ~ *.: ",
"l ` 6 7 8 t y u u i i G - d / & ",
"w ` 1 f j x c b n m m L = ; ^ O ",
"5 :.] [ { } | | | | | | | | |   ",
"% $ # @ + o X .                 ",
">.>.>.>.>.>.>.>.>.>.>.>.>.>.>.>.",
">.>.>.>.>.>.>.>.>.>.>.>.>.>.>.>.",
">.>.>.>.>.>.>.>.>.>.>.>.>.>.>.>."
};
