/* XPM */
static const char *hard_disk_24x24_xpm[] = {
/* columns rows colors chars-per-pixel */
"24 24 149 2 ",
"   c #5E6171",
".  c #5F647C",
"X  c #696B73",
"o  c #6C6D73",
"O  c #686A76",
"+  c #6C6E76",
"@  c #6F727F",
"#  c #707177",
"$  c gray50",
"%  c #14C016",
"&  c #45D448",
"*  c #767880",
"=  c #71758A",
"-  c #7B7E8D",
";  c #6F7490",
":  c #6F7592",
">  c #717794",
",  c #747993",
"<  c #767B92",
"1  c #747996",
"2  c #797E9A",
"3  c gray51",
"4  c #868686",
"5  c #818597",
"6  c #8C8D93",
"7  c #80859F",
"8  c #9F9F9F",
"9  c #868BA4",
"0  c #8B8FA4",
"q  c #9195AC",
"w  c #9498AC",
"e  c #9DA1B5",
"r  c #ACACAC",
"t  c #A1A5B8",
"y  c #A5A8BA",
"u  c #A9ABB9",
"i  c #B7B7B7",
"p  c #B7B7BD",
"a  c gray75",
"s  c #ABAFC0",
"d  c #BABBC4",
"f  c #BBBDC4",
"g  c #BCBDC6",
"h  c #B7BBC9",
"j  c #BDBFCC",
"k  c #BEC0C6",
"l  c #BFC0CB",
"z  c #C0C1C1",
"x  c #C3C3C2",
"c  c #C0C0C6",
"v  c #C1C1C7",
"b  c #C6C6C6",
"n  c #C0CDC5",
"m  c #C1C2CA",
"M  c #C5C7CD",
"N  c #C7C8CD",
"B  c #C8C8C9",
"V  c #C2C5D7",
"C  c #C6C9D4",
"Z  c #CACBD0",
"A  c #CACCD0",
"S  c #CBCCD3",
"D  c #CECFD0",
"F  c #CCCCD2",
"G  c #CDCFD3",
"H  c #CECFD3",
"J  c #CCCCD5",
"K  c #CFCED4",
"L  c #CECED6",
"P  c #CCCDD9",
"I  c #CFD0D3",
"U  c #CED0D8",
"Y  c LightGray",
"T  c #D1D2D4",
"R  c #D2D2D5",
"E  c #D2D3D5",
"W  c #D2D1D7",
"Q  c #D2D2D6",
"!  c #D5D6D7",
"~  c #D0D1D9",
"^  c #D4D3D9",
"/  c #D5D4DA",
"(  c #D3D3DE",
")  c #D3D4DD",
"_  c #D3D5DE",
"`  c #D4D4DD",
"'  c #D4D5DD",
"]  c #D7D8DF",
"[  c #D9DADB",
"{  c #DAD8DF",
"}  c gray87",
"|  c #C0EEC1",
" . c #C2EFC2",
".. c #D9DAE0",
"X. c #DADBE3",
"o. c #DCDCE2",
"O. c #DCDCE3",
"+. c #DDDDE3",
"@. c #DEDCE3",
"#. c #DEDDE3",
"$. c #DCDBE4",
"%. c #DCDDE4",
"&. c #DEDEE4",
"*. c #DFDFE6",
"=. c #DFDFE7",
"-. c #E0DFE7",
";. c #DFE0E5",
":. c #DFE1E7",
">. c #E3E3E5",
",. c #E0E0E6",
"<. c #E2E0E7",
"1. c #E1E2E7",
"2. c #E2E2E7",
"3. c #E1E0E8",
"4. c #E4E3EB",
"5. c #E4E4E9",
"6. c #E5E4EA",
"7. c #E6E7EA",
"8. c #E6E6EB",
"9. c #E7E6ED",
"0. c #E8E6ED",
"q. c #E9E7EF",
"w. c #EAEAEA",
"e. c gray92",
"r. c #E8E8EC",
"t. c #EBEBED",
"y. c #E9E8EE",
"u. c #E9E8EF",
"i. c #EAE9EF",
"p. c #EAEAEE",
"a. c #ECEBEE",
"s. c #EDEDEF",
"d. c #ECECF0",
"f. c #EEEEF1",
"g. c #EDEDF2",
"h. c #EEEDF2",
"j. c #EEEEF2",
"k. c #EEECF4",
"l. c #F0F0F3",
"z. c #F2F2F4",
"x. c #F2F1F6",
"c. c #F4F4F6",
"v. c #F5F5F7",
"b. c #F5F3FA",
"n. c #F7F7F9",
"m. c #F7F6FB",
"M. c #F7F5FC",
"N. c #F7F8F9",
"B. c None",
/* pixels */
"B.B.B.B.B.B.B.B.B.B.B.B.B.B.B.B.B.B.B.B.B.B.B.B.",
"B.B.B.B.B.B.B.B.B.B.B.B.B.B.B.B.B.B.B.B.B.B.B.B.",
"B.B.B.B.B.B.B.B.B.B.B.B.B.B.B.B.B.B.B.B.B.B.B.B.",
"B.B.B.B.B.B.B.B.B.B.B.B.B.B.B.B.B.B.B.B.B.B.B.B.",
"B.B.B.B.B.B.B.B.B.B.B.B.B.B.B.B.B.B.B.B.B.B.B.B.",
"B.B.B.B.B.B.B.B.B.B.B.B.B.B.B.B.B.B.B.B.B.B.B.B.",
"B.B.B.B.B.B.B.B.B.B.B.B.B.B.B.B.B.B.B.B.B.B.B.B.",
"B.B.B.B.B.B.B.B.B.B.B.K B.B.B.B.B.B.B.B.B.B.B.B.",
"B.B.B.B.B.B.B.B.W #.y.i.y.6.<.@.^ F c B.B.B.B.B.",
"B.B.B.B.B.K / t.n.c.l.d.r.5.,.o.-.4.3.J g V B.B.",
"B.B.K { 0.b.l v.N.v.z.f.p.8.2.&.] v L O.X.0 B.B.",
"Y >.x.M.M.M.9.a.j.7.;...U j y u p Z :.h 9 . B.B.",
"x x.d m S +.g.m.b.k.q.=.( P ` ' 1.C q 1 ;   B.B.",
"x x.d A H N k f M ~ h.u.$.) *._ e 2 : = O B.B.B.",
"x x.d A H T E E E I R w.s.%.s 7 : < @ X B.B.B.B.",
"x } Q G H T E E E E n &  .t > , - + B.B.B.B.B.B.",
"B.B.a b B D [ ! E E n % | w 5 * o B.B.B.B.B.B.B.",
"B.B.B.B.B.B.8 r i z } e.e.6 # B.B.B.B.B.B.B.B.B.",
"B.B.B.B.B.B.B.B.B.B.$ 3 4 B.B.B.B.B.B.B.B.B.B.B.",
"B.B.B.B.B.B.B.B.B.B.B.B.B.B.B.B.B.B.B.B.B.B.B.B.",
"B.B.B.B.B.B.B.B.B.B.B.B.B.B.B.B.B.B.B.B.B.B.B.B.",
"B.B.B.B.B.B.B.B.B.B.B.B.B.B.B.B.B.B.B.B.B.B.B.B.",
"B.B.B.B.B.B.B.B.B.B.B.B.B.B.B.B.B.B.B.B.B.B.B.B.",
"B.B.B.B.B.B.B.B.B.B.B.B.B.B.B.B.B.B.B.B.B.B.B.B."
};
