/* XPM */
static const char *help_16x16_xpm[] = {
/* columns rows colors chars-per-pixel */
"16 16 189 2 ",
"   c #254BA3",
".  c #254BA4",
"X  c #264CA5",
"o  c #264EA6",
"O  c #264FA8",
"+  c #2750A9",
"@  c #2751AB",
"#  c #2C53AA",
"$  c #2852AC",
"%  c #3258AD",
"&  c #2B57B2",
"*  c #2A57B3",
"=  c #2B59B9",
"-  c #2B5CBA",
";  c #2C5FBC",
":  c #335BB2",
">  c #315EBD",
",  c #335EBC",
"<  c #2E60BF",
"1  c #3960B5",
"2  c #3B61B5",
"3  c #3E62B4",
"4  c #3C65BD",
"5  c #1B53CA",
"6  c #1D54CB",
"7  c #1C55CC",
"8  c #1D57CD",
"9  c #1E58CE",
"0  c #1E59CE",
"q  c #2158CD",
"w  c #205BCF",
"e  c #225ACE",
"r  c #235DCF",
"t  c #285BCB",
"y  c #295BCC",
"u  c #315EC8",
"i  c #225ED0",
"p  c #235ED1",
"a  c #2D62C1",
"s  c #2F61C2",
"d  c #2E63C2",
"f  c #2F66C5",
"g  c #2860C9",
"h  c #3167C8",
"j  c #3069C9",
"k  c #316BCC",
"l  c #356DCF",
"z  c #2460D1",
"x  c #2460D2",
"c  c #2461D2",
"v  c #2561D2",
"b  c #2562D3",
"n  c #2765D4",
"m  c #2D63D1",
"M  c #2967D5",
"N  c #2B68D6",
"B  c #2A69D6",
"V  c #2E68D4",
"C  c #3265D0",
"Z  c #3465D0",
"A  c #3466D0",
"S  c #3466D1",
"D  c #3467D1",
"F  c #3468D2",
"G  c #356BD3",
"H  c #326ED0",
"J  c #326FD1",
"K  c #326AD4",
"L  c #366BD4",
"P  c #376FD5",
"I  c #376FD6",
"U  c #3868D0",
"Y  c #3869D1",
"T  c #396CD4",
"R  c #3B72D2",
"E  c #3870D7",
"W  c #3E78D4",
"Q  c #3070DA",
"!  c #3571DA",
"~  c #3474D8",
"^  c #3577DD",
"/  c #3870D8",
"(  c #3B75DA",
")  c #3B77DB",
"_  c #3679DE",
"`  c #3B7BDB",
"'  c #3F7CDF",
"]  c #3D7EDF",
"[  c #426BC8",
"{  c #4F75C8",
"}  c #5577C3",
"|  c #597BC6",
" . c #5C7DC7",
".. c #436DD0",
"X. c #406ED2",
"o. c #4572D3",
"O. c #437BD6",
"+. c #4F78D1",
"@. c #4E78D2",
"#. c #4E78D4",
"$. c #4D79D6",
"%. c #4076D8",
"&. c #437BDE",
"*. c #477FDD",
"=. c #567ED5",
"-. c #3C81E2",
";. c #3E83E3",
":. c #3F86E5",
">. c #5A82D9",
",. c #5985DA",
"<. c #508DDF",
"1. c #5C8BDE",
"2. c #6283CE",
"3. c #6588D4",
"4. c #6A8AD1",
"5. c #6B8CD7",
"6. c #668FDE",
"7. c #698CDB",
"8. c #6C8EDA",
"9. c #6992DF",
"0. c #7293DD",
"q. c #7797DE",
"w. c #4484E1",
"e. c #4086E5",
"r. c #438BE7",
"t. c #4A89E3",
"y. c #448CE8",
"u. c #458EE9",
"i. c #468EE9",
"p. c #508AE2",
"a. c #5E8FE0",
"s. c #4A94EC",
"d. c #4B95EC",
"f. c #4D98EE",
"g. c #4E9AEF",
"h. c #5A97E4",
"j. c #5E99E7",
"k. c #5296EB",
"l. c #539CEE",
"z. c #529CEF",
"x. c #5B99E8",
"c. c #519DF1",
"v. c #679BE6",
"b. c #7299E0",
"n. c #55A3F4",
"m. c #56A5F4",
"M. c #66A0E7",
"N. c #6EA9EC",
"B. c #70A6EC",
"V. c #6EB4F5",
"C. c #6FB8F9",
"Z. c #77B6F1",
"A. c #75B6F4",
"S. c #7FBDF5",
"D. c #8BABE4",
"F. c #8CACE5",
"G. c #9DBCEA",
"H. c #A2B9E9",
"J. c #ADC2EB",
"K. c #B1C5EA",
"L. c #B3C7EC",
"P. c #BACBEE",
"I. c #BBCBEE",
"U. c #BFCEF0",
"Y. c #C8D4EE",
"T. c #CAD6EF",
"R. c #CCDAF0",
"E. c #DBE2F3",
"W. c #DEE2F0",
"Q. c #E2E5F2",
"!. c #E8E8F0",
"~. c #E9E9F1",
"^. c #EAEAF1",
"/. c #EAEAF2",
"(. c #EBEBF2",
"). c #ECECF3",
"_. c #EDEDF3",
"`. c #EEEEF4",
"'. c #EFEFF5",
"]. c #F0F0F5",
"[. c #F2F2F6",
"{. c #F5F5F8",
"}. c #F6F6F9",
"|. c #F8F8FB",
" X c #FAFAFC",
".X c #FBFBFC",
"XX c #FCFCFD",
"oX c #FDFDFE",
"OX c None",
/* pixels */
"OXOXOXOXOXOXo O + @ OXOXOXOXOXOX",
"OXOXOXOX% | 2.5.3.{ 4 & OXOXOXOX",
"OXOX  } q.#.U A S Y X...> OXOXOX",
"OX.  .7.U >.U.XX XP.,.L T s OXOX",
"OX3 0.Z $.oX.X|.}.{.E.I E P < OX",
"X 4.o.A D H.I.6.J.[.].1.( ( l OX",
"# 8.Z S F G K V 9.'.`.*.Q Q / d ",
"2 =.A D m r x %.Q._.L.^ _ _ &.f ",
"1 @.C q 9 p n Y.).T.w.-.;.;.p.j ",
": +.6 7 w b b.(./.v.:.r.u.u.j.k ",
"$ [ 5 8 i n D.^.~.e.i.s.f.l.M.H ",
"OX, t 0 z M ) K.G.y.d.c.n.A.<.OX",
"OX* u e c B F.!.!.B.g.m.C.Z.~ OX",
"OXOX= y v B a.W.R.k.z.V.S.] OXOX",
"OXOXOX- g N ! ' t.x.N.h.` OXOXOX",
"OXOXOXOX; a h R O.W J OXOXOXOXOX"
};
