/* XPM */
static const char *information_32x32_xpm[] = {
/* columns rows colors chars-per-pixel */
"32 32 111 2 ",
"   c #204785",
".  c #204886",
"X  c #254F9C",
"o  c #254CA4",
"O  c #274FA8",
"+  c #2652A4",
"@  c #2859A5",
"#  c #2B55AE",
"$  c #2859A8",
"%  c #3257AB",
"&  c #3258AC",
"*  c #2C56B1",
"=  c #2A5CB3",
"-  c #2C5DBB",
";  c #355CB2",
":  c #335FBE",
">  c #2D63BB",
",  c #3761BD",
"<  c #3F67BC",
"1  c #496CBB",
"2  c #174FC9",
"3  c #1B54CB",
"4  c #1F59CE",
"5  c #2B5BC2",
"6  c #2057CC",
"7  c #215BCF",
"8  c #2B5DCC",
"9  c #235ED0",
"0  c #285CD0",
"q  c #2E64C2",
"w  c #2B63CA",
"e  c #3564C6",
"r  c #3562C9",
"t  c #356CCC",
"y  c #3E68C9",
"u  c #2562D3",
"i  c #2966D4",
"p  c #2B6AD7",
"a  c #2E6ED9",
"s  c #3566D0",
"d  c #356BD3",
"f  c #396CD4",
"g  c #326FD9",
"h  c #2F70DA",
"j  c #3672D0",
"k  c #3872D6",
"l  c #3373DB",
"z  c #3973D9",
"x  c #3679DE",
"c  c #387CDF",
"v  c #3A7DE0",
"b  c #426AC4",
"n  c #4F72C0",
"m  c #5C7DC7",
"M  c #5277C8",
"N  c #406ED2",
"B  c #4572D3",
"V  c #4B75D3",
"C  c #437BDE",
"Z  c #4D7DD9",
"A  c #5279D1",
"S  c #3D82E3",
"D  c #4D87DC",
"F  c #4D89DD",
"G  c #5F84D5",
"H  c #5C85D9",
"J  c #6282CB",
"K  c #6286D5",
"L  c #698AD1",
"P  c #658BDB",
"I  c #6D8FDA",
"U  c #6E90DA",
"Y  c #7797DE",
"T  c #7D9CDE",
"R  c #4187E5",
"E  c #4A84E1",
"W  c #4289E6",
"Q  c #4E88E2",
"!  c #458DE8",
"~  c #578FE4",
"^  c #4790EA",
"/  c #4A94EC",
"(  c #4D99EE",
")  c #5695E6",
"_  c #5B94E3",
"`  c #5296EA",
"'  c #5498EB",
"]  c #519EF1",
"[  c #629CE6",
"{  c #7F9DE0",
"}  c #55A3F3",
"|  c #59A9F6",
" . c #5CACF9",
".. c #64A4ED",
"X. c #6AAAEF",
"o. c #75B0EF",
"O. c #63AFF7",
"+. c #6BAFF3",
"@. c #6CB1F4",
"#. c #63B2F9",
"$. c #77B2F0",
"%. c #82A4E4",
"&. c #82BFF4",
"*. c #A7BDEB",
"=. c #8ACAFB",
"-. c #B3C7EE",
";. c #B4C8EF",
":. c #CDDAF5",
">. c #D2E5FB",
",. c white",
"<. c None",
/* pixels */
"<.<.<.<.<.<.<.<.<.<.<.o o O ; ; O O o <.<.<.<.<.<.<.<.<.<.<.<.<.",
"<.<.<.<.<.<.<.<.o & n L Y I K K K K M < # o <.<.<.<.<.<.<.<.<.<.",
"<.<.<.<.<.<.<.% m %.P V s s s s s s N V A b * <.<.<.<.<.<.<.<.<.",
"<.<.<.<.<.o 1 T K s s s r s s s s s s d f N B : + <.<.<.<.<.<.<.",
"<.<.<.<.o m Y B s s s s t d P P s d s d d d d f e + <.<.<.<.<.<.",
"<.<.<.o m Y f s s s s s s *.,.,.*.s d d d d d d f e + <.<.<.<.<.",
"<.<.<.1 { y s s s s s s s :.,.,.:.d f d d f f f f f q <.<.<.<.<.",
"<.<.% %.N s s s s s s s s -.,.,.;.f g f f g g k g k f - <.<.<.<.",
"<.o J H s s s s s s d d d B %.{ f f k g k z z z z z z d X <.<.<.",
"<.& %.s s s s s s s s d d d f k k k k z z z z z z z z z - <.<.<.",
"<.n K s s s s s s d d *.:.:.:.:.:.g g d g g l g k l k z t <.<.<.",
"O L V r s s s s d d d :.,.,.,.,.,.i i a a a a p h a h a d + <.<.",
"o T s s s s s d d d i Z H ,.,.,.,.a a a a l l p l l l a f = <.<.",
"o I s s s s d s u 9 9 9 9 ,.,.,.,.a a l a v v v v l v v c > <.<.",
"; K s s s s s 4 4 4 9 u u ,.,.,.,.l l x v v v v v v v v D t <.<.",
"; G s s s 0 3 4 7 9 9 u i ,.,.,.,.x x c v v v S S v S v E t <.<.",
"o K r d 6 3 3 4 4 u u i p ,.,.,.,.x v v S S W W W R R S _ q <.<.",
"O K d 6 3 3 4 4 9 u u i p ,.,.,.,.v S S W W W ! ! ! ! W _ > <.<.",
"o M 8 2 2 3 4 4 9 u i p a ,.,.,.,.S S W ! ! ! ^ ^ ^ ^ ` _ $ <.<.",
"<., r 2 3 3 4 9 u u i p h ,.,.,.,.S W ! ^ / / ( ( ( ( ..D <.<.<.",
"<.# y 3 3 3 4 9 u u i p l ,.,.,.,.W ! ^ / ( ( ] } ( ' o.j <.<.<.",
"<.o , 8 3 4 7 9 u i p h h ,.,.,.,.W ^ ^ ( ] } } } } @...@ <.<.<.",
"<.<.* r 4 4 4 u i i p h h ,.,.,.,.! ^ ( ( } } | | O.&.k <.<.<.<.",
"<.<.<.- u 4 4 u u i p :.,.,.,.,.,.,.>.( ] } |  .#.=.)   <.<.<.<.",
"<.<.<.+ 5 0 9 9 u i h :.,.,.,.,.,.,.>.( } } | O.=.X.> <.<.<.<.<.",
"<.<.<.<.+ 5 0 9 u i p h h v S S S ^ / ( } } O.=.X.> <.<.<.<.<.<.",
"<.<.<.<.<.@ 5 0 u i p h l x v S W ^ / ( ] @.=.~ > <.<.<.<.<.<.<.",
"<.<.<.<.<.<.<.- w i a g l v v S W W ) ..o...c . <.<.<.<.<.<.<.<.",
"<.<.<.<.<.<.<.<.X - w d z C D Q _ _ _ F j @ <.<.<.<.<.<.<.<.<.<.",
"<.<.<.<.<.<.<.<.<.<.<.@ = > t j > > $ <.<.<.<.<.<.<.<.<.<.<.<.<.",
"<.<.<.<.<.<.<.<.<.<.<.<.<.<.<.<.<.<.<.<.<.<.<.<.<.<.<.<.<.<.<.<.",
"<.<.<.<.<.<.<.<.<.<.<.<.<.<.<.<.<.<.<.<.<.<.<.<.<.<.<.<.<.<.<.<."
};
