/* XPM */
static const char *key_48x48_xpm[] = {
/* columns rows colors chars-per-pixel */
"48 48 176 2 ",
"   c #9E4E06",
".  c #A54E05",
"X  c #A84D03",
"o  c #AE5104",
"O  c #A4570A",
"+  c #AC5709",
"@  c #AA5B0B",
"#  c #B45404",
"$  c #B35907",
"%  c #BC5A06",
"&  c #B95E09",
"*  c #BB620C",
"=  c #AA6612",
"-  c #B96910",
";  c #C15601",
":  c #C75E04",
">  c #C85E05",
",  c #C05F08",
"<  c #C4640A",
"1  c #CF6708",
"2  c #CB6B0D",
"3  c #D26C0B",
"4  c #D5710D",
"5  c #D8720D",
"6  c #C86C10",
"7  c #C27717",
"8  c #CF7615",
"9  c #CE7916",
"0  c #CB761C",
"q  c #C97B18",
"w  c #D37412",
"e  c #DA7710",
"r  c #D47A14",
"t  c #DC7D14",
"y  c #D4711C",
"u  c #D37E1B",
"i  c #DD7C1A",
"p  c #E27D14",
"a  c #EB7B16",
"s  c #F07916",
"d  c #F07B18",
"f  c #D97625",
"g  c #D07B20",
"h  c #D7722C",
"j  c #D46E33",
"k  c #DE7833",
"l  c #DB7533",
"z  c #E27F22",
"x  c #E27D28",
"c  c #DD8116",
"v  c #D3801E",
"b  c #E18115",
"n  c #E88716",
"m  c #E5831B",
"M  c #EF8D18",
"N  c #F2861B",
"B  c #F4891A",
"V  c #EC911D",
"C  c #F4941C",
"Z  c #F8981D",
"A  c #D58223",
"S  c #DA8527",
"D  c #DC8825",
"F  c #D58A2A",
"G  c #DB8C2B",
"H  c #DD932C",
"J  c #E78322",
"K  c #E98524",
"L  c #E48C24",
"P  c #EB8B22",
"I  c #EB862A",
"U  c #E28F2F",
"Y  c #EF8A2D",
"T  c #F18025",
"R  c #F08C21",
"E  c #F28E2D",
"W  c #E3952C",
"Q  c #EB952B",
"!  c #E3992F",
"~  c #F59A23",
"^  c #F5912B",
"/  c #F29D29",
"(  c #E68133",
")  c #EA8434",
"_  c #F38D35",
"`  c #E69C32",
"'  c #E99B36",
"]  c #EF973A",
"[  c #E09E3E",
"{  c #ED9D3B",
"}  c #E59333",
"|  c #FB9534",
" . c #F39C32",
".. c #FF9A35",
"X. c #FF9F3A",
"o. c #E9A32D",
"O. c #F0A02C",
"+. c #E5A33C",
"@. c #F2A431",
"#. c #F2A33C",
"$. c #FCA33C",
"%. c #F3A938",
"&. c #F2B23F",
"*. c #DF864D",
"=. c #E38340",
"-. c #F89F47",
";. c #F69D4D",
":. c #F4A743",
">. c #FCA643",
",. c #F4AC42",
"<. c #FBAC45",
"1. c #F3A74E",
"2. c #FCAD4B",
"3. c #F7B445",
"4. c #F6B34B",
"5. c #FCB14B",
"6. c #F8B94B",
"7. c #F4A55D",
"8. c #F6B354",
"9. c #FDB452",
"0. c #FABA52",
"q. c #FFBC5B",
"w. c #E7A46E",
"e. c #EDA76B",
"r. c #F6A662",
"t. c #F9AF67",
"y. c #F8BB61",
"u. c #F4B672",
"i. c #FBB370",
"p. c #FABE76",
"a. c #F0B878",
"s. c #FFCD43",
"d. c #FFD246",
"f. c #FFD64A",
"g. c #FBC256",
"h. c #FDC55C",
"j. c #FCCB5C",
"k. c #FFD952",
"l. c #FFD259",
"z. c #FEDB5A",
"x. c #FFE35C",
"c. c #FEC761",
"v. c #FECC61",
"b. c #FBC668",
"n. c #FFCD6C",
"m. c #FED462",
"M. c #FDDD64",
"N. c #FCDF69",
"B. c #FDC577",
"V. c #FCCA73",
"C. c #FBCB7B",
"Z. c #FFD276",
"A. c #FFD47F",
"S. c #FFDA79",
"D. c #FFE564",
"F. c #FFE46C",
"G. c #FFE272",
"H. c #FFE875",
"J. c #FFEA7C",
"K. c #FED483",
"L. c #F6D089",
"P. c #FDD58B",
"I. c #FFD88B",
"U. c #FDD790",
"Y. c #FEDB95",
"T. c #FDDB9A",
"R. c #FFEC85",
"E. c #FFED8B",
"W. c #FDE191",
"Q. c #FFE09F",
"!. c #FFE4A9",
"~. c #FFE7B3",
"^. c #FFEBBD",
"/. c #FFEFC7",
"(. c #FFF1D1",
"). c None",
/* pixels */
").).).).).).).).).).).).).).).).).).).).t t c t t ).).).).).).).).).).).).).).).).).).).).).).).",
").).).).).).).).).).).).).).).).).).b Q ,.8.c.h.6.:.P r ).).).).).).).).).).).).).).).).).).).).",
").).).).).).).).).).).).).).).).t Q 0.c.n.I.I.I.K.v.c.4.L ).).).).).).).).).).).).).).).).).).).",
").).).).).).).).).).).).).).).b #.q.V.p.r.s s a T r.p.q.0.Q ).).).).).).).).).).).).).).).).).).",
").).).).).).).).).).).).).).p #.9.C.1.R N N B B d s s 7.q.9.P ).).).).).).).).).).).).).).).).).",
").).).).).).).).).).).).).).P 5.B.@./ ~ R 7 ).= 9 b a s ;.q.<.c ).).).).).).).).).).).).).).).).",
").).).).).).).).).).).).).c $.9.8.O.~ q ).).).).).).w a s -.<. .- ).).).).).).).).).).).).).).).",
").).).).).).).).).).).).).P $.8.@./ q ).).).).).).).).2 P E 2.X.r ).).).).).).).).).).).).).).).",
").).).).).).).).).).).).).^ $.8.%.C ).).).).).).).).).).i  .>.$.m ).).).).).).).).).).).).).).).",
").).).).).).).).).).).).t ^ ..4.4.2.<.:.:.{ ' } U G D A A ,.$...P ).).).).).).).).).).).).).).).",
").).).).).).).).).).).).t ^ ..3.C.(./.^.~.!.Q.Y.I.K.Z.n.n.0.&.| K ).).).).).).).).).).).).).).).",
").).).).).).).).).).).).t E | 6.6.(./.^.~.!.Q.Y.I.A.Z.n.A.6.<.| J ).).).).).).).).).).).).).).).",
").).).).).).).).).).).).r I _ V.g.C.T.T.Y.Y.U.P.P.P.P.K.b.0.>._ z ).).).).).).).).).).).).).).).",
").).).).).).).).).).).).).z ) y.g.g.g.g.g.g.g.g.g.g.0.g.0.g.7.( e ).).).).).).).).).).).).).).).",
").).).).).).).).).).).).).i l e.j.j.l.j.h.h.h.j.h.h.h.h.j.C.=.h * ).).).).).).).).).).).).).).).",
").).).).).).).).).).).).).r f j L.z.m.m.m.l.v.v.v.j.h.v.j.w.j y ).).).).).).).).).).).).).).).).",
").).).).).).).).).).).).).).t ( *.Y.M.M.M.m.m.m.m.n.m.n.a.l x * ).).).).).).).).).).).).).).).).",
").).).).).).).).).).).).).).).m ] 7.T.N.M.M.M.M.M.m.S.u._ I 2 ).).).).).).).).).).).).).).).).).",
").).).).).).).).).).).).).).).).L t.i.G.k.z.M.M.N.M.:.f K 6 ).).).).).).).).).).).).).).).).).).",
").).).).).).).).).).).).).).).).).r ] M.f.f.f.k.z.M.[ 6 * ).).).).).).).).).).).).).).).).).).).",
").).).).).).).).).).).).).).).).).).r z.d.d.d.d.f.f.o.@ ).).).).).).).).).).).).).).).).).).).).",
").).).).).).).).).).).).).).).).).).4 z.s.s.s.d.d.d.o.O ).).).).).).).).).).).).).).).).).).).).",
").).).).).).).).).).).).).).).).).).e M.s.s.s.d.d.d.c ).).).).).).).).).).).).).).).).).).).).).",
").).).).).).).).).).).).).).).).).).r M.8 0 l.2 Z < ).).).).).).).).).).).).).).).).).).).).).).",
").).).).).).).).).).).).).).).).).).r z.9 F l.r Z * ).).).).).).).).).).).).).).).).).).).).).).",
").).).).).).).).).).).).).).).).).).4 M.9 G l.r Z * ).).).).).).).).).).).).).).).).).).).).).).",
").).).).).).).).).).).).).).).).).).4 M.u H z.r Z * ).).).).).).).).).).).).).).).).).).).).).).",
").).).).).).).).).).).).).).).).).).8 z.9 H x.t Z * ).).).).).).).).).).).).).).).).).).).).).).",
").).).).).).).).).).).).).).).).).).2 D.u H x.t Z & ).).).).).).).).).).).).).).).).).).).).).).",
").).).).).).).).).).).).).).).).).).2 M.u ! x.c n + ).).).).).).).).).).).).).).).).).).).).).).",
").).).).).).).).).).).).).).).).).).2 D.v ! D.t 2 ).).).).).).).).).).).).).).).).).).).).).).).",
").).).).).).).).).).).).).).).).).).2 N.v ` F.b t   ).).).).).).).).).).).).).).).).).).).).).).",
").).).).).).).).).).).).).).).).).).2 N.g ` H.b C $ ).).).).).).).).).).).).).).).).).).).).).).",
").).).).).).).).).).).).).).).).).).2 N.A ` J.b V $ ).).).).).).).).).).).).).).).).).).).).).).",
").).).).).).).).).).).).).).).).).).< N.A ` E.b M $ ).).).).).).).).).).).).).).).).).).).).).).",
").).).).).).).).).).).).).).).).).).< N.A +.E.b 5   ).).).).).).).).).).).).).).).).).).).).).).",
").).).).).).).).).).).).).).).).).).< N.v ` R.e & ).).).).).).).).).).).).).).).).).).).).).).).",
").).).).).).).).).).).).).).).).).).< M.u ` J.3 . ).).).).).).).).).).).).).).).).).).).).).).).",
").).).).).).).).).).).).).).).).).).% z.r ! F.e < ).).).).).).).).).).).).).).).).).).).).).).).",
").).).).).).).).).).).).).).).).).)., M.r W z.5 5 X ).).).).).).).).).).).).).).).).).).).).).).",
").).).).).).).).).).).).).).).).).)., z.w G l.3 5 X ).).).).).).).).).).).).).).).).).).).).).).",
").).).).).).).).).).).).).).).).).).% M.w D l.1 3 X ).).).).).).).).).).).).).).).).).).).).).).",
").).).).).).).).).).).).).).).).).).$ S w f l.: : X ).).).).).).).).).).).).).).).).).).).).).).",
").).).).).).).).).).).).).).).).).).).. % u l.; # ).).).).).).).).).).).).).).).).).).).).).).).",
").).).).).).).).).).).).).).).).).).).).).< &.# ).).).).).).).).).).).).).).).).).).).).).).).).",
").).).).).).).).).).).).).).).).).).).).).).o ).).).).).).).).).).).).).).).).).).).).).).).).).",
").).).).).).).).).).).).).).).).).).).).).).).).).).).).).).).).).).).).).).).).).).).).).).).).",
").).).).).).).).).).).).).).).).).).).).).).).).).).).).).).).).).).).).).).).).).).).).).).).)."
};
