/* XPM */
static const char *mail_send_48x48_xpm[] = {
/* columns rows colors chars-per-pixel */
"48 48 109 2 ",
"   c #0D850D",
".  c #009900",
"X  c #1DA61A",
"o  c #22A81F",
"O  c #25AA22",
"+  c #29AC26",
"@  c #2DAD29",
"#  c #30AF2C",
"$  c #34B12F",
"%  c #36B132",
"&  c #3AB335",
"*  c #3FB53A",
"=  c #42B63D",
"-  c #42B83D",
";  c #44B543",
":  c #48B746",
">  c #46B940",
",  c #4BBC45",
"<  c #4DB94B",
"1  c #51BD4B",
"2  c #56BD52",
"3  c #5ABF56",
"4  c #55C04D",
"5  c #5AC253",
"6  c #5EC259",
"7  c #60C557",
"8  c #62C45D",
"9  c #67C85F",
"0  c #68C761",
"q  c #6BC964",
"w  c #6FCA68",
"e  c #73CC6C",
"r  c #77CD71",
"t  c #7ACF73",
"y  c #7ECF79",
"u  c #7CD075",
"i  c #84D37C",
"p  c #6C92BF",
"a  c #759DCA",
"s  c #86D281",
"d  c #8DD685",
"f  c #8FD887",
"g  c #8DD688",
"h  c #92DA8B",
"j  c #96DE90",
"k  c #9BDC95",
"l  c #A2DF9C",
"z  c #9DE197",
"x  c #B2EBAE",
"c  c #B9F3B6",
"v  c #BCF7BA",
"b  c #B9FEB9",
"n  c #C0FDBF",
"m  c #8AAACF",
"M  c #8AB5E2",
"N  c #96BDE2",
"B  c #9ABFE1",
"V  c #92BEEB",
"C  c #9EC1E2",
"Z  c #9FCCF9",
"A  c #A3C4E3",
"S  c #A7C8E7",
"D  c #ACCAE6",
"F  c #A2C7EA",
"G  c #A6C9EA",
"H  c #ABCCEA",
"J  c #B3CEEA",
"K  c #B5D1EB",
"L  c #BCD3ED",
"P  c #ABCFF1",
"I  c #A4CEF8",
"U  c #ACD2F6",
"Y  c #B4D5F5",
"T  c #B9D7F4",
"R  c #BEDAF7",
"E  c #BBDAF8",
"W  c #CACBDE",
"Q  c #D1C8D7",
"!  c #C3FEC3",
"~  c #C2CEE5",
"^  c #C1D2EA",
"/  c #C7DBEE",
"(  c #D0D8EA",
")  c #C3DBF4",
"_  c #CBDFF1",
"`  c #C1DEF9",
"'  c #CDE0F2",
"]  c #C6E0FA",
"[  c #CCE3FA",
"{  c #D4E5F4",
"}  c #D9E7F4",
"|  c #D0E7FC",
" . c #D5E9FD",
".. c #DDEDFD",
"X. c #EDE6EB",
"o. c #F3E9EB",
"O. c #E1E3F0",
"+. c #E1ECF7",
"@. c #ECEEF6",
"#. c #E3EEFA",
"$. c #E8EEF9",
"%. c #F2EEF3",
"&. c #E5F2FF",
"*. c #EBF5FF",
"=. c #F3F1F6",
"-. c #F1F6FD",
";. c #F4F9FF",
":. c #FBFDFF",
">. c None",
/* pixels */
">.>.>.>.>.>.>.>.>.>.>.>.>.>.>.>.>.>.>.>.>.>.>.>.>.>.>.>.>.>.>.>.>.>.>.>.>.>.>.>.>.>.>.>.>.>.>.>.",
">.>.>.>.>.>.>.>.>.>.>.>.>.>.>.>.>.>.>.>.>.>.>.>.>.>.>.>.>.>.>.>.>..   >.>.>.>.>.>.>.>.>.>.>.>.>.",
">.>.>.>.>.>.>.>.>.>.>.>.>.>.>.>.>.>.>.>.>.>.>.>.>.>.>.>.>.>.>.>.. c l   >.>.>.>.>.>.>.>.>.>.>.>.",
">.>.>.>.>.>.>.>.>.>.>.>.>.>.>.>.>.>.>.>.>.>.>.>.>.>.>.>.>.>.>.. c h f k   >.>.>.>.>.>.>.>.>.>.>.",
">.>.>.>.>.>.>.>.>.>.>.>.>.>.>.>.>.>.>.>.>.>.>.>.>.>.>.>.>.>.. v f i i i h   >.>.>.>.>.>.>.>.>.>.",
">.>.>.>.>.>.>.>.>.>.>.>.>.>.>.>.>.>.>.>.>.>.>.>.>.>.>.>.>.. v h i i u u y g   >.>.>.>.>.>.>.>.>.",
">.>.>.>.>.>.>.>.>.>.>.>.>.>.>.>.>.>.>.>.>.>.>.>.>.>.>.>.. v h i i u r e e e s   >.>.>.>.>.>.>.>.",
">.>.>.>.>.>.>.>.>.>.>.>.>.>.>.>.>.>.>.>.>.>.>.>.>.>.>.. v h i y u r e w q 0 q y   >.>.>.>.>.>.>.",
">.>.>.>.>.>.>.>.>.>.>.>.>.>.>.>.>.>.>.>.>.>.>.>.>.>.. n h i i u r e w q 9 7 6 8 r   >.>.>.>.>.>.",
">.>.>.>.>.>.>.>.>.>.>.>.>.>.>.>.>.>.>.>.>.>.>.>.>.. n z i i u r e w 9 8 6 6 5 5 3 e   >.>.>.>.>.",
">.>.>.>.>.>.>.>.>.>.>.>.>.>.>.>.>.>.>.>.>.>.>.>.. ! h i i u r e q 7 5 5 4 , , > = : 0   >.>.>.>.",
">.>.>.>.>.>.>.>.>.>.>.>.>.>.>.>.>.>.>.>.>.>.>.. ! z h s i e 9 5 5 4 4 , > > - , > = ; 6   >.>.>.",
">.>.>.>.>.>.>.>.>.>.>.>.>.>.>.>.>.>.>.>.>.>.. ! x l k f i 5 5 5 4 1 , , > - ; 0 6 6 3 3 2   >.>.",
">.>.>.>.>.>.>.>.>.>.>.>.>.>.>.>.>.>.>.>.>.>.            b 5 5 4 4 , , - - * > 6             >.>.",
">.>.>.>.>.>.>.>.>.>.>.>.>.>.>.>.>.>.>.>.>.>.>.>.>.>.>.. b 4 4 4 , , > - * & = 6   >.>.>.>.>.>.>.",
">.>.>.>.>.>.>.>.>.>.>.>.>.>.>.>.>.>.>.>.>.>.>.>.>.>.>.. b 4 4 4 , > - * & & * 3   >.>.>.>.>.>.>.",
">.>.>.>.>.>.>.>.>.>.>.>.>.>.>.>.>.>.>.>.>.>.>.>.>.>.>.. b 4 , , > - * & & $ * 2   >.>.>.>.>.>.>.",
">.>.>.>.>.>.>.>.>.>.>.>.>.>.>.>.>.>.>.>.>.>.>.>.>.>.>.. b , , > - * & & $ # % 4   >.>.>.>.>.>.>.",
"V V C V V V C C V V C V C Z C C V V V V V V V V V V V . b , - - * & % $ # @ $ 4   >.>.>.>.>.>.>.",
"V @.O...| [ ..&.X.$.&.| | &.=.o.=.*.....;.o.o.-.&...&.. b - - * & & $ # @ + # <   >.>.>.>.>.>.>.",
"V =.$. .[ [  ...+.#.#. ...&.*.$.&.*...#.*.*.=.*.&.&.*.. b - * & % $ # @ + O @ <   >.>.>.>.>.>.>.",
"V ^ &.*. .| | ......#.&.&.&.&.*.*.*.*.&.*.*.*.*.*.*.*.. b * & & % # @ + O O + :   >.>.>.>.>.>.>.",
"V { B ..*...[  .......&.&.&.&.*.&.*.*.*.*.*.*.*.*.*.*.. b & & $ # @ + O o X O ;   >.>.>.>.>.>.>.",
"V *.{ C ' *.&.|  .......&.&.&.&.*.*.*.*.*.*.-.*.*.*.*.. b % $ # @ + O o X X o ;   >.>.>.>.>.>.>.",
"V *... .S H *.*...| ....&.&.&.&.&.*.*.*.*.*.*.*.*.;.*.. b * & & % # @ + O O + *   >.>.>.>.>.>.>.",
"V *..... .L C ..*.&. .....&.&.&.&.&.*.*.*.*.*.*.*.*.*.. b 5 2 2 4 < : : ; ; * *   >.>.>.>.>.>.>.",
"V *.#... .| ) B ' ;.*. .....&.&.&.*.&.*.*.*.*.*.*.*.*.                            >.>.>.>.>.>.>.",
"V *.......| [ ] C K *.-.....&.&.*.&.*.*.*.*.*.*.;.*.;.*.*.-.*.J C ` [ | | ....*.m >.>.>.>.>.>.>.",
"C *..... .| | [ ` G A &.;.&...&.&.&.&.*.*.&.*.*.*.*.*.;.;.&.A S E [ [ |  .....*.m >.>.>.>.>.>.>.",
"C *.&... .| [ ] ] E P B } ;.*...&.&.*.&.*.*.*.*.*.*.*.;.{ B P E ` ] [ |  .....*.m >.>.>.>.>.>.>.",
"V ...... .| | ] ` E Y P C L ;.;.&...&.&.&.*.*.*.*.;.;.L N P Y E ` ] | |  .....*.m >.>.>.>.>.>.>.",
"C &.......| [ [ ] E Y I C D S ;.;.*.&.*.*.*.&.*.:.;.A S N P Y E E ] [  . . ...*.m >.>.>.>.>.>.>.",
"C &..... . .[ ] ) E G A +.:.} C +.:.;.&.&.*.;.:.+.C } :.+.A A E E ] [  . .....*.m >.>.>.>.>.>.>.",
"V .... . . .| ] T B / :.:.;.*.} A / :.:.*.:.:./ A } *.;.:.:./ C Y ] [ |  .....*.m >.>.>.>.>.>.>.",
"C *.&... . .[ H A $.:.;.*.*.*.*.&.K D :.:.:.D K *.*.;.*.*.;.:.$.D G ] |  .....*.m >.>.>.>.>.>.>.",
"Z &..... .) C _ ;.;.-.&.*.*.*.;.*.*._ B L C _ *.*.*.*.*.*.*.*.;.;._ C R  . ...*.m >.>.>.>.>.>.>.",
"C  ... .H D &.;.*.&.*.;.*.*.*.*.*.-.*...^ ..*.*.*.*.*.;.*.*.*.&.*.;.&.J S } ..*.m >.>.>.>.>.>.>.",
"C &._ C { ;.*.#.&.*.*.*.*.;.;.*.*.*.*.;.*.*.-.*.*.;.*.*.*.*.*.*.*.&.*.-.{ B ] *.m >.>.>.>.>.>.>.",
"Z E Y &.*.....*.*.;.*.*.*.*.*.*.*.*.*.*.*.*.*.*.*.*.;.*.;.*.*.*.*.*...&.*.&.L L m >.>.>.>.>.>.>.",
"a &.*.&. ...*.&.&.*.&.*.*.&.*.*.*.&.*.*.*.*.*.*.*.&.&.*.*.&.*.*.*.&.&... .&.-.+.m >.>.>.>.>.>.>.",
"V -.} [ } ....................+...#.........+...............#.....&.} .. .[ | ;.m >.>.>.>.>.>.>.",
"V | R [ [ [ [ [ [ [ [ [ [ [ [ [ [ [ [ [ [ [ [ [ [ [ [ [ [ [ [ [ [ [ [ [ [ [ E | m >.>.>.>.>.>.>.",
"V ( L Y U U Y T ~ L Y U U Y L ~ L Y U U Y ^ ~ Y Y P Y Y ~ ^ Y U U Y L L L T U E m >.>.>.>.>.>.>.",
"V Q W Y I I U L Q ~ Y I Z Y ~ Q ~ U Z I Y W Q L U Z P Y Q Q Y U I U L Q W Y I I m >.>.>.>.>.>.>.",
"M a p p p p p p p p p p p p p p p p p p p p p p a p p p p p p p p p p p p p p p p >.>.>.>.>.>.>.",
">.>.>.>.>.>.>.>.>.>.>.>.>.>.>.>.>.>.>.>.>.>.>.>.>.>.>.>.>.>.>.>.>.>.>.>.>.>.>.>.>.>.>.>.>.>.>.>.",
">.>.>.>.>.>.>.>.>.>.>.>.>.>.>.>.>.>.>.>.>.>.>.>.>.>.>.>.>.>.>.>.>.>.>.>.>.>.>.>.>.>.>.>.>.>.>.>.",
">.>.>.>.>.>.>.>.>.>.>.>.>.>.>.>.>.>.>.>.>.>.>.>.>.>.>.>.>.>.>.>.>.>.>.>.>.>.>.>.>.>.>.>.>.>.>.>."
};
