/* XPM */
static const char *mail_send_32x32_xpm[] = {
/* columns rows colors chars-per-pixel */
"32 32 227 2 ",
"   c #0D850D",
".  c #009900",
"X  c #19A517",
"o  c #1FA71C",
"O  c #24AA21",
"+  c #2AAC26",
"@  c #2FAF2B",
"#  c #35B130",
"$  c #3AB435",
"%  c #3EB33D",
"&  c #40B63A",
"*  c #45B93F",
"=  c #43B542",
"-  c #47B745",
";  c #48B845",
":  c #4BBB44",
">  c #4DBC47",
",  c #4CB94A",
"<  c #50BE49",
"1  c #52BE4B",
"2  c #50BB4D",
"3  c #54BD52",
"4  c #55BD52",
"5  c #59BF55",
"6  c #56C04E",
"7  c #57C051",
"8  c #5BC353",
"9  c #5DC356",
"0  c #5DC15A",
"q  c #5EC25A",
"w  c #61C45A",
"e  c #62C35D",
"r  c #65C75C",
"t  c #66C65F",
"y  c #66C562",
"u  c #68C860",
"i  c #6CC965",
"p  c #6CC867",
"a  c #6ECA68",
"s  c #72CC6B",
"d  c #72C96E",
"f  c #73CC6C",
"g  c #75CD6D",
"h  c #74CC6E",
"j  c #7ACF73",
"k  c #7CCF75",
"l  c #7DCE78",
"z  c #7BD073",
"x  c #7CD075",
"c  c #82D27A",
"v  c #83D37B",
"b  c #86D47E",
"n  c #6C92BF",
"m  c #7298C5",
"M  c #8CD586",
"N  c #90D78A",
"B  c #94DA8C",
"V  c #94DB8D",
"C  c #97DA91",
"Z  c #97DD90",
"A  c #9CDC96",
"S  c #A1DF9B",
"D  c #90E48F",
"F  c #9EE198",
"G  c #9FE199",
"H  c #AAE5A5",
"J  c #A3F0A2",
"K  c #A4F1A3",
"L  c #A5F1A4",
"P  c #A6F2A5",
"I  c #A7F2A6",
"U  c #A8F3A7",
"Y  c #A9F3A8",
"T  c #ABF4A9",
"R  c #BEF9BC",
"E  c #BEF9BD",
"W  c #BFF9BD",
"Q  c #C0FDBF",
"!  c #88B2DF",
"~  c #97BCDF",
"^  c #9ABEE1",
"/  c #92BEEB",
"(  c #9FC2E3",
")  c #9EC2E4",
"_  c #A1C3E3",
"`  c #A2C3E3",
"'  c #A4C5E3",
"]  c #A5C5E3",
"[  c #A3C5E5",
"{  c #A2C5E6",
"}  c #A7C7E5",
"|  c #AAC8E6",
" . c #ABC9E6",
".. c #A8CBEC",
"X. c #AACCEC",
"o. c #A8CCEF",
"O. c #ACCEEE",
"+. c #B3CEE8",
"@. c #B2D0ED",
"#. c #B3D1ED",
"$. c #BAD3EC",
"%. c #BCD3EF",
"&. c #BDD5EC",
"*. c #BFD6EC",
"=. c #BFD7EE",
"-. c #AACDF0",
";. c #A5CFF9",
":. c #AED3F7",
">. c #A9D1F9",
",. c #AAD1F8",
"<. c #B2D4F6",
"1. c #B7D6F5",
"2. c #B9D9F7",
"3. c #BCDAF8",
"4. c #CDCCDE",
"5. c #D0CEDE",
"6. c #C1FDC0",
"7. c #C1FDC1",
"8. c #C7CEE3",
"9. c #C2D1E9",
"0. c #C1D8EE",
"q. c #C8DCEE",
"w. c #C0DAF2",
"e. c #C4DEF7",
"r. c #CCDFF0",
"t. c #CCDFF6",
"y. c #C2DEF9",
"u. c #C5DFF8",
"i. c #C6DFF8",
"p. c #C6E0F7",
"a. c #C9E0F7",
"s. c #CCE1F6",
"d. c #CCE1F7",
"f. c #C5E0FA",
"g. c #C8E0F9",
"h. c #C8E1F9",
"j. c #C9E1F9",
"k. c #CBE1F8",
"l. c #C9E2F9",
"z. c #CBE2F8",
"x. c #CAE2F9",
"c. c #CBE3FB",
"v. c #CEE5FB",
"b. c #C9E4FF",
"n. c #D5E4F2",
"m. c #D2E4F4",
"M. c #D6E7F7",
"N. c #DDE8F4",
"B. c #DEEAF7",
"V. c #DEEBF7",
"C. c #D5E7FB",
"Z. c #D0E7FF",
"A. c #D6E8FB",
"S. c #D3E8FC",
"D. c #D2E8FF",
"F. c #D3E9FF",
"G. c #D5EAFD",
"H. c #D5EAFF",
"J. c #D6EBFF",
"K. c #DAEAF9",
"L. c #DCEBF9",
"P. c #DCEAFB",
"I. c #D9EAFC",
"U. c #DBEBFC",
"Y. c #D9ECFF",
"T. c #D9EDFF",
"R. c #DAEDFE",
"E. c #DAECFF",
"W. c #DBEDFF",
"Q. c #DFEEFD",
"!. c #DCEEFE",
"~. c #DCEEFF",
"^. c #DEEFFF",
"/. c #DFEFFF",
"(. c #EDE7EE",
"). c #F1E9EE",
"_. c #F2EAEE",
"`. c #E7E8F2",
"'. c #E9EDF6",
"]. c #EFEFF6",
"[. c #E2EFFB",
"{. c #E0EEFD",
"}. c #E0EFFF",
"|. c #E0F0FF",
" X c #E1F0FF",
".X c #E2F0FF",
"XX c #E3F1FF",
"oX c #E4F0FD",
"OX c #E7F2FD",
"+X c #E4F1FF",
"@X c #E4F2FF",
"#X c #E5F2FF",
"$X c #E6F2FE",
"%X c #E7F2FE",
"&X c #E6F2FF",
"*X c #E6F3FF",
"=X c #E7F3FF",
"-X c #E8F2FD",
";X c #EAF2FC",
":X c #E8F3FE",
">X c #E8F3FF",
",X c #E9F4FE",
"<X c #E8F4FF",
"1X c #E9F4FF",
"2X c #EAF4FE",
"3X c #EAF4FF",
"4X c #EAF5FF",
"5X c #EBF5FF",
"6X c #EDF4FC",
"7X c #EEF5FD",
"8X c #EDF5FE",
"9X c #ECF5FF",
"0X c #EDF6FE",
"qX c #ECF6FF",
"wX c #EDF6FF",
"eX c #EFF7FF",
"rX c #F1F5FB",
"tX c AliceBlue",
"yX c #F1F8FF",
"uX c #F3F9FF",
"iX c #F4F8FD",
"pX c #F7FAFD",
"aX c #F4FAFF",
"sX c #F5FAFF",
"dX c #F8FCFF",
"fX c #F9FCFF",
"gX c None",
/* pixels */
"gXgXgXgXgXgXgXgXgXgXgXgXgXgXgXgXgXgXgXgXgXgXgXgXgXgXgXgXgXgXgXgX",
"gXgXgXgXgXgXgXgXgXgXgXgXgXgXgXgXgXgXgXgXgX.   gXgXgXgXgXgXgXgXgX",
"gXgXgXgXgXgXgXgXgXgXgXgXgXgXgXgXgXgXgXgX. R S   gXgXgXgXgXgXgXgX",
"gXgXgXgXgXgXgXgXgXgXgXgXgXgXgXgXgXgXgX. W B b C   gXgXgXgXgXgXgX",
"gXgXgXgXgXgXgXgXgXgXgXgXgXgXgXgXgXgX. E V v x k M   gXgXgXgXgXgX",
"gXgXgXgXgXgXgXgXgXgXgXgXgXgXgXgXgX. 6.Z c z g a h l   gXgXgXgXgX",
"gXgXgXgXgXgXgXgXgXgXgXgXgXgXgXgX. 7.F c j f i t w p d   gXgXgXgX",
"gXgXgXgXgXgXgXgXgXgXgXgXgXgXgX. 6.G v z s u 9 7 1 > q 4   gXgXgX",
"gXgXgXgXgXgXgXgXgXgXgXgXgXgX. Q H A N r 8 6 < : * y e 0 ;   gXgX",
"gXgXgXgXgXgXgXgXgXgXgXgXgXgX        T 8 6 < : * & e         gXgX",
"gXgXgXgXgXgXgXgXgXgXgXgXgXgXgXgXgX. Y 6 < : * & $ 0   gXgXgXgXgX",
"gXgXgXgXgXgXgXgXgXgXgXgXgXgXgXgXgX. U < : * & $ # 5   gXgXgXgXgX",
"/ / / / / / / / / / / / / / / / / . I : * & $ # @ 3   gXgXgXgXgX",
"/ (.P.b.J.`.'./.W.].).1XY.yX_.rXT.. P * & $ # @ + 2   gXgXgXgXgX",
"/ N.%XZ.D.U.Q.|..X-X;X1X=X9X6X8X1X. L & $ # @ + O ,   gXgXgXgXgX",
"/ =.$.9XE.F.~.|.+X*X<X3X5X9XqXqXwX. K $ # @ + O o -   gXgXgXgXgX",
"/ <Xw.} [.XXH.^..X#X=X1X4X5X9XqXwX. J # @ + O o X =   gXgXgXgXgX",
"/ <X!.a.[ m.3XY.^.XX&X>X3X5X5XqXqX. D 5 3 2 , - = %   gXgXgXgXgX",
"/ <X!.G.x.{ 0.tX X/.@X=X1X4X5X9XqX                    gXgXgXgXgX",
"/ <X!.G.v.f.X.| 7X3X}.#X>X1X4X5X3XeX7X| ..y.c.S.R.=Xn gXgXgXgXgX",
"/ <X!.G.v.f.3.-.~ B.yX.X&X<X1X1XuXB.~ o.2.y.c.S.R.=Xn gXgXgXgXgX",
"/ <X!.G.v.f.O.^ n. .r.fX1X@XqXfXr. .n._ ..y.c.S.R.=Xn gXgXgXgXgX",
"/ <X!.G.p.) *.iXsX9X=.+.pXdXpX+.=.9XaXiX*.) e.S.R.=Xn gXgXgXgXgX",
"/ <X!.#.` V.aX5X5XwXwXM.] q.] M.wXwX5X5XaXV.' @.R.=Xn gXgXgXgXgX",
"/ K.( 0.yX2X:XqXwXwXwXwXOX=.OXwXwXwXwXqX:X,XyX0.( M.n gXgXgXgXgX",
"/ &.L.$X{.1XqXqXqXqXqXqXqXqXqXqXqXqXqXqXqX1X{.$XL.&.n gXgXgXgXgX",
"/ 0XA.I.oXoXoXoXoXoXoXoXoXoXoXoXoXoXoXoXoXoXoXI.C.0Xn gXgXgXgXgX",
"/ t.i.h.l.d.k.l.j.k.s.x.h.x.s.z.h.l.d.k.l.j.k.s.u.g.n gXgXgXgXgX",
"/ 5.%.;.:.8.9.:.,.9.4.<.;.1.4.%.;.:.8.9.:.,.9.4.<.>.n gXgXgXgXgX",
"! m n n n n n n n n n n n n n n n n n n n n n n n n n gXgXgXgXgX",
"gXgXgXgXgXgXgXgXgXgXgXgXgXgXgXgXgXgXgXgXgXgXgXgXgXgXgXgXgXgXgXgX",
"gXgXgXgXgXgXgXgXgXgXgXgXgXgXgXgXgXgXgXgXgXgXgXgXgXgXgXgXgXgXgXgX"
};
