/* XPM */
static const char *mail_forward_16x16_xpm[] = {
/* columns rows colors chars-per-pixel */
"16 16 87 1 ",
"  c #0D850D",
". c #009900",
"X c #0C9E0B",
"o c #0D9E0D",
"O c #3CB437",
"+ c #40B63A",
"@ c #41B63C",
"# c #299648",
"$ c #48BA42",
"% c #51BE4A",
"& c #50BB4D",
"* c #53BD4E",
"= c #58BE55",
"- c #56BB5F",
"; c #5AC252",
": c #5BC155",
"> c #5FC25A",
", c #63C55C",
"< c #6C92BF",
"1 c #6D93C0",
"2 c #7097C4",
"3 c #7EA7D4",
"4 c #8AD288",
"5 c #9CDB97",
"6 c #ADE1A8",
"7 c #ADE1AA",
"8 c #B6E5B1",
"9 c #96BCDF",
"0 c #9BBFE1",
"q c #9ABFE2",
"w c #90BBE8",
"e c #92BEEB",
"r c #9BC0E2",
"t c #9FC1E1",
"y c #ACC9E6",
"u c #B2CDE8",
"i c #B3CEE8",
"p c #B2CEE9",
"a c #B2D0ED",
"s c #B9D2EA",
"d c #BFD7EE",
"f c #C2DDF5",
"g c #C6DFF6",
"h c #CDDBF0",
"j c #C8DDF0",
"k c #C9DDF0",
"l c #C8DEF3",
"z c #CEDCF0",
"x c #C1DDF9",
"c c #CDE2F5",
"v c #D2E4F6",
"b c #D6E7F7",
"n c #D8E7F7",
"m c #D1E8FF",
"M c #DCECFB",
"N c #DFEDFA",
"B c #D9ECFF",
"V c #DFEEFD",
"C c #DDEEFF",
"Z c #E5EBF6",
"A c #EAEDF6",
"S c #EEEFF6",
"D c #EFEFF6",
"F c #E1EEFB",
"G c #E1F0FE",
"H c #E1F0FF",
"J c #E2F1FF",
"K c #E3F1FF",
"L c #E3F2FF",
"P c #E4F1FF",
"I c #E6F3FF",
"U c #E7F3FF",
"Y c #E8F3FE",
"T c #E9F4FE",
"R c #E9F4FF",
"E c #EAF4FF",
"W c #EAF5FF",
"Q c #EBF5FF",
"! c #EEF5FD",
"~ c #EEF6FD",
"^ c #ECF5FF",
"/ c #ECF6FF",
"( c #EDF6FF",
") c #EEF6FE",
"_ c #EFF7FF",
"` c #F0F0F6",
"' c None",
/* pixels */
"''''''''''''''''",
"eeeeeeeeeeeeew''",
"eAmZCSJ`K`KDJ2''",
"eiMBHUW^((QNy<''",
"ec0bHPRQ/^n9l<''",
"eLgrkRIE_kqfG<''",
"eLayus!~suy.-<''",
"epj)/dttd/)..#''",
"eFVYTTv.ooo.5.''",
"ehxzxzx.85555>.'",
"31<<<<<.6;%$+O= ",
"'''''''.7,:*@& '",
"'''''''     4 ''",
"'''''''''''. .''",
"''''''''''' X'''",
"''''''''''''''''"
};
