/* XPM */
static const char *mail_24x24_xpm[] = {
/* columns rows colors chars-per-pixel */
"24 24 155 2 ",
"   c #6C92BF",
".  c #6D93C0",
"X  c #7299C6",
"o  c #88B3E0",
"O  c #8AB5E2",
"+  c #92BEEB",
"@  c #9BC0E2",
"#  c #9DC0E1",
"$  c #9EC0E1",
"%  c #9CC0E3",
"&  c #9FC3E4",
"*  c #9FC8F2",
"=  c #A0C2E3",
"-  c #A1C3E3",
";  c #A2C4E3",
":  c #A3C4E3",
">  c #A0C3E4",
",  c #A9C8E5",
"<  c #AAC8E6",
"1  c #ACC9E5",
"2  c #AFCCE7",
"3  c #A4C7E9",
"4  c #A7C6EB",
"5  c #A6C8E9",
"6  c #A4C8EB",
"7  c #A6C9EB",
"8  c #AECBE8",
"9  c #AACCEC",
"0  c #ACCDED",
"q  c #B0CDE8",
"w  c #B1CEEA",
"e  c #B4CFEA",
"r  c #B4D0EA",
"t  c #B5D2ED",
"y  c #B6D2ED",
"u  c #BED0EA",
"i  c #B9D3EF",
"p  c #BDD5EC",
"a  c #BDD6EE",
"s  c #A0CCF7",
"d  c #A5CFF8",
"f  c #A6CEF8",
"g  c #A8D0F7",
"h  c #ACD2F6",
"j  c #B0D3F5",
"k  c #BCDBF8",
"l  c #C4C9DE",
"z  c #C9CBDF",
"x  c #C8CCDF",
"c  c #C3CEE5",
"v  c #C2D8EE",
"b  c #CADCEF",
"n  c #C2D9F0",
"m  c #C0D9F2",
"M  c #C5DBF0",
"N  c #C4DCF3",
"B  c #C5DEF6",
"V  c #C7DFF6",
"C  c #CBDEF0",
"Z  c #CBDFF2",
"A  c #C0DDF9",
"S  c #C5DFF9",
"D  c #C7DFF8",
"F  c #CCE0F2",
"G  c #C7E1FA",
"H  c #C7E3FF",
"J  c #C8E1F8",
"K  c #CBE2F8",
"L  c #CAE2F9",
"P  c #CAE2FA",
"I  c #CAE3FB",
"U  c #D0E2F2",
"Y  c #DBE9F7",
"T  c #D1E5F9",
"R  c #D0E5FA",
"E  c #D1E6FA",
"W  c #D2E6FA",
"Q  c #D5E7FB",
"!  c #D0E7FC",
"~  c #D5E8FB",
"^  c #D3E8FC",
"/  c #DAE9FB",
"(  c #DCEAF9",
")  c #D8E9FD",
"_  c #D9ECFD",
"`  c #D8ECFF",
"'  c #DBEDFE",
"]  c #DAECFF",
"[  c #DFEEFC",
"{  c #DCEDFF",
"}  c #DDEEFF",
"|  c #DEEEFF",
" . c #DEEFFF",
".. c #DFEFFF",
"X. c #E7E5EF",
"o. c #EDE8EF",
"O. c #EFE9EF",
"+. c #EFECF3",
"@. c #EDEFF7",
"#. c #E0ECF9",
"$. c #E2EEFB",
"%. c #E2EFFD",
"&. c #E0EFFE",
"*. c #F1EDF3",
"=. c #E7F0F8",
"-. c #E0F0FF",
";. c #E1F0FF",
":. c #E3F0FF",
">. c #E2F1FF",
",. c #E3F1FF",
"<. c #E5F0FC",
"1. c #E7F2FD",
"2. c #E5F1FE",
"3. c #E4F1FF",
"4. c #E4F2FF",
"5. c #E5F2FF",
"6. c #E7F2FE",
"7. c #E6F2FF",
"8. c #E7F3FF",
"9. c #E8F2FC",
"0. c #E8F2FD",
"q. c #E8F3FD",
"w. c #E8F3FE",
"e. c #E9F3FE",
"r. c #E9F3FF",
"t. c #EBF4FD",
"y. c #E8F4FF",
"u. c #E9F4FF",
"i. c #EAF4FF",
"p. c #EAF5FF",
"a. c #EBF5FF",
"s. c #EEF5FD",
"d. c #EFF6FD",
"f. c #ECF4FE",
"g. c #EDF5FE",
"h. c #ECF5FF",
"j. c #ECF6FF",
"k. c #EDF6FF",
"l. c #EEF6FF",
"z. c #EEF7FF",
"x. c #EFF7FF",
"c. c #F0F1F7",
"v. c #F1F8FF",
"b. c #F2F9FF",
"n. c #F3F9FF",
"m. c #F4FAFF",
"M. c #F5FAFF",
"N. c #F7FBFF",
"B. c #FBF9FB",
"V. c #F8FAFD",
"C. c #FAFCFF",
"Z. c #FEFDFD",
"A. c #FEFEFF",
"S. c white",
"D. c None",
/* pixels */
"D.D.D.D.D.D.D.D.D.D.D.D.D.D.D.D.D.D.D.D.D.D.D.D.",
"D.D.D.D.D.D.D.D.D.D.D.D.D.D.D.D.D.D.D.D.D.D.D.D.",
"D.D.D.D.D.D.D.D.D.D.D.D.D.D.D.D.D.D.D.D.D.D.D.D.",
"+ + + + + + + + + + + + + + + + + + + + + + + O ",
"+ O.3.H / X.} ] @.+.,. .*.c...4.*.c.` >.o.B.7.. ",
"+ b j.u.| )  .,.6.e.u.u.f.g.a.h.g.f.3.x.Z.S.C   ",
"+ n 8 1.k.7.{ -.7.y.i.a.h.j.k.k.a.u.m.A.V.1 a   ",
"+ 5.N - ( k.p.;.;.8.u.p.a.j.j.i.a.M.C.=.$ m 4.  ",
"+ 5.' K % M k.j.5.;.8.u.a.a.y.k.m.N.C @ J _ 4.  ",
"+ 5.' ^ I 5 8 1.k.r.:.8.u.8.k.b.s.q 3 G ! _ 4.  ",
"+ 5.' ^ I A 7 # ( k.h.5.7.k.v.#.# 6 k G ! _ 4.  ",
"+ 5.' ^ I 0 = U < Z k.k.z.x.F < U = 9 G ! _ 4.  ",
"+ 5.' V > p d.M.t.w e 0.q.r w t.M.d.p & B _ 4.  ",
"+ 5.y : Y m.n.j.7.u.Z ; ; Z u.7.j.n.m.Y : t [   ",
"+ , v n.n.l.7.7.h.k.k.$.$.k.k.h.7.7.l.n.n.v 2   ",
"+ 9.l.h.2.&.2.w.w.w.w.w.w.w.w.w.w.2.&.2.h.l.9.  ",
"+ <.~ S L T E E W W E E W W E E W W R P D Q %.  ",
"+ z * s i x h g u c h g c u g h c u d j l 4 f   ",
"o X                                             ",
"D.D.D.D.D.D.D.D.D.D.D.D.D.D.D.D.D.D.D.D.D.D.D.D.",
"D.D.D.D.D.D.D.D.D.D.D.D.D.D.D.D.D.D.D.D.D.D.D.D.",
"D.D.D.D.D.D.D.D.D.D.D.D.D.D.D.D.D.D.D.D.D.D.D.D.",
"D.D.D.D.D.D.D.D.D.D.D.D.D.D.D.D.D.D.D.D.D.D.D.D.",
"D.D.D.D.D.D.D.D.D.D.D.D.D.D.D.D.D.D.D.D.D.D.D.D."
};
