/* XPM */
static const char *mail_send_24x24_xpm[] = {
/* columns rows colors chars-per-pixel */
"24 24 169 2 ",
"   c #0D850D",
".  c #009900",
"X  c #32B02D",
"o  c #34B031",
"O  c #35B033",
"+  c #3AB435",
"@  c #3CB438",
"#  c #42B73C",
"$  c #44B73F",
"%  c #41B440",
"&  c #45B642",
"*  c #47B746",
"=  c #4ABB43",
"-  c #4CBB46",
";  c #4EBA4C",
":  c #52BF4B",
">  c #53BF4D",
",  c #54BD51",
"<  c #57BE54",
"1  c #5BC057",
"2  c #5CC354",
"3  c #5EC95E",
"4  c #61C55B",
"5  c #61C35D",
"6  c #65C55F",
"7  c #64C460",
"8  c #68C563",
"9  c #6BC864",
"0  c #70C96B",
"q  c #73CB6C",
"w  c #72C96E",
"e  c #75CD6D",
"r  c #76CD6E",
"t  c #7CCE77",
"y  c #82D17D",
"u  c #84D37D",
"i  c #6C92BF",
"p  c #779FCC",
"a  c #88D481",
"s  c #8BD583",
"d  c #8BD684",
"f  c #85DD85",
"g  c #86DD86",
"h  c #87DD87",
"j  c #92D88C",
"k  c #96DA90",
"l  c #A0EF9F",
"z  c #ABE9A7",
"x  c #ACE9A8",
"c  c #AEEAA9",
"v  c #AFEAAB",
"b  c #B0EAAC",
"n  c #A2F0A1",
"m  c #A3F0A2",
"M  c #A5F1A4",
"N  c #A7F2A5",
"B  c #A8F3A7",
"V  c #91B8DD",
"C  c #94BBDF",
"Z  c #95BBDF",
"A  c #97BCDF",
"S  c #92BEEB",
"D  c #9EC0E1",
"F  c #9FC1E1",
"G  c #9FC2E3",
"H  c #9BC0E4",
"J  c #9CC1E4",
"K  c #A2C4E3",
"L  c #A3C4E3",
"P  c #A5C5E3",
"I  c #A8C8E5",
"U  c #A9C8E5",
"Y  c #A6C8E8",
"T  c #A9CAE9",
"R  c #ACCBE9",
"E  c #AECCE8",
"W  c #B1CFEB",
"Q  c #B4CFEA",
"!  c #B0D0EF",
"~  c #B2D1EF",
"^  c #B8D1EA",
"/  c #BBD4EC",
"(  c #BFD7EE",
")  c #ABD1F7",
"_  c #AFD3F7",
"`  c #A8D0F8",
"'  c #ABD2F8",
"]  c #B7D2F1",
"[  c #BAD7F2",
"{  c #BDD8F2",
"}  c #BEDBF7",
"|  c #C5CFE6",
" . c #C9CDE2",
".. c #CDCFE2",
"X. c #C0D1EB",
"o. c #C6DBEE",
"O. c #C8DCEE",
"+. c #CADDF0",
"@. c #C2DDF8",
"#. c #CFE1F2",
"$. c #CCE4FB",
"%. c #CEE4FA",
"&. c #CFE4FA",
"*. c #CEE6FF",
"=. c #D9E8F7",
"-. c #DDEAF6",
";. c #D2E5F9",
":. c #D0E6FC",
">. c #D5E8FB",
",. c #D6E8FB",
"<. c #D1E8FF",
"1. c #D3E9FF",
"2. c #D7EAFD",
"3. c #D5EAFF",
"4. c #D7EBFF",
"5. c #DCEBF8",
"6. c #DEEBF8",
"7. c #DAEBFE",
"8. c #D9ECFE",
"9. c #DBEDFF",
"0. c #DFEEFC",
"q. c #DFEEFD",
"w. c #DDEEFF",
"e. c #DEEEFF",
"r. c #DFEFFF",
"t. c #EBE8EF",
"y. c #E5E8F3",
"u. c #EDEFF7",
"i. c #E2EDFB",
"p. c #E2EEFB",
"a. c #E4EEF9",
"s. c #E0EFFD",
"d. c #E1EFFD",
"f. c #F1EEF3",
"g. c #EEF0F7",
"h. c #E1F0FF",
"j. c #E2F0FF",
"k. c #E3F1FF",
"l. c #E3F2FF",
"z. c #E5F1FD",
"x. c #E7F2FD",
"c. c #E5F2FF",
"v. c #E7F2FE",
"b. c #E7F3FE",
"n. c #E6F2FF",
"m. c #E6F3FF",
"M. c #E7F3FF",
"N. c #EAF1FB",
"B. c #EDF4FB",
"V. c #E8F2FC",
"C. c #E8F3FF",
"Z. c #E9F4FE",
"A. c #E8F4FF",
"S. c #E9F4FF",
"D. c #EAF4FF",
"F. c #EAF5FF",
"G. c #EBF5FF",
"H. c #ECF5FE",
"J. c #ECF5FF",
"K. c #ECF6FF",
"L. c #EDF6FF",
"P. c #EEF6FF",
"I. c #F1F8FF",
"U. c #F2F8FF",
"Y. c #F3F9FF",
"T. c #F5F9FD",
"R. c #F4FAFF",
"E. c #F6FBFF",
"W. c None",
/* pixels */
"W.W.W.W.W.W.W.W.W.W.W.W.W.W.W.W.W.  W.W.W.W.W.W.",
"W.W.W.W.W.W.W.W.W.W.W.W.W.W.W.W.. 3   W.W.W.W.W.",
"W.W.W.W.W.W.W.W.W.W.W.W.W.W.W.. g b t   W.W.W.W.",
"W.W.W.W.W.W.W.W.W.W.W.W.W.W.. f x d j 0   W.W.W.",
"W.W.W.W.W.W.W.W.W.W.W.W.W.. f z u r q y 7   W.W.",
"W.W.W.W.W.W.W.W.W.W.W.W.. g c s e 9 4 6 w <   W.",
"W.W.W.W.W.W.W.W.W.W.W.. h v k a 2 : > 8 5 1 &   ",
"W.W.W.W.W.W.W.W.W.W.W.        B : = - 5         ",
"W.W.W.W.W.W.W.W.W.W.W.W.W.W.. N = # $ 1   W.W.W.",
"S S S S S S S S S S S S S S . M # + @ ,   W.W.W.",
"S t.*.1.y.i.3.u.g.e.N.f.c.c.. m + X o ;   W.W.W.",
"S +.n.<.7.r.j.v.Z.S.G.H.K.K.. n @ o O *   W.W.W.",
"S U E z.4.9.h.c.A.D.G.K.L.L.. l , ; * %   W.W.W.",
"S s.G L p.e.w.k.M.S.G.J.K.L.              W.W.W.",
"S c.8.T A =.M.r.c.C.D.G.J.G.P.=.A Y 2.l.i W.W.W.",
"S c.8.:.~ V #.J.j.m.S.F.D.I.#.V ! $.2.l.i W.W.W.",
"S c.8.:.@.J V ^ R.M.m.G.E.^ V H } $.2.l.i W.W.W.",
"S c.8.{ Z o.B.K P T.Y.T.P K B.o.C [ 2.l.i W.W.W.",
"S s.W D -.U.G.x.Q F O.F Q x.G.U.a.D R 0.i W.W.W.",
"S U / V.b.F.L.L.L.( V ( L.L.L.F.b.V./ I i W.W.W.",
"S 6.d.q.Z.D.D.D.D.D.D.D.D.D.D.D.Z.s.d.5.i W.W.W.",
"S ;.%.>.>.>.>.>.>.>.>.>.>.>.,.>.>.>.%.&.i W.W.W.",
"S .._ _ | ] ` X.X.) ] | _ _  .] ) X.X.' i W.W.W.",
"p i i i i i i i i i i i i i i i i i i i i W.W.W."
};
