/* XPM */
static const char *mail_forward_64x64_xpm[] = {
/* columns rows colors chars-per-pixel */
"64 64 178 2 ",
"   c #16A513",
".  c #1AA617",
"X  c #1DA61A",
"o  c #22A91F",
"O  c #2A8D2A",
"+  c #2F922F",
"@  c #359C33",
"#  c #389C36",
"$  c #349633",
"%  c #24AA21",
"&  c #29AC26",
"*  c #2EAE2A",
"=  c #31AF2C",
"-  c #2AB128",
";  c #34B12F",
":  c #38AA37",
">  c #39A139",
",  c #39AD38",
"<  c #35A634",
"1  c #36B332",
"2  c #3BB436",
"3  c #3BB438",
"4  c #3AB838",
"5  c #41A03E",
"6  c #40B63B",
"7  c #44B93E",
"8  c #46A243",
"9  c #49A346",
"0  c #4DA449",
"q  c #4FAF4F",
"w  c #52A64E",
"e  c #46B941",
"r  c #4BBB44",
"t  c #4FBD49",
"y  c #52BE4C",
"u  c #57BF52",
"i  c #58BF54",
"p  c #5CBD59",
"a  c #62B060",
"s  c #4BC346",
"d  c #4FC449",
"f  c #46C142",
"g  c #54C14D",
"h  c #5CC255",
"j  c #57C951",
"k  c #5CCB55",
"l  c #5FC35A",
"z  c #63C55C",
"x  c #62CE5B",
"c  c #6AC95F",
"v  c #67C562",
"b  c #68C762",
"n  c #6CCA64",
"m  c #6CC46C",
"M  c #6CC96A",
"N  c #74CD66",
"B  c #70C76F",
"V  c #73CC6C",
"C  c #74D16B",
"Z  c #77CE70",
"A  c #7ACF72",
"S  c #73C277",
"D  c #7ED175",
"F  c #80D575",
"G  c #83D37B",
"H  c #89D97E",
"J  c #86D87B",
"K  c #669D89",
"L  c #7FC688",
"P  c #7AC382",
"I  c #8BD683",
"U  c #8ED984",
"Y  c #8DD988",
"T  c #91DA87",
"R  c #93DB8C",
"E  c #99DF8E",
"W  c #92D68E",
"Q  c #8DD392",
"!  c #92D695",
"~  c #90D890",
"^  c #9BDE93",
"/  c #97D89A",
"(  c #98EC94",
")  c #93C9AD",
"_  c #95ADC8",
"`  c #9FB4CB",
"'  c #9DB1C6",
"]  c #A1B4CB",
"[  c #A7B9CF",
"{  c #ABB8D6",
"}  c #BABCD3",
"|  c #8FBDED",
" . c #C7B9C6",
".. c #C8B9C7",
"X. c #C8BAC8",
"o. c #C1BCD1",
"O. c #A7C4D7",
"+. c #B5CFD7",
"@. c #B6C2DB",
"#. c #BDD1D5",
"$. c #BEE2CF",
"%. c #94C1ED",
"&. c #9FC8EF",
"*. c #9AC7F1",
"=. c #AAC9E7",
"-. c #A2C5E9",
";. c #A6CAED",
":. c #AACCEC",
">. c #BCCAE3",
",. c #B4CFEE",
"<. c #BBCEE9",
"1. c #B6D1EE",
"2. c #BCD3ED",
"3. c #A4CCF2",
"4. c #ABCFF3",
"5. c #ADD1F4",
"6. c #A3D1FE",
"7. c #ACD4FC",
"8. c #B4D5F5",
"9. c #BCD6F2",
"0. c #BBD9F6",
"q. c #B7D9FA",
"w. c #BCDBF8",
"e. c #D1CEDE",
"r. c #C3E3CC",
"t. c #C8E7CF",
"y. c #C5E5D1",
"u. c #C8E7D3",
"i. c #CFEBD2",
"p. c #C0CBE2",
"a. c #CECFE0",
"s. c #D2CFE1",
"d. c #CED6E9",
"f. c #CBD9ED",
"g. c #C2DBE0",
"h. c #D1D8ED",
"j. c #D6D3E3",
"k. c #C0D6F1",
"l. c #C3DCF3",
"z. c #CADDF3",
"x. c #C2DEF9",
"c. c #CBE3E6",
"v. c #C8E1EC",
"b. c #C7E2E4",
"n. c #D4E7E6",
"m. c #D6E9E6",
"M. c #D8E9E7",
"N. c #D8EAE8",
"B. c #D2EDEC",
"V. c #C6E0F1",
"C. c #CCE1F4",
"Z. c #C6E0FA",
"A. c #CCE4FB",
"S. c #C6EAFF",
"D. c #D2E3F5",
"F. c #D9E5F4",
"G. c #DCE9F7",
"H. c #D2E6FB",
"J. c #D5E9FD",
"K. c #DBEDFD",
"L. c #D5F3FF",
"P. c #DDF2FF",
"I. c #DFF8FF",
"U. c #E3EDF6",
"Y. c #EDECF4",
"T. c #E2EEFC",
"R. c #E8EFF8",
"E. c #F0EEFB",
"W. c #E4F2FF",
"Q. c #ECF5FF",
"!. c #E2FAFF",
"~. c #EEFDFF",
"^. c #F9F0F7",
"/. c #F1F7FE",
"(. c #FEF5FB",
"). c #F4FAFF",
"_. c #FCFEFF",
"`. c None",
/* pixels */
"`.`.`.`.`.`.`.`.`.`.`.`.`.`.`.`.`.`.`.`.`.`.`.`.`.`.`.`.`.`.`.`.`.`.`.`.`.`.`.`.`.`.`.`.`.`.`.`.`.`.`.`.`.`.`.`.`.`.`.`.`.`.`.`.",
"`.`.`.`.`.`.`.`.`.`.`.`.`.`.`.`.`.`.`.`.`.`.`.`.`.`.`.`.`.`.`.`.`.`.`.`.`.`.`.`.`.`.`.`.`.`.`.`.`.`.`.`.`.`.`.`.`.`.`.`.`.`.`.`.",
"`.`.`.`.`.`.`.`.`.`.`.`.`.`.`.`.`.`.`.`.`.`.`.`.`.`.`.`.`.`.`.`.`.`.`.`.`.`.`.`.`.`.`.`.`.`.`.`.`.`.`.`.`.`.`.`.`.`.`.`.`.`.`.`.",
"`.`.`.`.`.`.`.`.`.`.`.`.`.`.`.`.`.`.`.`.`.`.`.`.`.`.`.`.`.`.`.`.`.`.`.`.`.`.`.`.`.`.`.`.`.`.`.`.`.`.`.`.`.`.`.`.`.`.`.`.`.`.`.`.",
"`.`.`.`.`.`.`.`.`.`.`.`.`.`.`.`.`.`.`.`.`.`.`.`.`.`.`.`.`.`.`.`.`.`.`.`.`.`.`.`.`.`.`.`.`.`.`.`.`.`.`.`.`.`.`.`.`.`.`.`.`.`.`.`.",
"`.`.`.`.`.`.`.`.`.`.`.`.`.`.`.`.`.`.`.`.`.`.`.`.`.`.`.`.`.`.`.`.`.`.`.`.`.`.`.`.`.`.`.`.`.`.`.`.`.`.`.`.`.`.`.`.`.`.`.`.`.`.`.`.",
"`.`.`.`.`.`.`.`.`.`.`.`.`.`.`.`.`.`.`.`.`.`.`.`.`.`.`.`.`.`.`.`.`.`.`.`.`.`.`.`.`.`.`.`.`.`.`.`.`.`.`.`.`.`.`.`.`.`.`.`.`.`.`.`.",
"`.`.`.`.`.`.`.`.`.`.`.`.`.`.`.`.`.`.`.`.`.`.`.`.`.`.`.`.`.`.`.`.`.`.`.`.`.`.`.`.`.`.`.`.`.`.`.`.`.`.`.`.`.`.`.`.`.`.`.`.`.`.`.`.",
"`.`.`.`.`.`.`.`.`.`.`.`.`.`.`.`.`.`.`.`.`.`.`.`.`.`.`.`.`.`.`.`.`.`.`.`.`.`.`.`.`.`.`.`.`.`.`.`.`.`.`.`.`.`.`.`.`.`.`.`.`.`.`.`.",
"`.`.8.:.;.:.1.<.>.>.1.2.:.3.,.2.<.>.p.2.9.:.:.1.2.<.p.p.2.9.:.:.1.2.2.p.p.2.2.:.:.8.2.2.p.p.2.2.:.:.1.2.2.p.p.`.`.`.`.`.`.`.`.`.",
"`.F.!.S.L.!.W.Q.Y.Q.~.!.L.I.).)./.(._._.).I.I.)._._.(._._.).!.!._._._.(._._._.!.!.)._._.(._._._.!.!.)._._.^._.O.`.`.`.`.`.`.`.`.",
"`.K.W.S.Z.J.J.F.F.K.K.J.H.K.W.W.Y.Y.W.Q.P.K.W.Q.Q.Y.Y.Q.~.W.K.W.~./.Y.Y.Q.~.W.K.W././.Y.Y.Q.~.W.K.W./.Q.Y.Y._.[ `.`.`.`.`.`.`.`.",
"`.z.Q.Q.K.A.J.J.J.K.K.J.K.P.W.T.R.T.W.W.W.W.W.Q.Q.Y.Q.Q.Q.W.W.Q.Q.Q./.Q.Q.Q.W.W.Q.Q.Q.Y./.Q.Q.Q.Q.Q.Q.W.Q./.Q._ `.`.`.`.`.`.`.`.",
"`.D.J.T.).W.H.A.J.J.J.K.P.K.T.T.T.W.W.Q.W.Q.Q.Q.Q.Q.Q.Q.Q.Q.~.Q.Q.Q.Q.Q.Q./.).Q.Q.).~.Q.Q.Q.Q./.Q.Q.W./.~.D.P.] `.`.`.`.`.`.`.`.",
"`.F.W.C.G.).Q.J.S.J.K.K.K.K.K.W.W.W.W.Q.W.Q.W.Q.Q.Q.Q.W.Q.~.Q.Q.Q.Q.Q.Q.Q.Q.Q.Q.Q.Q.).Q././.Q.Q.Q.W.).Q.l.H.).] `.`.`.`.`.`.`.`.",
"`.H.!.W.H.D./.Q.K.A.J.K.K.K.T.P.W.W.W.W.W.W.Q.Q.W.Q.Q.Q.Q.Q.Q.Q.Q./.Q././.Q./.Q.Q.Q.Q.Q.Q.Q.Q.W.Q.).U.l.K.W.~.] `.`.`.`.`.`.`.`.",
"`.H.!.K.T.H.C.Q.).W.A.J.K.K.K.T.W.W.W.W.W.W.Q.Q.Q.W.Q.Q.Q.Q.Q.Q.Q.Q.Q.Q.Q.Q.Q.Q./.Q./.Q.Q.Q.Q.Q.).G.l.K.K.P.~.` `.`.`.`.`.`.`.`.",
"`.J.Q.K.K.K.J.z.W.).W.J.J.K.K.P.W.K.W.W.W.W.Q.W.Q.Q.Q.Q.Q.Q.Q.Q.Q.Q.).Q.~./.Q./.Q.Q.Q./.W.W.~.).D.l.K.K.K.W.~.] `.`.`.`.`.`.`.`.",
"`.H.Q.K.K.K.J.H.l.G.).Q.J.J.K.K.K.W.W.W.W.W.W.W.Q.W.Q.Q.Q.Q.Q.Q.Q.~.Q./.Q.Q.Q.Q.Q.Q.Q.W.Q./.Q.v.x.J.J.K.K.P.~.] `.`.`.`.`.`.`.`.",
"`.H.W.P.K.J.J.J.H.x.D.).).K.J.K.K.W.K.W.W.W.W.Q.Q.W.Q.W.Q.Q.Q.Q.Q.Q.Q.Q.Q././.Q./.Q.Q.Q._.W.0.Z.J.H.J.J.K.W.~.] `.`.`.`.`.`.`.`.",
"`.H.Q.K.K.J.J.J.H.A.w.V.Q._.W.J.K.W.K.W.W.W.W.Q.Q.Q.W.Q.Q.Q.Q.Q.Q.Q.Q.Q.Q.Q.~./.Q.W./._.G.8.Z.H.H.H.J.K.K.P.~.] `.`.`.`.`.`.`.`.",
"`.H.Q.P.K.K.J.A.A.Z.C.w.k.W.).Q.J.J.W.T.W.W.W.W.W.Q.Q.Q.Q.Q.Q.Q.Q.Q.~.Q.Q.Q.Q.W.Q.).).D.1.Z.Z.C.A.J.J.K.K.W.~.] `.`.`.`.`.`.`.`.",
"`.H.!.K.K.K.J.H.A.A.Z.Z.0.8.G._.).K.K.T.W.W.W.W.Q.W.W.Q.Q.W.W.Q.Q.Q.Q.Q.Q.Q.Q.Q._./.k.8.x.Z.Z.A.H.H.J.K.K.W.~.] `.`.`.`.`.`.`.`.",
"`.H.W.K.K.K.H.J.H.Z.Z.x.w.0.5.D.).).W.K.T.W.W.W.W.W.Q.W.Q.Q.Q.Q.Q.Q.Q.Q.Q.Q.Q._.R.8.5.w.w.Z.Z.S.H.J.J.K.K.P.~.] `.`.`.`.`.`.`.`.",
"`.H.Q.K.K.J.J.J.A.Z.Z.x.w.0.q.4.l./._.W.K.T.W.W.W.W.Q.W.Q.Q.Q.Q.Q.Q.Q.W././._.G.:.5.q.0.w.Z.Z.A.H.J.J.K.K.P.~.] `.`.`.`.`.`.`.`.",
"`.H.Q.K.K.K.J.H.A.A.Z.x.w.0.8.8.3.8.Q._.).K.K.W.W.Q.W.Q.W.Q.Q.Q.Q.Q.W./._._.C.3.5.8.q.q.0.Z.Z.A.A.H.J.K.K.W.~.] `.`.`.`.`.`.`.`.",
"`.J.!.K.K.K.J.H.A.A.Z.x.w.q.8.8.5.3.;.G._.).W.K.W.W.W.Q.Q.Q.Q.Q.W.W./._./.9.*.4.5.8.q.0.w.Z.Z.C.H.J.J.K.K.W.~.] `.`.`.`.`.`.`.`.",
"`.H.Q.K.K.J.J.J.A.Z.Z.x.w.q.8.5.5.3.%.f.R._._.Q.T.W.W.W.W.Q.W.W.Q._._.Q.F.:.*.4.5.5.q.0.w.Z.Z.H.H.H.J.K.K.P.~.] `.`.`.`.`.`.`.`.",
"`.H.!.K.K.K.J.H.H.A.Z.x.0.0.8.8.3.4.R._._.F./._.).K.W.W.W.Q.W.Q._._.G.U._._.f.;.5.8.q.0.w.Z.l.) V.K.J.K.K.P.).] `.`.`.`.`.`.`.`.",
"`.H.Q.K.K.K.J.H.A.A.Z.x.w.0.8.:.z._._._.W.T.G./._._.W.W.W.W./._._.G.F.W./._._.U.1.5.q.q.w.Z.l.R L V.K.H.K.P.~.] `.`.`.`.`.`.`.`.",
"`.H.Q.K.K.K.H.H.A.A.Z.x.x.8.8.R._._./.W.W./.Q.G.R._._.Q.W._._.).F.W.).Q.W.W._._._.f.4.q.x.Z.0./ N P v.P.J.W.~.] `.`.`.`.`.`.`.`.",
"`.H.W.P.K.K.J.H.A.Z.Z.Z.8.z.)._._.W.W.Q./.Q.Q.).T.U._._._._./.F.Q.Q.Q.Q./.W.W.)._._.U.9.q.Z.l.! V N S v.W.P.).` `.`.`.`.`.`.`.`.",
"`.H.Q.K.K.K.J.H.A.A.x.9.U._._.).W.W.~.Q.Q.Q.Q.Q./.W.U.)._.R.F.~.Q.Q.Q.Q.Q.Q.Q.W.Q./._._.f.0.k.! n M c m v.W.~.] `.`.`.`.`.`.`.`.",
"`.H.!.K.K.K.J.J.H.x.z./._._.W.W.Q./.Q././.Q./.Q.Q./.W.G.F.G.).Q./.)./.).).Q./.).Q.Q./._._.Q.l.Q c b b z v b.).' `.`.`.`.`.`.`.`.",
"`.H.Q.K.K.J.J.A.l.U._._.Q.W.Q.Q./.Q.Q.Q.Q.Q.Q././.Q.Q./.~.Q.Q.U.r.t.y.t.y.y.t.t.t.r.r.t.t.i.r.~ z z z l h p B.{ `.`.`.`.`.`.`.`.",
"`.H.!.K.K.K.z.D.Q.)./.Q.W././.Q./.Q.Q.Q.).Q.Q.Q./.Q./.Q.Q.Q.).m.E R T T U H J F F F A C C n N C z z h h i y m K `.`.`.`.`.`.`.`.",
"`.J.Q.K.K.z.G.).).Q.Q.Q.Q.Q.Q.Q.Q./.Q.Q.Q./.Q./.Q.Q.Q.~.Q.Q.).M.^ T I I G G G A A Z V M a c z z z h i u y y u t `.`.`.`.`.`.`.`.",
"`.F.Q.H.D.W./.Q.Q.W.Q.Q./.Q./.Q.Q.Q.Q./.Q./.Q.Q.Q./.Q.Q.Q.Q.).M.^ Y I G G G A A Z V M M N c z z h h u u t t r t h `.`.`.`.`.`.`.",
"`.H.J.G././.Q.W.Q.Q.Q.Q./.Q.Q.Q.Q.Q.Q.Q.Q.Q.Q.Q.Q.Q.Q.Q.Q.Q.).m.^ I I G G A A Z V M n c c z z h i y y r r e e 3 3 g `.`.`.`.`.`.",
"`.V.Q.)./.W.W.W.Q.W.W.Q.W.Q.W.W.W.Q.W.Q.Q.W.Q.R.Q.Q.W.Q.W.W.Q.m.W G G G A A Z V N n n z z z u y r 7 7 2 , ; * = * * e @ `.`.`.`.",
"`.G.).W.W.T.W.T.W.T.W.T.T.W.W.W.W.U.T.T.W.T.T.W.W.W.T.W.W.K.Q.c.W G G D A Z V V n n z h y t 7 7 7 3 2 2 1 ; ; * * % % 4 # `.`.`.",
"`.K.W.K.K.K.G.K.K.K.K.K.K.K.K.G.K.K.K.K.K.K.K.K.K.G.G.K.K.G.K.c.R G G A Z V N n z i y t t 7 7 7 6 2 2 1 ; = * & % % o . 4 < `.`.",
"`.Z.J.D.H.C.A.C.A.A.H.D.D.D.D.H.H.D.A.H.H.D.D.D.H.H.A.A.A.C.H.g.T A A V V V c z g t t r 7 7 6 6 2 2 , ; = * * & % % X   1 > `.`.",
"`.0.C.d.f.Z.Z.w.8.x.x.z.d.f.x.x.q.q.x.x.z.d.f.x.Z.q.q.w.Z.z.h.#.R A A V V c g g y t r r 7 6 6 6 2 1 ; ; * & % % % X   1 # `.`.`.",
"`.2.j.e.9.q.7.6.7.q.0.s.s.9.q.7.6.7.q.w.a.e.k.8.7.6.7.q.0.a.s.+.I A Z V z g y y t r 7 7 7 6 6 ; 1 ; = = * % % % X   4 # `.`.`.`.",
"`.} X.} =.;.%.%.-.=.@...o.=.=.%.| -.=.@...o.=.=.%.| -.=.@. .o.O.I V V z g g y t t 7 7 7 6 6 6 1 ; = * & % % % X . 1 $ `.`.`.`.`.",
"`.`.`.`.`.`.`.`.`.`.`.`.`.`.`.`.`.`.`.`.`.`.`.`.`.`.`.`.`.`.`.`.^ M z g u y t t r 7 7 6 6 6 ; ; = * * % % % X . 3 + `.`.`.`.`.`.",
"`.`.`.`.`.`.`.`.`.`.`.`.`.`.`.`.`.`.`.`.`.`.`.`.`.`.`.`.`.`.`.`.R k g y t r r 7 7 6 6 1 ; ; * * * * & o % X X 3 O `.`.`.`.`.`.`.",
"`.`.`.`.`.`.`.`.`.`.`.`.`.`.`.`.`.`.`.`.`.`.`.`.`.`.`.`.`.`.`.`.( x x k k k j j g d s s f f 7 = & & o o X X 3 O `.`.`.`.`.`.`.`.",
"`.`.`.`.`.`.`.`.`.`.`.`.`.`.`.`.`.`.`.`.`.`.`.`.`.`.`.`.`.`.`.`.a w w w 0 0 9 0 9 9 8 8 8 > 8 p o % o o o 3 `.`.`.`.`.`.`.`.`.`.",
"`.`.`.`.`.`.`.`.`.`.`.`.`.`.`.`.`.`.`.`.`.`.`.`.`.`.`.`.`.`.`.`.`.`.`.`.`.`.`.`.`.`.`.`.`.`.`.B & o . o , `.`.`.`.`.`.`.`.`.`.`.",
"`.`.`.`.`.`.`.`.`.`.`.`.`.`.`.`.`.`.`.`.`.`.`.`.`.`.`.`.`.`.`.`.`.`.`.`.`.`.`.`.`.`.`.`.`.`.`.M o . % , `.`.`.`.`.`.`.`.`.`.`.`.",
"`.`.`.`.`.`.`.`.`.`.`.`.`.`.`.`.`.`.`.`.`.`.`.`.`.`.`.`.`.`.`.`.`.`.`.`.`.`.`.`.`.`.`.`.`.`.`.m . & , `.`.`.`.`.`.`.`.`.`.`.`.`.",
"`.`.`.`.`.`.`.`.`.`.`.`.`.`.`.`.`.`.`.`.`.`.`.`.`.`.`.`.`.`.`.`.`.`.`.`.`.`.`.`.`.`.`.`.`.`.`.m - : `.`.`.`.`.`.`.`.`.`.`.`.`.`.",
"`.`.`.`.`.`.`.`.`.`.`.`.`.`.`.`.`.`.`.`.`.`.`.`.`.`.`.`.`.`.`.`.`.`.`.`.`.`.`.`.`.`.`.`.`.`.`.B ; `.`.`.`.`.`.`.`.`.`.`.`.`.`.`.",
"`.`.`.`.`.`.`.`.`.`.`.`.`.`.`.`.`.`.`.`.`.`.`.`.`.`.`.`.`.`.`.`.`.`.`.`.`.`.`.`.`.`.`.`.`.`.`.q `.`.`.`.`.`.`.`.`.`.`.`.`.`.`.`.",
"`.`.`.`.`.`.`.`.`.`.`.`.`.`.`.`.`.`.`.`.`.`.`.`.`.`.`.`.`.`.`.`.`.`.`.`.`.`.`.`.`.`.`.`.`.`.`.`.`.`.`.`.`.`.`.`.`.`.`.`.`.`.`.`.",
"`.`.`.`.`.`.`.`.`.`.`.`.`.`.`.`.`.`.`.`.`.`.`.`.`.`.`.`.`.`.`.`.`.`.`.`.`.`.`.`.`.`.`.`.`.`.`.`.`.`.`.`.`.`.`.`.`.`.`.`.`.`.`.`.",
"`.`.`.`.`.`.`.`.`.`.`.`.`.`.`.`.`.`.`.`.`.`.`.`.`.`.`.`.`.`.`.`.`.`.`.`.`.`.`.`.`.`.`.`.`.`.`.`.`.`.`.`.`.`.`.`.`.`.`.`.`.`.`.`.",
"`.`.`.`.`.`.`.`.`.`.`.`.`.`.`.`.`.`.`.`.`.`.`.`.`.`.`.`.`.`.`.`.`.`.`.`.`.`.`.`.`.`.`.`.`.`.`.`.`.`.`.`.`.`.`.`.`.`.`.`.`.`.`.`.",
"`.`.`.`.`.`.`.`.`.`.`.`.`.`.`.`.`.`.`.`.`.`.`.`.`.`.`.`.`.`.`.`.`.`.`.`.`.`.`.`.`.`.`.`.`.`.`.`.`.`.`.`.`.`.`.`.`.`.`.`.`.`.`.`.",
"`.`.`.`.`.`.`.`.`.`.`.`.`.`.`.`.`.`.`.`.`.`.`.`.`.`.`.`.`.`.`.`.`.`.`.`.`.`.`.`.`.`.`.`.`.`.`.`.`.`.`.`.`.`.`.`.`.`.`.`.`.`.`.`.",
"`.`.`.`.`.`.`.`.`.`.`.`.`.`.`.`.`.`.`.`.`.`.`.`.`.`.`.`.`.`.`.`.`.`.`.`.`.`.`.`.`.`.`.`.`.`.`.`.`.`.`.`.`.`.`.`.`.`.`.`.`.`.`.`.",
"`.`.`.`.`.`.`.`.`.`.`.`.`.`.`.`.`.`.`.`.`.`.`.`.`.`.`.`.`.`.`.`.`.`.`.`.`.`.`.`.`.`.`.`.`.`.`.`.`.`.`.`.`.`.`.`.`.`.`.`.`.`.`.`."
};
