/* XPM */
static const char *mail_48x48_xpm[] = {
/* columns rows colors chars-per-pixel */
"48 48 66 1 ",
"  c #6A8FBB",
". c #6C92BF",
"X c #6E94C1",
"o c #7AA2CF",
"O c #86B0DD",
"+ c #8CB7E4",
"@ c #97BEE3",
"# c #99BFE3",
"$ c #92BEEB",
"% c #9CC1E3",
"& c #9EC4E9",
"* c #9DCCF9",
"= c #A3C4E4",
"- c #AAC9E6",
"; c #A4C7E9",
": c #A4C8EA",
"> c #ADCCEA",
", c #BFCCE5",
"< c #B3CEEA",
"1 c #BBCEE9",
"2 c #B6D3EE",
"3 c #BBD3EC",
"4 c #A6CFF7",
"5 c #A9CFF4",
"6 c #A2CEF8",
"7 c #ADD2F5",
"8 c #B3D4F4",
"9 c #BCD6F1",
"0 c #BBD8F5",
"q c #B7D8F9",
"w c #BBDBF8",
"e c #C9CADD",
"r c #D1C7D5",
"t c #C2CDE4",
"y c #C4D9EE",
"u c #CFDEEF",
"i c #D1D6E7",
"p c #C5DCF3",
"a c #C9DEF5",
"s c #C3DEF9",
"d c #CEE3F7",
"f c #C6E0FA",
"g c #CCE4FC",
"h c #D4E5F4",
"j c #D8E7F7",
"k c #D9E8F7",
"l c #D0E6FC",
"z c #D4E9FD",
"x c #DBECFD",
"c c #E3E0EB",
"v c #EEE6EB",
"b c #F2E7EB",
"n c #F4E9EB",
"m c #E1E7F4",
"M c #E2EAF7",
"N c #ECEDF4",
"B c #E2EEFA",
"V c #F3ECF0",
"C c #EEF0F7",
"Z c #E4F1FF",
"A c #ECF5FF",
"S c #F3F1F5",
"D c #F1F6FD",
"F c #F4F9FF",
"G c #FBFDFF",
"H c None",
/* pixels */
"HHHHHHHHHHHHHHHHHHHHHHHHHHHHHHHHHHHHHHHHHHHHHHHH",
"HHHHHHHHHHHHHHHHHHHHHHHHHHHHHHHHHHHHHHHHHHHHHHHH",
"HHHHHHHHHHHHHHHHHHHHHHHHHHHHHHHHHHHHHHHHHHHHHHHH",
"HHHHHHHHHHHHHHHHHHHHHHHHHHHHHHHHHHHHHHHHHHHHHHHH",
"HHHHHHHHHHHHHHHHHHHHHHHHHHHHHHHHHHHHHHHHHHHHHHHH",
"HHHHHHHHHHHHHHHHHHHHHHHHHHHHHHHHHHHHHHHHHHHHHHHH",
"HHHHHHHHHHHHHHHHHHHHHHHHHHHHHHHHHHHHHHHHHHHHHHHH",
"$$$$$$$$$$$$$&&&$$$$$$$$$$$$$$$$$$$$$$$&$$$$$OHH",
"$vcxzglZBbvAxzxAVvDAzzADnnFAzxFSnVFZzZFSnDAlxXHH",
"$SNzgggzxmMZxzZANCAAxZZZNCAAZZAACSAZZZACVAAxZ.HH",
"$uAAxgzzxxxZxZZZZAAAAAAAAADAAAAAAAAAZAAAZAAAf.HH",
"$h-ZAZggxxxxZZZZZAZAAAAAAAAAAFAAAAFAAAAAAAA%h.HH",
"$Al=kDAzlxxZxZZZZAZAAAAAAAAAAADDAFAAAAAADk%hA.HH",
"$Axx:yAAxlxxxZZZZAZAAAAAAAAAAAAAAAAAAADD3%zxA.HH",
"$Axxx2-ADZlzxxZZZAZZAAAAAAAAAADAAAAZAAZ=2xxxA.HH",
"$ABxxzs%zDZxxZZZZZZAAAAAAAAADDAAAAAADk%fzzzZA.HH",
"&AZxxzlf=fADZzxZZZZAZAAAAAAAAAAAZADDp=fllxxxA.HH",
"&Axxxzlgf><AAZxxZZZZAAAZAAAAAAAADFD>>fggzxxxA.HH",
"%xZxzzlgfs2%ZFDxZZZAAZZAAAAAAAAFFB%7sfglzxxxA.HH",
"&Zxxxzlgfsw7%uFFZxZZZZAAAAAAZAFFp#8wssfgzzxZA.HH",
"&Axxxllgfswq8&2DFZxZZZZAAACAFGA>%7wwsfgdlxxxA.HH",
"oAZxxzllfswq77%%ZGFBZZAZAZZFGZ=%578wwfflzzxxA.HH",
"&Axxxllgfsw8>%yD-hGGAZZZZAGGh-Fy%58wsfflzzxZA.HH",
"&AZxxzlgfsw:=ZGGD23FGDZZDGF33DGGZ>:qwfgllxxxA.HH",
"+ZZxxzlgf2%uGGGAAAd-CGGGGA-dAAAFGGu%8fgdzxxxA.HH",
"&Zxxxzlf:>DGFAZAAADB-hGGh-BDDAAZAGGD<;flzxxxA.HH",
"&Zxxxzw#kGGDZZAFADADD3==3AAAAADAAZAFFh%9zxxxA.HH",
"+xZxd=9AFDZZADAAAAAADAxxAADDAADAAAAZDGD3=gxxA.HH",
"%AZ9=kFDZZAADADAAAAAADADAAAAAAFAAAAAZZDFk;9BA.HH",
"%B=9AAAxZADAAAAAAAAFAAAAADADAAAAAAAFDZBZAD9%x.HH",
"&7kAZxxZZAAAAAAAAAAAAAAAAAAAAAAAAAAZAAZxkADZy.HH",
"%AAxhxZZZZZZZZZZZZZZZZZZZZZZZZZZZZZZZZZZxlzAF.HH",
"&ZsszxxxhxxzxzkxzxxxkxxzxxjxxzxxzxjzzxxzxhaaAXHH",
"$wwfsssssaafssssaassspsspasssssaaaassssaass0sXHH",
"&i,774571,1744581,874478,t85448<,1754571t854q.HH",
"$rr87*68tre86*58er18**71rr87*68tre86*78er386*.HH",
"+oX.............................X............ HH",
"HHHHHHHHHHHHHHHHHHHHHHHHHHHHHHHHHHHHHHHHHHHHHHHH",
"HHHHHHHHHHHHHHHHHHHHHHHHHHHHHHHHHHHHHHHHHHHHHHHH",
"HHHHHHHHHHHHHHHHHHHHHHHHHHHHHHHHHHHHHHHHHHHHHHHH",
"HHHHHHHHHHHHHHHHHHHHHHHHHHHHHHHHHHHHHHHHHHHHHHHH",
"HHHHHHHHHHHHHHHHHHHHHHHHHHHHHHHHHHHHHHHHHHHHHHHH",
"HHHHHHHHHHHHHHHHHHHHHHHHHHHHHHHHHHHHHHHHHHHHHHHH",
"HHHHHHHHHHHHHHHHHHHHHHHHHHHHHHHHHHHHHHHHHHHHHHHH",
"HHHHHHHHHHHHHHHHHHHHHHHHHHHHHHHHHHHHHHHHHHHHHHHH",
"HHHHHHHHHHHHHHHHHHHHHHHHHHHHHHHHHHHHHHHHHHHHHHHH",
"HHHHHHHHHHHHHHHHHHHHHHHHHHHHHHHHHHHHHHHHHHHHHHHH",
"HHHHHHHHHHHHHHHHHHHHHHHHHHHHHHHHHHHHHHHHHHHHHHHH"
};
