/* XPM */
static const char *multimedia_pause_48x48_xpm[] = {
/* columns rows colors chars-per-pixel */
"48 48 71 1 ",
"  c #24489C",
". c #264DA5",
"X c #284FA6",
"o c #274FA9",
"O c #2751AB",
"+ c #2853AE",
"@ c #2A5DAC",
"# c #2956B1",
"$ c #2A59B5",
"% c #2C5DBA",
"& c #2D61BF",
"* c #2E64C4",
"= c #306ACB",
"- c #2561D2",
"; c #2966D4",
": c #2B6AD6",
"> c #2E6ED9",
", c #356ED6",
"< c #336EDC",
"1 c #386FDF",
"2 c #3372D4",
"3 c #3971D7",
"4 c #3374DB",
"5 c #3D74D8",
"6 c #3679DE",
"7 c #387BDF",
"8 c #3E74E0",
"9 c #3A7EE1",
"0 c #4077D9",
"q c #4379DA",
"w c #4A7EDC",
"e c #4277E0",
"r c #467AE1",
"t c #4A7EE2",
"y c #3D83E3",
"u c #4D81DD",
"i c #5284DE",
"p c #4086E5",
"a c #4E81E2",
"s c #438AE6",
"d c #468EE9",
"f c #5385E3",
"g c #5689E3",
"h c #5B8CE4",
"j c #4790EA",
"k c #4A93EC",
"l c #4F9AEF",
"z c #5E91E6",
"x c #519EF1",
"c c #628FE4",
"v c #6394E6",
"b c #6A96E6",
"n c #6699E7",
"m c #6E99E6",
"M c #6A9EE9",
"N c #749DE6",
"B c #769FE8",
"V c #56A4F4",
"C c #5AA9F7",
"Z c #6EA2EB",
"A c #77A0E7",
"S c #7AA2E7",
"D c #73A4EB",
"F c #7CA4E8",
"G c #76ABEE",
"H c #79AFF0",
"J c #7CB3F1",
"K c #83BCF6",
"L c #8AC5FA",
"P c #8DC8FB",
"I c None",
/* pixels */
"IIIIIIIIIIIIIIIIIIIIIIIIIIIIIIIIIIIIIIIIIIIIIIII",
"IIIIIIIIIIIIIIIIIIIIIIIIIIIIIIIIIIIIIIIIIIIIIIII",
"IIIIIIIIIIIIIIIIIIIIIIIIIIIIIIIIIIIIIIIIIIIIIIII",
"IIIIIIIIIIIIIIIIIIIIIIIIIIIIIIIIIIIIIIIIIIIIIIII",
"IIIIII.. .......XXo IIIIII. ..........o IIIIIIII",
"IIIIII.SKFBBABNNmmcoIIIIII.SFSBNNNmmbbcoIIIIIIII",
"IIIIIIXKiiiiiiiuwwboIIIIIIXBwwwwwwwwwqcoIIIIIIII",
"IIIIII Swqqqq00qq0coIIIIIIXB0550303301coIIIIIIII",
"IIIIIIoFqqqqq00000hOIIIIIIoS5535033533hOIIIIIIII",
"IIIIIIOFqqqq000000hOIIIIIIoB3533333353g+IIIIIIII",
"IIIIIIOAqqqq000005g#IIIIIION3533333333i#IIIIIIII",
"IIIIIIOBq0q0000005f#IIIIIION33333331,3t+IIIIIIII",
"IIIIII+Nq000005555t#IIIIIIom333,333,,,r#IIIIIIII",
"IIIIII+Nq000050555t$IIIIIIOb33,331,3,,r$IIIIIIII",
"IIIIII#m0000505500t$IIIIII#b,53,,,,,,1r$IIIIIIII",
"IIIIII#m0055555531t$IIIIII#b1,,,,,,,33r%IIIIIIII",
"IIIIII#b0555555533t%IIIIII#c13,,,,,,,,t$IIIIIIII",
"IIIIII$b0005553503f%IIIIII#g;;--------8%IIIIIIII",
"IIIIII$c0555555333f%IIIIII$t----------5%IIIIIIII",
"IIIIII$h055555330,t%IIIIII$t----------e%IIIIIIII",
"IIIIII%h5555353,--w&IIIIII$e----------q&IIIIIIII",
"IIIIII%f55553;----t&IIIIII%e----------t&IIIIIIII",
"IIIIII%f555,------t&IIIIII$e----------u*IIIIIIII",
"IIIIII%u53;-------t&IIIIII%,----------a*IIIIIIII",
"IIIIII%t,---------f*IIIIII%1----------a*IIIIIIII",
"IIIIII*e----------f*IIIIII&1----------g*IIIIIIII",
"IIIIII%8----------g*IIIIII*1----------g*IIIIIIII",
"IIIIII&8----------h*IIIIII&8----------h*IIIIIIII",
"IIIIII*8-------;;;h=IIIIII*8----;-;-;;z*IIIIIIII",
"IIIIII*e----;;;:;:z=IIIIII*e------;;;:z=IIIIIIII",
"IIIIII*r--;;;:::::v=IIIIII*r----;::>::v=IIIIIIII",
"IIIIII*r-;;;::>>>2n=IIIIII*r-;;;::>>>>M=IIIIIIII",
"IIIIII*a-:::>>4>44M=IIIIII*a;;::>>>444M=IIIIIIII",
"IIIIII=a;::>>44666Z=IIIIII*a;::>444466Z=IIIIIIII",
"IIIIII=a::>44499y7D2IIIIII=f:::44499y7D:IIIIIIII",
"IIIIII*g:>>49699yyG2IIIIII=g::444999yyG,IIIIIIII",
"IIIIII*g>>4499yyydH=IIIIII*g>>4699yyddJ2IIIIIIII",
"IIIIII=h>>969yysjjJ4IIIIII=h>4499yydddJ2IIIIIIII",
"IIIIII=z4499yydjkkK2IIIIII=z4499yyddjlJ4IIIIIIII",
"IIIIII=v>99ysdkkllL4IIIIII=v4699ydjllxK6IIIIIIII",
"IIIIII=v49yyyjklxVL4IIIIII=z46yysdkllVL4IIIIIIII",
"IIIIII=n48yyjjlxVCP4IIIIII=n477ydkklVCP6IIIIIIII",
"IIIIII=nnZGGJJJLLPP7IIIIII=nZZDGHJKLLPP6IIIIIIII",
"IIIIII*=:=2=2224446@IIIIII*===222222466@IIIIIIII",
"IIIIIIIIIIIIIIIIIIIIIIIIIIIIIIIIIIIIIIIIIIIIIIII",
"IIIIIIIIIIIIIIIIIIIIIIIIIIIIIIIIIIIIIIIIIIIIIIII",
"IIIIIIIIIIIIIIIIIIIIIIIIIIIIIIIIIIIIIIIIIIIIIIII",
"IIIIIIIIIIIIIIIIIIIIIIIIIIIIIIIIIIIIIIIIIIIIIIII"
};
