/* XPM */
static const char *multimedia_play_24x24_xpm[] = {
/* columns rows colors chars-per-pixel */
"24 24 224 2 ",
"   c #2751AB",
".  c #2B54AD",
"X  c #2854AF",
"o  c #2A59B5",
"O  c #2C59B5",
"+  c #2B5CB9",
"@  c #325DB7",
"#  c #365FB6",
"$  c #365FB7",
"%  c #2D60BE",
"&  c #2E60BE",
"*  c #3660B9",
"=  c #3661BA",
"-  c #3662BB",
";  c #3061BF",
":  c #3662BD",
">  c #3563BE",
",  c #3563BF",
"<  c #2D62C0",
"1  c #2E64C3",
"2  c #2F63C6",
"3  c #2F66C6",
"4  c #3564C1",
"5  c #3464C2",
"6  c #3465C3",
"7  c #3065C4",
"8  c #3365C4",
"9  c #3265C5",
"0  c #3066C4",
"q  c #3064C6",
"w  c #3065C7",
"e  c #3867C4",
"r  c #356AC7",
"t  c #3166C8",
"y  c #3268C9",
"u  c #3369C9",
"i  c #336AC9",
"p  c #346BC8",
"a  c #346ACA",
"s  c #356BCA",
"d  c #336CCB",
"f  c #356CCA",
"g  c #376ECA",
"h  c #316BCC",
"j  c #316CCD",
"k  c #356ECD",
"l  c #396DCB",
"z  c #3A6DCF",
"x  c #3B72CD",
"c  c #2865D4",
"v  c #2967D5",
"b  c #2A66D4",
"n  c #2A68D6",
"m  c #2B6AD7",
"M  c #2C6BD7",
"N  c #2D6BD7",
"B  c #2D6CD8",
"V  c #2E6DD8",
"C  c #2E6ED9",
"Z  c #2F6ED9",
"A  c #2F6FD9",
"S  c #3567D1",
"D  c #3568D1",
"F  c #3568D2",
"G  c #3569D2",
"H  c #3669D2",
"J  c #366AD2",
"K  c #366AD3",
"L  c #366BD3",
"P  c #326ED0",
"I  c #326FD2",
"U  c #376BD4",
"Y  c #316CD6",
"T  c #306DD7",
"R  c #376CD4",
"E  c #376DD5",
"W  c #3C6CD3",
"Q  c #386DD5",
"!  c #386ED5",
"~  c #386FD6",
"^  c #306ADA",
"/  c #326CDB",
"(  c #2F70DA",
")  c #3472D5",
"_  c #3473D6",
"`  c #3775D6",
"'  c #3E75D2",
"]  c #3970D6",
"[  c #3970D7",
"{  c #3971D7",
"}  c #3972D7",
"|  c #3E7AD5",
" . c #3E7BD7",
".. c #3270D9",
"X. c #3070DA",
"o. c #3071DA",
"O. c #3171DA",
"+. c #3172DB",
"@. c #3272DB",
"#. c #3273DB",
"$. c #3672D9",
"%. c #3570DC",
"&. c #3374DC",
"*. c #3375DC",
"=. c #3475DC",
"-. c #3476DD",
";. c #3576DD",
":. c #3577DD",
">. c #3676DC",
",. c #3872D8",
"<. c #3B72D8",
"1. c #3A73D8",
"2. c #3B74D8",
"3. c #3B74D9",
"4. c #3B75D9",
"5. c #3B76DA",
"6. c #3A76DB",
"7. c #3C76DA",
"8. c #3D77DA",
"9. c #3873DD",
"0. c #3B76DD",
"q. c #3F75DD",
"w. c #3679DE",
"e. c #377ADF",
"r. c #377BDF",
"t. c #3B79D8",
"y. c #387BDF",
"u. c #397BDF",
"i. c #3D79DE",
"p. c #3C7CDF",
"a. c #387CE0",
"s. c #397CE0",
"d. c #397DE0",
"f. c #3A7EE1",
"g. c #3A7FE1",
"h. c #3B7FE1",
"j. c #4470CA",
"k. c #4272D4",
"l. c #4072D7",
"z. c #4A77D7",
"x. c #4074DA",
"c. c #4377DD",
"v. c #4477DF",
"b. c #427ADD",
"n. c #407BDF",
"m. c #4679DD",
"M. c #447ADE",
"N. c #427DDF",
"B. c #437EDF",
"V. c #497FDA",
"C. c #4E7CDB",
"Z. c #4E7DDB",
"A. c #487ADC",
"S. c #4A7BDC",
"D. c #487DDF",
"F. c #4C7CDC",
"G. c #4C7CDE",
"H. c #527BD2",
"J. c #517EDB",
"K. c #527FDB",
"L. c #547FDA",
"P. c #3B80E2",
"I. c #3C81E2",
"U. c #3D82E3",
"Y. c #3F83E2",
"T. c #3E83E3",
"R. c #3E84E4",
"E. c #3F85E4",
"W. c #4681DA",
"Q. c #4383DD",
"!. c #4881DB",
"~. c #4C8ADF",
"^. c #5883DB",
"/. c #5C86DD",
"(. c #508ADD",
"). c #508CDF",
"_. c #628BDE",
"`. c #4281E0",
"'. c #4680E0",
"]. c #4783E1",
"[. c #4087E5",
"{. c #4187E5",
"}. c #4A86E2",
"|. c #4E85E2",
" X c #4188E6",
".X c #4288E6",
"XX c #438AE7",
"oX c #4489E6",
"OX c #4F89E0",
"+X c #4E88E2",
"@X c #4C8AE3",
"#X c #4D8EE6",
"$X c #448CE8",
"%X c #458DE8",
"&X c #468FE9",
"*X c #518AE4",
"=X c #548FE4",
"-X c #4790EA",
";X c #4891EA",
":X c #4F96EB",
">X c #4D96EC",
",X c #5191E4",
"<X c #5693E7",
"1X c #5695E7",
"2X c #5796E6",
"3X c #5994E6",
"4X c #5A97E7",
"5X c #5C97E6",
"6X c #5C97E7",
"7X c #5395E9",
"8X c #5E9DE9",
"9X c #5D9EEA",
"0X c #5B9DED",
"qX c #5CA2EF",
"wX c #62A1EB",
"eX c #61A0EC",
"rX c #65A6EF",
"tX c #67A8EF",
"yX c #62A6F0",
"uX c #69AAF0",
"iX c #68AAF1",
"pX c #6AABF0",
"aX c #6DB0F3",
"sX c None",
/* pixels */
"sXsX. #   sXsXsXsXsXsXsXsXsXsXsXsXsXsXsXsXsXsXsX",
"sXsX$ _.H.@ X sXsXsXsXsXsXsXsXsXsXsXsXsXsXsXsXsX",
"sXsX* ^.z./.j.O sXsXsXsXsXsXsXsXsXsXsXsXsXsXsXsX",
"sXsX= L.S W C.J.e o sXsXsXsXsXsXsXsXsXsXsXsXsXsX",
"sXsX- K.S D G l.G.k.; + sXsXsXsXsXsXsXsXsXsXsXsX",
"sXsX: J.F H K L Q x.v.z & sXsXsXsXsXsXsXsXsXsXsX",
"sXsX> Z.J L U E ! ~ <.M.D.l % sXsXsXsXsXsXsXsXsX",
"sXsX, F.L R ! ~ [ { 1.3.b.|.V.r < sXsXsXsXsXsXsX",
"sXsX4 S.R ! ] { 1.3.7.8.5.6.B.*X' 7 sXsXsXsXsXsX",
"sXsX5 A.! ] } 2.4.$...Z A X.O.>.}.OXx 1 sXsXsXsX",
"sXsX6 m.] } ,.T N V X.+.&.-.;.:.-.`.3X(.p sXsXsX",
"sXsX8 c.{ Y v M A +.*.:.e.y.s.s.s.y.u.@X6Xg sXsX",
"sXsX9 q.b v M A #.-.e.d.h.I.U.U.U.I.Y.1X5Xf sXsX",
"sXsXq ^ c m C @.:.r.g.U.E.[. X.X X7XwX).d sXsXsX",
"sXsX2 / n B O.-.r.h.T.{.XX%X&X:XrX8X| h sXsXsXsX",
"sXsXw %.m A &.w.f.T. X$X-X>XyXpX~.P sXsXsXsXsXsX",
"sXsXt 9.B o.-.a.I.[.$X;XqXaX9X` sXsXsXsXsXsXsXsX",
"sXsXy 0.C #.w.f.R.XX:XiXuXQ.) sXsXsXsXsXsXsXsXsX",
"sXsXu i.A &.e.P.oX0XtX,X_ sXsXsXsXsXsXsXsXsXsXsX",
"sXsXi n.( =.y.#XeX2Xt.sXsXsXsXsXsXsXsXsXsXsXsXsX",
"sXsXa N.X.p.<X4X .I sXsXsXsXsXsXsXsXsXsXsXsXsXsX",
"sXsXs '.].=XW.j sXsXsXsXsXsXsXsXsXsXsXsXsXsXsXsX",
"sXsXs +X!.k sXsXsXsXsXsXsXsXsXsXsXsXsXsXsXsXsXsX",
"sXsX0 s 3 sXsXsXsXsXsXsXsXsXsXsXsXsXsXsXsXsXsXsX"
};
