/* XPM */
static const char *multimedia_stop_16x16_xpm[] = {
/* columns rows colors chars-per-pixel */
"16 16 155 2 ",
"   c #254CA5",
".  c #264DA6",
"X  c #264FA8",
"o  c #2751AA",
"O  c #2852AC",
"+  c #2853AE",
"@  c #2954AF",
"#  c #2955AF",
"$  c #2956B1",
"%  c #2957B2",
"&  c #2A57B3",
"*  c #2A58B4",
"=  c #2A59B4",
"-  c #2A59B5",
";  c #2B5BB8",
":  c #2C5EBB",
">  c #2D60BE",
",  c #205ACE",
"<  c #205ACF",
"1  c #215CD0",
"2  c #225DD0",
"3  c #235ED1",
"4  c #2E63C1",
"5  c #2E63C2",
"6  c #2F65C4",
"7  c #2F65C5",
"8  c #3067C8",
"9  c #306ACB",
"0  c #316CCE",
"q  c #2460D1",
"w  c #2460D2",
"e  c #2562D3",
"r  c #2663D3",
"t  c #2765D4",
"y  c #2F66D3",
"u  c #2866D4",
"i  c #2866D5",
"p  c #2967D5",
"a  c #2968D5",
"s  c #2A68D6",
"d  c #2A69D6",
"f  c #2D68D5",
"g  c #2C6BD7",
"h  c #2D6CD8",
"j  c #2D6DD8",
"k  c #2E6DD8",
"l  c #2E6ED9",
"z  c #2F6FDA",
"x  c #326FD1",
"c  c #366ED6",
"v  c #3268DC",
"b  c #366CDD",
"n  c #386DDD",
"m  c #3371D4",
"M  c #3473D7",
"N  c #3474D7",
"B  c #3071DA",
"V  c #3171DA",
"C  c #3172DB",
"Z  c #3273DB",
"A  c #3576DA",
"S  c #3375DC",
"D  c #3577DC",
"F  c #3476DD",
"G  c #3B70DC",
"H  c #3578DE",
"J  c #3678DE",
"K  c #377ADF",
"L  c #3E79DB",
"P  c #387CE0",
"I  c #397DE0",
"U  c #3A7EE1",
"Y  c #4577D7",
"T  c #4877D6",
"R  c #4778D7",
"E  c #4779D7",
"W  c #4878D7",
"Q  c #4377D8",
"!  c #4172DD",
"~  c #4079DA",
"^  c #417BDB",
"/  c #4779D8",
"(  c #4779D9",
")  c #477AD9",
"_  c #417BDC",
"`  c #487BD9",
"'  c #487BDA",
"]  c #487CDA",
"[  c #487DDB",
"{  c #4F7FDB",
"}  c #497CDC",
"|  c #4B7DDC",
" . c #487EDC",
".. c #487FDC",
"X. c #4A7EDD",
"o. c #4D7EDC",
"O. c #457AE0",
"+. c #4A7CE3",
"@. c #3B80E2",
"#. c #3C82E3",
"$. c #3D82E3",
"%. c #3E83E3",
"&. c #3E84E4",
"*. c #3F85E4",
"=. c #5180DB",
"-. c #5380DA",
";. c #5581DA",
":. c #5682DA",
">. c #4E80E3",
",. c #4E83E3",
"<. c #4188E6",
"1. c #4289E6",
"2. c #438AE7",
"3. c #438BE7",
"4. c #458DE8",
"5. c #478FEA",
"6. c #5282E1",
"7. c #5282E3",
"8. c #578CE5",
"9. c #5D89E3",
"0. c #5B88E4",
"q. c #5B8BE5",
"w. c #4790EA",
"e. c #4A94EC",
"r. c #4B96ED",
"t. c #4C97ED",
"y. c #5E93E7",
"u. c #5F95E8",
"i. c #509CF0",
"p. c #519EF1",
"a. c #648FE4",
"s. c #6192E7",
"d. c #6B94E5",
"f. c #6C94E5",
"g. c #6395E8",
"h. c #669CEA",
"j. c #679DEB",
"k. c #7299E5",
"l. c #7E9FE2",
"z. c #789DE5",
"x. c #56A5F4",
"c. c #6EA4ED",
"v. c #6FA6EE",
"b. c #7EA1E6",
"n. c #75ACF0",
"m. c #77AEF1",
"M. c #7CB4F3",
"N. c #7EB7F4",
"B. c #82A3E6",
"V. c #83BCF6",
"C. c #85BEF7",
"Z. c #89C4F9",
"A. c #89C5FA",
"S. c #8AC5FA",
"D. c None",
/* pixels */
"D.D.D.D.D.D.D.D.D.D.D.D.D.D.D.D.",
"D.  . X o O + @ $ % & * = - - D.",
"D.. l.B.b.z.k.d.a.0.7.+.>.6.; D.",
"D.X B.:.;.-.=.{ o.| } } X.q.: D.",
"D.o b.T R E / ) ' ] [  ...s.> D.",
"D.O z.W / ( ` ] [ ~ ^ L _ g.4 D.",
"D.+ k./ ) Q c f p g l B C y.6 D.",
"D.# f.Y y 3 r s j V S J K h.8 D.",
"D.$ 9., 2 e a k Z H P @.$.c.9 D.",
"D.% ! < w u h C J U %.<.3.n.0 D.",
"D.& n 1 r d z F I &.2.5.e.M.x D.",
"D.* v 3 t g Z K #.1.w.t.i.V.m D.",
"D.= b q i k S I *.4.r.p.x.Z.M D.",
"D.- G O.,.8.u.j.v.m.N.C.S.A.A D.",
"D.- ; : > 5 7 8 9 0 x m N A D D.",
"D.D.D.D.D.D.D.D.D.D.D.D.D.D.D.D."
};
