/* XPM */
static const char *multimedia_pause_64x64_xpm[] = {
/* columns rows colors chars-per-pixel */
"64 64 135 2 ",
"   c #335FB8",
".  c #3C67BF",
"X  c #3E68BF",
"o  c #0E4AC7",
"O  c #164FC9",
"+  c #1750CA",
"@  c #1B55CC",
"#  c #1E59CE",
"$  c #1F5CD0",
"%  c #215BCF",
"&  c #225ED1",
"*  c #275ED9",
"=  c #285DD8",
"-  c #2F66CC",
";  c #3666C4",
":  c #3A67C3",
">  c #3568C7",
",  c #3B6AC6",
"<  c #3566CB",
"1  c #3866CC",
"2  c #356BCB",
"3  c #3A6BCD",
"4  c #3D72CD",
"5  c #2563D3",
"6  c #2966D5",
"7  c #2B6AD6",
"8  c #2761DB",
"9  c #2A65DC",
"0  c #2E6DD9",
"q  c #3366D1",
"w  c #3867D0",
"e  c #356BD3",
"r  c #396AD1",
"t  c #3567DA",
"y  c #306DDD",
"u  c #386EDE",
"i  c #2F70DA",
"p  c #3C73D2",
"a  c #3274DC",
"s  c #3E72DC",
"d  c #3679DE",
"f  c #387BDF",
"g  c #2D6CE1",
"h  c #326FE1",
"j  c #3473E4",
"k  c #3876E3",
"l  c #377AE3",
"z  c #3A7DE1",
"x  c #3777E8",
"c  c #3B77E8",
"v  c #3C7CE9",
"b  c #456DC3",
"n  c #4771C6",
"m  c #4C72C4",
"M  c #4474CB",
"N  c #4876CC",
"B  c #4678CC",
"V  c #4B78CA",
"C  c #5276C3",
"Z  c #537AC3",
"A  c #406FD3",
"S  c #4473D5",
"D  c #4975D5",
"F  c #4579D5",
"G  c #497BD5",
"H  c #4374DA",
"J  c #4679D9",
"K  c #4A7CDB",
"L  c #507CDF",
"P  c #4175E0",
"I  c #4679E1",
"U  c #4E7CE0",
"Y  c #517EE1",
"T  c #3D82E3",
"R  c #3F88E6",
"E  c #3F81EA",
"W  c #4C83D6",
"Q  c #4C82DB",
"!  c #5085DC",
"~  c #5883DF",
"^  c #538BDC",
"/  c #5991DE",
"(  c #4086E5",
")  c #4B87E5",
"_  c #4289E6",
"`  c #4383EB",
"'  c #458DE9",
"]  c #4B8BEC",
"[  c #5482E3",
"{  c #5986E3",
"}  c #558FE0",
"|  c #5D88E4",
" . c #5383ED",
".. c #538DEB",
"X. c #5B8CEA",
"o. c #4790EA",
"O. c #4A94EC",
"+. c #4E99EF",
"@. c #5790E1",
"#. c #5A94E2",
"$. c #5E9AE5",
"%. c #5493EC",
"&. c #5897EE",
"*. c #5A99EF",
"=. c #528FF3",
"-. c #4D91F0",
";. c #4F9CF0",
":. c #5194F3",
">. c #5B91F0",
",. c #519DF1",
"<. c #5C9CF1",
"1. c #618DE6",
"2. c #628EE9",
"3. c #609DE7",
"4. c #6690E8",
"5. c #619FE8",
"6. c #739EF6",
"7. c #55A3F3",
"8. c #59A5F5",
"9. c #59A9F7",
"0. c #5CA5FA",
"q. c #5CADF9",
"w. c #5EB0FB",
"e. c #64A2EA",
"r. c #6AA9EF",
"t. c #63A4F5",
"y. c #65A8F7",
"u. c #65ACFB",
"i. c #69ADF9",
"p. c #63B3FD",
"a. c #6DB4FD",
"s. c #6BBCFF",
"d. c #72C3FF",
"f. c #7AC2FF",
"g. c None",
/* pixels */
"g.g.g.g.g.g.g.g.g.g.g.g.g.g.g.g.g.g.g.g.g.g.g.g.g.g.g.g.g.g.g.g.g.g.g.g.g.g.g.g.g.g.g.g.g.g.g.g.g.g.g.g.g.g.g.g.g.g.g.g.g.g.g.g.",
"g.g.g.g.g.g.g.g.g.g.g.g.g.g.g.g.g.g.g.g.g.g.g.g.g.g.g.g.g.g.g.g.g.g.g.g.g.g.g.g.g.g.g.g.g.g.g.g.g.g.g.g.g.g.g.g.g.g.g.g.g.g.g.g.",
"g.g.g.g.g.g.g.g.g.g.g.g.g.g.g.g.g.g.g.g.g.g.g.g.g.g.g.g.g.g.g.g.g.g.g.g.g.g.g.g.g.g.g.g.g.g.g.g.g.g.g.g.g.g.g.g.g.g.g.g.g.g.g.g.",
"g.g.g.g.g.g.g.g.g.g.g.g.g.g.g.g.g.g.g.g.g.g.g.g.g.g.g.g.g.g.g.g.g.g.g.g.g.g.g.g.g.g.g.g.g.g.g.g.g.g.g.g.g.g.g.g.g.g.g.g.g.g.g.g.",
"g.g.g.g.g.C C C C C C C C C m C C C m C m m m m n n A   g.g.g.g.g.g.g.g.g.C C m m m C m m m m m m m m b b b b b b b b g.g.g.g.g.",
"g.g.g.g.C 6.~ 1.{ { { { { { { [ Y { Y Y Y Y Y L Y Y Y b g.g.g.g.g.g.g.g.C 2.Y Y Y U Y L L U L U K Y U L L L H L U H  .: g.g.g.g.",
"g.g.g.g.Z 1.M D D S A S S A A A A A A A A A A A A A A : g.g.g.g.g.g.g.g.C L q w 1 w w w 1 w 1 w r 1 w r 1 w r 1 w < H b g.g.g.g.",
"g.g.g.g.Z 4.D D D D D D D D D D S D A D A A A S A A H 1 g.g.g.g.g.g.g.g.m Y w A A A A A w A A w r A r r r r r A r w H b g.g.g.g.",
"g.g.g.g.Z 4.D D D D D S N S S S A D A A A D A S A A A < g.g.g.g.g.g.g.g.m Y w A r w A w r A w A A r A w r r r r r r H . g.g.g.g.",
"g.g.g.g.Z 4.A D D D D S S S S S D A A D A A S A A A H ; g.g.g.g.g.g.g.g.m L 1 A w A 1 A w A w r w w 1 r r r 1 3 r 1 H : g.g.g.g.",
"g.g.g.g.Z 4.S D S D S D D A S S A S D A A S A A A A D < g.g.g.g.g.g.g.g.C U w r A w w w r 1 r r w w w r 1 r w r w w H : g.g.g.g.",
"g.g.g.g.C 4.A D D S D A A A A S S A A H A A A A A r H < g.g.g.g.g.g.g.g.m L w r w w A r r r 1 w w w r 1 r r w w r w H ; g.g.g.g.",
"g.g.g.g.C 4.A D D A D A D A A D A D A A A H A A A A H < g.g.g.g.g.g.g.g.m U w w w w r w w w w r r r w w w w r w w w H ; g.g.g.g.",
"g.g.g.g.C 4.S D A S D D A D D A S S A A A A A A A A A < g.g.g.g.g.g.g.g.m U 1 r r w w w w r r r w w w r w r r e w w u ; g.g.g.g.",
"g.g.g.g.C 4.A D D D D A S A S S S A A S A H A A A A A < g.g.g.g.g.g.g.g.m U q r 1 w A w A w w w w w r r w e r w w w H ; g.g.g.g.",
"g.g.g.g.C 1.S D D A A S S S S S S A D A S A A A A A A < g.g.g.g.g.g.g.g.n K < w r w w w w w w w w r w r r r e r r w P : g.g.g.g.",
"g.g.g.g.Z 2.A D S S S S S S S S S S p S S S A S p A H < g.g.g.g.g.g.g.g.m U w r e w r e e r r r r r r r r e r r r e s ; g.g.g.g.",
"g.g.g.g.Z 2.A D D S D S S S S S S S S S S p S u S S H < g.g.g.g.g.g.g.g.n I < w 1 w r r 1 e r r r r e r r e r t r r s , g.g.g.g.",
"g.g.g.g.Z X.S D D S S S D F S S S H S S S p S S H r H 2 g.g.g.g.g.g.g.g.n I q w r r e r r r u e r e r r p r r r r e P , g.g.g.g.",
"g.g.g.g.Z | S D S D S D S S S S S S S S S S S S p S H 2 g.g.g.g.g.g.g.g.b L q r r r r r e r r r e r r r r r r r e r P , g.g.g.g.",
"g.g.g.g.Z X.S D D S J J J D S S S S S S S S S H H p J 3 g.g.g.g.g.g.g.g.n I w r e e r r r r r r e u e r u e e u r r P , g.g.g.g.",
"g.g.g.g.V X.S D S D D S S S J S F H F S H S S S S p H 3 g.g.g.g.g.g.g.g.n I w r r r r r t r p r r r r r p r e r r e I , g.g.g.g.",
"g.g.g.g.Z X.S F S J J S S K J J H F S J J S F H s S J 3 g.g.g.g.g.g.g.g.n I w w e w e q q q q w e q q q e r e r p e I , g.g.g.g.",
"g.g.g.g.Z X.S D J D J S K S F S S J J F s F J S J H J 4 g.g.g.g.g.g.g.g., t @ % + @ + + O O O @ @ @ @ @ @ @ & & & 5 j , g.g.g.g.",
"g.g.g.g.V X.D D S J D F F F J K J J J F J J F J S s Q 4 g.g.g.g.g.g.g.g.< = o O O + @ + @ @ @ @ @ # @ # # @ # # @ @ 8 ; g.g.g.g.",
"g.g.g.g.C X.S K K J F K K J K S J J J J J J J J J J H 3 g.g.g.g.g.g.g.g.; = O @ + @ @ @ @ @ @ @ # @ # # # # # # & # 9 > g.g.g.g.",
"g.g.g.g.V X.F F D J J K G J J J J J J K J J J H r 6 5 e g.g.g.g.g.g.g.g.; = O @ @ @ @ @ @ @ % % # # # % # # # & & # 9 2 g.g.g.g.",
"g.g.g.g.V X.J K K K D K K J K K K K J K J J e 5 $ $ 6 2 g.g.g.g.g.g.g.g.; * O @ @ @ # @ % @ % @ % % # & & & & $ & # y , g.g.g.g.",
"g.g.g.g.V X.F K J J K K G K G J J Q K J 7 & # & 5 & 8 r g.g.g.g.g.g.g.g.< * + @ # @ # # % % % % & & & & & & 5 & 5 $ h , g.g.g.g.",
"g.g.g.g.V X.G K K K K K K Q Q K Q J 0 5 & 5 5 5 5 5 6 p g.g.g.g.g.g.g.g.< 8 @ @ @ # # % % & % % & & 5 & 5 5 5 5 5 & j , g.g.g.g.",
"g.g.g.g.V X.J K K K K G K K Q K p 5 $ 5 5 5 5 6 6 5 9 p g.g.g.g.g.g.g.g.- 8 @ # # % % & % & & 5 & 5 5 5 5 5 5 5 6 5 j , g.g.g.g.",
"g.g.g.g.N X.K K W K Q Q Q Q J 7 $ 5 6 6 6 6 6 6 6 6 0 p g.g.g.g.g.g.g.g.> 6 @ # % % % % & 5 5 5 5 5 5 5 6 6 6 6 6 5 k 3 g.g.g.g.",
"g.g.g.g.B X.K Q Q K Q Q Q p 5 6 6 6 6 6 7 6 7 6 7 7 a p g.g.g.g.g.g.g.g.> 9 @ $ # 5 % 5 5 5 5 6 5 6 6 6 6 6 7 7 7 6 x 4 g.g.g.g.",
"g.g.g.g.V X.K K Q Q Q Q e & 5 6 6 6 7 6 7 7 7 7 7 7 y p g.g.g.g.g.g.g.g.- 9 $ & 5 % 5 5 5 5 6 6 6 6 7 7 7 7 7 0 7 7 z 4 g.g.g.g.",
"g.g.g.g.V %.Q Q K ) Q 5 5 6 6 7 7 7 7 7 0 0 0 0 0 0 a F g.g.g.g.g.g.g.g.- 9 % & % 5 5 5 6 6 6 6 7 7 7 7 7 0 i 7 i 7 z 4 g.g.g.g.",
"g.g.g.g.N X.K Q Q J 6 6 6 6 6 6 0 0 0 0 0 0 i 0 a i l G g.g.g.g.g.g.g.g.- 9 & & 5 5 6 6 6 6 6 7 7 0 0 0 e i i i i i E M g.g.g.g.",
"g.g.g.g.N X.Q ) J 5 5 7 7 6 0 0 0 0 0 i a a a i a i d F g.g.g.g.g.g.g.g.- 9 & 5 5 6 6 6 7 7 7 0 0 0 i i i a a i a i E B g.g.g.g.",
"g.g.g.g.B =.Q K 5 6 6 7 7 0 0 0 0 i i a a a a a a a z J g.g.g.g.g.g.g.g.- g 5 5 6 6 6 7 7 0 0 e i i a i a a a a a i ` B g.g.g.g.",
"g.g.g.g.B >.Q 5 6 6 0 7 7 0 i e i a a a a a a d d d z Q g.g.g.g.g.g.g.g.- g 5 6 6 7 7 0 0 i i i i a a a a a d d d d ` G g.g.g.g.",
"g.g.g.g.B -.5 6 7 7 7 0 0 i a a a a a d d d d d d d T Q g.g.g.g.g.g.g.g.- g 5 6 7 7 7 0 0 i a a a a d d d d d d d l ' G g.g.g.g.",
"g.g.g.g.M x 5 7 0 7 0 i i i a a a d d f f f f f z f R Q g.g.g.g.g.g.g.g.7 h 6 7 7 7 0 i y a a a d d d d f d f d f z ] G g.g.g.g.",
"g.g.g.g.< j 6 7 6 0 i i i a a d d d f f f T f T z T ( Q g.g.g.g.g.g.g.g.2 j 6 7 0 i i i a a a a d f f f z z T T T z o.G g.g.g.g.",
"g.g.g.g.> x 6 7 0 0 i a a a d d f d f f f T T T T T ' Q g.g.g.g.g.g.g.g.2 j 6 0 0 0 a a a d d d d d f z T T T T T T -.W g.g.g.g.",
"g.g.g.g.> x 7 i i a a a d d d f f T T T T T ( ( R R ] Q g.g.g.g.g.g.g.g.2 j 9 0 i i a a d d d f f T T T T T ( T R T -.W g.g.g.g.",
"g.g.g.g.2 x 0 i i a a a d d f f T T T T ( ( ( _ _ _ ' } g.g.g.g.g.g.g.g.p j 0 0 i a a d d d f z T T T T R R ( _ _ R ,.W g.g.g.g.",
"g.g.g.g.2 T 0 i a a a d d f T T T T R Q _ _ _ _ ' _ +.^ g.g.g.g.g.g.g.g.p j 0 i i a a d f f z z T T T ( R _ _ _ ' R <.W g.g.g.g.",
"g.g.g.g.2 v 0 i a a d f f T T T T T _ _ _ ' ' ' ' o.+.} g.g.g.g.g.g.g.g.2 l i i a a d f f f T T T T _ _ R ' ' o.] ' ,.! g.g.g.g.",
"g.g.g.g.2 v i i a a d f f f T T T R _ _ ' o.o.o.o.o.-.#.g.g.g.g.g.g.g.g.p x i a a d d f T T T ( _ _ _ ' ' o.o.o.o.o.8.! g.g.g.g.",
"g.g.g.g.2 ` i a d d f z T T T T _ _ _ ' o.o.O.O.O.O.,./ g.g.g.g.g.g.g.g.p v i a d d f f z T R ( _ ' ' ' o.o.O.O.O.O.8.^ g.g.g.g.",
"g.g.g.g.2 E i d a d f z T T T _ _ ' o.o.O.O.O.O.+.+.7./ g.g.g.g.g.g.g.g.p v a a d f z z T T ( _ _ ' o.o.O.O.O.+.+.O.9.^ g.g.g.g.",
"g.g.g.g.2 ` i d d f f z T ( _ _ ' ' o.o.O.O.+.+.;.+.7.#.g.g.g.g.g.g.g.g.p T i d d d z T T ( _ _ ' o.o.o.O.+.+.+.+.+.w.^ g.g.g.g.",
"g.g.g.g.4 ` i d f z T T T T _ ' ' o.O.O.+.+.+.,.,.,.8.$.g.g.g.g.g.g.g.g.p v a d f f f T ( ( _ ' ' o.O.O.+.+.+.,.,.+.p.^ g.g.g.g.",
"g.g.g.g.4 ` a d f f T T T _ _ ' o.O.O.+.+.+.,.7.7.7.q.3.g.g.g.g.g.g.g.g.p ` a d f f T T R _ _ ' o.O.O.+.,.,.,.,.,.7.p.^ g.g.g.g.",
"g.g.g.g.4 ` i d f f T T _ _ ' ' o.O.+.+.+.,.,.7.7.7.q.$.g.g.g.g.g.g.g.g.p E a f z T T ( ( _ ' ' O.O.O.+.,.,.7.7.7.7.a./ g.g.g.g.",
"g.g.g.g.4 ` l d f T T ( _ _ ' o.O.O.+.+.,.7.7.7.7.9.w.3.g.g.g.g.g.g.g.g.S R d f f T T ( _ _ ' o.O.+.+.,.,.,.7.7.9.7.a.#.g.g.g.g.",
"g.g.g.g.4 ] d f f f T T _ _ o.o.O.+.+.,.,.7.7.8.q.9.p.e.g.g.g.g.g.g.g.g.F ` a f f z T ( _ ' ' O.O.O.+.,.,.7.8.9.q.9.s./ g.g.g.g.",
"g.g.g.g.4 ] d d T T T _ _ ' o.o.O.+.+.,.7.8.9.9.q.q.p.e.g.g.g.g.g.g.g.g.F R a z z T T T _ ' o.o.O.+.+.,.7.7.9.9.q.q.s./ g.g.g.g.",
"g.g.g.g.4 ` a f f T T T _ _ o.o.O.+.+.,.7.7.8.9.w.w.s.e.g.g.g.g.g.g.g.g.F ` a z z T R R _ ' o.O.+.+.+.,.7.8.9.9.w.w.d./ g.g.g.g.",
"g.g.g.g.F ` a z f T T _ ' ' o.O.+.+.,.7.7.9.9.p.w.w.d.r.g.g.g.g.g.g.g.g.F ` l z T T ( _ ' ' O.O.+.+.7.7.7.9.q.p.w.p.d.3.g.g.g.g.",
"g.g.g.g.g.:.) ....%.%.%.&.*.*.8.8.t.t.y.y.i.a.i.a.s.f.$.g.g.g.g.g.g.g.g.4 :.) ] ....%.&.&.*.<.<.8.t.t.y.i.i.a.a.a.s.f.^ g.g.g.g.",
"g.g.g.g.g.g.g.g.g.g.g.g.g.g.g.g.g.g.g.g.g.g.g.g.g.g.g.g.g.g.g.g.g.g.g.g.g.g.g.g.g.g.g.g.g.g.g.g.g.g.g.g.g.g.g.g.g.g.g.g.g.g.g.g.",
"g.g.g.g.g.g.g.g.g.g.g.g.g.g.g.g.g.g.g.g.g.g.g.g.g.g.g.g.g.g.g.g.g.g.g.g.g.g.g.g.g.g.g.g.g.g.g.g.g.g.g.g.g.g.g.g.g.g.g.g.g.g.g.g.",
"g.g.g.g.g.g.g.g.g.g.g.g.g.g.g.g.g.g.g.g.g.g.g.g.g.g.g.g.g.g.g.g.g.g.g.g.g.g.g.g.g.g.g.g.g.g.g.g.g.g.g.g.g.g.g.g.g.g.g.g.g.g.g.g.",
"g.g.g.g.g.g.g.g.g.g.g.g.g.g.g.g.g.g.g.g.g.g.g.g.g.g.g.g.g.g.g.g.g.g.g.g.g.g.g.g.g.g.g.g.g.g.g.g.g.g.g.g.g.g.g.g.g.g.g.g.g.g.g.g."
};
