/* XPM */
static const char *multimedia_stop_64x64_xpm[] = {
/* columns rows colors chars-per-pixel */
"64 64 91 1 ",
"  c #2E5EBE",
". c #4B6BB8",
"X c #1553CB",
"o c #1C56CD",
"O c #1E59CE",
"+ c #1F59D2",
"@ c #2C5EC7",
"# c #205BCF",
"$ c #2B5EC8",
"% c #225ED1",
"& c #245FD9",
"* c #2E60C7",
"= c #2D60CB",
"- c #3063C7",
"; c #3866C1",
": c #3365C9",
"> c #366BCC",
", c #3D6DCC",
"< c #3E72CF",
"1 c #2662D3",
"2 c #2866D5",
"3 c #2B6AD6",
"4 c #2966D8",
"5 c #2E6DD9",
"6 c #3367D2",
"7 c #346CD5",
"8 c #396CD6",
"9 c #316FDC",
"0 c #2F70DA",
"q c #3670D7",
"w c #3D73D5",
"e c #3274DC",
"r c #3E76D9",
"t c #3679DE",
"y c #3A7BDE",
"u c #3676E0",
"i c #3778E1",
"p c #3A7DE1",
"a c #406FCC",
"s c #4572CC",
"d c #4C75CB",
"f c #597BC7",
"g c #5177CA",
"h c #5579C9",
"j c #597BC8",
"k c #4676D6",
"l c #4876D6",
"z c #4678D7",
"x c #4A7CD3",
"c c #4677D8",
"v c #477AD9",
"b c #497EDC",
"n c #527EDC",
"m c #407EE2",
"M c #3D82E3",
"N c #4B81D6",
"B c #4581DF",
"V c #4A82DD",
"C c #538BDD",
"Z c #5791DE",
"A c #4086E5",
"S c #4D84E2",
"D c #4289E6",
"F c #4F89E5",
"G c #4287E8",
"H c #458DE8",
"J c #488FEB",
"K c #5B87E3",
"L c #518BE6",
"P c #4790EA",
"I c #4A94EC",
"U c #4E99EE",
"Y c #5790E0",
"T c #5A93E2",
"R c #5E9AE5",
"E c #4F9CF0",
"W c #519DF1",
"Q c #609DE7",
"! c #629FE8",
"~ c #55A3F3",
"^ c #59A6F6",
"/ c #57A8F6",
"( c #5AA9F7",
") c #5DACF9",
"_ c #5EB1FB",
"` c #65A3EA",
"' c #6BA9EF",
"] c #63B4FD",
"[ c #69BBFF",
"{ c #74C7FF",
"} c None",
/* pixels */
"}}}}}}}}}}}}}}}}}}}}}}}}}}}}}}}}}}}}}}}}}}}}}}}}}}}}}}}}}}}}}}}}",
"}}}}}}}}}}}}}}}}}}}}}}}}}}}}}}}}}}}}}}}}}}}}}}}}}}}}}}}}}}}}}}}}",
"}}}}}}}}}}}}}}}}}}}}}}}}}}}}}}}}}}}}}}}}}}}}}}}}}}}}}}}}}}}}}}}}",
"}}}}}}}}}}}}}}}}}}}}}}}}}}}}}}}}}}}}}}}}}}}}}}}}}}}}}}}}}}}}}}}}",
"}}}}.fffjjhhjjjjgghghgjgggggddddddddddssssaaaa,,a,,,aaasaaa;}}}}",
"}}}}fKnnnnnnnnnbnvnnbnbbbnbbnmbbmbbmbmbnnVmnbmbVmbbSmvmSmbSa}}}}",
"}}}}fnslllksklllkkllllkklcckllczllcccclkcccclckvlbcclcccnlns}}}}",
"}}}}fClllllllllllllkkclcllckllcclllclvclcvvcvckvllvvlbvvclmd}}}}",
"}}}}fnllllllllllklkklzclcczzvkvvlvvlvvkkvbvvvzbvvvvvvvvvvvVs}}}}",
"}}}}fnllllllllllzllzlzkcczzzkkczvlvvvvzbvzvvvvvvNvvvvvvbbbVs}}}}",
"}}}}fnllllllllllkzllzzczzzzzkzkzvvvlkvbvvbvvbvvvvbBvvBbzzvvs}}}}",
"}}}}fnllllllcllllzzczkzzzzzzzzvvclvvvvvvvvvvBvvvvvvvvbbVbbSk}}}}",
"}}}}hnlllllklkkllzzczxlczcczvvkkvvzvbzvvvvvBbvbvBvNvVvVvbbVk}}}}",
"}}}}hnllllklkllkzccczlvczvcvvvzbvvbvvvvvBvvvvbVvbvbBvvvmbvSs}}}}",
"}}}}jnkllkllzlzzcczzzzcvccvzvvvvvvvvvVvbvvNBvvvvvvvVvVNbbbSx}}}}",
"}}}}hblllkzzllccczzzzzvccvcvvvvvvvbvvvvVbbvvNBVBSNbBVBvBVvSx}}}}",
"}}}}jnlllzllzzkzzzcvcvcvvvkkvvvvbBvvvvvVvvvBVvvbvVvVVVVVVvFx}}}}",
"}}}}jbkkkzzkzlcczzccvlvckvbvvvvvvvvbvSvvSVVvVVVVAbVVVVVVSVSx}}}}",
"}}}}hbklzllczzzzzzzcvvvxvvbvvbvNvvvBBvvVvBVVvSVVVVVVVVVVVBSx}}}}",
"}}}}hvklzlzzklzzzzzzccvcvvvvBvvvvNvSvVvVvVvVVVVVBSVVVVVVVVFx}}}}",
"}}}}gnkllclzzlvlxvcvvvvvvvvVvvvvvvvSbNvBVBVVVVVVVVVSVVVVVVKN}}}}",
"}}}}gnkkccclzzzlccvcvvvvvvvvvVvVBVBvbVSVSVVVVSVSVSVSVSVDSVLx}}}}",
"}}}}gnkkzzzzzzcvcccvvvvvvVVvVvzvVvVVVVvAvyyvyyvyyyvyBBBVSVLN}}}}",
"}}}}gbkkzzzzzzvcbvxvbvvvvvvvvSVNzyreq353332333335300000eetpx}}}}",
"}}}}gncckczzzccvccbcbvbvvNVbvyq3322223355933q0e00eeee0eee0tw}}}}",
"}}}}gnkcckzzxcvccvxbvzvbbrw321113233353553ee00eeee0eete0etMz}}}}",
"}}}}dbkczzzzvccvvvvcbNvw31111232233355055e0eeeeeeeettettt0Mx}}}}",
"}}}}gbklzzzzlvvvvvcVz71O%11122233335350000eeeeeeetetttttttpv}}}}",
"}}}}dnkcczccvclvvbk7#+1111222223333300e9eeeeeettttttttMttiMv}}}}",
"}}}}gmcczzczvvvvv81o11111222223333e9000eeeeetttttttytptpMpMN}}}}",
"}}}}gblczzcbcvvw=o#1111112223330q03eeeeeettttttttppptyppptGN}}}}",
"}}}}dblcczccbl7O+11%#1112223330350e3eeeeeetttttpptpMMppMMMDN}}}}",
"}}}}dnczlvlcw1o##%#111112233333550eeeeeteMetMeeMMMMtMMMMMMDN}}}}",
"}}}}dmczvvv8oO%#%#1%1122333353e50eeeeettteMttMMtMtMMMMMMMMHN}}}}",
"}}}}dvllvv6oO##%1#1111222335553ee0eetetttMtMMMMMMMMMMAMAAMPN}}}}",
"}}}}gmlbz6X######111122233333e00eeetetttttMtMMMMMMAMAADADMPC}}}}",
"}}}}dvll=X%O###111112222335330eeeeetttypMtMMMMMMMMMHMHDDDDPC}}}}",
"}}}}snc%XOO#O#1#11111233335500eeeettyttMMMMMMHMMMHHMMHHDDDIC}}}}",
"}}}}dm$XOOO%#11#11112333355e0eeettttytMyMMMAMHMPHMHHPHHHHHUC}}}}",
"}}}}a8XoOOOO###1111123333555eeeeetttMtMMMMAHMMMHHHHHPPHPPHUZ}}}}",
"}}}}:#ooOO###1#111123333e3e00eeetttttMMMMMAAMPHMHHPHPPPPIPWK}}}}",
"}}}}-#ooOO##%#1111222333339qeetetttMMMMMMMAABDHPHHPPPIPIIPWY}}}}",
"}}}}$#o#O##%#11#113133303e0eeetttptMMMMMAADDHHHHPPPIPIIIIIWY}}}}",
"}}}}$#ooO###1#1111233330e3eetetttptMMMMAADDHHHHHPIIIIUUUUI~Y}}}}",
"}}}}$#oo#####111112233500e0eetttpttMMMMDDDDHHPHIIIIIUUIUUUWR}}}}",
"}}}}@&o#O##1#1112133335500eetttttMMMMMMADDHHHIIIIUUUUUUUEW^Y}}}}",
"}}}}$+oo###11111133335500eeeetppMtMMMADDDDHHPIPIIUUUUWWWWE^R}}}}",
"}}}}$#o######11113333530eeeettttpMMMMDDDHHHIIIIUUUEUWWWWWW^R}}}}",
"}}}}$+o+##%%%1112233355eeeeettttMMMMAAADHHPJIIIUUEEWWW~W~W(R}}}}",
"}}}}$+o###%%%11222335555eetetppMMMMAAAHHHHPPIIUUUEWW~~~~~~_R}}}}",
"}}}}$+o##%%%111223333500eeettyppyMMAADAHJPIIIUUUWWWW~~~~//_Q}}}}",
"}}}}$#o##%%%%1122235550eeeettttpMMMAADHHPPIIIUUEWWW^~~^(//]R}}}}",
"}}}}=&O##%#1111223335500eeettptMMMMMAHHHPPIUIUEWW~~~^^((((]!}}}}",
"}}}}$%o###%%11122333500eeetttipMMMMAAHHHPPPUUUWWW~~^~((())]!}}}}",
"}}}}$#OO#1%111223333550eetttttMpMMADAHHPPIIUUEWW~~~~(())))[`}}}}",
"}}}}@&O###%%11122335500eeeetyMpMMMADDHHPPIIIEEWWW^^((()___[`}}}}",
"}}}}@%O##=%%111233335000eetttppMMADDDHPPIIIUEEWW~//(())_]_[`}}}}",
"}}}}*%OO+%%%111223335500eeeuttpMMMMMDDHHJJIUUUWW~~//(()___[`}}}}",
"}}}}*4%&1144433555eeutttppMMMMGGDPPHIIUUWWW~W(^(()__]]][[{{'}}}}",
"}}}}@=*::::>>>,8,<<wwwkskkvxvNNNNNCCCCCCYYYYTTRRRRR!!``'``'C}}}}",
"}}}}}}}}}}}}}}}}}}}}}}}}}}}}}}}}}}}}}}}}}}}}}}}}}}}}}}}}}}}}}}}}",
"}}}}}}}}}}}}}}}}}}}}}}}}}}}}}}}}}}}}}}}}}}}}}}}}}}}}}}}}}}}}}}}}",
"}}}}}}}}}}}}}}}}}}}}}}}}}}}}}}}}}}}}}}}}}}}}}}}}}}}}}}}}}}}}}}}}",
"}}}}}}}}}}}}}}}}}}}}}}}}}}}}}}}}}}}}}}}}}}}}}}}}}}}}}}}}}}}}}}}}"
};
