/* XPM */
static const char *multimedia_pause_24x24_xpm[] = {
/* columns rows colors chars-per-pixel */
"24 24 133 2 ",
"   c #254BA3",
".  c #274DA4",
"X  c #264DA6",
"o  c #274EA6",
"O  c #284FA7",
"+  c #274FA8",
"@  c #2750A9",
"#  c #2751AB",
"$  c #2852AC",
"%  c #2854AE",
"&  c #2955AF",
"*  c #2956B1",
"=  c #2A57B2",
"-  c #2A58B4",
";  c #2A59B6",
":  c #2B5AB6",
">  c #2B5CB9",
",  c #2C5EBC",
"<  c #2D60BE",
"1  c #2D61BF",
"2  c #2D62C0",
"3  c #2E63C2",
"4  c #2E64C3",
"5  c #2F65C5",
"6  c #2F67C6",
"7  c #3068C8",
"8  c #3069C9",
"9  c #3069CA",
"0  c #306ACB",
"q  c #316ACB",
"w  c #316CCD",
"e  c #316DCE",
"r  c #2561D2",
"t  c #2562D2",
"y  c #2662D3",
"u  c #2863D3",
"i  c #2A65D3",
"p  c #2865D4",
"a  c #2967D5",
"s  c #2D68D4",
"d  c #2E68D4",
"f  c #2D6CD7",
"g  c #2E6ED8",
"h  c #2F6FD9",
"j  c #326ED0",
"k  c #326FD1",
"l  c #336CD6",
"z  c #366FD7",
"x  c #376FD7",
"c  c #366EDF",
"v  c #3371D3",
"b  c #3371D4",
"n  c #3473D7",
"m  c #3474D7",
"M  c #3870D7",
"N  c #3971D7",
"B  c #3A72D7",
"V  c #3576D9",
"C  c #3576DA",
"Z  c #3375DC",
"A  c #3475DC",
"S  c #3C73D8",
"D  c #3C74D8",
"F  c #3D74D8",
"G  c #3E75D8",
"H  c #3F76D9",
"J  c #3A70DF",
"K  c #3578DC",
"L  c #377ADF",
"P  c #387BDF",
"I  c #3C72E0",
"U  c #3D73E0",
"Y  c #3A7EE1",
"T  c #4077D9",
"R  c #4178D9",
"E  c #477CDB",
"W  c #487DDB",
"Q  c #4A7EDC",
"!  c #4378E0",
"~  c #4478E0",
"^  c #497DE1",
"/  c #487CE2",
"(  c #497CE2",
")  c #4A7DE3",
"_  c #4A7EE3",
"`  c #4D7FE1",
"'  c #4C80DD",
"]  c #4E82DD",
"[  c #5183DD",
"{  c #4086E5",
"}  c #4187E5",
"|  c #4F82E1",
" . c #4E81E3",
".. c #5083E2",
"X. c #5384E3",
"o. c #5486E2",
"O. c #578AE3",
"+. c #5788E4",
"@. c #5A8BE3",
"#. c #5888E4",
"$. c #5C8BE4",
"%. c #4993EB",
"&. c #5E91E5",
"*. c #608FE5",
"=. c #6192E5",
"-. c #6491E6",
";. c #6497E7",
":. c #6892E2",
">. c #6A95E3",
",. c #6995E5",
"<. c #6894E6",
"1. c #6699E7",
"2. c #6F99E6",
"3. c #6F9AE6",
"4. c #699BE8",
"5. c #769DE3",
"6. c #719CE7",
"7. c #749EE6",
"8. c #769FE7",
"9. c #749EE8",
"0. c #759FE8",
"q. c #7AA1E4",
"w. c #79A1E7",
"e. c #71A5EC",
"r. c #72A6EC",
"t. c #79A2E8",
"y. c #7DA5E8",
"u. c #7AB0F0",
"i. c #7BB1F1",
"p. c #83BBF5",
"a. c #84BDF6",
"s. c #86C0F8",
"d. c None",
/* pixels */
"d.d.d.d.d.d.d.d.d.d.d.d.d.d.d.d.d.d.d.d.d.d.d.d.",
"d.d.d.d.d.d.d.d.d.d.d.d.d.d.d.d.d.d.d.d.d.d.d.d.",
"d.d.d.d.              d.d.              d.d.d.d.",
"d.d.d.d.. q.y.t.0.>.X d.d.. 5.w.8.6.:.X d.d.d.d.",
"d.d.d.d.O y.[ ] ' <.@ d.d.o w.Q W E -.@ d.d.d.d.",
"d.d.d.d.+ t.R T H *.$ d.d.+ 7.B B N $.$ d.d.d.d.",
"d.d.d.d.# 9.T H G +.& d.d.# 3.M M M X.& d.d.d.d.",
"d.d.d.d.% 2.H G F  .= d.d.% ,.x x z ( = d.d.d.d.",
"d.d.d.d.* <.G F S ) ; d.d.* $.d s i I ; d.d.d.d.",
"d.d.d.d.- *.F S B _ > d.d.- ` r r r U > d.d.d.d.",
"d.d.d.d.: #.D l u ! , d.d.: ~ r r r ! , d.d.d.d.",
"d.d.d.d.> / u r r ^ 1 d.d.> J r r r ^ 1 d.d.d.d.",
"d.d.d.d., c r r r | 3 d.d., c r r r | 3 d.d.d.d.",
"d.d.d.d.< U r r r o.5 d.d.< U r r r o.5 d.d.d.d.",
"d.d.d.d.2 ! r r t @.7 d.d.2 ! r r t @.7 d.d.d.d.",
"d.d.d.d.4 ^ y p a =.q d.d.4 ^ y p a =.q d.d.d.d.",
"d.d.d.d.5 ..a f h 4.e d.d.5 ..a f h 4.e d.d.d.d.",
"d.d.d.d.6 O.g Z L e.k d.d.6 O.g Z L e.k d.d.d.d.",
"d.d.d.d.7 &.A Y { u.b d.d.7 &.A Y { u.b d.d.d.d.",
"d.d.d.d.8 ;.P } %.p.m d.d.8 ;.P } %.p.m d.d.d.d.",
"d.d.d.d.9 1.r.i.a.s.C d.d.9 1.r.i.a.s.C d.d.d.d.",
"d.d.d.d.0 w j v n V K d.d.0 w j v n V K d.d.d.d.",
"d.d.d.d.d.d.d.d.d.d.d.d.d.d.d.d.d.d.d.d.d.d.d.d.",
"d.d.d.d.d.d.d.d.d.d.d.d.d.d.d.d.d.d.d.d.d.d.d.d."
};
