/* XPM */
static const char *multimedia_play_64x64_xpm[] = {
/* columns rows colors chars-per-pixel */
"64 64 125 2 ",
"   c #2F63BB",
".  c #3263B0",
"X  c #3D64B7",
"o  c #3668B6",
"O  c #3460B9",
"+  c #3866B9",
"@  c #376BBC",
"#  c #3C6CBA",
"$  c #3D71BE",
"%  c #496BB6",
"&  c #436EBC",
"*  c #4571BF",
"=  c #3B67C4",
"-  c #3E6FC1",
";  c #3A6EC9",
":  c #3E71C1",
">  c #3C73CC",
",  c #2564D4",
"<  c #2966D5",
"1  c #2B6AD6",
"2  c #2967D8",
"3  c #266AD8",
"4  c #2E6DD9",
"5  c #306AD5",
"6  c #306FDA",
"7  c #2F71DA",
"8  c #3972D5",
"9  c #3374DC",
"0  c #3A75DA",
"q  c #3679DE",
"w  c #397BDF",
"e  c #357BE0",
"r  c #3A7EE1",
"t  c #4674C5",
"y  c #4C72C3",
"u  c #467AC6",
"i  c #4574CE",
"p  c #4873CC",
"a  c #487ECE",
"s  c #597CC5",
"d  c #517FC9",
"f  c #5A7ECD",
"g  c #4676D6",
"h  c #4877D6",
"j  c #4778D7",
"k  c #4A79D5",
"l  c #4377D9",
"z  c #477BD9",
"x  c #497DDB",
"c  c #527FD3",
"v  c #517EDB",
"b  c #447DE5",
"n  c #3D82E3",
"m  c #3E88E7",
"M  c #4C83CE",
"N  c #5182CC",
"B  c #4E85D1",
"V  c #4681DE",
"C  c #4A82DE",
"Z  c #4F89DA",
"A  c #5382D6",
"S  c #5A86D4",
"D  c #538AD6",
"F  c #5A8AD5",
"G  c #5582D8",
"H  c #548BDB",
"J  c #5888DA",
"K  c #5791DB",
"L  c #5A93DD",
"P  c #6284CE",
"I  c #6387D3",
"U  c #6389D6",
"Y  c #638BD9",
"T  c #6192DC",
"R  c #4186E5",
"E  c #4C85E1",
"W  c #4289E6",
"Q  c #4C89E3",
"!  c #4485EC",
"~  c #4D87EA",
"^  c #458DE8",
"/  c #4F8CE9",
"(  c #5884E0",
")  c #548AE2",
"_  c #5C8DE6",
"`  c #5085EB",
"'  c #558AEA",
"]  c #598CEA",
"[  c #4790EA",
"{  c #4A94EC",
"}  c #4D98EE",
"|  c #5993E6",
" . c #5E99E3",
".. c #5395EE",
"X. c #5C95EA",
"o. c #529AEF",
"O. c #5C99EB",
"+. c #4385F1",
"@. c #4B90F3",
"#. c #4F9CF1",
"$. c #5696F0",
"%. c #569BF4",
"&. c #5B9CF3",
"*. c #638EE6",
"=. c #608DEA",
"-. c #619EE6",
";. c #6893EB",
":. c #649BEC",
">. c #689EEC",
",. c #659DF0",
"<. c #689EF0",
"1. c #56A0F2",
"2. c #5DA4F5",
"3. c #5EA8F5",
"4. c #62A0E7",
"5. c #65A5EF",
"6. c #63A3F4",
"7. c #6BA3F4",
"8. c #67A8F4",
"9. c #6AACF5",
"0. c #62A5F9",
"q. c #65ACFA",
"w. c #69ADFC",
"e. c #6CB3FE",
"r. c None",
/* pixels */
"r.r.r.r.r.r.r.r.r.r.r.r.r.r.r.r.r.r.r.r.r.r.r.r.r.r.r.r.r.r.r.r.r.r.r.r.r.r.r.r.r.r.r.r.r.r.r.r.r.r.r.r.r.r.r.r.r.r.r.r.r.r.r.r.",
"r.r.r.r.r.r.r.r.r.P s r.r.r.r.r.r.r.r.r.r.r.r.r.r.r.r.r.r.r.r.r.r.r.r.r.r.r.r.r.r.r.r.r.r.r.r.r.r.r.r.r.r.r.r.r.r.r.r.r.r.r.r.r.",
"r.r.r.r.r.r.r.r.P =.*.Y % r.r.r.r.r.r.r.r.r.r.r.r.r.r.r.r.r.r.r.r.r.r.r.r.r.r.r.r.r.r.r.r.r.r.r.r.r.r.r.r.r.r.r.r.r.r.r.r.r.r.r.",
"r.r.r.r.r.r.r.r.I j g v ;.f r.r.r.r.r.r.r.r.r.r.r.r.r.r.r.r.r.r.r.r.r.r.r.r.r.r.r.r.r.r.r.r.r.r.r.r.r.r.r.r.r.r.r.r.r.r.r.r.r.r.",
"r.r.r.r.r.r.r.r.I v h g g G =.y r.r.r.r.r.r.r.r.r.r.r.r.r.r.r.r.r.r.r.r.r.r.r.r.r.r.r.r.r.r.r.r.r.r.r.r.r.r.r.r.r.r.r.r.r.r.r.r.",
"r.r.r.r.r.r.r.r.I x g h g g h _ v X r.r.r.r.r.r.r.r.r.r.r.r.r.r.r.r.r.r.r.r.r.r.r.r.r.r.r.r.r.r.r.r.r.r.r.r.r.r.r.r.r.r.r.r.r.r.",
"r.r.r.r.r.r.r.r.I x g h h h h g x ] p r.r.r.r.r.r.r.r.r.r.r.r.r.r.r.r.r.r.r.r.r.r.r.r.r.r.r.r.r.r.r.r.r.r.r.r.r.r.r.r.r.r.r.r.r.",
"r.r.r.r.r.r.r.r.I v g h h h h h h h v ~ = r.r.r.r.r.r.r.r.r.r.r.r.r.r.r.r.r.r.r.r.r.r.r.r.r.r.r.r.r.r.r.r.r.r.r.r.r.r.r.r.r.r.r.",
"r.r.r.r.r.r.r.r.I x g h h g h h j j j x ~ g O r.r.r.r.r.r.r.r.r.r.r.r.r.r.r.r.r.r.r.r.r.r.r.r.r.r.r.r.r.r.r.r.r.r.r.r.r.r.r.r.r.",
"r.r.r.r.r.r.r.r.I x g h g h h h j j j j g x ` p r.r.r.r.r.r.r.r.r.r.r.r.r.r.r.r.r.r.r.r.r.r.r.r.r.r.r.r.r.r.r.r.r.r.r.r.r.r.r.r.",
"r.r.r.r.r.r.r.r.I v h h h z h h l j j j h h z ~ ' t r.r.r.r.r.r.r.r.r.r.r.r.r.r.r.r.r.r.r.r.r.r.r.r.r.r.r.r.r.r.r.r.r.r.r.r.r.r.",
"r.r.r.r.r.r.r.r.I b h h h h h z k j x j z z z h x ] J & r.r.r.r.r.r.r.r.r.r.r.r.r.r.r.r.r.r.r.r.r.r.r.r.r.r.r.r.r.r.r.r.r.r.r.r.",
"r.r.r.r.r.r.r.r.U x h h l l l j j j x j j j x j x g C >.S r.r.r.r.r.r.r.r.r.r.r.r.r.r.r.r.r.r.r.r.r.r.r.r.r.r.r.r.r.r.r.r.r.r.r.",
"r.r.r.r.r.r.r.r.U x h k z h j j j j l x x x j x x x j l _ >.N r.r.r.r.r.r.r.r.r.r.r.r.r.r.r.r.r.r.r.r.r.r.r.r.r.r.r.r.r.r.r.r.r.",
"r.r.r.r.r.r.r.r.U x k l l x j x j x k x x j l x x x x x l C :.L * r.r.r.r.r.r.r.r.r.r.r.r.r.r.r.r.r.r.r.r.r.r.r.r.r.r.r.r.r.r.r.",
"r.r.r.r.r.r.r.r.I b l j k j j l l x l x j x x x j x x C x x k H <.F r.r.r.r.r.r.r.r.r.r.r.r.r.r.r.r.r.r.r.r.r.r.r.r.r.r.r.r.r.r.",
"r.r.r.r.r.r.r.r.U x h j j j j j x j x l x x x x z C x x V x C z x X.>.N r.r.r.r.r.r.r.r.r.r.r.r.r.r.r.r.r.r.r.r.r.r.r.r.r.r.r.r.",
"r.r.r.r.r.r.r.r.U x g h l x x l l x k x x x x x x x z C x C z C C C C ,.L * r.r.r.r.r.r.r.r.r.r.r.r.r.r.r.r.r.r.r.r.r.r.r.r.r.r.",
"r.r.r.r.r.r.r.r.Y v j j j j j x x k x x x z z x z C x C C C C C C C C C ) 7.F r.r.r.r.r.r.r.r.r.r.r.r.r.r.r.r.r.r.r.r.r.r.r.r.r.",
"r.r.r.r.r.r.r.r.Y b j j j x x j x x x l z V x x V x C V C C C C C C C C C C :.5.N r.r.r.r.r.r.r.r.r.r.r.r.r.r.r.r.r.r.r.r.r.r.r.",
"r.r.r.r.r.r.r.r.U b k j z z z k z x z z V x x V V C C C C C C C C Q C C E E V Q 6.T t r.r.r.r.r.r.r.r.r.r.r.r.r.r.r.r.r.r.r.r.r.",
"r.r.r.r.r.r.r.r.U C l j k z z z z z V x z V x C C C C C C C C C C C C Q E Q Q C E | 7.F r.r.r.r.r.r.r.r.r.r.r.r.r.r.r.r.r.r.r.r.",
"r.r.r.r.r.r.r.r.Y x l x z z z V V x x x C z C x C C C C E C C Q E E Z E R z z w r 9 q / X.a r.r.r.r.r.r.r.r.r.r.r.r.r.r.r.r.r.r.",
"r.r.r.r.r.r.r.r.U x k k z z x z k x z C z C V C C C C C C Q V z w q 9 9 9 9 7 9 9 9 9 7 w $.H - r.r.r.r.r.r.r.r.r.r.r.r.r.r.r.r.",
"r.r.r.r.r.r.r.r.Y v l x z z x z V z C V C C V C C C C V w 9 9 4 9 9 9 9 q 9 q 9 q q q q q 9 R &.D r.r.r.r.r.r.r.r.r.r.r.r.r.r.r.",
"r.r.r.r.r.r.r.r.Y x l j z x z V z C V x C C C C z w 7 4 7 7 9 9 9 9 9 q q q q q w q q q w w q q / O.a r.r.r.r.r.r.r.r.r.r.r.r.r.",
"r.r.r.r.r.r.r.r.Y E x x z z z x z V x C C V 0 8 1 4 7 9 9 9 9 9 q 9 q q q q w w e r r w e r w r q n &.H : r.r.r.r.r.r.r.r.r.r.r.",
"r.r.r.r.r.r.r.r.U x x l z z V z V C C z 8 4 1 1 7 7 4 9 9 7 q 9 q q q q w w r w r r r w n r r r n e e ~ &.D r.r.r.r.r.r.r.r.r.r.",
"r.r.r.r.r.r.r.r.Y b z z x z z C C z 8 1 1 1 7 7 9 7 9 9 9 q q q q q w r r e r n n n r n n n n n r n r e r ..O.a r.r.r.r.r.r.r.r.",
"r.r.r.r.r.r.r.r.Y x z z b z C V 8 1 1 1 4 4 7 7 7 9 9 0 9 q q w w r r w n n r n n n n n n n n n n n n n n e R &.H r.r.r.r.r.r.r.",
"r.r.r.r.r.r.r.r.Y E z z x V l 4 < 1 1 4 4 4 7 7 9 9 9 9 q w w w r n r n n n n n n n n R n n n R n n n n n n n q $.H r.r.r.r.r.r.",
"r.r.r.r.r.r.r.r.Y G z x V 8 , < 1 4 1 4 7 7 7 0 9 9 q q q w w n w n n n n n R n R R W R R W R W R R R R n n n n n | r.r.r.r.r.r.",
"r.r.r.r.r.r.r.r.Y C z k 1 , < 1 1 1 4 4 7 9 9 9 7 q q w w w r r n n n m R n W R W W W W W W W W W W W R W R n n 2.B r.r.r.r.r.r.",
"r.r.r.r.r.r.r.r.Y C l , , < 1 1 1 4 4 4 7 7 9 9 q q w e e r n n n n n n W W W W ^ W W W W ^ ^ W W W W W m m ..5.B r.r.r.r.r.r.r.",
"r.r.r.r.r.r.r.r.Y z , , , , 1 1 4 4 4 9 9 9 9 q q q w w n n n n n n W W W W W W W ^ ^ ^ ^ ^ ^ ^ ^ ^ ^ n [ 0.L . r.r.r.r.r.r.r.r.",
"r.r.r.r.r.r.r.r.J 2 , , , 5 1 1 4 4 7 7 9 9 9 q q w w n w n n R n W W W W ^ ^ ^ [ ^ [ [ [ [ { ^ [ W [ 2.:.u r.r.r.r.r.r.r.r.r.r.",
"r.r.r.r.r.r.r.r.c 2 , , < 1 1 1 1 6 7 8 9 q 9 q w w e n n n n n R W W W ^ ^ [ [ [ [ [ { [ { { [ [ &.q.D r.r.r.r.r.r.r.r.r.r.r.r.",
"r.r.r.r.r.r.r.r.c 2 , < < 1 1 4 7 7 7 9 7 q q w e n n n n n W W W W ^ ^ [ [ [ [ { { { { { { [ o.q. .o r.r.r.r.r.r.r.r.r.r.r.r.r.",
"r.r.r.r.r.r.r.r.c 2 , < 1 1 4 4 4 4 9 9 9 q w w w n n n n W W W W ^ ^ { [ [ { { { { { } { } q.5.M r.r.r.r.r.r.r.r.r.r.r.r.r.r.r.",
"r.r.r.r.r.r.r.r.v 2 < < 1 1 4 4 7 9 9 9 q q w e w w n n n R W W ^ ^ ^ { { { { } } } } { 3.e.K r.r.r.r.r.r.r.r.r.r.r.r.r.r.r.r.r.",
"r.r.r.r.r.r.r.r.c 2 < 1 1 1 4 4 9 9 9 q 9 w w e r n n n W W W ^ ^ ^ { { { { } } } { 1.e.4.$ r.r.r.r.r.r.r.r.r.r.r.r.r.r.r.r.r.r.",
"r.r.r.r.r.r.r.r.G 2 < 2 1 1 4 6 4 9 9 q q w w n n n n R W W ^ ^ ^ { { { } } } { #.e.9.B r.r.r.r.r.r.r.r.r.r.r.r.r.r.r.r.r.r.r.r.",
"r.r.r.r.r.r.r.r.A 4 , 1 1 4 4 4 7 9 9 0 q w w n n n R n W W ^ ^ { { { { } } } 3.e.L r.r.r.r.r.r.r.r.r.r.r.r.r.r.r.r.r.r.r.r.r.r.",
"r.r.r.r.r.r.r.r.G 2 < 1 4 4 6 9 9 9 9 q q e w n n n R W W ^ ^ [ { { { o.} 1.e.4.$ r.r.r.r.r.r.r.r.r.r.r.r.r.r.r.r.r.r.r.r.r.r.r.",
"r.r.r.r.r.r.r.r.G 2 < 1 4 4 4 7 9 9 q q q q n n n R W W ^ ^ [ [ { { { } q.9.D r.r.r.r.r.r.r.r.r.r.r.r.r.r.r.r.r.r.r.r.r.r.r.r.r.",
"r.r.r.r.r.r.r.r.G 4 < 4 4 4 6 7 9 9 9 q w n w n n R R W ^ ^ [ { { [ 2.e.L r.r.r.r.r.r.r.r.r.r.r.r.r.r.r.r.r.r.r.r.r.r.r.r.r.r.r.",
"r.r.r.r.r.r.r.r.A 4 1 1 1 4 9 9 9 9 q q w e n n n W R W ^ ^ { ^ o.e.4.: r.r.r.r.r.r.r.r.r.r.r.r.r.r.r.r.r.r.r.r.r.r.r.r.r.r.r.r.",
"r.r.r.r.r.r.r.r.A 1 1 1 4 4 7 7 9 q q w e n e n n R W ^ ^ ^ [ 3.8.N r.r.r.r.r.r.r.r.r.r.r.r.r.r.r.r.r.r.r.r.r.r.r.r.r.r.r.r.r.r.",
"r.r.r.r.r.r.r.r.G 4 2 1 6 4 7 9 9 q q q r r n n n R W W W %.q.L r.r.r.r.r.r.r.r.r.r.r.r.r.r.r.r.r.r.r.r.r.r.r.r.r.r.r.r.r.r.r.r.",
"r.r.r.r.r.r.r.r.G 4 2 1 4 6 7 7 9 9 q q r r n n R W W [ q. .$ r.r.r.r.r.r.r.r.r.r.r.r.r.r.r.r.r.r.r.r.r.r.r.r.r.r.r.r.r.r.r.r.r.",
"r.r.r.r.r.r.r.r.G 2 4 4 4 7 8 9 9 q q w r r n n n W %.6.M r.r.r.r.r.r.r.r.r.r.r.r.r.r.r.r.r.r.r.r.r.r.r.r.r.r.r.r.r.r.r.r.r.r.r.",
"r.r.r.r.r.r.r.r.G 4 2 1 4 4 7 9 9 q q w r r n n ^ %.Z r.r.r.r.r.r.r.r.r.r.r.r.r.r.r.r.r.r.r.r.r.r.r.r.r.r.r.r.r.r.r.r.r.r.r.r.r.",
"r.r.r.r.r.r.r.r.A 4 1 1 4 4 7 9 9 q q e r r n @.E @ r.r.r.r.r.r.r.r.r.r.r.r.r.r.r.r.r.r.r.r.r.r.r.r.r.r.r.r.r.r.r.r.r.r.r.r.r.r.",
"r.r.r.r.r.r.r.r.A 4 1 1 4 4 7 7 9 q q q r ! ! > r.r.r.r.r.r.r.r.r.r.r.r.r.r.r.r.r.r.r.r.r.r.r.r.r.r.r.r.r.r.r.r.r.r.r.r.r.r.r.r.",
"r.r.r.r.r.r.r.r.G 6 1 1 5 7 9 9 q 9 e r +.8 r.r.r.r.r.r.r.r.r.r.r.r.r.r.r.r.r.r.r.r.r.r.r.r.r.r.r.r.r.r.r.r.r.r.r.r.r.r.r.r.r.r.",
"r.r.r.r.r.r.r.r.G 4 1 1 4 6 7 9 7 e ! z   r.r.r.r.r.r.r.r.r.r.r.r.r.r.r.r.r.r.r.r.r.r.r.r.r.r.r.r.r.r.r.r.r.r.r.r.r.r.r.r.r.r.r.",
"r.r.r.r.r.r.r.r.G 4 < 1 4 4 4 7 R ~ ; r.r.r.r.r.r.r.r.r.r.r.r.r.r.r.r.r.r.r.r.r.r.r.r.r.r.r.r.r.r.r.r.r.r.r.r.r.r.r.r.r.r.r.r.r.",
"r.r.r.r.r.r.r.r.v 4 1 4 4 3 e ' k r.r.r.r.r.r.r.r.r.r.r.r.r.r.r.r.r.r.r.r.r.r.r.r.r.r.r.r.r.r.r.r.r.r.r.r.r.r.r.r.r.r.r.r.r.r.r.",
"r.r.r.r.r.r.r.r.A 4 2 , 6 ~ C X r.r.r.r.r.r.r.r.r.r.r.r.r.r.r.r.r.r.r.r.r.r.r.r.r.r.r.r.r.r.r.r.r.r.r.r.r.r.r.r.r.r.r.r.r.r.r.r.",
"r.r.r.r.r.r.r.r.G , , b ] t r.r.r.r.r.r.r.r.r.r.r.r.r.r.r.r.r.r.r.r.r.r.r.r.r.r.r.r.r.r.r.r.r.r.r.r.r.r.r.r.r.r.r.r.r.r.r.r.r.r.",
"r.r.r.r.r.r.r.r.A b ' k r.r.r.r.r.r.r.r.r.r.r.r.r.r.r.r.r.r.r.r.r.r.r.r.r.r.r.r.r.r.r.r.r.r.r.r.r.r.r.r.r.r.r.r.r.r.r.r.r.r.r.r.",
"r.r.r.r.r.r.r.r.r.d & r.r.r.r.r.r.r.r.r.r.r.r.r.r.r.r.r.r.r.r.r.r.r.r.r.r.r.r.r.r.r.r.r.r.r.r.r.r.r.r.r.r.r.r.r.r.r.r.r.r.r.r.r.",
"r.r.r.r.r.r.r.r.r.r.r.r.r.r.r.r.r.r.r.r.r.r.r.r.r.r.r.r.r.r.r.r.r.r.r.r.r.r.r.r.r.r.r.r.r.r.r.r.r.r.r.r.r.r.r.r.r.r.r.r.r.r.r.r.",
"r.r.r.r.r.r.r.r.r.r.r.r.r.r.r.r.r.r.r.r.r.r.r.r.r.r.r.r.r.r.r.r.r.r.r.r.r.r.r.r.r.r.r.r.r.r.r.r.r.r.r.r.r.r.r.r.r.r.r.r.r.r.r.r."
};
