/* XPM */
static const char *new_64x64_xpm[] = {
/* columns rows colors chars-per-pixel */
"64 64 49 1 ",
"  c gray76",
". c #C5C5C5",
"X c #C6C6C6",
"o c #C8C8C8",
"O c #CACACA",
"+ c #CBCBCB",
"@ c gray80",
"# c #CDCDCD",
"$ c gray81",
"% c #D0D0D0",
"& c gray82",
"* c #D2D2D2",
"= c LightGray",
"- c gray84",
"; c #D8D8D8",
": c gray85",
"> c #DADADA",
", c gray86",
"< c gainsboro",
"1 c #DDDDDD",
"2 c #DFDFDF",
"3 c #E1E1E1",
"4 c #E4E4E4",
"5 c gray90",
"6 c #E6E6E6",
"7 c #E7E7E7",
"8 c gray91",
"9 c #E9E9E9",
"0 c #EAEAEA",
"q c gray92",
"w c #EEEEEE",
"e c #EFEFEF",
"r c gray94",
"t c #F1F1F1",
"y c gray95",
"u c #F3F3F3",
"i c #F4F4F4",
"p c gray96",
"a c #F6F6F6",
"s c gray97",
"d c #F8F8F8",
"f c #F9F9F9",
"g c gray98",
"h c #FBFBFB",
"j c gray99",
"k c #FDFDFD",
"l c #FEFEFE",
"z c white",
"x c None",
/* pixels */
"xxxxxxxxxxxxxxxxxxxxxxxxxxxxxxxxxxxxxxxxxxxxxxxxxxxxxxxxxxxxxxxx",
"xxxxxxxxxuyytyyyyyyyyyyyyyyyyyyyyyyyyytyw<xxxxxxxxxxxxxxxxxxxxxx",
"xxxxxxxx1zzzzzzzzzzzzzzzzzzzzzzzzzzzzzzzzh&xxxxxxxxxxxxxxxxxxxxx",
"xxxxxxxx,zllllllllllllllllllllllllllllllzu8=xxxxxxxxxxxxxxxxxxxx",
"xxxxxxxx,zzzzzzzzzzzzzzzzzzzzzzzzzzzzzzzzk2t%xxxxxxxxxxxxxxxxxxx",
"xxxxxxxx,zzzzzzzzzzzzzzzzzzzzzzzzzzzzzzzzz80d+xxxxxxxxxxxxxxxxxx",
"xxxxxxxx,zzzzzzzzzzzzzzzzzzzzzzzzzzzzzzzzzwwhp#xxxxxxxxxxxxxxxxx",
"xxxxxxxx,zzzzzzzzzzzzzzzzzzzzzzzzzzzzzzzzzywzda@xxxxxxxxxxxxxxxx",
"xxxxxxxx,zzzzzzzzzzzzzzzzzzzzzzzzzzzzzzzzziezzfaoxxxxxxxxxxxxxxx",
"xxxxxxxx,zzzzzzzzzzzzzzzzzzzzzzzzzzzzzzzzzprzlzfpoxxxxxxxxxxxxxx",
"xxxxxxxx,zzzzzzzzzzzzzzzzzzzzzzzzzzzzzzzzzirzzzzgaXxxxxxxxxxxxxx",
"xxxxxxxx,zzzzzzzzzzzzzzzzzzzzzzzzzzzzzzzzzpyzjjjjsfOxxxxxxxxxxxx",
"xxxxxxxx,zzzzzzzzzzzzzzzzzzzzzzzzzzzzzzzzzhe052;*$=6 xxxxxxxxxxx",
"xxxxxxxx,zzzzzzzzzzzzzzzzzzzzzzzzzzzzzzzzzzhfdspt03>8.xxxxxxxxxx",
"xxxxxxxx,zzzzzzzzzzzzzzzzzzzzzzzzzzzzzzzzzzzzzzzzzzksz%xxxxxxxxx",
"xxxxxxxx,zzzzzzzzzzzzzzzzzzzzzzzzzzzzzzzzzzzzzzzzlzzzzwxxxxxxxxx",
"xxxxxxxx,zzzzzzzzzzzzzzzzzzzzzzzzzzzzzzzzzzzzzzzzzzzlz0xxxxxxxxx",
"xxxxxxxx,zzzzzzzzzzzzzzzzzzzzzzzzzzzzzzzzzzzzzzzzzzzlzqxxxxxxxxx",
"xxxxxxxx,zzzzzzzzzzzzzzzzzzzzzzzzzzzzzzzzzzzzzzzzzzzlz0xxxxxxxxx",
"xxxxxxxx,zzzzzzzzzzzzzzzzzzzzzzzzzzzzzzzzzzzzzzzzzzzlz0xxxxxxxxx",
"xxxxxxxx,zzzzzzzzzzzzzzzzzzzzzzzzzzzzzzzzzzzzzzzzzzzlz0xxxxxxxxx",
"xxxxxxxx,zzzzzzzzzzzzzzzzzzzzzzzzzzzzzzzzzzzzzzzzzzzlz0xxxxxxxxx",
"xxxxxxxx,zzzzzzzzzzzzzzzzzzzzzzzzzzzzzzzzzzzzzzzzzzzlz0xxxxxxxxx",
"xxxxxxxx,zzzzzzzzzzzzzzzzzzzzzzzzzzzzzzzzzzzzzzzzzzzlz0xxxxxxxxx",
"xxxxxxxx,zzzzzzzzzzzzzzzzzzzzzzzzzzzzzzzzzzzzzzzzzzzlz0xxxxxxxxx",
"xxxxxxxx,zzzzzzzzzzzzzzzzzzzzzzzzzzzzzzzzzzzzzzzzzzzlz0xxxxxxxxx",
"xxxxxxxx,zzzzzzzzzzzzzzzzzzzzzzzzzzzzzzzzzzzzzzzzzzzlz0xxxxxxxxx",
"xxxxxxxx,zzzzzzzzzzzzzzzzzzzzzzzzzzzzzzzzzzzzzzzzzzzlz0xxxxxxxxx",
"xxxxxxxx,zzzzzzzzzzzzzzzzzzzzzzzzzzzzzzzzzzzzzzzzzzzlz0xxxxxxxxx",
"xxxxxxxx,zzzzzzzzzzzzzzzzzzzzzzzzzzzzzzzzzzzzzzzzzzzlz0xxxxxxxxx",
"xxxxxxxx,zzzzzzzzzzzzzzzzzzzzzzzzzzzzzzzzzzzzzzzzzzzlz0xxxxxxxxx",
"xxxxxxxx,zzzzzzzzzzzzzzzzzzzzzzzzzzzzzzzzzzzzzzzzzzzlz0xxxxxxxxx",
"xxxxxxxx,zzzzzzzzzzzzzzzzzzzzzzzzzzzzzzzzzzzzzzzzzzzlz0xxxxxxxxx",
"xxxxxxxx:zlllllllllllllllllllllllllllllllllllllllllllz0xxxxxxxxx",
"xxxxxxxx:zllllllllllllllllllllllllllllllllllllllllllkz9xxxxxxxxx",
"xxxxxxxx:zllllllllllllllllllllllllllllllllllllllllllkz9xxxxxxxxx",
"xxxxxxxx:zllllllllllllllllllllllllllllllllllllllllllkz9xxxxxxxxx",
"xxxxxxxx:zllllllllllllllllllllllllllllllllllllllllllkz9xxxxxxxxx",
"xxxxxxxx:zllllllllllllllllllllllllllllllllllllllllllkz9xxxxxxxxx",
"xxxxxxxx:zllllllllllllllllllllllllllllllllllllllllllkz9xxxxxxxxx",
"xxxxxxxx:zkkkkkkkkkkkkkkkkkkkkkkkkkkkkkkkkkkkkkkkkkkjz9xxxxxxxxx",
"xxxxxxxx:zkkkkkkkkkkkkkkkkkkkkkkkkkkkkkkkkkkkkkkkkkkjz9xxxxxxxxx",
"xxxxxxxx:zkkkkkkkkkkkkkkkkkkkkkkkkkkkkkkkkkkkkkkkkkkjz9xxxxxxxxx",
"xxxxxxxx:zkkkkkkkkkkkkkkkkkkkkkkkkkkkkkkkkkkkkkkkkkkjz9xxxxxxxxx",
"xxxxxxxx:zjjjjjjjjjjjjjjjjjjjjjjjjjjjjjjjjjjjjjjjjjjhz9xxxxxxxxx",
"xxxxxxxx:zjjjjjjjjjjjjjjjjjjjjjjjjjjjjjjjjjjjjjjjjjjhz9xxxxxxxxx",
"xxxxxxxx:zjjjjjjjjjjjjjjjjjjjjjjjjjjjjjjjjjjjjjjjjjjhz9xxxxxxxxx",
"xxxxxxxx:zhhhhhhhhhhhhhhhhhhhhhhhhhhhhhhhhhhhhhhhhhhgz8xxxxxxxxx",
"xxxxxxxx:zhhhhhhhhhhhhhhhhhhhhhhhhhhhhhhhhhhhhhhhhhhgz8xxxxxxxxx",
"xxxxxxxx:zhhhhhhhhhhhhhhhhhhhhhhhhhhhhhhhhhhhhhhhhhhgz8xxxxxxxxx",
"xxxxxxxx:zggggggggggggggggggggggggggggggggggggggggggfz7xxxxxxxxx",
"xxxxxxxx:zggggggggggggggggggggggggggggggggggggggggggfz7xxxxxxxxx",
"xxxxxxxx:zfffffffffffffffffffffffffffffffffffffffffffz7xxxxxxxxx",
"xxxxxxxx:zffffffffffffffffffffffffffffffffffffffffffdz7xxxxxxxxx",
"xxxxxxxx:zffffffffffffffffffffffffffffffffffffffffffdz7xxxxxxxxx",
"xxxxxxxx:zddddddddddddddddddddddddddddddddddddddddddsl7xxxxxxxxx",
"xxxxxxxx:zddddddddddddddddddddddddddddddddddddddddddsl6xxxxxxxxx",
"xxxxxxxx:zssssssssssssssssssssssssssssssssssssssssssak6xxxxxxxxx",
"xxxxxxxx:zasssssssssssssssssssssssssssssssssssssssssak6xxxxxxxxx",
"xxxxxxxx:zppppppppppppppppppppppppppppppppppppppppppph5xxxxxxxxx",
"xxxxxxxx,zdjhjjjjjjjjjjjjjjjjjjjjjjjjjjjjjjjjjjjjjjjgz9xxxxxxxxx",
"xxxxxxxxx955555555555555555555555555555555555555555548-xxxxxxxxx",
"xxxxxxxxxxxxxxxxxxxxxxxxxxxxxxxxxxxxxxxxxxxxxxxxxxxxxxxxxxxxxxxx",
"xxxxxxxxxxxxxxxxxxxxxxxxxxxxxxxxxxxxxxxxxxxxxxxxxxxxxxxxxxxxxxxx"
};
