/* XPM */
static const char *new_16x16_xpm[] = {
/* columns rows colors chars-per-pixel */
"16 16 17 1 ",
"  c gray53",
". c #888888",
"X c gray54",
"o c gray56",
"O c #9D9D9D",
"+ c #A5A5A5",
"@ c gray68",
"# c #B6B6B6",
"$ c #DDDDDD",
"% c #F9F9F9",
"& c gray98",
"* c #FBFBFB",
"= c gray99",
"- c #FDFDFD",
"; c #FEFEFE",
": c white",
"> c None",
/* pixels */
">##########>>>>>",
">#:::::::#$#>>>>",
">#:::::::#-$#>>>",
">#:::::::+:-$#>>",
">#:::::::.   O>>",
">#:::::::::::X>>",
">#::::::::::: >>",
">#::::::::::: >>",
">#::::::::::: >>",
">#:;;;;;;;;;: >>",
">#:--------;: >>",
">#:========-: >>",
">#:&&&&&&&&*: >>",
">#:%%%%%%%%&: >>",
">#::::::::::: >>",
">@o           >>"
};
