/* XPM */
static const char *new_128x128_xpm[] = {
/* columns rows colors chars-per-pixel */
"128 128 62 1 ",
"  c #B2B2B2",
". c #B9B9B9",
"X c gray73",
"o c #BBBBBB",
"O c gray",
"+ c gray75",
"@ c gray76",
"# c #C3C3C3",
"$ c #C5C5C5",
"% c gray79",
"& c #CBCBCB",
"* c #CDCDCD",
"= c #CECECE",
"- c gray81",
"; c #D0D0D0",
": c gray82",
"> c #D2D2D2",
", c LightGray",
"< c gray83",
"1 c #D5D5D5",
"2 c gray84",
"3 c #D7D7D7",
"4 c #D8D8D8",
"5 c #DADADA",
"6 c gray86",
"7 c gainsboro",
"8 c #DDDDDD",
"9 c gray87",
"0 c #DFDFDF",
"q c gray88",
"w c #E1E1E1",
"e c #E2E2E2",
"r c gray89",
"t c #E4E4E4",
"y c gray90",
"u c #E6E6E6",
"i c #E7E7E7",
"p c gray91",
"a c #E9E9E9",
"s c #EAEAEA",
"d c gray92",
"f c #ECECEC",
"g c gray93",
"h c #EEEEEE",
"j c #EFEFEF",
"k c gray94",
"l c #F1F1F1",
"z c gray95",
"x c #F3F3F3",
"c c #F4F4F4",
"v c gray96",
"b c #F6F6F6",
"n c gray97",
"m c #F8F8F8",
"M c #F9F9F9",
"N c gray98",
"B c #FBFBFB",
"V c gray99",
"C c #FDFDFD",
"Z c #FEFEFE",
"A c white",
"S c None",
/* pixels */
"SSSSSSSSSSSSSSSSSSSSSSSSSSSSSSSSSSSSSSSSSSSSSSSSSSSSSSSSSSSSSSSSSSSSSSSSSSSSSSSSSSSSSSSSSSSSSSSSSSSSSSSSSSSSSSSSSSSSSSSSSSSSSSSS",
"SSSSSSSSSSSSSSSSSSSSSSSSSSSSSSSSSSSSSSSSSSSSSSSSSSSSSSSSSSSSSSSSSSSSSSSSSSSSSSSSSSSSSSSSSSSSSSSSSSSSSSSSSSSSSSSSSSSSSSSSSSSSSSSS",
"SSSSSSSSSSSSSSSSS*r0qqqqqqqqqqqqqqqqqqqqqqqqqqqqqqqqqqqqqqqqqqqqqqqqqqqqqqqqqqqq09<SSSSSSSSSSSSSSSSSSSSSSSSSSSSSSSSSSSSSSSSSSSSS",
"SSSSSSSSSSSSSSSSSrAAAAAAAAAAAAAAAAAAAAAAAAAAAAAAAAAAAAAAAAAAAAAAAAAAAAAAAAAAAAAAACC4SSSSSSSSSSSSSSSSSSSSSSSSSSSSSSSSSSSSSSSSSSSS",
"SSSSSSSSSSSSSSSSS0ACZZZZZZZZZZZZZZZZZZZZZZZZZZZZZZZZZZZZZZZZZZZZZZZZZZZZZZZZZZZZANgk1SSSSSSSSSSSSSSSSSSSSSSSSSSSSSSSSSSSSSSSSSSS",
"SSSSSSSSSSSSSSSSSqAZAAAAAAAAAAAAAAAAAAAAAAAAAAAAAAAAAAAAAAAAAAAAAAAAAAAAAAAAAAAAAAzwi1SSSSSSSSSSSSSSSSSSSSSSSSSSSSSSSSSSSSSSSSSS",
"SSSSSSSSSSSSSSSSSqAZAAAAAAAAAAAAAAAAAAAAAAAAAAAAAAAAAAAAAAAAAAAAAAAAAAAAAAAAAAAAAABi2u<SSSSSSSSSSSSSSSSSSSSSSSSSSSSSSSSSSSSSSSSS",
"SSSSSSSSSSSSSSSSSqAZAAAAAAAAAAAAAAAAAAAAAAAAAAAAAAAAAAAAAAAAAAAAAAAAAAAAAAAAAAAAAAZl53s,SSSSSSSSSSSSSSSSSSSSSSSSSSSSSSSSSSSSSSSS",
"SSSSSSSSSSSSSSSSSqAZAAAAAAAAAAAAAAAAAAAAAAAAAAAAAAAAAAAAAAAAAAAAAAAAAAAAAAAAAAAAAAAnt<ta,SSSSSSSSSSSSSSSSSSSSSSSSSSSSSSSSSSSSSSS",
"SSSSSSSSSSSSSSSSSqAZAAAAAAAAAAAAAAAAAAAAAAAAAAAAAAAAAAAAAAAAAAAAAAAAAAAAAAAAAAAAAAABd3tsa*SSSSSSSSSSSSSSSSSSSSSSSSSSSSSSSSSSSSSS",
"SSSSSSSSSSSSSSSSSqAZAAAAAAAAAAAAAAAAAAAAAAAAAAAAAAAAAAAAAAAAAAAAAAAAAAAAAAAAAAAAAAAZl7wxia&SSSSSSSSSSSSSSSSSSSSSSSSSSSSSSSSSSSSS",
"SSSSSSSSSSSSSSSSSqAZAAAAAAAAAAAAAAAAAAAAAAAAAAAAAAAAAAAAAAAAAAAAAAAAAAAAAAAAAAAAAAAAve9nkps&SSSSSSSSSSSSSSSSSSSSSSSSSSSSSSSSSSSS",
"SSSSSSSSSSSSSSSSSqAZAAAAAAAAAAAAAAAAAAAAAAAAAAAAAAAAAAAAAAAAAAAAAAAAAAAAAAAAAAAAAAAAmu0Vmkps&SSSSSSSSSSSSSSSSSSSSSSSSSSSSSSSSSSS",
"SSSSSSSSSSSSSSSSSqAZAAAAAAAAAAAAAAAAAAAAAAAAAAAAAAAAAAAAAAAAAAAAAAAAAAAAAAAAAAAAAAAANs0CZnkps&SSSSSSSSSSSSSSSSSSSSSSSSSSSSSSSSSS",
"SSSSSSSSSSSSSSSSSqAZAAAAAAAAAAAAAAAAAAAAAAAAAAAAAAAAAAAAAAAAAAAAAAAAAAAAAAAAAAAAAAAAVg9VACnkps&SSSSSSSSSSSSSSSSSSSSSSSSSSSSSSSSS",
"SSSSSSSSSSSSSSSSSqAZAAAAAAAAAAAAAAAAAAAAAAAAAAAAAAAAAAAAAAAAAAAAAAAAAAAAAAAAAAAAAAAACjqCAACnkps&SSSSSSSSSSSSSSSSSSSSSSSSSSSSSSSS",
"SSSSSSSSSSSSSSSSSqAZAAAAAAAAAAAAAAAAAAAAAAAAAAAAAAAAAAAAAAAAAAAAAAAAAAAAAAAAAAAAAAAACkwCAAACnkid#SSSSSSSSSSSSSSSSSSSSSSSSSSSSSSS",
"SSSSSSSSSSSSSSSSSqAZAAAAAAAAAAAAAAAAAAAAAAAAAAAAAAAAAAAAAAAAAAAAAAAAAAAAAAAAAAAAAAAAZleCAAAACnkps@SSSSSSSSSSSSSSSSSSSSSSSSSSSSSS",
"SSSSSSSSSSSSSSSSSqAZAAAAAAAAAAAAAAAAAAAAAAAAAAAAAAAAAAAAAAAAAAAAAAAAAAAAAAAAAAAAAAAAZzeCAAAAACnkps@SSSSSSSSSSSSSSSSSSSSSSSSSSSSS",
"SSSSSSSSSSSSSSSSSqAZAAAAAAAAAAAAAAAAAAAAAAAAAAAAAAAAAAAAAAAAAAAAAAAAAAAAAAAAAAAAAAAAZzeCAAAAAACnkpd@SSSSSSSSSSSSSSSSSSSSSSSSSSSS",
"SSSSSSSSSSSSSSSSSqAZAAAAAAAAAAAAAAAAAAAAAAAAAAAAAAAAAAAAAAAAAAAAAAAAAAAAAAAAAAAAAAAAZleCAAAAAAACnkpd@SSSSSSSSSSSSSSSSSSSSSSSSSSS",
"SSSSSSSSSSSSSSSSSqAZAAAAAAAAAAAAAAAAAAAAAAAAAAAAAAAAAAAAAAAAAAAAAAAAAAAAAAAAAAAAAAAACkrCAAAAAAAACnkpd#SSSSSSSSSSSSSSSSSSSSSSSSSS",
"SSSSSSSSSSSSSSSSSqAZAAAAAAAAAAAAAAAAAAAAAAAAAAAAAAAAAAAAAAAAAAAAAAAAAAAAAAAAAAAAAAAACluCAAAAAAAAAZmkis#SSSSSSSSSSSSSSSSSSSSSSSSS",
"SSSSSSSSSSSSSSSSSqAZAAAAAAAAAAAAAAAAAAAAAAAAAAAAAAAAAAAAAAAAAAAAAAAAAAAAAAAAAAAAAAAACxsCZZZZZZCCCCVmxda.SSSSSSSSSSSSSSSSSSSSSSSS",
"SSSSSSSSSSSSSSSSSqAZAAAAAAAAAAAAAAAAAAAAAAAAAAAAAAAAAAAAAAAAAAAAAAAAAAAAAAAAAAAAAAAACbhfpye0741,:=*,5wpsXSSSSSSSSSSSSSSSSSSSSSSS",
"SSSSSSSSSSSSSSSSSqAZAAAAAAAAAAAAAAAAAAAAAAAAAAAAAAAAAAAAAAAAAAAAAAAAAAAAAAAAAAAAAAAAZMcjfspye963,;*%$$&4uXSSSSSSSSSSSSSSSSSSSSSS",
"SSSSSSSSSSSSSSSSSqAZAAAAAAAAAAAAAAAAAAAAAAAAAAAAAAAAAAAAAAAAAAAAAAAAAAAAAAAAAAAAAAAAACMnbbvcxzkgsuw852>-1tXSSSSSSSSSSSSSSSSSSSSS",
"SSSSSSSSSSSSSSSSSqAZAAAAAAAAAAAAAAAAAAAAAAAAAAAAAAAAAAAAAAAAAAAAAAAAAAAAAAAAAAAAAAAAAAZZCCZZZZCCVBMblfuw69soSSSSSSSSSSSSSSSSSSSS",
"SSSSSSSSSSSSSSSSSqAZAAAAAAAAAAAAAAAAAAAAAAAAAAAAAAAAAAAAAAAAAAAAAAAAAAAAAAAAAAAAAAAAAAAAAAAAAAAAAAAAAACMzssxOSSSSSSSSSSSSSSSSSSS",
"SSSSSSSSSSSSSSSSSqAZAAAAAAAAAAAAAAAAAAAAAAAAAAAAAAAAAAAAAAAAAAAAAAAAAAAAAAAAAAAAAAAAAAAAAAAAAAAAAAAAAAAAAZmbV+SSSSSSSSSSSSSSSSSS",
"SSSSSSSSSSSSSSSSSqAZAAAAAAAAAAAAAAAAAAAAAAAAAAAAAAAAAAAAAAAAAAAAAAAAAAAAAAAAAAAAAAAAAAAAAAAAAAAAAAAAAAAAAAACA7SSSSSSSSSSSSSSSSSS",
"SSSSSSSSSSSSSSSSSqAZAAAAAAAAAAAAAAAAAAAAAAAAAAAAAAAAAAAAAAAAAAAAAAAAAAAAAAAAAAAAAAAAAAAAAAAAAAAAAAAAAAAAAAAZA2SSSSSSSSSSSSSSSSSS",
"SSSSSSSSSSSSSSSSSqAZAAAAAAAAAAAAAAAAAAAAAAAAAAAAAAAAAAAAAAAAAAAAAAAAAAAAAAAAAAAAAAAAAAAAAAAAAAAAAAAAAAAAAAAZA:SSSSSSSSSSSSSSSSSS",
"SSSSSSSSSSSSSSSSSqAZAAAAAAAAAAAAAAAAAAAAAAAAAAAAAAAAAAAAAAAAAAAAAAAAAAAAAAAAAAAAAAAAAAAAAAAAAAAAAAAAAAAAAAAZA;SSSSSSSSSSSSSSSSSS",
"SSSSSSSSSSSSSSSSSqAZAAAAAAAAAAAAAAAAAAAAAAAAAAAAAAAAAAAAAAAAAAAAAAAAAAAAAAAAAAAAAAAAAAAAAAAAAAAAAAAAAAAAAAAZA;SSSSSSSSSSSSSSSSSS",
"SSSSSSSSSSSSSSSSSqAZAAAAAAAAAAAAAAAAAAAAAAAAAAAAAAAAAAAAAAAAAAAAAAAAAAAAAAAAAAAAAAAAAAAAAAAAAAAAAAAAAAAAAAAZA;SSSSSSSSSSSSSSSSSS",
"SSSSSSSSSSSSSSSSSqAZAAAAAAAAAAAAAAAAAAAAAAAAAAAAAAAAAAAAAAAAAAAAAAAAAAAAAAAAAAAAAAAAAAAAAAAAAAAAAAAAAAAAAAAZA;SSSSSSSSSSSSSSSSSS",
"SSSSSSSSSSSSSSSSSqAZAAAAAAAAAAAAAAAAAAAAAAAAAAAAAAAAAAAAAAAAAAAAAAAAAAAAAAAAAAAAAAAAAAAAAAAAAAAAAAAAAAAAAAAZA;SSSSSSSSSSSSSSSSSS",
"SSSSSSSSSSSSSSSSSqAZAAAAAAAAAAAAAAAAAAAAAAAAAAAAAAAAAAAAAAAAAAAAAAAAAAAAAAAAAAAAAAAAAAAAAAAAAAAAAAAAAAAAAAAZA;SSSSSSSSSSSSSSSSSS",
"SSSSSSSSSSSSSSSSSqAZAAAAAAAAAAAAAAAAAAAAAAAAAAAAAAAAAAAAAAAAAAAAAAAAAAAAAAAAAAAAAAAAAAAAAAAAAAAAAAAAAAAAAAAZA;SSSSSSSSSSSSSSSSSS",
"SSSSSSSSSSSSSSSSSqAZAAAAAAAAAAAAAAAAAAAAAAAAAAAAAAAAAAAAAAAAAAAAAAAAAAAAAAAAAAAAAAAAAAAAAAAAAAAAAAAAAAAAAAAZA;SSSSSSSSSSSSSSSSSS",
"SSSSSSSSSSSSSSSSSqAZAAAAAAAAAAAAAAAAAAAAAAAAAAAAAAAAAAAAAAAAAAAAAAAAAAAAAAAAAAAAAAAAAAAAAAAAAAAAAAAAAAAAAAAZA;SSSSSSSSSSSSSSSSSS",
"SSSSSSSSSSSSSSSSSqAZAAAAAAAAAAAAAAAAAAAAAAAAAAAAAAAAAAAAAAAAAAAAAAAAAAAAAAAAAAAAAAAAAAAAAAAAAAAAAAAAAAAAAAAZA;SSSSSSSSSSSSSSSSSS",
"SSSSSSSSSSSSSSSSSqAZAAAAAAAAAAAAAAAAAAAAAAAAAAAAAAAAAAAAAAAAAAAAAAAAAAAAAAAAAAAAAAAAAAAAAAAAAAAAAAAAAAAAAAAZA;SSSSSSSSSSSSSSSSSS",
"SSSSSSSSSSSSSSSSSqAZAAAAAAAAAAAAAAAAAAAAAAAAAAAAAAAAAAAAAAAAAAAAAAAAAAAAAAAAAAAAAAAAAAAAAAAAAAAAAAAAAAAAAAAZA;SSSSSSSSSSSSSSSSSS",
"SSSSSSSSSSSSSSSSSqAZAAAAAAAAAAAAAAAAAAAAAAAAAAAAAAAAAAAAAAAAAAAAAAAAAAAAAAAAAAAAAAAAAAAAAAAAAAAAAAAAAAAAAAAZA;SSSSSSSSSSSSSSSSSS",
"SSSSSSSSSSSSSSSSSqAZAAAAAAAAAAAAAAAAAAAAAAAAAAAAAAAAAAAAAAAAAAAAAAAAAAAAAAAAAAAAAAAAAAAAAAAAAAAAAAAAAAAAAAAZA;SSSSSSSSSSSSSSSSSS",
"SSSSSSSSSSSSSSSSSqAZAAAAAAAAAAAAAAAAAAAAAAAAAAAAAAAAAAAAAAAAAAAAAAAAAAAAAAAAAAAAAAAAAAAAAAAAAAAAAAAAAAAAAAAZA;SSSSSSSSSSSSSSSSSS",
"SSSSSSSSSSSSSSSSSqAZAAAAAAAAAAAAAAAAAAAAAAAAAAAAAAAAAAAAAAAAAAAAAAAAAAAAAAAAAAAAAAAAAAAAAAAAAAAAAAAAAAAAAAAZA;SSSSSSSSSSSSSSSSSS",
"SSSSSSSSSSSSSSSSSqAZAAAAAAAAAAAAAAAAAAAAAAAAAAAAAAAAAAAAAAAAAAAAAAAAAAAAAAAAAAAAAAAAAAAAAAAAAAAAAAAAAAAAAAAZA;SSSSSSSSSSSSSSSSSS",
"SSSSSSSSSSSSSSSSSqAZAAAAAAAAAAAAAAAAAAAAAAAAAAAAAAAAAAAAAAAAAAAAAAAAAAAAAAAAAAAAAAAAAAAAAAAAAAAAAAAAAAAAAAAZA;SSSSSSSSSSSSSSSSSS",
"SSSSSSSSSSSSSSSSSqAZAAAAAAAAAAAAAAAAAAAAAAAAAAAAAAAAAAAAAAAAAAAAAAAAAAAAAAAAAAAAAAAAAAAAAAAAAAAAAAAAAAAAAAAZA;SSSSSSSSSSSSSSSSSS",
"SSSSSSSSSSSSSSSSSqAZAAAAAAAAAAAAAAAAAAAAAAAAAAAAAAAAAAAAAAAAAAAAAAAAAAAAAAAAAAAAAAAAAAAAAAAAAAAAAAAAAAAAAAAZA;SSSSSSSSSSSSSSSSSS",
"SSSSSSSSSSSSSSSSSqAZAAAAAAAAAAAAAAAAAAAAAAAAAAAAAAAAAAAAAAAAAAAAAAAAAAAAAAAAAAAAAAAAAAAAAAAAAAAAAAAAAAAAAAAZA;SSSSSSSSSSSSSSSSSS",
"SSSSSSSSSSSSSSSSSqAZAAAAAAAAAAAAAAAAAAAAAAAAAAAAAAAAAAAAAAAAAAAAAAAAAAAAAAAAAAAAAAAAAAAAAAAAAAAAAAAAAAAAAAAZA;SSSSSSSSSSSSSSSSSS",
"SSSSSSSSSSSSSSSSSqAZAAAAAAAAAAAAAAAAAAAAAAAAAAAAAAAAAAAAAAAAAAAAAAAAAAAAAAAAAAAAAAAAAAAAAAAAAAAAAAAAAAAAAAAZA;SSSSSSSSSSSSSSSSSS",
"SSSSSSSSSSSSSSSSSqAZAAAAAAAAAAAAAAAAAAAAAAAAAAAAAAAAAAAAAAAAAAAAAAAAAAAAAAAAAAAAAAAAAAAAAAAAAAAAAAAAAAAAAAAZA;SSSSSSSSSSSSSSSSSS",
"SSSSSSSSSSSSSSSSSqAZAAAAAAAAAAAAAAAAAAAAAAAAAAAAAAAAAAAAAAAAAAAAAAAAAAAAAAAAAAAAAAAAAAAAAAAAAAAAAAAAAAAAAAAZA;SSSSSSSSSSSSSSSSSS",
"SSSSSSSSSSSSSSSSSqAZAAAAAAAAAAAAAAAAAAAAAAAAAAAAAAAAAAAAAAAAAAAAAAAAAAAAAAAAAAAAAAAAAAAAAAAAAAAAAAAAAAAAAAAZA;SSSSSSSSSSSSSSSSSS",
"SSSSSSSSSSSSSSSSSqAZAAAAAAAAAAAAAAAAAAAAAAAAAAAAAAAAAAAAAAAAAAAAAAAAAAAAAAAAAAAAAAAAAAAAAAAAAAAAAAAAAAAAAAAZA;SSSSSSSSSSSSSSSSSS",
"SSSSSSSSSSSSSSSSSqAZAAAAAAAAAAAAAAAAAAAAAAAAAAAAAAAAAAAAAAAAAAAAAAAAAAAAAAAAAAAAAAAAAAAAAAAAAAAAAAAAAAAAAAAZA;SSSSSSSSSSSSSSSSSS",
"SSSSSSSSSSSSSSSSSqAZAAAAAAAAAAAAAAAAAAAAAAAAAAAAAAAAAAAAAAAAAAAAAAAAAAAAAAAAAAAAAAAAAAAAAAAAAAAAAAAAAAAAAAAZA;SSSSSSSSSSSSSSSSSS",
"SSSSSSSSSSSSSSSSSqAZAAAAAAAAAAAAAAAAAAAAAAAAAAAAAAAAAAAAAAAAAAAAAAAAAAAAAAAAAAAAAAAAAAAAAAAAAAAAAAAAAAAAAAAZA;SSSSSSSSSSSSSSSSSS",
"SSSSSSSSSSSSSSSSSqAZAAAAAAAAAAAAAAAAAAAAAAAAAAAAAAAAAAAAAAAAAAAAAAAAAAAAAAAAAAAAAAAAAAAAAAAAAAAAAAAAAAAAAAAZA;SSSSSSSSSSSSSSSSSS",
"SSSSSSSSSSSSSSSSSqAZAAAAAAAAAAAAAAAAAAAAAAAAAAAAAAAAAAAAAAAAAAAAAAAAAAAAAAAAAAAAAAAAAAAAAAAAAAAAAAAAAAAAAAAZA;SSSSSSSSSSSSSSSSSS",
"SSSSSSSSSSSSSSSSSqAZAAAAAAAAAAAAAAAAAAAAAAAAAAAAAAAAAAAAAAAAAAAAAAAAAAAAAAAAAAAAAAAAAAAAAAAAAAAAAAAAAAAAAAAZA;SSSSSSSSSSSSSSSSSS",
"SSSSSSSSSSSSSSSSSqAZAAAAAAAAAAAAAAAAAAAAAAAAAAAAAAAAAAAAAAAAAAAAAAAAAAAAAAAAAAAAAAAAAAAAAAAAAAAAAAAAAAAAAAAZA;SSSSSSSSSSSSSSSSSS",
"SSSSSSSSSSSSSSSSSqACZZZZZZZZZZZZZZZZZZZZZZZZZZZZZZZZZZZZZZZZZZZZZZZZZZZZZZZZZZZZZZZZZZZZZZZZZZZZZZZZZZZZZZZCA;SSSSSSSSSSSSSSSSSS",
"SSSSSSSSSSSSSSSSSqACZZZZZZZZZZZZZZZZZZZZZZZZZZZZZZZZZZZZZZZZZZZZZZZZZZZZZZZZZZZZZZZZZZZZZZZZZZZZZZZZZZZZZZZCA;SSSSSSSSSSSSSSSSSS",
"SSSSSSSSSSSSSSSSSqACZZZZZZZZZZZZZZZZZZZZZZZZZZZZZZZZZZZZZZZZZZZZZZZZZZZZZZZZZZZZZZZZZZZZZZZZZZZZZZZZZZZZZZZCA;SSSSSSSSSSSSSSSSSS",
"SSSSSSSSSSSSSSSSSqACZZZZZZZZZZZZZZZZZZZZZZZZZZZZZZZZZZZZZZZZZZZZZZZZZZZZZZZZZZZZZZZZZZZZZZZZZZZZZZZZZZZZZZZCA;SSSSSSSSSSSSSSSSSS",
"SSSSSSSSSSSSSSSSSqACZZZZZZZZZZZZZZZZZZZZZZZZZZZZZZZZZZZZZZZZZZZZZZZZZZZZZZZZZZZZZZZZZZZZZZZZZZZZZZZZZZZZZZZCA;SSSSSSSSSSSSSSSSSS",
"SSSSSSSSSSSSSSSSSqACZZZZZZZZZZZZZZZZZZZZZZZZZZZZZZZZZZZZZZZZZZZZZZZZZZZZZZZZZZZZZZZZZZZZZZZZZZZZZZZZZZZZZZZCA;SSSSSSSSSSSSSSSSSS",
"SSSSSSSSSSSSSSSSSqACZZZZZZZZZZZZZZZZZZZZZZZZZZZZZZZZZZZZZZZZZZZZZZZZZZZZZZZZZZZZZZZZZZZZZZZZZZZZZZZZZZZZZZZCA;SSSSSSSSSSSSSSSSSS",
"SSSSSSSSSSSSSSSSSqACZZZZZZZZZZZZZZZZZZZZZZZZZZZZZZZZZZZZZZZZZZZZZZZZZZZZZZZZZZZZZZZZZZZZZZZZZZZZZZZZZZZZZZZCA;SSSSSSSSSSSSSSSSSS",
"SSSSSSSSSSSSSSSSSqACZZZZZZZZZZZZZZZZZZZZZZZZZZZZZZZZZZZZZZZZZZZZZZZZZZZZZZZZZZZZZZZZZZZZZZZZZZZZZZZZZZZZZZZCA;SSSSSSSSSSSSSSSSSS",
"SSSSSSSSSSSSSSSSSqACZZZZZZZZZZZZZZZZZZZZZZZZZZZZZZZZZZZZZZZZZZZZZZZZZZZZZZZZZZZZZZZZZZZZZZZZZZZZZZZZZZZZZZZCA;SSSSSSSSSSSSSSSSSS",
"SSSSSSSSSSSSSSSSSqACZZZZZZZZZZZZZZZZZZZZZZZZZZZZZZZZZZZZZZZZZZZZZZZZZZZZZZZZZZZZZZZZZZZZZZZZZZZZZZZZZZZZZZZCA;SSSSSSSSSSSSSSSSSS",
"SSSSSSSSSSSSSSSSSqACZZZZZZZZZZZZZZZZZZZZZZZZZZZZZZZZZZZZZZZZZZZZZZZZZZZZZZZZZZZZZZZZZZZZZZZZZZZZZZZZZZZZZZZCA;SSSSSSSSSSSSSSSSSS",
"SSSSSSSSSSSSSSSSSqACCCCCCCCCCCCCCCCCCCCCCCCCCCCCCCCCCCCCCCCCCCCCCCCCCCCCCCCCCCCCCCCCCCCCCCCCCCCCCCCCCCCCCCCVA;SSSSSSSSSSSSSSSSSS",
"SSSSSSSSSSSSSSSSSqAVCCCCCCCCCCCCCCCCCCCCCCCCCCCCCCCCCCCCCCCCCCCCCCCCCCCCCCCCCCCCCCCCCCCCCCCCCCCCCCCCCCCCCCCVA;SSSSSSSSSSSSSSSSSS",
"SSSSSSSSSSSSSSSSSqAVCCCCCCCCCCCCCCCCCCCCCCCCCCCCCCCCCCCCCCCCCCCCCCCCCCCCCCCCCCCCCCCCCCCCCCCCCCCCCCCCCCCCCCCVA;SSSSSSSSSSSSSSSSSS",
"SSSSSSSSSSSSSSSSSqAVCCCCCCCCCCCCCCCCCCCCCCCCCCCCCCCCCCCCCCCCCCCCCCCCCCCCCCCCCCCCCCCCCCCCCCCCCCCCCCCCCCCCCCCVA;SSSSSSSSSSSSSSSSSS",
"SSSSSSSSSSSSSSSSSqAVCCCCCCCCCCCCCCCCCCCCCCCCCCCCCCCCCCCCCCCCCCCCCCCCCCCCCCCCCCCCCCCCCCCCCCCCCCCCCCCCCCCCCCCVA;SSSSSSSSSSSSSSSSSS",
"SSSSSSSSSSSSSSSSSqAVCCCCCCCCCCCCCCCCCCCCCCCCCCCCCCCCCCCCCCCCCCCCCCCCCCCCCCCCCCCCCCCCCCCCCCCCCCCCCCCCCCCCCCCVA;SSSSSSSSSSSSSSSSSS",
"SSSSSSSSSSSSSSSSSqAVCCCCCCCCCCCCCCCCCCCCCCCCCCCCCCCCCCCCCCCCCCCCCCCCCCCCCCCCCCCCCCCCCCCCCCCCCCCCCCCCCCCCCCCVA;SSSSSSSSSSSSSSSSSS",
"SSSSSSSSSSSSSSSSSqAVCCCCCCCCCCCCCCCCCCCCCCCCCCCCCCCCCCCCCCCCCCCCCCCCCCCCCCCCCCCCCCCCCCCCCCCCCCCCCCCCCCCCCCCVA;SSSSSSSSSSSSSSSSSS",
"SSSSSSSSSSSSSSSSSqAVVVVVVVVVVVVVVVVVVVVVVVVVVVVVVVVVVVVVVVVVVVVVVVVVVVVVVVVVVVVVVVVVVVVVVVVVVVVVVVVVVVVVVVVBA;SSSSSSSSSSSSSSSSSS",
"SSSSSSSSSSSSSSSSSqABVVVVVVVVVVVVVVVVVVVVVVVVVVVVVVVVVVVVVVVVVVVVVVVVVVVVVVVVVVVVVVVVVVVVVVVVVVVVVVVVVVVVVVVBA;SSSSSSSSSSSSSSSSSS",
"SSSSSSSSSSSSSSSSSqABVVVVVVVVVVVVVVVVVVVVVVVVVVVVVVVVVVVVVVVVVVVVVVVVVVVVVVVVVVVVVVVVVVVVVVVVVVVVVVVVVVVVVVVBA;SSSSSSSSSSSSSSSSSS",
"SSSSSSSSSSSSSSSSSqABVVVVVVVVVVVVVVVVVVVVVVVVVVVVVVVVVVVVVVVVVVVVVVVVVVVVVVVVVVVVVVVVVVVVVVVVVVVVVVVVVVVVVVVBA;SSSSSSSSSSSSSSSSSS",
"SSSSSSSSSSSSSSSSSqABVVVVVVVVVVVVVVVVVVVVVVVVVVVVVVVVVVVVVVVVVVVVVVVVVVVVVVVVVVVVVVVVVVVVVVVVVVVVVVVVVVVVVVVBA;SSSSSSSSSSSSSSSSSS",
"SSSSSSSSSSSSSSSSSqABVVVVVVVVVVVVVVVVVVVVVVVVVVVVVVVVVVVVVVVVVVVVVVVVVVVVVVVVVVVVVVVVVVVVVVVVVVVVVVVVVVVVVVVBA;SSSSSSSSSSSSSSSSSS",
"SSSSSSSSSSSSSSSSSqABVVVVVVVVVVVVVVVVVVVVVVVVVVVVVVVVVVVVVVVVVVVVVVVVVVVVVVVVVVVVVVVVVVVVVVVVVVVVVVVVVVVVVVVBA;SSSSSSSSSSSSSSSSSS",
"SSSSSSSSSSSSSSSSSqANBBBBBBBBBBBBBBBBBBBBBBBBBBBBBBBBBBBBBBBBBBBBBBBBBBBBBBBBBBBBBBBBBBBBBBBBBBBBBBBBBBBBBBBNA;SSSSSSSSSSSSSSSSSS",
"SSSSSSSSSSSSSSSSSqANBBBBBBBBBBBBBBBBBBBBBBBBBBBBBBBBBBBBBBBBBBBBBBBBBBBBBBBBBBBBBBBBBBBBBBBBBBBBBBBBBBBBBBBNA;SSSSSSSSSSSSSSSSSS",
"SSSSSSSSSSSSSSSSSqANBBBBBBBBBBBBBBBBBBBBBBBBBBBBBBBBBBBBBBBBBBBBBBBBBBBBBBBBBBBBBBBBBBBBBBBBBBBBBBBBBBBBBBBNA;SSSSSSSSSSSSSSSSSS",
"SSSSSSSSSSSSSSSSSqANBBBBBBBBBBBBBBBBBBBBBBBBBBBBBBBBBBBBBBBBBBBBBBBBBBBBBBBBBBBBBBBBBBBBBBBBBBBBBBBBBBBBBBBNA;SSSSSSSSSSSSSSSSSS",
"SSSSSSSSSSSSSSSSSqANBBBBBBBBBBBBBBBBBBBBBBBBBBBBBBBBBBBBBBBBBBBBBBBBBBBBBBBBBBBBBBBBBBBBBBBBBBBBBBBBBBBBBBBNA;SSSSSSSSSSSSSSSSSS",
"SSSSSSSSSSSSSSSSSqANBBBBBBBBBBBBBBBBBBBBBBBBBBBBBBBBBBBBBBBBBBBBBBBBBBBBBBBBBBBBBBBBBBBBBBBBBBBBBBBBBBBBBBBNA;SSSSSSSSSSSSSSSSSS",
"SSSSSSSSSSSSSSSSSqAMNNNNNNNNNNNNNNNNNNNNNNNNNNNNNNNNNNNNNNNNNNNNNNNNNNNNNNNNNNNNNNNNNNNNNNNNNNNNNNNNNNNNNNNMA;SSSSSSSSSSSSSSSSSS",
"SSSSSSSSSSSSSSSSSqAMNNNNNNNNNNNNNNNNNNNNNNNNNNNNNNNNNNNNNNNNNNNNNNNNNNNNNNNNNNNNNNNNNNNNNNNNNNNNNNNNNNNNNNNMA;SSSSSSSSSSSSSSSSSS",
"SSSSSSSSSSSSSSSSSqAMNNNNNNNNNNNNNNNNNNNNNNNNNNNNNNNNNNNNNNNNNNNNNNNNNNNNNNNNNNNNNNNNNNNNNNNNNNNNNNNNNNNNNNNMA;SSSSSSSSSSSSSSSSSS",
"SSSSSSSSSSSSSSSSSqAMNNNNNNNNNNNNNNNNNNNNNNNNNNNNNNNNNNNNNNNNNNNNNNNNNNNNNNNNNNNNNNNNNNNNNNNNNNNNNNNNNNNNNNNMA;SSSSSSSSSSSSSSSSSS",
"SSSSSSSSSSSSSSSSSqAMNNNNNNNNNNNNNNNNNNNNNNNNNNNNNNNNNNNNNNNNNNNNNNNNNNNNNNNNNNNNNNNNNNNNNNNNNNNNNNNNNNNNNNNMA;SSSSSSSSSSSSSSSSSS",
"SSSSSSSSSSSSSSSSS0AmMMMMMMMMMMMMMMMMMMMMMMMMMMMMMMMMMMMMMMMMMMMMMMMMMMMMMMMMMMMMMMMMMMMMMMMMMMMMMMMMMMMMMMMmA;SSSSSSSSSSSSSSSSSS",
"SSSSSSSSSSSSSSSSS0AmMMMMMMMMMMMMMMMMMMMMMMMMMMMMMMMMMMMMMMMMMMMMMMMMMMMMMMMMMMMMMMMMMMMMMMMMMMMMMMMMMMMMMMMmA;SSSSSSSSSSSSSSSSSS",
"SSSSSSSSSSSSSSSSS0AmMMMMMMMMMMMMMMMMMMMMMMMMMMMMMMMMMMMMMMMMMMMMMMMMMMMMMMMMMMMMMMMMMMMMMMMMMMMMMMMMMMMMMMMmA;SSSSSSSSSSSSSSSSSS",
"SSSSSSSSSSSSSSSSS0AmMMMMMMMMMMMMMMMMMMMMMMMMMMMMMMMMMMMMMMMMMMMMMMMMMMMMMMMMMMMMMMMMMMMMMMMMMMMMMMMMMMMMMMMmA;SSSSSSSSSSSSSSSSSS",
"SSSSSSSSSSSSSSSSS0AnmmmmmmmmmmmmmmmmmmmmmmmmmmmmmmmmmmmmmmmmmmmmmmmmmmmmmmmmmmmmmmmmmmmmmmmmmmmmmmmmmmmmmmmnA;SSSSSSSSSSSSSSSSSS",
"SSSSSSSSSSSSSSSSS0AnmmmmmmmmmmmmmmmmmmmmmmmmmmmmmmmmmmmmmmmmmmmmmmmmmmmmmmmmmmmmmmmmmmmmmmmmmmmmmmmmmmmmmmmbA;SSSSSSSSSSSSSSSSSS",
"SSSSSSSSSSSSSSSSS0AnmmmmmmmmmmmmmmmmmmmmmmmmmmmmmmmmmmmmmmmmmmmmmmmmmmmmmmmmmmmmmmmmmmmmmmmmmmmmmmmmmmmmmmmnA;SSSSSSSSSSSSSSSSSS",
"SSSSSSSSSSSSSSSSS0AnmmmmmmmmmmmmmmmmmmmmmmmmmmmmmmmmmmmmmmmmmmmmmmmmmmmmmmmmmmmmmmmmmmmmmmmmmmmmmmmmmmmmmmmnA;SSSSSSSSSSSSSSSSSS",
"SSSSSSSSSSSSSSSSS0AbnnnnnnnnnnnnnnnnnnnnnnnnnnnnnnnnnnnnnnnnnnnnnnnnnnnnnnnnnnnnnnnnnnnnnnnnnnnnnnnnnnnnnnnbA;SSSSSSSSSSSSSSSSSS",
"SSSSSSSSSSSSSSSSS0AbnnnnnnnnnnnnnnnnnnnnnnnnnnnnnnnnnnnnnnnnnnnnnnnnnnnnnnnnnnnnnnnnnnnnnnnnnnnnnnnnnnnnnnnvA;SSSSSSSSSSSSSSSSSS",
"SSSSSSSSSSSSSSSSS0AbnnnnnnnnnnnnnnnnnnnnnnnnnnnnnnnnnnnnnnnnnnnnnnnnnnnnnnnnnnnnnnnnnnnnnnnnnnnnnnnnnnnnnnnvA;SSSSSSSSSSSSSSSSSS",
"SSSSSSSSSSSSSSSSS0AbnnnnnnnnnnnnnnnnnnnnnnnnnnnnnnnnnnnnnnnnnnnnnnnnnnnnnnnnnnnnnnnnnnnnnnnnnnnnnnnnnnnnnnnbA;SSSSSSSSSSSSSSSSSS",
"SSSSSSSSSSSSSSSSS0AvbbbbbbbbbbbbbbbbbbbbbbbbbbbbbbbbbbbbbbbbbbbbbbbbbbbbbbbbbbbbbbbbbbbbbbbbbbbbbbbbbbbbbbnvA;SSSSSSSSSSSSSSSSSS",
"SSSSSSSSSSSSSSSSS0ZvbbbbbbbbbbbbbbbbbbbbbbbbbbbbbbbbbbbbbbbbbbbbbbbbbbbbbbbbbbbbbbbbbbbbbbbbbbbbbbbbbbbbbbbcA;SSSSSSSSSSSSSSSSSS",
"SSSSSSSSSSSSSSSSS0ZvbbbbbbbbbbbbbbbbbbbbbbbbbbbbbbbbbbbbbbbbbbbbbbbbbbbbbbbbbbbbbbbbbbbbbbbbbbbbbbbbbbbbbbbvA;SSSSSSSSSSSSSSSSSS",
"SSSSSSSSSSSSSSSSS0ZvbbbbbbbbbbbbbbbbbbbbbbbbbbbbbbbbbbbbbbbbbbbbbbbbbbbbbbbbbbbbbbbbbbbbbbbbbbbbbbbbbbbbbbbcA;SSSSSSSSSSSSSSSSSS",
"SSSSSSSSSSSSSSSSS9BxccccccccccccccccccccccccccccccccccccccccccccccccccccccccccccccccccccccccccccccccccccccclZ-SSSSSSSSSSSSSSSSSS",
"SSSSSSSSSSSSSSSSSrACAAAAAAAAAAAAAAAAAAAAAAAAAAAAAAAAAAAAAAAAAAAAAAAAAAAAAAAAAAAAAAAAAAAAAAAAAAAAAAAAAAAAAAAVA1SSSSSSSSSSSSSSSSSS",
"SSSSSSSSSSSSSSSSS#>;----------------------------------------------------------------------------------------1 SSSSSSSSSSSSSSSSSS",
"SSSSSSSSSSSSSSSSSSSSSSSSSSSSSSSSSSSSSSSSSSSSSSSSSSSSSSSSSSSSSSSSSSSSSSSSSSSSSSSSSSSSSSSSSSSSSSSSSSSSSSSSSSSSSSSSSSSSSSSSSSSSSSSS",
"SSSSSSSSSSSSSSSSSSSSSSSSSSSSSSSSSSSSSSSSSSSSSSSSSSSSSSSSSSSSSSSSSSSSSSSSSSSSSSSSSSSSSSSSSSSSSSSSSSSSSSSSSSSSSSSSSSSSSSSSSSSSSSSS",
"SSSSSSSSSSSSSSSSSSSSSSSSSSSSSSSSSSSSSSSSSSSSSSSSSSSSSSSSSSSSSSSSSSSSSSSSSSSSSSSSSSSSSSSSSSSSSSSSSSSSSSSSSSSSSSSSSSSSSSSSSSSSSSSS",
"SSSSSSSSSSSSSSSSSSSSSSSSSSSSSSSSSSSSSSSSSSSSSSSSSSSSSSSSSSSSSSSSSSSSSSSSSSSSSSSSSSSSSSSSSSSSSSSSSSSSSSSSSSSSSSSSSSSSSSSSSSSSSSSS"
};
