/* XPM */
static const char *next_24x24_xpm[] = {
/* columns rows colors chars-per-pixel */
"24 24 178 2 ",
"   c #00660D",
".  c #00740F",
"X  c #056111",
"o  c #017B11",
"O  c #097F17",
"+  c #0C7D19",
"@  c #147E21",
"#  c #008500",
"$  c #008B00",
"%  c #0C880C",
"&  c #009500",
"*  c #009900",
"=  c #0B920C",
"-  c #0A9A0B",
";  c #008311",
":  c #008C13",
">  c #0D8B1B",
",  c #168C16",
"<  c #108D1E",
"1  c #12851E",
"2  c #039315",
"3  c #0F9011",
"4  c #0F9A11",
"5  c #079619",
"6  c #0B951B",
"7  c #0C991D",
"8  c #139A14",
"9  c #0FA010",
"0  c #1AA31C",
"q  c #16A415",
"w  c #1D8529",
"e  c #159E24",
"r  c #1E9A22",
"t  c #1D9127",
"y  c #208F21",
"u  c #20872B",
"i  c #27962F",
"p  c #298734",
"a  c #328F3E",
"s  c #289A34",
"d  c #2C933A",
"f  c #3C9D3E",
"g  c #1FA22B",
"h  c #21AA20",
"j  c #20A62C",
"k  c #30B02F",
"l  c #2BAD35",
"z  c #2CA53B",
"x  c #2DAA3A",
"c  c #38A63B",
"v  c #39B33F",
"b  c #3D9B43",
"n  c #3B9547",
"m  c #36AA44",
"M  c #3BAB49",
"N  c #3BAE43",
"B  c #3AB541",
"V  c #42934C",
"C  c #439F48",
"Z  c #498450",
"A  c #4C8E54",
"S  c #548C5B",
"D  c #4B9C54",
"F  c #4F9B59",
"G  c #56975E",
"H  c #549B5D",
"J  c #46A149",
"K  c #4BA54E",
"L  c #41AE49",
"P  c #4BA94D",
"I  c #48BE44",
"U  c #46BB4B",
"Y  c #46BB45",
"T  c #4FAD5B",
"R  c #4FA55A",
"E  c #51A553",
"W  c #54AC5F",
"Q  c #4EB15B",
"!  c #52B55E",
"~  c #589460",
"^  c #5B9D64",
"/  c #619F69",
"(  c #6D9D73",
")  c #56AF61",
"_  c #5AAA64",
"`  c #5FA768",
"'  c #5FA868",
"]  c #5BA765",
"[  c #56B960",
"{  c #5ABA65",
"}  c #63AF65",
"|  c #65A76D",
" . c #65A96D",
".. c #62BD6C",
"X. c #68A770",
"o. c #6BA973",
"O. c #6BAE7D",
"+. c #70AA77",
"@. c #74AD7B",
"#. c #79AF7F",
"$. c #76B47B",
"%. c #79B37E",
"&. c #74BA7A",
"*. c #49C04D",
"=. c #4DC151",
"-. c #52C053",
";. c #58C457",
":. c #56C957",
">. c #58C458",
",. c #57CA58",
"<. c #58CA59",
"1. c #61C565",
"2. c #64CB64",
"3. c #63C06C",
"4. c #65D363",
"5. c #68D465",
"6. c #71D66F",
"7. c #72DB6D",
"8. c #6AC471",
"9. c #70C976",
"0. c #74C87C",
"q. c #79DF72",
"w. c #7DD37E",
"e. c #7FD87A",
"r. c #73D071",
"t. c #7CE075",
"y. c #80E478",
"u. c #89EA7F",
"i. c #7BB282",
"p. c #79B789",
"a. c #78B682",
"s. c #7CD080",
"d. c #80B687",
"f. c #82BA87",
"g. c #84B68A",
"h. c #84BF8B",
"j. c #89BA8F",
"k. c #8CBD91",
"l. c #90BD96",
"z. c #9ABF9F",
"x. c #90B395",
"c. c #86C38D",
"v. c #85C98E",
"b. c #82DA80",
"n. c #90DD8F",
"m. c #8EC194",
"M. c #95C19A",
"N. c #99C29E",
"B. c #8AEA80",
"V. c #9FEE97",
"C. c #9FE79B",
"Z. c #9FE899",
"A. c #95E490",
"S. c #A5EF9D",
"D. c #AAF59F",
"F. c #9DC5A2",
"G. c #A1C6A6",
"H. c #A5C3A8",
"J. c #A5CFA9",
"K. c #A2CCA7",
"L. c #ADD4B0",
"P. c #B9D3BD",
"I. c #B3D5B8",
"U. c #BAF9B1",
"Y. c #BFDCC3",
"T. c #BDD9D3",
"R. c #C2DEC5",
"E. c #C5DED3",
"W. c #CCE3D5",
"Q. c #D5E9D8",
"!. c #DBE8F6",
"~. c #E4EEF8",
"^. c #EFF6F0",
"/. c #EDF4FA",
"(. c #F7FAFD",
"). c #FFFFFF",
"_. c #F4F8F4",
"`. c None",
/* pixels */
"`.`.`.`.`.`.`.`.`.# $ # $ $ $ `.`.`.`.`.`.`.`.`.",
"`.`.`.`.`.`.`.% f } %.l.M.$.} c = `.`.`.`.`.`.`.",
"`.`.`.`.`.# E N.F.l.g.i.#.f.j.l.m.P & `.`.`.`.`.",
"`.`.`.`., f.F.j.@.+.o.o.X.X.X.X.i.m.$.8 `.`.`.`.",
"`.`.`.y N.N.i.+.o.o.X./ / | | ] ]  .c.c.8 `.`.`.",
"`.`.% f.N.@.+.o.o.| S ( ( A ] ] _ _ _ h.&.- `.`.",
"`.# E F.@.+.o.X.X.~ x.).).P.A W W W W ) c.L & `.",
"`., G.g.+.o.o.X.| G H.).).).P.V Q Q Q Q ..v.- `.",
"`.J F.+.o.X.|  .} H ( ).).).).P.a z m M M s.v `.",
"# $.k.+.o.| ^ G G D @ n ^.).).).K.O 6 7 6 m L * ",
"# G.i.o.X.~ ( H.z.i.d.f.L.).).).).J.1 e e z { * ",
"# F.i.X. .Z _.).).).).).).).).).).).m.t g x ..* ",
"$ F.@. .V X ).).).).).).).).).).).).L.i x B 8.* ",
"$ F.@.V .   | P.Y.R.R.R.Q.).).).).Q.b v v U 9.* ",
"& %.]   . o . o o O + w W.(.(.(.Q.J U *.U 2.1.* ",
"`.b V . . ; ; 2 2 > w E./././.W.K -.,.<.:.w.U `.",
"`.3 F w o o : 2 5 > p.!.~.~.E.E >.4.4.5.7.n.0 `.",
"`.$ b n o ; : 2 5 > a.!.!.T.K >.4.7.t.t.A.r.* `.",
"`.`.= K d ; : 2 7 e u $.p.C U 4.7.t.B.V.Z.q `.`.",
"`.`.`.y R s 2 2 5 g g z z U <.5.t.u.D.U.Y `.`.`.",
"`.`.`.& r T M 7 7 g g l B *.,.5.t.S.U.*.* `.`.`.",
"`.`.`.`.`.4 L ! M z j l B =.2.b.S.e.h `.`.`.`.`.",
"`.`.`.`.`.`.& 0 B [ 3.9.9.s.s.2.k & `.`.`.`.`.`.",
"`.`.`.`.`.`.`.`.* * - 0 0 9 * * `.`.`.`.`.`.`.`."
};
