/* XPM */
static const char *next_16x16_xpm[] = {
/* columns rows colors chars-per-pixel */
"16 16 173 2 ",
"   c #00660D",
".  c #00700E",
"X  c #007810",
"o  c #007B10",
"O  c #007E10",
"+  c #087B15",
"@  c #0B7B18",
"#  c #137920",
"$  c #226E2C",
"%  c #008200",
"&  c #008400",
"*  c #008600",
"=  c #008800",
"-  c #008A00",
";  c #008B00",
":  c #008D00",
">  c #0C880C",
",  c #0C8A0D",
"<  c #009600",
"1  c #069106",
"2  c #079007",
"3  c #009800",
"4  c #009900",
"5  c #0B970C",
"6  c #0A990A",
"7  c #0B9B0D",
"8  c #008812",
"9  c #008B12",
"0  c #018A13",
"q  c #0E821B",
"w  c #0C861A",
"e  c #0F841E",
"r  c #039315",
"t  c #059417",
"y  c #109612",
"u  c #1D951E",
"i  c #0DA00C",
"p  c #0DA00D",
"a  c #13A214",
"s  c #1B9727",
"d  c #119A20",
"f  c #199729",
"g  c #1F982A",
"h  c #23852F",
"j  c #209121",
"k  c #249E26",
"l  c #289729",
"z  c #279828",
"x  c #30833A",
"c  c #2B9E33",
"v  c #319638",
"b  c #3A9F3D",
"n  c #3C9C3E",
"m  c #3D9C3E",
"M  c #1EA12D",
"N  c #27A72C",
"B  c #2CA32E",
"V  c #2EAD30",
"C  c #30A237",
"Z  c #31AC36",
"A  c #39A13B",
"S  c #31A93E",
"D  c #31AD3C",
"F  c #37B03B",
"G  c #3AB539",
"H  c #3D8446",
"J  c #379342",
"K  c #3EA140",
"L  c #3BA945",
"P  c #40944B",
"I  c #429A4A",
"U  c #43994E",
"Y  c #459A4F",
"T  c #439C4F",
"R  c #4A8551",
"E  c #498651",
"W  c #4E8555",
"Q  c #4F8556",
"!  c #4F8756",
"~  c #499452",
"^  c #4A9654",
"/  c #499D52",
"(  c #52925B",
")  c #539D5B",
"_  c #46A747",
"`  c #46A148",
"'  c #48A848",
"]  c #47B24C",
"[  c #43B84A",
"{  c #44BB48",
"}  c #4BBF4D",
"|  c #45A250",
" . c #44AF51",
".. c #53AD5E",
"X. c #4DB25A",
"o. c #50B85A",
"O. c #56B85F",
"+. c #5B8D61",
"@. c #5C9463",
"#. c #5F9A67",
"$. c #64946A",
"%. c #689E6F",
"&. c #5CA866",
"*. c #59B164",
"=. c #60A368",
"-. c #62A36B",
";. c #61A66A",
":. c #65A36D",
">. c #66A66E",
",. c #68A36F",
"<. c #64AD6E",
"1. c #69B26D",
"2. c #69A771",
"3. c #6BA773",
"4. c #62AA72",
"5. c #6BA873",
"6. c #6CA873",
"7. c #6DA874",
"8. c #6EAB76",
"9. c #73AB7A",
"0. c #73AC7A",
"q. c #6EB171",
"w. c #65BD70",
"e. c #74B577",
"r. c #75B579",
"t. c #77B57B",
"y. c #78B87C",
"u. c #5BCA5A",
"i. c #5FCD5E",
"p. c #5DC165",
"a. c #64CA61",
"s. c #62CE62",
"d. c #64C967",
"f. c #63D161",
"g. c #66D163",
"h. c #74DC6F",
"j. c #70CD71",
"k. c #70CC74",
"l. c #78DF71",
"z. c #77B687",
"x. c #7CB182",
"c. c #7EB685",
"v. c #7CC283",
"b. c #80BC85",
"n. c #83B689",
"m. c #87B78D",
"M. c #83BF8B",
"N. c #8BBA91",
"B. c #89DB88",
"V. c #93C098",
"C. c #97C19D",
"Z. c #98C19D",
"A. c #99C29E",
"S. c #8FE289",
"D. c #8EE688",
"F. c #90E38B",
"G. c #95E58D",
"H. c #99ED8F",
"J. c #98C6A6",
"K. c #A2CDB1",
"L. c #ACD3B5",
"P. c #B2D7B5",
"I. c #CFE5D4",
"U. c #DEE8DF",
"Y. c #DFEBF7",
"T. c #EFF6F0",
"R. c #EDF4FB",
"E. c #F0F7F1",
"W. c #F4F7F4",
"Q. c #F3F8F4",
"!. c #FAFCFE",
"~. c white",
"^. c None",
/* pixels */
"^.^.^.^.^.^.* = - ; ^.^.^.^.^.^.",
"^.^.^.^.> ` t.r.e.1.A 2 ^.^.^.^.",
"^.^.% m V.m.0.,.:.8.c.b.k ^.^.^.",
"^.^.n C.0.6.@.+.$.( &.<.M.B ^.^.",
"^.j Z.9.3.>.W W.W.%.^ ..*.v.6 ^.",
"& q.x.5.>.;.R Q.~.Q.-.T X.w.] ^.",
", A.7.#.! E H ~ T.~.T.J w M O.3 ",
"l N.2.Q U.~.~.~.~.~.~.E.I s o.3 ",
"z n.=.$ ~.~.~.~.~.~.~.~.y.c p.4 ",
"u n.#   x P U / I.!.!.P.b { k.4 ",
": ) . X O 0 + J.R.R.L._ u.s.j.4 ",
"^.v h o 8 r @ Y.Y.K.' g.h.F.G ^.",
"^.1 Y e 9 t q 4.z.K i.l.H.S.4 ^.",
"^.^.y | f t d g C } f.D.G.i ^.^.",
"^.^.^.5 L  .S D [ d.B.a.p ^.^.^.",
"^.^.^.^.< 7 N Z F V a 4 ^.^.^.^."
};
