/* XPM */
static const char *open_48x48_xpm[] = {
/* columns rows colors chars-per-pixel */
"48 48 192 2 ",
"   c #655633",
".  c #74643C",
"X  c #847144",
"o  c #917D4A",
"O  c #028301",
"+  c #048B02",
"@  c #0A8B04",
"#  c #029301",
"$  c #0D9306",
"%  c #009900",
"&  c #0C9F06",
"*  c #16970B",
"=  c #1C990E",
"-  c #348E1B",
";  c #2D9A16",
":  c #259219",
">  c #0EA00D",
",  c #17A40B",
"<  c #1DA40E",
"1  c #19A513",
"2  c #21A910",
"3  c #2BAE16",
"4  c #2EAC1A",
"5  c #2CA716",
"6  c #35AD1A",
"7  c #38A31C",
"8  c #35B31A",
"9  c #3CB41E",
"0  c #3FA220",
"q  c #2FB12B",
"w  c #3CB32B",
"e  c #43A21F",
"r  c #469F23",
"t  c #74953B",
"y  c #44A422",
"u  c #4DA424",
"i  c #4AAD25",
"p  c #46A923",
"a  c #41B721",
"s  c #46BB23",
"d  c #4EBF27",
"f  c #4DB72B",
"g  c #5EA330",
"h  c #47BC30",
"j  c #53BE3D",
"k  c #7CAB3C",
"l  c #6FB036",
"z  c #55C22A",
"x  c #5BC52D",
"c  c #65CA32",
"v  c #6ACE37",
"b  c #6CCE3B",
"n  c #62C938",
"m  c #4DBF4D",
"M  c #5CC75B",
"N  c #6BCC4A",
"B  c #7AD54F",
"V  c #74D443",
"C  c #69CB56",
"Z  c #7AD451",
"A  c #76D051",
"S  c #72D36E",
"D  c #77D671",
"F  c #7BD670",
"G  c #98824E",
"H  c #9D8751",
"J  c #A68E55",
"K  c #AB9257",
"L  c #AE9558",
"P  c #A59E55",
"I  c #B0975A",
"U  c #B49A5B",
"Y  c #BA9E5C",
"T  c #80A741",
"R  c #8DBF5D",
"E  c #95AB4B",
"W  c #A7BD4D",
"Q  c #BDA15E",
"!  c #BCA85B",
"~  c #ACBC52",
"^  c #B0BF54",
"/  c #BDA462",
"(  c #C2A55E",
")  c #C3A662",
"_  c #C6AA65",
"`  c #CBAC64",
"'  c #C0AB6C",
"]  c #CBB566",
"[  c #CDB36A",
"{  c #CEB96A",
"}  c #D6B465",
"|  c #DAB766",
" . c #D3B46B",
".. c #D2BB6B",
"X. c #DBBA6D",
"o. c #D7B967",
"O. c #C9B372",
"+. c #D7BC71",
"@. c #E1BE6C",
"#. c #81CC4D",
"$. c #84D559",
"%. c #80D457",
"&. c #B4C355",
"*. c #81DD64",
"=. c #89E473",
"-. c #89E965",
";. c #C2CF5C",
":. c #C5D15C",
">. c #DAC16A",
",. c #D5C173",
"<. c #DDC574",
"1. c #DDCA76",
"2. c #DAC17B",
"3. c #DFCD7B",
"4. c #E5C16D",
"5. c #EBC56D",
"6. c #EFC86F",
"7. c #F1CA6F",
"8. c #ECD46D",
"9. c #E4C472",
"0. c #E2CA76",
"q. c #E4CE79",
"w. c #E9CA73",
"e. c #F5CD71",
"r. c #F8CF72",
"t. c #E6D17A",
"y. c #E9D57C",
"u. c #EDDB7E",
"i. c #FFD575",
"p. c #F7D174",
"a. c #89DE86",
"s. c #95E38B",
"d. c #A2F481",
"f. c #ABF58F",
"g. c #B2F59B",
"h. c #AEF1AB",
"j. c #BBF8AA",
"k. c #B8F6B3",
"l. c #DCC683",
"z. c #DFC883",
"x. c #C1DE92",
"c. c #E2CC89",
"v. c #EEDD80",
"b. c #EAD88C",
"n. c #F0DF80",
"m. c #FFDC84",
"M. c #FEDF8B",
"N. c #F6DA89",
"B. c #ECDC93",
"V. c #E9D99B",
"C. c #E7D996",
"Z. c #F3E382",
"A. c #F6E984",
"S. c #F9ED86",
"D. c #F2E48C",
"F. c #F5E98F",
"G. c #FBF087",
"H. c #FDF288",
"J. c #EEE29A",
"K. c #EEE097",
"L. c #F7EB91",
"P. c #F8EE93",
"I. c #F0E49D",
"U. c #FEE99F",
"Y. c #FEE699",
"T. c #FBF295",
"R. c #FEF699",
"E. c #FEF89D",
"W. c #EDDFA1",
"Q. c #C5F9BB",
"!. c #EEE3A3",
"~. c #F0E5A1",
"^. c #F5EDAD",
"/. c #F7E9A7",
"(. c #FFF5A8",
"). c #F5EDB1",
"_. c #F6EFB8",
"`. c #ECF2B5",
"'. c #F7F1B4",
"]. c #FBF3B5",
"[. c #FAF5BB",
"{. c #FEFABA",
"}. c #FDFAB7",
"|. c #CBFCC6",
" X c #D1FCCC",
".X c #D2F0C7",
"XX c #DDFBD9",
"oX c #FCFAC2",
"OX c #FEFECA",
"+X c #E9FCE5",
"@X c #F1FCEE",
"#X c None",
/* pixels */
"#X#X#X#X#X#X1.<.,.2. .[  . .#X#X#X#X#X#X#X#X#X#X#X#X#X#X#X#X#X#X#X#X#X#X#X#X#X#X#X#X#X#X#X#X#X#X",
"#X#X#X#X#X#X1.{.J.t.J.OX).).V.V.c.l. . . . .#X#X#X#X#X#X#X#X#X#X#X#X#X#X#X#X#X#X#X#X#X#X#X#X#X#X",
"#X#X#X#X#X#X1.(.oXoXK.q.c.N.D.U./.].{.OX_.).!.V.c.l.+. .[  .#X#X#X#X#X#X#X#X#X#X#X#X#X#X#X#X#X#X",
"#X#X#X#X#X#X1.H.H.E.}.oXJ.q.w.p.i.i.i.i.i.M.M.U.U.].].oX[.).!.V.c.l.2.[ #X#X#X#X#X#X#X#X#X#X#X#X",
"#X#X#X#X#X#X1.H.H.H.H.E.}.oX!.3.w.p.i.i.i.i.i.i.i.i.i.i.i.m.M.Y.U.(.oX^._ #X#X#X#X#X#X#X#X#X#X#X",
"#X#X#X#X#X#X3.H.H.H.H.H.H.R.}.oXJ.,.w.i.i.i.i.i.i.i.i.i.i.i.i.i.i.i.m.oX' #X#X#X#X#X#X#X#X#X#X#X",
"#X#X#X#X#X#X3.H.H.H.H.H.H.H.H.H.{.]._ i.i.i.i.i.i.i.i.i.i.i.i.i.i.i.i.oX) #X#X#X#X#X#X#X#X#X#X#X",
"#X#X#X#X#X#X1.H.H.H.H.H.H.H.H.H.T.oX/ i.i.i.i.i.i.i.i.i.i.i.i.i.i.i.i.oXP #X#X#X#X#X#X#X#X#X#X#X",
"#X#X#X#X#X#X1.H.H.H.G.H.H.H.H.H.T.oXQ i.i.i.i.i.i.i.i.i.i.i.i.i.i.i.i.`.; $ #X#X#X#X#X#X#X#X#X#X",
"#X#X#X#X#X#X1.H.G.H.H.S.S.H.S.G.T.[.U i.i.i.i.i.i.i.i.i.i.i.i.i.i.i.i.x.* < $ @ #X#X#X#X#X#X#X#X",
"#X#X#X#X#X#X1.G.H.H.S.S.H.S.H.S.T.oXU r.p.i.i.i.i.i.i.i.i.i.i.i.i.i.i.[.t & , $ @ #X#X#X#X#X#X#X",
"#X#X#X#X#X#X1.G.S.S.H.S.S.S.S.S.P.[.I 7.r.r.r.i.i.i.i.i.i.i.i.i.i.i.i.[.I #X& & # @ #X#X#X#X#X#X",
"#X#X#X#X#X#X1.G.S.S.S.S.S.S.S.S.P.[.I p.p.7.r.r.i.i.i.i.i.i.i.i.i.i.i.[.I #X2 > % # O #X#X#X#X#X",
"#X#X#X#X#X#X1.S.S.S.S.S.S.S.S.A.P.[.I w.7.p.r.r.i.i.i.i.i.i.i.i.i.i.i.}.I #X#X1 % % @ #X#X#X#X#X",
"#X#X#X#X#X#X1.G.S.A.S.S.A.S.S.S.P.[.I 7.e.7.p.p.i.i.i.i.i.i.i.i.i.i.i.[.I #X#XC & % # O #X#X#X#X",
"#X#X#X#X#X#X1.G.S.S.A.A.A.A.A.A.P.[.I 6.7.7.7.p.i.i.i.i.i.i.i.i.8.8.i.[.I #X#Xn m % % + #X#X#X#X",
"#X#X#X#X#X#X<.S.A.S.S.A.S.Z.S.Z.F.].I 6.7.7.7.e.i.i.i.i.i.i.i.:.b x &.].I #X#Xv M % % + O #X#X#X",
"#X#X#X#X#X#X1.S.S.A.Z.S.Z.S.Z.S.F.].I 5.5.5.5.e.i.i.i.i.i.i.:.v =.s.u '.U #X#Xc S % % % O #X#X#X",
"#X#X#X#X#X#X1.A.Z.A.S.Z.A.Z.S.Z.L.'.I 4.5.5.5.7.i.i.i.i.i.:.v f.|.j u ].L #X#Xc D % % % O #X#X#X",
"#X#X#X#X#X#X1.A.A.Z.Z.A.Z.A.Z.Z.F.].U 4.5.5.5.7.i.r.i.i.:.v g. XN 9 u ^.I #X#Xn a.% % % O #X#X#X",
"#X#X#X#X#X#X1.A.Z.S.Z.Z.Z.Z.Z.Z.D.'.I 4.4.4.5.5.i.i.i.:.v g.XXA d 8 e ].U #Xv =.M % % % O #X#X#X",
"#X#X#X#X#X#X1.Z.Z.Z.Z.Z.Z.Z.Z.Z.D.'.I 4.@.4.5.5.r.r.:.b Q.XXB z z 9 u (.E v -.k.& % % % O #X#X#X",
"#X#X#X#X#X#X1.Z.Z.Z.Z.Z.Z.Z.Z.Z.D.).U >.@.4.4.5.i.:.B Q.+XZ x z d e e B V =.j.q % % % % O #X#X#X",
"#X#X#X#X#X#X1.Z.Z.Z.Z.Z.n.Z.n.Z.D.).I o.| @.| 5.;.Z  X+X%.c x z d 5 : -.Q.k.q > % % % % O #X#X#X",
"#X#X#X#X#X#X1.Z.u.Z.Z.Z.u.u.Z.u.D.^.I | | | @.^ Z  X@X$.c c x z z 9 D h.S 3 , > % % % # O #X#X#X",
"#X#X#X#X#X#X1.Z.Z.Z.u.Z.Z.Z.u.Z.D./.I } | | ^ B  X@X$.c c c x z s z C z 3 1 , > % % % # O #X#X#X",
"#X#X#X#X#X#X1.u.Z.u.u.Z.u.u.Z.u.N.^.I } } ^ B  X@X$.c c c c x z d s a 8 3 2 , > % % % + #X#X#X#X",
"#X#X#X#X#X#X1.Z.Z.u.u.u.u.u.u.u.v.^.I ` ~ B  X@X$.c c c c x x z d s a 8 3 2 , > % % % + #X#X#X#X",
"#X#X#X#X#X#X1.u.u.u.u.u.u.u.u.u.v.!.I [ c  X@X$.v c c c c x x z d s a 8 3 2 , > % % # O #X#X#X#X",
"#X#X#X#X#X#X1.u.u.u.u.u.u.y.u.u.3./ ( ` d .X$.c c c v v c c x z d s 9 8 3 2 , > % % @ #X#X#X#X#X",
"#X#X#X#X#X#X1.u.u.u.u.y.u.y.u.I.' ( ( ( l N v c c v c c c x x z d s 9 8 3 < , > % + O #X#X#X#X#X",
"#X#X#X#X#X#X1.u.u.u.u.u.y.u.y.I.O.( ( ( ( i a c c c c c c c x z d s 9 8 3 2 , > # @ #X#X#X#X#X#X",
"#X#X#X#X#X#X1.u.u.y.y.y.y.y.y.I.' Q Q ( ( } f a c c v c c x x z z s 9 8 3 2 , $ @ #X#X#X#X#X#X#X",
"#X#X#X#X#X#X1.y.u.y.y.y.y.y.y.I.' Y Q Q ( @.>.i a c v c c c x z z 9 9 8 3 < $ - #X#X#X#X#X#X#X#X",
"#X#X#X#X#X#X1.y.y.y.y.y.y.y.y.K.' Y Y Y Y @.@.+.i 9 c c c c x z z s 9 3 = = R I #X#X#X#X#X#X#X#X",
"#X#X#X#X#X#X<.y.y.y.y.y.t.t.t.K.' I I Y Y @.@.@.>.i e v c x x z z 9 = 5 k X.~.I #X#X#X#X#X#X#X#X",
"#X#X#X#X#X#X,.y.y.y.t.t.t.t.t.K.' K I I U X.X.@.4...e 9 c c x z s 9 u 4.9.4.~.I #X#X#X#X#X#X#X#X",
"#X#X#X#X#X#X..y.y.t.t.t.q.q.q.K.' K K I I +.X.X.X.X...p 9 x x z d 8 r 9.9.@.~.I #X#X#X#X#X#X#X#X",
"#X#X#X#X#X#X{ y.q.t.t.q.q.q.q.B.' J K K K  .X.X.X.X.X.{ e 8 x z d 9 r @.@.@.~.I #X#X#X#X#X#X#X#X",
"#X#X#X#X#X#X[ 1.t.q.q.q.q.q.q.B.' J J J K `  . .X.X.X.X.{ e 6 z d 9 r X.@.X.~.I #X#X#X#X#X#X#X#X",
"#X#X#X#X#X#X#X/ ..q.q.q.0.0.0.V.' H J J J '  . . . .X.+.X.[ 0 5 d 6 r X.X.X.I.I #X#X#X#X#X#X#X#X",
"#X#X#X#X#X#X#X#XI ..q.0.0.0.0.B.' . X o H _  . . . . . . . .] 0 5 9 r X. .X.J.I #X#X#X#X#X#X#X#X",
"#X#X#X#X#X#X#X#X#XI ..0.0.<.0.B.' #X#X#X#XL U / `  .[  . . . .] g * T X. . .J.I #X#X#X#X#X#X#X#X",
"#X#X#X#X#X#X#X#X#X#XL  .0.0.<.B.' #X#X#X#X#X#X#X#XL Y ) _  . . . . . . . . .C.I #X#X#X#X#X#X#X#X",
"#X#X#X#X#X#X#X#X#X#X#X#X[ 0.<.B./ #X#X#X#X#X#X#X#X#X#X#XI I / ) [  . .[ U H G   #X#X#X#X#X#X#X#X",
"#X#X#X#X#X#X#X#X#X#X#X#X#X_ <.B.' #X#X#X#X#X#X#X#X#X#X#X#X#X#X#XL U / ) J #X#X#X#X#X#X#X#X#X#X#X",
"#X#X#X#X#X#X#X#X#X#X#X#X#X#X) b./ #X#X#X#X#X#X#X#X#X#X#X#X#X#X#X#X#X#X#X#X#X#X#X#X#X#X#X#X#X#X#X",
"#X#X#X#X#X#X#X#X#X#X#X#X#X#X#XO.#X#X#X#X#X#X#X#X#X#X#X#X#X#X#X#X#X#X#X#X#X#X#X#X#X#X#X#X#X#X#X#X"
};
