/* XPM */
static const char *open_16x16_xpm[] = {
/* columns rows colors chars-per-pixel */
"16 16 146 2 ",
"   c #066303",
".  c #076503",
"X  c #096A04",
"o  c #086B04",
"O  c #077004",
"+  c #077504",
"@  c #0A7A05",
"#  c #0C7F06",
"$  c #127A09",
"%  c #147E0A",
"&  c #937C43",
"*  c #118008",
"=  c #17860B",
"-  c #17840C",
";  c #168A0B",
":  c #148F0A",
">  c #0A9705",
",  c #099E05",
"<  c #129509",
"1  c #18910C",
"2  c #1E900F",
"3  c #1B950D",
"4  c #149F0A",
"5  c #189A0C",
"6  c #1B9E0E",
"7  c #338218",
"8  c #209310",
"9  c #219510",
"0  c #259D12",
"q  c #3D901F",
"w  c #3D961F",
"e  c #15A30A",
"r  c #24A012",
"t  c #29A514",
"y  c #29A714",
"u  c #21A910",
"i  c #2DAF16",
"p  c #30A718",
"a  c #3BAF1E",
"s  c #39B51C",
"d  c #3FAB25",
"f  c #4DA42B",
"g  c #44AB2F",
"h  c #4CAD2B",
"j  c #47B623",
"k  c #46BB23",
"l  c #4AAE3F",
"z  c #48B130",
"x  c #53B73D",
"c  c #54B63D",
"v  c #53C129",
"b  c #68C847",
"n  c #6ACC48",
"m  c #68CC4D",
"M  c #6FD05E",
"N  c #858F3D",
"B  c #97984C",
"V  c #A08749",
"C  c #AA8F4E",
"Z  c #A89056",
"A  c #B09657",
"S  c #B19C51",
"D  c #B69B5A",
"F  c #ABAA4F",
"G  c #B0AD51",
"H  c #B2A05B",
"J  c #B2B052",
"K  c #BFB959",
"L  c #C8A95C",
"P  c #C9AA5C",
"I  c #CDAD5E",
"U  c #CEAE5E",
"Y  c #CDAF61",
"T  c #CEB061",
"R  c #D1B160",
"E  c #D3B361",
"W  c #D5B461",
"Q  c #D6B562",
"!  c #D8B763",
"~  c #D7BD6B",
"^  c #CBC25E",
"/  c #D7CC63",
"(  c #DAC16A",
")  c #DBC171",
"_  c #DAC57F",
"`  c #EAC46C",
"'  c #F0C96F",
"]  c #E2CA77",
"[  c #E3CC78",
"{  c #E4CE78",
"}  c #F5CC70",
"|  c #F5CD70",
" . c #F8CF72",
".. c #E5D077",
"X. c #E6D079",
"o. c #E7D27A",
"O. c #E9D778",
"+. c #E8D47B",
"@. c #EAD67C",
"#. c #EBD77D",
"$. c #EAD978",
"%. c #ECD97D",
"&. c #ECD97E",
"*. c #EDDA7E",
"=. c #EDDB7E",
"-. c #EEDD7F",
";. c #EFDE7F",
":. c #F9D072",
">. c #FDD374",
",. c #FFD575",
"<. c #AEEDA9",
"1. c #AFEDAA",
"2. c #BFF5BA",
"3. c #EFDE80",
"4. c #FFDF8B",
"5. c #F0E080",
"6. c #F1E181",
"7. c #F1E281",
"8. c #F2E281",
"9. c #F2E382",
"0. c #F3E382",
"q. c #F3E482",
"w. c #F4E683",
"e. c #F5E683",
"r. c #F5E783",
"t. c #F6E884",
"y. c #F6E985",
"u. c #F7E985",
"i. c #F7EA85",
"p. c #F8EB85",
"a. c #F9ED86",
"s. c #F9EE86",
"d. c #FAEE87",
"f. c #FFE08B",
"g. c #FBF087",
"h. c #FBF088",
"j. c #FCF188",
"k. c #FDF389",
"l. c #FDF489",
"z. c #FFF58A",
"x. c #C0F6BB",
"c. c #EEE4A9",
"v. c #FFEFAB",
"b. c #F7F1B8",
"n. c #FFFFCC",
"m. c None",
/* pixels */
"P P I R W Q Q Q Q ! ! m.m.m.m.m.",
"P z.$.( P _ c.n.n.n.b.E m.m.m.m.",
"P l.k.k.s.O.P 4.f.f.v.J t 0 m.m.",
"P j.j.h.g.g.P :.>.,.,.G r 6 2 m.",
"P d.s.a.a.a.P }  .,.,.U m.5 < - ",
"P p.i.i.u.y.P ' | / h f m.1 , * ",
"P t.r.e.w.w.P ` ^ d <.l m.= , # ",
"P q.0.9.8.7.P K c 1.M 9 - : , @ ",
"P 6.5.3.;.-.F x 2.m s 8 3 e , + ",
"P -.=.*.&...z x.n k s i u e > . ",
"P %.#.@.P L g b v k s i u 4 O m.",
"P @.+.o.P D B w j k s y ; o m.m.",
"P o.X.{ P A Z H q a s % N m.m.m.",
"P ~ [ ] P V & C S 7 p $ m.m.m.m.",
"m.P T ) Y m.m.m.m.m.X   m.m.m.m.",
"m.m.m.P P m.m.m.m.m.m.m.m.m.m.m."
};
