/* XPM */
static const char *paste_32x32_xpm[] = {
/* columns rows colors chars-per-pixel */
"32 32 128 2 ",
"   c #6B440F",
".  c #7E591E",
"X  c #7E5A1E",
"o  c #7F5B1F",
"O  c #7A532C",
"+  c #7B542C",
"@  c #494949",
"#  c #656565",
"$  c gray40",
"%  c gray47",
"&  c #835F22",
"*  c #825A2D",
"=  c #865D2D",
"-  c #876426",
";  c #8D6A2B",
":  c #996E2F",
">  c #9B6F2F",
",  c #896B33",
"<  c #947131",
"1  c #9C7A38",
"2  c #AF8031",
"3  c #A5833F",
"4  c #B08131",
"5  c #B38431",
"6  c #B08F48",
"7  c #CEA348",
"8  c #CEA349",
"9  c #CEA44A",
"0  c #CEA44B",
"q  c #CEA54C",
"w  c #CEA54D",
"e  c #CEA54E",
"r  c #CEA64E",
"t  c #CFA64F",
"y  c #CFA650",
"u  c #CFA750",
"i  c #CFA751",
"p  c #CFA752",
"a  c #CFA852",
"s  c #CFA853",
"d  c #CFA854",
"f  c #CFA955",
"g  c #CFA956",
"h  c #CFAA57",
"j  c #CFAA58",
"k  c #CFAA59",
"l  c #CFAB59",
"z  c #CFAB5A",
"x  c #D0AB5A",
"c  c #D0AB5B",
"v  c #D0AC5B",
"b  c #D0AC5C",
"n  c #D0AC5D",
"m  c #D0AD5D",
"M  c #D0AD5E",
"N  c #D0AD5F",
"B  c #D0AE5F",
"V  c #D0AE60",
"C  c #D0AE61",
"Z  c #D0AF62",
"A  c #D0AF63",
"S  c #D0B064",
"D  c #D0B065",
"F  c #D1B166",
"G  c #D1B167",
"H  c #D1B168",
"J  c #D1B268",
"K  c #D1B269",
"L  c #D1B26A",
"P  c #DBBC7A",
"I  c #838383",
"U  c gray53",
"Y  c #8E8E8E",
"T  c #939393",
"R  c gray58",
"E  c gray59",
"W  c #ACACAC",
"Q  c #AEAEAE",
"!  c #B4B4B4",
"~  c gray71",
"^  c #B6B6B6",
"/  c gray",
"(  c #DCC082",
")  c #DDC791",
"_  c #E3C893",
"`  c #E3C993",
"'  c #E3C994",
"]  c #E3CA95",
"[  c #E3CA97",
"{  c #E3CB99",
"}  c #E3CC9A",
"|  c #E3CD9B",
" . c #E3CD9C",
".. c #E3CD9D",
"X. c #E3CE9D",
"o. c #E3CE9F",
"O. c #E4CEA0",
"+. c #E4CFA0",
"@. c #E4CFA1",
"#. c #E4CFA2",
"$. c #E4D0A3",
"%. c #E4D1A4",
"&. c #E4D1A5",
"*. c #E4D1A6",
"=. c #E4D2A6",
"-. c #E4D2A7",
";. c #E4D2A8",
":. c #E4D3A9",
">. c #BFCDDB",
",. c gray76",
"<. c #CACACA",
"1. c #CBCBCB",
"2. c gray81",
"3. c #D5D5D5",
"4. c gray88",
"5. c #E6E6E6",
"6. c gray91",
"7. c #EAEAEA",
"8. c gray94",
"9. c #F1F1F1",
"0. c #F9F9F9",
"q. c gray98",
"w. c #FBFBFB",
"e. c gray99",
"r. c #FDFDFD",
"t. c #FEFEFE",
"y. c white",
"u. c None",
/* pixels */
"u.u.u.u.u.u.u.u.% % % % % % % % u.u.u.u.u.u.u.u.u.u.u.u.u.u.u.u.",
"u.u.5 5 5 5 5 5 T ,.,.,.,.,.,.T   5 5 5 4 : u.u.u.u.u.u.u.u.u.u.",
"u.u.5 :.:.:.;.;.@ $ $ $ $ $ $ @ , +.o.X. .= u.u.u.u.u.u.u.u.u.u.",
"u.u.5 :.) L K K # Y Y Y Y Y Y # . c k (  .+ u.u.u.u.u.u.u.u.u.u.",
"u.u.5 :.L K K J I I I I I I I I X x j x  .O u.u.u.u.u.u.u.u.u.u.",
"u.u.5 ;.K K J H G 6 3 1 < ; - & o z j f | O u.u.u.u.u.u.u.u.u.u.",
"u.u.5 ;.K J H G F D S A Z V N n v l h f | O u.u.u.u.u.u.u.u.u.u.",
"u.u.5 -.H G G F D S ^ ^ ^ ^ ^ ^ ^ ^ ^ ^ ^ ^ W u.u.u.u.u.u.u.u.u.",
"u.u.5 -.G F F D S A ^ y.y.y.y.y.y.y.y.y.y.7.<.Q u.u.u.u.u.u.u.u.",
"u.u.5 =.F D D S A Z ^ y.y.y.y.y.y.y.y.y.y.0.2.9.Q u.u.u.u.u.u.u.",
"u.u.5 *.D S S A Z C ^ y.y.y.y.y.y.y.y.y.y.y.3.9.9.Q u.u.u.u.u.u.",
"u.u.5 &.A A Z Z C V ^ y.y.y.y.y.y.y.y.y.y.y.4.y.9.9.Q u.u.u.u.u.",
"u.u.5 %.Z C C V B M ^ y.y.y.y.y.y.y.y.y.y.y.6./ ^ 1./ Q u.u.u.u.",
"u.u.5 $.V V N M M n ^ y.y.y.y.y.y.y.y.y.y.y.y.y.r.8.5.~ u.u.u.u.",
"u.u.5 #.M M m n b v ^ y.y.y.y.y.y.y.y.y.y.y.y.y.y.y.y.E u.u.u.u.",
"u.u.5 @.n b v c z l ^ y.y.y.>.>.>.>.>.>.>.>.>.>.y.y.y.U u.u.u.u.",
"u.u.5 O.x z l k j h ^ y.y.y.y.y.y.y.y.y.y.y.y.y.y.y.y.U u.u.u.u.",
"u.u.5 o.j j h g g f ^ y.y.y.y.y.y.y.y.y.y.y.y.y.y.y.y.U u.u.u.u.",
"u.u.5 ..g f f d s a ^ y.y.y.>.>.>.>.>.>.>.>.>.>.y.y.y.U u.u.u.u.",
"u.u.5  .s s a p i y ^ y.t.t.t.t.t.t.t.t.t.t.t.t.t.t.y.U u.u.u.u.",
"u.u.5 } i u y t r w ^ y.t.t.t.t.t.t.t.t.t.t.t.t.t.t.y.U u.u.u.u.",
"u.u.5 { r e w q 0 0 ^ y.t.t.>.>.>.>.>.>.>.>.>.>.t.t.y.U u.u.u.u.",
"u.u.5 [ P 0 9 8 8 7 ^ y.r.r.r.r.r.r.r.r.r.r.r.r.r.r.y.U u.u.u.u.",
"u.u.5 ] ] ] ' ' ` _ ^ y.e.e.e.e.e.e.e.e.e.e.e.e.e.r.y.U u.u.u.u.",
"u.u.2 > * O O O O O ^ y.w.w.>.>.>.>.>.>.>.>.>.>.w.e.y.U u.u.u.u.",
"u.u.u.u.u.u.u.u.u.u.^ y.q.q.q.q.q.q.q.q.q.q.q.q.q.w.y.U u.u.u.u.",
"u.u.u.u.u.u.u.u.u.u.^ y.0.0.0.0.0.0.0.0.0.0.0.0.0.q.y.U u.u.u.u.",
"u.u.u.u.u.u.u.u.u.u.^ y.0.0.0.0.0.0.0.0.0.0.0.0.0.w.y.U u.u.u.u.",
"u.u.u.u.u.u.u.u.u.u.^ y.y.y.y.y.y.y.y.y.y.y.y.y.y.y.y.U u.u.u.u.",
"u.u.u.u.u.u.u.u.u.u.! R U U U U U U U U U U U U U U U U u.u.u.u.",
"u.u.u.u.u.u.u.u.u.u.u.u.u.u.u.u.u.u.u.u.u.u.u.u.u.u.u.u.u.u.u.u.",
"u.u.u.u.u.u.u.u.u.u.u.u.u.u.u.u.u.u.u.u.u.u.u.u.u.u.u.u.u.u.u.u."
};
