/* XPM */
static const char *paste_24x24_xpm[] = {
/* columns rows colors chars-per-pixel */
"24 24 117 2 ",
"   c #7A532C",
".  c gray35",
"X  c gray49",
"o  c #8B611F",
"O  c #845B2D",
"+  c #9D712F",
"@  c #947045",
"#  c #947046",
"$  c #957146",
"%  c #A47E47",
"&  c #A5813C",
"*  c #B28331",
"=  c #B38431",
"-  c #A88646",
";  c #A78D59",
":  c #AB915D",
">  c #B09762",
",  c #B39966",
"<  c #B69D67",
"1  c #CEA247",
"2  c #CEA349",
"3  c #CEA44A",
"4  c #CEA44B",
"5  c #CEA54C",
"6  c #CEA54E",
"7  c #CEA64E",
"8  c #CFA64F",
"9  c #CFA750",
"0  c #CFA751",
"q  c #CFA752",
"w  c #CFA853",
"e  c #CFA854",
"r  c #CFA954",
"t  c #CFA955",
"y  c #CFA956",
"u  c #CFAA57",
"i  c #CFAA58",
"p  c #CFAB59",
"a  c #CFAB5A",
"s  c #CAA85D",
"d  c #D0AB5B",
"f  c #D0AC5C",
"g  c #D0AC5D",
"h  c #D0AD5D",
"j  c #D0AD5E",
"k  c #D0AD5F",
"l  c #D0AE5F",
"z  c #CCAB60",
"x  c #D0AE60",
"c  c #D0AE61",
"v  c #D0AF61",
"b  c #D3AE60",
"n  c #D0AF62",
"m  c #D0AF63",
"M  c #D0B064",
"N  c #D0B065",
"B  c #D1B065",
"V  c #D1B166",
"C  c #D1B167",
"Z  c #D1B168",
"A  c #D1B268",
"S  c #D1B269",
"D  c #D5B46C",
"F  c #C6AD75",
"G  c #D6BA78",
"H  c #D6BA79",
"J  c #D9BC7B",
"K  c #808080",
"L  c gray53",
"P  c gray54",
"I  c gray58",
"U  c #959595",
"Y  c gray62",
"T  c #9F9F9F",
"R  c #A5A5A5",
"E  c #B1B1B1",
"W  c #B4B4B4",
"Q  c #B6B6B6",
"!  c gray",
"~  c #D9C085",
"^  c #E2C892",
"/  c #E3C893",
"(  c #E3C994",
")  c #E3CA95",
"_  c #E3CA96",
"`  c #E3CB98",
"'  c #E3CC9A",
"]  c #E3CD9C",
"[  c #E3CE9E",
"{  c #E4CFA0",
"}  c #E4CFA2",
"|  c #E4D0A3",
" . c #E4D1A4",
".. c #E4D1A6",
"X. c #E4D2A6",
"o. c #E4D2A7",
"O. c #E4D2A8",
"+. c #E4D2A9",
"@. c #E4D3A9",
"#. c #BFCDDB",
"$. c #CACACA",
"%. c #CBCBCB",
"&. c gray81",
"*. c #D5D5D5",
"=. c gray88",
"-. c #E6E6E6",
";. c #EAEAEA",
":. c gray94",
">. c #F4F4F4",
",. c #F9F9F9",
"<. c gray98",
"1. c #FBFBFB",
"2. c gray99",
"3. c #FDFDFD",
"4. c #FEFEFE",
"5. c white",
"6. c None",
/* pixels */
"6.6.6.6.K K K K K 6.6.6.6.6.6.6.6.6.6.6.6.6.6.6.",
"= = = = X T T T X o = = * + 6.6.6.6.6.6.6.6.6.6.",
"@.@.O.O.. X X X . , { [ ] O 6.6.6.6.6.6.6.6.6.6.",
"@.~ H G U U U U U - D J ]   6.6.6.6.6.6.6.6.6.6.",
"+.S A Z F < > : ; & a u ]   6.6.6.6.6.6.6.6.6.6.",
"O.A Z C N z s Q Q Q Q Q Q Q Q E Y Q 6.6.6.6.6.6.",
"o.C V B M m c Q 5.5.5.5.5.5.5.5.;.$.Q 6.6.6.6.6.",
"X.V N M m c x Q 5.5.5.5.5.5.5.5.,.&.5.Q 6.6.6.6.",
"..M m n c x j Q 5.5.5.5.5.5.5.5.5.*.>.5.Q 6.6.6.",
" .n v x l j f Q 5.5.5.5.5.5.5.5.5.=.Q %.! Q 6.6.",
"| x k j h f a Q 5.5.5.5.5.5.5.5.5.5.3.:.-.R 6.6.",
"} h g f d p u Q 5.5.#.#.#.#.#.#.#.#.#.5.4.P 6.6.",
"{ d a p i y t Q 5.5.5.5.5.5.5.5.5.5.5.5.5.L 6.6.",
"[ i u y t w q Q 5.5.5.5.5.5.5.5.5.5.5.5.5.L 6.6.",
"] r e w 0 9 7 Q 5.5.#.#.#.#.#.#.#.#.#.5.5.L 6.6.",
"' 0 9 8 6 5 4 Q 5.4.4.4.4.4.4.4.4.4.4.4.5.L 6.6.",
"` b 5 4 3 2 1 Q 5.4.4.4.4.4.4.4.4.4.4.4.5.L 6.6.",
"_ ) ) ( ( / ^ Q 5.3.#.#.#.#.#.#.#.#.#.3.5.L 6.6.",
"% $ # # # @ @ Q 5.2.2.2.2.2.2.2.2.2.2.2.5.L 6.6.",
"6.6.6.6.6.6.6.Q 5.1.1.1.1.1.1.1.1.1.1.1.5.L 6.6.",
"6.6.6.6.6.6.6.Q 5.<.#.#.#.#.#.#.#.#.#.<.5.L 6.6.",
"6.6.6.6.6.6.6.Q 5.<.<.<.<.<.<.<.<.<.<.<.5.L 6.6.",
"6.6.6.6.6.6.6.Q 5.5.5.5.5.5.5.5.5.5.5.5.5.L 6.6.",
"6.6.6.6.6.6.6.W I L L L L L L L L L L L L L 6.6."
};
