/* XPM */
static const char *paste_48x48_xpm[] = {
/* columns rows colors chars-per-pixel */
"48 48 158 2 ",
"   c #323232",
".  c #6B440F",
"X  c #7D5A1E",
"o  c #7E5A1E",
"O  c #7F5B1F",
"+  c #7A532C",
"@  c #7B542C",
"#  c #464646",
"$  c gray34",
"%  c gray47",
"&  c #815D20",
"*  c #845C2D",
"=  c #885F2D",
"-  c #836023",
";  c #876426",
":  c #8B6829",
">  c #92682E",
",  c #906D2D",
"<  c #9A6E2F",
"1  c #9D722E",
"2  c #8E733D",
"3  c #957332",
"4  c #9B7937",
"5  c #A87B2F",
"6  c #AF8131",
"7  c #A2803D",
"8  c #B28331",
"9  c #B38431",
"0  c #B58735",
"q  c #B68834",
"w  c #AA8843",
"e  c #B2904A",
"r  c #CDA144",
"t  c #CEA145",
"y  c #CEA246",
"u  c #CEA247",
"i  c #CEA348",
"p  c #CEA349",
"a  c #CEA44A",
"s  c #CEA44B",
"d  c #CEA44C",
"f  c #CEA54C",
"g  c #CEA54D",
"h  c #CEA54E",
"j  c #CEA64E",
"k  c #CEA64F",
"l  c #CFA64F",
"z  c #CFA650",
"x  c #CFA750",
"c  c #CFA751",
"v  c #CFA752",
"b  c #CFA852",
"n  c #CFA853",
"m  c #CFA854",
"M  c #CFA954",
"N  c #CFA955",
"B  c #CFA956",
"V  c #CFA957",
"C  c #CFAA57",
"Z  c #CFAA58",
"A  c #CFAA59",
"S  c #CFAB59",
"D  c #CFAB5A",
"F  c #D0AB5A",
"G  c #D0AB5B",
"H  c #D0AC5B",
"J  c #D0AC5C",
"K  c #D1AC5C",
"L  c #D0AC5D",
"P  c #D0AD5D",
"I  c #D0AD5E",
"U  c #D0AD5F",
"Y  c #D0AE5F",
"T  c #D0AE60",
"R  c #D0AE61",
"E  c #D0AF62",
"W  c #D0AF63",
"Q  c #D0B064",
"!  c #D0B065",
"~  c #D1B065",
"^  c #D1B066",
"/  c #D1B166",
"(  c #D1B167",
")  c #D1B168",
"_  c #D1B268",
"`  c #D1B269",
"'  c #D1B26A",
"]  c #D1B36A",
"[  c gray52",
"{  c gray53",
"}  c #888888",
"|  c gray55",
" . c #8D8D8D",
".. c #959595",
"X. c gray64",
"o. c gray65",
"O. c #ACACAC",
"+. c #AEAEAE",
"@. c gray69",
"#. c gray70",
"$. c #B6B6B6",
"%. c gray",
"&. c #DDC082",
"*. c #DEC48A",
"=. c #E0CB98",
"-. c #E8D7B5",
";. c #EAD8B2",
":. c #ECDBB7",
">. c #ECDBB8",
",. c #ECDCB9",
"<. c #ECDCBA",
"1. c #ECDDBB",
"2. c #EADCBE",
"3. c #ECDDBC",
"4. c #EDDDBC",
"5. c #EDDEBD",
"6. c #EDDEBE",
"7. c #EDDEBF",
"8. c #EDDFBF",
"9. c #BFCDDB",
"0. c #C3C3C3",
"q. c gray78",
"w. c #CACACA",
"e. c #CBCBCB",
"r. c gray81",
"t. c #D0D0D0",
"y. c LightGray",
"u. c #D5D5D5",
"i. c gray87",
"p. c #EDDFC0",
"a. c #EDDFC1",
"s. c #EDE0C1",
"d. c #EDE0C2",
"f. c #EDE0C3",
"g. c #EDE1C3",
"h. c #EDE1C4",
"j. c #EEE1C5",
"k. c #EEE2C6",
"l. c #EEE2C7",
"z. c gray88",
"x. c #E2E2E2",
"c. c #E6E6E6",
"v. c gray91",
"b. c #E9E9E9",
"n. c #EAEAEA",
"m. c gray92",
"M. c #ECECEC",
"N. c gray94",
"B. c gray97",
"V. c #F8F8F8",
"C. c #F9F9F9",
"Z. c gray98",
"A. c #FBFBFB",
"S. c gray99",
"D. c #FDFDFD",
"F. c #FEFEFE",
"G. c white",
"H. c None",
/* pixels */
"H.H.H.H.H.H.H.H.H.H.% % % % % % % % % % % H.H.H.H.H.H.H.H.H.H.H.H.H.H.H.H.H.H.H.H.H.H.H.H.H.H.H.",
"H.8 9 9 9 9 9 9 9 9 { r.r.r.r.r.r.r.r.r.{ . 9 9 9 9 9 9 6 1 H.H.H.H.H.H.H.H.H.H.H.H.H.H.H.H.H.H.",
"H.0 2.l.k.k.k.k.k.k...x.t.t.t.t.t.t.t.x...2 a.a.p.p.8.7.-.> H.H.H.H.H.H.H.H.H.H.H.H.H.H.H.H.H.H.",
"H.0 l.=.] ' ' ` ` _    .# # # # # # #  .  X L H D Z C *.6.* H.H.H.H.H.H.H.H.H.H.H.H.H.H.H.H.H.H.",
"H.9 k.] ] ' ` ` ` _ $ +.+.+.+.+.+.+.+.+.$ o J H D Z C K 6.@ H.H.H.H.H.H.H.H.H.H.H.H.H.H.H.H.H.H.",
"H.9 k.] ' ` ` ` _ _ [ [ [ [ [ [ [ [ [ [ [ o J G S Z B N 6.+ H.H.H.H.H.H.H.H.H.H.H.H.H.H.H.H.H.H.",
"H.9 k.' ` ` ` _ _ ( ( e w 7 4 3 , : ; - & O J F S Z B M 6.+ H.H.H.H.H.H.H.H.H.H.H.H.H.H.H.H.H.H.",
"H.9 k.` ` ` _ _ ) ( ( / ! ! Q W E R T U I L H D A C B m 5.+ H.H.H.H.H.H.H.H.H.H.H.H.H.H.H.H.H.H.",
"H.9 k.` ` _ _ ) ( ( / ~ ! Q W E E R T I P J G S Z C N m 5.+ H.H.H.H.H.H.H.H.H.H.H.H.H.H.H.H.H.H.",
"H.9 k._ _ _ ) ( ( / ^ ! Q Q W $.$.$.$.$.$.$.$.$.$.$.$.$.$.$.$.$.$.$.#.H.H.H.H.H.H.H.H.H.H.H.H.H.",
"H.9 k._ ) ( ( ( / / ! Q Q W E $.G.G.G.G.G.G.G.G.G.G.G.G.G.G.G.G.G.n.w.@.H.H.H.H.H.H.H.H.H.H.H.H.",
"H.9 j.( ( ( / / ^ ! Q Q W E E $.G.G.G.G.G.G.G.G.G.G.G.G.G.G.G.G.G.C.r.0.+.H.H.H.H.H.H.H.H.H.H.H.",
"H.9 j.( / / / ! ! Q Q W W E R $.G.G.G.G.G.G.G.G.G.G.G.G.G.G.G.G.G.G.u.n.0.+.H.H.H.H.H.H.H.H.H.H.",
"H.9 j./ / ! ! ! Q Q W E E R T $.G.G.G.G.G.G.G.G.G.G.G.G.G.G.G.G.G.G.z.D.n.0.X.H.H.H.H.H.H.H.H.H.",
"H.9 h.! ! ! Q Q W W E E R T Y $.G.G.G.G.G.G.G.G.G.G.G.G.G.G.G.G.G.G.v.G.D.m.q.o.H.H.H.H.H.H.H.H.",
"H.9 h.Q Q Q W W W E E R T Y U $.G.G.G.G.G.G.G.G.G.G.G.G.G.G.G.G.G.G.b.G.G.D.M.q.o.H.H.H.H.H.H.H.",
"H.9 h.W W W W E E R R T Y U I $.G.G.G.G.G.G.G.G.G.G.G.G.G.G.G.G.G.G.M.G.G.G.D.v.%.o.H.H.H.H.H.H.",
"H.9 h.W E E E R R T T U I I L $.G.G.G.G.G.G.G.G.G.G.G.G.G.G.G.G.G.G.Z.b.i.y.%.$.e.%.o.H.H.H.H.H.",
"H.9 g.E R R R T T Y U I P L J $.G.G.G.G.G.G.G.G.G.G.G.G.G.G.G.G.G.G.G.G.G.G.G.D.N.c.o.H.H.H.H.H.",
"H.9 f.T T T T Y U I I P J J G $.G.G.G.G.G.G.G.G.G.G.G.G.G.G.G.G.G.G.G.G.G.G.G.G.G.G.} H.H.H.H.H.",
"H.9 f.Y U U I I I P L J H F D $.G.G.G.G.G.G.G.G.G.G.G.G.G.G.G.G.G.G.G.G.G.G.G.G.G.G.{ H.H.H.H.H.",
"H.9 d.I I I P L J J H G D S Z $.G.G.G.G.G.G.G.G.G.G.G.G.G.G.G.G.G.G.G.G.G.G.G.G.G.G.{ H.H.H.H.H.",
"H.9 s.L L J J J H G D D S Z C $.G.G.G.G.9.9.9.9.9.9.9.9.9.9.9.9.9.9.9.9.9.9.G.G.G.G.{ H.H.H.H.H.",
"H.9 a.J H H G F D S S Z Z C B $.G.G.G.G.G.G.G.G.G.G.G.G.G.G.G.G.G.G.G.G.G.G.G.G.G.G.{ H.H.H.H.H.",
"H.9 a.F D D S S A Z C C B N N $.G.G.G.G.G.G.G.G.G.G.G.G.G.G.G.G.G.G.G.G.G.G.G.G.G.G.{ H.H.H.H.H.",
"H.9 p.S A Z Z Z C C B N N m n $.G.G.G.G.G.G.G.G.G.G.G.G.G.G.G.G.G.G.G.G.G.G.G.G.G.G.{ H.H.H.H.H.",
"H.9 8.C C C V B B N N m n n v $.G.G.G.G.9.9.9.9.9.9.9.9.9.9.9.9.9.9.9.9.9.9.G.G.G.G.{ H.H.H.H.H.",
"H.9 7.B B N N N m m n b v c x $.G.G.G.G.G.G.G.G.G.G.G.G.G.G.G.G.G.G.G.G.G.G.G.G.G.G.{ H.H.H.H.H.",
"H.9 6.m m m n n n v c c x l k $.G.G.G.G.G.G.G.G.G.G.G.G.G.G.G.G.G.G.G.G.G.G.G.G.G.G.{ H.H.H.H.H.",
"H.9 6.n b v v c c x z l j h g $.G.F.F.F.F.F.F.F.F.F.F.F.F.F.F.F.F.F.F.F.F.F.F.F.F.G.{ H.H.H.H.H.",
"H.9 5.c c x x z l k j g g f s $.G.F.F.F.9.9.9.9.9.9.9.9.9.9.9.9.9.9.9.9.9.9.F.F.F.G.{ H.H.H.H.H.",
"H.9 4.l l k j h g g f d s a p $.G.F.F.F.F.F.F.F.F.F.F.F.F.F.F.F.F.F.F.F.F.F.F.F.F.G.{ H.H.H.H.H.",
"H.9 3.g g g g f d s a a p i i $.G.D.D.D.D.D.D.D.D.D.D.D.D.D.D.D.D.D.D.D.D.D.D.D.F.G.{ H.H.H.H.H.",
"H.9 1.d s s s a a p p i u y y $.G.D.D.D.D.D.D.D.D.D.D.D.D.D.D.D.D.D.D.D.D.D.D.D.F.G.{ H.H.H.H.H.",
"H.9 <.&.p p p i i u u y t t r $.G.D.D.D.9.9.9.9.9.9.9.9.9.9.9.9.9.9.9.9.9.9.D.D.D.G.{ H.H.H.H.H.",
"H.q ;.,.,.,.,.,.,.>.>.>.:.:.:.$.G.S.S.S.S.S.S.S.S.S.S.S.S.S.S.S.S.S.S.S.S.S.S.S.D.G.{ H.H.H.H.H.",
"H.5 < = @ + + + + + + + + + + $.G.S.S.S.S.S.S.S.S.S.S.S.S.S.S.S.S.S.S.S.S.S.S.S.D.G.{ H.H.H.H.H.",
"H.H.H.H.H.H.H.H.H.H.H.H.H.H.H.$.G.A.A.A.A.A.A.A.A.A.A.A.A.A.A.A.A.A.A.A.A.A.A.A.S.G.{ H.H.H.H.H.",
"H.H.H.H.H.H.H.H.H.H.H.H.H.H.H.$.G.Z.Z.Z.9.9.9.9.9.9.9.9.9.9.9.9.9.9.9.9.9.9.Z.Z.A.G.{ H.H.H.H.H.",
"H.H.H.H.H.H.H.H.H.H.H.H.H.H.H.$.G.Z.Z.Z.Z.Z.Z.Z.Z.Z.Z.Z.Z.Z.Z.Z.Z.Z.Z.Z.Z.Z.Z.Z.A.G.{ H.H.H.H.H.",
"H.H.H.H.H.H.H.H.H.H.H.H.H.H.H.$.G.C.C.C.C.C.C.C.C.C.C.C.C.C.C.C.C.C.C.C.C.C.C.C.A.G.{ H.H.H.H.H.",
"H.H.H.H.H.H.H.H.H.H.H.H.H.H.H.$.G.V.V.V.V.V.V.V.V.V.V.V.V.V.V.V.V.V.V.V.V.V.V.V.Z.G.{ H.H.H.H.H.",
"H.H.H.H.H.H.H.H.H.H.H.H.H.H.H.$.G.B.B.B.B.B.B.B.B.B.B.B.B.B.B.B.B.B.B.B.B.B.B.B.C.G.{ H.H.H.H.H.",
"H.H.H.H.H.H.H.H.H.H.H.H.H.H.H.$.G.C.C.C.C.C.C.C.C.C.C.C.C.C.C.C.C.C.C.C.C.C.C.C.Z.G.{ H.H.H.H.H.",
"H.H.H.H.H.H.H.H.H.H.H.H.H.H.H.$.G.G.G.G.G.G.G.G.G.G.G.G.G.G.G.G.G.G.G.G.G.G.G.G.G.G.{ H.H.H.H.H.",
"H.H.H.H.H.H.H.H.H.H.H.H.H.H.H.O.| { { { { { { { { { { { { { { { { { { { { { { { { { { H.H.H.H.H.",
"H.H.H.H.H.H.H.H.H.H.H.H.H.H.H.H.H.H.H.H.H.H.H.H.H.H.H.H.H.H.H.H.H.H.H.H.H.H.H.H.H.H.H.H.H.H.H.H.",
"H.H.H.H.H.H.H.H.H.H.H.H.H.H.H.H.H.H.H.H.H.H.H.H.H.H.H.H.H.H.H.H.H.H.H.H.H.H.H.H.H.H.H.H.H.H.H.H."
};
