/* XPM */
static const char *picture_24x24_xpm[] = {
/* columns rows colors chars-per-pixel */
"24 24 101 2 ",
"   c #343D63",
".  c #2A414F",
"X  c #2E4057",
"o  c #32435B",
"O  c #364363",
"+  c #364B66",
"@  c #394965",
"#  c #3C4C6B",
"$  c #3F5776",
"%  c #424E73",
"&  c #445474",
"*  c #455778",
"=  c #4A5B7C",
"-  c #366E91",
";  c #386F92",
":  c #3D7495",
">  c #3F7698",
",  c #4C5D80",
"<  c #4B698E",
"1  c #506184",
"2  c #546589",
"3  c #59678E",
"4  c #417799",
"5  c #447A9C",
"6  c #487E9E",
"7  c #607094",
"8  c #6C7B9C",
"9  c #497EA0",
"0  c #717FAA",
"q  c #4C82A3",
"w  c #5286A6",
"e  c #5588A7",
"r  c #5387A8",
"t  c #5689A9",
"y  c #5B8EAE",
"u  c #5F91B0",
"i  c #7281A7",
"p  c #7583AB",
"a  c #7886AC",
"s  c #7783B0",
"d  c #78B5F7",
"f  c #72B3F8",
"g  c #77B8FC",
"h  c #808DB8",
"j  c #8592BC",
"k  c #A6AFB5",
"l  c #AAADBE",
"z  c #A9B2BA",
"x  c #90A1C2",
"c  c #B0B6C5",
"v  c #B4BBCA",
"b  c #A4B4D4",
"n  c #9BBFEE",
"m  c #85BAF5",
"M  c #8ABDF5",
"N  c #91BEF3",
"B  c #ACC3D1",
"V  c #B0C7D5",
"C  c #BFC6D5",
"Z  c #B3C9D6",
"A  c #B6CBD9",
"S  c #B8CEDC",
"D  c #BAD0DD",
"F  c #94C1F4",
"G  c #9AC2F3",
"H  c #A4C5EF",
"J  c #ABC8EF",
"K  c #BFC6E3",
"L  c #BDCAE7",
"P  c #B1C8EC",
"I  c #BECCE9",
"U  c #A0C5F2",
"Y  c #A5C8F3",
"T  c #AACDF6",
"R  c #B5CEF0",
"E  c #B5D4F3",
"W  c #BCD5F5",
"Q  c #B6D8F6",
"!  c #BFD8F6",
"~  c #BCDCFD",
"^  c #C3CAE5",
"/  c #C4CFEA",
"(  c #C5D2EC",
")  c #CAD5ED",
"_  c #CED9EF",
"`  c #C5D7F1",
"'  c #C7DAF3",
"]  c #CBDCF4",
"[  c #C4DFFC",
"{  c #D3DEF2",
"}  c #D8DFF1",
"|  c #CCE4FA",
" . c #D5E2F5",
".. c #DBE5F5",
"X. c #D3E4F9",
"o. c #DBE7F8",
"O. c #DCEAFA",
"+. c #E4EBF6",
"@. c #E3EDF9",
"#. c #ECF3FB",
"$. c None",
/* pixels */
"$.$.$.$.$.$.$.$.$.$.$.$.$.$.$.$.$.$.$.$.$.$.$.$.",
"$.$.$.$.$.$.$.$.$.$.$.$.$.$.$.$.$.$.$.$.$.$.$.$.",
"$.$.$.$.$.$.$.$.$.$.$.$.$.$.$.$.$.$.$.$.$.$.$.$.",
"< < < < < < < < < < < < < < < < < < < < < < < $ ",
"< E E E E E E E E E E E E E E E E E E E E E E X ",
"< ~ g g g g g g g g g g g g g g g g g g g d ~ X ",
"< [ f d f f f f f f f f f f f f f f f g Q | | X ",
"< | T X.! F m m m m M F n N F m m m m F O.@.#.X ",
"< X.! @.O. .Y G G n P X.] ' ` W H U T G ] O.#.X ",
"< @.] o.@.+.' J P )  .X. .o.o.{  ._ ` `  .` #.X ",
"< #.o.........L L ) { { { _ ] _ { { } } } _ +.X ",
"< +./ / / ) } ^ K / ^ b x L ^ ^ ^ ^ / / / / +.. ",
"< v 1 , 7 i 8 0 a 3 2 = = 2 p h j p p i p a C X ",
"< c % & % * % # & & * & & * & & & & = & & & z X ",
"< l         O O   o # # @ @ o o X o X X X . k X ",
"< S u u y u u u y t t t w q 6 w q q 5 > : : B X ",
"< S t r w w q q w q q q 6 9 6 5 > 5 4 > : : B X ",
"< A r t t r r r w w q q 9 6 6 5 5 > : : - - B X ",
"< A r w w w q w w e w q 6 5 4 5 : 4 > > ; - B X ",
"< A A A A A A A A Z A Z Z Z B Z B B B B B B B X ",
"+ X X X X X X X o X X X X X X X X X X X X X X X ",
"$.$.$.$.$.$.$.$.$.$.$.$.$.$.$.$.$.$.$.$.$.$.$.$.",
"$.$.$.$.$.$.$.$.$.$.$.$.$.$.$.$.$.$.$.$.$.$.$.$.",
"$.$.$.$.$.$.$.$.$.$.$.$.$.$.$.$.$.$.$.$.$.$.$.$."
};
