/* XPM */
static const char *picture_64x64_xpm[] = {
/* columns rows colors chars-per-pixel */
"64 64 216 2 ",
"   c #1C353F",
".  c #1D1C55",
"X  c #2A3B4C",
"o  c #263B49",
"O  c #2D3656",
"+  c #333B5D",
"@  c #31335D",
"#  c #343B63",
"$  c #314256",
"%  c #34445A",
"&  c #38445F",
"*  c #394A5E",
"=  c #2A424E",
"-  c #294A66",
";  c #344364",
":  c #394561",
">  c #394A66",
",  c #394269",
"<  c #3C4D6C",
"1  c #34496B",
"2  c #2E5166",
"3  c #34546C",
"4  c #3F506C",
"5  c #3B4E70",
"6  c #374C70",
"7  c #3D5273",
"8  c #3D5A76",
"9  c #3F5B78",
"0  c #335176",
"q  c #41516E",
"w  c #4C5869",
"e  c #445473",
"r  c #465778",
"t  c #425B7B",
"y  c #4A5A7C",
"u  c #485778",
"i  c #5A5F77",
"p  c #515D6D",
"a  c #1E6488",
"s  c #026086",
"d  c #25698D",
"f  c #2B6B8E",
"g  c #22668B",
"h  c #356D8F",
"j  c #2C6E91",
"k  c #366F91",
"l  c #386F90",
"z  c #367193",
"x  c #3C7394",
"c  c #3D7798",
"v  c #3C799B",
"b  c #357699",
"n  c #4C5D81",
"m  c #566588",
"M  c #407798",
"N  c #447B9C",
"B  c #497E9F",
"V  c #407596",
"C  c #6A768A",
"Z  c #6F7B8C",
"A  c #6B7685",
"S  c #737B84",
"D  c #717D8C",
"F  c #677596",
"G  c #6C7790",
"H  c #437EA0",
"J  c #497FA0",
"K  c #6D78A2",
"L  c #717DA5",
"P  c #4C809F",
"I  c #78848E",
"U  c #768291",
"Y  c #7B8C9A",
"T  c #7A8693",
"R  c #6B819A",
"E  c #4680A1",
"W  c #4D82A3",
"Q  c #4F87A8",
"!  c #5286A6",
"~  c #5588A7",
"^  c #5387A8",
"/  c #558AAA",
"(  c #598DAC",
")  c #5D92B1",
"_  c #7885AC",
"`  c #6E91A9",
"'  c #6B90A7",
"]  c #7396AD",
"[  c #7C94AB",
"{  c #7498AF",
"}  c #7F9BAE",
"|  c #7D89B3",
" . c #6094B3",
".. c #6B96B1",
"X. c #759BB3",
"o. c #7A9DB4",
"O. c #769EB8",
"+. c #6C8FA7",
"@. c #7DA0B6",
"#. c #79A2BC",
"$. c #4BA5FD",
"%. c #51A6FC",
"&. c #51A9FF",
"*. c #59A9FC",
"=. c #5CA7F4",
"-. c #62ADFA",
";. c #67ACF5",
":. c #6BB0F9",
">. c #6DB0F6",
",. c #7DB7F6",
"<. c #7EB8F7",
"1. c #74B4F8",
"2. c #77B7FA",
"3. c #848E9B",
"4. c #838C97",
"5. c #86909C",
"6. c #8A929B",
"7. c #8B94A2",
"8. c #8395AA",
"9. c #809CAE",
"0. c #8C98A8",
"q. c #929AA7",
"w. c #929DAA",
"e. c #989FA9",
"r. c #8697B8",
"t. c #838FAC",
"y. c #82A1B5",
"u. c #82A3B9",
"i. c #9BA4BA",
"p. c #8A95C3",
"a. c #8E9BC4",
"s. c #919DCA",
"d. c #919DC5",
"f. c #959ED2",
"g. c #858FC3",
"h. c #99A4CC",
"j. c #9BA5D4",
"k. c #9CA7D7",
"l. c #8CADCA",
"z. c #A3AEDC",
"x. c #A6ABD5",
"c. c #A5B1DE",
"v. c #ADB4DB",
"b. c #B4B9DD",
"n. c #B9BDDE",
"m. c #B2B6DB",
"M. c #84B2E6",
"N. c #89B7EC",
"B. c #94BBE8",
"V. c #86BAF5",
"C. c #8DBDF4",
"Z. c #83BAF8",
"A. c #91BEF3",
"S. c #AAB6E2",
"D. c #ADB9E2",
"F. c #A5BAE5",
"G. c #B2BEE4",
"H. c #B8BFE0",
"J. c #BCC2DE",
"K. c #9CC1EE",
"L. c #8CC2FE",
"P. c #96C1F3",
"I. c #9CC3F2",
"U. c #9AC8FC",
"Y. c #A5C3ED",
"T. c #ADC9EE",
"R. c #ABC5E8",
"E. c #B6C1E3",
"W. c #BDC3E2",
"Q. c #BEC9E6",
"!. c #B3CBED",
"~. c #BBCDEC",
"^. c #B3C6E7",
"/. c #BDD1EE",
"(. c #A1C5F2",
"). c #ABC9F1",
"_. c #A7CCF7",
"`. c #B2CDF2",
"'. c #B3D2F5",
"]. c #BDD4F3",
"[. c #B7D4F8",
"{. c #C7CDDE",
"}. c #CCD1DF",
"|. c #C1C6E3",
" X c #C5CBE5",
".X c #C9CEE7",
"XX c #CACFE8",
"oX c #C9D1E4",
"OX c #C4D2ED",
"+X c #CCD3EA",
"@X c #CCD9EC",
"#X c #C2D3E6",
"$X c #D1D7EC",
"%X c #D4DAED",
"&X c #D9DEEF",
"*X c #C3D6F1",
"=X c #CCDCF4",
"-X c #C6DCF7",
";X c #D3DDF2",
":X c #D8DFF0",
">X c #CAE2F9",
",X c #D5E2F5",
"<X c #DCE4F3",
"1X c #DEE8F7",
"2X c #D4E4F9",
"3X c #DAE7F9",
"4X c #DBE9F9",
"5X c #D3EBFC",
"6X c #DCF1FD",
"7X c #E1E7F5",
"8X c #E3E9F6",
"9X c #E3ECF9",
"0X c #E8EFFA",
"qX c #E4F1FC",
"wX c #EBF4FC",
"eX c None",
/* pixels */
"eXeXeXeXeXeXeXeXeXeXeXeXeXeXeXeXeXeXeXeXeXeXeXeXeXeXeXeXeXeXeXeXeXeXeXeXeXeXeXeXeXeXeXeXeXeXeXeXeXeXeXeXeXeXeXeXeXeXeXeXeXeXeXeX",
"eXeXeXeXeXeXeXeXeXeXeXeXeXeXeXeXeXeXeXeXeXeXeXeXeXeXeXeXeXeXeXeXeXeXeXeXeXeXeXeXeXeXeXeXeXeXeXeXeXeXeXeXeXeXeXeXeXeXeXeXeXeXeXeX",
"eXeXeXeXeXeXeXeXeXeXeXeXeXeXeXeXeXeXeXeXeXeXeXeXeXeXeXeXeXeXeXeXeXeXeXeXeXeXeXeXeXeXeXeXeXeXeXeXeXeXeXeXeXeXeXeXeXeXeXeXeXeXeXeX",
"eXeXeXeXeXeXeXeXeXeXeXeXeXeXeXeXeXeXeXeXeXeXeXeXeXeXeXeXeXeXeXeXeXeXeXeXeXeXeXeXeXeXeXeXeXeXeXeXeXeXeXeXeXeXeXeXeXeXeXeXeXeXeXeX",
"eXeXeXeXeXeXeXeXeXeXeXeXeXeXeXeXeXeXeXeXeXeXeXeXeXeXeXeXeXeXeXeXeXeXeXeXeXeXeXeXeXeXeXeXeXeXeXeXeXeXeXeXeXeXeXeXeXeXeXeXeXeXeXeX",
"eXeXeXeXeXeXeXeXeXeXeXeXeXeXeXeXeXeXeXeXeXeXeXeXeXeXeXeXeXeXeXeXeXeXeXeXeXeXeXeXeXeXeXeXeXeXeXeXeXeXeXeXeXeXeXeXeXeXeXeXeXeXeXeX",
"eXeXeXeXeXeXeXeXeXeXeXeXeXeXeXeXeXeXeXeXeXeXeXeXeXeXeXeXeXeXeXeXeXeXeXeXeXeXeXeXeXeXeXeXeXeXeXeXeXeXeXeXeXeXeXeXeXeXeXeXeXeXeXeX",
"eXeXeXeXeXeXeXeXeXeXeXeXeXeXeXeXeXeXeXeXeXeXeXeXeXeXeXeXeXeXeXeXeXeXeXeXeXeXeXeXeXeXeXeXeXeXeXeXeXeXeXeXeXeXeXeXeXeXeXeXeXeXeXeX",
"eXeXeXeXeXeXeXeXeXeXeXeXeXeXeXeXeXeXeXeXeXeXeXeXeXeXeXeXeXeXeXeXeXeXeXeXeXeXeXeXeXeXeXeXeXeXeXeXeXeXeXeXeXeXeXeXeXeXeXeXeXeXeXeX",
"eXi U Z D Z Z Z Z Z Z D Z Z Z D Z Z Z D Z Z Z D D Z Z Z D Z Z Z Z Z D Z D D Z Z Z D Z Z Z Z Z Z Z Z Z D Z Z Z U D Z Z U C w eXeX",
"eX0.Z S S S S S S S S S S S S S S S S S S S S S S S S S S S S S S S D S S S S S S S S S S S S S S S S S S S S S S S S Z q.* eXeX",
"eXI R B.M.M.M.M.M.M.M.M.M.M.M.M.M.M.M.M.M.M.M.M.M.M.M.M.M.M.M.M.M.M.M.M.M.M.M.M.M.M.M.M.M.M.M.M.M.M.M.M.M.M.M.M.M.M.M.l.4.% eXeX",
"eXD [ 2.$.%.&.&.&.&.&.&.&.&.&.&.&.&.&.&.&.&.&.&.&.&.&.&.&.&.&.&.&.&.&.&.&.&.&.&.&.&.&.&.&.&.&.&.&.&.&.&.*.&.&.&.&.&.&.B.6.% eXeX",
"eXS { 2.$.%.%.%.%.%.%.%.&.%.%.%.%.&.%.%.%.%.%.%.%.%.%.%.%.%.%.%.%.%.%.%.%.&.%.%.%.&.%.%.%.%.%.%.&.%.%.%.%.%.&.%.&.%.$.N.6.% eXeX",
"eXD [ 2.%.*.*.*.*.*.*.*.*.*.*.*.*.*.*.*.*.*.*.*.*.*.*.*.*.*.*.*.*.*.*.*.*.%.*.*.*.*.*.*.*.*.*.*.*.*.*.*.*.*.*.*.*.*.*.C.6.$ eXeX",
"eXD [ Z.*.-.-.-.-.*.-.-.-.-.-.-.-.-.-.-.-.*.-.-.-.-.-.-.-.-.-.-.-.-.-.-.-.-.-.-.-.-.-.-.-.-.-.-.-.-.-.-.-.*.=.*.*.-.-.B.6.% eXeX",
"eXS 8.Z.-.>.>.:.:.:.:.:.:.:.:.:.:.:.:.:.:.:.:.:.>.:.:.:.:.:.;.:.:.:.:.:.:.:.:.:.:.:.:.:.:.:.:.:.:.:.:.;.;.C.V.L.,.=.=.B.6.% eXeX",
"eXZ 8.L.>.2.1.2.1.:.:.2.1.1.1.1.1.1.1.1.1.1.1.1.1.1.1.1.1.1.1.1.1.1.1.1.1.1.1.1.1.1.1.1.1.1.1.1.1.1.1.Z.>X5X5X6X'.N.C.R.6.% eXeX",
"eXA 8.U.1.,.2.,.Z._.A.Z.,.,.,.,.,.,.,.,.,.,.,.,.,.<.,.,.<.,.<.,.,.,.,.,.,.,.,.,.,.,.<.,.,.,.,.,.,.,.,.N.>X6X6X6X>X-X].^.6.% eXeX",
"eXZ 0.U.Z.L.P.C.A.3X4X[.V.Z.V.V.V.V.V.V.V.V.V.V.V.V.V.V.V.Z.V.Z.,.,.C.V.C.V.V.V.V.V.V.V.V.V.V.V.V.V.V.I.2XwXqX6X5X>X>X#X5.% eXeX",
"eXD 9._.N.I._.].-X2X4X2X].'.(.V.P.A.C.A.A.A.A.A.A.C.A.C.C.I.I.K./.!.P.I.K.I.P.C.P.C.C.A.P.L.C.C.C.P.N.).wXwXqX2X2X2X>X@X3.% eXeX",
"eXC 0._.A.P.).qX9X4X;X=X=X2X=X(.A.P.P.P.A.A.P.P.P.I._.(.~.,X=X!.-X=X'.Y.].`.I.I.C.C.P.P.P.I.K.P.P.P.A.K.>X9XqX3X2X2X2X@X4.% eXeX",
"eXZ q.'.I.I.(.-X4X9X4X9X4X4X9X=X).I.(.(.(.(.(.(.K.K.).T.=X4X-X*X-X,X=X=X2X=X~.T.!.T.K.Y.(.(.[.).(.(.(.I.).*X4X3X2X2X;XoX6.% eXeX",
"eXA q.[.Y.).).).*X9X9X4X4X0X0X<X=X(.(.).).).(.F.!.^.!.!.=X2X,X,X,X1X1X,X4X4X,X=X4X@XY.R.T.Y.T.).`.`.`.T./.*X6X4X4X<X,XoX3.* eXeX",
"eXA q.].T.!.T.*X1X2X8X8X8XwX0X8X2X/.`.!.).!.Y.Q.OX@X=X+X,X1X<X1X<X<X,X1X7X1X<X<X<X=X~.=X+X/.^.~.T./.~./.=X;X,X@X=X<X,X.X5.% eXeX",
"eXC e.>X!.*X~.1X8X<X;X9X8X7X0X8X<X;X!.~.~./.~.+X%X<X<X,X8X8X<X,X<X<X;X<X8X1X1X,X<X<X1X1X8X<X,X<X$X=X@X,X1X9X;X+XOX$X;X{.3.% eXeX",
"eXC e.9XOX+XOX7X8X<X@X7X8X8X7X:X<X<X~.~.OX+X+X$X&X<X<X1X8X7X<X<X<X7X<X7X8X8X,X;X&X<X8X7X<X<X1X<X7X<X<X<X7X7X<X<X;X+X$XoX6.% eXeX",
"eXC q.9X:X7X<X<X7X7X7X8X7X7X:X:X<X<X$X+XQ.Q.+X.X$X<X<X<X<X<X<X<X,X<X<X&X<X7X&X:X&X7X7X&X,X&X&X:X&X&X&X&X<X7X<X:X$XoX$XoX5.% eXeX",
"eXC e.7X$X$X%X%X$X%X:X:X$X:X:X%X<X&X.X.Xn.J. X.X$X%X%X%X%X&X@X$X$X%X+X+X+X+X+X$X$X$X&X%X%X$X$X$X&X$X%X%X:X%X$XXXoX X+X}.3.% eXeX",
"eXA q.$XH.|..XXX|.{.|. X|. X$X X X&X$X.X XW.|..X+X.XXXoXXX XQ.Q.W.W.|.|.|.|.W.{.|. X X.X.X.X.X X X+X+X X X X.X X|.W.|.{.5.% eXeX",
"eXA q.*XG.H.H.G.n.E.H.G.H.H.H.m. X;X$Xn.n.b.b.{.|.|.W.W.E.E.G.D.E.^.H.J.n.|.J.|.H.n.n.m.n.n.n.{.|.|.W.W.W.J.W.W.W.J.W.J.6.% eXeX",
"eXZ 7.E.c.G.D.G.G.D.G.G.G.G.m.H.;X|.S.x.x.x.x.v.v.S.S.S.S.h.| F F a.S.v.c.v.m.m.b.m.m.m.m.x.v.v.v.v.v.v.v.G.b.b.b.v.G.J.6.% eXeX",
"eXD T L y F L p.r.L | p.d.k.S.S.h.r.s.k.f.f.k.k.f.p.a.| F y 7 y t 7 _ z.z.c.c.z.x.z.z.z.S.z.z.S.z.z.z.z.c.F.S.S.S.S.k.i.7.$ eXeX",
"eXD T G 5 r 5 6 e 7 7 5 1 m f.L , 6 5 | j.f.g.K n e e 7 7 n y y y n 5 n F | p.f.k.z.j.s.s.s.s.d.p.r.| K K _ | r.p.| y 3.7.$ eXeX",
"eXD U G 6 y n r y y e u y e n e r y r 5 F F e < 5 r r r r r e r r r y r 7 1 < y m m y e < 5 5 < 1 < 1 < 4 < < 4 5 < q 4.7.$ eXeX",
"eXD D G 6 r e r e e e e e e 5 e e e e q 1 6 e r e e e e e r e e q e e e e e e e < q e e e e e e u u u r u e e u u < ; Y 7.$ eXeX",
"eXD U C - # # q e q < < 5 e e e , < < + q e < q q e < q q q q e q q q e q q q q q e q q q q e e e q q q q e q q 8 = o 6.7.$ eXeX",
"eXU D A @ # # 6 q q > # ; 4 < : > q e ; 4 q > + , 4 < e e 4 4 e < 4 4 4 q q q > ; : > < q q q > < < q > % > % % % = o T 7.$ eXeX",
"eXD D m . @ @ + + + @ @ + ; + @ + : + + & & O O O O & : * & & > : : : & & & O X X X X X $ % % X X % & X = o o o = =   I 6.+ eXeX",
"eXD D G 0 n t t t t t t n 9 9 9 9 9 8 8 t 8 t 8 8 8 8 8 t 9 9 9 8 8 8 7 3 3 3 3 3 3 3 3 3 3 3 3 2 3 2 2 2 2 2 2 2 2 - Y 7.$ eXeX",
"eXD [ @.^ ) ) )  . .)  .) ) ) ) ) )  . . .) ( ( / / ^ / ( ( ( / / ! W W W E W W W W W W P E N N N c c c c x M M x x z y.6.% eXeX",
"eXD Y #.^ ( ( ) ( ( ( ( ( ( ( ( ( ( ( ( ( ( ^ ( ( ( / / ! Q W Q W W W W W J B N P N N N N M M M M V x x x x z l l h j 9.6.% eXeX",
"eXD 3.#.Q ( ( ( / ( ( ( ( ( ( ( ^ / ^ ^ ^ ^ ( ( ^ ! W W W W W W W W W W W J B P N N N v N M N N N M M V z x z z z l f } 6.$ eXeX",
"eXD Y O.W / ^ ^ ^ / ( / ( ( ^ ^ ^ ^ ^ ^ ^ ! Q Q ! W ! Q W W W W W P W B J J N N N N N N N N M M M c x x z x x x x x k 9.7.% eXeX",
"eXZ Y #.Q / ^ ( / ^ ! ! W Q ~ ~ / / ^ ! ^ ! Q ! ^ ! ! ! W W W N N N N N W N P N N N c M c c c c x x x x z x l l z l j } 7.$ eXeX",
"eXZ Y O.E ( / ^ / ^ ~ / ^ / ^ ^ / ^ ^ / / / / ^ ! ^ Q W W W W P W W E P W N N N N N N M M M M V c x x x z z z z h l f } 7.% eXeX",
"eXD Y O.E ^ Q Q ! ^ ( ( ( / ^ ^ ^ ^ ^ ! ! Q ! W W W W W W W W W E W N P N B N N M N M N M c x x x x x l l l z l h h f } 6.$ eXeX",
"eXD Y O.E ! ! ! ! ! ^ ! ! ^ ! ^ ^ ^ ! J J ! W W W W W W W W P B W N E N N E N N N M M M M c x x x x x z z z h h h h f } 7.% eXeX",
"eXD Y X.E ^ ^ / ! ! / ! W ! ! W W W ! ! ! / ! ! ~ ~ ~ ~ W N B B B N B N N V V c N V V V V c c x z x l z l z l h h h f } 6.$ eXeX",
"eXD Y X.N W W ~ ~ / ! ^ ( ~ ! W W W W W W ! ! ! W W ~ ~ ! W W B N N N N V N N c c V c V c x x x x z V V M x h l h h f 9.6.% eXeX",
"eXD Y X.v W W W W W W W ! Q ! ~ ~ ~ ~ / ! ! ! P P P N P W W B N W P P B N N N N N V V x x V x V x l x l z l l x l l l 9.7.$ eXeX",
"eXZ Y  .b H N H N E E E v N E E E E E J P E v v v N v v c b c c v N v v z b z c c c b k f f j f f f d f d g a a g g s } 7.$ eXeX",
"eXD U l.X.@.u.u.@.u.u.u.u.u.@.@.o.o.X.o.o.o.o.o.@.@.@.@.u.@.@.@.X.{ { { { { { X.{ { { { X.X.{ { ] ] ] ` ` ` ` ` ' ' ' y.5.$ eXeX",
"eXY 3.w.w.q.w.w.w.e.w.w.e.w.w.w.w.w.w.w.w.w.w.w.w.w.w.w.w.w.w.w.w.w.w.q.w.w.w.w.w.w.0.w.w.w.w.w.q.q.w.w.w.w.w.w.w.q.w.q.q.$ eXeX",
"eXp p w w w w w w w w w w w w w w w w w w w w w w w w w w w w w w w w w w w w w w w w w w w w w w w w w w w w w w w w p w X eXeX",
"eXeXeXeXeXeXeXeXeXeXeXeXeXeXeXeXeXeXeXeXeXeXeXeXeXeXeXeXeXeXeXeXeXeXeXeXeXeXeXeXeXeXeXeXeXeXeXeXeXeXeXeXeXeXeXeXeXeXeXeXeXeXeXeX",
"eXeXeXeXeXeXeXeXeXeXeXeXeXeXeXeXeXeXeXeXeXeXeXeXeXeXeXeXeXeXeXeXeXeXeXeXeXeXeXeXeXeXeXeXeXeXeXeXeXeXeXeXeXeXeXeXeXeXeXeXeXeXeXeX",
"eXeXeXeXeXeXeXeXeXeXeXeXeXeXeXeXeXeXeXeXeXeXeXeXeXeXeXeXeXeXeXeXeXeXeXeXeXeXeXeXeXeXeXeXeXeXeXeXeXeXeXeXeXeXeXeXeXeXeXeXeXeXeXeX",
"eXeXeXeXeXeXeXeXeXeXeXeXeXeXeXeXeXeXeXeXeXeXeXeXeXeXeXeXeXeXeXeXeXeXeXeXeXeXeXeXeXeXeXeXeXeXeXeXeXeXeXeXeXeXeXeXeXeXeXeXeXeXeXeX",
"eXeXeXeXeXeXeXeXeXeXeXeXeXeXeXeXeXeXeXeXeXeXeXeXeXeXeXeXeXeXeXeXeXeXeXeXeXeXeXeXeXeXeXeXeXeXeXeXeXeXeXeXeXeXeXeXeXeXeXeXeXeXeXeX",
"eXeXeXeXeXeXeXeXeXeXeXeXeXeXeXeXeXeXeXeXeXeXeXeXeXeXeXeXeXeXeXeXeXeXeXeXeXeXeXeXeXeXeXeXeXeXeXeXeXeXeXeXeXeXeXeXeXeXeXeXeXeXeXeX",
"eXeXeXeXeXeXeXeXeXeXeXeXeXeXeXeXeXeXeXeXeXeXeXeXeXeXeXeXeXeXeXeXeXeXeXeXeXeXeXeXeXeXeXeXeXeXeXeXeXeXeXeXeXeXeXeXeXeXeXeXeXeXeXeX",
"eXeXeXeXeXeXeXeXeXeXeXeXeXeXeXeXeXeXeXeXeXeXeXeXeXeXeXeXeXeXeXeXeXeXeXeXeXeXeXeXeXeXeXeXeXeXeXeXeXeXeXeXeXeXeXeXeXeXeXeXeXeXeXeX",
"eXeXeXeXeXeXeXeXeXeXeXeXeXeXeXeXeXeXeXeXeXeXeXeXeXeXeXeXeXeXeXeXeXeXeXeXeXeXeXeXeXeXeXeXeXeXeXeXeXeXeXeXeXeXeXeXeXeXeXeXeXeXeXeX"
};
