/* XPM */
static const char *picture_16x16_xpm[] = {
/* columns rows colors chars-per-pixel */
"16 16 122 2 ",
"   c #2E4057",
".  c #31465A",
"X  c #33445D",
"o  c #354063",
"O  c #374166",
"+  c #384566",
"@  c #364861",
"#  c #364A61",
"$  c #3A4867",
"%  c #3A4A66",
"&  c #394569",
"*  c #3D4D6A",
"=  c #3D4D6B",
"-  c #3C5371",
";  c #3E5776",
":  c #4B5C7E",
">  c #4C5C7F",
",  c #4C5D7F",
"<  c #397193",
"1  c #3C7396",
"2  c #3D7496",
"3  c #3F7699",
"4  c #505F84",
"5  c #4B698E",
"6  c #566688",
"7  c #5C6C8E",
"8  c #5C6C8F",
"9  c #447B9C",
"0  c #457B9C",
"q  c #467D9E",
"w  c #477E9F",
"e  c #487E9E",
"r  c #617094",
"t  c #617194",
"y  c #667699",
"u  c #4A7FA0",
"i  c #4A7FA1",
"p  c #6A79A1",
"a  c #717FA5",
"s  c #4D82A3",
"d  c #5085A4",
"f  c #5084A5",
"g  c #5085A5",
"h  c #5185A6",
"j  c #5285A7",
"k  c #5286A7",
"l  c #5387A8",
"z  c #598BAC",
"x  c #598DAD",
"c  c #5A8CAD",
"v  c #5A8DAD",
"b  c #ABAEBF",
"n  c #A8B1B8",
"m  c #B4BBC9",
"M  c #A9B8D6",
"N  c #8ABEF7",
"B  c #90BEF3",
"V  c #ACC3D2",
"C  c #ACC4D1",
"Z  c #ADC4D3",
"A  c #AEC4D3",
"S  c #AEC5D3",
"D  c #AFC6D4",
"F  c #B0C7D5",
"G  c #BDC4D2",
"H  c #B3C9D7",
"J  c #B3C1DE",
"K  c #B5CBD8",
"L  c #B5CBD9",
"P  c #B6CCD9",
"I  c #B6CCDA",
"U  c #B7CCDA",
"Y  c #B9CFDD",
"T  c #8AC0F8",
"R  c #8EC1F8",
"E  c #8EC2F9",
"W  c #99C0F0",
"Q  c #9EC3F0",
"!  c #9DC5F3",
"~  c #99C3F4",
"^  c #9CC5F5",
"/  c #B2C9EB",
"(  c #B4CDEF",
")  c #A8CEF8",
"_  c #B8D3F1",
"`  c #BCD3F1",
"'  c #B9D5F2",
"]  c #C1C9E5",
"[  c #C3CDE9",
"{  c #C5CFEA",
"}  c #C8D0E9",
"|  c #C9D0E9",
" . c #C9D4EC",
".. c #CBD5ED",
"X. c #C9D5EE",
"o. c #C9D6EF",
"O. c #CFDAEF",
"+. c #C2D6F1",
"@. c #C5D8F2",
"#. c #C5DDF6",
"$. c #C9D8F0",
"%. c #D3DCF0",
"&. c #D2DFF3",
"*. c #C7E1FC",
"=. c #C8E3FA",
"-. c #D3E0F4",
";. c #D3E2F7",
":. c #D5E1F4",
">. c #D6E2F5",
",. c #D7E3F5",
"<. c #D9E5F7",
"1. c #DCE8F9",
"2. c #E7ECF7",
"3. c #E0ECFB",
"4. c #E4ECF8",
"5. c #E6EEF9",
"6. c #E8EDF8",
"7. c #E9EEF8",
"8. c #EAF2FB",
"9. c #E8F3FC",
"0. c #F0F7FD",
"q. c None",
/* pixels */
"q.q.q.q.q.q.q.q.q.q.q.q.q.q.q.q.",
"q.q.q.q.q.q.q.q.q.q.q.q.q.q.q.q.",
"5 5 5 5 5 5 5 5 5 5 5 5 5 5 5 ; ",
"5 ' ' ' ' ' ' ' ' ' ' ' ' ' _   ",
"5 *.) R T T T T N E T T T =.9.  ",
"5 3.1.;.~ B W ` +.( Q ! ^ #.0.  ",
"5 8.5.4.@./ X.>.,.<.-.&.$.:.6.  ",
"5 7.o.O.%.] { J M [ } | .. .2.  ",
"5 m : 7 6 p 4 , > 8 a y t r G   ",
"5 b O & o + $ = * % X @ # . n   ",
"5 Y x c z v k h d i u e 0 2 S   ",
"5 I l j l f g s w q 9 3 1 < V   ",
"5 L U U P P P K H F D A Z S C   ",
"-                               ",
"q.q.q.q.q.q.q.q.q.q.q.q.q.q.q.q.",
"q.q.q.q.q.q.q.q.q.q.q.q.q.q.q.q."
};
