/* XPM */
static const char *positive_48x48_xpm[] = {
/* columns rows colors chars-per-pixel */
"48 48 207 2 ",
"   c #5A4F1F",
".  c #5A5024",
"X  c #5A522B",
"o  c #744E28",
"O  c #7B5327",
"+  c #5A5645",
"@  c #5A5648",
"#  c #64604A",
"$  c #835B0D",
"%  c #92620D",
"&  c #9A6A0F",
"*  c #876613",
"=  c #9B7214",
"-  c #8E6A13",
";  c #A9751D",
":  c #B77E16",
">  c #B47D1A",
",  c #875C25",
"<  c #936E2A",
"1  c #986922",
"2  c #85732B",
"3  c #93752E",
"4  c #84733B",
"5  c #857431",
"6  c #97783A",
"7  c #8C6E28",
"8  c #A77521",
"9  c #C07E0E",
"0  c #877846",
"q  c #937D47",
"w  c #837F6C",
"e  c #A4881F",
"r  c #BB8116",
"t  c #B6811C",
"y  c #BD8419",
"u  c #BF881A",
"i  c #B28B1B",
"p  c #A48A23",
"a  c #A48C2C",
"s  c #AD973A",
"d  c #A3863E",
"f  c #CF870F",
"g  c #DB890F",
"h  c #C38315",
"j  c #CE8B14",
"k  c #C48C1C",
"l  c #C48615",
"z  c #D48D14",
"x  c #D48711",
"c  c #C6911E",
"v  c #CB931E",
"b  c #CF9015",
"n  c #DE9414",
"m  c #DF9917",
"M  c #D3951B",
"N  c #D49C1E",
"B  c #DC9B1B",
"V  c #E88A0A",
"C  c #FA8F06",
"Z  c #F78D06",
"A  c #ED910C",
"S  c #FC9107",
"D  c #FB9509",
"F  c #FC9C0D",
"G  c #EB9A13",
"H  c #E19E1A",
"J  c #E69511",
"K  c #F79D11",
"L  c #E9A81B",
"P  c #F5A416",
"I  c #FDA312",
"U  c #FDAA16",
"Y  c #FDAE18",
"T  c #F3AA1A",
"R  c #EFB01E",
"E  c #FDB31C",
"W  c #FEB91F",
"Q  c #C18F22",
"!  c #CA9520",
"~  c #CD9922",
"^  c #D29D23",
"/  c #D59F25",
"(  c #D5A125",
")  c #DAA321",
"_  c #D8AC23",
"`  c #D7A734",
"'  c #DEAD31",
"]  c #D9B33C",
"[  c #E2AF2E",
"{  c #EBB727",
"}  c #FEBD21",
"|  c #F9BB25",
" . c #FBBE37",
".. c #E6BA34",
"X. c #FEC325",
"o. c #FEC529",
"O. c #FFCB2A",
"+. c #FFD22E",
"@. c #FEC33C",
"#. c #FECA3B",
"$. c #FEC632",
"%. c #FFD633",
"&. c #FFD837",
"*. c #FFD93B",
"=. c #FFD43D",
"-. c #9C8C56",
";. c #A28249",
":. c #A99853",
">. c #A4924A",
",. c #ADA05E",
"<. c #BAA653",
"1. c #AB9968",
"2. c #BAA672",
"3. c #C5A543",
"4. c #DCB245",
"5. c #C6B155",
"6. c #CBBC6C",
"7. c #E2BE66",
"8. c #FECC4C",
"9. c #FAC446",
"0. c #FDD445",
"q. c #FFDC44",
"w. c #FFDD4A",
"e. c #FED14A",
"r. c #FECD5A",
"t. c #FEDC54",
"y. c #FED25A",
"u. c #FFDB5A",
"i. c #E1C652",
"p. c #FFE04E",
"a. c #FFE253",
"s. c #FFE35D",
"d. c #D8C573",
"f. c #E9C365",
"g. c #FBCE65",
"h. c #FED464",
"j. c #FFDD62",
"k. c #FED56D",
"l. c #FFDC6F",
"z. c #F0D561",
"x. c #FEDB7B",
"c. c #FCD677",
"v. c #E7D272",
"b. c #FFE362",
"n. c #FFE36C",
"m. c #FFEB6C",
"M. c #FFE865",
"N. c #FFE573",
"B. c #FFEC74",
"V. c #FFE57B",
"C. c #FFE97B",
"Z. c #FFF27E",
"A. c #A29D86",
"S. c #ADA687",
"D. c #B3A986",
"F. c #B7AF92",
"G. c #C2B58B",
"H. c #C2B88D",
"J. c #C6BA98",
"K. c #C1AD86",
"L. c #D6CB9C",
"P. c #FEDE8A",
"I. c #FEDD81",
"U. c #F0D48E",
"Y. c #FFE584",
"T. c #FFE983",
"R. c #FFE28B",
"E. c #FFEA8C",
"W. c #FEE393",
"Q. c #FFEC95",
"!. c #FFE59A",
"~. c #FFEC9C",
"^. c #FFF096",
"/. c #FFF19C",
"(. c #D1C2A5",
"). c #D9D2B8",
"_. c #EFDEA6",
"`. c #FFE6A3",
"'. c #FFEDA4",
"]. c #FFEDAC",
"[. c #F5E3AB",
"{. c #FFF2A4",
"}. c #FFF2AD",
"|. c #FFEDB3",
" X c #FFEEBA",
".X c #F7E5B4",
"XX c #FFF3B4",
"oX c #FFF4BC",
"OX c #FFF9BD",
"+X c #EAE0AE",
"@X c #E1DBCA",
"#X c #E0DAC5",
"$X c #F9EDC9",
"%X c #FFF4C4",
"&X c #FFF9C1",
"*X c #FFF5CB",
"=X c #FFF6D3",
"-X c #FFF7D9",
";X c #FFF8DB",
":X c #F0E8D3",
">X c #F0ECE3",
",X c #FFF9E3",
"<X c #FFFBEB",
"1X c #F7F5F1",
"2X c #FFFCF3",
"3X c white",
"4X c None",
/* pixels */
"4X4X4X4X4X4X4X4X4X4X4X4X4X4X4X4X4X4X4X! v v c v k k 4X4X4X4X4X4X4X4X4X4X4X4X4X4X4X4X4X4X4X4X4X4X",
"4X4X4X4X4X4X4X4X4X4X4X4X4X4X4X~ ~ ~ ~ ^ ) / ^ N N M k Q k u 4X4X4X4X4X4X4X4X4X4X4X4X4X4X4X4X4X4X",
"4X4X4X4X4X4X4X4X4X4X4X4X4X~ ^ ( [ 9.h.h.r.r.8. .} } Y P H b u u 4X4X4X4X4X4X4X4X4X4X4X4X4X4X4X4X",
"4X4X4X4X4X4X4X4X4X4X4X^ ^ [ g.`.|.|.].`.!.W.I.I.k.9.| } E Y P M u r 4X4X4X4X4X4X4X4X4X4X4X4X4X4X",
"4X4X4X4X4X4X4X4X4X4X^ ' c.%X$X%X X|.].`.!.W.P.I.x.k.r.$.E Y Y U P z r : 4X4X4X4X4X4X4X4X4X4X4X4X",
"4X4X4X4X4X4X4X4X^ ^ f.=X-X=X*X%X X X].'.~.!.R.Y.x.k.h.r.@.E E Y U I G r : 4X4X4X4X4X4X4X4X4X4X4X",
"4X4X4X4X4X4X4X^ / [.<X,X-X=X*X%X%XoX].].'.Q.R.Y.x.l.h.y.9.$.E Y Y U I F h : 4X4X4X4X4X4X4X4X4X4X",
"4X4X4X4X4X4X^ ` $X1X<X,X-X=X*X*X X X|.'.~.Q.W.Y.x.l.k.y.8.9.| E Y U P I F h r 4X4X4X4X4X4X4X4X4X",
"4X4X4X4X4X^ ` :X2X2X<X,X-X-X*X*XoXoXXX'.~.!.Q.Y.V.n.j.y.8.#. .E E Y U I I D h r 4X4X4X4X4X4X4X4X",
"4X4X4X4X4X~ .X2X2X2X,X;X-X=X*X&X%XXX|.'.'.Q.E.Y.V.l.b.y.e.#.o.W E Y U I I F D h r 4X4X4X4X4X4X4X",
"4X4X4X4X^ U.<X2X<X<X,X;X-X*X*X*XoXoX|.}.'.Q.E.Y.V.n.j.y.e.#.o.} W E Y U I I D A r 4X4X4X4X4X4X4X",
"4X4X4X^ 4.,X<X,X,X,X;X;X-X=X&X*XoXoXXX}.{.Q.E.T.N.n.j.t.0.#.X.} W E Y U I F F D g t 4X4X4X4X4X4X",
"4X4X4X^ [.,X,X,X,X;X;X=X=X*X*X&XoXoXXX}.{.Q.E.T.N.n.u.t.0.$.o.X.W W E U I I F F S r h 4X4X4X4X4X",
"4X4X^ 7.-X-X-X-X-X-X=X-X*X*X*X&X%XoXXX{.{.Q.E.T.N.n.u.w.=.O.X.X.W W E U I I F D D g u 4X4X4X4X4X",
"4X4X^ _.=X=X=X$XS.# F.;X*X=X&X&XOXOXXX}.{.Q.E.T.N.b.t.w.&.O.o.X.} W E Y U I F F S Z h 4X4X4X4X4X",
"4X4X` *X$X*X*XF.+ + # J.&X&X*X&X&XXXXX}.{.Q.E.C.N.j.t.0.%.+.o.X.} E E Y U I F F D C x u 4X4X4X4X",
"4X~ 7.%X$X%X%XS.+ + + S.%X%X&X&X&XOXXX}.{.^.d.,.<.a.p.*.%.O.O.X.} W E Y U U F F D S V u 4X4X4X4X",
"4X^ U. X XoX XL.+ + # +XOXOXOX&XOXOXXX{./.d.X . . 3.p.%.+.+.O.X.X.W E Y U I F F D S S y 4X4X4X4X",
"4X^ [.|.|.|.XXoX_.L.+XOXXXXXOXXXOXOX}./.^.,.X .   s *.%.+.+.O.X.} W E Y U U F F D D S j k 4X4X4X",
"4X^ `.].].].].|.}.}.|.}.}.}.}.}.{.{.{.^.E.v.X .   ] &.%.+.O.X.X.} W E Y U F F F F F F z k 4X4X4X",
"! ) !.`.`.].'.'.'.].'.{.{.{.{.{././.^.E.T.B.z.>.i.*.%.%.+.O.O.X.} W E Y U F I I I I F n u 4X4X4X",
"v / !.!.!.~.~.~.~.~.~.'.~./.{.~.^.^.E.T.C.B.b.a.&.&.%.%.+.O.X.X.W W Y U U U U U I I I n k 4X4X4X",
"v N P.W.W.2.Q.Q.Q.Q.Q.Q.Q.Q.Q.E.E.T.T.V.m.b.t.q.&.&.%.+.O.O.X.X.W W E U U U U U Y U I n k 4X4X4X",
"v ^ c.P.P.0 -.d.E.Y.E.E.T.E.T.T.Z.B.B.M.s.t.q.*.&.%.+.+.O.X.X.W W E Y Y E E E E E Y Y L k 4X4X4X",
"k ^ r.I.I.0 D.0 :.d.V.V.C.V.B.N.n.n.M.a.p.p.&.&.%.%.+.+.+.X.X.} W E E W W W W W E E E H k 4X4X4X",
"k M $.c.c.4 1X>XS.q 4 >.<.5.f.z.b.s.a.p.*.&.&.%.%.+.+._ i i } W W W W W W W } } } } E B k 4X4X4X",
"4Xk W g.k.4 @X3X3X3X@XJ.D.1.5 2 2 2 a p p p e e e - O O O m W W W } } X.X.X.X.X.X.} } M k 4X4X4X",
"4Xk T  .g.6 J.3X3X3X3X3X3X3X3X3X@X#X).H.H.H.F.F.(.).:X>XO R } } X.X.X.X.o.o.X.X.X.X.X.k 4X4X4X4X",
"4Xk B } 9.3.q 3X3X3X3X3X3X3X3X3X3X3X3X3X3X3X3X3X3X3X1XH.e X.X.X.X.o.O.O.O.O.O.O.O.O.{ k 4X4X4X4X",
"4Xh v Y E  .7 #X3X3X3X3X3X3X3X3X3X3X3X3X3X3X3X3X3X3X2Xe b X.X.X.O.o.O.+.+.+.+.+.O.O.L c 4X4X4X4X",
"4X4Xu T U } Q 6 3X3X3X3X3X3X3X3X3X3X3X3X3X3X3X3X3X3XL.O E X.X.O.+.+.+.+.+.%.%.%.+.%.v 4X4X4X4X4X",
"4X4Xh M U Y T - K.3X3X3X3X3X3X3X3X3X3X3X3X3X3X3X3X1Xe i X.X.O.O.+.%.%.*.%.*.*.*.%.{ k 4X4X4X4X4X",
"4X4X4Xu P Y Y m $ (.3X3X3X3X3X3X3X3X3X3X3X3X3X3X3X1.= } X.o.+.+.+.%.*.*.q.q.q.q.*.v k 4X4X4X4X4X",
"4X4X4Xt z U U Y b $ (.3X3X3X3X3X3X3X3X3X3X3X3X3X(.* L } X.O.+.+.+.*.*.p.p.a.a.p...c 4X4X4X4X4X4X",
"4X4X4X4Xt G I U Y j $ K.3X2X3X3X3X3X3X3X3X3X1X2.* L } X.o.O.+.%.&.*.p.a.s.s.M.t.v k 4X4X4X4X4X4X",
"4X4X4X4X: r K I U U n % < J.>X3X3X3X3X3X1X(.< & L E } X.O.O.+.%.*.p.a.s.m.m.m.( k 4X4X4X4X4X4X4X",
"4X4X4X4X4X: l K I I I I j % $ < ;.;.;.6 $ % l Y E E } X.O.O.+.%.*.p.a.M.B.Z.] k 4X4X4X4X4X4X4X4X",
"4X4X4X4X4X4X: h F F I I I I G g 9 9 9 x J I U Y E } } X.O.O.%.%.*.p.s.M.B.4.c 4X4X4X4X4X4X4X4X4X",
"4X4X4X4X4X4X4X: h F F F F F I F I F F I F I U Y E } } X.O.O.+.%.&.*.a.s.] c 4X4X4X4X4X4X4X4X4X4X",
"4X4X4X4X4X4X4X4X: : A F F F F F F F F F F I U Y Y E } X.X.O.+.%.&.p.0.^ k 4X4X4X4X4X4X4X4X4X4X4X",
"4X4X4X4X4X4X4X4X4Xr r x D D D F D D D D F I I U Y W W X.o.O.+.+.&...! u , 4X4X4X4X4X4X4X4X4X4X4X",
"4X4X4X4X4X4X4X4X4X4X4Xt r g C S C C D D F I I U Y E W X.X.o.O.{ v k 8 o o o o 4X4X4X4X4X4X4X4X4X",
"4X4X4X4X4X4X4X4X4X4X4X4X> t r x V Z S D F K I U Y E W W { L v k ; O o o o o o 4X4X4X4X4X4X4X4X4X",
"4X4X4X4X4X4X4X4X4X4X4X4X4X4X; > k h k z n J n H H N M k k t 1 O o o o o o o o 4X4X4X4X4X4X4X4X4X",
"4X4X4X4X4X4X4X4X4X4X4X4X4X4X4X4X4X1 ; > t t > t t t ; 1 O o o o o o o o o 4X4X4X4X4X4X4X4X4X4X4X",
"4X4X4X4X4X4X4X4X4X4X4X4X4X4X4X4X4X4X4X4X4X4X4X4Xo o o o o o o o 4X4X4X4X4X4X4X4X4X4X4X4X4X4X4X4X",
"4X4X4X4X4X4X4X4X4X4X4X4X4X4X4X4X4X4X4X4X4X4X4X4X4X4X4X4X4X4X4X4X4X4X4X4X4X4X4X4X4X4X4X4X4X4X4X4X",
"4X4X4X4X4X4X4X4X4X4X4X4X4X4X4X4X4X4X4X4X4X4X4X4X4X4X4X4X4X4X4X4X4X4X4X4X4X4X4X4X4X4X4X4X4X4X4X4X"
};
