/* XPM */
static const char *presentation_24x24_xpm[] = {
/* columns rows colors chars-per-pixel */
"24 24 176 2 ",
"   c #2C2C2E",
".  c gray29",
"X  c #56595C",
"o  c #585858",
"O  c gray35",
"+  c #5B5D5E",
"@  c #5F5F5F",
"#  c #666A6E",
"$  c #6A6E72",
"%  c #717171",
"&  c #73737F",
"*  c #797B84",
"=  c #7D7E98",
"-  c #7E8188",
";  c #7F81A1",
":  c #86888E",
">  c #868894",
",  c #868D94",
"<  c #8B8D94",
"1  c #90909E",
"2  c #8A8FA8",
"3  c #9898A4",
"4  c #9494AD",
"5  c #9798AF",
"6  c #9697B8",
"7  c #9697B9",
"8  c #9B9CBC",
"9  c #9D9EBD",
"0  c #9E9FBE",
"q  c #9AA9BA",
"w  c #A1A3AD",
"e  c #A0A1B2",
"r  c #ABACB6",
"t  c #ADAFB5",
"y  c #A1A1B9",
"u  c #A1A6BA",
"i  c #A2A7BA",
"p  c #A2A8BB",
"a  c #A3A8BB",
"s  c #A7A8B9",
"d  c #A4A5C2",
"f  c #A5A6C3",
"g  c #A8A9C0",
"h  c #A9ABC5",
"j  c #A3AFC8",
"k  c #ADAFC8",
"l  c #AEAEC9",
"z  c #AFB0C0",
"x  c #AFB1C9",
"c  c #B2B2C3",
"v  c #B3B3C3",
"b  c #B9BBC2",
"n  c #BCBEC7",
"m  c #B1B2CA",
"M  c #B4B5CD",
"N  c #B5B6CD",
"B  c #B8B9CF",
"V  c #A9BDD1",
"C  c #B9B9D0",
"Z  c #BBBCD2",
"A  c #BEBED3",
"S  c #B3C5D6",
"D  c #BECDDC",
"F  c #C3C5CE",
"G  c #CACACF",
"H  c #C1C1D5",
"J  c #C3C4D7",
"K  c #C4C4D7",
"L  c #C8CAD5",
"P  c #C5C5D8",
"I  c #C6C7D9",
"U  c #C7C7D9",
"Y  c #CCCED8",
"T  c #CDCED9",
"R  c #CBCBDC",
"E  c #CBCDDC",
"W  c #CCCCDD",
"Q  c #CDCDDD",
"!  c #CECEDE",
"~  c #CECFDE",
"^  c #CFCFDF",
"/  c #D0D1DA",
"(  c #D1D1E0",
")  c #D2D2E1",
"_  c #D3D4E1",
"`  c #D3D4E2",
"'  c #D8D8E5",
"]  c #D8D9E5",
"[  c #DEDFE9",
"{  c #DFDFE9",
"}  c #DFDFEA",
"|  c #E0E0EA",
" . c #E1E1EB",
".. c #E1E2EB",
"X. c #E2E2EB",
"o. c #E3E4EC",
"O. c #E4E4EC",
"+. c #E4E4ED",
"@. c #E5E5ED",
"#. c #E4E6ED",
"$. c #E6E6EE",
"%. c #E7E7EF",
"&. c #E0E9EC",
"*. c #E2EAED",
"=. c #E3ECEE",
"-. c #E4ECEE",
";. c #E4ECEF",
":. c #E5ECEF",
">. c #E5EDEF",
",. c #E6EDF0",
"<. c #E7EEF0",
"1. c #E7EEF1",
"2. c #E8E8F0",
"3. c #E9E9F0",
"4. c #EAEBF1",
"5. c #E8EFF1",
"6. c #E9EFF1",
"7. c #EBECF2",
"8. c #E9EFF2",
"9. c #EDEDF3",
"0. c #EDEEF3",
"q. c #EEEFF4",
"w. c #EFEFF4",
"e. c #EAF0F2",
"r. c #EAF1F2",
"t. c #EBF1F3",
"y. c #ECF1F3",
"u. c #EEF0F4",
"i. c #ECF2F4",
"p. c #EDF2F4",
"a. c #EDF3F4",
"s. c #EEF3F5",
"d. c #EFF3F5",
"f. c #EFF4F5",
"g. c #EFF4F6",
"h. c #F0F4F6",
"j. c #F0F5F6",
"k. c #F1F5F6",
"l. c #F1F5F7",
"z. c #F3F4F7",
"x. c #F2F6F7",
"c. c #F3F6F7",
"v. c #F3F6F8",
"b. c #F3F7F8",
"n. c #F4F5F8",
"m. c #F4F7F8",
"M. c #F4F7F9",
"N. c #F5F7F9",
"B. c #F4F8F9",
"V. c #F5F8F9",
"C. c #F6F8F9",
"Z. c #F6F9F9",
"A. c #F6F9FA",
"S. c #F7F9FA",
"D. c #F7FAFA",
"F. c #F8FAFA",
"G. c #F8FAFB",
"H. c #F9FAFB",
"J. c #F9FBFB",
"K. c #F9FBFC",
"L. c #FAFBFC",
"P. c #FAFCFC",
"I. c #FBFCFC",
"U. c #FBFCFD",
"Y. c #FBFDFD",
"T. c #FCFCFD",
"R. c #FCFDFD",
"E. c #FDFDFD",
"W. c #FCFDFE",
"Q. c #FDFDFE",
"!. c #FDFEFE",
"~. c #FEFEFE",
"^. c #FEFEFF",
"/. c #FEFFFF",
"(. c white",
"). c None",
/* pixels */
").).).).).).).).).e ).).).).).).).).).).).).).).",
"t +.} ' ) ^ W U P v ).).).).).).).).).).).).).).",
"; 7 M N K ~ ] { o.%.$.@.| ' ) Q R U * O ).).).).",
").j z.9.[ W I m M 0 h 6 f N J ~ ] { # % ).).).).",
").D (.Q.R.R.R.E.R.!.n.n.0._ E x k 8 + . ).).).).",
").D (.R.I.L.G.S.Z.V.b.B.m.Z.V.G.J.R.a ).).).).).",
").D /.U.L.G.S.C.m.c.l.h.d.a.p.i.y.I.p ).).).).).",
").D ^.P.J.D.C.m.x.k.f.a.y.r.e.8.6.P.i ).).).).).",
").D ~.K.G.A.M.x.k.s.p.t.8.1.,.>.:.K.u ).).).).).",
").D ~.H.S.S.A.V.C.B.V.V.m.c.x.k.j.R.2 ).).).).).",
").S (.U.U.P.K.G.S.C.m.v.x.j.f.s.a.U.2 ).).).).).",
").V /.R.I.L.G.S.C.m.c.k.g.s.p.t.t.I.2 ).).).).).",
").V /.U.P.J.F.A.M.c.k.f.p.t.e.5.1.L.2 ).).).).).",
").V /.U.L.G.S.V.b.l.f.p.t.8.<.>.-.J.2 ).).).).).",
").q ^.~.~.R.Y.G.A.v.f.t.6.,.;.*.&.G.2 ).).).).).",
", G +.3.+.$.9.W.R.T.I.P.A.m.p.e.=.D.2 ).).).).).",
").r H ` o.0.q.$.$. .X.4.N.J.G.S.S.A.2 ).).).).).",
").).).).9 d l A ( ..9.w.%.O.[ ..#.u.2 ).).).).).",
").).).).).).).c s 5 y B Z ! } 7.w.2.: o ).).).).",
").).).).).).).T 1 ).& / ).).= 4 g C - @ ).).).).",
").).).).).).z b ).).).3 Y ).).).).).).).).).).).",
").).).).).).L < ).).).).n w ).).).).).).).).).).",
").).).).).> F ).).).).).).$ ).).).).).).).).).).",
").).).).).X   ).).).).).).).).).).).).).).).).)."
};
