/* XPM */
static const char *presentation_16x16_xpm[] = {
/* columns rows colors chars-per-pixel */
"16 16 44 1 ",
"  c #585870",
". c #7F808A",
"X c #858594",
"o c #92869C",
"O c #8A8FA8",
"+ c #948AA0",
"@ c #9E97AF",
"# c #8C8DB2",
"$ c #A099B1",
"% c #A5A0B9",
"& c #A6A2BC",
"* c #ABAAC4",
"= c #ADACC6",
"- c #B0B0CB",
"; c #B1B1CC",
": c #A9BDD1",
"> c #CCCCDD",
", c #E1EAED",
"< c #E5EDEF",
"1 c #E9F0F2",
"2 c #EAF0F2",
"3 c #EDF2F4",
"4 c #EFF3F5",
"5 c #F0F4F6",
"6 c #F1F5F6",
"7 c #F2F6F7",
"8 c #F3F6F8",
"9 c #F4F7F8",
"0 c #F5F8F9",
"q c #F6F8F9",
"w c #F7F9FA",
"e c #F8FAFA",
"r c #F8FAFB",
"t c #F9FBFC",
"y c #FAFBFC",
"u c #FAFCFC",
"i c #FBFCFC",
"p c #FBFCFD",
"a c #FCFDFD",
"s c #FDFDFE",
"d c #FDFEFE",
"f c #FEFEFE",
"g c white",
"h c None",
/* pixels */
"hhhhhhhXhhhhhhhh",
".>>>>>>>>>>>>>.h",
" ############# h",
"h:gggggggggggOhh",
"h:gfdaiteq97gOhh",
"h:gfspye0864gOhh",
"h:gdaurq8532gOhh",
"h:gsptw9631<gOhh",
"h:gairq742<,gOhh",
"h:gggggggggggOhh",
".>>>>>>>>>>>>>.h",
" ############# h",
"hhhhhhhXhhhhhhhh",
"hhhhhh+Xohhhhhhh",
"hhh=&$hXh@%*hhhh",
"hhh;hhhhhhh-hhhh"
};
