/* XPM */
static const char *preview_48x48_xpm[] = {
/* columns rows colors chars-per-pixel */
"48 48 129 2 ",
"   c gray15",
".  c #353535",
"X  c gray23",
"o  c #454545",
"O  c gray30",
"+  c #5C5C5C",
"@  c #505E70",
"#  c #56616F",
"$  c #536376",
"%  c #53667C",
"&  c #596A7E",
"*  c #646464",
"=  c #5C6C81",
"-  c #5F7085",
";  c #616F81",
":  c #6E7986",
">  c #64758B",
",  c #67798E",
"<  c #6A7A8E",
"1  c #6B7C91",
"2  c #7E8286",
"3  c #728297",
"4  c #74869A",
"5  c #76899D",
"6  c #7A8A9F",
"7  c #7B8EA3",
"8  c #7C90A6",
"9  c #758EB0",
"0  c #7B94B6",
"q  c #7B95BB",
"w  c #7C96C1",
"e  c #878787",
"r  c #898989",
"t  c #979797",
"y  c #96989B",
"u  c #808FA1",
"i  c #8392A4",
"p  c #8396AB",
"a  c #8897A9",
"s  c #8598AD",
"d  c #8A9AAE",
"f  c #909DAD",
"g  c #8A9DB1",
"h  c #8FA2B5",
"j  c #8DA1B8",
"k  c #93A2B4",
"l  c #9AA6B5",
"z  c #9BA8B7",
"x  c #96A7BA",
"c  c #97A8BA",
"v  c #9AABBD",
"b  c #A6A6A6",
"n  c #ADADAD",
"m  c #B6B6B6",
"M  c gray",
"N  c #89A0C6",
"B  c #97AAC2",
"V  c #9DAEC1",
"C  c #91A6C9",
"Z  c #96AAC8",
"A  c #9FB0C3",
"S  c #98AED4",
"D  c #9DB1D4",
"F  c #A3B4C6",
"G  c #AAB5C1",
"H  c #A3B5CB",
"J  c #A5B8CC",
"K  c #ABBBCC",
"L  c #B1BBC7",
"P  c #B2BCC8",
"I  c #ACBED0",
"U  c #A2B6D8",
"Y  c #A7B8D9",
"T  c #ACBDDB",
"R  c #A2BAE4",
"E  c #BBC1C8",
"W  c #B3C3D4",
"Q  c #B9C4D0",
"!  c #B3C5DB",
"~  c #BFCDDB",
"^  c #B5C7E5",
"/  c #B6C8E2",
"(  c #BBCBE4",
")  c #BFCFEA",
"_  c #BBCFF3",
"`  c #C5C5C5",
"'  c gray80",
"]  c #C7CED6",
"[  c #C3CEDC",
"{  c #C6D2DE",
"}  c #CCD2D9",
"|  c #D4D4D4",
" . c gray87",
".. c #C1CFE4",
"X. c #C0CFEB",
"o. c #C4D2E5",
"O. c #C8D4E2",
"+. c #CCD8E7",
"@. c #C4D3ED",
"#. c #C9D6EE",
"$. c #CCDAEA",
"%. c #D3DBE4",
"&. c #D3DCEA",
"*. c #D8DFEA",
"=. c #C5D6F7",
"-. c #CCD9F3",
";. c #CDDEFE",
":. c #D3DEF3",
">. c #DCE1E7",
",. c #DCE2ED",
"<. c #D6E1F5",
"1. c #D9E2F2",
"2. c #D5E3FC",
"3. c #DAE6FE",
"4. c #DEE9FE",
"5. c gray89",
"6. c #E1E6EB",
"7. c #E7EBEF",
"8. c #EAEAEB",
"9. c #E6EBF0",
"0. c #E3ECFE",
"q. c #E9EFFC",
"w. c #EDF0F3",
"e. c #ECF2FD",
"r. c #F5F6F6",
"t. c #F2F6FB",
"y. c #F6F9FD",
"u. c #FEFEFE",
"i. c None",
/* pixels */
"i.i.i.i.m m m m m m m m m m m m m m m m m m m m m m i.i.i.i.i.i.i.i.i.i.i.i.i.i.i.i.i.i.i.i.i.i.",
"i.i.i.i.m u.u.u.u.u.u.u.u.u.u.u.u.u.u.u.u.u.u.u.8.' n i.i.i.i.i.i.i.i.i.i.i.i.i.i.i.i.i.i.i.i.i.",
"i.i.i.i.m u.u.u.u.u.u.u.u.u.u.u.u.u.u.u.u.u.u.u.r.| ` n i.i.i.i.i.i.i.i.i.i.i.i.i.i.i.i.i.i.i.i.",
"i.i.i.i.m u.u.u.u.u.u.u.u.u.u.u.u.u.u.u.u.u.u.u.u.| 8.` n i.i.i.i.i.i.i.i.i.i.i.i.i.i.i.i.i.i.i.",
"i.i.i.i.m u.u.u.u.u.u.u.u.u.u.u.u.u.u.u.u.u.u.u.u. .u.8.` b i.i.i.i.i.i.i.i.i.i.i.i.i.i.i.i.i.i.",
"i.i.i.i.m u.u.u.u.u.u.u.u.u.u.u.u.u.u.u.u.u.u.u.u.8.u.u.8.' b i.i.i.i.i.i.i.i.i.i.i.i.i.i.i.i.i.",
"i.i.i.i.m u.u.u.u.u.u.u.u.u.u.u.u.u.u.u.u.u.u.u.u.8.u.u.u.8.` b i.i.i.i.i.i.i.i.i.i.i.i.i.i.i.i.",
"i.i.i.i.m u.u.u.u.u.u.u.u.u.u.u.u.u.u.u.u.u.u.u.u.8.u.u.u.u.8.M b i.i.i.i.i.i.i.i.i.i.i.i.i.i.i.",
"i.i.i.i.m u.u.u.u.u.u.u.u.u.u.u.u.u.u.u.u.u.u.u.u.u.8. .| M m ' M b i.i.i.i.i.i.i.i.i.i.i.i.i.i.",
"i.i.i.i.m u.u.u.u.u.u.u.u.u.u.u.u.u.u.u.u.u.u.u.u.u.u.u.u.u.u.r.8.m i.i.i.i.i.i.i.i.i.i.i.i.i.i.",
"i.i.i.i.m u.u.u.u.u.u.u.u.u.u.u.u.u.u.u.u.u.u.u.u.u.u.u.u.u.u.u.u.m i.i.i.i.i.i.i.i.i.i.i.i.i.i.",
"i.i.i.i.m u.u.u.u.u.u.u.u.u.u.u.u.u.u.u.u.u.u.u.u.u.u.u.u.u.u.u.u.m i.i.i.i.i.i.i.i.i.i.i.i.i.i.",
"i.i.i.i.m u.u.u.u.[ [ ~ ~ ~ [ ~ [ ~ ~ [ [ ~ ~ ~ [ ~ ~ [ [ u.u.u.u.b i.i.i.i.i.i.i.i.i.i.i.i.i.i.",
"i.i.i.i.m u.u.u.u.u.u.u.u.u.u.u.u.u.u.u.u.u.u.u.u.u.u.u.u.u.u.u.u.r i.i.i.i.i.i.i.i.i.i.i.i.i.i.",
"i.i.i.i.m u.u.u.u.u.u.u.u.u.u.u.u.u.u.u.u.u.r.6.%.%.6.7.u.u.u.u.u.r i.i.i.i.i.i.i.i.i.i.i.i.i.i.",
"i.i.i.i.m u.u.u.u.u.u.u.u.u.u.u.u.u.u.y.%.W K W W K v g a G 6.u.u.e i.i.i.i.i.i.i.i.i.i.i.i.i.i.",
"i.i.i.i.m u.u.u.u.~ ~ [ ~ ~ ~ ~ [ ~ W ~ +.$.+.! W W D W v g 3 k r.e i.i.i.i.i.i.i.i.i.i.i.i.i.i.",
"i.i.i.i.m u.u.u.u.u.u.u.u.u.u.u.u.{ +.$.) / / ) _ ( ( ! A j s 3 , 2 i.i.i.i.i.i.i.i.i.i.i.i.i.i.",
"i.i.i.i.m u.u.u.u.u.u.u.u.u.u.u.{ $.+./ ( #.-.-.-.#.#.) ^ ! 0 8 1 = i.i.i.i.i.i.i.i.i.i.i.i.i.i.",
"i.i.i.i.m u.u.u.u.u.u.u.u.u.u.O.$.o.( =.#.#.#.$.#.#.#._ _ ( ^ q 8 , & i.i.i.i.i.i.i.i.i.i.i.i.i.",
"i.i.i.i.m u.u.u.u.[ ~ ~ ~ ~ ~ ( O.@.<.<.2.2.2.2.2.2.2.2.2.4.2.R q 7 - $ i.i.i.i.i.i.i.i.i.i.i.i.",
"i.i.i.i.m u.u.u.u.u.u.u.u.u.~ { ) 0.0.0.0.0.0.0.0.0.0.0.4.4.4.=.R 9 4 = i.i.i.i.i.i.i.i.i.i.i.i.",
"i.i.i.i.m u.u.u.u.u.u.u.u.,.~ ~ 1.0.4.3.4.4.0.q.0.0.0.4.0.4.0.2._ w 8 = @ i.i.i.i.i.i.i.i.i.i.i.",
"i.i.i.i.m u.u.u.u.u.u.u.u.{ W ..<.<.<.<.-.) _ @.) :.<.<.<.:.0.3.;.C 9 1 & i.i.i.i.i.i.i.i.i.i.i.",
"i.i.i.i.m u.u.u.u.~ ~ ~ ~ K I ( o.o.o.o.o.( ^ ! W D ! ^ ( ) 0.4.;.D q 4 & i.i.i.i.i.i.i.i.i.i.i.",
"i.i.i.i.m u.u.u.u.u.u.u.u.v F $.q.e.e.e.e.e.e.e.q.4.3.3.3.4.0.4.;.Y N 7 & i.i.i.i.i.i.i.i.i.i.i.",
"i.i.i.i.m u.u.u.u.r.u.u.u.c v &.e.e.e.e.e.t.e.e.e.e.q.0.3.2.3.3.2.T S 7 = i.i.i.i.i.i.i.i.i.i.i.",
"i.i.i.i.m u.u.u.u.u.u.u.u.d h +.e.e.e.t.t.t.t.e.e.e.e.e.q.4.3.2.2.T D 7 = i.i.i.i.i.i.i.i.i.i.i.",
"i.i.i.i.m u.u.u.u.~ [ [ ~ p p [ 1.,.,.1.,.,.1.,.1.1.1.<.:.<.4.2.2.T C 8 > i.i.i.i.i.i.i.i.i.i.i.",
"i.i.i.i.m u.u.u.r.u.u.r.u.k s K &.&.&.&.$.,.,.$.+.$.+.-.#.$.0.2.3.T Z 7 1 i.i.i.i.i.i.i.i.i.i.i.",
"i.i.i.i.m u.r.u.u.u.u.u.u.L p h t.y.y.y.y.u.y.y.y.t.e.e.e.e.3.3.3.T B 4 ; i.i.i.i.i.i.i.i.i.i.i.",
"i.i.i.i.m u.u.r.r.u.r.r.u.7.7 p [ u.y.u.y.u.y.y.y.t.y.e.e.0.3.3.3.T k 3 # i.i.i.i.i.i.i.i.i.i.i.",
"i.i.i.i.m u.u.u.u.~ ] ~ ~ ~ s p g 9.t.t.r.t.w.e.w.w.q.q.0.0.3.3.;.H i 4 i.i.i.i.i.i.i.i.i.i.i.i.",
"i.i.i.i.m u.r.r.r.r.r.u.r.u.8.6 p c w.r.r.y.t.t.e.e.q.9.<.<.4.<.W k 7 i.i.i.i.i.i.i.i.i.i.i.i.i.",
"i.i.i.i.m u.u.r.u.u.r.r.r.u.u.] 5 p x &.,.,.,.>.,.&.+.! ! ( :.! c f 4 i.i.i.i.i.i.i.i.i.i.i.i.i.",
"i.i.i.i.m u.r.u.r.r.r.u.r.r.r.r.{ 5 8 s E w.u.u.y.t.q.1.-.! W v , u [ 5 o i.i.i.i.i.i.i.i.i.i.i.",
"i.i.i.i.m u.r.r.u.r.r.r.r.r.r.u.r.} 4 7 p g G [ [ [ o.W K J g a i % u t O + i.i.i.i.i.i.i.i.i.i.",
"i.i.i.i.m u.r.u.r.r.r.u.u.r.u.r.r.u.r.m 4 7 g c B A A c d a L w.u.: E t X o + i.i.i.i.i.i.i.i.i.",
"i.i.i.i.m u.u.u.u.u.u.u.u.u.u.u.u.u.u.u.y.} G k l l c P %.r.u.u.u.b b b * X o + i.i.i.i.i.i.i.i.",
"i.i.i.i.b r r e e e e e e e e e e e r e e e e e e e e e e e e e e e + t b * X o + i.i.i.i.i.i.i.",
"i.i.i.i.i.i.i.i.i.i.i.i.i.i.i.i.i.i.i.i.i.i.i.i.i.i.i.i.i.i.i.i.i.i.i.+ t b * X o + i.i.i.i.i.i.",
"i.i.i.i.i.i.i.i.i.i.i.i.i.i.i.i.i.i.i.i.i.i.i.i.i.i.i.i.i.i.i.i.i.i.i.i.* t b * X o + i.i.i.i.i.",
"i.i.i.i.i.i.i.i.i.i.i.i.i.i.i.i.i.i.i.i.i.i.i.i.i.i.i.i.i.i.i.i.i.i.i.i.i.+ t b * X o O i.i.i.i.",
"i.i.i.i.i.i.i.i.i.i.i.i.i.i.i.i.i.i.i.i.i.i.i.i.i.i.i.i.i.i.i.i.i.i.i.i.i.i.+ t b * X . . i.i.i.",
"i.i.i.i.i.i.i.i.i.i.i.i.i.i.i.i.i.i.i.i.i.i.i.i.i.i.i.i.i.i.i.i.i.i.i.i.i.i.i.+ t b O   i.i.i.i.",
"i.i.i.i.i.i.i.i.i.i.i.i.i.i.i.i.i.i.i.i.i.i.i.i.i.i.i.i.i.i.i.i.i.i.i.i.i.i.i.i.o * + i.i.i.i.i.",
"i.i.i.i.i.i.i.i.i.i.i.i.i.i.i.i.i.i.i.i.i.i.i.i.i.i.i.i.i.i.i.i.i.i.i.i.i.i.i.i.i.i.i.i.i.i.i.i.",
"i.i.i.i.i.i.i.i.i.i.i.i.i.i.i.i.i.i.i.i.i.i.i.i.i.i.i.i.i.i.i.i.i.i.i.i.i.i.i.i.i.i.i.i.i.i.i.i."
};
