/* XPM */
static const char *previous_48x48_xpm[] = {
/* columns rows colors chars-per-pixel */
"48 48 204 2 ",
"   c #005F00",
".  c #006700",
"X  c #006E0E",
"o  c #00610D",
"O  c #007A00",
"+  c #00740F",
"@  c #007508",
"#  c #106D1C",
"$  c #067214",
"%  c #017C11",
"&  c #0D7C19",
"*  c #0A7A17",
"=  c #117E1D",
"-  c #0B6716",
";  c #127D20",
":  c #197B25",
">  c #367D3F",
",  c #008400",
"<  c #018B01",
"1  c #0C860C",
"2  c #019202",
"3  c #009900",
"4  c #0B940B",
"5  c #0B9C0C",
"6  c #008311",
"7  c #018C13",
"8  c #0B881B",
"9  c #138A1A",
"0  c #039215",
"q  c #079518",
"w  c #0A951A",
"e  c #0D991D",
"r  c #139315",
"t  c #109A1F",
"y  c #149B17",
"u  c #11A111",
"i  c #158421",
"p  c #1A8524",
"a  c #188B24",
"s  c #139D22",
"d  c #189024",
"f  c #238B2B",
"g  c #288E2F",
"h  c #29942B",
"j  c #23972A",
"k  c #2A8D32",
"l  c #258732",
"z  c #318C3C",
"x  c #30843A",
"c  c #2D9133",
"v  c #2C9C33",
"b  c #239932",
"n  c #329436",
"m  c #369E3C",
"M  c #35963B",
"N  c #17A025",
"B  c #19A127",
"V  c #1DA42A",
"C  c #22A52C",
"Z  c #23A82F",
"A  c #28A929",
"S  c #2CA434",
"D  c #25A930",
"F  c #2BAD34",
"G  c #2AA638",
"H  c #33AC3C",
"J  c #36A63B",
"K  c #2FB038",
"L  c #33B23B",
"P  c #39B53D",
"I  c #34B134",
"U  c #3F8F49",
"Y  c #3B9545",
"T  c #3C9944",
"R  c #3BAB43",
"E  c #3BAB49",
"W  c #36AB43",
"Q  c #37B041",
"!  c #3BB442",
"~  c #3DB944",
"^  c #3EB14A",
"/  c #459B4E",
"(  c #409748",
")  c #4B8853",
"_  c #558E5C",
"`  c #4A9C54",
"'  c #4F9D59",
"]  c #53935B",
"[  c #549C5D",
"{  c #468B4F",
"}  c #45A149",
"|  c #45AA48",
" . c #41BB46",
".. c #45BD49",
"X. c #49BC4D",
"o. c #46B34B",
"O. c #4BA255",
"+. c #4EAC5A",
"@. c #4AA855",
"#. c #52A554",
"$. c #52AE5E",
"%. c #5AA95E",
"&. c #54A559",
"*. c #4CB456",
"=. c #4DB25A",
"-. c #47B651",
";. c #51B25D",
":. c #56B85A",
">. c #5C9C64",
",. c #609667",
"<. c #5DA366",
"1. c #56AA61",
"2. c #5BA965",
"3. c #5FA768",
"4. c #5FA868",
"5. c #55B561",
"6. c #59BA64",
"7. c #62AF65",
"8. c #64A76D",
"9. c #63A86B",
"0. c #64B76B",
"q. c #69A771",
"w. c #6CA973",
"e. c #70AA77",
"r. c #73AB7A",
"t. c #75A87C",
"y. c #6EB274",
"u. c #68BA73",
"i. c #75B57B",
"p. c #77B57C",
"a. c #4AC14D",
"s. c #52C24F",
"d. c #4EC350",
"f. c #52C653",
"g. c #55C856",
"h. c #5BCC5B",
"j. c #56C45A",
"k. c #60CF5F",
"l. c #5FC661",
"z. c #65C16D",
"x. c #69C96C",
"c. c #64D262",
"v. c #69D566",
"b. c #6CD669",
"n. c #6ED96A",
"m. c #72DB6D",
"M. c #70D26B",
"N. c #6AC472",
"B. c #6FC577",
"V. c #75C87B",
"C. c #76DD71",
"Z. c #79DF72",
"A. c #78D476",
"S. c #7CE275",
"D. c #82E57A",
"F. c #89EA7F",
"G. c #87E97E",
"H. c #7BB182",
"J. c #7DB981",
"K. c #7CC384",
"L. c #7DD181",
"P. c #82BA86",
"I. c #82B588",
"U. c #85BA8B",
"Y. c #89B88F",
"T. c #81B387",
"R. c #8DBC93",
"E. c #8EB493",
"W. c #95BE9A",
"Q. c #90BC96",
"!. c #86C98E",
"~. c #8BDC8B",
"^. c #83D784",
"/. c #8BC392",
"(. c #95C29B",
"). c #95C39B",
"_. c #8DEC82",
"`. c #8BE684",
"'. c #92ED88",
"]. c #97F38A",
"[. c #99E695",
"{. c #96E391",
"}. c #9CF191",
"|. c #A7F69B",
" X c #9DC5A2",
".X c #A1C6A6",
"XX c #A3CEA9",
"oX c #A9D1AE",
"OX c #B7D9BC",
"+X c #A7ECA2",
"@X c #B4F5AB",
"#X c #BDFAB3",
"$X c #C0FDB4",
"%X c #C4DFC7",
"&X c #CFE4D2",
"*X c #DDE9DE",
"=X c #D1E6D5",
"-X c #DCECE3",
";X c #EEF5F0",
":X c #F0F7F1",
">X c #F2F7FC",
",X c #F5F9FC",
"<X c #FEFFFF",
"1X c None",
/* pixels */
"1X1X1X1X1X1X1X1X1X1X1X1X1X1X1X1X1X1X, , , , < , , < , , 1X1X1X1X1X1X1X1X1X1X1X1X1X1X1X1X1X1X1X1X",
"1X1X1X1X1X1X1X1X1X1X1X1X1X1X1X, 9 } 7.P.)..X.X.X). Xi.7.| r < 1X1X1X1X1X1X1X1X1X1X1X1X1X1X1X1X1X",
"1X1X1X1X1X1X1X1X1X1X1X1X1X1 } P..X XW.Y.I.T.p.t.H.T.I.Q.). Xp.J 4 1X1X1X1X1X1X1X1X1X1X1X1X1X1X1X",
"1X1X1X1X1X1X1X1X1X1X1X1 #.(..XW.I.r.r.t.e.e.e.e.w.w.w.q.q.t.Y.(.).| < 1X1X1X1X1X1X1X1X1X1X1X1X1X",
"1X1X1X1X1X1X1X1X1X, h R..XR.p.r.e.e.e.e.w.e.w.w.w.q.q.8.q.8.8.w.H.).J.C , 1X1X1X1X1X1X1X1X1X1X1X",
"1X1X1X1X1X1X1X1X, %..XW.H.r.t.e.e.e.e.w.w.q.w.q.q.8.8.8.8.8.8.8.9.q.R.).| < 1X1X1X1X1X1X1X1X1X1X",
"1X1X1X1X1X1X1X1 y..XY.r.t.r.e.e.e.w.w.w.q.q.q.8.8.8.9.8.9.9.9.9.4.3.4.i.).%.4 1X1X1X1X1X1X1X1X1X",
"1X1X1X1X1X1X1 U..XI.t.r.r.e.e.e.w.w.w.q.q.8.8.8.8.8.9.9.3.3.3.2.4.2.4.4.y./.i.4 1X1X1X1X1X1X1X1X",
"1X1X1X1X1XO y..XT.r.r.r.e.e.w.w.w.q.q.8.8.8.8.8.8.<.3.2.3.2.2.2.2.2.2.2.2.9./.;.< 1X1X1X1X1X1X1X",
"1X1X1X1X, %..XI.r.r.r.e.e.w.w.w.q.q.8.8.8.9.>._ _ [ <.3.2.2.2.2.1.1.1.1.1.2.y./.| , 1X1X1X1X1X1X",
"1X1X1X1Xh .XR.r.r.r.e.e.w.w.q.q.q.8.8.8.9.] ) t.E.>.) [ 2.1.1.1.1.1.1.1.1.1.1.u./.C 1X1X1X1X1X1X",
"1X1X1X1 R.(.r.r.r.e.e.w.w.q.q.q.8.8.9.8.] _ *X<X<X<XW.) 1.1.1.1.1.$.$.1.1.;.$.$.J.V.2 1X1X1X1X1X",
"1X1X1X#..Xp.r.r.e.e.w.w.q.q.8.8.8.9.2.] _ -X<X<X<X<X<X>.` 1.;.$.;.$.$.;.$.=.+.+.5.!.| 1X1X1X1X1X",
"1X1X1 ).R.t.r.e.e.w.w.q.q.9.8.9.9.9.] ] *X<X<X<X<X<X<Xe.` ;.;.;.=.=.=.=.=.=.=.=.=.u.K.4 1X1X1X1X",
"1X1X/ .Xt.r.r.e.w.w.q.q.9.8.9.9.9.] _ -X<X<X<X<X<X<X<X8.` =.=.=.=.=.=.=.=.=.=.=.+.5.!.I @ 1X1X1X",
"1X, P.Q.r.r.e.w.w.q.q.q.q.9.9.7.] _ *X<X<X<X<X<X<X<X&XU +.=.=.E E E E E E E *.=.*.*.B.N.< 1X1X1X",
"1X9 .XH.e.e.w.w.q.q.8.8.9.9.7.] _ *X<X<X<X<X<X<X<X=Xl i q 0 0 q 0 q w q q w q w q N G N.5 1X1X1X",
"1X}  Xr.e.e.w.w.q.q.8.9.3.3.] _ *X<X<X<X<X<X<X<X&X= 6 0 q q w w w w e e e e e e e e e 5.A 1X1X1X",
", 9.W.e.e.y.q.y.q.8.9.9.3.] _ *X<X<X<X<X<X<X<X&X; % 8 0 8 w w w w d t s N e e e t e e -.J O 1X1X",
", P.Y.e.e.w.q.q.q.8.9.9.] _ *X<X<X<X<X<X<X<X=X; $ % * * * & & & = & = 9 N N N N N s t W o.< 1X1X",
"<  XI.e.w.w.q.q.8.9.9.] _ *X<X<X<X<X<X<X<X<X<X<X<X<X<X<X<X<X<X<X<X<XOXf d V B V B N N Q 6.< 1X1X",
",  XH.w.w.q.q.q.8.9.[ > &X<X<X<X<X<X<X<X<X<X<X<X<X<X<X<X<X<X<X<X<X<X<X%Xp C V Z V V B G 6.2 1X1X",
"<  XH.w.w.q.q.8.8.` - w.<X<X<X<X<X<X<X<X<X<X<X<X<X<X<X<X<X<X<X<X<X<X<X<XY b D D D D Z Q z.3 1X1X",
",  XH.w.q.q.8.3.z $   Q.<X<X<X<X<X<X<X<X<X<X<X<X<X<X<X<X<X<X<X<X<X<X,X,XO.C F F F F D Q N.3 1X1X",
"<  XH.q.q.8.9.= + + X # ;X<X<X<X<X<X<X<X<X<X<X<X<X<X<X<X<X<X<X<X<X,X<X-Xh H L L K K H ! N.2 1X1X",
", (.J.w.q.[ $ $ + % % X x ;X<X<X<X<X<X<X<X<X<X<X<X<X<X<X<X<X<X,X,X,X&X&.m ! ~ P Q P P -.B.< 1X1X",
", J.U.w.[ $ + + + % % % X z ;X<X<X<X<X<X<X<XXXi p p p f f k k c c m n W !  . . .~ ~ ! j.j., 1X1X",
", 7.R.[ $ X X + + % , 6 6 + z ;X<X<X<X<X<X<X<XoXp f S F H J P Q | ! o.a.a.a.a...a... .x.X.O 1X1X",
"1X} R.$ X X + + % % % 6 7 7 % z :X<X<X<X<X<X<X<XoXf v L P ~  ...d.d.d.d.d.d.d.d.a.a.a.L.I 1X1X1X",
"1Xr >.: X + + + % % 6 6 7 0 0 % M :X<X<X<X<X<X,X,XoXh J ~ ..a.a.d.f.f.g.h.h.h.g.f.f.l.L.u 1X1X1X",
"1X< ( z X + + + % % 6 7 7 7 0 0 % Y :X<X<X<X<X<X,X<XOXn  .a.d.f.g.h.h.h.k.k.h.k.h.g.A.x., 1X1X1X",
"1X1Xf ' $ + + % % 6 6 7 7 7 8 q w 8 Y ;X<X<X,X,X,X,X>X%.| d.f.h.h.k.v.v.v.v.v.c.c.c.{.I   1X1X1X",
"1X1X< ` l $ $ % % 6 6 7 7 0 0 q e e 8 Y ;X,X,X,X,X,X>X0.o.g.h.k.c.v.v.n.m.M.n.v.v.D.~.4 1X1X1X1X",
"1X1X1Xh ' & $ % % 6 6 7 7 0 0 q e t s a / ;X,X>X,X,X>X&.o.g.k.c.v.n.m.Z.C.D.Z.Z.A.[.X.. 1X1X1X1X",
"1X1X1X4 / Y $ % % 6 6 7 0 0 q q e s N V p } -X>X,X,X XR f.h.c.v.n.Z.S.D.D.D.D.D.[.~.2 1X1X1X1X1X",
"1X1X1X1Xr O.l % 6 6 7 7 0 0 0 e e t N V Z f M H.).7.T -.g.c.c.n.m.S.D.G.F.F.G.'.+XA 1X1X1X1X1X1X",
"1X1X1X1X, v O.i 6 6 7 7 0 0 0 e e N N V D F S v m J X.g.h.c.v.m.S.D.F.'.].'.}.@Xf.O 1X1X1X1X1X1X",
"1X1X1X1X1X< m O.8 6 7 7 0 0 0 e e s B V Z F K !  ...a.f.h.c.n.Z.D.D.F.].].|.@Xm.2 1X1X1X1X1X1X1X",
"1X1X1X1X1X1X< } @.9 7 0 0 0 q e t N B V D F K P ~ ..a.g.h.c.n.m.S.G._.].|.$X[.4 1X1X1X1X1X1X1X1X",
"1X1X1X1X1X1X1X4 J $.b 7 0 0 0 e e N B V D F L Q ~ ..f.g.k.c.n.m.S.G.'.|.$XZ.4 1X1X1X1X1X1X1X1X1X",
"1X1X1X1X1X1X1X1X< v +.E e 0 q w e s s V D F K P ~ ..a.g.h.c.b.M.S.`.|.@Xh.2 1X1X1X1X1X1X1X1X1X1X",
"1X1X1X1X1X1X1X1X1X, y | ;.G e w e s V V C F L Q ~ ..a.f.h.c.v.A.`.+X[.A O 1X1X1X1X1X1X1X1X1X1X1X",
"1X1X1X1X1X1X1X1X1X1X1X4 Z *.5.E Z s N V C D K L P  .X.f.g.b.D.[.{.f.2 1X1X1X1X1X1X1X1X1X1X1X1X1X",
"1X1X1X1X1X1X1X1X1X1X1X1X1X4 C ^ 6.6.*.^ ^ Q !  .X.j.x.V.^.~.A.P 4 . 1X1X1X1X1X1X1X1X1X1X1X1X1X1X",
"1X1X1X1X1X1X1X1X1X1X1X1X1X1X1X< 5 A R *.x.N.N.B.V.A.l.:.P u , . 1X1X1X1X1X1X1X1X1X1X1X1X1X1X1X1X",
"1X1X1X1X1X1X1X1X1X1X1X1X1X1X1X1X1X1XO < < 2 3 3 2 < , O 1X1X1X1X1X1X1X1X1X1X1X1X1X1X1X1X1X1X1X1X",
"1X1X1X1X1X1X1X1X1X1X1X1X1X1X1X1X1X1X1X1X1X1X1X1X1X1X1X1X1X1X1X1X1X1X1X1X1X1X1X1X1X1X1X1X1X1X1X1X",
"1X1X1X1X1X1X1X1X1X1X1X1X1X1X1X1X1X1X1X1X1X1X1X1X1X1X1X1X1X1X1X1X1X1X1X1X1X1X1X1X1X1X1X1X1X1X1X1X"
};
