/* XPM */
static const char *previous_32x32_xpm[] = {
/* columns rows colors chars-per-pixel */
"32 32 167 2 ",
"   c #005E00",
".  c #006E0E",
"X  c #007700",
"o  c #007E00",
"O  c #00740F",
"+  c #00780F",
"@  c #017C11",
"#  c #0F7F1D",
"$  c #057313",
"%  c #008400",
"&  c #008900",
"*  c #0B8E0C",
"=  c #009200",
"-  c #0A930B",
";  c #0A9A0B",
":  c #018312",
">  c #098117",
",  c #008B13",
"<  c #0D841A",
"1  c #168B16",
"2  c #10891D",
"3  c #039315",
"4  c #079619",
"5  c #09971B",
"6  c #0B991C",
"7  c #1E941F",
"8  c #109B1F",
"9  c #14A115",
"0  c #188A23",
"q  c #0F9420",
"w  c #139D22",
"e  c #1E9724",
"r  c #20802C",
"t  c #25942C",
"y  c #288834",
"u  c #268532",
"i  c #318D3D",
"p  c #259030",
"a  c #299630",
"s  c #2C9B33",
"d  c #319738",
"f  c #349D39",
"g  c #3D9C3F",
"h  c #17A026",
"j  c #1AA227",
"k  c #1BA329",
"l  c #23A52D",
"z  c #24A82F",
"x  c #2BA536",
"c  c #25A930",
"v  c #2CAD36",
"b  c #29A439",
"n  c #2FAF38",
"m  c #21A131",
"M  c #32A334",
"N  c #39A23D",
"B  c #33AA39",
"V  c #35B33C",
"C  c #3AB53E",
"Z  c #3FB83D",
"A  c #3A8E45",
"S  c #389043",
"D  c #3D9F42",
"F  c #32A041",
"G  c #3DAE48",
"H  c #36A945",
"J  c #3AB540",
"K  c #3EB944",
"L  c #419B4C",
"P  c #518E59",
"I  c #4B9C54",
"U  c #53935B",
"Y  c #539D5D",
"T  c #44A24A",
"R  c #42A945",
"E  c #42BB45",
"W  c #46B24B",
"Q  c #44BD48",
"!  c #49B74B",
"~  c #4AAE56",
"^  c #51AE55",
"/  c #54A55C",
"(  c #53AD5E",
")  c #5BA95E",
"_  c #4DB25B",
"`  c #51B25C",
"'  c #53B95D",
"]  c #51BE52",
"[  c #5C9963",
"{  c #609C68",
"}  c #6A9E70",
"|  c #58A061",
" . c #56AB61",
".. c #5CAA64",
"X. c #5FA968",
"o. c #5ABD63",
"O. c #5EB66A",
"+. c #64A76D",
"@. c #64A96C",
"#. c #68A770",
"$. c #67A870",
"%. c #6CA973",
"&. c #70AA77",
"*. c #73AB7A",
"=. c #78AE7F",
"-. c #6BBC75",
";. c #73B677",
":. c #78B47D",
">. c #4AC14D",
",. c #4EC451",
"<. c #50C552",
"1. c #56C957",
"2. c #5BC65C",
"3. c #5ACB5A",
"4. c #60CF5F",
"5. c #5DC260",
"6. c #66CC64",
"7. c #65C46B",
"8. c #65D263",
"9. c #6AD566",
"0. c #74DC6E",
"q. c #6EC972",
"w. c #78CF7A",
"e. c #71CB76",
"r. c #76DD70",
"t. c #73D174",
"y. c #7EE276",
"u. c #80D97F",
"i. c #84E67B",
"p. c #89E97F",
"a. c #7DB284",
"s. c #81B487",
"d. c #84BC8B",
"f. c #80BB85",
"g. c #8BBC91",
"h. c #91BD96",
"j. c #92BE98",
"k. c #80C387",
"l. c #80C88A",
"z. c #84C18C",
"x. c #87DD85",
"c. c #91C096",
"v. c #96C29B",
"b. c #99C29F",
"n. c #90EE85",
"m. c #93EC8A",
"M. c #97F08C",
"N. c #97E394",
"B. c #9EF690",
"V. c #A4EC9D",
"C. c #9FC6A4",
"Z. c #9ECAA3",
"A. c #A1CCA7",
"S. c #A6C9AA",
"D. c #A7D0AC",
"F. c #BBD2BE",
"G. c #AAF0A3",
"H. c #B8FAAD",
"J. c #C4DFC7",
"K. c #C9E3CD",
"L. c #D0E2D2",
"P. c #DFEEE5",
"I. c #E8F0E9",
"U. c #EFF6F0",
"Y. c #F1F7F2",
"T. c #FFFFFF",
"R. c None",
/* pixels */
"R.R.R.R.R.R.R.R.R.R.R.% % % 7 7 & & % R.R.R.R.R.R.R.R.R.R.R.R.R.",
"R.R.R.R.R.R.R.R.o 1 T :.v.b.j.h.b.c.;.R - & R.R.R.R.R.R.R.R.R.R.",
"R.R.R.R.R.R.R.1 @.A.h.s.*.&.&.%.%.#.=.d.v...- R.R.R.R.R.R.R.R.R.",
"R.R.R.R.R.o D v.g.=.*.&.%.%.%.%.#.#.#.+.$.a.g.M & R.R.R.R.R.R.R.",
"R.R.R.R.% ) b.a.*.&.&.%.%.%.#.+.+.+.@.X.X.X.$.g.^ & R.R.R.R.R.R.",
"R.R.R.o ) b.a.*.&.&.%.%.#.+.+.+.@.@.X.X.X.| ..X.d.^ % R.R.R.R.R.",
"R.R.R.L j.a.&.&.&.%.#.+.+.+.[ P P Y X..... . . ...z.x R.R.R.R.R.",
"R.R.1 j.s.*.&.%.%.#.#.+.+.U S.Y.I.} /  . . . . .( O.k.; R.R.R.R.",
"R.% @.g.*.&.&.%.%.+.+.@.U F.T.T.T.L.I ( ( ( ` ( ( _ -.` o R.R.R.",
"R.1 A.=.&.&.%.#.+.@.@.U F.T.T.T.T.L.T _ _ _ _ _ _ _ ' l.; R.R.R.",
"R.L h.&.%.%.%.+.@.X.U F.T.T.T.T.U.Y F b b b b b b b H O.B R.R.R.",
"% :.s.&.%.%.#.+.@.U F.T.T.T.T.U.i , 4 4 4 6 6 6 6 6 6 m K o R.R.",
"% S.&.%.%.%.+.+.U F.T.T.T.T.I.S $ @ < < < < 2 w w w w 8 ` & R.R.",
"% b.&.%.%.+.+.P F.T.T.T.T.T.T.T.T.T.T.T.T.T.J.t k j j j o.& R.R.",
"7 j.&.%.+.@.I { T.T.T.T.T.T.T.T.T.T.T.T.T.T.T.f.l z z k ' 9 R.R.",
"7 h.%.#.#.S O { T.T.T.T.T.T.T.T.T.T.T.T.T.T.T.d.x n v v ' 9 R.R.",
"& j.&.&.r O + . A.T.T.T.T.T.T.T.T.T.T.T.T.T.K.F E C V V 7.= R.R.",
"& b.%.# O + + : O Z.T.T.T.T.U.D 0 t a s s f N E Q Q E J q.& R.R.",
"& ;.A . O + : : : @ A.T.T.T.T.U.I s J E >.>.,.<.<.<.>.2.5.o R.R.",
"R.t i . O + + : , 3 : Z.T.T.T.T.Y./ K Q ,.1.3.3.3.3.1.t.C R.R.R.",
"R.* I $ + + : : 3 3 4 < D.T.T.T.T.K.R <.3.4.8.8.9.8.9.x.; R.R.R.",
"R.& d y + + : , 3 3 6 6 2 D.T.T.T.K.W 3.8.9.0.0.0.0.x.2.X R.R.R.",
"R.R.* I # + : , 3 3 6 8 j e Z.T.P...<.4.9.0.y.i.i.i.N.; R.R.R.R.",
"R.R.R.t L : : , 3 4 6 w j z a s f ! 3.8.0.y.p.n.m.G.Z   R.R.R.R.",
"R.R.R.& s T : , 3 4 6 w k c v J E <.3.9.r.i.n.B.H.6.% R.R.R.R.R.",
"R.R.R.R.% s T q 3 4 6 w k c n J >.<.3.9.r.i.M.H.9.% R.R.R.R.R.R.",
"R.R.R.R.R.% k ~ b 6 6 w k c v J E ,.3.9.r.m.V.E % R.R.R.R.R.R.R.",
"R.R.R.R.R.R.R.; B _ G b k l v V E >.6.u.N.6.;   R.R.R.R.R.R.R.R.",
"R.R.R.R.R.R.R.R.o ; z W o.o.5.7.e.w.6.Z ; X R.R.R.R.R.R.R.R.R.R.",
"R.R.R.R.R.R.R.R.R.R.R.o & = 9 9 = & o R.R.R.R.R.R.R.R.R.R.R.R.R.",
"R.R.R.R.R.R.R.R.R.R.R.R.R.R.R.R.R.R.R.R.R.R.R.R.R.R.R.R.R.R.R.R.",
"R.R.R.R.R.R.R.R.R.R.R.R.R.R.R.R.R.R.R.R.R.R.R.R.R.R.R.R.R.R.R.R."
};
