/* XPM */
static const char *preview_32x32_xpm[] = {
/* columns rows colors chars-per-pixel */
"32 32 256 2 ",
"   c #202020",
".  c gray19",
"X  c #464646",
"o  c gray28",
"O  c #4E4E4E",
"+  c #505050",
"@  c #585858",
"#  c #5A5A5A",
"$  c #5F6368",
"%  c #546376",
"&  c #5A6A7E",
"*  c #656565",
"=  c gray40",
"-  c #6A6A6A",
";  c #747474",
":  c gray46",
">  c gray49",
",  c #5E7086",
"<  c #607287",
"1  c #677588",
"2  c #65778C",
"3  c #67798F",
"4  c #6B7888",
"5  c #6A7C91",
"6  c #6C7F95",
"7  c #6E8095",
"8  c #6F8095",
"9  c #718398",
"0  c #7388A2",
"q  c #7A8EA3",
"w  c #7D91A6",
"e  c #7892B6",
"r  c #7C93B7",
"t  c #7893B9",
"y  c gray53",
"u  c #85888C",
"i  c #84888D",
"p  c #84898F",
"a  c #8A8C8E",
"s  c gray55",
"d  c gray56",
"f  c #8091A5",
"g  c #8292A4",
"h  c #8595A7",
"j  c #8695A6",
"k  c #8E96A0",
"l  c #8295A9",
"z  c #8296AB",
"x  c #8999AA",
"c  c #8C9CAF",
"v  c #899CB0",
"b  c #8B9EB3",
"n  c #8E9EB2",
"m  c #8FA0B3",
"M  c #91A1B3",
"N  c #91A3B7",
"B  c #92A2B6",
"V  c #94A6BB",
"C  c #91A4BC",
"Z  c #98AABC",
"A  c #99ABBE",
"S  c #9EACBC",
"D  c #9DADBE",
"F  c #A0A0A0",
"G  c #A5A5A5",
"H  c #A1A4A9",
"J  c #ACACAC",
"K  c #AEAEAE",
"L  c #A1ADBC",
"P  c gray69",
"I  c #B1B1B1",
"U  c gray70",
"Y  c #B6B6B6",
"T  c #B5BABF",
"R  c #879EC1",
"E  c #8DA2C5",
"W  c #9BAECA",
"Q  c #99ACCC",
"!  c #91A8D0",
"~  c #A0B1C3",
"^  c #A7B6C6",
"/  c #AAB4C0",
"(  c #A7B7CA",
")  c #A7B8CA",
"_  c #AABCCF",
"`  c #B4BDC7",
"'  c #A7BAD5",
"]  c #AABCD0",
"[  c #ADBED1",
"{  c #AABCDF",
"}  c #AFC1D8",
"|  c #B3C4D5",
" . c #B7C6D6",
".. c #BCC5D0",
"X. c #BFC7D0",
"o. c #B2C2DD",
"O. c #B7C7DD",
"+. c #B9C7D8",
"@. c #B8C8D9",
"#. c #BBCAD8",
"$. c #B9CADB",
"%. c #BCCBD9",
"&. c #BFCDDB",
"*. c #B0C2E0",
"=. c #B5C6E3",
"-. c #B4C4E4",
";. c #B6C7E4",
":. c #B7C6E5",
">. c #B6C7E6",
",. c #B6C9E1",
"<. c #B6C8E3",
"1. c #B9C8E5",
"2. c #BBC8E5",
"3. c #BBCBE5",
"4. c #BBCAE6",
"5. c #B1C6EA",
"6. c #BBCBE8",
"7. c #BBCBE9",
"8. c #BDCDE8",
"9. c #BDCCE9",
"0. c #BDCDE9",
"q. c #BECEE9",
"w. c #BFCFE9",
"e. c #BFCFEA",
"r. c #C3C3C3",
"t. c gray77",
"y. c gray78",
"u. c #C7CED5",
"i. c #C4CCD6",
"p. c #C5CDD6",
"a. c #C7CFD9",
"s. c #C0CEDD",
"d. c #C1CFDE",
"f. c #C6D0DA",
"g. c #C7D0DB",
"h. c #CCD5DE",
"j. c gray82",
"k. c #D7D7D7",
"l. c #DFDFDF",
"z. c #C0CFEA",
"x. c #C1D0E0",
"c. c #C4D2E5",
"v. c #C5D5E5",
"b. c #C6D4E7",
"n. c #C7D7E7",
"m. c #CBD5E3",
"M. c #CDD6E1",
"N. c #C8D3E5",
"B. c #C4D2EC",
"V. c #C7D5ED",
"C. c #CBD7EA",
"Z. c #CAD7EC",
"A. c #C9D9E8",
"S. c #CED8EA",
"D. c #CBD8EF",
"F. c #CEDAEE",
"G. c #CEDAEF",
"H. c #D5DCE3",
"J. c #D1DBE5",
"K. c #D7DEE6",
"L. c #D1DAEA",
"P. c #D3DCEA",
"I. c #D4DDE9",
"U. c #D5DEEA",
"Y. c #D6DEEA",
"T. c #D3DDED",
"R. c #CFDCF1",
"E. c #D0DEF7",
"W. c #D9E0EA",
"Q. c #DDE3EA",
"!. c #DFE4EB",
"~. c #D4E0F6",
"^. c #D6E1F7",
"/. c #DDE4F2",
"(. c #DAE3F4",
"). c #DCE5F4",
"_. c #DEE6F4",
"`. c #DCE6F7",
"'. c #DEE7F6",
"]. c #D6E2F8",
"[. c #D6E2F9",
"{. c #D4E2FD",
"}. c #D7E4FF",
"|. c #D8E3F9",
" X c #D8E4F8",
".X c #D9E4F9",
"XX c #DAE5F9",
"oX c #DEE7F8",
"OX c #DEE7F9",
"+X c #D8E5FE",
"@X c #D9E5FF",
"#X c #D9E6FF",
"$X c #DAE6FE",
"%X c #DAE6FF",
"&X c #DCE7FF",
"*X c #DDE8FD",
"=X c #DEE8FC",
"-X c #DFE9FE",
";X c #DFE9FF",
":X c #E0E4E9",
">X c #E0E5EB",
",X c #E2E6EA",
"<X c #E0E6ED",
"1X c #EAEAEA",
"2X c #ECECEC",
"3X c #EEEEEE",
"4X c #E0E8F4",
"5X c #E1E8F4",
"6X c #E2E9F4",
"7X c #E4EBF5",
"8X c #E1E9F9",
"9X c #E1EAF9",
"0X c #E2EAF8",
"qX c #E3EBF8",
"wX c #E3EBF9",
"eX c #E4EBF8",
"rX c #E4EBF9",
"tX c #E5EDF9",
"yX c #E1EBFE",
"uX c #E0EAFF",
"iX c #E1EBFF",
"pX c #E2EBFE",
"aX c #E2EBFF",
"sX c #E3EBFF",
"dX c #E2ECFF",
"fX c #E3ECFF",
"gX c #E3EDFF",
"hX c #E5EDFE",
"jX c #E8EFF9",
"kX c #E8EFFE",
"lX c #EFF0F2",
"zX c #EDF2F7",
"xX c #EBF0F9",
"cX c #EEF2F9",
"vX c #EFF3F9",
"bX c #EFF4F8",
"nX c #EAF1FE",
"mX c #EDF3FE",
"MX c #F1F1F1",
"NX c #F1F2F4",
"BX c gray97",
"VX c #F1F6FE",
"CX c #F5F8FE",
"ZX c #F8F8F8",
"AX c #F9F9F9",
"SX c #F8F9FA",
"DX c gray98",
"FX c #FBFBFB",
"GX c #F8FAFE",
"HX c gray99",
"JX c #FDFDFD",
"KX c #FCFDFE",
"LX c #FDFDFE",
"PX c #FEFEFE",
"IX c white",
"UX c None",
/* pixels */
"UXUXY Y Y Y Y Y Y Y Y Y Y Y Y Y U UXUXUXUXUXUXUXUXUXUXUXUXUXUXUX",
"UXUXY IXIXIXIXIXIXIXIXIXIXIXIX1Xr.P UXUXUXUXUXUXUXUXUXUXUXUXUXUX",
"UXUXY IXIXIXIXIXIXIXIXIXIXIXIXFXk.r.K UXUXUXUXUXUXUXUXUXUXUXUXUX",
"UXUXY IXIXIXIXIXIXIXIXIXIXIXIXIX1XMXr.K UXUXUXUXUXUXUXUXUXUXUXUX",
"UXUXY IXIXIXIXIXIXIXIXIXIXIXIXIX3XIXMXr.K UXUXUXUXUXUXUXUXUXUXUX",
"UXUXY IXIXIXIXIXIXIXIXIXIXIXIXIXMX2Xl.j.r.K UXUXUXUXUXUXUXUXUXUX",
"UXUXY IXIXIXIXIXIXIXIXIXIXIXIXIXIXIXIXBX2Xt.UXUXUXUXUXUXUXUXUXUX",
"UXUXY IXIXIXIXIXIXIXIXIXIXIXIXIXIXIXIXIXIXy.UXUXUXUXUXUXUXUXUXUX",
"UXUXY IXIXIX&.&.&.&.&.&.&.&.&.&.&.&.IXIXIXJ UXUXUXUXUXUXUXUXUXUX",
"UXUXY IXIXIXIXIXIXIXIXIXIXLX>Xa.p.i.,XIXIXG UXUXUXUXUXUXUXUXUXUX",
"UXUXY IXIXIXIXIXIXIXIXSXM. .x.$.] ) B g X.G UXUXUXUXUXUXUXUXUXUX",
"UXUXY IXIXIX&.&.&.&.s.+.A.,.<.0.6.=.' C 9 4 UXUXUXUXUXUXUXUXUXUX",
"UXUXY IXIXIXIXIXIXSXd.n.3.8.w.z.e.9.;.*.t 6 % UXUXUXUXUXUXUXUXUX",
"UXUXY IXIXIXIXIXIXJ.v.R.dXgXfXfXsXaXuX*X5.e 2 UXUXUXUXUXUXUXUXUX",
"UXUXY IXPXPX&.&.%.@.b. XE.E.].XX.X|.aXiX{.! 0 & UXUXUXUXUXUXUXUX",
"UXUXY IXPXPXPXPXK.| Z.F.G.V.7.>.q.D.D.^.&X{ r < UXUXUXUXUXUXUXUX",
"UXUXY IXJXJXJXJXg._ `.8XwXrXwXoX~.E.[.=X;X-.R 3 UXUXUXUXUXUXUXUX",
"UXUXY IXJXJX&.&.~ ( '.0XqXeXwXwX9XOXyX+X#X:.E 5 UXUXUXUXUXUXUXUX",
"UXUXY IXHXHXHXHX..b /.5X6X6X6X4X_.).(.hX}.1.Q 7 UXUXUXUXUXUXUXUX",
"UXUXY IXFXFXFXFXu.z m.I.Y.Y.U.P.L.S.C.kX@X2.W 8 UXUXUXUXUXUXUXUX",
"UXUXY IXFXFX&.&.#.q ^ zXbXvXcXxXjXtXmXpX%X4.V 1 UXUXUXUXUXUXUXUX",
"UXUXY IXDXDXDXDXDX/ z H.LXPXKXGXCXVXnX-X$X} f UXUXUXUXUXUXUXUXUX",
"UXUXY IXZXZXZXZXZXNXx v f.!.Q.W.U.N.o.B.O.M c UXUXUXUXUXUXUXUXUX",
"UXUXY IXAXAXAXAXAXAXlXj w D h.<X7XT.c.[ n , L $ @ UXUXUXUXUXUXUX",
"UXUXY IXIXIXIXIXIXIXIXIX` h l N A Z m S :XH T - X # UXUXUXUXUXUX",
"UXUXI d y y y y y y y y y y u p k i a y y s > F + X # UXUXUXUXUX",
"UXUXUXUXUXUXUXUXUXUXUXUXUXUXUXUXUXUXUXUXUXUXUX; F + X # UXUXUXUX",
"UXUXUXUXUXUXUXUXUXUXUXUXUXUXUXUXUXUXUXUXUXUXUXUX: F + X o UXUXUX",
"UXUXUXUXUXUXUXUXUXUXUXUXUXUXUXUXUXUXUXUXUXUXUXUXUX: F O . UXUXUX",
"UXUXUXUXUXUXUXUXUXUXUXUXUXUXUXUXUXUXUXUXUXUXUXUXUXUX* =   UXUXUX",
"UXUXUXUXUXUXUXUXUXUXUXUXUXUXUXUXUXUXUXUXUXUXUXUXUXUXUXUXUXUXUXUX",
"UXUXUXUXUXUXUXUXUXUXUXUXUXUXUXUXUXUXUXUXUXUXUXUXUXUXUXUXUXUXUXUX"
};
