/* XPM */
static const char *previous_24x24_xpm[] = {
/* columns rows colors chars-per-pixel */
"24 24 173 2 ",
"   c #00600C",
".  c #00720F",
"X  c #00780F",
"o  c #027C11",
"O  c #027511",
"+  c #147E21",
"@  c #008500",
"#  c #008B00",
"$  c #0B860B",
"%  c #039503",
"&  c #009900",
"*  c #0A920B",
"=  c #0B9C0B",
"-  c #018312",
";  c #098117",
":  c #018C13",
">  c #0B8619",
",  c #148C15",
"<  c #1E8F1F",
"1  c #039315",
"2  c #0F9611",
"3  c #059218",
"4  c #0B941C",
"5  c #0C991D",
"6  c #109D12",
"7  c #11911F",
"8  c #1B9D1C",
"9  c #139514",
"0  c #12A212",
"q  c #1D8F27",
"w  c #159F24",
"e  c #1A9B28",
"r  c #169623",
"t  c #228A2A",
"y  c #2C8A38",
"u  c #268432",
"i  c #30833A",
"p  c #308E3B",
"a  c #2C9334",
"s  c #2C9A33",
"d  c #32933F",
"f  c #34993A",
"g  c #329636",
"h  c #17A025",
"j  c #23AB21",
"k  c #21A62C",
"l  c #27A634",
"z  c #2CAD36",
"x  c #2AA43A",
"c  c #30A937",
"v  c #34A63A",
"b  c #30AB3D",
"n  c #39AD3F",
"m  c #399244",
"M  c #319D40",
"N  c #3D9A42",
"B  c #3AAC43",
"V  c #3BB543",
"C  c #408149",
"Z  c #40994A",
"A  c #45944F",
"S  c #459550",
"D  c #459A50",
"F  c #4A9F53",
"G  c #4F9B59",
"H  c #509459",
"J  c #4AAF4B",
"K  c #41AD45",
"L  c #41B046",
"P  c #43B14B",
"I  c #47BC4C",
"U  c #49BA4B",
"Y  c #4DA454",
"T  c #4CA858",
"R  c #48AC54",
"E  c #54AC5C",
"W  c #5AA95D",
"Q  c #51A65C",
"!  c #4EBD50",
"~  c #4EB25B",
"^  c #50BF50",
"/  c #53B55C",
"(  c #599661",
")  c #5B9B63",
"_  c #609F68",
"`  c #64956A",
"'  c #6E9D74",
"]  c #56AC61",
"[  c #5BAB64",
"{  c #5FA868",
"}  c #5BBA67",
"|  c #65A76D",
" . c #65AA6B",
".. c #67B06C",
"X. c #68A770",
"o. c #6CA973",
"O. c #70AA77",
"+. c #78A47D",
"@. c #75AD7C",
"#. c #74B677",
"$. c #78B37E",
"%. c #4AC14D",
"&. c #50C552",
"*. c #57C957",
"=. c #5BC45C",
"-. c #57CA58",
";. c #5ACB5A",
":. c #54C358",
">. c #61C85F",
",. c #64C765",
"<. c #62C865",
"1. c #69CD66",
"2. c #62C06B",
"3. c #66D363",
"4. c #69D566",
"5. c #6CD768",
"6. c #74DC6F",
"7. c #6AC571",
"8. c #6FC279",
"9. c #72C977",
"0. c #73CA78",
"q. c #6ED070",
"w. c #73D771",
"e. c #78DF72",
"r. c #7BD07F",
"t. c #7FE278",
"y. c #7CE174",
"u. c #82E37B",
"i. c #7CB183",
"p. c #77BB80",
"a. c #7CB983",
"s. c #80B587",
"d. c #84BA8C",
"f. c #89BC8E",
"g. c #8CBF93",
"h. c #90BD95",
"j. c #83C18A",
"k. c #85C98D",
"l. c #81D682",
"z. c #8DDD8C",
"x. c #8CC291",
"c. c #91C596",
"v. c #95C49A",
"b. c #99C39E",
"n. c #91DE90",
"m. c #8CEC82",
"M. c #9CE797",
"N. c #9DE69A",
"B. c #A1E99A",
"V. c #A4F09B",
"C. c #9DC4A2",
"Z. c #A1C6A6",
"A. c #A0CBA6",
"S. c #A5CFAA",
"D. c #A6C2AA",
"F. c #A9D1AD",
"G. c #AAD1B0",
"H. c #B5D7BB",
"J. c #A9EFA2",
"K. c #AEF4A3",
"L. c #B1F4A7",
"P. c #C1DEC5",
"I. c #DFEBE1",
"U. c #E2EEEE",
"Y. c #E6F0EE",
"T. c #E9F0EA",
"R. c #EEF6F0",
"E. c #F2F7F2",
"W. c #F4F8F4",
"Q. c #F1F6FB",
"!. c #FEFFFF",
"~. c #F5F8FC",
"^. c None",
/* pixels */
"^.^.^.^.^.^.^.^.^.@ @ @ @ @ # ^.^.^.^.^.^.^.^.^.",
"^.^.^.^.^.^.@ , W $.Z.Z.C.b.#.E 9 % ^.^.^.^.^.^.",
"^.^.^.^.^.$  .Z.b.f.i.$.$.@.s.c.v.[ * ^.^.^.^.^.",
"^.^.^.^.< v.b.s.O.O.o.X.X.| | | o.g.x.8 ^.^.^.^.",
"^.^.^.< v.h.@.O.o.o.X._ ( ) | { { { a.j.8 ^.^.^.",
"^.^.$ b.h.O.O.o.X.| ) ` D.+.H [ ] ] ] p.j.= ^.^.",
"^.@  .b.@.O.o.X.X.) ' W.!.!.( Q ] ] E E j./ % ^.",
"^., Z.i.O.o.X.X.) ' W.!.!.!.| T ~ ~ ~ ~ } k.6 ^.",
"^.W b.O.o.o.| ) ' W.!.!.!.G.y x x x x x x 8.V ^.",
"@ $.f.o.o.| ) ' W.!.!.!.A.O o ; ; > 4 4 5 B P & ",
"@ C.i.o.| ) ' W.!.!.!.!.P.P.P.P.P.S.a r w l } & ",
"@ C.$.o.| C T.!.!.!.!.!.!.!.!.!.!.!.H.q h B 2.& ",
"@ C.$.X.m   T.!.!.!.!.!.!.!.!.!.!.!.H.a z V 7.& ",
"# C.$.u . . u R.!.!.!.E.x.x.c.c.c.v.N n V ! 0.& ",
"@ #.A . X X X p R.!.!.!.G.t s v B K U &.%.<.=.& ",
"^.f A . X X : - d R.!.~.!.G.g I &.:.;.;.-.l.U ^.",
"^.* G + o - : 1 > m R.~.~.Q...! ;.3.5.5.6.n.0 ^.",
"^.% f D o - : 1 3 r N Y.Q.U.E :.4.6.u.u.M.>.& ^.",
"^.^.% F d - : 1 4 w e a a.Y J 3.6.u.u.V.B.= ^.^.",
"^.^.^.2 Y M 3 1 5 w k z B I -.4.e.m.L.L.j ^.^.^.",
"^.^.^.^.2 R R h 5 h h z V %.-.3.u.J.K.j ^.^.^.^.",
"^.^.^.^.^.% c } ~ B V V I :.q.z.N.4.= ^.^.^.^.^.",
"^.^.^.^.^.^.% = c P 2.7.0.r.,.^ 0 % ^.^.^.^.^.^.",
"^.^.^.^.^.^.^.^.^.& & & & & & ^.^.^.^.^.^.^.^.^."
};
