/* XPM */
static const char *print_64x64_xpm[] = {
/* columns rows colors chars-per-pixel */
"64 64 169 2 ",
"   c black",
".  c #0D0905",
"X  c #15120E",
"o  c #111111",
"O  c #1D1E1F",
"+  c #221E1A",
"@  c #25221F",
"#  c #1E1F20",
"$  c #2F2921",
"%  c #2B2B2B",
"&  c #262729",
"*  c #36322C",
"=  c #292D30",
"-  c #2E3234",
";  c #333333",
":  c #393633",
">  c #3A3936",
",  c #343639",
"<  c #3C3C3C",
"1  c #413E3B",
"2  c #42403E",
"3  c #3E3F40",
"4  c #3E4245",
"5  c #444444",
"6  c #494744",
"7  c #484847",
"8  c #4B4B4B",
"9  c #47494B",
"0  c #514F4C",
"q  c #52514F",
"w  c #4C4F52",
"e  c #474B51",
"r  c #4E5053",
"t  c #535353",
"y  c #585756",
"u  c #565759",
"i  c #57595C",
"p  c #5C5C5C",
"a  c #5B5957",
"s  c #605F5D",
"d  c #61605F",
"f  c #5A5D60",
"g  c #5E6163",
"h  c #5F6469",
"j  c #646464",
"k  c #626569",
"l  c #66696C",
"z  c #6B6B6C",
"x  c #74716D",
"c  c #6B6F74",
"v  c #656E79",
"b  c #6D7175",
"n  c #737373",
"m  c #7A7977",
"M  c #737679",
"N  c #72787F",
"B  c #797A7A",
"V  c #5AB35A",
"C  c #67AC67",
"Z  c #6F7D8C",
"A  c #737C85",
"S  c #737D89",
"D  c #7C7E81",
"F  c #7D8185",
"G  c #758089",
"H  c #7A838D",
"J  c #7C8792",
"K  c #7E8993",
"L  c #848484",
"P  c #8D8D8D",
"I  c #888888",
"U  c #90968E",
"Y  c #828C95",
"T  c #8B8E92",
"R  c #848E99",
"E  c #8C9195",
"W  c #87919C",
"Q  c #8B939C",
"!  c #949393",
"~  c #9A9997",
"^  c #92969B",
"/  c #94989C",
"(  c #9C9C9C",
")  c #87B387",
"_  c #8FBD90",
"`  c #9DB89D",
"'  c #8B96A1",
"]  c #8F98A2",
"[  c #939BA4",
"{  c #9D9FA1",
"}  c #979FA8",
"|  c #9FA0A3",
" . c #9BA3AB",
".. c #9FA7B0",
"X. c #A2A2A2",
"o. c #A2A6AA",
"O. c #A5A9AC",
"+. c #ACACAC",
"@. c #AFB0AF",
"#. c #A4ABB2",
"$. c #AAAEB3",
"%. c #A5AFB8",
"&. c #ADB1B5",
"*. c #ACB3BA",
"=. c #A5B0BB",
"-. c #B5B5B5",
";. c #B3B6BA",
":. c #B3B9BE",
">. c #BBBBBB",
",. c #88C388",
"<. c #97E797",
"1. c #BDDEBF",
"2. c #A8EFA8",
"3. c #9EAFC0",
"4. c #A6B4C3",
"5. c #B5BCC2",
"6. c #BBBFC3",
"7. c #A7BBD0",
"8. c #A9BDD1",
"9. c #BDC1C5",
"0. c #BDC3C9",
"q. c #BDC7D0",
"w. c #BACADA",
"e. c #C3C3C3",
"r. c #C3C7CA",
"t. c #C5C9CD",
"y. c #CBCCCC",
"u. c #C6DEC7",
"i. c #C9D4C9",
"p. c #CACED2",
"a. c #C1CAD3",
"s. c #CDD2D5",
"d. c #C8D5D9",
"f. c #D3D4D4",
"g. c #D2D5D9",
"h. c #D5DCDA",
"j. c #DBDBDB",
"k. c #D7E7DA",
"l. c #C7D4E2",
"z. c #C9D5E2",
"x. c #CDD9E5",
"c. c #CFDCE9",
"v. c #D2DBE5",
"b. c #DCDFE1",
"n. c #D4DDE8",
"m. c #DEE2E5",
"M. c #DCE4EC",
"N. c #DAE7E8",
"B. c #DDE9F5",
"V. c #DFECF9",
"C. c #DAE5F0",
"Z. c #E2E2E2",
"A. c #E4E7EB",
"S. c #E4E9ED",
"D. c #EBECEC",
"F. c #ECF2ED",
"G. c #E4ECF4",
"H. c #EAEEF3",
"J. c #E4EEF9",
"K. c #F0EFF0",
"L. c #EDF2F5",
"P. c #E6F0FB",
"I. c #ECF3FA",
"U. c #EFF8FF",
"Y. c #F4F5F5",
"T. c #F1F6FB",
"R. c #F5F9FD",
"E. c #FBFCFD",
"W. c None",
/* pixels */
"W.W.W.W.W.W.W.W.W.W.W.W.W.W.W.W.W.W.W.W.W.W.W.W.W.W.W.W.W.W.W.W.W.W.W.W.W.W.W.W.W.W.W.W.W.W.W.W.W.W.W.W.W.W.W.W.W.W.W.W.W.W.W.W.",
"W.W.W.W.W.W.W.W.W.W.W.W.W.W.W.W.W.W.W.W.W.W.W.W.W.W.W.W.W.W.W.W.W.W.W.W.W.W.W.W.W.W.W.W.W.W.W.W.W.W.W.W.W.W.W.W.W.W.W.W.W.W.W.W.",
"W.W.W.W.W.W.W.W.W.W.W.W.W.W.W.W.W.W.W.W.W.W.W.W.W.W.W.W.W.W.W.W.W.W.W.W.W.W.W.W.W.W.W.W.W.W.W.W.W.W.W.W.W.W.W.W.W.W.W.W.W.W.W.W.",
"W.W.W.W.W.W.W.W.W.W.W.W.W.W.W.W.W.W.W.W.W.W.W.W.W.W.W.W.W.W.W.W.W.W.W.W.W.W.W.W.W.W.W.W.W.W.W.W.W.W.W.W.W.W.W.W.W.W.W.W.W.W.W.W.",
"W.W.W.W.W.W.W.W.W.W.W.W.W.W.W.W.W.W.W.W.W.W.W.W.W.W.W.W.W.W.W.W.W.W.W.W.W.W.W.W.W.W.W.W.W.W.W.W.W.W.W.W.W.W.W.W.W.W.W.W.W.W.W.W.",
"W.W.W.W.W.W.W.W.W.W.W.W.W.W.W.W.W.W.W.W.W.W.W.W.W.W.W.W.W.W.W.W.W.W.W.W.W.W.W.W.W.W.W.W.W.W.W.W.W.W.W.W.W.W.W.W.W.W.W.W.W.W.W.W.",
"W.W.W.W.W.W.W.W.W.W.W.W.W.W.W.W.W.W.W.W.W.W.W.W.W.W.W.W.W.W.W.W.W.W.W.W.W.W.W.W.W.W.W.W.W.W.W.W.W.W.W.W.W.W.W.W.W.W.W.W.W.W.W.W.",
"W.W.W.W.W.W.W.W.W.W.W.W.W.W.W.W.W.W.W.W.W.W.W.W.W.W.W.W.W.W.W.W.W.W.W.W.W.W.W.W.W.W.W.W.W.W.W.W.W.W.W.W.W.W.W.W.W.W.W.W.W.W.W.W.",
"W.W.W.W.W.W.W.W.W.W.W.W.W.W.W.W.W.W.W.W.W.W.W.W.W.W.W.W.W.W.W.W.W.W.W.W.W.W.P P W.W.W.W.W.W.W.W.W.W.W.W.W.W.W.W.W.W.W.W.W.W.W.W.",
"W.W.W.W.W.W.W.W.W.W.W.W.W.W.W.W.W.W.W.W.W.W.W.W.W.W.W.W.W.W.W.W.W.W.W.W.W.e.r.-.+.X.! ! ! ! ! W.W.W.W.W.W.W.W.W.W.W.W.W.W.W.W.W.",
"W.W.W.W.W.W.W.W.W.W.W.W.W.W.W.W.W.W.W.W.W.W.W.W.W.W.W.W.W.W.W.W.W.W.W.W.M.E.E.R.L.D.j.y.e.-.@.X.( ~ ! ! ~ W.W.W.W.W.W.W.W.W.W.W.",
"W.W.W.W.W.W.W.W.W.W.W.W.W.W.W.W.W.W.W.W.W.W.W.W.W.W.W.W.W.W.W.W.W.W.W.W.E.E.E.E.E.E.E.E.E.Y.Y.A.j.y.e.-.+.+.X.~ ~ / ! ! W.W.W.W.",
"W.W.W.W.W.W.W.W.W.W.W.W.W.W.W.W.W.W.W.W.W.W.W.W.W.W.W.W.W.W.W.W.W.W.W.M.E.R.R.R.R.R.E.R.E.E.E.E.E.E.E.R.Y.A.j.y.9.-.+.-.p W.W.W.",
"W.W.W.W.W.W.W.W.W.W.W.W.W.W.W.W.W.W.W.W.W.W.W.W.W.W.W.W.W.W.W.W.W.W.W.E.R.R.R.R.R.E.R.E.E.E.E.E.E.E.E.E.E.E.E.E.E.S.$.! < W.W.W.",
"W.W.W.W.W.W.W.W.W.W.W.W.W.W.W.W.W.W.W.W.W.W.W.W.W.W.W.W.W.W.W.W.W.W.n.E.R.R.R.R.R.R.R.E.E.E.E.R.E.E.E.E.E.R.E.E.E.z.=.x W.W.W.W.",
"W.W.W.W.W.W.W.W.W.W.W.W.W.W.W.W.W.W.W.W.W.W.W.W.W.W.W.W.W.W.W.W.W.W.R.R.R.R.T.R.R.R.R.R.R.R.R.E.R.E.E.E.E.E.E.E.L.8.X.8 W.W.W.W.",
"W.W.W.W.W.W.W.W.W.W.W.W.W.W.W.W.W.W.W.W.W.W.W.W.W.W.W.W.W.W.W.W.W.l.E.T.T.T.T.T.R.T.R.R.R.R.E.R.R.R.E.R.R.E.E.E.l.4.I ; W.W.W.W.",
"W.W.W.W.W.W.W.W.W.W.W.W.W.W.W.W.W.W.W.W.W.W.W.W.W.W.W.W.W.W.W.W.W.U.T.T.T.T.T.T.T.T.R.R.T.R.R.R.R.E.R.E.E.R.E.H.8.+.s W.W.W.W.W.",
"W.W.W.W.W.W.W.W.W.W.W.W.W.W.W.W.W.W.W.W.W.W.W.W.W.W.W.W.W.W.W.W.l.E.I.U.I.U.T.T.T.T.T.T.R.T.R.R.R.R.R.R.R.E.E.l.4.~ 5 W.W.W.W.W.",
"W.W.W.W.W.W.W.W.W.W.W.W.W.W.W.W.W.W.W.W.W.W.W.W.W.W.W.W.W.W.W.W.U.U.H.I.I.I.I.I.U.U.T.T.T.T.T.R.R.R.R.R.R.E.I.8.&.m W.W.W.W.W.W.",
"W.W.W.W.W.W.W.W.W.W.W.W.W.W.W.W.W.W.W.W.W.W.W.W.W.W.W.W.W.W.W.' =.M.U.I.I.P.I.I.I.I.T.I.T.T.T.T.R.T.R.R.R.E.x.4.X.t W.W.W.W.W.W.",
"W.W.W.W.W.W.W.W.W.W.W.W.W.W.W.W.W.W.W.W.W.W.W.W.W.W.W.W.W.W.W.R e 0.U.G.I.P.I.I.I.I.I.T.T.T.U.I.U.T.T.T.R.H.8.&.P , W.W.W.W.W.W.",
"W.W.W.W.W.W.W.W.W.W.W.W.W.W.W.W.W.W.W.W.W.W.W.W.W.W.W.W.W.W.J H l x.P.G.H.I.P.P.I.I.I.I.I.I.I.I.I.T.T.I.R.c.4.+.z W.W.W.W.W.W.W.",
"W.W.W.W.W.W.W.W.W.W.W.W.W.W.W.W.W.W.W.W.W.W.W.W.W.W.W.W.W.J W c E J.J.J.J.J.J.I.J.H.P.I.I.I.I.I.I.T.U.T.I.3.[ ! 8 W.W.W.W.W.W.W.",
"W.W.W.W.W.W.W.W.W.W.W.W.W.W.W.W.W.W.W.W.W.W.W.W.W.W.W.W.W.Y K f 5.P.V.V.G.G.P.G.J.J.P.I.P.I.I.I.I.I.I.R.d.S c p W.W.W.W.W.W.W.W.",
"W.W.W.W.W.W.W.W.W.W.W.W.W.W.W.W.W.W.W.W.W.A G A A W.W.W.K Y S c c.V.B.B.V.V.V.J.J.J.J.H.P.J.P.L.I.I.I.P.] S k t W.W.W.W.W.W.W.W.",
"W.W.W.W.W.W.W.W.W.W.W.W.W.W.W.W.W.W.W.H R Q R R R W Q b b A k Q B.V.P.V.V.V.V.V.V.J.G.J.J.J.H.P.P.H.T.5.S A p t W.W.W.W.W.W.W.W.",
"W.W.W.W.W.W.W.W.W.W.W.W.W.W.W.W.W.K Q [ Q Q R R Q F q . : j p j H ^ %.q.l.N.B.P.P.P.J.J.J.J.G.J.G.U.x.S J k a W.W.W.W.W.W.W.W.W.",
"W.W.W.W.W.W.W.W.W.W.W.W.W.W.W.R  .} [ [ ' ' [ R j + o % + 7 j a q q 6 6 t z F [ *.r.x.C.J.P.P.P.P.G.' S S p i W.W.W.W.W.W.W.W.W.",
"W.W.W.W.W.W.W.W.W.W.W.W.W.Q ..#. .} [ [  .[ n ; . % % & % # t j p p s g p t 8 1 : 1 0 l H [ 5.a.n.%.S Y l a W.W.W.W.W.W.W.W.W.W.",
"W.W.W.W.W.W.W.W.W.W.W.[ $.*.#.#. . .#. .L 6 X % - % % % % % & y j t a i y y y a i i t 8 1 * $ : 7 w i v v l A W.W.W.W.W.W.W.W.W.",
"W.W.W.W.W.W.W.W.W. .*.5.*.*.&.#.=.&./ j & % : ; ; = ; % % % & ; d p t y t t t t q w q q t t t t 7 5 h H J J J K S [ W.W.W.W.W.W.",
"W.W.W.W.W.W.W. .*.0.5.5.5.;.*.5.#.D > = < < > : , ; ; ; ; = * & > t t t t t q r w 0 w 8 8 8 w 2 w A Y Y Y Y S Y #.y.W.W.W.W.W.W.",
"W.W.W.W.W.W.:.p.t.g.6.6.5.6.5.^ u : 5 5 3 3 3 < < > > , ; , ; ; % 5 t q 8 r 0 8 8 8 8 7 8 7 1 f Y R Y Y R S ^ -.e.e.W.W.W.W.W.W.",
"W.W.W.W.*.s.p.e.p.b.s.0.r.$.m 6 8 q 8 8 7 7 5 5 3 3 < < < > > , : ; 5 q 8 8 8 8 8 8 7 8 2 5 A Q Q R Y Y Y o.>.>.-.>.W.W.W.W.W.W.",
"W.W.W.9.M.b.g.9.r.g.p.r.( d t s s u u t 0 0 8 8 7 5 5 5 5 3 < < < , , 8 8 8 8 8 5 8 7 , f Y ] ^ Q Q R Q &.e.>.-.-.e.W.W.W.W.W.W.",
"W.W.p.9.U X.>.p.g.g.6.I j x z k j d d f i u t t q 0 8 8 7 7 5 5 5 3 < < 8 5 7 5 9 3 > M } } [ [ ' Q o.6.>.-.-.-.>.e.W.W.W.W.W.W.",
"W.y.Y.@.m &     +.-.n n B B m n x z z k j d d p p u t t q 8 8 8 7 5 7 5 5 5 5 8 * w E #. .} } [ [ ;.>.>.-.-.-.>.e.y.X.W.W.W.W.W.",
"W.D.E.Y.K.Z.-.+.K.f.e.+.! L B n B B m n x c z k j j d p p u t t w 8 8 8 7 8 5 % c #.&.#.#.#.} $.6.>.-.>.-.-.>.>.y.Z.X.W.W.W.W.W.",
"h.E.Y.Y.Y.Y.E.Y.Y.E.E.Y.D.j.e.+.! L m m m B m n x z z k j j d p p a t t t 5 6 ^ 5.5.&.%.$.#.6.e.>.-.-.-.>.>.e.f.j.D.X.W.W.W.W.W.",
"A.E.Y.Y.Y.E.f.-.y.g.Z.D.Y.E.E.Y.D.j.e.+.! L m m m B m n x c l j j d f j 8 z &.0.0.:.5.:.;.r.r.-.-.-.-.-.e.y.f.Z.Z.D.! W.W.W.W.W.",
"Z.Y.Y.Y.E.E.( P X.+.-.e.y.f.Z.D.Y.R.E.Y.D.j.e.+.! L B m m m B n x c z t E y.s.r.r.0.9.0.f.e.-.-.-.-.>.e.y.j.Z.Z.Z.K.P W.W.W.W.W.",
"y.K.D.K.Y.D.s 6 8 j B T X.+.-.e.y.f.Z.D.Y.E.E.Y.D.j.e.+.! L B B B n x -.h.s.s.f.s.t.s.g.>.-.-.-.>.e.y.j.Z.j.Z.Z.D.e.W.W.W.W.W.W.",
"{ e.y.j.Z.Z.@.X.T c w 3 7 d B ! | +.-.e.y.f.Z.D.Y.E.E.Y.D.j.e.+.! P p.k.,.,.1.k.d.j.j.-.-.-.>.>.e.f.j.j.j.Z.D.y.W.W.W.W.W.W.W.W.",
"W.W.X.X.-.H.E.R.D.g.6.{ D f 3 , 5 d m P ( +.-.e.y.f.Z.D.Y.E.E.Y.D.A.K.) 2.<.) k.Z.j.-.-.-.>.>.y.j.j.f.j.Z.Z.>.W.W.W.W.W.W.W.W.W.",
"W.W.W.W.R.E.R.R.E.E.T.D.b.t.&.T c e , = 1 s m P { +.-.e.y.f.Z.D.Y.Y.K.` V C u.F.Z.-.-.-.>.e.f.Z.j.f.j.Z.e.W.W.W.W.W.W.W.W.W.W.W.",
"W.W.W.L.E.E.R.Y.T.K.G.G.I.L.L.A.g.6.| D g 4 & & < p n P ( X.O.y.Y.Y.E.F.i.k.Y.K.6.-.>.e.e.f.Z.f.f.j.j.>.W.W.W.W.W.W.W.W.W.W.W.W.",
"W.W.M.E.E.Y.G.Y.T.T.L.L.H.H.H.H.L.L.H.b.t.$.T b i > % O ; m n j.E.Y.Y.E.E.E.E.f.@.>.e.y.Z.j.y.f.Z.e.W.W.W.W.W.W.W.W.W.W.W.W.W.W.",
"W.W.E.E.E.T.S.M.S.J.Y.T.T.T.L.H.G.G.H.L.I.H.A.g.:.X.D z t 4 j K.Y.Y.Y.Y.Y.Y.D.>.e.e.f.Z.y.y.f.j.-.W.W.W.W.W.W.W.W.W.W.W.W.W.W.W.",
"W.w.E.E.E.E.E.E.L.S.M.M.S.H.Y.T.T.Y.L.H.G.L.E.E.E.*.: z B u B K.Y.E.Y.E.Y.E.j.>.y.Z.j.y.f.j.e.W.W.W.W.W.W.W.W.W.W.W.W.W.W.W.W.W.",
"W.W.W.w.n.H.E.E.E.E.E.R.G.S.M.M.G.L.T.Y.Y.E.E.E.v.W.W.W.: % I D.D.K.K.K.Y.Y.y.j.Z.y.y.y.f.-.W.W.W.W.W.W.W.W.W.W.W.W.W.W.W.W.W.W.",
"W.W.W.W.W.W.W.n.S.E.E.E.E.E.R.L.S.M.M.G.E.E.E.M.W.W.W.W.W.W.! y.y.Z.D.D.D.D.j.f.e.y.f.>.W.W.W.W.W.W.W.W.W.W.W.W.W.W.W.W.W.W.W.W.",
"W.W.W.W.W.W.W.W.W.W.z.M.R.E.E.E.E.E.Y.R.E.E.R.W.W.W.W.W.W.W.W.( X.+.>.y.j.Z.y.e.y.f.-.W.W.W.W.W.W.W.W.W.W.W.W.W.W.W.W.W.W.W.W.W.",
"W.W.W.W.W.W.W.W.W.W.W.W.W.d.M.L.E.E.E.E.E.E.w.W.W.W.W.W.W.W.W.W.W.X.( ~ O.e.y.y.-.W.W.W.W.W.W.W.W.W.W.W.W.W.W.W.W.W.W.W.W.W.W.W.",
"W.W.W.W.W.W.W.W.W.W.W.W.W.W.W.W.W.n.H.E.E.n.W.W.W.W.W.W.W.W.W.W.W.W.W.W.W.+.-.W.W.W.W.W.W.W.W.W.W.W.W.W.W.W.W.W.W.W.W.W.W.W.W.W.",
"W.W.W.W.W.W.W.W.W.W.W.W.W.W.W.W.W.W.W.W.z.W.W.W.W.W.W.W.W.W.W.W.W.W.W.W.W.W.W.W.W.W.W.W.W.W.W.W.W.W.W.W.W.W.W.W.W.W.W.W.W.W.W.W.",
"W.W.W.W.W.W.W.W.W.W.W.W.W.W.W.W.W.W.W.W.W.W.W.W.W.W.W.W.W.W.W.W.W.W.W.W.W.W.W.W.W.W.W.W.W.W.W.W.W.W.W.W.W.W.W.W.W.W.W.W.W.W.W.W.",
"W.W.W.W.W.W.W.W.W.W.W.W.W.W.W.W.W.W.W.W.W.W.W.W.W.W.W.W.W.W.W.W.W.W.W.W.W.W.W.W.W.W.W.W.W.W.W.W.W.W.W.W.W.W.W.W.W.W.W.W.W.W.W.W.",
"W.W.W.W.W.W.W.W.W.W.W.W.W.W.W.W.W.W.W.W.W.W.W.W.W.W.W.W.W.W.W.W.W.W.W.W.W.W.W.W.W.W.W.W.W.W.W.W.W.W.W.W.W.W.W.W.W.W.W.W.W.W.W.W.",
"W.W.W.W.W.W.W.W.W.W.W.W.W.W.W.W.W.W.W.W.W.W.W.W.W.W.W.W.W.W.W.W.W.W.W.W.W.W.W.W.W.W.W.W.W.W.W.W.W.W.W.W.W.W.W.W.W.W.W.W.W.W.W.W.",
"W.W.W.W.W.W.W.W.W.W.W.W.W.W.W.W.W.W.W.W.W.W.W.W.W.W.W.W.W.W.W.W.W.W.W.W.W.W.W.W.W.W.W.W.W.W.W.W.W.W.W.W.W.W.W.W.W.W.W.W.W.W.W.W.",
"W.W.W.W.W.W.W.W.W.W.W.W.W.W.W.W.W.W.W.W.W.W.W.W.W.W.W.W.W.W.W.W.W.W.W.W.W.W.W.W.W.W.W.W.W.W.W.W.W.W.W.W.W.W.W.W.W.W.W.W.W.W.W.W.",
"W.W.W.W.W.W.W.W.W.W.W.W.W.W.W.W.W.W.W.W.W.W.W.W.W.W.W.W.W.W.W.W.W.W.W.W.W.W.W.W.W.W.W.W.W.W.W.W.W.W.W.W.W.W.W.W.W.W.W.W.W.W.W.W.",
"W.W.W.W.W.W.W.W.W.W.W.W.W.W.W.W.W.W.W.W.W.W.W.W.W.W.W.W.W.W.W.W.W.W.W.W.W.W.W.W.W.W.W.W.W.W.W.W.W.W.W.W.W.W.W.W.W.W.W.W.W.W.W.W."
};
