/* XPM */
static const char *print_32x32_xpm[] = {
/* columns rows colors chars-per-pixel */
"32 32 105 2 ",
"   c #2C2C2C",
".  c #323232",
"X  c #3B3B3B",
"o  c #444444",
"O  c #4B4B4B",
"+  c #4F5051",
"@  c #545454",
"#  c #575A5C",
"$  c #5B5B5C",
"%  c #575C61",
"&  c #5D6267",
"*  c #636464",
"=  c #656768",
"-  c #676A6C",
";  c #6B6C6D",
":  c #676B70",
">  c #6D7279",
",  c #737374",
"<  c #73777B",
"1  c #79797A",
"2  c #7BC47B",
"3  c #647182",
"4  c #737B84",
"5  c #757F88",
"6  c #7F8386",
"7  c #7C858E",
"8  c #7C8691",
"9  c #838383",
"0  c #868789",
"q  c #868A8F",
"w  c gray54",
"e  c #828B94",
"r  c #868E98",
"t  c #8F9193",
"y  c #89929B",
"u  c #939393",
"i  c #93999F",
"p  c #9A9A9B",
"a  c #9ABD9B",
"s  c #959DA6",
"d  c #999EA3",
"f  c #949FAB",
"g  c #99A0A7",
"h  c #9BA2AA",
"j  c #9FA8B1",
"k  c #A3A3A3",
"l  c #A5A7A9",
"z  c #A5A9AC",
"x  c #ABABAB",
"c  c #A7ADB3",
"v  c #A9AFB6",
"b  c #A4AEB8",
"n  c #AAB0B7",
"m  c #ADB3BA",
"M  c #B4B4B4",
"N  c #B2B6BB",
"B  c #BBBBBB",
"V  c #A6CAA6",
"C  c #AEB9C4",
"Z  c #B6BCC3",
"A  c #BBBEC1",
"S  c #A9BDD1",
"D  c #BDC1C4",
"F  c #B6C1CD",
"G  c #B8C2CB",
"H  c #AFC1D4",
"J  c #B4C6D7",
"K  c #BEC7D0",
"L  c #B9C9DA",
"P  c #C4C4C4",
"I  c #C1CFC1",
"U  c #C2C6CA",
"Y  c #C5CACE",
"T  c #CBCCCC",
"R  c #C7CCD0",
"E  c #CACED2",
"W  c #CDD3D3",
"Q  c #D2D2D3",
"!  c #D5D7D9",
"~  c #D6D8DA",
"^  c #DCDDDE",
"/  c #D8E7DC",
"(  c #C9D6E2",
")  c #CFDBE6",
"_  c #D5DDE5",
"`  c #DADEE2",
"'  c #D2DDE8",
"]  c #DFE0E2",
"[  c #D7E3EF",
"{  c #DAE3EC",
"}  c #E2E2E2",
"|  c #E4E7EB",
" . c #E4E8EC",
".. c #EBECEB",
"X. c #E3ECF4",
"o. c #EAEEF4",
"O. c #E5EEF8",
"+. c #EDF2F6",
"@. c #E7F0F9",
"#. c #ECF3FA",
"$. c #F5F5F5",
"%. c #F2F6FA",
"&. c #F5F9FC",
"*. c #FAFCFE",
"=. c None",
/* pixels */
"=.=.=.=.=.=.=.=.=.=.=.=.=.=.=.=.=.=.=.=.=.=.=.=.=.=.=.=.=.=.=.=.",
"=.=.=.=.=.=.=.=.=.=.=.=.=.=.=.=.=.=.=.=.=.=.=.=.=.=.=.=.=.=.=.=.",
"=.=.=.=.=.=.=.=.=.=.=.=.=.=.=.=.=.=.=.=.=.=.=.=.=.=.=.=.=.=.=.=.",
"=.=.=.=.=.=.=.=.=.=.=.=.=.=.=.=.=.=.k p u u w w w =.=.=.=.=.=.=.",
"=.=.=.=.=.=.=.=.=.=.=.=.=.=.=.=.=.Z *.*.| ^ Q B x p p u u w =.=.",
"=.=.=.=.=.=.=.=.=.=.=.=.=.=.=.=.=.| &.*.*.*.*.*.*.*.| ^ M w =.=.",
"=.=.=.=.=.=.=.=.=.=.=.=.=.=.=.=.Z &.&.&.&.&.*.*.*.*.*.&.b 9 =.=.",
"=.=.=.=.=.=.=.=.=.=.=.=.=.=.=.=._ #.%.%.&.&.&.&.*.*.*.' u w =.=.",
"=.=.=.=.=.=.=.=.=.=.=.=.=.=.=.h #.#.#.#.#.&.%.&.*.&.%.C 9 =.=.=.",
"=.=.=.=.=.=.=.=.=.=.=.=.=.=.=.7 h #.#.#.#.%.#.%.%.&.' p 9 =.=.=.",
"=.=.=.=.=.=.=.=.=.=.=.=.=.=.7 5 Z @.@.@.#.#.#.%.%.o.f 9 =.=.=.=.",
"=.=.=.=.=.=.=.=.=.4 5 5 4 4 7 < [ O.O.X.O.#.@.#.#.j > 1 =.=.=.=.",
"=.=.=.=.=.=.=.7 e y r r e O $ * 7 h m K X.X.O.@.G 8 * w =.=.=.=.",
"=.=.=.=.=.y i h h s i * .   . * # $ # # @ = 6 s 4 > & 3 =.=.=.=.",
"=.=.=.g h n m n z 0 o . . .   X $ @ @ @ + + O O # 5 8 y x =.=.=.",
"=.=.c Z Q E Z k = o o X X . . . o + + O O O O : e r z A x =.=.=.",
"=.D x l E T u * $ @ @ + O o o X X o O O O + q y g N B M x =.=.=.",
"U ! x $ , k 9 1 , ; * $ $ @ + O O o o o - g g n B B B B M =.=.=.",
"^ $.$...} ..| Q M u 9 , , ; * * $ # , M N N T P B B P ^ B =.=.=.",
"~ ....u 9 k B T } ....Q M u 9 1 , l W Y Y ~ B M B W / ] M =.=.=.",
"p x Q ` P t - - 1 p B T } ..| Q T a 2 / } B B P ! ^ T M =.=.=.=.",
"=.L &.%.%.@. .E x , $ $ , p B ^ $.I V ..B B T Q ! A l =.=.=.=.=.",
"=.{ *.o.o.o.#.o.o.o.` A t # O Q $.*.$.T P T Q T x =.=.=.=.=.=.=.",
"S L { %.*.$.o. .o.$.$.*.F % O Q ..$.$.T T T B x =.=.=.=.=.=.=.=.",
"=.=.=.S J ' +.*.$.+.*.{ S =.=.k x T Q T P x =.=.=.=.=.=.=.=.=.=.",
"=.=.=.=.=.=.S J ( o.$.S =.=.=.=.k k x x x =.=.=.=.=.=.=.=.=.=.=.",
"=.=.=.=.=.=.=.=.=.S S =.=.=.=.=.=.=.=.=.=.=.=.=.=.=.=.=.=.=.=.=.",
"=.=.=.=.=.=.=.=.=.=.=.=.=.=.=.=.=.=.=.=.=.=.=.=.=.=.=.=.=.=.=.=.",
"=.=.=.=.=.=.=.=.=.=.=.=.=.=.=.=.=.=.=.=.=.=.=.=.=.=.=.=.=.=.=.=.",
"=.=.=.=.=.=.=.=.=.=.=.=.=.=.=.=.=.=.=.=.=.=.=.=.=.=.=.=.=.=.=.=.",
"=.=.=.=.=.=.=.=.=.=.=.=.=.=.=.=.=.=.=.=.=.=.=.=.=.=.=.=.=.=.=.=.",
"=.=.=.=.=.=.=.=.=.=.=.=.=.=.=.=.=.=.=.=.=.=.=.=.=.=.=.=.=.=.=.=."
};
