/* XPM */
static const char *properties_48x48_xpm[] = {
/* columns rows colors chars-per-pixel */
"48 48 184 2 ",
"   c #026E02",
".  c #037D03",
"X  c #057605",
"o  c #517F0C",
"O  c #976D1B",
"+  c #AA6F1C",
"@  c #946D2D",
"#  c #B37C27",
"$  c #048D04",
"%  c #048204",
"&  c #059B05",
"*  c #0B9E0A",
"=  c #029402",
"-  c #1A9919",
";  c #278D0E",
":  c #0EA00E",
">  c #14A314",
",  c #1BA61B",
"<  c #1FA81E",
"1  c #23AB1F",
"2  c #2BAB1F",
"3  c #25AB24",
"4  c #2AAE29",
"5  c #2FB12F",
"6  c #3AB529",
"7  c #34B334",
"8  c #3DB83D",
"9  c #35A523",
"0  c #439515",
"q  c #43B929",
"w  c #59C434",
"e  c #4ABE4A",
"r  c #44BB43",
"t  c #4FC04F",
"y  c #5AC65A",
"u  c #6ECF43",
"i  c #7BCF49",
"p  c #77D456",
"a  c #6ACE6A",
"s  c #65CC65",
"d  c #6ED06D",
"f  c #7AD679",
"g  c #BA8F35",
"h  c #A99D3F",
"j  c #BD852A",
"k  c #C0892F",
"l  c #C08E35",
"z  c #CA963C",
"x  c #BD9D5D",
"c  c #9BB356",
"v  c #AEAF54",
"b  c #8E8269",
"n  c #AFA17F",
"m  c #B9A57C",
"M  c #D6A64B",
"N  c #DBAD52",
"B  c #DEB15B",
"V  c #CAA25A",
"C  c #E0B359",
"Z  c #C4A46B",
"A  c #C7A467",
"S  c #D2AC69",
"D  c #DEB467",
"F  c #C5AA73",
"G  c #E4B964",
"H  c #E2BB6D",
"J  c #E1B56C",
"K  c #E4BE72",
"L  c #82D95B",
"P  c #89DD66",
"I  c #9CCE7B",
"U  c #A5D16F",
"Y  c #95E277",
"T  c #C0CA79",
"R  c #DEC47C",
"E  c #EBC26B",
"W  c #F1C465",
"Q  c #F0C66C",
"!  c #E6C176",
"~  c #ECC573",
"^  c #EEC976",
"/  c #E4C27B",
"(  c #E9C47B",
")  c #EEC97A",
"_  c #F0CC7E",
"`  c #F1CB74",
"'  c #66798F",
"]  c #63768C",
"[  c #687B91",
"{  c #77899D",
"}  c #7F90A4",
"|  c #828C95",
" . c #9C9989",
".. c #A69D84",
"X. c #BDB499",
"o. c #B8B196",
"O. c #B3AA8F",
"+. c #8797AA",
"@. c #97A8BA",
"#. c #CDBC8B",
"$. c #D1BB8C",
"%. c #86DC85",
"&. c #99E598",
"*. c #9DE684",
"=. c #A1E98B",
"-. c #A9ED96",
";. c #A7EAA4",
":. c #B3F2AC",
">. c #B5F3A7",
",. c #BBF6B5",
"<. c #BDF7BC",
"1. c #D5C18D",
"2. c #D4CD88",
"3. c #DDCB95",
"4. c #E4C684",
"5. c #EDCC84",
"6. c #EDCD8A",
"7. c #E5CE8F",
"8. c #F1CE83",
"9. c #F0CF8A",
"0. c #EED087",
"q. c #EED38B",
"w. c #EFD88F",
"e. c #F3D084",
"r. c #F2D38C",
"t. c #F0D88E",
"y. c #E7CF94",
"u. c #EED694",
"i. c #EFD894",
"p. c #EAD59C",
"a. c #ECD99D",
"s. c #E4D298",
"d. c #F4D593",
"f. c #F3D995",
"g. c #F9DB97",
"h. c #F5DB9B",
"j. c #F9DC9E",
"k. c #F8D793",
"l. c #F6E19F",
"z. c #FAE19F",
"x. c #CECDB9",
"c. c #EDDAA6",
"v. c #F4DDA3",
"b. c #FADEA3",
"n. c #F0DEAB",
"m. c #E8D9B8",
"M. c #C1F9BB",
"N. c #F5E2A1",
"B. c #FAE1A5",
"V. c #F7E3AD",
"C. c #FAE4AB",
"Z. c #FBE9AD",
"A. c #F5E3B1",
"S. c #F9E6B3",
"D. c #FCEAB2",
"F. c #F4E7B9",
"G. c #F9EBBD",
"H. c #A7B3C2",
"J. c #A9BDD1",
"K. c #B6C1CD",
"L. c #C7C8C2",
"P. c #CBD3DD",
"I. c #C5FBC3",
"U. c #C9FDC5",
"Y. c #CAFEC9",
"T. c #F5EAC3",
"R. c #EDEADA",
"E. c #F9F0D5",
"W. c #ECE4C7",
"Q. c #D3DBE4",
"!. c #DBE1E7",
"~. c #DFE5EC",
"^. c #EDF0EF",
"/. c #FAF7EA",
"(. c #F5F4EB",
"). c #E4EEF8",
"_. c #E6EDF2",
"`. c #ECF1F4",
"'. c #E7F1F9",
"]. c #ECF3FA",
"[. c #F1F7FB",
"{. c #F5F9FC",
"}. c #FFFFFF",
"|. c None",
/* pixels */
"|.|.|.|.|.|.|.|.|.|.|.|.|.|.|.|.|.|.|.|.|.|.|.|.|.|.|.|.|.|.|.|.|.|.|.|.|.|.|.|.|.|.|.|.|.|.|.|.",
"|.|.|.|.|.|.|.|.|.|.|.|.|.|.|.|.|.|.|.|.|.|.|.|.|.|.|.|.|.|.|.|.|.|.|.|.|.|.|.|.|.|.|.|.|.|.|.|.",
"|.|.|.|.|.|.|.|.|.|.|.|.|.|.|.|.|.|.|.|.|.|.|.|.|.|.|.|.|.|.|.|.|.|.|.|.|.|.|.|.|.|.|.|.|.|.|.|.",
"|.|.|.|.|.|.|.|.|.|.|.|.|.|.|.|.|.|.|.|.|.|.|.|.|.|.|.|.|.|.|.|.|.|.|.|.|.< < , 1 6 6 - |.|.|.|.",
"|.|.|.|.|.|.|.|.|.|.|.|.|.|.|.|.|.|.|.|.|.|.|.|.|.|.|.|.|.|.|.|.|.|.|.< 4 q w u p P p - |.|.|.|.",
"|.|.|.|.|.|.|.|.|.|.|.|.|.|.|.|.|.|.|.|.( / 4.K / / / K / / / / 4.K ( v i L P Y =.=.;.: |.|.|.|.",
"|.|.|.|.|.|.|.|.|.|.|.|.|.|.|.|.q.0.0.8.9.9.9.9.9.9.9.9.9.d.q.9.d.d.d.9.U =.-.;.>.M.M.4 |.|.|.|.",
"|.|.|.|.|.|.|.|.|.|.|.|.|.|.|.t.l.D.Z.b.b.C.b.C.C.S.S.S.S.S.S.F.S.S.S.S.T :.<.I.M.Y.U.q |.|.|.|.",
"|.|.|.|.|.|.|.|.|.|.|.|.|.w.w.l.C.D.S.b.b.b.b.S.C.b.C.S.b.S.S.S.S.G.S.S.1.Y.Y.Y.Y.I.<.y . |.|.|.",
"|.|.|.|.|.|.|.|.|.|.|.|.t.t.C.C.C.S.n.j.j.b.b.b.b.b.b.C.S.S.F.S.S.S.b.b.R Y.<.<.:.;.-.s $ |.|.|.",
"|.|.|.|.|.|.|.|.|.|.|.f.g.Z.B.Z.B.g.d.d.j.b.b.b.S.S.S.S.S.C.b.b.b.v.b.v.4.;.;.&.&.%.%.a = |.|.|.",
"|.|.|.|.|.|.|.|.|.|.i.f.Z.z.Z.Z.j.k.r.h.A.b.b.b.b.b.b.b.b.b.b.b.b.b.V.S.p.I %.P f d s y & |.|.|.",
"|.|.|.|.|.|.|.|.|.q.l.Z.B.B.Z.B.g.d.d.b.S.S.j.j.b.b.b.b.b.b.b.S.S.S.S.b.6.c a s y t e e > |.|.|.",
"J.J.J.J.J.J.J.x.f.d.Z.Z.l.D.C.B.j.9.z.B.b.j.d.h.b.b.b.b.b.b.C.S.b.b.j.d.9.v e e 8 8 7 5 >   |.|.",
"J.}.}.}.}.}.E.i.l.D.B._ Z.Z.B.b.d.r.Z.z.k.d.d.j.b.b.b.b.b.b.b.b.k.k.k.r.5.g 7 5 4 3 < , : % |.|.",
"J.}.}.}.}./.f.N.D.B.` l.Z.Z.B.d.5.Z.C.g.d.d.h.b.S.S.V.b.b.b.h.k.d.r.8.8.K k 4 , , : : & & $ |.|.",
"J.}.}.}./.f.l.D.j.E e.D.Z.B.d.! l.C.B.g.6.r.j.B.S.S.b.j.h.k.k.r.e.8.` ~ E j 0 * $ & & & * = |.|.",
"J.}.}./.a.l.D.C.W e.j.B.C.d.! i.Z.B.j.5.6.r.b.b.b.b.j.g.d.r.9.8._ ` ~ E N + 0 & * * : 1 3 & |.|.",
"J.}.{.f.l.Z.B.Q ` N.Z.B.d.K 0.Z.C.B.d.( ~ g.B.j.k.r.r.r.9.8._ ` E E G M # O ; > 1 4 5 4 3 & |.|.",
"J.}.n.c.G.l.W E f.D.C.j.K 5.j.C.C.j.K K 0.B.B.g.e.e.8.e.8.` ~ E C M z l @ |.& , - : & $ % |.|.|.",
"J.}.p.A.f.Q W w.Z.Z.b.( ( u.b.B.j.H S 0.C.C.b.g.) K J G G B M z z V b |.|.|.|.% X |.|.|.|.|.|.|.",
"J.}.a.Q H #.3.j.D.B.5.! q.C.C.h.J A 1.C.B.B.h.! D F Z Z x Z m o.L.!.] |.|.|.|.|.|.|.|.|.|.|.|.|.",
"J.}.{.{.{.n.w.Z.C.6.K 6.j.Z.b.D S O.d.b.b.d.H F | { +.+.H.J.P.!.`.}.' |.|.|.|.|.|.|.|.|.|.|.|.|.",
"J.}.{.{.W.u.C.C.r.K #.w.C.C.K S ..h.b.b.5.H n { @.P.~.{.}.{.{.{.{.}.' |.|.|.|.|.|.|.|.|.|.|.|.|.",
"J.}.{.(.p.F.G.r.K o.s.B.Z.6.D ..y.b.b.5.D  .H._.{.{.{.{.{.{.{.[.{.}.' |.|.|.|.|.|.|.|.|.|.|.|.|.",
"J.}.{.R.p.F.u.( #.s.v.S.h.H ..1.V.b.d.K O.Q.[.[.[.[.{.{.].{.[.[.[.}.' |.|.|.|.|.|.|.|.|.|.|.|.|.",
"J.}.{.^.c.q.4.x.x.c.T.b.K m #.F.F.d.K #.).[.[.[.{.{.].[.{.{.[.{.].}.' |.|.|.|.|.|.|.|.|.|.|.|.|.",
"J.}.].{.].].{.].W.a.v.K $.x.c.W.A.K $.'.[.[.[.[.{.].{.].].[.[.].{.}.' |.|.|.|.|.|.|.|.|.|.|.|.|.",
"J.}.].].].].].[.`.c.y.m.`.R.( y.K 4.`.].[.[.].[.].[.[.].].].].{.[.}.' |.|.|.|.|.|.|.|.|.|.|.|.|.",
"J.}.[.{.].{.[.].].[.].[.].].m.m.m.`.].].].[.[.].].[.].[.].{.].].].}.' |.|.|.|.|.|.|.|.|.|.|.|.|.",
"J.}.].].].{.].].[.].].].].].].].].].{.].].].[.].[.].[.].].[.].].].}.' |.|.|.|.|.|.|.|.|.|.|.|.|.",
"J.}.].].].].].].].].].].].].].].].].].].].].].].].].].].].].].].].}.' |.|.|.|.|.|.|.|.|.|.|.|.|.",
"J.}.].].].].].].].].].].'.].].'.].].].].].].].].].].].].].].].].].}.' |.|.|.|.|.|.|.|.|.|.|.|.|.",
"J.}.].].].`.'.].].'.`.].].].].].'.`.].'.'.].'.].].'.'.].].].'.].'.}.' |.|.|.|.|.|.|.|.|.|.|.|.|.",
"J.}.).].].'.'.].'.'.'.].].'.'.'.'.].'.].'.].'.].'.'.'.`.'.'.'.'.].}.' |.|.|.|.|.|.|.|.|.|.|.|.|.",
"J.}.'.).'.'.'.'.'.'.'.'.'.'.'.'.'.'.'.'.'.'.'.'.'.'.'.'.`.'.'.'.'.}.' |.|.|.|.|.|.|.|.|.|.|.|.|.",
"J.}.'.'.).'.'.'.'.'.'.'.'.'.'.).'.'.).'.'.'.).'.'.'.'.'.'.).'.'.).}.' |.|.|.|.|.|.|.|.|.|.|.|.|.",
"J.}.'.).).).).'.).).).'.).'.'.).'.).).'.).'.).).).'.).'.'.).).'.).}.' |.|.|.|.|.|.|.|.|.|.|.|.|.",
"J.}.).).'.).).).).'.).).).).).).).).'.).).).).).'.).).).).).).).'.}.' |.|.|.|.|.|.|.|.|.|.|.|.|.",
"J.}.).).).).).).).).).).).).).).).).).).).).).).).).).).).).).).).}.' |.|.|.|.|.|.|.|.|.|.|.|.|.",
"J.}.).).).).).).).).).).).).).).).).).).).).).).).).).).).).).).).}.' |.|.|.|.|.|.|.|.|.|.|.|.|.",
"J.}.}.}.}.}.}.}.}.}.}.}.}.}.}.}.}.}.}.}.}.}.}.}.}.}.}.}.}.}.}.}.}.}.' |.|.|.|.|.|.|.|.|.|.|.|.|.",
"J.@.[ ' ] ' ' ' ] ' ' ' ' ' ] ' ' ' ' ' ] ' ' ' ] ' ' ' ] ' ' ' ' ' ' |.|.|.|.|.|.|.|.|.|.|.|.|.",
"|.|.|.|.|.|.|.|.|.|.|.|.|.|.|.|.|.|.|.|.|.|.|.|.|.|.|.|.|.|.|.|.|.|.|.|.|.|.|.|.|.|.|.|.|.|.|.|.",
"|.|.|.|.|.|.|.|.|.|.|.|.|.|.|.|.|.|.|.|.|.|.|.|.|.|.|.|.|.|.|.|.|.|.|.|.|.|.|.|.|.|.|.|.|.|.|.|.",
"|.|.|.|.|.|.|.|.|.|.|.|.|.|.|.|.|.|.|.|.|.|.|.|.|.|.|.|.|.|.|.|.|.|.|.|.|.|.|.|.|.|.|.|.|.|.|.|.",
"|.|.|.|.|.|.|.|.|.|.|.|.|.|.|.|.|.|.|.|.|.|.|.|.|.|.|.|.|.|.|.|.|.|.|.|.|.|.|.|.|.|.|.|.|.|.|.|.",
"|.|.|.|.|.|.|.|.|.|.|.|.|.|.|.|.|.|.|.|.|.|.|.|.|.|.|.|.|.|.|.|.|.|.|.|.|.|.|.|.|.|.|.|.|.|.|.|."
};
