/* XPM */
static const char *redo_64x64_xpm[] = {
/* columns rows colors chars-per-pixel */
"64 64 108 2 ",
"   c #1F4699",
".  c #2A539F",
"X  c #2D53A7",
"o  c #2C55AA",
"O  c #335DAD",
"+  c #2E5CB7",
"@  c #2E5CB9",
"#  c #365EB0",
"$  c #3B63B5",
"%  c #3363BE",
"&  c #3B65BC",
"*  c #3E68B9",
"=  c #476BB7",
"-  c #426CBD",
";  c #4D72BC",
":  c #5075BD",
">  c #0B4AC7",
",  c #0E4BC8",
"<  c #114BC7",
"1  c #154FC9",
"2  c #184FCA",
"3  c #1750CA",
"4  c #1952CB",
"5  c #1D56D2",
"6  c #275BCC",
"7  c #225AD5",
"8  c #235DD9",
"9  c #2F60CE",
"0  c #2F68CC",
"q  c #3264C1",
"w  c #3468C5",
"e  c #3869C7",
"r  c #3366CD",
"t  c #346BCC",
"y  c #396DCC",
"u  c #3672CF",
"i  c #2664D4",
"p  c #2B67D5",
"a  c #2B6AD6",
"s  c #2661DB",
"d  c #2B66DE",
"f  c #2E6DD9",
"g  c #3066D0",
"h  c #336DD4",
"j  c #396FD0",
"k  c #3266D9",
"l  c #316CDD",
"z  c #2F70DA",
"x  c #3471D4",
"c  c #3A72D3",
"v  c #3273DC",
"b  c #3C76DD",
"n  c #3679DE",
"m  c #397ADF",
"M  c #2E6BE2",
"N  c #306CE0",
"B  c #3574E2",
"V  c #3A74E2",
"C  c #367BE1",
"Z  c #3C7CE2",
"A  c #446EC2",
"S  c #4771C3",
"D  c #4A73C5",
"F  c #4574CD",
"G  c #4A77CC",
"H  c #4D78CD",
"J  c #547AC5",
"K  c #597EC7",
"L  c #547CCC",
"P  c #587FCA",
"I  c #4676D6",
"U  c #4976D6",
"Y  c #4778D7",
"T  c #4B79D5",
"R  c #4577D8",
"E  c #467BDA",
"W  c #4C7BDA",
"Q  c #527CD1",
"!  c #527EDA",
"~  c #447DE2",
"^  c #4C7EE1",
"/  c #5581CE",
"(  c #5B83CE",
")  c #4A81DD",
"_  c #5584D1",
"`  c #5B86D2",
"'  c #5C89D4",
"]  c #5482DE",
"[  c #5B86DE",
"{  c #5E8CDF",
"}  c #6087D1",
"|  c #618BDC",
" . c #4382E4",
".. c #4D83E2",
"X. c #4280EA",
"o. c #4F85E9",
"O. c #5384E3",
"+. c #5886E2",
"@. c #5289E3",
"#. c #5D8AE4",
"$. c #568DEA",
"%. c #5F90E7",
"&. c #5F91E8",
"*. c #4180F2",
"=. c #648EE5",
"-. c #6592E6",
";. c #6494EA",
":. c None",
/* pixels */
":.:.:.:.:.:.:.:.:.:.:.:.:.:.:.:.:.:.:.:.:.:.:.:.:.:.:.:.:.:.:.:.:.:.:.:.:.:.:.:.:.:.:.:.:.:.:.:.:.:.:.:.:.:.:.:.:.:.:.:.:.:.:.:.",
":.:.:.:.:.:.:.:.:.:.:.:.:.:.:.:.:.:.:.:.:.:.:.:.:.:.:.:.:.:.:.:.:.:.:.:.:.:.:.:.:.:.:.:.:.:.:.:.:.:.:.:.:.:.:.:.:.:.:.:.:.:.:.:.",
":.:.:.:.:.:.:.:.:.:.:.:.:.:.:.:.:.:.:.:.:.:.:.:.:.:.:.:.:.:.:.:.:.:.:.:.:.:.:.:.:.:.:.:.:.:.:.:.:.:.:.:.:.:.:.:.:.:.:.:.:.:.:.:.",
":.:.:.:.:.:.:.:.:.:.:.:.:.:.:.:.:.:.:.:.:.J K P ( } } } ( P J ; :.:.:.:.:.:.:.:.:.:.:.:.:.:.:.:.:.:.:.:.:.:.:.:.:.:.:.:.:.:.:.:.",
":.:.:.:.:.:.:.:.:.:.:.:.:.:.:.:.:.:.P P =.=.=.! [ ! ! ! ! +.#.=.-.' J = :.:.:.:.:.:.:.:.:.:.:.:.:.:.:.:.:.:.:.:.:.:.:.:.:.:.:.:.",
":.:.:.:.:.:.:.:.:.:.:.:.:.:.:.; P =.=.! I I I I I I I I I I I I R W #.-.| J :.:.:.:.:.:.:.:.:.:.:.:.:.:.:.:.:.:.:.:.:.:.:.:.:.:.",
":.:.:.:.:.:.:.:.:.:.:.:.:.:.( =.! U I U U U U U I U I I I U I U Y I I I W #.;.L :.:.:.:.:.:.:.:.:.:.:.:.:.:.:.:.:.:.:.:.:.X :.:.",
":.:.:.:.:.:.:.:.:.:.:.:.J -.! I U U U U U U U U I U U I I I I I I I I I I I Y #.;.D :.:.:.:.:.:.:.:.:.:.:.:.:.:.:.:.:.:.S L :.:.",
":.:.:.:.:.:.:.:.:.:.:.( =.U F U U U U U U U U I I U I I I I I I I I I I I I I I R -.#.$ :.:.:.:.:.:.:.:.:.:.:.:.:.:.:.& $._ :.:.",
":.:.:.:.:.:.:.:.:.:.} ! I U U U U U U U U F I U U I I I I I I I I I I Y Y Y Y Y I c ) ;.D :.:.:.:.:.:.:.:.:.:.:.:.:.& ^ W L :.:.",
":.:.:.:.:.:.:.:.:.| ! U T T U U U U I U U I U I I I I U U R R U I I I Y Y R Y R R Y R Y &._ :.:.:.:.:.:.:.:.:.:.:.& ..R ] L :.:.",
":.:.:.:.:.:.:.:.[ ! U T U U U U U U U U I U I I I I I I I I I I I R R I R R R R R Y Y Y b { &.o :.:.:.:.:.:.:.:.& ..R R ../ :.:.",
":.:.:.:.:.:.:.L ! U T U U U U U U U I I I I U R I I I I I I I R R Y Y R R R R Y E Y R R E c [ &.# :.:.:.:.:.:.& ..E R I ) L :.:.",
":.:.:.:.:.:.J #.U T U U U T U U U I I U I I I I I I I I I R R U Y R R Y R Y Y E R R R R Y Y c ] ;.# :.:.:.:.& O.E E E E O./ :.:.",
":.:.:.:.:.:.=.U U T U U U U U U I U I I I U ! ^ ^ O...^ E U R I I R R W Y R R R R R E E Y E E b ) ;.O :.:.e ..E E E E E ../ :.:.",
":.:.:.:.:.K ! U T U U U U U U U I I U O.O.H A - - $ & A G ^ ^ E R R R R R R R R R E R E E E R Y R O.;.  q o.E E E E E R O.( :.:.",
":.:.:.:.S =.I U U U U U U U U I R O.Q - :.:.:.:.:.:.:.:.:.:.& Y ..R I R E R R E E R R E E E E E E R @.| E E E E E E ) R ..( :.:.",
":.:.:.:.L ! U U U U U U U U I W [ - :.:.:.:.:.:.:.:.:.:.:.:.:.:.& ~ W I R R E R R R E R R E E E E E E @.E E E ) E E E E @./ :.:.",
":.:.:.S =.U U U U U U U U I ! Q . :.:.:.:.:.:.:.:.:.:.:.:.:.:.:.:.:.y ^ E Y R E E E E E E E E E E ) E E E ) E E ) E E Y @.` :.:.",
":.:.:.L ! U U U U U U U I ! H :.:.:.:.:.:.:.:.:.:.:.:.:.:.:.:.:.:.:.:.q  .E E E E E E E E E E ) E E E E E ) E ) E ) ) m ..( :.:.",
":.:.:.+.W U U U R U U I W L :.:.:.:.:.:.:.:.:.:.:.:.:.:.:.:.:.:.:.:.:.:.@ ~ W R R E E E ~ E E E E ) E E ) E ) E ) m ) E @.` :.:.",
":.:.D =.U U U U U U I U ] :.:.:.:.:.:.:.:.:.:.:.:.:.:.:.:.:.:.:.:.:.:.:.:.+ ~ W E E ) E E E ) E ) E ) E E ) E ) Y ) ) E @./ :.:.",
":.:.L ! U U U U U U I +.- :.:.:.:.:.:.:.:.:.:.:.:.:.:.:.:.:.:.:.:.:.:.:.:.:.+  .E Y E E E E E E m E E ) ) ) ) ) ) ) ) ) @.` :.:.",
":.:.Q ! U U U U U I W H :.:.:.:.:.:.:.:.:.:.:.:.:.:.:.:.:.:.:.:.:.:.:.:.:.:.:.% V a a i p p a a a a f f f x v v b m m ) @.' :.:.",
":.:.+.U U U U U R U ^ # :.:.:.:.:.:.:.:.:.:.:.:.:.:.:.:.:.:.:.:.:.:.:.:.:.:.:.:.q M i i i p a p i a a a a a a a a a f f m / :.:.",
":.:.#.U U U U U I ^ H :.:.:.:.:.:.:.:.:.:.:.:.:.:.:.:.:.:.:.:.:.:.:.:.:.:.:.:.:.:.t a p p a a a a a a f f a f f f x f a n / :.:.",
":.D #.U U U I U I +.- :.:.:.:.:.:.:.:.:.:.:.:.:.:.:.:.:.:.:.:.:.:.:.:.:.:.:.:.:.:.w f a a a a a f f f f f f f z x z z f C / :.:.",
":.G O.U U U U U U ! :.:.:.:.:.:.:.:.:.:.:.:.:.:.:.:.:.:.:.:.:.:.:.:.:.:.:.:.:.:.w B a a a a f a f f f f f f z z z z z f C _ :.:.",
":.T +.U U U I I ^ G :.:.:.:.:.:.:.:.:.:.:.:.:.:.:.:.:.:.:.:.:.:.:.:.:.:.:.:.:.e B a a a f f f f f z z z z v v z v z v z Z _ :.:.",
":.H ! I U U U I O.- :.:.:.:.:.:.:.:.:.:.:.:.:.:.:.:.:.:.:.:.:.:.:.:.:.:.:.:.y B a a a f f f z z f x z z z v v v v v n z ~ _ :.:.",
":.Q O.I U U U U O.# :.:.:.:.:.:.:.:.:.:.:.:.:.:.:.:.:.:.:.:.:.:.:.:.:.:.:.t B a a f f f f f x z v v v v v v n v v n v z  ._ :.:.",
":.H O.I U R I R W :.:.:.:.:.:.:.:.:.:.:.:.:.:.:.:.:.:.:.:.:.:.:.:.:.:.:.y B a a f f f z z x v z v v v v v n v v n n n v  ._ :.:.",
":.T O.R U U I W T :.:.:.:.:.:.:.:.:.:.:.:.:.:.:.:.:.:.:.:.:.:.:.:.:.:.y B a f f f z z f v v v v n v n v n n n n n n m n  ._ :.:.",
":.G O.U U U I W G :.:.:.:.:.:.:.:.:.:.:.:.:.:.:.:.:.:.:.:.:.:.:.:.:.y B a f f f f z v v v v v v v b n n n m n n m m C C  .' :.:.",
":.F O.R I I U ^ F :.:.:.:.:.:.:.:.:.:.:.:.:.:.:.:.:.:.:.:.:.:.:.:.h l i f d f z z v v v v v v n n C C C C C C C C C C C  .' :.:.",
":.:.+.U Y Y U ^ F :.:.:.:.:.:.:.:.:.:.:.:.:.:.:.:.:.:.:.:.:.:.:.j ~ b b C R Z C Z ~ ~ ~ ~  . . . .)  ... ...@...@.@.@. .$._ :.:.",
":.:.O.U I U I ..y :.:.:.:.:.:.:.:.:.:.:.:.:.:.:.:.:.:.:.:.:.:.:.:.:.:.:.:.:.:.:.:.:.:.:.:.:.:.:.:.:.:.:.:.:.:.:.:.:.:.:.:.:.:.:.",
":.:.T U U Y R k t :.:.:.:.:.:.:.:.:.:.:.:.:.:.:.:.:.:.:.:.:.:.:.:.:.:.:.:.:.:.:.:.:.:.:.:.:.:.:.:.:.:.:.:.:.:.:.:.:.:.:.:.:.:.:.",
":.:.Y ! I Y 6 5 y :.:.:.:.:.:.:.:.:.:.:.:.:.:.:.:.:.:.:.:.:.:.:.:.:.:.:.:.:.:.:.:.:.:.:.:.:.:.:.:.:.:.:.:.:.:.:.:.:.:.:.:.:.:.:.",
":.:.I O.U 9 > 7 t :.:.:.:.:.:.:.:.:.:.:.:.:.:.:.:.:.:.:.:.:.:.:.:.:.:.:.:.:.:.:.:.:.:.:.:.:.:.:.:.:.:.:.:.:.:.:.:.:.:.:.:.:.:.:.",
":.:.:.O.g , 4 5 t :.:.:.:.:.:.:.:.:.:.:.:.:.:.:.:.:.:.:.:.:.:.:.:.:.:.:.:.:.:.:.:.:.:.:.:.:.:.:.:.:.:.:.:.:.:.:.:.:.:.:.:.:.:.:.",
":.:.:.c 2 2 2 5 g :.:.:.:.:.:.:.:.:.:.:.:.:.:.:.:.:.:.:.:.:.:.:.:.:.:.:.:.:.:.:.:.:.:.:.:.:.:.:.:.:.:.:.:.:.:.:.:.:.:.:.:.:.:.:.",
":.:.:.y 7 2 2 2 g :.:.:.:.:.:.:.:.:.:.:.:.:.:.:.:.:.:.:.:.:.:.:.:.:.:.:.:.:.:.:.:.:.:.:.:.:.:.:.:.:.:.:.:.:.:.:.:.:.:.:.:.:.:.:.",
":.:.:.:.d < 4 2 a :.:.:.:.:.:.:.:.:.:.:.:.:.:.:.:.:.:.:.:.:.:.:.:.:.:.:.:.:.:.:.:.:.:.:.:.:.:.:.:.:.:.:.:.:.:.:.:.:.:.:.:.:.:.:.",
":.:.:.:.g 2 4 1 d :.:.:.:.:.:.:.:.:.:.:.:.:.:.:.:.:.:.:.:.:.:.:.:.:.:.:.:.:.:.:.:.:.:.:.:.:.:.:.:.:.:.:.:.:.:.:.:.:.:.:.:.:.:.:.",
":.:.:.:.c s 2 3 i 0 :.:.:.:.:.:.:.:.:.:.:.:.:.:.:.:.:.:.:.:.:.:.:.:.:.:.:.:.:.:.:.:.:.:.:.:.:.:.:.:.:.:.:.:.:.:.:.:.:.:.:.:.:.:.",
":.:.:.:.:.l 1 3 i 0 :.:.:.:.:.:.:.:.:.:.:.:.:.:.:.:.:.:.:.:.:.:.:.:.:.:.:.:.:.:.:.:.:.:.:.:.:.:.:.:.:.:.:.:.:.:.:.:.:.:.:.:.:.:.",
":.:.:.:.:.h 7 3 5 x :.:.:.:.:.:.:.:.:.:.:.:.:.:.:.:.:.:.:.:.:.:.:.:.:.:.:.:.:.:.:.:.:.:.:.:.:.:.:.:.:.:.:.:.:.:.:.:.:.:.:.:.:.:.",
":.:.:.:.:.:.f 3 4 a :.:.:.:.:.:.:.:.:.:.:.:.:.:.:.:.:.:.:.:.:.:.:.:.:.:.:.:.:.:.:.:.:.:.:.:.:.:.:.:.:.:.:.:.:.:.:.:.:.:.:.:.:.:.",
":.:.:.:.:.:.h 8 1 M q :.:.:.:.:.:.:.:.:.:.:.:.:.:.:.:.:.:.:.:.:.:.:.:.:.:.:.:.:.:.:.:.:.:.:.:.:.:.:.:.:.:.:.:.:.:.:.:.:.:.:.:.:.",
":.:.:.:.:.:.:.d 1 8 g :.:.:.:.:.:.:.:.:.:.:.:.:.:.:.:.:.:.:.:.:.:.:.:.:.:.:.:.:.:.:.:.:.:.:.:.:.:.:.:.:.:.:.:.:.:.:.:.:.:.:.:.:.",
":.:.:.:.:.:.:.c M 1 l :.:.:.:.:.:.:.:.:.:.:.:.:.:.:.:.:.:.:.:.:.:.:.:.:.:.:.:.:.:.:.:.:.:.:.:.:.:.:.:.:.:.:.:.:.:.:.:.:.:.:.:.:.",
":.:.:.:.:.:.:.:.h 4 M :.:.:.:.:.:.:.:.:.:.:.:.:.:.:.:.:.:.:.:.:.:.:.:.:.:.:.:.:.:.:.:.:.:.:.:.:.:.:.:.:.:.:.:.:.:.:.:.:.:.:.:.:.",
":.:.:.:.:.:.:.:.:.l s y :.:.:.:.:.:.:.:.:.:.:.:.:.:.:.:.:.:.:.:.:.:.:.:.:.:.:.:.:.:.:.:.:.:.:.:.:.:.:.:.:.:.:.:.:.:.:.:.:.:.:.:.",
":.:.:.:.:.:.:.:.:.v M h :.:.:.:.:.:.:.:.:.:.:.:.:.:.:.:.:.:.:.:.:.:.:.:.:.:.:.:.:.:.:.:.:.:.:.:.:.:.:.:.:.:.:.:.:.:.:.:.:.:.:.:.",
":.:.:.:.:.:.:.:.:.:.v V :.:.:.:.:.:.:.:.:.:.:.:.:.:.:.:.:.:.:.:.:.:.:.:.:.:.:.:.:.:.:.:.:.:.:.:.:.:.:.:.:.:.:.:.:.:.:.:.:.:.:.:.",
":.:.:.:.:.:.:.:.:.:.:.*.c :.:.:.:.:.:.:.:.:.:.:.:.:.:.:.:.:.:.:.:.:.:.:.:.:.:.:.:.:.:.:.:.:.:.:.:.:.:.:.:.:.:.:.:.:.:.:.:.:.:.:.",
":.:.:.:.:.:.:.:.:.:.:.u X.:.:.:.:.:.:.:.:.:.:.:.:.:.:.:.:.:.:.:.:.:.:.:.:.:.:.:.:.:.:.:.:.:.:.:.:.:.:.:.:.:.:.:.:.:.:.:.:.:.:.:.",
":.:.:.:.:.:.:.:.:.:.:.:.c t :.:.:.:.:.:.:.:.:.:.:.:.:.:.:.:.:.:.:.:.:.:.:.:.:.:.:.:.:.:.:.:.:.:.:.:.:.:.:.:.:.:.:.:.:.:.:.:.:.:.",
":.:.:.:.:.:.:.:.:.:.:.:.:.x :.:.:.:.:.:.:.:.:.:.:.:.:.:.:.:.:.:.:.:.:.:.:.:.:.:.:.:.:.:.:.:.:.:.:.:.:.:.:.:.:.:.:.:.:.:.:.:.:.:.",
":.:.:.:.:.:.:.:.:.:.:.:.:.:.:.:.:.:.:.:.:.:.:.:.:.:.:.:.:.:.:.:.:.:.:.:.:.:.:.:.:.:.:.:.:.:.:.:.:.:.:.:.:.:.:.:.:.:.:.:.:.:.:.:.",
":.:.:.:.:.:.:.:.:.:.:.:.:.:.:.:.:.:.:.:.:.:.:.:.:.:.:.:.:.:.:.:.:.:.:.:.:.:.:.:.:.:.:.:.:.:.:.:.:.:.:.:.:.:.:.:.:.:.:.:.:.:.:.:.",
":.:.:.:.:.:.:.:.:.:.:.:.:.:.:.:.:.:.:.:.:.:.:.:.:.:.:.:.:.:.:.:.:.:.:.:.:.:.:.:.:.:.:.:.:.:.:.:.:.:.:.:.:.:.:.:.:.:.:.:.:.:.:.:.",
":.:.:.:.:.:.:.:.:.:.:.:.:.:.:.:.:.:.:.:.:.:.:.:.:.:.:.:.:.:.:.:.:.:.:.:.:.:.:.:.:.:.:.:.:.:.:.:.:.:.:.:.:.:.:.:.:.:.:.:.:.:.:.:."
};
