/* XPM */
static const char *refresh_16x16_xpm[] = {
/* columns rows colors chars-per-pixel */
"16 16 57 1 ",
"  c #144AC7",
". c #144BC7",
"X c #154BC7",
"o c #154CC7",
"O c #154CC8",
"+ c #164DC8",
"@ c #164EC8",
"# c #174EC9",
"$ c #184FC9",
"% c #1850CA",
"& c #1951CA",
"* c #1952CA",
"= c #1A53CB",
"- c #1B53CB",
"; c #1C55CC",
": c #1D56CD",
"> c #1E57CD",
", c #1E58CD",
"< c #1E58CE",
"1 c #1F5ACE",
"2 c #205BCF",
"3 c #225DD0",
"4 c #225ED0",
"5 c #235FD1",
"6 c #2461D2",
"7 c #2561D2",
"8 c #2562D3",
"9 c #2663D3",
"0 c #2865D4",
"q c #2866D5",
"w c #2A68D6",
"e c #2A69D6",
"r c #2B69D6",
"t c #2C6BD7",
"y c #2C6CD7",
"u c #2D6CD8",
"i c #2D6DD8",
"p c #2F6FD9",
"a c #3071DA",
"s c #3171DA",
"d c #3172DB",
"f c #3375DC",
"g c #3578DE",
"h c #3678DE",
"j c #387BDF",
"k c #3A7EE1",
"l c #3A7FE1",
"z c #3C81E3",
"x c #3E83E3",
"c c #3F86E5",
"v c #4086E5",
"b c #4187E6",
"n c #4188E6",
"m c #438BE7",
"M c #448BE8",
"N c #458DE8",
"B c None",
/* pixels */
"BBBBBBBBBB BBBBB",
"BBBBBBBBB+@BBBBB",
"BBBBB.O@$&*=BBBB",
"BBBBX+$*-;:><BBB",
"BBBo#%BB,1234BBB",
"BBOBBBBB3567BBBB",
"BBBBBBBB89BBBBBB",
"BBBBBBBBBBBBBBBB",
"BBBBBBBBBBBBBBBB",
"BBBBB0rBBBBBBBBB",
"BBB59wiBBBBBvBBB",
"BB26qyshkxbmBBBB",
"BBB9epfjznNBBBBB",
"BBB0taglcMBBBBBB",
"BBBBudBBBBBBBBBB",
"BBBBBBBBBBBBBBBB"
};
