/* XPM */
static const char *refresh_48x48_xpm[] = {
/* columns rows colors chars-per-pixel */
"48 48 162 2 ",
"   c #1F4383",
".  c #204587",
"X  c #21468F",
"o  c #224A8D",
"O  c #244B96",
"+  c #244D9B",
"@  c #254FA2",
"#  c #2653A2",
"$  c #2754AB",
"%  c #2955AE",
"&  c #2858AB",
"*  c #2956B0",
"=  c #2B5BB4",
"-  c #2C5EBA",
";  c #315DB4",
":  c #305EB9",
">  c #2D62BE",
",  c #3361BD",
"<  c #3965BB",
"1  c #4169BC",
"2  c #4970BF",
"3  c #2E65C1",
"4  c #2F69C6",
"5  c #2F67C9",
"6  c #2F68C8",
"7  c #3465C5",
"8  c #3369C6",
"9  c #3B6BC2",
"0  c #3566CA",
"q  c #326BCB",
"w  c #3B6DCD",
"e  c #3671CE",
"r  c #3A72CD",
"t  c #2662D3",
"y  c #2965D4",
"u  c #2C69D6",
"i  c #2E6ED9",
"p  c #346CD5",
"a  c #396ED4",
"s  c #316ED8",
"d  c #396FD9",
"f  c #2F70D9",
"g  c #3673D3",
"h  c #3B73D5",
"j  c #3E79D4",
"k  c #3374DB",
"l  c #3D75D9",
"z  c #3679DF",
"x  c #3B7ADC",
"c  c #3A7EE1",
"v  c #426DC3",
"b  c #426FCA",
"n  c #4473C7",
"m  c #4874C4",
"M  c #4172C9",
"N  c #4A75CA",
"B  c #4B7BCE",
"V  c #5076C3",
"C  c #557BC7",
"Z  c #597DC7",
"A  c #4374D4",
"S  c #4977D5",
"D  c #427BD3",
"F  c #4E7AD2",
"G  c #4177D8",
"H  c #417CDD",
"J  c #4A7CDA",
"K  c #557FD1",
"L  c #3E81DF",
"P  c #3D82E3",
"I  c #4F80CE",
"U  c #5582CE",
"Y  c #5884CE",
"T  c #4B83D6",
"R  c #4481DD",
"E  c #4A84D9",
"W  c #4E8BDF",
"Q  c #5581D2",
"!  c #5981D3",
"~  c #5D8BD4",
"^  c #5382DB",
"/  c #528CDE",
"(  c #5B8BDC",
")  c #5A91DE",
"_  c #6086D6",
"`  c #6C8ED5",
"'  c #638CDC",
"]  c #688CD9",
"[  c #6492DD",
"{  c #6B93DE",
"}  c #6698DF",
"|  c #739DDE",
" . c #7B9CDB",
".. c #4484E2",
"X. c #4A86E2",
"o. c #4389E6",
"O. c #4A8BE5",
"+. c #458DE8",
"@. c #498CE8",
"#. c #538EE2",
"$. c #598FE3",
"%. c #4D90E7",
"&. c #4790EA",
"*. c #4C95EC",
"=. c #4E9AEF",
"-. c #5591E1",
";. c #5A93E2",
":. c #5B98E6",
">. c #5494EB",
",. c #5798ED",
"<. c #5C99EC",
"1. c #4F9BF0",
"2. c #519EF1",
"3. c #618DE1",
"4. c #6594E1",
"5. c #6A92E0",
"6. c #6399E5",
"7. c #6C98E1",
"8. c #629DEB",
"9. c #749AE0",
"0. c #649FF0",
"q. c #55A3F3",
"w. c #5BA7F5",
"e. c #5AA9F7",
"r. c #5CADF8",
"t. c #5EB0FA",
"y. c #65A2ED",
"u. c #6EABEE",
"i. c #76A2E3",
"p. c #7BA3E4",
"a. c #72A9ED",
"s. c #7AB2EF",
"d. c #66A2F0",
"f. c #6AA6F2",
"g. c #6BABF3",
"h. c #70ACF4",
"j. c #64B5FC",
"k. c #66BAFF",
"l. c #6CBBFE",
"z. c #73B4F7",
"x. c #7AB6F3",
"c. c #79B8F3",
"v. c #70B7F9",
"b. c #77B8F8",
"n. c #76C2FF",
"m. c #7BC2FE",
"M. c #82A1DC",
"N. c #81A2E2",
"B. c #84A8E5",
"V. c #8CABE4",
"C. c #86ACE9",
"Z. c #92AFE5",
"A. c #90B1E8",
"S. c #98B4E9",
"D. c #84BBF3",
"F. c #83C0FA",
"G. c #8BC4FA",
"H. c #85CAFF",
"J. c #8DCCFE",
"K. c #92CDFE",
"L. c #96D1FF",
"P. c None",
/* pixels */
"P.P.P.P.P.P.P.P.P.P.P.P.P.P.P.P.P.P.P.P.P.P.P.P.P.P.P.P.P.% = P.P.P.P.P.P.P.P.P.P.P.P.P.P.P.P.P.",
"P.P.P.P.P.P.P.P.P.P.P.P.P.P.P.P.P.P.P.P.P.P.P.P.P.P.P.P.P.v p.; P.P.P.P.P.P.P.P.P.P.P.P.P.P.P.P.",
"P.P.P.P.P.P.P.P.P.P.P.P.P.P.P.P.P.P.P.P.P.P.P.P.P.P.P.P.% ~ C.~ # P.P.P.P.P.P.P.P.P.P.P.P.P.P.P.",
"P.P.P.P.P.P.P.P.P.P.P.P.P.P.P.P.P.P.P.P.P.P.P.P.P.P.P.P.* i.p.C.v P.P.P.P.P.P.P.P.P.P.P.P.P.P.P.",
"P.P.P.P.P.P.P.P.P.P.P.P.P.P.P.P.P.P.P.P.P.P.P.P.P.P.P.P.< p.J 7.| & P.P.P.P.P.P.P.P.P.P.P.P.P.P.",
"P.P.P.P.P.P.P.P.P.P.P.P.P.P.P.P.P.P.P.P.P.P.P.% % P.P.% T { l H 9.Y # P.P.P.P.P.P.P.P.P.P.P.P.P.",
"P.P.P.P.P.P.P.P.P.P.P.P.P.P.P.P.P.P.% % v m Y U U I n 9 ) ( G G ^ i.9 P.P.P.P.P.P.P.P.P.P.P.P.P.",
"P.P.P.P.P.P.P.P.P.P.P.P.P.P.P.P.* Z  .A.B.p.{ [ [ [ { } [ E l H G ( { = P.P.P.P.P.P.P.P.P.P.P.P.",
"P.P.P.P.P.P.P.P.P.P.P.P.P.P.% Z Z.V.5.K A d a l h l l G J l x H c J 3.Q # P.P.P.P.P.P.P.P.P.P.P.",
"P.P.P.P.P.P.P.P.P.P.P.P.P.< Z.V.$.A d h l h l l h k s i k i i i i u l 3.9 P.P.P.P.P.P.P.P.P.P.P.",
"P.P.P.P.P.P.P.P.P.P.P.% m Z.9.A a a h a p u y t y u u u i i f k i c c l 3.= P.P.P.P.P.P.P.P.P.P.",
"P.P.P.P.P.P.P.P.P.P.% Z S.] d a a p t t t t y y y u i i i f k k i c f k X.K # P.P.P.P.P.P.P.P.P.",
"P.P.P.P.P.P.P.P.P.P.1 S.' d p p a A A S A A A a p s f f f k k z c c c c c ;.9 P.P.P.P.P.P.P.P.P.",
"P.P.P.P.P.P.P.P.P.; Z.] p A K K N b 9 : 7 , 7 0 a d k k k z k c c c c c P ..6.- P.P.P.P.P.P.P.P.",
"P.P.P.P.P.P.P.P.* M.9.S K K m : $ O P.P.P.P.P.O $ - c f k c c c P P P P P P #.8 P.P.P.P.P.P.P.P.",
"P.P.P.P.P.P.P.P.V N.' _ N : + P.P.P.P.P.P.P.P.P.P.7 P z c c c c P P P ..P g > o P.P.P.P.P.P.P.P.",
"P.P.P.P.P.P.P.% M.] K , + P.P.P.P.P.P.P.P.P.P.P.P.r P z P z P P P o.L g -   P.P.P.P.P.P.P.P.P.P.",
"P.P.P.P.P.P.P.C ` N % P.P.P.P.P.P.P.P.P.P.P.P.P.> x z c P P P P L q &   P.P.P.P.P.P.P.P.P.P.P.P.",
"P.P.P.P.P.P.% ` v + P.P.P.P.P.P.P.P.P.P.P.P.P.P.- o.x P P P x 8 = P.P.P.P.P.P.P.P.P.P.P.P.P.P.P.",
"P.P.P.P.P.P.% , X P.P.P.P.P.P.P.P.P.P.P.P.P.P.P.8 o.P P x 8 # P.P.P.P.P.P.P.P.P.P.P.P.P.P.P.P.P.",
"P.P.P.P.P.P.P.P.P.P.P.P.P.P.P.P.P.P.P.P.P.P.P.P.j P g 3 O P.P.P.P.P.P.P.P.P.P.P.P.P.P.P.P.P.P.P.",
"P.P.P.P.P.P.P.P.P.P.P.P.P.P.P.P.P.P.P.P.P.P.P.P.8 > O P.P.P.P.P.P.P.P.P.P.P.P.P.P.P.P.P.P.P.P.P.",
"P.P.P.P.P.P.P.P.P.P.P.P.P.P.P.P.P.P.P.P.P.P.P.P.P.P.P.P.P.P.P.P.P.P.P.P.P.P.P.P.P.P.P.P.P.P.P.P.",
"P.P.P.P.P.P.P.P.P.P.P.P.P.P.P.P.P.P.P.P.P.P.P.P.P.P.P.P.P.P.P.P.P.P.P.P.P.P.P.P.P.P.P.P.P.P.P.P.",
"P.P.P.P.P.P.P.P.P.P.P.P.P.P.P.P.P.P.P.> 8 r P.P.P.P.P.P.P.P.P.P.P.P.P.P.P.P.P.P.P.P.P.P.P.P.P.P.",
"P.P.P.P.P.P.P.P.P.P.P.P.P.P.P.P.P.> 8 ) y./ # P.P.P.P.P.P.P.P.P.P.P.P.P.P.P.P.P.P.P.P.P.P.P.P.P.",
"P.P.P.P.P.P.P.P.P.P.P.P.P.P.P.- M 4.6.O.:.D P.P.P.P.P.P.P.P.P.P.P.P.P.P.P.q E q P.P.P.P.P.P.P.P.",
"P.P.P.P.P.P.P.P.P.P.P.P.P.- B [ 6.O.O.O.y.> P.P.P.P.P.P.P.P.P.P.P.P.P.P.q ) G.7 P.P.P.P.P.P.P.P.",
"P.P.P.P.P.P.P.P.P.P.- - B 7.;.R X.X.O.O.;.& P.P.P.P.P.P.P.P.P.P.P.P.P.r a.J.;.o P.P.P.P.P.P.P.P.",
"P.P.P.P.P.P.P.P.- , K 4.#.R ....X.O.O.<.T . P.P.P.P.P.P.P.P.P.P.P.q E G.J.G.4 P.P.P.P.P.P.P.P.P.",
"P.P.P.P.P.P.= 7 ! 5.^ H x R ..X.X.O.%.y.r P.P.P.P.P.P.P.P.P.P.q j s.K.H.K.( o P.P.P.P.P.P.P.P.P.",
"P.P.P.P.P.P.= { ^ A x x H ..R o.X.O.O.a.D > = > P.P.P.4 6 e ) c.L.J.m.J.D.4 P.P.P.P.P.P.P.P.P.P.",
"P.P.P.P.P.P.= b J G H H H H ..X.X.O.@.>.y.y.<./ / ) -.:.u.G.J.H.n.l.J.L.j P.P.P.P.P.P.P.P.P.P.P.",
"P.P.P.P.P.P.P.- S J x H H ....X.O.O.%.>.>.,.<.d.g.g.z.z.v.l.k.k.k.H.J.T o P.P.P.P.P.P.P.P.P.P.P.",
"P.P.P.P.P.P.P.P.7 S H H ..H ..X.O.O.%.%.*.*.=.=.2.q.q.e.t.t.k.l.H.J.R # P.P.P.P.P.P.P.P.P.P.P.P.",
"P.P.P.P.P.P.P.P.* a H H H ..X.o.o.o.+.+.&.%.=.=.q.q.e.e.t.t.n.J.J.E # P.P.P.P.P.P.P.P.P.P.P.P.P.",
"P.P.P.P.P.P.P.P.P.> G H ......c P P P +.&.*.*.1.2.q.e.r.j.m.J.b.r o P.P.P.P.P.P.P.P.P.P.P.P.P.P.",
"P.P.P.P.P.P.P.P.P.P.7 H c x c c P P +.+.&.&.1.2.q.e.g.b.F.c.W > P.P.P.P.P.P.P.P.P.P.P.P.P.P.P.P.",
"P.P.P.P.P.P.P.P.P.P.- d k k z c P P ..@.%.,.<.0.f.g.g.:.D 4 o P.P.P.P.P.P.P.P.P.P.P.P.P.P.P.P.P.",
"P.P.P.P.P.P.P.P.P.P.P.- k k c c P P 6 w g h j j j w > # P.P.P.P.P.P.P.P.P.P.P.P.P.P.P.P.P.P.P.P.",
"P.P.P.P.P.P.P.P.P.P.P.P.5 k z c P g + P.P.P.P.P.P.P.P.P.P.P.P.P.P.P.P.P.P.P.P.P.P.P.P.P.P.P.P.P.",
"P.P.P.P.P.P.P.P.P.P.P.P.- g z c P q P.P.P.P.P.P.P.P.P.P.P.P.P.P.P.P.P.P.P.P.P.P.P.P.P.P.P.P.P.P.",
"P.P.P.P.P.P.P.P.P.P.P.P.P.3 z c P > P.P.P.P.P.P.P.P.P.P.P.P.P.P.P.P.P.P.P.P.P.P.P.P.P.P.P.P.P.P.",
"P.P.P.P.P.P.P.P.P.P.P.P.P.P.q z g # P.P.P.P.P.P.P.P.P.P.P.P.P.P.P.P.P.P.P.P.P.P.P.P.P.P.P.P.P.P.",
"P.P.P.P.P.P.P.P.P.P.P.P.P.P.- g q P.P.P.P.P.P.P.P.P.P.P.P.P.P.P.P.P.P.P.P.P.P.P.P.P.P.P.P.P.P.P.",
"P.P.P.P.P.P.P.P.P.P.P.P.P.P.P.3 > P.P.P.P.P.P.P.P.P.P.P.P.P.P.P.P.P.P.P.P.P.P.P.P.P.P.P.P.P.P.P.",
"P.P.P.P.P.P.P.P.P.P.P.P.P.P.P.P.P.P.P.P.P.P.P.P.P.P.P.P.P.P.P.P.P.P.P.P.P.P.P.P.P.P.P.P.P.P.P.P.",
"P.P.P.P.P.P.P.P.P.P.P.P.P.P.P.P.P.P.P.P.P.P.P.P.P.P.P.P.P.P.P.P.P.P.P.P.P.P.P.P.P.P.P.P.P.P.P.P."
};
