/* XPM */
static const char *refresh_64x64_xpm[] = {
/* columns rows colors chars-per-pixel */
"64 64 193 2 ",
"   c #234791",
".  c #2B4E99",
"X  c #2C519C",
"o  c #2B53A4",
"O  c #2756AA",
"+  c #2B56AE",
"@  c #2858AD",
"#  c #3257A7",
"$  c #325BAE",
"%  c #395EAD",
"&  c #2C5CB4",
"*  c #2C5EB8",
"=  c #345FB3",
"-  c #3360AF",
";  c #2E61BA",
":  c #3661B0",
">  c #3C63B5",
",  c #3265BE",
"<  c #3C65BB",
"1  c #3C6BBC",
"2  c #426DBB",
"3  c #486DBB",
"4  c #4166B4",
"5  c #536EB5",
"6  c #4D74BB",
"7  c #5273BB",
"8  c #5B77BA",
"9  c #5878BB",
"0  c #617CBE",
"q  c #0154CD",
"w  c #1755CD",
"e  c #1957CE",
"r  c #1D59CE",
"t  c #1B5BD0",
"y  c #235ACF",
"u  c #285BCF",
"i  c #225ED1",
"p  c #2E64C2",
"a  c #3264C3",
"s  c #336BC4",
"d  c #3B6EC4",
"f  c #3567CA",
"g  c #326CC9",
"h  c #3B6BCC",
"j  c #3672CD",
"k  c #3976CF",
"l  c #3F7ACC",
"z  c #2563D3",
"x  c #2B65D4",
"c  c #2C6AD6",
"v  c #2E6ED8",
"b  c #3267D4",
"n  c #346DD5",
"m  c #3A6ED4",
"M  c #376EDB",
"N  c #3B6FD9",
"B  c #2E71DB",
"V  c #3672D4",
"C  c #3B72D6",
"Z  c #3374DC",
"A  c #3C75D9",
"S  c #3679DE",
"D  c #3C7ADC",
"F  c #3979D4",
"G  c #3474E2",
"H  c #367BE2",
"J  c #3A7EE1",
"K  c #397EE8",
"L  c #446CC1",
"P  c #4B6FC0",
"I  c #426FCC",
"U  c #4474C4",
"Y  c #4E7CC6",
"T  c #4C7CCA",
"R  c #557BC3",
"E  c #527CCA",
"W  c #5B7DCF",
"Q  c #5174C1",
"!  c #4473D7",
"~  c #4D78D5",
"^  c #4375D9",
"/  c #417CDD",
"(  c #4D75DA",
")  c #647FC0",
"_  c #437CE4",
"`  c #6580BF",
"'  c #3D82E3",
"]  c #3E85EB",
"[  c #3F89EC",
"{  c #3C81F0",
"}  c #4E82CF",
"|  c #5980C5",
" . c #5782CD",
".. c #5982CC",
"X. c #5D89CF",
"o. c #4E8AD7",
"O. c #4380DF",
"+. c #4A80DF",
"@. c #4F88DE",
"#. c #4C81D1",
"$. c #5385D3",
"%. c #5B85D2",
"&. c #5689D3",
"*. c #5C8AD7",
"=. c #5781DB",
"-. c #5C8EDD",
";. c #5789DE",
":. c #5E95DB",
">. c #6782C1",
",. c #6B87C9",
"<. c #6088CD",
"1. c #6A88C7",
"2. c #698EDE",
"3. c #648AD6",
"4. c #6294DA",
"5. c #649CDF",
"6. c #6C96DA",
"7. c #7793D0",
"8. c #7897DA",
"9. c #4484E2",
"0. c #4C85E2",
"q. c #448AE7",
"w. c #4A8BE5",
"e. c #4087E9",
"r. c #438BEB",
"t. c #4E8FEC",
"y. c #5486E0",
"u. c #548AE4",
"i. c #5B8CE4",
"p. c #528CE9",
"a. c #5A8FEC",
"s. c #4E90E7",
"d. c #4791EA",
"f. c #4C94EB",
"g. c #4E99EE",
"h. c #5B92E2",
"j. c #5293EA",
"k. c #5B92EA",
"l. c #529BEE",
"z. c #5B9BED",
"x. c #5B9BE2",
"c. c #4B93F3",
"v. c #4F9AF3",
"b. c #529DF1",
"n. c #5D9CF1",
"m. c #559EF8",
"M. c #658EE3",
"N. c #6494E5",
"B. c #6C95E5",
"V. c #639AE4",
"C. c #6E9AE4",
"Z. c #6394EA",
"A. c #6A95EB",
"S. c #669BED",
"D. c #7095E7",
"F. c #7A99E0",
"G. c #759AEA",
"H. c #7A9CEA",
"J. c #609CF2",
"K. c #55A3F3",
"L. c #58A6F5",
"P. c #5AA9F7",
"I. c #5CA3FA",
"U. c #5DADF9",
"Y. c #5EB1FB",
"T. c #67A0E4",
"R. c #6BA3E9",
"E. c #70A0E3",
"W. c #7FA1EC",
"Q. c #62A3F5",
"!. c #69A6F5",
"~. c #63AAF7",
"^. c #6FADF0",
"/. c #64ABFA",
"(. c #68ADFD",
"). c #63B5FD",
"_. c #6EB5FC",
"`. c #65BAFF",
"'. c #6ABCFF",
"]. c #7FB4FF",
"[. c #75B4F8",
"{. c #6EC0FF",
"}. c #74C3FF",
"|. c #7CC6FF",
" X c #7DCAFF",
".X c #809EE1",
"XX c #82A2E8",
"oX c #83BDFD",
"OX c #83C4FF",
"+X c #82CAFF",
"@X c #88CCFF",
"#X c #95D1FF",
"$X c None",
/* pixels */
"$X$X$X$X$X$X$X$X$X$X$X$X$X$X$X$X$X$X$X$X$X$X$X$X$X$X$X$X$X$X$X$X$X$X$X$X$X$X$X$X$X$X$X$X$X$X$X$X$X$X$X$X$X$X$X$X$X$X$X$X$X$X$X$X",
"$X$X$X$X$X$X$X$X$X$X$X$X$X$X$X$X$X$X$X$X$X$X$X$X$X$X$X$X$X$X$X$X$X$X$X$X$X$X$X$X$X$X$X$X$X$X$X$X$X$X$X$X$X$X$X$X$X$X$X$X$X$X$X$X",
"$X$X$X$X$X$X$X$X$X$X$X$X$X$X$X$X$X$X$X$X$X$X$X$X$X$X$X$X$X$X$X$X$X$X$X$X$X$X$X$X$XX.3.$X$X$X$X$X$X$X$X$X$X$X$X$X$X$X$X$X$X$X$X$X",
"$X$X$X$X$X$X$X$X$X$X$X$X$X$X$X$X$X$X$X$X$X$X$X$X$X$X$X$X$X$X$X$X$X$X$X$X$X$X$X$X$X-.N.6 $X$X$X$X$X$X$X$X$X$X$X$X$X$X$X$X$X$X$X$X",
"$X$X$X$X$X$X$X$X$X$X$X$X$X$X$X$X$X$X$X$X$X$X$X$X$X$X$X$X$X$X$X$X$X$X$X$X$X$X$X$X6 k.M C.$X$X$X$X$X$X$X$X$X$X$X$X$X$X$X$X$X$X$X$X",
"$X$X$X$X$X$X$X$X$X$X$X$X$X$X$X$X$X$X$X$X$X$X$X$X$X$X$X$X$X$X$X$X$X$X$X$X$X$X$X$X..0.c ;.<.$X$X$X$X$X$X$X$X$X$X$X$X$X$X$X$X$X$X$X",
"$X$X$X$X$X$X$X$X$X$X$X$X$X$X$X$X$X$X$X$X$X$X$X$X$X$X$X$X$X$X$X$X$X$X$X$X$X$X$X$X-.D C Z S.6 $X$X$X$X$X$X$X$X$X$X$X$X$X$X$X$X$X$X",
"$X$X$X$X$X$X$X$X$X$X$X$X$X$X$X$X$X$X$X$X$X$X$X$X$X$X$X$X$X$X$X$X$X$X$X$X$X$X$X2 k.C C C ^ B.$X$X$X$X$X$X$X$X$X$X$X$X$X$X$X$X$X$X",
"$X$X$X$X$X$X$X$X$X$X$X$X$X$X$X$X$X$X$X$X$X$X$X$X$X$X$X$X$X$X$X$X$X$X$X$X$X$X$XT w.C ^ D F u...$X$X$X$X$X$X$X$X$X$X$X$X$X$X$X$X$X",
"$X$X$X$X$X$X$X$X$X$X$X$X$X$X$X$X$X$X$X$X$X$X$X$X$X$X$X$X$X7 R | | Y Y Y U L $ $./ A ^ A ^ C N.3 $X$X$X$X$X$X$X$X$X$X$X$X$X$X$X$X",
"$X$X$X$X$X$X$X$X$X$X$X$X$X$X$X$X$X$X$X$X$X$X$X$X$X9 ,.3.C.A.Z.i.p.0.p.p.p.j.j.@.A ^ D ^ D D O.N.$X$X$X$X$X$X$X$X$X$X$X$X$X$X$X$X",
"$X$X$X$X$X$X$X$X$X$X$X$X$X$X$X$X$X$X$X$X$X$X$X1.8.G.M./ V n b n m m m M C A ^ A D D / / / / D i...$X$X$X$X$X$X$X$X$X$X$X$X$X$X$X",
"$X$X$X$X$X$X$X$X$X$X$X$X$X$X$X$X$X$X$X$X$X>..XB.( c c m C C A C A A D ^ / D D A D D D A D D D D Z.3 $X$X$X$X$X$X$X$X$X$X$X$X$X$X",
"$X$X$X$X$X$X$X$X$X$X$X$X$X$X$X$X$X$X$X$X7.G.^ z m C C C C A A A A A C V n n v c c v v c v v B c Z i.$X$X$X$X$X$X$X$X$X$X$X$X$X$X",
"$X$X$X$X$X$X$X$X$X$X$X$X$X$X$X$X$X$X8 XX=.z m m C V C C C m n c x x z z z c c c n v v Z Z Z Z Z B 0.E $X$X$X$X$X$X$X$X$X$X$X$X$X",
"$X$X$X$X$X$X$X$X$X$X$X$X$X$X$X$X$X>.XXm x C m C C m m x z i z z z c c c v v v v v Z Z v Z Z Z Z Z B a.2 $X$X$X$X$X$X$X$X$X$X$X$X",
"$X$X$X$X$X$X$X$X$X$X$X$X$X$X$X$X>.H.b n m m C n x i y i z z z x z c c c v v B v v Z B Z Z S S S H S J i.$X$X$X$X$X$X$X$X$X$X$X$X",
"$X$X$X$X$X$X$X$X$X$X$X$X$X$X$X0 H.x m C m b y r t i z x z x c x c c v c v v Z B Z Z Z S S S S S S J H p.E $X$X$X$X$X$X$X$X$X$X$X",
"$X$X$X$X$X$X$X$X$X$X$X$X$X$X5 H.b C m x r w z x M M m h f f n M G G Z v v Z S B S Z S S S S S H J J ' J n.2 $X$X$X$X$X$X$X$X$X$X",
"$X$X$X$X$X$X$X$X$X$X$X$X$X$XF.^ b x w w b N h < $ o $X$X$X$X$X$Xo & p n Z Z B S S S S S S ' ' D ' ' ' ' q.N.$X$X$X$X$X$X$X$X$X$X",
"$X$X$X$X$X$X$X$X$X$X$X$X$X,.=.i y w b ! < # $X$X$X$X$X$X$X$X$X$X$X$X$X$Xj S B S S D ' S ' ' ' ' ' ' ' q.[ c.: $X$X$X$X$X$X$X$X$X",
"$X$X$X$X$X$X$X$X$X$X$X$X8 D.q w b ! < . $X$X$X$X$X$X$X$X$X$X$X$X$X$X$X$X' S S S S S ' ' ' ' ' ' ' [ r.' s $X$X$X$X$X$X$X$X$X$X$X",
"$X$X$X$X$X$X$X$X$X$X$X$X3.u w ! L . $X$X$X$X$X$X$X$X$X$X$X$X$X$X$X$X$Xp ] S S S ' S ' ' ' ' ' q.r.D , $X$X$X$X$X$X$X$X$X$X$X$X$X",
"$X$X$X$X$X$X$X$X$X$X$X9 ( u ~ % $X$X$X$X$X$X$X$X$X$X$X$X$X$X$X$X$X$X$Xj ] S ' S ' ' ' ' [ r.r.F ; $X$X$X$X$X$X$X$X$X$X$X$X$X$X$X",
"$X$X$X$X$X$X$X$X$X$X$XW ! L   $X$X$X$X$X$X$X$X$X$X$X$X$X$X$X$X$X$X$X$XA ' D ' ' ' ' ' e.r.V & $X$X$X$X$X$X$X$X$X$X$X$X$X$X$X$X$X",
"$X$X$X$X$X$X$X$X$X$X7 A.< $X$X$X$X$X$X$X$X$X$X$X$X$X$X$X$X$X$X$X$X$X$Xe.' H ' ' ] r.e.j O $X$X$X$X$X$X$X$X$X$X$X$X$X$X$X$X$X$X$X",
"$X$X$X$X$X$X$X$X$X$X3 4 $X$X$X$X$X$X$X$X$X$X$X$X$X$X$X$X$X$X$X$X$X$Xs r.' ' ' [ ' s $X$X$X$X$X$X$X$X$X$X$X$X$X$X$X$X$X$X$X$X$X$X",
"$X$X$X$X$X$X$X$X$X$X$X$X$X$X$X$X$X$X$X$X$X$X$X$X$X$X$X$X$X$X$X$X$X$XF e.' [ ' p $X$X$X$X$X$X$X$X$X$X$X$X$X$X$X$X$X$X$X$X$X$X$X$X",
"$X$X$X$X$X$X$X$X$X$X$X$X$X$X$X$X$X$X$X$X$X$X$X$X$X$X$X$X$X$X$X$X$X$X9.[ j ; $X$X$X$X$X$X$X$X$X$X$X$X$X$X$X$X$X$X$X$X$X$X$X$X$X$X",
"$X$X$X$X$X$X$X$X$X$X$X$X$X$X$X$X$X$X$X$X$X$X$X$X$X$X$X$X$X$X$X$X$X$Xj ; $X$X$X$X$X$X$X$X$X$X$X$X$X$X$X$X$X$X$X$X$X$X$X$X$X$X$X$X",
"$X$X$X$X$X$X$X$X$X$X$X$X$X$X$X$X$X$X$X$X$X$X$X$X$X$X$X$X$X$X$X$X$X$X$X$X$X$X$X$X$X$X$X$X$X$X$X$X$X$X$X$X$X$X$X$X$X$X$X$X$X$X$X$X",
"$X$X$X$X$X$X$X$X$X$X$X$X$X$X$X$X$X$X$X$X$X$X$X$X$X$X$X$X$X$X$X$X$X$X$X$X$X$X$X$X$X$X$X$X$X$X$X$X$X$X$X$X$X$X$X$X$X$X$X$X$X$X$X$X",
"$X$X$X$X$X$X$X$X$X$X$X$X$X$X$X$X$X$X$X$X$X$X$X$X$X$X$X$X$X$X$X$X$X$X$X$X$X$X$X$X$X$X$X$X$X$X$X$X$X$X$X$X$X$X$X$X$X$X$X$X$X$X$X$X",
"$X$X$X$X$X$X$X$X$X$X$X$X$X$X$X$X$X$X$X$X$X$X$X$X$X$X$X$X$X$X$X$X$X$X$X$X$X$X$X$X$X$X$X$X$X$X$X$X$X$X$X$X$X$X$X$X$X$X$X$X$X$X$X$X",
"$X$X$X$X$X$X$X$X$X$X$X$X$X$X$X$X$X$X$X$X$X$X$X$X$X$X$X$XU h.1 $X$X$X$X$X$X$X$X$X$X$X$X$X$X$X$X$X$X$X$X$X$X$X$X$X$X$X$X$X$X$X$X$X",
"$X$X$X$X$X$X$X$X$X$X$X$X$X$X$X$X$X$X$X$X$X$X$X$X$X$XT h.n.I.- $X$X$X$X$X$X$X$X$X$X$X$X$X$X$X$X$X$X$X$X$X$X$X$X$X$X$X$X$X$X$X$X$X",
"$X$X$X$X$X$X$X$X$X$X$X$X$X$X$X$X$X$X$X$X$X$X$X$XE N.n.j.j.;.$X$X$X$X$X$X$X$X$X$X$X$X$X$X$X$X$X$X$X$X$X$X$X$X$X$X$X$X$X$X$X$X$X$X",
"$X$X$X$X$X$X$X$X$X$X$X$X$X$X$X$X$X$X$X$X$X$X .A.z.p.w.q.K.} $X$X$X$X$X$X$X$X$X$X$X$X$X$X$X$X$X$X$X$X$X$X%.oX$X$X$X$X$X$X$X$X$X$X",
"$X$X$X$X$X$X$X$X$X$X$X$X$X$X$X$X$X$X$X<  .S.z.0.q.w.w.w.Q.1 $X$X$X$X$X$X$X$X$X$X$X$X$X$X$X$X$X$X$X$X$X*.#XE.$X$X$X$X$X$X$X$X$X$X",
"$X$X$X$X$X$X$X$X$X$X$X$X$X$X$X$X$X2 ..S.k.9.O.9.w.w.w.j.S.$X$X$X$X$X$X$X$X$X$X$X$X$X$X$X$X$X$X$X$X$XE.+X].: $X$X$X$X$X$X$X$X$X$X",
"$X$X$X$X$X$X$X$X$X$X$X$X$X$X$XP %.S.u.9.D +.9.w.w.w.w.z.*.$X$X$X$X$X$X$X$X$X$X$X$X$X$X$X$X$X$X$X$.oX|.|.C.$X$X$X$X$X$X$X$X$X$X$X",
"$X$X$X$X$X$X$X$X$X$X$X$X$XQ 3.Z.y.D D O.9.9.+.w.w.w.w.Q.} $X$X$X$X$X$X$X$X$X$X$X$X$X$X$X$X$X$XE.@X{.'.OX: $X$X$X$X$X$X$X$X$X$X$X",
"$X$X$X$X$X$X$X$X$X$X$XR 2.Z._ A S / O.9.O.w.w.w.w.s.s.!.- $X$X$X$X$X$X$X$X$X$X$X$X$X$X$X$X5.+X X'.`.+X4.$X$X$X$X$X$X$X$X$X$X$X$X",
"$X$X$X$X$X$X$X$X$X$XM.M./ C A / / / / 9.O.O.O.w.w.w.j.R.1 $X$X$X$X$X$X$X$X$X$X$X$X$X#.T.+X X'.'.'.}.[.$X$X$X$X$X$X$X$X$X$X$X$X$X",
"$X$X$X$X$X$X$X$X$X$X< D C ^ D ^ D D O.O.O.w.w.w.w.s.s.z.!.z.o.T U $X$X$X$X$Xl o.x._.|.}.{.`.'.'.}.+X2 $X$X$X$X$X$X$X$X$X$X$X$X$X",
"$X$X$X$X$X$X$X$X$X$X$XI D D D D O.O.O.w.w.O.w.O.w.s.s.s.s.n.~.~.(./.~.~./.).`.'.'.`.`.`.`.'.'.'.+X&.$X$X$X$X$X$X$X$X$X$X$X$X$X$X",
"$X$X$X$X$X$X$X$X$X$X$X+ _ D D / D O.O.O.O.w.w.w.w.s.s.j.j.l.g.v.K.K.L.L.L.P.U.U.~.).`.`.`.`.`. X:.$X$X$X$X$X$X$X$X$X$X$X$X$X$X$X",
"$X$X$X$X$X$X$X$X$X$X$X$X< _ D / D O.9.O.O.O.9.w.w.s.s.j.f.f.f.g.g.v.l.K.L.P.P.Y.Y.).`.`.`.`.+X5.$X$X$X$X$X$X$X$X$X$X$X$X$X$X$X$X",
"$X$X$X$X$X$X$X$X$X$X$X$X$Xm / ^ O.9./ O.9.9.w.w.w.w.d.q.d.d.f.g.g.b.K.K.L.P.U.U.Y.).`.`.{.+X4.$X$X$X$X$X$X$X$X$X$X$X$X$X$X$X$X$X",
"$X$X$X$X$X$X$X$X$X$X$X$X$X& _ D D / 9.9.9.w.q.' 9.' q.r.d.d.f.g.g.v.b.K.L.P.U.Y.).).`.{. X&.$X$X$X$X$X$X$X$X$X$X$X$X$X$X$X$X$X$X",
"$X$X$X$X$X$X$X$X$X$X$X$X$X$Xs _ / O.+.9.O.' D ' ' [ q.d.q.f.f.g.g.K.K.K.P.P.U.Y.Y.'. X^.1 $X$X$X$X$X$X$X$X$X$X$X$X$X$X$X$X$X$X$X",
"$X$X$X$X$X$X$X$X$X$X$X$X$X$X$XC 9.O./ S S J ' ' ' 9.q.q.d.f.f.f.g.b.K.K.L.P.Y.).}._.&.$X$X$X$X$X$X$X$X$X$X$X$X$X$X$X$X$X$X$X$X$X",
"$X$X$X$X$X$X$X$X$X$X$X$X$X$X$X& K S Z Z H D ' ' ' d.q.r.d.f.f.v.b.b.K.P.U.`._.R.$.$X$X$X$X$X$X$X$X$X$X$X$X$X$X$X$X$X$X$X$X$X$X$X",
"$X$X$X$X$X$X$X$X$X$X$X$X$X$X$X$Xp G Z S S H J ' ' ' r.c.c.v.m.m.L.I.I.L.h.$.1 $X$X$X$X$X$X$X$X$X$X$X$X$X$X$X$X$X$X$X$X$X$X$X$X$X",
"$X$X$X$X$X$X$X$X$X$X$X$X$X$X$X$X$Xn S S S ' ' ' ' @ $X; , d d d d 1 = $X$X$X$X$X$X$X$X$X$X$X$X$X$X$X$X$X$X$X$X$X$X$X$X$X$X$X$X$X",
"$X$X$X$X$X$X$X$X$X$X$X$X$X$X$X$X$X* H S S S D ] F $X$X$X$X$X$X$X$X$X$X$X$X$X$X$X$X$X$X$X$X$X$X$X$X$X$X$X$X$X$X$X$X$X$X$X$X$X$X$X",
"$X$X$X$X$X$X$X$X$X$X$X$X$X$X$X$X$X$Xp H H J J e.s $X$X$X$X$X$X$X$X$X$X$X$X$X$X$X$X$X$X$X$X$X$X$X$X$X$X$X$X$X$X$X$X$X$X$X$X$X$X$X",
"$X$X$X$X$X$X$X$X$X$X$X$X$X$X$X$X$X$X$XZ H J ' e.& $X$X$X$X$X$X$X$X$X$X$X$X$X$X$X$X$X$X$X$X$X$X$X$X$X$X$X$X$X$X$X$X$X$X$X$X$X$X$X",
"$X$X$X$X$X$X$X$X$X$X$X$X$X$X$X$X$X$X$X; K H ' S $X$X$X$X$X$X$X$X$X$X$X$X$X$X$X$X$X$X$X$X$X$X$X$X$X$X$X$X$X$X$X$X$X$X$X$X$X$X$X$X",
"$X$X$X$X$X$X$X$X$X$X$X$X$X$X$X$X$X$X$X$Xs K K s $X$X$X$X$X$X$X$X$X$X$X$X$X$X$X$X$X$X$X$X$X$X$X$X$X$X$X$X$X$X$X$X$X$X$X$X$X$X$X$X",
"$X$X$X$X$X$X$X$X$X$X$X$X$X$X$X$X$X$X$X$X$XZ ] & $X$X$X$X$X$X$X$X$X$X$X$X$X$X$X$X$X$X$X$X$X$X$X$X$X$X$X$X$X$X$X$X$X$X$X$X$X$X$X$X",
"$X$X$X$X$X$X$X$X$X$X$X$X$X$X$X$X$X$X$X$X$X; { $X$X$X$X$X$X$X$X$X$X$X$X$X$X$X$X$X$X$X$X$X$X$X$X$X$X$X$X$X$X$X$X$X$X$X$X$X$X$X$X$X",
"$X$X$X$X$X$X$X$X$X$X$X$X$X$X$X$X$X$X$X$X$X$X@ $X$X$X$X$X$X$X$X$X$X$X$X$X$X$X$X$X$X$X$X$X$X$X$X$X$X$X$X$X$X$X$X$X$X$X$X$X$X$X$X$X",
"$X$X$X$X$X$X$X$X$X$X$X$X$X$X$X$X$X$X$X$X$X$X$X$X$X$X$X$X$X$X$X$X$X$X$X$X$X$X$X$X$X$X$X$X$X$X$X$X$X$X$X$X$X$X$X$X$X$X$X$X$X$X$X$X"
};
