/* XPM */
static const char *remove_32x32_xpm[] = {
/* columns rows colors chars-per-pixel */
"32 32 238 2 ",
"   c #1C5ECF",
".  c #225FD4",
"X  c #2563D3",
"o  c #2763D3",
"O  c #2562D6",
"+  c #2766D5",
"@  c #2E66D1",
"#  c #2F66D1",
"$  c #2D66D2",
"%  c #2F67D2",
"&  c #2A64D5",
"*  c #2966D4",
"=  c #2866D5",
"-  c #2866D7",
";  c #2F66D4",
":  c #2A69D6",
">  c #2B6AD6",
",  c #2B6BD7",
"<  c #2C6BD7",
"1  c #2E6BD6",
"2  c #2A68D8",
"3  c #2C6ADA",
"4  c #2D6DD8",
"5  c #2E6DD8",
"6  c #2E6ED8",
"7  c #2F6FD9",
"8  c #2D6DDB",
"9  c #2F6FDD",
"0  c #3169D3",
"q  c #316AD3",
"w  c #376CD3",
"e  c #316BD5",
"r  c #326BD4",
"t  c #326AD5",
"y  c #346DD5",
"u  c #366CD4",
"i  c #376CD4",
"p  c #376DD4",
"a  c #376DD5",
"s  c #376ED5",
"d  c #356ED6",
"f  c #346FD7",
"g  c #376FD6",
"h  c #396CD3",
"j  c #386DD4",
"k  c #386DD5",
"l  c #386ED5",
"z  c #386FD5",
"x  c #366DD8",
"c  c #386ED8",
"v  c #396ED8",
"b  c #2A71D4",
"n  c #2D73D4",
"m  c #2D74D5",
"M  c #2E75D6",
"N  c #2E77D7",
"B  c #2F78D8",
"V  c #3970D6",
"C  c #3870D7",
"Z  c #3970D7",
"A  c #3971D7",
"S  c #3A71D7",
"D  c #3A72D7",
"F  c #3B73D7",
"G  c #397AD6",
"H  c #397BD6",
"J  c #3C7BD6",
"K  c #3271D9",
"L  c #3070DA",
"P  c #3171DA",
"I  c #3172DA",
"U  c #3172DB",
"Y  c #3273DB",
"T  c #3471D9",
"R  c #3773D9",
"E  c #3274DB",
"W  c #3172DE",
"Q  c #3374DC",
"!  c #3375DC",
"~  c #3376DD",
"^  c #3375DF",
"/  c #3476DC",
"(  c #3476DD",
")  c #3477DD",
"_  c #3972D8",
"`  c #3A73D8",
"'  c #3975D9",
"]  c #3B75D8",
"[  c #3B74D9",
"{  c #3B75D9",
"}  c #3B77DB",
"|  c #3C76D9",
" . c #3C77DA",
".. c #3C77DB",
"X. c #3578DD",
"o. c #3579DE",
"O. c #3678DE",
"+. c #3779DE",
"@. c #367ADF",
"#. c #377ADF",
"$. c #377BDF",
"%. c #327CDD",
"&. c #3A78DB",
"*. c #3B79DC",
"=. c #3B7ADC",
"-. c #387BDF",
";. c #3C7ADD",
":. c #3C7BDE",
">. c #3D7DDE",
",. c #3577E0",
"<. c #377AE1",
"1. c #387CE0",
"2. c #397CE0",
"3. c #397DE0",
"4. c #3A7EE0",
"5. c #3A7EE1",
"6. c #3B7FE1",
"7. c #397CE3",
"8. c #3F7EE0",
"9. c #3A7FE4",
"0. c #447FD6",
"q. c #507EE1",
"w. c #517EE2",
"e. c #3581DF",
"r. c #3A85D8",
"t. c #3E86DA",
"y. c #3D85DC",
"u. c #3D87DC",
"i. c #3F87DC",
"p. c #3D89DD",
"a. c #3682E0",
"s. c #3783E1",
"d. c #3B80E1",
"f. c #3B81E2",
"g. c #3C80E2",
"h. c #3C81E2",
"j. c #3D82E2",
"k. c #3D83E3",
"l. c #3E83E3",
"z. c #3986E1",
"x. c #3885E2",
"c. c #3986E3",
"v. c #3B87E3",
"b. c #3C86E0",
"n. c #3E84E3",
"m. c #3D81E4",
"M. c #3C81E5",
"N. c #3D82E5",
"B. c #3E83E6",
"V. c #3E84E4",
"C. c #3F85E4",
"Z. c #3F86E4",
"A. c #3F85E7",
"S. c #3C88E2",
"D. c #3C89E3",
"F. c #3D8AE3",
"G. c #3C89E4",
"H. c #3D8AE5",
"J. c #3D8BE5",
"K. c #3E8BE4",
"L. c #3F8DE5",
"P. c #3F82EB",
"I. c #4A86D6",
"U. c #4182DF",
"Y. c #4086DC",
"T. c #4187DC",
"R. c #4286DC",
"E. c #4387DC",
"W. c #4388DB",
"Q. c #4088DC",
"!. c #4389DC",
"~. c #4289DF",
"^. c #478ADD",
"/. c #5E8BD1",
"(. c #588AD4",
"). c #5B8CD4",
"_. c #5F8CD4",
"`. c #628BD0",
"'. c #678ED2",
"]. c #638ED4",
"[. c #6790D4",
"{. c #6990D2",
"}. c #6D90D2",
"|. c #6B90D4",
" X c #6D92D4",
".X c #7594D2",
"XX c #7392D4",
"oX c #7693D4",
"OX c #7394D6",
"+X c #4080E0",
"@X c #4382E2",
"#X c #4087E5",
"$X c #4187E5",
"%X c #4086E7",
"&X c #4F81E4",
"*X c #4D83E7",
"=X c #4F84E7",
"-X c #4288E0",
";X c #408DE5",
":X c #418EE6",
">X c #408FE7",
",X c #428FE6",
"<X c #4683EA",
"1X c #4187E8",
"2X c #4183EC",
"3X c #4184EC",
"4X c #4286ED",
"5X c #4387EE",
"6X c #4B83E8",
"7X c #4B84E9",
"8X c #4289E8",
"9X c #438AE9",
"0X c #448CEA",
"qX c #458DEA",
"wX c #4488EE",
"eX c #4689EF",
"rX c #5083E7",
"tX c #5282E6",
"yX c #5283E7",
"uX c #5483E6",
"iX c #5484E7",
"pX c #5784E6",
"aX c #5785E7",
"sX c #5083EA",
"dX c #4392E9",
"fX c #4790EE",
"gX c #458BF0",
"hX c #478AF0",
"jX c #468CF1",
"kX c #478DF1",
"lX c #478EF2",
"zX c #488BF0",
"xX c #498EF1",
"cX c #488EF2",
"vX c #498EF2",
"bX c #4C92F8",
"nX c #79A1FB",
"mX c None",
/* pixels */
"mXmXmXmXmXmXmXmXmXmXmXmXmXmXmXmXmXmXmXmXmXmXmXmXmXmXmXmXmXmXmXmX",
"mXmXmXmXmXmXmXmXmXmXmXmXmXmXmXmXmXmXmXmXmXmXmXmXmXmXmXmXmXmXmXmX",
"mXmXmXmXmXmXmXmXmXmXmXmXmXmXmXmXmXmXmXmXmXmXmXmXmXmXmXmXmXmXmXmX",
"mXmXmXmXmXmXmXmXmXmXmXmXmXmXmXmXmXmXmXmXmXmXmXmXmXmXmXmXmXmXmXmX",
"mXmXmXmXmXmXmXmXmXmXmXmXmXmXmXmXmXmXmXmXmXmXmXmXmXmXmXmXmXmXmXmX",
"mXmXmXmXmXmXmXmXmXmXmXmXmXmXmXmXmXmXmXmXmXmXmXmXmXmXmXmXmXmXmXmX",
"mXmXmXmXmXmXmXmXmXmXmXmXmXmXmXmXmXmXmXmXmXmXmXmXmXmXmXmXmXmXmXmX",
"mXmXmXmXmXmXmXmXmXmXmXmXmXmXmXmXmXmXmXmXmXmXmXmXmXmXmXmXmXmXmXmX",
"mXmXmXmXmXmXmXmXmXmXmXmXmXmXmXmXmXmXmXmXmXmXmXmXmXmXmXmXmXmXmXmX",
"mXmXmXmXmXmXmXmXmXmXmXmXmXmXmXmXmXmXmXmXmXmXmXmXmXmXmXmXmXmXmXmX",
"mXmXmXmXmXmXmXmXmXmXmXmXmXmXmXmXmXmXmXmXmXmXmXmXmXmXmXmXmXmXmXmX",
"mXoXOX X|.[.]._.).(.mXI.r.u.u.i.i.T.T.E.!.mXy.t.t.Q.Y.R.W.^.mXmX",
".XnXw.aXiXyXrX=X*X6X7X<XP.2X3X4X5XwXeXhXzXgXjXkXlXcXcXvXxXbX~.mX",
"XXq.  # $ % 0 q r y d g A D ] |  . ...} &.*.=.;.:.>.8.+XU.@X-XmX",
"}.pX# h i k l z V S ` [ { ' R T K P I Y ! ~ ) o.@.$.1.3.4.m.b.mX",
"{.uX@ w u a s g A F _ f 1 > , 4 7 I E / X.+.-.2.4.6.d.g.f.N.z.mX",
"'.tX@ i p a s S C e * + : < 6 L U Q ( O.#.1.4.6.h.j.k.l.V.%XS.mX",
"`.&X% j a s Z t o X = : < 5 7 U Q ( O.#.2.5.f.k.n.C.Z.#X$X8XF.mX",
"/.sX; v c x & . O - 2 3 8 9 W ^ ,.<.7.9.M.B.A.1X8X9X0X0XqXfX>XmX",
"mX0.G J H n b m M N B %.e.a.s.x.c.v.G.H.J.D.F.K.L.;X:X,X,XdXp.mX",
"mXmXmXmXmXmXmXmXmXmXmXmXmXmXmXmXmXmXmXmXmXmXmXmXmXmXmXmXmXmXmXmX",
"mXmXmXmXmXmXmXmXmXmXmXmXmXmXmXmXmXmXmXmXmXmXmXmXmXmXmXmXmXmXmXmX",
"mXmXmXmXmXmXmXmXmXmXmXmXmXmXmXmXmXmXmXmXmXmXmXmXmXmXmXmXmXmXmXmX",
"mXmXmXmXmXmXmXmXmXmXmXmXmXmXmXmXmXmXmXmXmXmXmXmXmXmXmXmXmXmXmXmX",
"mXmXmXmXmXmXmXmXmXmXmXmXmXmXmXmXmXmXmXmXmXmXmXmXmXmXmXmXmXmXmXmX",
"mXmXmXmXmXmXmXmXmXmXmXmXmXmXmXmXmXmXmXmXmXmXmXmXmXmXmXmXmXmXmXmX",
"mXmXmXmXmXmXmXmXmXmXmXmXmXmXmXmXmXmXmXmXmXmXmXmXmXmXmXmXmXmXmXmX",
"mXmXmXmXmXmXmXmXmXmXmXmXmXmXmXmXmXmXmXmXmXmXmXmXmXmXmXmXmXmXmXmX",
"mXmXmXmXmXmXmXmXmXmXmXmXmXmXmXmXmXmXmXmXmXmXmXmXmXmXmXmXmXmXmXmX",
"mXmXmXmXmXmXmXmXmXmXmXmXmXmXmXmXmXmXmXmXmXmXmXmXmXmXmXmXmXmXmXmX",
"mXmXmXmXmXmXmXmXmXmXmXmXmXmXmXmXmXmXmXmXmXmXmXmXmXmXmXmXmXmXmXmX",
"mXmXmXmXmXmXmXmXmXmXmXmXmXmXmXmXmXmXmXmXmXmXmXmXmXmXmXmXmXmXmXmX"
};
