/* XPM */
static const char *remove_48x48_xpm[] = {
/* columns rows colors chars-per-pixel */
"48 48 75 1 ",
"  c #1B5ECF",
". c #225FCF",
"X c #235ED1",
"o c #347BCC",
"O c #2663D3",
"+ c #2A66D3",
"@ c #2C6AD6",
"# c #2766D8",
"$ c #2768D9",
"% c #2D6DD9",
"& c #3367D3",
"* c #366CD4",
"= c #396ED5",
"- c #376FD8",
"; c #386FD8",
": c #2E7AD7",
"> c #2F71DC",
", c #3971D7",
"< c #327DD7",
"1 c #3273DB",
"2 c #3A74D9",
"3 c #357ADD",
"4 c #3B7ADD",
"5 c #3376E1",
"6 c #357AE2",
"7 c #3A7DE1",
"8 c #487ECD",
"9 c #417DDE",
"0 c #417EE0",
"q c #3E82D7",
"w c #3381DC",
"e c #3C84D9",
"r c #3E89DD",
"t c #3685E1",
"y c #3D82E3",
"u c #3B8CE4",
"i c #3F85E8",
"p c #3F88E9",
"a c #3F90E6",
"s c #3F91F4",
"d c #4384D6",
"f c #428ADD",
"g c #488EDE",
"h c #5C8ED6",
"j c #578ED9",
"k c #6685C9",
"l c #6390D6",
"z c #6B93D6",
"x c #6390DF",
"c c #7295D7",
"v c #7596D8",
"b c #7A9AD9",
"n c #4184E3",
"m c #4E85E7",
"M c #4289E6",
"N c #4285EA",
"B c #458BEC",
"V c #498CEE",
"C c #5386E5",
"Z c #5986E4",
"A c #5D88E5",
"S c #4091E6",
"D c #4791ED",
"F c #4394F5",
"G c #4A97F5",
"H c #4698F7",
"J c #4599F9",
"K c #6794E3",
"L c #6C96E4",
"P c #6D93E9",
"I c #6599ED",
"U c #7499E5",
"Y c #4EA2FF",
"T c #8DAFF4",
"R c None",
/* pixels */
"RRRRRRRRRRRRRRRRRRRRRRRRRRRRRRRRRRRRRRRRRRRRRRRR",
"RRRRRRRRRRRRRRRRRRRRRRRRRRRRRRRRRRRRRRRRRRRRRRRR",
"RRRRRRRRRRRRRRRRRRRRRRRRRRRRRRRRRRRRRRRRRRRRRRRR",
"RRRRRRRRRRRRRRRRRRRRRRRRRRRRRRRRRRRRRRRRRRRRRRRR",
"RRRRRRRRRRRRRRRRRRRRRRRRRRRRRRRRRRRRRRRRRRRRRRRR",
"RRRRRRRRRRRRRRRRRRRRRRRRRRRRRRRRRRRRRRRRRRRRRRRR",
"RRRRRRRRRRRRRRRRRRRRRRRRRRRRRRRRRRRRRRRRRRRRRRRR",
"RRRRRRRRRRRRRRRRRRRRRRRRRRRRRRRRRRRRRRRRRRRRRRRR",
"RRRRRRRRRRRRRRRRRRRRRRRRRRRRRRRRRRRRRRRRRRRRRRRR",
"RRRRRRRRRRRRRRRRRRRRRRRRRRRRRRRRRRRRRRRRRRRRRRRR",
"RRRRRRRRRRRRRRRRRRRRRRRRRRRRRRRRRRRRRRRRRRRRRRRR",
"RRRRRRRRRRRRRRRRRRRRRRRRRRRRRRRRRRRRRRRRRRRRRRRR",
"RRRRRRRRRRRRRRRRRRRRRRRRRRRRRRRRRRRRRRRRRRRRRRRR",
"RRRRRRRRRRRRRRRRRRRRRRRRRRRRRRRRRRRRRRRRRRRRRRRR",
"RRRRRRRRRRRRRRRRRRRRRRRRRRRRRRRRRRRRRRRRRRRRRRRR",
"RRRRRRRRRRRRRRRRRRRRRRRRRRRRRRRRRRRRRRRRRRRRRRRR",
"RRRRRRRRRRRRRRRRRRRRRRRRRRRRRRRRRRRRRRRRRRRRRRRR",
"RkbvccczzlllhhhjjfefrrrfrffMffgfferrrfffffgMgdRR",
"RTPZAAhZZCZCCCmmmniNNNNMBNBVNVVBNVNVBVBVVVVVVYoR",
"RU .+O.&++++&@&---=-,,,,2222929499990000000f9DoR",
"RU====&=*,,,,,,,222222444444244347467477n0nnfGoR",
"RU&&=&*****==,,,=22222221-1%-1111133374446779FoR",
"RU*&==****=,,,,122211@@@%%->11133364777tt7777FoR",
"RL**=**=*,*=,,,2-@@+@@>>-11131353737774y7yyy7FoR",
"RL*&=&==**=,,,*+O@@@%%%%>11314364777yyyyyyyeysoR",
"RL&&=*=*--,,-+OO@@@@%%1111134547t47yyyyyMyNMNJoR",
"RK***==*;2-+.O++@@@%%1>513333777tyyyynNMMMMMMJoR",
"Rx&*****=+XXOOO+O@%@%%>>11357777yyyyyMunMMMMMJqR",
"RI;-=21;%X##$$$>%>>55566676i7ppNpMBBBBDDDDDDDYoR",
"R8qqdqq3:::<w<w3wttuuuuuuuuuuuauuuuaaaaSaaSSSuRR",
"RRRRRRRRRRRRRRRRRRRRRRRRRRRRRRRRRRRRRRRRRRRRRRRR",
"RRRRRRRRRRRRRRRRRRRRRRRRRRRRRRRRRRRRRRRRRRRRRRRR",
"RRRRRRRRRRRRRRRRRRRRRRRRRRRRRRRRRRRRRRRRRRRRRRRR",
"RRRRRRRRRRRRRRRRRRRRRRRRRRRRRRRRRRRRRRRRRRRRRRRR",
"RRRRRRRRRRRRRRRRRRRRRRRRRRRRRRRRRRRRRRRRRRRRRRRR",
"RRRRRRRRRRRRRRRRRRRRRRRRRRRRRRRRRRRRRRRRRRRRRRRR",
"RRRRRRRRRRRRRRRRRRRRRRRRRRRRRRRRRRRRRRRRRRRRRRRR",
"RRRRRRRRRRRRRRRRRRRRRRRRRRRRRRRRRRRRRRRRRRRRRRRR",
"RRRRRRRRRRRRRRRRRRRRRRRRRRRRRRRRRRRRRRRRRRRRRRRR",
"RRRRRRRRRRRRRRRRRRRRRRRRRRRRRRRRRRRRRRRRRRRRRRRR",
"RRRRRRRRRRRRRRRRRRRRRRRRRRRRRRRRRRRRRRRRRRRRRRRR",
"RRRRRRRRRRRRRRRRRRRRRRRRRRRRRRRRRRRRRRRRRRRRRRRR",
"RRRRRRRRRRRRRRRRRRRRRRRRRRRRRRRRRRRRRRRRRRRRRRRR",
"RRRRRRRRRRRRRRRRRRRRRRRRRRRRRRRRRRRRRRRRRRRRRRRR",
"RRRRRRRRRRRRRRRRRRRRRRRRRRRRRRRRRRRRRRRRRRRRRRRR",
"RRRRRRRRRRRRRRRRRRRRRRRRRRRRRRRRRRRRRRRRRRRRRRRR",
"RRRRRRRRRRRRRRRRRRRRRRRRRRRRRRRRRRRRRRRRRRRRRRRR",
"RRRRRRRRRRRRRRRRRRRRRRRRRRRRRRRRRRRRRRRRRRRRRRRR"
};
