/* XPM */
static const char *rename_24x24_xpm[] = {
/* columns rows colors chars-per-pixel */
"24 24 38 1 ",
"  c #66798F",
". c #6A7D93",
"X c #8898AA",
"o c #8A9EB3",
"O c #8CA0B5",
"+ c #9BA9B8",
"@ c #A7B7C7",
"# c #A8B7C7",
"$ c #E9F2F9",
"% c #EBF3FA",
"& c #ECF3FA",
"* c #EDF4FA",
"= c #EEF4FA",
"- c #EEF5FB",
"; c #EFF5FB",
": c #EFF6FB",
"> c #F0F6FB",
", c #F1F6FB",
"< c #F1F7FB",
"1 c #F2F7FC",
"2 c #F3F7FC",
"3 c #F3F8FC",
"4 c #F4F8FC",
"5 c #F4F9FC",
"6 c #F5F9FC",
"7 c #F6F9FD",
"8 c #F6FAFD",
"9 c #F7FAFD",
"0 c #F8FBFD",
"q c #F9FBFD",
"w c #F9FCFE",
"e c #FAFCFE",
"r c #FBFCFE",
"t c #FBFDFE",
"y c #FCFDFE",
"u c #FDFDFE",
"i c #FDFEFE",
"p c None",
/* pixels */
"pppppppppppppppppppppppp",
"pppppppppppppppppppppppp",
"pppppppppppppppppppppppp",
"pppppppppppppppppppppppp",
"pppppppppppppppppppppppp",
"pppppppppppppppppppppppp",
"pppppppppppppppppppppppp",
"pppppppppppppppppppppppp",
"                       .",
" $%*-:,1334667899999999@",
" & X <23567899000qqqqq0@",
" =; 134689900qqweeeeeee@",
" >< 467990qqeeeerrtttrr#",
" < + 890qqeerrttyyyyyyy#",
" 246890qeerttyyyyyuiiyy#",
"oOOOOOOOOOOOOOOOOOOOOOOO",
"pppppppppppppppppppppppp",
"pppppppppppppppppppppppp",
"pppppppppppppppppppppppp",
"pppppppppppppppppppppppp",
"pppppppppppppppppppppppp",
"pppppppppppppppppppppppp",
"pppppppppppppppppppppppp",
"pppppppppppppppppppppppp"
};
