/* XPM */
static const char *right2_24x24_xpm[] = {
/* columns rows colors chars-per-pixel */
"24 24 133 2 ",
"   c #AF1818",
".  c #AE1919",
"X  c #AF1919",
"o  c #AC1A1A",
"O  c #AD1A1A",
"+  c #AC1B1B",
"@  c #AD1B1B",
"#  c #AE1A1A",
"$  c #AB1C1C",
"%  c #AA1D1D",
"&  c #AA1E1E",
"*  c #AB1E1E",
"=  c #AC1C1C",
"-  c #AD1C1C",
";  c #AC1D1D",
":  c #B01818",
">  c #B72B2B",
",  c #BE3333",
"<  c #BF3434",
"1  c #BF3535",
"2  c #CD1A1A",
"3  c #CE1B1B",
"4  c #CF1C1C",
"5  c #CE1F1F",
"6  c #D01C1C",
"7  c #D01D1D",
"8  c #D11E1E",
"9  c #D21E1E",
"0  c #D21F1F",
"q  c #D31F1F",
"w  c #D32020",
"e  c #D42121",
"r  c #D52121",
"t  c #D62222",
"y  c #D72323",
"u  c #D82424",
"i  c #D92525",
"p  c #DA2525",
"a  c #DA2626",
"s  c #DB2626",
"d  c #DC2727",
"f  c #D32A2A",
"g  c #D42929",
"h  c #D12D2D",
"j  c #D62C2C",
"k  c #DC2828",
"l  c #DD2828",
"z  c #DD2929",
"x  c #DE2929",
"c  c #DF2A2A",
"v  c #C03636",
"b  c #C13737",
"n  c #C5373A",
"m  c #C23838",
"M  c #C33B3B",
"N  c #C43C3C",
"B  c #D53232",
"V  c #D93135",
"C  c #DB3337",
"Z  c #D83438",
"A  c #DB3C3C",
"S  c #DE3E3E",
"D  c #E02B2B",
"F  c #E12C2C",
"G  c #E22D2D",
"H  c #E32E2E",
"J  c #E53333",
"K  c #E63B3B",
"L  c #C73D40",
"P  c #CD3D43",
"I  c #CB3F45",
"U  c #E93F43",
"Y  c #D64040",
"T  c #D64747",
"R  c #DB4747",
"E  c #D85151",
"W  c #D95252",
"Q  c #DC5151",
"!  c #D95757",
"~  c #DA5656",
"^  c #DB5656",
"/  c #DA5757",
"(  c #DC5555",
")  c #D75959",
"_  c #D55B5B",
"`  c #D65A5A",
"'  c #D75A5A",
"]  c #D65B5B",
"[  c #D45C5C",
"{  c #D55C5C",
"}  c #D85858",
"|  c #D95858",
" . c #D85959",
".. c #DC5C5C",
"X. c #DE5E5E",
"o. c #E54545",
"O. c #E74646",
"+. c #EA4044",
"@. c #EB4549",
"#. c #E35050",
"$. c #E75454",
"%. c #E15F63",
"&. c #DF6367",
"*. c #DF6468",
"=. c #E16161",
"-. c #E16165",
";. c #E06266",
":. c #E16266",
">. c #E06367",
",. c #E16464",
"<. c #E36565",
"1. c #E46767",
"2. c #E86363",
"3. c #EC6363",
"4. c #E56868",
"5. c #E66868",
"6. c #E76969",
"7. c #ED6B6B",
"8. c #EA6C6C",
"9. c #EB6D6D",
"0. c #ED6E6E",
"q. c #EE6F6F",
"w. c #F16D71",
"e. c #E77E7E",
"r. c #F6737D",
"t. c #FF7888",
"y. c #FA7C89",
"u. c #E78888",
"i. c #E68989",
"p. c #E58A8A",
"a. c #E58A8B",
"s. c #E48B8B",
"d. c None",
/* pixels */
"d.d.d.d.d.d.d.d.d.d.d.d.d.d.d.d.d.d.d.d.d.d.d.d.",
"d.d.d.d.d.d.d.d.d.d.d.d.$ $ d.d.d.d.d.d.d.d.d.d.",
"d.d.d.d.d.d.d.d.d.d.d.d.$ I * d.d.d.d.d.d.d.d.d.",
"d.d.d.d.d.d.d.d.d.d.d.d.$ t.L & d.d.d.d.d.d.d.d.",
"d.d.d.d.d.d.d.d.d.d.d.d.$ t.w.N & d.d.d.d.d.d.d.",
"d.d.d.d.d.d.d.d.d.d.d.d.$ t.@.3.N & d.d.d.d.d.d.",
"X . # # O O @ @ @ + + = = t.+.J 7.N % d.d.d.d.d.",
"X y.a.s.p.i.i.u.e.<.1.5.6.r.U H K 7.N % d.d.d.d.",
"X t.-. .! ~ ^ ( R t u p d z c F H K q.N ; d.d.d.",
"X t.-. .| / ^ ( Q e t u a d x c F G O.0.N ; d.d.",
"X t.:.)  .! ~ ^ ( q r y u a d z c D F o.9.M + d.",
"X t.:.'  .| / ~ ( g w r y u a d l x c D $.8.1 + ",
"X t.;.' )  .! ~ ^ B 9 w r y u p s k l x c 2.=.$ ",
"X t.>.] ' ) } ! ~ Y 7 9 w r t u i a s d #.6.> + ",
"  t.&._ ` )  .} ! W 3 7 8 q e t y u i S 4.m + d.",
": t.&.{ ] ' )  .| ! h 3 6 8 0 w r t A <.b + d.d.",
": t.*.[ _ ] ` )  .} T 2 3 4 7 8 0 j ,.b @ d.d.d.",
": t.t.t.t.t.t.t.t.t.t.t.t.t.C 4 f X.v - d.d.d.d.",
": : :   X X X X . . # # # t.V 5 ..1 o d.d.d.d.d.",
"d.d.d.d.d.d.d.d.d.d.d.d.# t.Z E < o d.d.d.d.d.d.",
"d.d.d.d.d.d.d.d.d.d.d.d.. t.%., # d.d.d.d.d.d.d.",
"d.d.d.d.d.d.d.d.d.d.d.d.X t.n # d.d.d.d.d.d.d.d.",
"d.d.d.d.d.d.d.d.d.d.d.d.X P X d.d.d.d.d.d.d.d.d.",
"d.d.d.d.d.d.d.d.d.d.d.d.X X d.d.d.d.d.d.d.d.d.d."
};
