/* XPM */
static const char *right2_32x32_xpm[] = {
/* columns rows colors chars-per-pixel */
"32 32 155 2 ",
"   c #A71C1C",
".  c #A81B1B",
"X  c #AB1A1A",
"o  c #AA1B1B",
"O  c #AB1B1B",
"+  c #AC1919",
"@  c #AF1818",
"#  c #AE1919",
"$  c #AF1919",
"%  c #AC1A1A",
"&  c #AD1A1A",
"*  c #AC1B1B",
"=  c #AD1B1B",
"-  c #AE1A1A",
";  c #A81C1C",
":  c #A91C1C",
">  c #AA1C1C",
",  c #AB1C1C",
"<  c #AC1C1C",
"1  c #B01818",
"2  c #CC1919",
"3  c #CD1A1A",
"4  c #CE1B1B",
"5  c #CF1C1C",
"6  c #D01C1C",
"7  c #D01D1D",
"8  c #D11D1D",
"9  c #D11E1E",
"0  c #D21E1E",
"q  c #D21F1F",
"w  c #D31F1F",
"e  c #D32020",
"r  c #D42020",
"t  c #D42121",
"y  c #D52121",
"u  c #D62222",
"i  c #D72323",
"p  c #D12626",
"a  c #D82424",
"s  c #D92424",
"d  c #D92525",
"f  c #DA2525",
"g  c #DA2626",
"h  c #DB2626",
"j  c #DB2727",
"k  c #DC2727",
"l  c #D42C2C",
"z  c #DC2828",
"x  c #DD2828",
"c  c #DD2929",
"v  c #DE2929",
"b  c #DE2A2A",
"n  c #DF2A2A",
"m  c #D72F33",
"M  c #D13030",
"N  c #D53333",
"B  c #D83034",
"V  c #D93135",
"C  c #DA3236",
"Z  c #D53C3C",
"A  c #E02B2B",
"S  c #E12C2C",
"D  c #E22D2D",
"F  c #E32E2E",
"G  c #E42E2E",
"H  c #E42F2F",
"J  c #E52F2F",
"K  c #E23031",
"L  c #E53030",
"P  c #E83F43",
"I  c #C94343",
"U  c #CA4444",
"Y  c #CB4545",
"T  c #CC4646",
"R  c #CD4848",
"E  c #CE4848",
"W  c #CE4949",
"Q  c #CF4B4B",
"!  c #D74040",
"~  c #D44343",
"^  c #D64545",
"/  c #D84747",
"(  c #DB4747",
")  c #DC4747",
"_  c #D24A4E",
"`  c #D14C4C",
"'  c #D14D4D",
"]  c #D24E4E",
"[  c #D34E4E",
"{  c #D34F4F",
"}  c #DA4949",
"|  c #DC4A4A",
" . c #D94E4E",
".. c #D84F4F",
"X. c #DE4C4C",
"o. c #D45050",
"O. c #D55050",
"+. c #D55151",
"@. c #D95256",
"#. c #D95757",
"$. c #DA5656",
"%. c #DB5656",
"&. c #DA5757",
"*. c #DD5454",
"=. c #DC5555",
"-. c #DD5555",
";. c #DC5656",
":. c #DF565A",
">. c #D75959",
",. c #D55B5B",
"<. c #D65A5A",
"1. c #D75A5A",
"2. c #D65B5B",
"3. c #D45C5C",
"4. c #D45D5D",
"5. c #D85858",
"6. c #D95858",
"7. c #D85959",
"8. c #E94044",
"9. c #EA4044",
"0. c #EB4145",
"q. c #E04E4E",
"w. c #E25050",
"e. c #E45151",
"r. c #E65353",
"t. c #E75454",
"y. c #E85555",
"u. c #E95656",
"i. c #EA5757",
"p. c #EB5757",
"a. c #E1545E",
"s. c #EB5858",
"d. c #E05660",
"f. c #DF6367",
"g. c #DE6468",
"h. c #E16165",
"j. c #E06266",
"k. c #E16266",
"l. c #E36565",
"z. c #E46666",
"x. c #E56868",
"c. c #E76868",
"v. c #E86A6A",
"b. c #F06569",
"n. c #E77E7E",
"m. c #F7737D",
"M. c #F57F89",
"N. c #FF7888",
"B. c #E38B8B",
"V. c #E78888",
"C. c #E68989",
"Z. c #E48A8A",
"A. c #E58A8A",
"S. c #E48B8B",
"D. c None",
/* pixels */
"D.D.D.D.D.D.D.D.D.D.D.D.D.D.D.D.D.D.D.D.D.D.D.D.D.D.D.D.D.D.D.D.",
"D.D.D.D.D.D.D.D.D.D.D.D.D.D.D.D.D.D.D.D.D.D.D.D.D.D.D.D.D.D.D.D.",
"D.D.D.D.D.D.D.D.D.D.D.D.D.D.D., ; D.D.D.D.D.D.D.D.D.D.D.D.D.D.D.",
"D.D.D.D.D.D.D.D.D.D.D.D.D.D.D., d.; D.D.D.D.D.D.D.D.D.D.D.D.D.D.",
"D.D.D.D.D.D.D.D.D.D.D.D.D.D.D., N.@.; D.D.D.D.D.D.D.D.D.D.D.D.D.",
"D.D.D.D.D.D.D.D.D.D.D.D.D.D.D., N.b.O.  D.D.D.D.D.D.D.D.D.D.D.D.",
"D.D.D.D.D.D.D.D.D.D.D.D.D.D.D., N.0.i.O.  D.D.D.D.D.D.D.D.D.D.D.",
"D.D.D.D.D.D.D.D.D.D.D.D.D.D.D., N.9.J p.+.  D.D.D.D.D.D.D.D.D.D.",
"# # - - - & & = = = * * * < < , N.8.G L s.+.  D.D.D.D.D.D.D.D.D.",
"# M.B.S.Z.A.C.C.V.V.n.l.z.x.c.v.m.P D H L s.+.  D.D.D.D.D.D.D.D.",
"$ N.h.7.6.&.$.%.=.*.) u i d h x v K S F H L s.+.  D.D.D.D.D.D.D.",
"$ N.h.>.7.#.$.%.;.-.( y i a f j x b A S F H L p.O.  D.D.D.D.D.D.",
"$ N.h.>.7.6.&.$.%.=.-.r u i d g k c b A S D F H i.O.; D.D.D.D.D.",
"$ N.k.>.7.5.#.$.%.;.=.w y u i d g k c b A S D F G u.o.; D.D.D.D.",
"$ N.j.1.>.7.6.&.$.%.=.l e y u a d g k x v n A S D D y.{ . D.D.D.",
"$ N.j.<.>.7.7.#.$.$.%.N q r y u a d g j x v b n A S S t.[ . D.D.",
"$ N.j.2.1.>.7.5.#.$.%.! 9 q r y u i s f h k x v v n n r.] : D.D.",
"$ N.f.,.<.1.>.7.#.#.$. .6 9 q r y u i a d g j k z x e.' > D.D.D.",
"$ N.f.,.2.<.>.>.7.#.$.$.p 6 9 q e t u i i a d f g w.` > D.D.D.D.",
"@ N.f.,.,.2.1.>.7.5.#.$.Z 4 6 8 0 w r y u i i a q.Q o D.D.D.D.D.",
"@ N.g.3.,.,.<.1.>.7.5.#...3 4 5 7 9 q e r y u X.W o D.D.D.D.D.D.",
"1 N.g.4.3.,.,.<.1.>.7.5.#.M 3 4 5 6 8 9 q w | E O D.D.D.D.D.D.D.",
"1 N.N.N.N.N.N.N.N.N.N.N.N.N.N.N.N.C 5 7 8 } R O D.D.D.D.D.D.D.D.",
"1 1 @ @ $ $ $ $ $ # # - - - - - N.V 3 4 / T O D.D.D.D.D.D.D.D.D.",
"D.D.D.D.D.D.D.D.D.D.D.D.D.D.D.- N.B 2 ^ Y X D.D.D.D.D.D.D.D.D.D.",
"D.D.D.D.D.D.D.D.D.D.D.D.D.D.D.- N.m ~ U % D.D.D.D.D.D.D.D.D.D.D.",
"D.D.D.D.D.D.D.D.D.D.D.D.D.D.D.- N.:.I % D.D.D.D.D.D.D.D.D.D.D.D.",
"D.D.D.D.D.D.D.D.D.D.D.D.D.D.D.# N._ % D.D.D.D.D.D.D.D.D.D.D.D.D.",
"D.D.D.D.D.D.D.D.D.D.D.D.D.D.D.$ a.+ D.D.D.D.D.D.D.D.D.D.D.D.D.D.",
"D.D.D.D.D.D.D.D.D.D.D.D.D.D.D.$ - D.D.D.D.D.D.D.D.D.D.D.D.D.D.D.",
"D.D.D.D.D.D.D.D.D.D.D.D.D.D.D.D.D.D.D.D.D.D.D.D.D.D.D.D.D.D.D.D.",
"D.D.D.D.D.D.D.D.D.D.D.D.D.D.D.D.D.D.D.D.D.D.D.D.D.D.D.D.D.D.D.D."
};
