/* XPM */
static const char *right2_64x64_xpm[] = {
/* columns rows colors chars-per-pixel */
"64 64 115 2 ",
"   c #830202",
".  c #980000",
"X  c #8C1313",
"o  c #941F1F",
"O  c #9B1919",
"+  c #A60500",
"@  c #A7221F",
"#  c #9B2524",
"$  c #A02121",
"%  c #A32B2C",
"&  c #AC2E2E",
"*  c #B12F33",
"=  c #A53232",
"-  c #AB3333",
";  c #AD3939",
":  c #B23535",
">  c #B7373C",
",  c #BF373E",
"<  c #B53C3C",
"1  c #BA3D3D",
"2  c #C30401",
"3  c #CB0505",
"4  c #C60A04",
"5  c #C90B04",
"6  c #CB0C0B",
"7  c #D00D0D",
"8  c #C5130F",
"9  c #C71111",
"0  c #CB1414",
"q  c #C71819",
"w  c #CD1B1B",
"e  c #D21515",
"r  c #D21E1E",
"t  c #DA1C1C",
"y  c #E01C1C",
"u  c #DC211F",
"i  c #E0221F",
"p  c #CF2529",
"a  c #CD2D2C",
"s  c #D52222",
"d  c #DA2626",
"f  c #D32B2B",
"g  c #DE2929",
"h  c #CD2D33",
"j  c #D02F35",
"k  c #CE3035",
"l  c #D33235",
"z  c #DA3232",
"x  c #D0353B",
"c  c #D73939",
"v  c #D93C3C",
"b  c #E42626",
"n  c #E02826",
"m  c #E22D2D",
"M  c #E82D2D",
"N  c #E63131",
"B  c #E83434",
"V  c #E6393D",
"C  c #EA3B3B",
"Z  c #BE3741",
"A  c #BC3942",
"S  c #C03841",
"D  c #E73C40",
"F  c #E83C41",
"G  c #B74141",
"H  c #BC4343",
"J  c #BF4048",
"K  c #BE5656",
"L  c #BD5858",
"P  c #C24444",
"I  c #C44A4A",
"U  c #CB4B4B",
"Y  c #D64242",
"T  c #DA4545",
"R  c #D54B4B",
"E  c #DB4C4C",
"W  c #D0504E",
"Q  c #CE5554",
"!  c #CE5857",
"~  c #C0585A",
"^  c #CD5A58",
"/  c #D45655",
"(  c #D95555",
")  c #D65857",
"_  c #D55959",
"`  c #DA5858",
"'  c #E54243",
"]  c #EA4545",
"[  c #EF4B4C",
"{  c #E45656",
"}  c #EB5555",
"|  c #E45E5E",
" . c #EB5B5B",
".. c #F15454",
"X. c #F25D5D",
"o. c #DC5762",
"O. c #EC5B66",
"+. c #E05C69",
"@. c #DF6C6B",
"#. c #ED6061",
"$. c #E9666E",
"%. c #E66D6D",
"&. c #EA6A6A",
"*. c #F36161",
"=. c #E66B72",
"-. c #EB6B72",
";. c #F16674",
":. c #F36976",
">. c #FB6977",
",. c #F56C7A",
"<. c #FE6E7B",
"1. c #FE727F",
"2. c #F87B81",
"3. c #FF7A88",
"4. c None",
/* pixels */
"4.4.4.4.4.4.4.4.4.4.4.4.4.4.4.4.4.4.4.4.4.4.4.4.4.4.4.4.4.4.4.4.4.4.4.4.4.4.4.4.4.4.4.4.4.4.4.4.4.4.4.4.4.4.4.4.4.4.4.4.4.4.4.4.",
"4.4.4.4.4.4.4.4.4.4.4.4.4.4.4.4.4.4.4.4.4.4.4.4.4.4.4.4.4.4.4.4.4.4.4.4.4.4.4.4.4.4.4.4.4.4.4.4.4.4.4.4.4.4.4.4.4.4.4.4.4.4.4.4.",
"4.4.4.4.4.4.4.4.4.4.4.4.4.4.4.4.4.4.4.4.4.4.4.4.4.4.4.4.4.4.4.4.4.4.4.4.4.4.4.4.4.4.4.4.4.4.4.4.4.4.4.4.4.4.4.4.4.4.4.4.4.4.4.4.",
"4.4.4.4.4.4.4.4.4.4.4.4.4.4.4.4.4.4.4.4.4.4.4.4.4.4.4.4.4.4.4.4.4.4.4.4.4.4.4.4.4.4.4.4.4.4.4.4.4.4.4.4.4.4.4.4.4.4.4.4.4.4.4.4.",
"4.4.4.4.4.4.4.4.4.4.4.4.4.4.4.4.4.4.4.4.4.4.4.4.4.4.4.4.4.4.4.4.. 4.4.4.4.4.4.4.4.4.4.4.4.4.4.4.4.4.4.4.4.4.4.4.4.4.4.4.4.4.4.4.",
"4.4.4.4.4.4.4.4.4.4.4.4.4.4.4.4.4.4.4.4.4.4.4.4.4.4.4.4.4.4.4.4.O.% 4.4.4.4.4.4.4.4.4.4.4.4.4.4.4.4.4.4.4.4.4.4.4.4.4.4.4.4.4.4.",
"4.4.4.4.4.4.4.4.4.4.4.4.4.4.4.4.4.4.4.4.4.4.4.4.4.4.4.4.4.4.4.4.,.#.# 4.4.4.4.4.4.4.4.4.4.4.4.4.4.4.4.4.4.4.4.4.4.4.4.4.4.4.4.4.",
"4.4.4.4.4.4.4.4.4.4.4.4.4.4.4.4.4.4.4.4.4.4.4.4.4.4.4.4.4.4.4.4.:.[ | = 4.4.4.4.4.4.4.4.4.4.4.4.4.4.4.4.4.4.4.4.4.4.4.4.4.4.4.4.",
"4.4.4.4.4.4.4.4.4.4.4.4.4.4.4.4.4.4.4.4.4.4.4.4.4.4.4.4.4.4.4.4.:.D B O.- 4.4.4.4.4.4.4.4.4.4.4.4.4.4.4.4.4.4.4.4.4.4.4.4.4.4.4.",
"4.4.4.4.4.4.4.4.4.4.4.4.4.4.4.4.4.4.4.4.4.4.4.4.4.4.4.4.4.4.4.4.:.F i C X.< 4.4.4.4.4.4.4.4.4.4.4.4.4.4.4.4.4.4.4.4.4.4.4.4.4.4.",
"4.4.4.4.4.4.4.4.4.4.4.4.4.4.4.4.4.4.4.4.4.4.4.4.4.4.4.4.4.4.4.4.:.F n n B X.< 4.4.4.4.4.4.4.4.4.4.4.4.4.4.4.4.4.4.4.4.4.4.4.4.4.",
"4.4.4.4.4.4.4.4.4.4.4.4.4.4.4.4.4.4.4.4.4.4.4.4.4.4.4.4.4.4.4.4.:.F n N m N *.H 4.4.4.4.4.4.4.4.4.4.4.4.4.4.4.4.4.4.4.4.4.4.4.4.",
"4.4.4.4.4.4.4.4.4.4.4.4.4.4.4.4.4.4.4.4.4.4.4.4.4.4.4.4.4.4.4.4.:.F n N N m N X.H 4.4.4.4.4.4.4.4.4.4.4.4.4.4.4.4.4.4.4.4.4.4.4.",
"4.4.4.4.4.4.4.4.4.4.4.4.4.4.4.4.4.4.4.4.4.4.4.4.4.4.4.4.4.4.4.4.:.F n m m N m M X.I 4.4.4.4.4.4.4.4.4.4.4.4.4.4.4.4.4.4.4.4.4.4.",
"4.4.4.4.4.4.4.4.4.4.4.4.4.4.4.4.4.4.4.4.4.4.4.4.4.4.4.4.4.4.4.4.:.F n m m N N N m X.U 4.4.4.4.4.4.4.4.4.4.4.4.4.4.4.4.4.4.4.4.4.",
"4.4.4.4.4.4.4.4.4.4.4.4.4.4.4.4.4.4.4.4.4.4.4.4.4.4.4.4.4.4.4.4.:.F d m m m m N N M ..Q 4.4.4.4.4.4.4.4.4.4.4.4.4.4.4.4.4.4.4.4.",
"4.4.4.4.4.4.4.4.4.4.4.4.4.4.4.4.4.4.4.4.4.4.4.4.4.4.4.4.4.4.4.4.:.V n z m N m N N N M ..Q 4.4.4.4.4.4.4.4.4.4.4.4.4.4.4.4.4.4.4.",
"4.A ~ L L L L L L L L K K K K K K K ~ ~ K K H H H G H H H H H H ,.V d m g m m N M N N b ../ 4.4.4.4.4.4.4.4.4.4.4.4.4.4.4.4.4.4.",
"4.+.2.@.%.%.%.%.=.%.=.=.%.%.&.&.&.&.&.&.&.&.' ' ] ' ] ] ] ] ] ] ' g g m m m m m N N N N b ..` 4.4.4.4.4.4.4.4.4.4.4.4.4.4.4.4.4.",
"4.+.$.W / / / ( E ( W E ( E E ( ( E ( E E E t e e t e t t t u t d g m g g m m N m m N N N b [ `   4.4.4.4.4.4.4.4.4.4.4.4.4.4.4.",
"4.+.$./ ` ` ) _ ` ` / ` ( ( ( ( ( { ( { ( E d s d d d f f g g g g n g m m m m m m m N N m B b [ | X 4.4.4.4.4.4.4.4.4.4.4.4.4.4.",
"4.+.-.Q _ _ _ ( / ( ` ( ( ( ( ( ( ( ( ( { ( f u s d s s d d d d d g g g g m g m m N N m N N B b [ | o 4.4.4.4.4.4.4.4.4.4.4.4.4.",
"4.+.-./ _ _ ( _ ` ` ( / ( ( ( ( ( E E ( ( { f r s s s d s d d d d g g g g g g m m m m M N N N N b ] #.# 4.4.4.4.4.4.4.4.4.4.4.4.",
"4.+.-./ _ ( _ ` ` / ` ( ( ( ( ( ( ( { ( ( ( f r s s s s s d d d d d g g g m g m m m m m m m N N N b ] #.= 4.4.4.4.4.4.4.4.4.4.4.",
"4.+.-./ _ ` _ _ _ ` ( ( ( ` ( ( ( ( { ( ( { l t s u s s d d d d d g g g g g g g m m m m N m m N N N b ] #.= 4.4.4.4.4.4.4.4.4.4.",
"4.+.-./ _ _ _ ( ( ) _ ( ( ( ( ( ( ( ( ( ( { c e s s s s s s s d d d d g g g g g g m g m m m N m m N N b C *.; 4.4.4.4.4.4.4.4.4.",
"4.+.-./ _ _ _ _ ) ` ( ( / ` ( ( ( ( ( ( ( ( Y e s s s s s d s d d d d d d g g g m g g m g N g N m N N N b C *.< 4.4.4.4.4.4.4.4.",
"4.o.-.Q _ _ ` _ ) ) ) _ ( / ` ( ( ( E { ( ` T e s w s s s s d s d d d d g g g g g g g m m m N g m m m m N m B  .G 4.4.4.4.4.4.4.",
"4.+.-./ _ _ _ _ ) ` ` _ / / ( ( ( ( ( ( ( ( E e w s s s r s s s d d d d d d g d g g g g g m N g m m m m m N m N X.H 4.4.4.4.4.4.",
"4.+.-.Q _ _ _ _ ) ) ` ) ` ( ( ( ( ( ( ( ( ( ( r w s s w s s s s s s d s d g d g g g g g g g g m m m m m m m m m m X.H 4.4.4.4.4.",
"4.+.-.Q _ _ _ _ _ ) ` ` ( / ( ` ( ( ( ( ( ( E f w w s s r s s s s d d d d d d g g g g g g g m g m g m m m N m m m b ..I 4.4.4.4.",
"4.+.-./ _ _ _ _ _ ` ) ` ` ) ( / ( ( ( ( ( { ( c 0 s r u s s r s s s s d s d d d d d g g g g g g g g m g g m g m m m b } I 4.4.4.",
"4.+.-.Q _ _ _ _ _ _ / ` ) ` ` ) ( ( ( ( ( ( ` v 9 p r s r s s s s s s d d d s d d d d g d g g g g g g g g m g m g m n t *.1 4.4.",
"4.+.-.! o._ _ _ _ ` _ _ ) ) ( ( ( ( ( / ( ( ` R 0 s w w r r r s s s s s s d d d d d d d g d g g g g g g g g g n m g b } U 4.4.4.",
"4.+.-.! ^ ^ _ _ _ _ _ _ ` ` ) ` ( ( ( ( ( ( ( ( s w r r r s r s s s s s s d s d d d d d d g d d g g g g g g m n g d [ I 4.4.4.4.",
"4.+.$.Q @.^ _ _ _ _ _ ` / ` ) ` _ ( ( ( ( ( ( ( l 0 r r r w r r s r s s s s s s d d s d d d d g d d g d g g g d g } I 4.4.4.4.4.",
"4.+.-.! ^ _ _ _ _ _ _ _ ) ) ` ) ( ( ) ( ( ( ( ` Y 7 w w r r r s s r s s s s s s s d d d s d d d d d g d g g d d } I 4.4.4.4.4.4.",
"4.+.-.! @.^ _ ^ _ _ _ _ _ ) ) ` _ ) ( ) ( ( ( ( ( w w r w r w r r r r s s s s s s s s d d d d d d d d d g s g } H 4.4.4.4.4.4.4.",
"4.+.-.! o.^ _ ^ ^ _ _ _ _ ` ) ) ` ) ) ( ) ( ( ( ` f 0 w r w w r r r r r r s s s s s d s s d d d d d d d s g  .1 4.4.4.4.4.4.4.4.",
"4.+.-.! ^ o.^ o._ _ _ _ _ _ ) _ ) ) ) ` ( ) ( ( ` Y 0 w w w r r r r r s r r r s s s s s s s s s d d d r g } < 4.4.4.4.4.4.4.4.4.",
"4.+.-.! _ @.^ ^ Q _ _ _ _ _ _ _ ) ` _ / ) / ` ( ` W r w w r r w w r r w r r r r s s s s s s s d s d r g  .: 4.4.4.4.4.4.4.4.4.4.",
"4.+.-.^ _ ^ _ _ @._ _ ^ _ _ _ _ ) ) ` ) ( ` ` / ( ` l 9 w w w w w r r r r r r u w s w s s r s s d r g { - 4.4.4.4.4.4.4.4.4.4.4.",
"4.+.-.! ^ ^ ^ _ ^ ^ ^ o._ _ _ _ ` _ _ ` / ` ( ( ) ` R 9 w w w w w r w r r r r r r s s s s s s s e z { & 4.4.4.4.4.4.4.4.4.4.4.4.",
"4.+.-.^ @.o.^ _ o.^ _ _ _ _ _ _ ` _ ) ) ` / ` ` ( ( ) a 9 w 0 w w w w w w r w r w w s w r s s e z { % 4.4.4.4.4.4.4.4.4.4.4.4.4.",
"4.+.=.Q ^ ^ ^ _ o.^ o._ _ _ o./ _ _ ` ` ` ` ` ` ( ( ` R 6 w w w w w w w w w r r u w w s w s 7 c ( $ 4.4.4.4.4.4.4.4.4.4.4.4.4.4.",
"4.+.=.Q ^ @.^ ^ / / ^ ^ _ ! _ / _ _ _ ( _ / _ / ( / ( ( a 2 6 6 5 w w w w w w r s w w s p 7 c ( O 4.4.4.4.4.4.4.4.4.4.4.4.4.4.4.",
"4.o.3.2.2.<.3.2.3.>.2.>.3.2.>.2.2.3.2.>.2.>.2.3.<.3.<.3.<.>.>.>.;.p 0 w w w w w w w w w 6 v / 4.4.4.4.4.4.4.4.4.4.4.4.4.4.4.4.4.",
"4.4.k S S Z Z S Z S S Z Z Z Z Z Z , Z Z Z Z Z , A A A A A J 4.> :.j 6 w w w w w w w s 6 v R 4.4.4.4.4.4.4.4.4.4.4.4.4.4.4.4.4.4.",
"4.4.4.4.4.4.4.4.4.4.4.4.4.4.4.4.4.4.4.4.4.4.4.4.4.4.4.4.4.4.4.4.;.l 5 w q w w w w r 3 T U 4.4.4.4.4.4.4.4.4.4.4.4.4.4.4.4.4.4.4.",
"4.4.4.4.4.4.4.4.4.4.4.4.4.4.4.4.4.4.4.4.4.4.4.4.4.4.4.4.4.4.4.4.:.l 5 q w 0 w w w 3 T P 4.4.4.4.4.4.4.4.4.4.4.4.4.4.4.4.4.4.4.4.",
"4.4.4.4.4.4.4.4.4.4.4.4.4.4.4.4.4.4.4.4.4.4.4.4.4.4.4.4.4.4.4.4.:.l 5 q 0 0 w q 6 T P 4.4.4.4.4.4.4.4.4.4.4.4.4.4.4.4.4.4.4.4.4.",
"4.4.4.4.4.4.4.4.4.4.4.4.4.4.4.4.4.4.4.4.4.4.4.4.4.4.4.4.4.4.4.4.:.h 4 q 0 q q 6 T S 4.4.4.4.4.4.4.4.4.4.4.4.4.4.4.4.4.4.4.4.4.4.",
"4.4.4.4.4.4.4.4.4.4.4.4.4.4.4.4.4.4.4.4.4.4.4.4.4.4.4.4.4.4.4.4.:.j 4 0 q 0 6 T H 4.4.4.4.4.4.4.4.4.4.4.4.4.4.4.4.4.4.4.4.4.4.4.",
"4.4.4.4.4.4.4.4.4.4.4.4.4.4.4.4.4.4.4.4.4.4.4.4.4.4.4.4.4.4.4.4.:.k 2 q 9 6 E 1 4.4.4.4.4.4.4.4.4.4.4.4.4.4.4.4.4.4.4.4.4.4.4.4.",
"4.4.4.4.4.4.4.4.4.4.4.4.4.4.4.4.4.4.4.4.4.4.4.4.4.4.4.4.4.4.4.4.>.j 4 9 0 E > 4.4.4.4.4.4.4.4.4.4.4.4.4.4.4.4.4.4.4.4.4.4.4.4.4.",
"4.4.4.4.4.4.4.4.4.4.4.4.4.4.4.4.4.4.4.4.4.4.4.4.4.4.4.4.4.4.4.4.:.z + q E : 4.4.4.4.4.4.4.4.4.4.4.4.4.4.4.4.4.4.4.4.4.4.4.4.4.4.",
"4.4.4.4.4.4.4.4.4.4.4.4.4.4.4.4.4.4.4.4.4.4.4.4.4.4.4.4.4.4.4.4.:.h 8 E : 4.4.4.4.4.4.4.4.4.4.4.4.4.4.4.4.4.4.4.4.4.4.4.4.4.4.4.",
"4.4.4.4.4.4.4.4.4.4.4.4.4.4.4.4.4.4.4.4.4.4.4.4.4.4.4.4.4.4.4.4.;.x R * 4.4.4.4.4.4.4.4.4.4.4.4.4.4.4.4.4.4.4.4.4.4.4.4.4.4.4.4.",
"4.4.4.4.4.4.4.4.4.4.4.4.4.4.4.4.4.4.4.4.4.4.4.4.4.4.4.4.4.4.4.4.:.{ @ 4.4.4.4.4.4.4.4.4.4.4.4.4.4.4.4.4.4.4.4.4.4.4.4.4.4.4.4.4.",
"4.4.4.4.4.4.4.4.4.4.4.4.4.4.4.4.4.4.4.4.4.4.4.4.4.4.4.4.4.4.4.4.O.* 4.4.4.4.4.4.4.4.4.4.4.4.4.4.4.4.4.4.4.4.4.4.4.4.4.4.4.4.4.4.",
"4.4.4.4.4.4.4.4.4.4.4.4.4.4.4.4.4.4.4.4.4.4.4.4.4.4.4.4.4.4.4.4.+ 4.4.4.4.4.4.4.4.4.4.4.4.4.4.4.4.4.4.4.4.4.4.4.4.4.4.4.4.4.4.4.",
"4.4.4.4.4.4.4.4.4.4.4.4.4.4.4.4.4.4.4.4.4.4.4.4.4.4.4.4.4.4.4.4.4.4.4.4.4.4.4.4.4.4.4.4.4.4.4.4.4.4.4.4.4.4.4.4.4.4.4.4.4.4.4.4.",
"4.4.4.4.4.4.4.4.4.4.4.4.4.4.4.4.4.4.4.4.4.4.4.4.4.4.4.4.4.4.4.4.4.4.4.4.4.4.4.4.4.4.4.4.4.4.4.4.4.4.4.4.4.4.4.4.4.4.4.4.4.4.4.4.",
"4.4.4.4.4.4.4.4.4.4.4.4.4.4.4.4.4.4.4.4.4.4.4.4.4.4.4.4.4.4.4.4.4.4.4.4.4.4.4.4.4.4.4.4.4.4.4.4.4.4.4.4.4.4.4.4.4.4.4.4.4.4.4.4."
};
