/* XPM */
static const char *save_16x16_xpm[] = {
/* columns rows colors chars-per-pixel */
"16 16 65 1 ",
"  c #2F4259",
". c #30435B",
"X c #31445D",
"o c #34465E",
"O c #334760",
"+ c #334861",
"@ c #354964",
"# c #374C67",
"$ c #384E6B",
"% c #3A516D",
"& c #3A516E",
"* c #3C5471",
"= c #3D5573",
"- c #3E5675",
"; c #414D5C",
": c #405978",
"> c #405A7A",
", c #415B7C",
"< c #435E7F",
"1 c #445E80",
"2 c #456083",
"3 c #476386",
"4 c #486589",
"5 c #49668A",
"6 c #4A688C",
"7 c #4B688D",
"8 c #4E6B8E",
"9 c #667991",
"0 c #6B7E94",
"q c #6E8197",
"w c #6E829B",
"e c #71849A",
"r c #74879D",
"t c #778AA0",
"y c #7A8EA3",
"u c #7D91A6",
"i c #8094A9",
"p c #8397AC",
"a c #869AAF",
"s c #899DB2",
"d c #889EB6",
"f c #8CA0B5",
"g c #8AA0B8",
"h c #9CADBF",
"j c #9DAFC1",
"k c #A0B2C5",
"l c #A2B4C7",
"z c #AEBFD1",
"x c #AFC1D2",
"c c #B1C2D4",
"v c gray80",
"b c #D8D8D8",
"n c #F1CFC3",
"m c #F3D1C5",
"M c #FAD4C6",
"N c #EAEAEA",
"B c #E9EAEC",
"V c #ECECEC",
"C c gray94",
"Z c #F6F6F6",
"A c #F4F5F8",
"S c #F8F8F8",
"D c #FEFBFA",
"F c white",
"G c None",
/* pixels */
"7532<,:-*&$#@OX ",
"7cxMMMMMMMMMMjh ",
"7c;MMMMMMMMMM;h ",
"7cfDDDDDDDDDD0h ",
"7cfMMMMMMMMMM0h ",
"7cfDDDDDDDDDD0h ",
"7cfMMMMMMMMMM0h ",
"7cfDDDDDDDDDD0h ",
"7cfmMMMMMMMMn0h ",
"7cfsapiuytreq0h ",
"7cfs831>=%#+o0h ",
"7cfs6AVbCSNB.0h ",
"7cls6Fw9CSNZ.0h ",
"7gxk6F1>CSNZ.0h ",
"65dz6F1>CSNZ.jh ",
"G432<vvvvvvv@OX "
};
