/* XPM */
static const char *save_32x32_xpm[] = {
/* columns rows colors chars-per-pixel */
"32 32 238 2 ",
"   c #28374B",
".  c #2D3E54",
"X  c #2F4158",
"o  c #30425A",
"O  c #31445C",
"+  c #32455E",
"@  c #334660",
"#  c #344861",
"$  c #344963",
"%  c #354B65",
"&  c #364C67",
"*  c #374D69",
"=  c #384F6B",
"-  c #39506C",
";  c #3A516E",
":  c #3B5370",
">  c #3C5472",
",  c #3D5574",
"<  c #3E5776",
"1  c #3F5878",
"2  c #414D5C",
"3  c #475363",
"4  c #495566",
"5  c #4A5767",
"6  c #4B5868",
"7  c #4D5969",
"8  c #405A79",
"9  c #415B7B",
"0  c #425C7D",
"q  c #435E7F",
"w  c #465E7C",
"e  c #445F81",
"r  c #456083",
"t  c #466283",
"y  c #466284",
"u  c #476386",
"i  c #486588",
"p  c #49668A",
"a  c #4A668B",
"s  c #4A678C",
"d  c #4B698E",
"f  c #5E7084",
"g  c #66788C",
"h  c #67788C",
"j  c #67798D",
"k  c #66798F",
"l  c #68798E",
"z  c #697A8E",
"x  c #697B8F",
"c  c #6A7B8F",
"v  c #687B91",
"b  c #6A7C90",
"n  c #6B7C91",
"m  c #6B7D91",
"M  c #697C92",
"N  c #6A7D93",
"B  c #6A7E93",
"V  c #6C7E92",
"C  c #6D7E92",
"Z  c #6D7F93",
"A  c #6B7E94",
"S  c #6C7F95",
"D  c #6E7F94",
"F  c #6D8095",
"G  c #6E8094",
"H  c #6F8194",
"J  c #6D8096",
"K  c #6E8197",
"L  c #6F8298",
"P  c #738090",
"I  c #708399",
"U  c #708499",
"Y  c #718499",
"T  c #71849A",
"R  c #71859A",
"E  c #72859B",
"W  c #73869C",
"Q  c #73879C",
"!  c #74879D",
"~  c #74889D",
"^  c #74889E",
"/  c #75889E",
"(  c #75889F",
")  c #76899F",
"_  c #6C84A1",
"`  c #6D86A3",
"'  c #7689A0",
"]  c #778AA0",
"[  c #778BA0",
"{  c #778AA1",
"}  c #788BA2",
"|  c #788CA1",
" . c #798CA2",
".. c #798DA2",
"X. c #7A8DA3",
"o. c #7A8EA3",
"O. c #7B8EA4",
"+. c #7B8FA4",
"@. c #7B8EA5",
"#. c #7C90A5",
"$. c #7D90A6",
"%. c #7D91A6",
"&. c #7E92A7",
"*. c #7F93A8",
"=. c #8192A5",
"-. c #8093A9",
";. c #8194AA",
":. c #8295AA",
">. c #8396AC",
",. c #8498AD",
"<. c #8699AE",
"1. c #879AAF",
"2. c #879CB1",
"3. c #899CB2",
"4. c #8A9DB2",
"5. c #8B9EB4",
"6. c #9CA2AA",
"7. c #8DA0B5",
"8. c #8EA1B7",
"9. c #94A1B1",
"0. c #94A2B2",
"q. c #95A3B3",
"w. c #96A4B4",
"e. c #97A4B5",
"r. c #97A5B5",
"t. c #98A5B6",
"y. c #98A6B7",
"u. c #99A7B7",
"i. c #90A3B8",
"p. c #91A4BA",
"a. c #93A6BB",
"s. c #96A7BB",
"d. c #94A7BD",
"f. c #99A7B8",
"g. c #97A9BC",
"h. c #96A9BE",
"j. c #9AA8B8",
"k. c #9AA9B9",
"l. c #9BA9BA",
"z. c #9CAABA",
"x. c #9CAABB",
"c. c #9BACBE",
"v. c #9CADBF",
"b. c #ABAEB2",
"n. c #97AAC0",
"m. c #99ACC1",
"M. c #9AADC3",
"N. c #9DAEC0",
"B. c #9DAEC1",
"V. c #9EAFC1",
"C. c #9FAFC2",
"Z. c #9CAFC4",
"A. c #9FB0C2",
"S. c #9CB2C6",
"D. c #9DB3C7",
"F. c #9FB2C6",
"G. c #9FB5C9",
"H. c #A0B0C3",
"J. c #A0B1C3",
"K. c #A1B1C3",
"L. c #A1B2C4",
"P. c #A2B3C5",
"I. c #A1B3C7",
"U. c #A2B4C5",
"Y. c #A3B4C6",
"T. c #A3B4C7",
"R. c #A4B5C7",
"E. c #A2B4C9",
"W. c #A5B6C8",
"Q. c #A6B6C9",
"!. c #A6B7C9",
"~. c #A7B8CA",
"^. c #A8B9CB",
"/. c #A8BACB",
"(. c #A9BACC",
"). c #A9BBCC",
"_. c #AABBCD",
"`. c #AABCCD",
"'. c #ABBCCE",
"]. c #ACBDCF",
"[. c #ABBDD0",
"{. c #ADBDD0",
"}. c #ADBED0",
"|. c #AEBFD1",
" X c #AFC0D2",
".X c #AFC1D2",
"XX c #B0C1D3",
"oX c #B0C2D3",
"OX c #B1C2D4",
"+X c #C4C7CB",
"@X c #C7CACE",
"#X c #C8CBCF",
"$X c gray80",
"%X c #C9CCD0",
"&X c #CACDD1",
"*X c #CBCED2",
"=X c #D2D2D2",
"-X c gray83",
";X c #D5D5D5",
":X c gray85",
">X c gray86",
",X c gainsboro",
"<X c gray87",
"1X c #DFDFDF",
"2X c #FAD4C6",
"3X c gray88",
"4X c #E1E1E1",
"5X c #E2E2E2",
"6X c gray89",
"7X c #E4E4E4",
"8X c #E6E6E6",
"9X c #E7E7E7",
"0X c gray91",
"qX c #E9E9E9",
"wX c #EAEAEA",
"eX c gray92",
"rX c #ECECEC",
"tX c gray93",
"yX c #EEEEEE",
"uX c #EFEFEF",
"iX c gray94",
"pX c #F1F1F1",
"aX c gray95",
"sX c #F3F3F3",
"dX c #F4F4F5",
"fX c gray96",
"gX c #F6F6F6",
"hX c gray97",
"jX c #F8F8F8",
"kX c #F9F9F9",
"lX c gray98",
"zX c #FBFBFB",
"xX c #FEFBFA",
"cX c gray99",
"vX c #FDFDFD",
"bX c #FEFEFE",
"nX c white",
"mX c None",
/* pixels */
"s s p i u w r e q 0 9 8 1 < , > : ; - = * & % $ # @ + O o . mXmX",
"d [.OXoXXX3 2X2X2X2X2X2X2X2X2X2X2X2X2X2X2X2X2X2XT.G.~.~.A.X mXmX",
"d OX2 2 XX3 2X2X2X2X2X2X2X2X2X2X2X2X2X2X2X2X2X2X<.G.2 2 !.X mXmX",
"d oX2 2 .X3 2X2X2X2X2X2X2X2X2X2X2X2X2X2X2X2X2X2X@.G.2 2 Q.X mXmX",
"d XXXX.X X3 xXxXxXxXxXxXxXxXxXxXxXxXxXxXxXxXxXxXX.G.O.X.W.X mXmX",
"d XXE.I.F.3 2X2X2X2X2X2X2X2X2X2X2X2X2X2X2X2X2X2X} G.X. .W.X mXmX",
"d .XZ.M.m.3 xXxXxXxXxXxXxXxXxXxXxXxXxXxXxXxXxXxX{ G. .| R.X mXmX",
"d  XM.m.n.3 2X2X2X2X2X2X2X2X2X2X2X2X2X2X2X2X2X2X' G.| [ R.X mXmX",
"d |.m.n.h.3 xXxXxXxXxXxXxXxXxXxXxXxXxXxXxXxXxXxX( G.[ ] Y.X mXmX",
"d |.n.h.d.3 2X2X2X2X2X2X2X2X2X2X2X2X2X2X2X2X2X2X^ G.] ) Y.X mXmX",
"d |.h.d.a.3 xXxXxXxXxXxXxXxXxXxXxXxXxXxXxXxXxXxXQ G.) / U.X mXmX",
"d }.d.a.p.3 2X2X2X2X2X2X2X2X2X2X2X2X2X2X2X2X2X2XW G./ ~ P.X mXmX",
"d }.a.p.i.3 xXxXxXxXxXxXxXxXxXxXxXxXxXxXxXxXxXxXE G.~ ! P.X mXmX",
"d {.p.i.8.3 2X2X2X2X2X2X2X2X2X2X2X2X2X2X2X2X2X2XT G.! W L.X mXmX",
"d ].i.8.7.3 xXxXxXxXxXxXxXxXxXxXxXxXxXxXxXxXxXxXU G.W E L.X mXmX",
"d ].8.7.5.3 2X2X2X2X2X2X2X2X2X2X2X2X2X2X2X2X2X2XI G.E R K.X mXmX",
"d '.7.5.4.6 P x.z.l.k.j.f.u.y.t.r.e.w.q.q.0.9.=.2.G.R Y J.X mXmX",
"d '.5.4.1.:.D.G.G.G.G.G.G.G.G.G.G.G.G.G.G.G.G.G.G.S.Y I H.X mXmX",
"d `.3.,.;.-.*.&.%.$.#.+.O.X. .| [ ] ) / ~ ! W E R Y I L A.X mXmX",
"d _.>.;.-.*.&.%...H G D Z C V m n b c x z l j h g F L K A.X mXmX",
"d ).;.-.*.&.%.$.5 3 3 3 3 3 3 3 3 3 3 3 3 3 3 3 3 7 S.K C.X mXmX",
"d (.-.*.&.%.$.#.3 dXnXjX8X-X:X7XiXzXkXpXqXeX6.4 k ^ G.J V.X mXmX",
"d (.*.&.%.$.#.+.3 nXnX3 3 3 >X8XpXcXjXiX0XrX@X3 k ^ G.S B.X mXmX",
"d /.&.%.$.#.+.o.3 nXnX3 f f ,X0XsXcXhXyX0XtX#X3 k ^ G.A N.X mXmX",
"d ^.%.$.#.+.o.X.3 nXbX3 k k <XqXfXvXgXtX0XyX%X3 k ^ G.B N.X mXmX",
"d ~.$.#.+.o.X. .3 nXvX3 k k 1XeXgXcXfXrX0XuX&X3 k ^ G.N v.X mXmX",
"d ~.g.+.o.X. .| 3 nXcX3 k k 4XrXjXcXsXeXqXiX&X3 k ^ G.M v.X mXmX",
"a ` !.s.X. .| [ 3 nXlX3 k k 6XyXlXzXaXwXwXpX*X3 k ^ G.v c.X mXmX",
"mXu _ Q.W.W.R.R.3 aXtX3X=X;X<X9XuXyX0X5X6XqX+X3 k ^ G.c.c.X mXmX",
"mXmXt i u y r e q $X$X$X$X$X$X$X$X$X$X$X$X$Xb.3 # @ + O o   mXmX",
"mXmXmXmXmXmXmXmXmXmXmXmXmXmXmXmXmXmXmXmXmXmXmXmXmXmXmXmXmXmXmXmX",
"mXmXmXmXmXmXmXmXmXmXmXmXmXmXmXmXmXmXmXmXmXmXmXmXmXmXmXmXmXmXmXmX"
};
