/* XPM */
static const char *settings_32x32_xpm[] = {
/* columns rows colors chars-per-pixel */
"32 32 189 2 ",
"   c #2F2F32",
".  c #2B363D",
"X  c #323334",
"o  c #3A3A3A",
"O  c #203644",
"+  c #233945",
"@  c #293B47",
"#  c #263C4A",
"$  c #313C44",
"%  c #2D414E",
"&  c #34444E",
"*  c #39454D",
"=  c #2E4553",
"-  c #374B57",
";  c #3C4A53",
":  c #384C59",
">  c #3D505C",
",  c #3E5461",
"<  c #414548",
"1  c #474849",
"2  c #424D55",
"3  c #4C565D",
"4  c #4D585F",
"5  c #485158",
"6  c #525355",
"7  c #53585D",
"8  c #5B5B5B",
"9  c #465A65",
"0  c #465B68",
"q  c #495F6C",
"w  c #4E5C65",
"e  c #575C66",
"r  c #55646D",
"t  c #5C646A",
"y  c #576873",
"u  c #5F6D76",
"i  c #566B78",
"p  c #6A6A6A",
"a  c #656565",
"s  c #676E73",
"d  c #6C6C75",
"f  c #6E6D7D",
"g  c #6F7276",
"h  c #65737D",
"j  c #6A737A",
"k  c #707377",
"l  c #72737C",
"z  c #75787B",
"x  c #5D7380",
"c  c #676284",
"v  c #6A6682",
"b  c #666088",
"n  c #6C6789",
"m  c #706E82",
"M  c #706C8B",
"N  c #6F7C84",
"B  c #737187",
"V  c #7B7D82",
"C  c #79778E",
"Z  c #767889",
"A  c #716C90",
"S  c #7A7695",
"D  c #7A7499",
"F  c #7F7A9D",
"G  c #7D7A92",
"H  c #827D9E",
"J  c #857FA5",
"K  c #6F838F",
"L  c #778086",
"P  c #7D8185",
"I  c #7A858D",
"U  c #7C8E99",
"Y  c #828385",
"T  c #80818A",
"R  c #8B8B8F",
"E  c #8D8E95",
"W  c #84819B",
"Q  c #8E8E99",
"!  c #868399",
"~  c #8C9297",
"^  c #8B959D",
"/  c #94959C",
"(  c #9A9C9F",
")  c #8A85A6",
"_  c #8F8CA5",
"`  c #8D88A9",
"'  c #8681A3",
"]  c #908EA3",
"[  c #908BAB",
"{  c #8596A1",
"}  c #9896A7",
"|  c #959CA2",
" . c #9B9BA4",
".. c #9996AC",
"X. c #9B9AA9",
"o. c #9594A7",
"O. c #9A95B4",
"+. c #9D9AB2",
"@. c #A19EB4",
"#. c #92A1AB",
"$. c #9EAEB9",
"%. c #98AAB4",
"&. c #9EB0BC",
"*. c #A4A5A9",
"=. c #A6AAAD",
"-. c #ABADAE",
";. c #A3A2B2",
":. c #A7A4BD",
">. c #A8A5BD",
",. c #ACAABF",
"<. c #ABADB2",
"1. c #A7B2BA",
"2. c #B4B6BD",
"3. c #B6B9BD",
"4. c #A6A1C1",
"5. c #A8A4C1",
"6. c #B4B3C5",
"7. c #BCBDC4",
"8. c #B9B7CC",
"9. c #BBB9CD",
"0. c #B4AFD2",
"q. c #B9B6D0",
"w. c #BDBBD1",
"e. c #B6B2D1",
"r. c #B8C3CB",
"t. c #BAC0C5",
"y. c #B6C8D3",
"u. c #BCCAD4",
"i. c #BFD1DC",
"p. c #C0C1C6",
"a. c #C4C4CD",
"s. c #C6C9CD",
"d. c #C8C6DA",
"f. c #C3CFD8",
"g. c #CCCBD9",
"h. c #C7C9D4",
"j. c #CFD2D5",
"k. c #C4D3DC",
"l. c #CAD6DD",
"z. c #D1D1DE",
"x. c #D6DADE",
"c. c #DBDCDF",
"v. c #CECBE1",
"b. c #D1CFE2",
"n. c #D2CEE9",
"m. c #C9D7E0",
"M. c #CCDAE3",
"N. c #CEDEE8",
"B. c #C1D6E2",
"V. c #D4D3E6",
"C. c #D8D7E4",
"Z. c #D3DDE3",
"A. c #DADCE3",
"S. c #D5D2EA",
"D. c #DCDAEC",
"F. c #D4CFF2",
"G. c #D6D1F2",
"H. c #D9D5F4",
"J. c #DEDAF6",
"K. c #DEDAF9",
"L. c #E1DDF6",
"P. c #E2DEF9",
"I. c #CDE0EC",
"U. c #D6E0E7",
"Y. c #DAE1E6",
"T. c #D6E3EC",
"R. c #DDE5EB",
"E. c #DFE8EF",
"W. c #DFE9F0",
"Q. c #E0E0E4",
"!. c #E2E5EC",
"~. c #E5E9ED",
"^. c #EAECEF",
"/. c #E5E4F4",
"(. c #E9E7F7",
"). c #E5ECF2",
"_. c #EAEDF2",
"`. c #E5E2FA",
"'. c #E9E6FB",
"]. c #ECEBFC",
"[. c #F0EEFE",
"{. c #EDF1F5",
"}. c #E7F1F8",
"|. c #EDF4FA",
" X c #F1F3F6",
".X c #F3F4FC",
"XX c #F6F8FD",
"oX c #F9FAFF",
"OX c None",
/* pixels */
"OXOXOXOXOXOXOXOXOXOXOXOXH 4.4.D S v OXOXOXOXOXOXOXOXOXOXOXOXOXOX",
"OXOXOXOXOXOXOXOXOXOXOXA `.K.`.4.` M v +.H G B OXOXOXOXOXOXOXOXOX",
"OXOXOXOXOXOXOX[ O.D n ) P.H.P.w._ C 6.].'.6.H m OXOXOXOXOXOXOXOX",
"OXOXOXOXOXb 0.K.].5.` O.P.K.P.S.@.5.].`.(.6.f m OXOXOXOXOXOXOXOX",
"OXOXOXOXOXJ P.F.K.(.S.'.P.J.`.(.].[.`.`.(.X.d f OXOXOXOXOXOXOXOX",
"OXOXOXOXOXb F.H.H.P.P.J.J.P./.`.'.(.].(.(.B e f OXOXOXOXOXOXOXOX",
"OXOXOXOXOXOXe.K.H.J.J.L.`.`.'.(.(.].].]._. .Q / 2.7. .E OXOXOXOX",
"OXOXA :.' J K.L.J.J.`.J.V.D.J.].].|.[..X.X.XA..XXXXX3.<.V OXOXOX",
"OXOX0.`.]./.P.J.P.S.>.>.8.a.d.g.`..X.XXXXXXXXXXXXXXXx.*.E OXOXOX",
"OXD P.G.H.K.K.J.9...8.d.V.D.D.!.!.].oXXXoXoXoXoXoX{.-.Y z OXOXOX",
"OXD K.K.H.J.P.v.] w.v.D./.(.]..X.X].XXoXoXoXoXoX X*.k V OXOXOXOX",
"OXOXH K.J.K.P._ 9.V.D.].g.Q s.oXoXXXXXoXXXXX XXX2.V z OXOXOXOXOX",
"OXOXOX9.P.P.q.;.v.J.!.f     OX/  XXX XXXXX X X Xx.=.( OXOXOXOXOX",
"OXc M H.P.`.;.w.C.].} 6 o OXOXOX*.XX X XXX{.{.{.}.7.1.s t 7 OXOX",
") n.'.'.L.`...v././.d a OXOXOXOXOXQ. X^.XX}._._.}.{.|.}.^ L 3 OX",
"5.P.J.L.`.'.o.C.(.j.R p OXOXOXOXOX3. X^.|._.).~.~.).).|.| N 4 OX",
"5.P.L.P.'.(.} D.{.c.*.Y OXOXOXOXOX2._.~.|.).E.R.~.E.E.}.^ s ; OX",
"H d.[.].'.[.@.D.[. Xp.-.8 OXOXOXk x.~.R.XXE.R.T.E.R.T.u.K r * OX",
"OXOXC (.'.[.6.C. XoXp.( p OXOXOX~ }.R.~.|.U.U.T.U.^ h 5 * OXOXOX",
"OXOXOXd.[.[.b.a.].oX XY 7 1 p ~ ~.R.Y.).~.U.U.T.r.u w OXOXOXOXOX",
"OXOX] ].[.[..X2.!. X.X Xj./ j.^.!.Y.R.|.U.M.M.T.U.%.{ - OXOXOXOX",
"OXQ '.[.[..X.X^.7.^.{._.^.~.!.Y.Y.Y.|.E.l.l.l.m.T.W.1.{ = OXOXOX",
"OXQ [.'.[..XoXoX~.s.~.^.~.!.R.Y.R.|.).l.l.k.l.k.B.T.m.K 0 OXOXOX",
"OXH /.[..XoXoXoX.X{.^.^.~.!.~.{.{.U.l.k.l.M.N.i.i.I.%.i : OXOXOX",
"OXOX} 6.X.<.oXoXXX X^.^.~.^.~.Y.Z.l.k.k.m.N.$.k.I.B.x q + OXOXOX",
"OXOXOXOXOXV c.oX X{.^.~.!.Y.U.Z.l.j.k.f.T.h 9 @ 0 , = # OXOXOXOX",
"OXOXOXOXOXH oXoX X X^.~.R.Y.x.l.l.l.f.i.T.y > + OXOXOXOXOXOXOXOX",
"OXOXOXOXOX/ oX.X Xc.R.{.R.Y.Y.R.R.U.k.y.m.U - # OXOXOXOXOXOXOXOX",
"OXOXOXOXOXz Q.XX_.Y k s.R.Y.R.I w I N.y.k.&.% O @ OXOXOXOXOXOXOX",
"OXOXOXOXOXOXg  .k 7 < / ~.A.Y.w 2 . | N.y.K 0 % OXOXOXOXOXOXOXOX",
"OXOXOXOXOXOXOXOXOXOXOXP ~.R.t.* $ X @ r : % . OXOXOXOXOXOXOXOXOX",
"OXOXOXOXOXOXOXOXOXOXOX5 j ~ t $ @ X X X OXOXOXOXOXOXOXOXOXOXOXOX"
};
