/* XPM */
static const char *settings_24x24_xpm[] = {
/* columns rows colors chars-per-pixel */
"24 24 157 2 ",
"   c #2B353C",
".  c #323235",
"X  c #3A3A3A",
"o  c #253743",
"O  c #2A3B45",
"+  c #2C3E49",
"@  c #343F46",
"#  c #3C3F42",
"$  c #2D424F",
"%  c #37434B",
"&  c #304653",
"*  c #3B4952",
"=  c #384E5B",
"-  c #3E505B",
";  c #404D56",
":  c #49545C",
">  c #555759",
",  c #5A5C5E",
"<  c #405561",
"1  c #445864",
"2  c #4A5D68",
"3  c #515D65",
"4  c #5E5E60",
"5  c #4B626F",
"6  c #55626B",
"7  c #5B6369",
"8  c #5E686F",
"9  c #5D6B74",
"0  c #566B78",
"q  c #586B78",
"w  c #5F707A",
"e  c #60666B",
"r  c #676B6F",
"t  c gray42",
"y  c #6B6B7B",
"u  c #667077",
"i  c #6F7275",
"p  c #767676",
"a  c #74777A",
"s  c #787A7D",
"d  c #666184",
"f  c #736F89",
"g  c #747382",
"h  c #7B7F83",
"j  c #7D7C8B",
"k  c #787397",
"l  c #7C7896",
"z  c #7D779B",
"x  c #7E799A",
"c  c #817E94",
"v  c #807B9C",
"b  c #837DA2",
"n  c #7C8084",
"m  c #768994",
"M  c #818386",
"N  c #82868B",
"B  c #8A8B93",
"V  c #85819D",
"C  c #888699",
"Z  c #8B899F",
"A  c #8D9195",
"S  c #87939B",
"D  c #8B949A",
"F  c #939393",
"G  c #94959B",
"H  c #8B87A6",
"J  c #908CA7",
"K  c #9697A0",
"L  c #969EA5",
"P  c #9B9BA4",
"I  c #9691AF",
"U  c #9896AC",
"Y  c #9691B2",
"T  c #9B98B0",
"R  c #9C97BA",
"E  c #9D98BA",
"W  c #8CA0AC",
"Q  c #97A0A7",
"!  c #9CA0A4",
"~  c #9BABB5",
"^  c #9DAFBA",
"/  c #A1A3A7",
"(  c #A2A3A9",
")  c #AAADB1",
"_  c #A4A2B8",
"`  c #A9A6BE",
"'  c #AAA9B8",
"]  c #AEB3B7",
"[  c #A2B0BA",
"{  c #AAB6BE",
"}  c #B4B7BB",
"|  c #B9BABB",
" . c #A8A4C1",
".. c #AEA9C8",
"X. c #B1ADC8",
"o. c #A5B6C0",
"O. c #B4B3C3",
"+. c #B6BFC6",
"@. c #BCBEC4",
"#. c #B7B5C9",
"$. c #B9B7CB",
"%. c #BBBAC9",
"&. c #B5AFD2",
"*. c #B6B1D1",
"=. c #BEBBD1",
"-. c #C2BED9",
";. c #B5C3CB",
":. c #BECDD6",
">. c #C2C4CA",
",. c #C5C8CB",
"<. c #C4C2D3",
"1. c #CBCBD5",
"2. c #C9C7DA",
"3. c #CDCCDB",
"4. c #CED1D5",
"5. c #C5D3DC",
"6. c #CAD6DD",
"7. c #D6D6DF",
"8. c #D0D9DF",
"9. c #DADADE",
"0. c #CFCDE0",
"q. c #CCDBE4",
"w. c #D3D1E3",
"e. c #D3DEE5",
"r. c #D9DEE4",
"t. c #D5D2EA",
"y. c #DAD7EE",
"u. c #DCDAEC",
"i. c #D9D5F4",
"p. c #DEDAF6",
"a. c #DEDAF8",
"s. c #E0DEF5",
"d. c #E2DEFA",
"f. c #CFE2ED",
"g. c #DBE2E7",
"h. c #D5E1E9",
"j. c #DCE4EA",
"k. c #DFE9F1",
"l. c #E0E2E5",
"z. c #E2E6EB",
"x. c #E5E9EE",
"c. c #E9EBEE",
"v. c #E4E3F4",
"b. c #E8E5F7",
"n. c #E3EBF1",
"m. c #EAEDF2",
"M. c #E6E3FA",
"N. c #E8E6FA",
"B. c #ECEBFB",
"V. c #F0EFFB",
"C. c #ECF1F5",
"Z. c #EAF3F9",
"A. c #F1F3F7",
"S. c #F3F4FC",
"D. c #F5F8FC",
"F. c #F9FAFF",
"G. c None",
/* pixels */
"G.G.G.G.G.G.G.G.G.E *.H l G.G.G.G.G.G.G.G.G.G.G.",
"G.G.G.G.G.k z d z d.p.-.J f <.=.H j G.G.G.G.G.G.",
"G.G.G.G.b i.s.Y Y d.a.p.T 2.N.N.C y G.G.G.G.G.G.",
"G.G.G.G.&.i.s.y.N.d.a.M.B.B.b.s.g y G.G.G.G.G.G.",
"G.G.G.G.R a.i.d.s.s.M.b.N.B.B.w.g j ( G B G.G.G.",
"G.G.Y b ..d.p.s.p.w.u.b.B.B.Z.S.7.c.S.r.) h G.G.",
"G.R d.B.M.p.i.` _ -.2.3.b.S.S.D.F.D.D.x.P M G.G.",
"G.&.i.i.a.i.U $.0.r.v.b.m.S.F.F.F.D.A.) h p G.G.",
"G.v p.s.s._ $.w.b.1.<.F.F.D.F.D.D.D.} n r G.G.G.",
"G.G.X.M.t.U w.b.j . G.G c.D.D.D.A.Z.4.] e G.G.G.",
"x  .s.d.$.$.v.%.4 X G.G.( D.A.D.C.C.m.g.;.h 7 G.",
" .d.a.M.#.3.N.( p G.G.G.n A.c.A.z.n.n.m.C.L u G.",
"-.M.d.N.$.w.V.@.F G.G.G.p C.x.D.j.k.j.k.n.S 3 G.",
"V ` N.M.<.3.S.l.| t G.G.! m.z.Z.g.h.j.;.S 6 ; G.",
"G.G.<.B.N.O.S.F./ , > F z.j.n.n.e.h.{ 9 * G.G.G.",
"G.c u.V.S.>.l.A.A.4.;.C.j.j.Z.h.q.h.n.[ w G.G.G.",
"G.<.B.V.S.S.@.x.m.c.z.g.g.C.g.6.5.6.f.k.W 1 G.G.",
"G.$.S.S.F.F.S.l.c.x.z.m.Z.h.6.5.q.5.:.f.0 = G.G.",
"G.G.' P 1.F.A.A.c.x.z.j.8.6.5.8.o.^ f.W 5 G.G.G.",
"G.G.G.G.} D.A.A.x.j.g.8.6.5.5.:.- $ o o G.G.G.G.",
"G.G.G.G.9.D.A.z.C.j.g.h.h.q.:.q.2 & G.G.G.G.G.G.",
"G.G.G.G./ F.,.p ( j.g.Q : ;.q.q.0 &   G.G.G.G.G.",
"G.G.G.G.G.s , # N z.g.8 % % ~ m < O G.G.G.G.G.G.",
"G.G.G.G.G.G.G.G.e D L @   . . G.G.G.G.G.G.G.G.G."
};
