/* XPM */
static const char *synchronize_48x48_xpm[] = {
/* columns rows colors chars-per-pixel */
"48 48 129 2 ",
"   c #5A6879",
".  c #967237",
"X  c #987337",
"o  c #9F793B",
"O  c #AC833F",
"+  c #B2873F",
"@  c #EFBF3F",
"#  c #F0BF3F",
"$  c #EFC03F",
"%  c #FCCE39",
"&  c #FED039",
"*  c #AF8641",
"=  c #B08741",
"-  c #BA8D44",
";  c #CB9B47",
":  c #C5964A",
">  c #CB9B4B",
",  c #D19E4C",
"<  c #D5A249",
"1  c #D9A54E",
"2  c #D6A352",
"3  c #D9A653",
"4  c #DEAC57",
"5  c #DDAC5B",
"6  c #E1AD4E",
"7  c #E6B24F",
"8  c #E9B84F",
"9  c #E3AE53",
"0  c #E6B255",
"q  c #EFBB53",
"w  c #E1B15D",
"e  c #EEBC5E",
"r  c #E4B463",
"t  c #ECBE65",
"y  c #E3B569",
"u  c #EABE6D",
"i  c #E6BA71",
"p  c #E8BF76",
"a  c #FAD044",
"s  c #FAD24D",
"d  c #F1C355",
"f  c #F5C35C",
"g  c #FACD5D",
"h  c #FAD355",
"j  c #FAD55C",
"k  c #EFC36C",
"l  c #FBCD62",
"z  c #F2C66A",
"x  c #F5CC6F",
"c  c #FBD663",
"v  c #FBD865",
"b  c #FAD769",
"n  c #FBDA6C",
"m  c #ECC274",
"M  c #EAC27B",
"N  c #F0C672",
"B  c #F5CC74",
"V  c #F6CE7A",
"C  c #FBD474",
"Z  c #FCDC75",
"A  c #F9D079",
"S  c #FDDB7B",
"D  c #657282",
"F  c #67788A",
"G  c #6A7A8B",
"H  c #6C7E91",
"J  c #748496",
"K  c #73869A",
"L  c #76899E",
"P  c #798B9F",
"I  c #7C8FA2",
"U  c #7E91A4",
"Y  c #8292A4",
"T  c #8396AA",
"R  c #8699AD",
"E  c #889BAE",
"W  c #8D9EB1",
"Q  c #8EA1B6",
"!  c #91A3B6",
"~  c #97A9BC",
"^  c #9BACBD",
"/  c #A0AFBD",
"(  c #A3B1BF",
")  c #EDC680",
"_  c #EDC886",
"`  c #EFCC8A",
"'  c #F2CC84",
"]  c #F1CE89",
"[  c #FAD483",
"{  c #FDDB83",
"}  c #FAD78D",
"|  c #FEDD8B",
" . c #F5D593",
".. c #F9D792",
"X. c #FCDB93",
"o. c #F4D59A",
"O. c #F8DB9E",
"+. c #FDE087",
"@. c #FDE18C",
"#. c #FEE193",
"$. c #FEE29A",
"%. c #F8DEA5",
"&. c #FEE5A4",
"*. c #FFE6AD",
"=. c #FDE5B1",
"-. c #FFE9B4",
";. c #9BAEC1",
":. c #9FB0C3",
">. c #A3B3C3",
",. c #A8B7C3",
"<. c #ACB9C6",
"1. c #ADBCCA",
"2. c #B1BECA",
"3. c #B5C2CD",
"4. c #BAC5CF",
"5. c #B4C3D1",
"6. c #BBC6D1",
"7. c #BBCAD6",
"8. c #BDCCD8",
"9. c #C2CDD6",
"0. c #C1CED9",
"q. c #C5D1DC",
"w. c #CAD5DD",
"e. c #CED8DF",
"r. c #CCD7E1",
"t. c #CED9E2",
"y. c #D2DBE3",
"u. c #D7E0E6",
"i. c None",
/* pixels */
"i.i.i.i.i.i.i.i.i.i.i.i.i.i.i.i.i.i.i.i.i.i.i.i.i.i.i.i.i.i.i.i.i.i.i.i.i.i.i.i.i.i.i.i.i.i.i.i.",
"i.i.i.i.i.i.i.i.i.i.i.i.i.i.i.i.i.3 3 r r m m m m r w 1 < i.i.i.i.i.i.i.i.i.i.i.i.i.i.< i.i.i.i.",
"i.i.i.i.i.i.i.i.i.i.i.i.i.i.3 5 M  .&.O.O.{ { { { | | | V u 5 < i.i.i.i.i.i.i.i.i.i.1 < i.i.i.i.",
"i.i.i.i.i.i.i.i.i.i.i.i.4 p  .*.$.{ v j h h g h h j j b C S { V w , i.i.i.i.i.i.i.1 N < i.i.i.i.",
"i.i.i.i.i.i.i.i.i.i.3 y O.*.| b j h h h h h h h h h h j j j b C S B 4 ; i.i.i.i.1 N { , i.i.i.i.",
"i.i.i.i.i.i.i.i.i.5 ` =.#.b j j h h h h s s s s s h h h h j j j b Z S t < i.i.1 z { { < i.i.i.i.",
"i.i.i.i.i.i.i.i.5 %.*.S j j j h h s j c c l l l l c j h h j j j c c n S B 2 , z S Z { < i.i.i.i.",
"i.i.i.i.i.i.i.y =.&.n v j j h j Z C z e 0 9 0 9 6 7 q f c j j j c c b b Z C z S S C S < i.i.i.i.",
"i.i.i.i.i.i.y =.&.n c j j j Z V t 9 3 > = O . X o : , 1 6 q g j c c b n n Z Z Z Z Z Z < i.i.i.i.",
"i.i.i.i.i.5 &.&.Z b c c b { z 9 > o i.i.i.i.i.i.i.i.i.i.+ , 6 d j j v v n Z Z Z Z Z Z < i.i.i.i.",
"i.i.i.i.4 o.*.Z n v c Z [ r 3 o i.i.i.i.i.i.i.i.i.i.i.i.i.i.+ 1 8 j v v n Z Z Z Z Z S < i.i.i.i.",
"i.i.i.3 M -.S n n v S V w > i.i.i.i.i.i.i.i.i.i.i.i.i.i.i.i.i.i.; 8 v v n n Z Z Z Z Z < i.i.i.i.",
"i.i.i.5 =.$.Z n n Z } w - i.i.i.i.i.i.i.i.i.i.i.i.i.i.i.i.i.i.i.; d v v n n Z Z Z Z C < i.i.i.i.",
"i.i.3 _ *.S Z n Z | r > i.i.i.i.i.i.i.i.i.i.i.i.i.i.i.i.i.i.i.< d % & & % % % % s s j < i.i.i.i.",
"i.i.5 *.@.Z Z n @.m > i.i.i.i.i.i.i.i.i.i.i.i.i.i.i.i.i.i.i.< # % % % % % % % % % % % < i.i.i.i.",
"i.i.p =.S Z Z +.} 4 i.i.i.i.i.i.i.i.i.i.i.i.i.i.i.i.i.i.i.< # & % % % % % % % % % % % < i.i.i.i.",
"i.2 #.$.Z Z Z #.u : i.i.i.i.i.i.i.i.i.i.i.i.i.i.i.i.i.i.< a % % & & & & & % & % % & & < i.i.i.i.",
"i.5 *.+.Z S S } w i.i.i.i.i.i.i.i.i.i.i.i.i.i.i.i.i.i.< < < , , < < < < < < < < < < < < i.i.i.i.",
"i.m -.Z Z Z +.' , i.i.i.i.i.i.i.i.i.i.i.i.i.i.i.i.i.i.i.i.i.i.i.i.i.i.i.i.i.i.i.i.i.i.i.i.i.i.i.",
"2 M $.S S Z #.u = i.i.i.i.i.i.i.i.i.i.i.i.i.i.i.i.i.i.i.i.i.i.i.i.i.i.i.i.i.i.i.i.i.i.i.i.i.i.i.",
"2 ] $.Z Z Z $.w i.i.i.i.i.i.i.i.i.i.i.i.i.i.i.i.i.i.i.i.i.i.i.i.i.i.i.i.i.i.i.i.i.i.i.i.i.i.i.i.",
"2  .#.+.{ { | 5 i.i.i.i.i.i.i.i.i.i.i.i.i.i.i.i.i.i.i.i.i.i.i.i.i.i.i.i.i.i.i.i.i.i.i.i.i.i.i.i.",
"2 ] ....} [ f 2 i.i.i.i.i.i.i.i.i.i.i.i.i.i.i.i.i.i.i.i.i.i.i.i.i.i.i.i.i.i.W W W W W W E T i.i.",
"2 3 1 1 3 1 3 1 i.i.i.i.i.i.i.i.i.i.i.i.i.i.i.i.i.i.i.i.i.i.i.i.i.i.i.i.i.i.R y.y.y.y.y.8.Y i.i.",
"i.i.i.i.i.i.i.i.i.i.i.i.i.i.i.i.i.i.i.i.i.i.i.i.i.i.i.i.i.i.i.i.i.i.i.i.i.i.Q y.8.8.7.q.0.I i.i.",
"i.i.i.i.i.i.i.i.i.i.i.i.i.i.i.i.i.i.i.i.i.i.i.i.i.i.i.i.i.i.i.i.i.i.i.i.i.i.;.t.8.8.7.r.8.K i.i.",
"i.i.i.i.i.i.i.i.i.i.i.i.i.i.i.i.i.i.i.i.i.i.i.i.i.i.i.i.i.i.i.i.i.i.i.i.i.i.1.r.8.8.8.r.1.G i.i.",
"i.i.i.i.i.i.i.i.i.i.i.i.i.i.i.i.i.i.i.i.i.i.i.i.i.i.i.i.i.i.i.i.i.i.i.i.i.W 7.r.8.7.7.t.,.i.i.i.",
"i.i.W W Q W W W W W W W W W W E W W W i.i.i.i.i.i.i.i.i.i.i.i.i.i.i.i.i.i.Q t.8.7.7.8.y.~ i.i.i.",
"i.i.W 4.4.6.9.9.9.9.q.w.w.e.e.4.! P i.i.i.i.i.i.i.i.i.i.i.i.i.i.i.i.i.i.Q 5.t.7.7.7.8.r.W i.i.i.",
"i.i.W 4.( ( ( ( <.2.2.2.4.9.6.^ K i.i.i.i.i.i.i.i.i.i.i.i.i.i.i.i.i.i.i.Q t.r.7.7.7.r.5.K i.i.i.",
"i.i.W 6.( ( <.<.<.2.3.3.9.9./ K i.i.i.i.i.i.i.i.i.i.i.i.i.i.i.i.i.i.i.W 5.y.7.7.7.8.t.;.i.i.i.i.",
"i.i.! 9.( ,.<.<.3.3.3.9.9.:.J i.i.i.i.i.i.i.i.i.i.i.i.i.i.i.i.i.i.i.i.:.t.8.8.7.7.q.8.W i.i.i.i.",
"i.i.E 9.,.,.2.2.3.3.9.9.:.J i.i.i.i.i.i.i.i.i.i.i.i.i.i.i.i.i.i.i.i.;.t.q.7.8.7.8.t.:.i.i.i.i.i.",
"i.i.W 9.,.2.2.3.3.6.w.e.E G i.i.i.i.i.i.i.i.i.i.i.i.i.i.i.i.i.i.i.;.r.r.7.7.7.7.r.5.R i.i.i.i.i.",
"i.i.W 9.2.2.2.4.4.6.6.e.y.^ K i.i.i.i.i.i.i.i.i.i.i.i.i.i.i.i.Q ;.r.t.7.7.7.7.r.q.;.i.i.i.i.i.i.",
"i.i.W 9.2.2.4.6.6.9.0.0.e.u.6.R K i.i.i.i.i.i.i.i.i.i.i.i.W Q 5.y.r.7.7.7.7.q.t.:.F i.i.i.i.i.i.",
"i.i.W w.4.4.9.y.e.9.q.w.q.w.y.y.2.W U P i.i.i.i.i.i.i.E Q 1.r.t.0.7.7.5.7.8.t.1.T i.i.i.i.i.i.i.",
"i.i.W e.4.9.e.4.e.e.q.0.0.q.q.e.y.y.0.<.;.~ E E ~ ^ 2.0.y.t.r.7.7.7.7.5.8.t.1.U i.i.i.i.i.i.i.i.",
"i.i.W e.9.e.<.K E y.y.w.q.q.q.q.0.w.t.y.y.y.y.y.y.y.r.r.q.7.7.7.7.7.7.r.t.1.U i.i.i.i.i.i.i.i.i.",
"i.i.W e.y.1.H i.  Y q.y.e.q.q.0.q.0.0.0.0.8.0.8.8.8.8.7.8.7.7.7.7.8.r.r.>.T i.i.i.i.i.i.i.i.i.i.",
"i.i.W y.<.H i.i.i.i.L <.y.y.w.q.0.0.q.0.0.0.8.8.8.8.7.8.7.7.7.8.r.r.2.;.F i.i.i.i.i.i.i.i.i.i.i.",
"i.i.W <.H i.i.i.i.i.i.G R 3.y.y.e.q.0.0.8.8.8.8.8.8.7.7.8.r.r.r.5.;.T i.i.i.i.i.i.i.i.i.i.i.i.i.",
"i.i.W H i.i.i.i.i.i.i.i.i.G T >.q.y.y.r.e.w.w.q.q.r.r.t.t.0.3.^ R i.i.i.i.i.i.i.i.i.i.i.i.i.i.i.",
"i.i.W i.i.i.i.i.i.i.i.i.i.i.i.D P R ~ <.3.9.8.8.8.5.1.:.~ R J i.i.i.i.i.i.i.i.i.i.i.i.i.i.i.i.i.",
"i.i.i.i.i.i.i.i.i.i.i.i.i.i.i.i.i.i.i.G F P P I U J H i.i.i.i.i.i.i.i.i.i.i.i.i.i.i.i.i.i.i.i.i.",
"i.i.i.i.i.i.i.i.i.i.i.i.i.i.i.i.i.i.i.i.i.i.i.i.i.i.i.i.i.i.i.i.i.i.i.i.i.i.i.i.i.i.i.i.i.i.i.i.",
"i.i.i.i.i.i.i.i.i.i.i.i.i.i.i.i.i.i.i.i.i.i.i.i.i.i.i.i.i.i.i.i.i.i.i.i.i.i.i.i.i.i.i.i.i.i.i.i."
};
