/* XPM */
static const char *synchronize_64x64_xpm[] = {
/* columns rows colors chars-per-pixel */
"64 64 146 2 ",
"   c #FECF28",
".  c #FED12D",
"X  c #FACD36",
"o  c #FACD39",
"O  c #FDD136",
"+  c #FED239",
"@  c #FFDA3E",
"#  c #B4874D",
"$  c #BB8E53",
"%  c #CD9D47",
"&  c #CD9E4D",
"*  c #C1965A",
"=  c #DAA745",
"-  c #DCAA46",
";  c #D5A348",
":  c #D4A452",
">  c #D0A458",
",  c #D7A85A",
"<  c #DCAC5A",
"1  c #DEB25F",
"2  c #EDBD4C",
"3  c #E2B55E",
"4  c #E9BD5D",
"5  c #CEA461",
"6  c #DCAE62",
"7  c #D7AF6C",
"8  c #DFB264",
"9  c #DEB36C",
"0  c #D6AE70",
"q  c #D8AF72",
"w  c #D7B172",
"e  c #DAB373",
"r  c #DFB979",
"t  c #E2B763",
"y  c #E5BA64",
"u  c #E1B76B",
"i  c #E6BF6A",
"p  c #E1B773",
"a  c #E1BA7A",
"s  c #F9C742",
"d  c #FCCC41",
"f  c #F8CF4A",
"g  c #FED442",
"h  c #FFD941",
"j  c #FCD34B",
"k  c #F9D352",
"l  c #FFDA54",
"z  c #F7D25B",
"x  c #FAD55C",
"c  c #FCD95E",
"v  c #EEC464",
"b  c #EAC26C",
"n  c #F5CA65",
"m  c #F2CA6A",
"M  c #FAD663",
"N  c #FBD965",
"B  c #FBD66A",
"V  c #FBDA69",
"C  c #EBC575",
"Z  c #E9C47A",
"A  c #FCD473",
"S  c #FEDD73",
"D  c #F9D278",
"F  c #FFE067",
"G  c #FFE06B",
"H  c #FFE173",
"J  c #FFE37C",
"K  c #61748B",
"L  c #69798C",
"P  c #768397",
"I  c #7C8C9D",
"U  c #7E8FA1",
"Y  c #808FA0",
"T  c #8392A3",
"R  c #8E9DAD",
"E  c #919FAF",
"W  c #92A0AF",
"Q  c #8EA0B0",
"!  c #95A3B3",
"~  c #98A7B5",
"^  c #9BA8B7",
"/  c #96A7BA",
"(  c #98A7B8",
")  c #9DACBB",
"_  c #A1AFBD",
"`  c #A3B1BE",
"'  c #DEB78B",
"]  c #DDB88A",
"[  c #DDB990",
"{  c #E0BC84",
"}  c #E0BC8A",
"|  c #E0BD92",
" . c #E6C184",
".. c #E9C682",
"X. c #EBC881",
"o. c #E6C289",
"O. c #E8C68D",
"+. c #ECCD8F",
"@. c #F4D082",
"#. c #FAD683",
"$. c #FFDC81",
"%. c #FFDF8B",
"&. c #E4C392",
"*. c #E9C892",
"=. c #E5C59B",
"-. c #E7C89C",
";. c #EBCC99",
":. c #EDD09F",
">. c #F0D194",
",. c #FFDF96",
"<. c #F9DB9B",
"1. c #FFE482",
"2. c #FFE489",
"3. c #FFE98A",
"4. c #FFEA95",
"5. c #FFEA9B",
"6. c #EBCFA1",
"7. c #EED3A4",
"8. c #FFE5A3",
"9. c #FFECA3",
"0. c #FEE3AE",
"q. c #FFECAC",
"w. c #FFEDB2",
"e. c #A5B4C2",
"r. c #A8B6C3",
"t. c #ABBAC6",
"y. c #ADBBCA",
"u. c #B1BECA",
"i. c #B4C2CE",
"p. c #B8C5CF",
"a. c #B6C6D4",
"s. c #B9C6D1",
"d. c #BAC9D6",
"f. c #BDCCD9",
"g. c #C0CCD6",
"h. c #C1CEDA",
"j. c #C5D1DB",
"k. c #C9D5DF",
"l. c #C5D4E2",
"z. c #C9D6E2",
"x. c #CBD9E5",
"c. c #CCDBE9",
"v. c #D1DCE5",
"b. c #D0DDE8",
"n. c #D4E1EC",
"m. c None",
/* pixels */
"m.m.m.m.m.m.m.m.m.m.m.m.m.m.m.m.m.m.m.m.m.m.m.m.m.m.m.m.m.m.m.m.m.m.m.m.m.m.m.m.m.m.m.m.m.m.m.m.m.m.m.m.m.m.m.m.m.m.m.m.m.m.m.m.",
"m.m.m.m.m.m.m.m.m.m.m.m.m.m.m.m.m.m.m.m.m.m.m.m.m.m.m.{ o.o.o. . . .r e m.m.m.m.m.m.m.m.m.m.m.m.m.m.m.m.m.m.m.m.m.m.m.m.m.m.m.m.",
"m.m.m.m.m.m.m.m.m.m.m.m.m.m.m.m.m.m.m.m.m.m.] ;.>.,.4.3.1.1.J J J J 1.1.1.@.Z p m.m.m.m.m.m.m.m.m.m.m.m.m.m.m.m.m.m.m.m.m.m.m.m.",
"m.m.m.m.m.m.m.m.m.m.m.m.m.m.m.m.m.m.m.m.;.<.4.1.V N x M M x M M c x c x c M S J $.C 9 m.m.m.m.m.m.m.m.m.m.m.m.m.m.m.< m.m.m.m.m.",
"m.m.m.m.m.m.m.m.m.m.m.m.m.m.m.m.m.] 7.8.1.M x M B B B B N M M M M M M M N M z x x B J D u m.m.m.m.m.m.m.m.m.m.m.m.8 2.m.m.m.m.m.",
"m.m.m.m.m.m.m.m.m.m.m.m.m.m.m.m.6.9.J x M B V B B N M V M M M M M M M M M M M M M x x c H A 6 m.m.m.m.m.m.m.m.m.6 S A m.m.m.m.m.",
"m.m.m.m.m.m.m.m.m.m.m.m.m.m.=.q.1.z M V B B N N N N M M N M M M M M M M M M M M M M z M x x G b m.m.m.m.m.m.m.< S x A m.m.m.m.m.",
"m.m.m.m.m.m.m.m.m.m.m.m.m.7.5.M M V V B B M N N N M M M M M M M M x M x M x M x x x M x M x x N S , m.m.m.m.< S x x B m.m.m.m.m.",
"m.m.m.m.m.m.m.m.m.m.m.m.0.1.x B V N V B M B V M M c c V N V G G V N c c c c x c x M x x x x x x c V 3 m.m.1 V z z x B m.m.m.m.m.",
"m.m.m.m.m.m.m.m.m.m.] w.S x V B V B M N M M x N G J J D m C i i b b m V G F M c c x c x x x x x x x G 3 : V x z z x M m.m.m.m.m.",
"m.m.m.m.m.m.m.m.m.' w.V M B N V B N B N M N J 1.C 7 * m.m.m.m.m.m.m.m.m.> 3 n G c c x x x x x x x x x c N c z z z x M m.m.m.m.m.",
"m.m.m.m.m.m.m.m.m.w.V N B B V N N N M N J #.e m.m.m.m.m.m.m.m.m.m.m.m.m.m.m.m.: v V c x x x x x x k x x k x z z z x M m.m.m.m.m.",
"m.m.m.m.m.m.m.m.0.V M V B V N V N M G 2.e m.m.m.m.m.m.m.m.m.m.m.m.m.m.m.m.m.m.m.m.& 2 h o o o o o o o d s s f s f k x m.m.m.m.m.",
"m.m.m.m.m.m.m.7.1.M V V V N V M c 1.X.$ m.m.m.m.m.m.m.m.m.m.m.m.m.m.m.m.m.m.m.m.m.m.m.- g O o X X X X X X X X X X X d m.m.m.m.m.",
"m.m.m.m.m.m.=.5.z V M V N N M N 2.r m.m.m.m.m.m.m.m.m.m.m.m.m.m.m.m.m.m.m.m.m.m.m.m.m.m.& d O o X o X o o o o o o X d m.m.m.m.m.",
"m.m.m.m.m.m.q.M V V V V N M N 3.w m.m.m.m.m.m.m.m.m.m.m.m.m.m.m.m.m.m.m.m.m.m.m.m.m.m.m.m.m.s X o X o X o o o o X X d m.m.m.m.m.",
"m.m.m.m.m.7.J M V N N N B c 2.q m.m.m.m.m.m.m.m.m.m.m.m.m.m.m.m.m.m.m.m.m.m.m.m.m.m.m.m.m.= o + o o o X o X o X o X d m.m.m.m.m.",
"m.m.m.m.&.9.c V V V N N N 1.r m.m.m.m.m.m.m.m.m.m.m.m.m.m.m.m.m.m.m.m.m.m.m.m.m.m.m.m.m.= h + o o o + o X o X X o o d m.m.m.m.m.",
"m.m.m.m.7.H N N V N V M H ..m.m.m.m.m.m.m.m.m.m.m.m.m.m.m.m.m.m.m.m.m.m.m.m.m.m.m.m.m.- h + o + o o X o X + o X o X d m.m.m.m.m.",
"m.m.m.| 9.x V V N V M F 2.# m.m.m.m.m.m.m.m.m.m.m.m.m.m.m.m.m.m.m.m.m.m.m.m.m.m.m.m.- h + o + o + o + o o o X o X X o m.m.m.m.m.",
"m.m.m.:.J M N N N N c 1.w m.m.m.m.m.m.m.m.m.m.m.m.m.m.m.m.m.m.m.m.m.m.m.m.m.m.m.m.- @ + + + o + o o o o o o o X o o d m.m.m.m.m.",
"m.m.m.8.N V N V V M F @.m.m.m.m.m.m.m.m.m.m.m.m.m.m.m.m.m.m.m.m.m.m.m.m.m.m.m.m.- @ @ + + + + + + + + + + + + o o + o m.m.m.m.m.",
"m.m.&.4.c V N V V c 1.w m.m.m.m.m.m.m.m.m.m.m.m.m.m.m.m.m.m.m.m.m.m.m.m.m.m.m.; j o o d d d d d g d o d d d o d o d d m.m.m.m.m.",
"m.m.;.J N N V N V N A m.m.m.m.m.m.m.m.m.m.m.m.m.m.m.m.m.m.m.m.m.m.m.m.m.m.m.m.m.m.m.m.m.m.m.m.m.m.m.m.m.m.m.m.m.m.m.m.m.m.m.m.m.",
"m.m.<.V N V N N M l y m.m.m.m.m.m.m.m.m.m.m.m.m.m.m.m.m.m.m.m.m.m.m.m.m.m.m.m.m.m.m.m.m.m.m.m.m.m.m.m.m.m.m.m.m.m.m.m.m.m.m.m.m.",
"m.m.5.c V N N M O c 5 m.m.m.m.m.m.m.m.m.m.m.m.m.m.m.m.m.m.m.m.m.m.m.m.m.m.m.m.m.m.m.m.m.m.m.m.m.m.m.m.m.m.m.m.m.m.m.m.m.m.m.m.m.",
"m.} 4.c V V N + X N m.m.m.m.m.m.m.m.m.m.m.m.m.m.m.m.m.m.m.m.m.m.m.m.m.m.m.m.m.m.m.m.m.m.m.m.m.m.m.m.m.m.m.m.m.m.m.m.m.m.m.m.m.m.",
"m.O.3.c V N + X + v m.m.m.m.m.m.m.m.m.m.m.m.m.m.m.m.m.m.m.m.m.m.m.m.m.m.m.m.m.m.m.m.m.m.m.m.m.m.m.m.m.m.m.m.m.m.m.m.m.m.m.m.m.m.",
"m.*.J V V g o o h y m.m.m.m.m.m.m.m.m.m.m.m.m.m.m.m.m.m.m.m.m.m.m.m.m.m.m.m.m.m.m.m.m.m.m.m.m.m.m.m.m.m.m.m.m.m.m.m.m.m.m.m.m.m.",
"m.+.H c +   O   h y m.m.m.m.m.m.m.m.m.m.m.m.m.m.m.m.m.m.m.m.m.m.m.m.m.m.m.m.m.m.m.m.m.m.m.m.m.m.m.m.m.m.m.m.m.m.m.m.m.m.m.m.m.m.",
"m.O.5.$.A S B M V 8 m.m.m.m.m.m.m.m.m.m.m.m.m.m.m.m.m.m.m.m.m.m.m.m.m.m.m.m.m.m.m.m.m.m.m.m.m.m.m.m.m.m.m.m.m.m.m.m.m.m.m.m.m.m.",
"m.m.m.m.m.m.m.m.m.m.m.m.m.m.m.m.m.m.m.m.m.m.m.m.m.m.m.m.m.m.m.m.m.m.m.m.m.m.m.m.m.m.m.m.m.m.m.m.m.m.m.m.m.e.y.t.t.t.t.t.r.m.m.m.",
"m.m.m.m.m.m.m.m.m.m.m.m.m.m.m.m.m.m.m.m.m.m.m.m.m.m.m.m.m.m.m.m.m.m.m.m.m.m.m.m.m.m.m.m.m.m.m.m.m.m.m.m.m.x.l.k.k.k.l.j.c.T m.m.",
"m.m.m.m.m.m.m.m.m.m.m.m.m.m.m.m.m.m.m.m.m.m.m.m.m.m.m.m.m.m.m.m.m.m.m.m.m.m.m.m.m.m.m.m.m.m.m.m.m.m.m.m.m.l.f.f.f.d.f.f.f.m.m.m.",
"m.m.m.m.m.m.m.m.m.m.m.m.m.m.m.m.m.m.m.m.m.m.m.m.m.m.m.m.m.m.m.m.m.m.m.m.m.m.m.m.m.m.m.m.m.m.m.m.m.m.m.m./ x.f.f.f.f.d.f.f.m.m.m.",
"m.m.m.m.m.m.m.m.m.m.m.m.m.m.m.m.m.m.m.m.m.m.m.m.m.m.m.m.m.m.m.m.m.m.m.m.m.m.m.m.m.m.m.m.m.m.m.m.m.m.m.m.) c.f.f.f.d.d.f.d.m.m.m.",
"m.m.m.m.m.m.m.m.m.m.m.m.m.m.m.m.m.m.m.m.m.m.m.m.m.m.m.m.m.m.m.m.m.m.m.m.m.m.m.m.m.m.m.m.m.m.m.m.m.m.m.m.t.z.d.f.f.f.d.f.i.m.m.m.",
"m.m.m.m.m.m.m.m.m.m.m.m.m.m.m.m.m.m.m.m.m.m.m.m.m.m.m.m.m.m.m.m.m.m.m.m.m.m.m.m.m.m.m.m.m.m.m.m.m.m.m.m.a.f.d.f.d.f.a.l.e.m.m.m.",
"m.m.m.m.m.m.m.m.m.m.m.m.m.m.m.m.m.m.m.m.m.m.m.m.m.m.m.m.m.m.m.m.m.m.m.m.m.m.m.m.m.m.m.m.m.m.m.m.m.m.m.m.z.f.d.f.d.d.a.z.( m.m.m.",
"m.m.m.U E R E R ! W ! ~ ~ ~ ^ ^ ^ ^ ^ _ ) e.! m.m.m.m.m.m.m.m.m.m.m.m.m.m.m.m.m.m.m.m.m.m.m.m.m.m.m.m.t.z.d.d.d.d.d.a.l.T m.m.m.",
"m.m.m.R i.r.t.y.p.i.p.p.p.s.s.g.h.j.j.j.k.n.R m.m.m.m.m.m.m.m.m.m.m.m.m.m.m.m.m.m.m.m.m.m.m.m.m.m.m.m.d.f.d.d.d.d.a.f.i.m.m.m.m.",
"m.m.m.R e.) _ e.` ` ` u.t.u.u.i.i.p.p.g.j.Y m.m.m.m.m.m.m.m.m.m.m.m.m.m.m.m.m.m.m.m.m.m.m.m.m.m.m.m.e.c.f.d.d.d.f.a.l.e.m.m.m.m.",
"m.m.m.E r.` ` e.t.t.t.t.u.u.i.i.s.p.g.k.T m.m.m.m.m.m.m.m.m.m.m.m.m.m.m.m.m.m.m.m.m.m.m.m.m.m.m.m.m.f.f.d.d.d.a.a.d.l.T m.m.m.m.",
"m.m.m.E t.` e.r.` t.t.u.i.i.i.p.p.g.k.T m.m.m.m.m.m.m.m.m.m.m.m.m.m.m.m.m.m.m.m.m.m.m.m.m.m.m.m.m.y.l.d.d.d.d.d.a.h.y.m.m.m.m.m.",
"m.m.m.W t.e.r.r.t.t.u.u.i.p.p.p.g.j.T m.m.m.m.m.m.m.m.m.m.m.m.m.m.m.m.m.m.m.m.m.m.m.m.m.m.m.m.m.e.c.d.d.d.d.d.d.a.l./ m.m.m.m.m.",
"m.m.m.W y.r.r.t.t.u.i.i.i.p.s.g.z.T m.m.m.m.m.m.m.m.m.m.m.m.m.m.m.m.m.m.m.m.m.m.m.m.m.m.m.m.m.m.l.f.d.d.d.d.d.a.f.u.m.m.m.m.m.m.",
"m.m.m.! i.r.t.i.u.u.p.p.p.s.f.h.I m.m.m.m.m.m.m.m.m.m.m.m.m.m.m.m.m.m.m.m.m.m.m.m.m.m.m.m.m.m.f.f.d.d.d.d.a.a.a.l.Q m.m.m.m.m.m.",
"m.m.m.W i.r.u.t.u.i.p.s.s.s.g.j.W m.m.m.m.m.m.m.m.m.m.m.m.m.m.m.m.m.m.m.m.m.m.m.m.m.m.m.m.m.f.h.d.a.d.a.a.a.a.l.y.m.m.m.m.m.m.m.",
"m.m.m.~ p.t.y.u.i.i.p.s.f.g.g.j.v.` m.m.m.m.m.m.m.m.m.m.m.m.m.m.m.m.m.m.m.m.m.m.m.m.m.m./ l.l.d.d.f.a.a.a.a.d.f.m.m.m.m.m.m.m.m.",
"m.m.m.! p.t.i.i.p.p.s.s.g.g.g.g.k.v.p.I m.m.m.m.m.m.m.m.m.m.m.m.m.m.m.m.m.m.m.m.m.m.m.e.l.d.a.d.d.a.f.a.a.a.c.Q m.m.m.m.m.m.m.m.",
"m.m.m.~ s.i.i.p.p.p.s.g.g.g.j.k.j.g.k.v._ m.m.m.m.m.m.m.m.m.m.m.m.m.m.m.m.m.m.m.m.e.y.l.d.d.d.d.d.a.a.a.a.l.y.m.m.m.m.m.m.m.m.m.",
"m.m.m.~ s.i.p.p.s.f.j.g.j.j.j.j.k.j.g.j.v.h._ m.m.m.m.m.m.m.m.m.m.m.m.m.m.m.m./ a.c.l.d.d.d.d.d.d.a.d.a.l.y.m.m.m.m.m.m.m.m.m.m.",
"m.m.m.~ f.i.p.s.g.g.h.k.j.k.j.j.j.j.j.j.j.k.v.z.u._ R m.m.m.m.m.m.m.m.m./ y.a.c.f.d.d.d.d.d.d.a.a.a.a.l.y.m.m.m.m.m.m.m.m.m.m.m.",
"m.m.m.^ g.p.p.g.k.Y L j.k.k.j.j.j.j.g.j.j.h.h.j.z.v.c.h.i.u.y.t.u.u.a.c.c.c.l.a.a.f.d.d.d.a.a.d.d.a.c.y.m.m.m.m.m.m.m.m.m.m.m.m.",
"m.m.m.^ j.p.g.k.Y m.m.m.p.v.j.j.j.j.g.j.j.g.j.g.g.h.h.h.j.k.l.z.l.l.l.f.f.d.d.d.d.d.d.d.d.d.a.a.d.c.e.m.m.m.m.m.m.m.m.m.m.m.m.m.",
"m.m.m.^ h.f.j.I m.m.m.m.m.` v.k.j.j.j.j.j.j.h.j.h.h.h.g.h.f.f.f.d.f.d.f.d.f.f.f.d.d.d.a.a.a.a.f.l./ m.m.m.m.m.m.m.m.m.m.m.m.m.m.",
"m.m.m.^ j.j.I m.m.m.m.m.m.m.E j.x.j.h.j.j.g.h.h.h.h.h.h.h.f.f.f.f.f.f.f.f.d.f.a.d.a.d.a.a.d.c.y.T m.m.m.m.m.m.m.m.m.m.m.m.m.m.m.",
"m.m.m._ b.I m.m.m.m.m.m.m.m.m.m.` x.k.k.j.g.j.g.h.h.f.h.h.h.f.f.f.f.d.f.a.f.d.f.d.a.a.f.l.d.e.m.m.m.m.m.m.m.m.m.m.m.m.m.m.m.m.m.",
"m.m.m.! T m.m.m.m.m.m.m.m.m.m.m.m.I r.z.x.j.j.g.g.f.h.f.f.f.f.f.f.f.f.f.d.d.d.a.a.f.c.f.e.m.m.m.m.m.m.m.m.m.m.m.m.m.m.m.m.m.m.m.",
"m.m.m.K m.m.m.m.m.m.m.m.m.m.m.m.m.m.m.P _ i.x.x.k.h.h.h.f.f.d.d.d.d.a.f.d.d.l.l.l.y./ m.m.m.m.m.m.m.m.m.m.m.m.m.m.m.m.m.m.m.m.m.",
"m.m.m.m.m.m.m.m.m.m.m.m.m.m.m.m.m.m.m.m.m.m.T _ y.f.l.x.x.x.z.z.z.l.l.z.h.a.r./ m.m.m.m.m.m.m.m.m.m.m.m.m.m.m.m.m.m.m.m.m.m.m.m.",
"m.m.m.m.m.m.m.m.m.m.m.m.m.m.m.m.m.m.m.m.m.m.m.m.m.m.I R ( ) _ e._ ) / R m.m.m.m.m.m.m.m.m.m.m.m.m.m.m.m.m.m.m.m.m.m.m.m.m.m.m.m.",
"m.m.m.m.m.m.m.m.m.m.m.m.m.m.m.m.m.m.m.m.m.m.m.m.m.m.m.m.m.m.m.m.m.m.m.m.m.m.m.m.m.m.m.m.m.m.m.m.m.m.m.m.m.m.m.m.m.m.m.m.m.m.m.m.",
"m.m.m.m.m.m.m.m.m.m.m.m.m.m.m.m.m.m.m.m.m.m.m.m.m.m.m.m.m.m.m.m.m.m.m.m.m.m.m.m.m.m.m.m.m.m.m.m.m.m.m.m.m.m.m.m.m.m.m.m.m.m.m.m."
};
