/* XPM */
static const char *synchronize_24x24_xpm[] = {
/* columns rows colors chars-per-pixel */
"24 24 242 2 ",
"   c #CF9C3B",
".  c #E2B03C",
"X  c #E3B03D",
"o  c #FDC538",
"O  c #FCC738",
"+  c #FCC938",
"@  c #FDCB38",
"#  c #FECD38",
"$  c #FFCF39",
"%  c #D29F42",
"&  c #D39F43",
"*  c #D4A045",
"=  c #D4A146",
"-  c #DFA743",
";  c #DAA644",
":  c #DFA842",
">  c #D6A349",
",  c #D6A24A",
"<  c #D6A34B",
"1  c #D7A34C",
"2  c #D7A44D",
"3  c #DBA749",
"4  c #D8A64C",
"5  c #D8A44E",
"6  c #D9A752",
"7  c #DAA951",
"8  c #DBA956",
"9  c #DEAD54",
"0  c #DDAE5E",
"q  c #DFB05E",
"w  c #E2AB42",
"e  c #E2AB47",
"r  c #EEB947",
"t  c #EEBA4E",
"y  c #E2B257",
"u  c #EEBA53",
"i  c #EDBC53",
"p  c #E6B459",
"a  c #E5B65E",
"s  c #EDBA5B",
"d  c #E5B864",
"f  c #E6B966",
"g  c #EABB64",
"h  c #EABD65",
"j  c #E2B76A",
"k  c #E6BD71",
"l  c #F4CA47",
"z  c #F6CC46",
"x  c #FFCD40",
"c  c #F8CD44",
"v  c #FBC94B",
"b  c #F9C752",
"n  c #F2CC57",
"m  c #F7CD55",
"M  c #F9CC53",
"N  c #FACC55",
"B  c #F6CD5B",
"V  c #F4CE5A",
"C  c #F5CE5D",
"Z  c #F5CE5E",
"A  c #FACD58",
"S  c #F9CD5A",
"D  c #F9D05C",
"F  c #F1C465",
"G  c #F7CF61",
"H  c #F4CF62",
"J  c #F7C964",
"K  c #F9CE6D",
"L  c #F9CE6F",
"P  c #F6D163",
"I  c #F4D066",
"U  c #F6D066",
"Y  c #F8D063",
"T  c #FCD160",
"R  c #F6D469",
"E  c #F5D36D",
"W  c #F9D168",
"Q  c #FAD168",
"!  c #FBD26B",
"~  c #FDD26B",
"^  c #FCD568",
"/  c #EBC172",
"(  c #F2C870",
")  c #F4CC76",
"_  c #F2CB7B",
"`  c #F4CD7A",
"'  c #F6CE7D",
"]  c #F7D471",
"[  c #F7D670",
"{  c #F5D576",
"}  c #F6D576",
"|  c #F5D676",
" . c #FDD370",
".. c #FAD571",
"X. c #FAD375",
"o. c #F9D475",
"O. c #FBD476",
"+. c #FCD476",
"@. c #F5D67A",
"#. c #FAD37A",
"$. c #FDD578",
"%. c #FDD67B",
"&. c #F7D87D",
"*. c #71869D",
"=. c #7A8DA3",
"-. c #7D8FA4",
";. c #7C8FA5",
":. c #7C91A7",
">. c #8095AA",
",. c #8297AD",
"<. c #8599AE",
"1. c #8A9CAF",
"2. c #8599B0",
"3. c #8D9EB1",
"4. c #8E9FB2",
"5. c #8B9FB4",
"6. c #8C9FB4",
"7. c #8CA0B5",
"8. c #8FA2B6",
"9. c #91A2B5",
"0. c #92A3B5",
"q. c #92A4B7",
"w. c #91A4B8",
"e. c #91A5BA",
"r. c #93A7BC",
"t. c #96AABF",
"y. c #98A8BA",
"u. c #98A9BB",
"i. c #9BABBB",
"p. c #99AABC",
"a. c #99ABBC",
"s. c #98ABBF",
"d. c #99ACBF",
"f. c #EBC784",
"g. c #EBC785",
"h. c #FBD686",
"j. c #FAD882",
"k. c #F8DA87",
"l. c #FEDA86",
"z. c #FBDB89",
"x. c #FBD98B",
"c. c #FADC8D",
"v. c #FDDC8E",
"b. c #F4D696",
"n. c #FADD92",
"m. c #FCDE93",
"M. c #F9DA96",
"N. c #F7DB9F",
"B. c #FDDF99",
"V. c #FAE09B",
"C. c #F7DCA3",
"Z. c #F7DCA4",
"A. c #FCE2A1",
"S. c #FEE6AD",
"D. c #FEE7B2",
"F. c #FEE9B7",
"G. c #9BAEC2",
"H. c #9CAEC1",
"J. c #9DB0C3",
"K. c #A1B0C0",
"L. c #A2B1C0",
"P. c #A3B5C7",
"I. c #A4B4C4",
"U. c #A6B7C7",
"Y. c #ACB9C6",
"T. c #A9B8C8",
"R. c #A9BACB",
"E. c #AABACA",
"W. c #AFBDCA",
"Q. c #AEBECD",
"!. c #B1BECA",
"~. c #B0BECE",
"^. c #B3C0CD",
"/. c #B5C2CE",
"(. c #B6C3CE",
"). c #BBC6CF",
"_. c #B6C4D2",
"`. c #B7C4D2",
"'. c #BAC6D1",
"]. c #BCC7D0",
"[. c #B9C7D4",
"{. c #B8C7D5",
"}. c #BBC8D3",
"|. c #BFC9D3",
" X c #B9C8D5",
".X c #BBC9D5",
"XX c #BAC9D7",
"oX c #BECBD7",
"OX c #BCCAD8",
"+X c #BDCBD8",
"@X c #BDCBD9",
"#X c #BECCD9",
"$X c #BFCDD9",
"%X c #C3CDD6",
"&X c #C1CDD9",
"*X c #C3CED8",
"=X c #C0CDDA",
"-X c #C1CEDA",
";X c #C1CFDB",
":X c #C2CFDA",
">X c #C2CFDB",
",X c #C4D0D9",
"<X c #C5D0D9",
"1X c #C6D1DA",
"2X c #C7D1DA",
"3X c #C6D2DB",
"4X c #C3D0DC",
"5X c #C3D1DC",
"6X c #C4D1DD",
"7X c #C5D1DD",
"8X c #C5D2DC",
"9X c #C7D3DC",
"0X c #C6D2DD",
"qX c #C7D2DD",
"wX c #C7D4DE",
"eX c #C9D3DB",
"rX c #C8D3DE",
"tX c #C9D4DD",
"yX c #C8D4DE",
"uX c #C8D4DF",
"iX c #C9D4DF",
"pX c #CAD5DE",
"aX c #CBD6DF",
"sX c #CDD6DE",
"dX c #CAD5E0",
"fX c #CBD6E0",
"gX c #CCD7E1",
"hX c #CDD7E1",
"jX c #CFD8E0",
"kX c #CED8E1",
"lX c #CED9E1",
"zX c #CFD9E1",
"xX c #CFD9E3",
"cX c #D0DAE1",
"vX c #D0DAE2",
"bX c #D1DAE3",
"nX c #D1DBE3",
"mX c #D2DCE4",
"MX c #D4DDE4",
"NX c #D5DEE4",
"BX c #D6DFE5",
"VX c None",
/* pixels */
"VXVXVXVXVXVXVXVXVXVXVX1 1 VXVXVXVXVXVXVXVXVXVXVX",
"VXVXVXVXVXVXVX2 q / _ ` ) ( h 9 < VXVXVXVXVX  VX",
"VXVXVXVXVX5 k M.v.o.U Z C G Q  .L y , VXVXf   VX",
"VXVXVXVX8 b.B.] n B S A N M m V Y ~ F 4 a l.  VX",
"VXVXVX8 N.c.H W J u e - : w r b D P ! K $.%.  VX",
"VXVX5 Z.n.I X.s 3 * VXVXVXVX& ; t T R ..} O.  VX",
"VXVXg.A.E #.p = VXVXVXVXVXVXVXVX% i ^ [ | +.  VX",
"VX0 F.@.j.g = VXVXVXVXVXVXVXVXVXX x c z l v   VX",
"VXf.V.&.' > VXVXVXVXVXVXVXVXVX. $ # @ + O o   VX",
"5 C.k.z.d VXVXVXVXVXVXVXVXVX                  VX",
"5 D.{ x.7 VXVXVXVXVXVXVXVXVXVXVXVXVXVXVXVXVXVXVX",
"j S.m.h.= VXVXVXVXVXVXVXVXVXVXVXVXVXVXi.i.i.i.i.",
"6 6 6 6 6 VXVXVXVXVXVXVXVXVXVXVXVXVXVX<.mXyXoXp.",
"VXVXVXVXVXVXVXVXVXVXVXVXVXVXVXVXVXVXVXq.bX+X&X8.",
"VX3.3.3.3.3.3.3.3.3.VXVXVXVXVXVXVXVXVXT.fX=X_.6.",
"VX3.].).|.%XeX1X0.VXVXVXVXVXVXVXVXVX5.rX4X4XE.VX",
"VX3.).Y.!.'.<X9.VXVXVXVXVXVXVXVXVXVXQ.fXOX$Xd.VX",
"VX3.|.!.(.2X^.=.VXVXVXVXVXVXVXVX7.U.xX#X6XR.r.VX",
"VX3.%X'.2X,XNX'.1.VXVXVXVXVXVXw..XxX#X;X{.s.VXVX",
"VX3.eX1XsXcX9XvXBX/.K.u.a.I.`.gXuXOX5XXXJ.VXVXVX",
"VX3.1X4.-.*XMXtX3XaXlXzXkXhX0X#X@XwX XG.VXVXVXVX",
"VX3.3.VXVX*.L.jXnXpX8X:X-X>X7XdX;XP.t.VXVXVXVXVX",
"VX3.VXVXVXVXVX;.y.W.}.qXiX[.~.H.e.VXVXVXVXVXVXVX",
"VXVXVXVXVXVXVXVXVXVX:.>.,.2.VXVXVXVXVXVXVXVXVXVX"
};
