/* XPM */
static const char *text_document_48x48_xpm[] = {
/* columns rows colors chars-per-pixel */
"48 48 80 1 ",
"  c #5D5D5D",
". c DimGray",
"X c gray43",
"o c #777777",
"O c #7B7B7B",
"+ c #818181",
"@ c #848484",
"# c gray53",
"$ c #898989",
"% c gray58",
"& c gray59",
"* c gray62",
"= c #A4A4A4",
"- c #A5A5A5",
"; c gray71",
": c #B6B6B6",
"> c #BCBCBC",
", c gray75",
"< c #C3C3C3",
"1 c #C8C8C8",
"2 c #CDCDCD",
"3 c #CECECE",
"4 c #C0C9D2",
"5 c #C5CBD1",
"6 c #C5CED7",
"7 c #CFD4D9",
"8 c #CAD3DD",
"9 c #D0D0D0",
"0 c #D2D2D2",
"q c LightGray",
"w c gray83",
"e c gray84",
"r c #D8D8D8",
"t c gray85",
"y c #DADADA",
"u c gray86",
"i c #DDDDDD",
"p c gray87",
"a c #CFD9E2",
"s c #D1DAE5",
"d c #D1DBE5",
"f c #D3DCE7",
"g c #D6DDE7",
"h c #DBDDE1",
"j c #D4DEE8",
"k c #D5DEE9",
"l c #D5DFE9",
"z c #D6DFEA",
"x c gray88",
"c c #E1E1E1",
"v c gray89",
"b c #E2E4E7",
"n c #E4E4E4",
"m c #E6E6E6",
"M c #E7E7E7",
"N c gray91",
"B c #EAEAEA",
"V c gray92",
"C c #ECECEC",
"Z c gray93",
"A c #EDEEEF",
"S c #EEEEEE",
"D c #EFEFEF",
"F c #EDF0F4",
"G c gray94",
"H c #F1F1F1",
"J c gray95",
"K c #F3F3F3",
"L c #F4F4F4",
"P c gray96",
"I c gray97",
"U c #F8F8F8",
"Y c #F9F9F9",
"T c gray98",
"R c #FBFBFB",
"E c gray99",
"W c #FDFDFD",
"Q c #FEFEFE",
"! c white",
"~ c None",
/* pixels */
"~~~~~:111,111,111,111,111,111,111,111,11:~~~~~~~",
"~~~~~:!!!u!!!u!!!u!!!u!!!u!!!u!!!u!!!u!!=~~~~~~~",
"~~~~~:!!u2!!u2!!u2!!u2!!u2!!u2!!u2!!u2!!$~~~~~~~",
"~~~~~:!!uu!!uu!!uu!!uu!!uu!!uu!!uu!!uu!!#~~~~~~~",
"~~~~~:!!!!!!!!!!!!!!!!!!!!!!!!!!!!!!!!!!#~~~~~~~",
"~~~~~:!!!!!!!!!!!!!!!!!!!!!!!!!!!!!!!!!!#~~~~~~~",
"~~~~~:!!!!!!!!!!!!!!!!!!!!!!!!!!!!!!!!!!#~~~~~~~",
"~~~~~:zzzzzzzzzzzzzzzzzzzzzzzzzzzzzzzzzz#~~~~~~~",
"~~~~~:!!!!!!!!!!!!!!!!!!!!!!!!!!!!!!!!!!#~~~~~~~",
"~~~~~:!!!!!!!!!!!!!!!!!!!!!!!!!!!!!!!!!!#~~~~~~~",
"~~~~~:!!!!!!!!!!!!!!!!!!!!!!!!!!!!!!!!!!#~~~~~~~",
"~~~~~:zzzzzzzzzzzzzzzzzzzzzzzzzzzzzzzzzz#~~~~~~~",
"~~~~~:!!!!!!!!!!!!!!!!!!!!!!!!!!!!!!!!!!#~~~~~~~",
"~~~~~:!!!!!!!!!!!!!!!!!!!!!!!!!!!!!!!!!!#~~~~~~~",
"~~~~~:!!!!!!!!!!!!!!!!!!!!!!!!!!!!!!!!!!#~~~~~~~",
"~~~~~:zzzzzzzzzzzzzzzzzzzzzzzzzzzzzzzzzz#~~~~~~~",
"~~~~~:!!!!!!!!!!!!!!!!!!!!!!!!!!!!!!!!!!#~~~~~~~",
"~~~~~:!!!!!!!!!!!!!!!!!!!!!!!!!!!!!!!!!!#~~~~~~~",
"~~~~~:!!!!!!!!!!!!!!!!!!!!!!!!!!!!!!!!!!#~~~~~~~",
"~~~~~:zzzzzzzzzzzzzzzzzzzzzzzzzzzzzzzzzz#~~~~~~~",
"~~~~~:!!!!!!!!!!!!!!!!!!!!!!!!!!!!!!!!!!#~~~~~~~",
"~~~~~:!!!!!!!!!!!!!!!!!!!!!!!!!!!!!!!!!!#~~~~~~~",
"~~~~~:!!!!!!!!!!!!!!!!!!!!!!!!!!!!!!!!!!#~~~~~~~",
"~~~~~:zllllllllllllllllllllllllllllllllz#~~~~~~~",
"~~~~~:!QQQQQQQQQQQQQQQQQQQQQQQQQQQQQQQQ!#~~~~~~~",
"~~~~~:!QQQQQQQQQQQQQQQQQQQQQQQQQQQQQQQQ!#~~~~~~~",
"~~~~~:!WWWWWWWWWWWWWWWWWWWWWWWWWWWWWWWQ!#~~~~~~~",
"~~~~~:zllllllllllllllllllllllllllllllllz#~~~~~~~",
"~~~~~:!EEEEEEEEEEEEEEEEEEEEEEEEEEEEEEEW!#~~~~~~~",
"~~~~~:!RRRRRRRRRRRRRRRRRRRRRRRRRRRRRRRE!#~~~~~~~",
"~~~~~:!RRRRRRRRRRRRRRRRRRRRRRRRRRRRRRRE!#~~~~~~~",
"~~~~~:zjjjjjjjjjjjjjjjjjjjjjjjjjjjjjjjkz#~~~~~~~",
"~~~~~:!YYYYYYYYYYYYYYYYYYYYYYYYYYYYYYYR!#~~~~~~~",
"~~~~~:!UUUUUUUUUUUUUUUUUUUUUUUUUUUUUUUT!#~~~~~~~",
"~~~~~:!IIIIIIIIIIIIIIIIIIIIIIIIIIIIIIIY!#~~~~~~~",
"~~~~~:zfffffffffffffffffffffffffffffffsk#~~~~~~~",
"~~~~~:!PPPPPPPPPPPPPPPPPPPPPPPPPPPPPPJDE#~~~~~~~",
"~~~~~:!LLLLLLLLLLLLLLLLLLLLLLLLLLLLKHVNT#~~~~~~~",
"~~~~~:!JJJJJJJJJJJJJJJJJJJJJJJJJJJJAbh7g&~~~~~~~",
"~~~~~:zddddddddddddddddddddddddddda8645F#~~~~~~~",
"~~~~~:!GGGGGGGGGGGGGGGGGGGGGGGGGDZMcuerU@~~~~~~~",
"~~~~~:!SSSSSSSSSSSSSSSSSSSSSSSSSVmxyw3m0o~~~~~~~",
"~~~~~:!ZZZZZZZZZZZZZZZZZZZZZZZCBnptq9uT- ~~~~~~~",
"~~~~~:!GGGGGGGGGGGGGGGGGGGGGGGZNcivDTG>+~~~~~~~~",
"~~~~~:!!!!!!!!!!!!!!!!!!!!!!!!WEE!c<*+.~~~~~~~~~",
"~~~~~;%###########################OX~~~~~~~~~~~~",
"~~~~~~~~~~~~~~~~~~~~~~~~~~~~~~~~~~~~~~~~~~~~~~~~",
"~~~~~~~~~~~~~~~~~~~~~~~~~~~~~~~~~~~~~~~~~~~~~~~~"
};
