/* XPM */
static const char *up2_32x32_xpm[] = {
/* columns rows colors chars-per-pixel */
"32 32 155 2 ",
"   c #A71C1C",
".  c #A81B1B",
"X  c #AB1A1A",
"o  c #AA1B1B",
"O  c #AB1B1B",
"+  c #AC1919",
"@  c #AF1818",
"#  c #AE1919",
"$  c #AF1919",
"%  c #AC1A1A",
"&  c #AD1A1A",
"*  c #AC1B1B",
"=  c #AD1B1B",
"-  c #AE1A1A",
";  c #A81C1C",
":  c #A91C1C",
">  c #AA1C1C",
",  c #AB1C1C",
"<  c #AC1C1C",
"1  c #B01818",
"2  c #CC1919",
"3  c #CD1A1A",
"4  c #CE1B1B",
"5  c #CF1C1C",
"6  c #D01C1C",
"7  c #D01D1D",
"8  c #D11D1D",
"9  c #D11E1E",
"0  c #D21E1E",
"q  c #D21F1F",
"w  c #D31F1F",
"e  c #D32020",
"r  c #D42020",
"t  c #D42121",
"y  c #D52121",
"u  c #D62222",
"i  c #D72323",
"p  c #D12626",
"a  c #D82424",
"s  c #D92424",
"d  c #D92525",
"f  c #DA2525",
"g  c #DA2626",
"h  c #DB2626",
"j  c #DB2727",
"k  c #DC2727",
"l  c #D42C2C",
"z  c #DC2828",
"x  c #DD2828",
"c  c #DD2929",
"v  c #DE2929",
"b  c #DE2A2A",
"n  c #DF2A2A",
"m  c #D72F33",
"M  c #D13030",
"N  c #D53333",
"B  c #D83034",
"V  c #D93135",
"C  c #DA3236",
"Z  c #D53C3C",
"A  c #E02B2B",
"S  c #E12C2C",
"D  c #E22D2D",
"F  c #E32E2E",
"G  c #E42E2E",
"H  c #E42F2F",
"J  c #E52F2F",
"K  c #E23031",
"L  c #E53030",
"P  c #E83F43",
"I  c #C94343",
"U  c #CA4444",
"Y  c #CB4545",
"T  c #CC4646",
"R  c #CD4848",
"E  c #CE4848",
"W  c #CE4949",
"Q  c #CF4B4B",
"!  c #D74040",
"~  c #D44343",
"^  c #D64545",
"/  c #D84747",
"(  c #DB4747",
")  c #DC4747",
"_  c #D24A4E",
"`  c #D14C4C",
"'  c #D14D4D",
"]  c #D24E4E",
"[  c #D34E4E",
"{  c #D34F4F",
"}  c #DA4949",
"|  c #DC4A4A",
" . c #D94E4E",
".. c #D84F4F",
"X. c #DE4C4C",
"o. c #D45050",
"O. c #D55050",
"+. c #D55151",
"@. c #D95256",
"#. c #D95757",
"$. c #DA5656",
"%. c #DB5656",
"&. c #DA5757",
"*. c #DD5454",
"=. c #DC5555",
"-. c #DD5555",
";. c #DC5656",
":. c #DF565A",
">. c #D75959",
",. c #D55B5B",
"<. c #D65A5A",
"1. c #D75A5A",
"2. c #D65B5B",
"3. c #D45C5C",
"4. c #D45D5D",
"5. c #D85858",
"6. c #D95858",
"7. c #D85959",
"8. c #E94044",
"9. c #EA4044",
"0. c #EB4145",
"q. c #E04E4E",
"w. c #E25050",
"e. c #E45151",
"r. c #E65353",
"t. c #E75454",
"y. c #E85555",
"u. c #E95656",
"i. c #EA5757",
"p. c #EB5757",
"a. c #E1545E",
"s. c #EB5858",
"d. c #E05660",
"f. c #DF6367",
"g. c #DE6468",
"h. c #E16165",
"j. c #E06266",
"k. c #E16266",
"l. c #E36565",
"z. c #E46666",
"x. c #E56868",
"c. c #E76868",
"v. c #E86A6A",
"b. c #F06569",
"n. c #E77E7E",
"m. c #F7737D",
"M. c #F57F89",
"N. c #FF7888",
"B. c #E38B8B",
"V. c #E78888",
"C. c #E68989",
"Z. c #E48A8A",
"A. c #E58A8A",
"S. c #E48B8B",
"D. c None",
/* pixels */
"D.D.D.D.D.D.D.D.D.D.D.D.D.D.D.D.D.D.D.D.D.D.D.D.D.D.D.D.D.D.D.D.",
"D.D.D.D.D.D.D.D.D.D.D.D.D.D.D.D.D.D.D.D.D.D.D.D.D.D.D.D.D.D.D.D.",
"D.D.D.D.D.D.D.D.D.D.D.D.D.D.D.. : D.D.D.D.D.D.D.D.D.D.D.D.D.D.D.",
"D.D.D.D.D.D.D.D.D.D.D.D.D.D.. [ ] > D.D.D.D.D.D.D.D.D.D.D.D.D.D.",
"D.D.D.D.D.D.D.D.D.D.D.D.D.; { t.r.' > D.D.D.D.D.D.D.D.D.D.D.D.D.",
"D.D.D.D.D.D.D.D.D.D.D.D.; o.y.S n e.` o D.D.D.D.D.D.D.D.D.D.D.D.",
"D.D.D.D.D.D.D.D.D.D.D.  O.u.D S n x w.Q o D.D.D.D.D.D.D.D.D.D.D.",
"D.D.D.D.D.D.D.D.D.D.  O.i.G D A v z g q.W O D.D.D.D.D.D.D.D.D.D.",
"D.D.D.D.D.D.D.D.D.  +.p.H F S n v k f a X.E O D.D.D.D.D.D.D.D.D.",
"D.D.D.D.D.D.D.D.  +.s.L F D A b x j d i u | R O D.D.D.D.D.D.D.D.",
"D.D.D.D.D.D.D.  +.s.L H D S n v k g a i y w } T X D.D.D.D.D.D.D.",
"D.D.D.D.D.D.  +.s.L H F S A v x h d i u r q 8 / Y % D.D.D.D.D.D.",
"D.D.D.D.D.  O.p.L H F S A b x j f a i y e 9 7 4 ^ U % D.D.D.D.D.",
"D.D.D.D.; O.i.J G D S A b c k g s i u r q 8 5 3 2 ~ I % D.D.D.D.",
"D.D.D.; @.b.0.9.8.P K b c k g d i u t w 9 6 C V B m :._ + D.D.D.",
"D.D.; d.N.N.N.N.N.m.v x k g d a u y e 0 7 5 N.N.N.N.N.N.a.- D.D.",
"D.D., , , , , , , v.x j g d a u y r q 8 5 4 N.- - - - # $ $ D.D.",
"D.D.D.D.D.D.D.D.< c.h f d i u y r q 9 6 4 3 N.- D.D.D.D.D.D.D.D.",
"D.D.D.D.D.D.D.D.< x.d a i u y r q 9 6 4 3 M N.- D.D.D.D.D.D.D.D.",
"D.D.D.D.D.D.D.D.* z.i i u y e q 9 6 p Z ..#.N.- D.D.D.D.D.D.D.D.",
"D.D.D.D.D.D.D.D.* l.u y r w l N !  .$.$.#.5.N.- D.D.D.D.D.D.D.D.",
"D.D.D.D.D.D.D.D.* n.) ( -.=.=.%.%.$.$.#.5.7.N.# D.D.D.D.D.D.D.D.",
"D.D.D.D.D.D.D.D.= V.*.-.=.;.%.$.$.#.#.5.7.>.N.# D.D.D.D.D.D.D.D.",
"D.D.D.D.D.D.D.D.= V.=.;.%.%.$.$.#.#.7.7.>.1.N.$ D.D.D.D.D.D.D.D.",
"D.D.D.D.D.D.D.D.= C.%.%.$.$.&.#.5.7.>.>.1.<.N.$ D.D.D.D.D.D.D.D.",
"D.D.D.D.D.D.D.D.& C.$.$.&.#.6.7.7.>.>.1.<.,.N.$ D.D.D.D.D.D.D.D.",
"D.D.D.D.D.D.D.D.& A.&.#.6.5.7.7.>.1.<.2.,.,.N.$ D.D.D.D.D.D.D.D.",
"D.D.D.D.D.D.D.D.- Z.6.7.7.7.>.>.1.<.2.,.,.3.N.$ D.D.D.D.D.D.D.D.",
"D.D.D.D.D.D.D.D.- S.7.>.>.>.1.<.2.,.,.,.3.4.N.@ D.D.D.D.D.D.D.D.",
"D.D.D.D.D.D.D.D.- B.h.h.h.k.j.j.j.f.f.f.g.g.N.@ D.D.D.D.D.D.D.D.",
"D.D.D.D.D.D.D.D.# M.N.N.N.N.N.N.N.N.N.N.N.N.N.1 D.D.D.D.D.D.D.D.",
"D.D.D.D.D.D.D.D.# # $ $ $ $ $ $ $ $ $ @ @ 1 1 1 D.D.D.D.D.D.D.D."
};
