/* XPM */
static const char *up2_16x16_xpm[] = {
/* columns rows colors chars-per-pixel */
"16 16 66 1 ",
"  c #AF1818",
". c #AE1919",
"X c #AF1919",
"o c #AD1A1A",
"O c #AC1B1B",
"+ c #AD1B1B",
"@ c #AE1A1A",
"# c #AB1C1C",
"$ c #AA1D1D",
"% c #AB1D1D",
"& c #AC1C1C",
"* c #AF1E1E",
"= c #AE1F1F",
"- c #AF1F1F",
"; c #B01818",
": c #B01E1E",
"> c #B01F1F",
", c #AD2020",
"< c #AE2020",
"1 c #AF2020",
"2 c #B12324",
"3 c #B22929",
"4 c #B52A2A",
"5 c #B62A2A",
"6 c #B63333",
"7 c #BB3F3F",
"8 c #C03337",
"9 c #C23236",
"0 c #C3363A",
"q c #C2373B",
"w c #BB4747",
"e c #BA4848",
"r c #BB4848",
"t c #BF5454",
"y c #C94D51",
"u c #C15252",
"i c #C05353",
"p c #C15353",
"a c #C25353",
"s c #C05454",
"d c #C35454",
"f c #C35555",
"g c #C45757",
"h c #C45858",
"j c #C55A5A",
"k c #C55C5C",
"l c #C65C5C",
"z c #C65E5E",
"x c #D0585C",
"c c #C56060",
"v c #C96969",
"b c #D36165",
"n c #D16266",
"m c #D46367",
"M c #D46468",
"N c #D56569",
"B c #D6676B",
"V c #E5616B",
"C c #EF6774",
"Z c #E96F79",
"A c #FF7888",
"S c #D48686",
"D c #D58989",
"F c #D98B8C",
"G c #F0808A",
"H c None",
/* pixels */
"HHHHHHH##HHHHHHH",
"HHHHHH%ws<HHHHHH",
"HHHHH$rtss<HHHHH",
"HHHH$rt,<ip1HHHH",
"HHH$et,&&=pp-HHH",
"HH$rt,#&OO-uu>HH",
"H2ynq8&OO+90bx:H",
"#CAAAZOO++AAAAVX",
"#&&&&cO++oA@@.XX",
"HHHHOc++o*A@HHHH",
"HHHH+v367dA.HHHH",
"HHHH+SafhkAXHHHH",
"HHHHoDgjlzAXHHHH",
"HHHH@FmMNBAXHHHH",
"HHHH@GAAAAA HHHH",
"HHHHX444445;HHHH"
};
