/* XPM */
static const char *up2_48x48_xpm[] = {
/* columns rows colors chars-per-pixel */
"48 48 213 2 ",
"   c #A81B1B",
".  c #AF1818",
"X  c #AE1919",
"o  c #AF1919",
"O  c #AD1A1A",
"+  c #AC1B1B",
"@  c #AD1B1B",
"#  c #AE1A1A",
"$  c #A81C1C",
"%  c #A91C1C",
"&  c #AA1C1C",
"*  c #AB1C1C",
"=  c #AC1C1C",
"-  c #AF1E1E",
";  c #AE1F1F",
":  c #AF1F1F",
">  c #B01818",
",  c #B01E1E",
"<  c #AC2020",
"1  c #AC2121",
"2  c #AD2121",
"3  c #AE2020",
"4  c #AF2020",
"5  c #AE2121",
"6  c #AC2222",
"7  c #C81515",
"8  c #C91717",
"9  c #CA1717",
"0  c #CB1818",
"q  c #CB1919",
"w  c #CC1919",
"e  c #CD1A1A",
"r  c #CE1B1B",
"t  c #CF1C1C",
"y  c #D01C1C",
"u  c #D01D1D",
"i  c #D11D1D",
"p  c #D11E1E",
"a  c #D21E1E",
"s  c #D21F1F",
"d  c #D31F1F",
"f  c #CB2626",
"g  c #CC2727",
"h  c #CD2828",
"j  c #CF2929",
"k  c #D32020",
"l  c #D02323",
"z  c #D42020",
"x  c #D42121",
"c  c #D52121",
"v  c #D62222",
"b  c #D72323",
"n  c #D12424",
"m  c #D82424",
"M  c #D92525",
"N  c #DA2525",
"B  c #DA2626",
"V  c #DB2626",
"C  c #DB2727",
"Z  c #DC2727",
"A  c #D02A2A",
"S  c #D12B2B",
"D  c #D12C2C",
"F  c #D52D2D",
"G  c #DC2828",
"H  c #DD2828",
"J  c #DD2929",
"K  c #DE2929",
"L  c #DE2A2A",
"P  c #DF2A2A",
"I  c #DF2B2B",
"U  c #D23131",
"Y  c #D43636",
"T  c #D63737",
"R  c #D93232",
"E  c #D53C3C",
"W  c #D93B3B",
"Q  c #DA3B3B",
"!  c #E02B2B",
"~  c #E02C2C",
"^  c #E12C2C",
"/  c #E22D2D",
"(  c #E32E2E",
")  c #E42E2E",
"_  c #E42F2F",
"`  c #E52F2F",
"'  c #E53030",
"]  c #E63030",
"[  c #E63131",
"{  c #E73131",
"}  c #E73232",
"|  c #E83232",
" . c #E33C3C",
".. c #E43D3D",
"X. c #E53D3D",
"o. c #E53E3E",
"O. c #E63E3E",
"+. c #CF4E4E",
"@. c #D14141",
"#. c #D34242",
"$. c #D44343",
"%. c #D54444",
"&. c #D74545",
"*. c #D84141",
"=. c #DA4141",
"-. c #D84747",
";. c #D14F4F",
":. c #D34E4E",
">. c #D34F4F",
",. c #D44D4D",
"<. c #D44F4F",
"1. c #D94848",
"2. c #DB4848",
"3. c #DB4949",
"4. c #DC4A4A",
"5. c #DD4B4B",
"6. c #D94C4C",
"7. c #DA4F4F",
"8. c #DE4C4C",
"9. c #DC4E4E",
"0. c #D15050",
"q. c #D25151",
"w. c #D35252",
"e. c #D45050",
"r. c #D45353",
"t. c #D45454",
"y. c #D65454",
"u. c #D65555",
"i. c #D75656",
"p. c #D85050",
"a. c #D95353",
"s. c #D85757",
"d. c #D95757",
"f. c #DB5656",
"g. c #DA5757",
"h. c #DB5757",
"j. c #DD5555",
"k. c #DE5454",
"l. c #DF5454",
"z. c #DE5555",
"x. c #DC5656",
"c. c #DD5656",
"v. c #D65A5A",
"b. c #D75A5A",
"n. c #D65B5B",
"m. c #D35E5E",
"M. c #D45C5C",
"N. c #D55C5C",
"B. c #D45D5D",
"V. c #D65C5C",
"C. c #D45E5E",
"Z. c #D95858",
"A. c #D85959",
"S. c #D95959",
"D. c #DA5858",
"F. c #DA5959",
"G. c #D85A5A",
"H. c #DC5A5A",
"J. c #DC5B5B",
"K. c #DD5B5B",
"L. c #DD5C5C",
"P. c #DE5D5D",
"I. c #E04D4D",
"U. c #E14F4F",
"Y. c #E25050",
"T. c #E35151",
"R. c #E45252",
"E. c #E65353",
"W. c #E65454",
"Q. c #E85555",
"!. c #E95656",
"~. c #EA5757",
"^. c #EB5757",
"/. c #E05F5F",
"(. c #EB5858",
"). c #EC5959",
"_. c #ED5A5A",
"`. c #DF6367",
"'. c #DE6468",
"]. c #DF6468",
"[. c #DE6569",
"{. c #E16060",
"}. c #E26060",
"|. c #E26161",
" X c #E36161",
".X c #E06266",
"XX c #E16266",
"oX c #E06367",
"OX c #E46666",
"+X c #E46767",
"@X c #EB6262",
"#X c #E8606A",
"$X c #EC656F",
"%X c #E56868",
"&X c #E66868",
"*X c #E76969",
"=X c #E76A6A",
"-X c #E46E6E",
";X c #E86A6A",
":X c #F7737D",
">X c #FF7888",
",X c #E68989",
"<X c #E78989",
"1X c #E58A8A",
"2X c #E48B8B",
"3X c #E68A8A",
"4X c #E38C8C",
"5X c #E48C8C",
"6X c #E88888",
"7X c #E98888",
"8X c #E88989",
"9X c #F5808A",
"0X c None",
/* pixels */
"0X0X0X0X0X0X0X0X0X0X0X0X0X0X0X0X0X0X0X0X0X0X0X0X0X0X0X0X0X0X0X0X0X0X0X0X0X0X0X0X0X0X0X0X0X0X0X0X",
"0X0X0X0X0X0X0X0X0X0X0X0X0X0X0X0X0X0X0X0X0X0X0X0X0X0X0X0X0X0X0X0X0X0X0X0X0X0X0X0X0X0X0X0X0X0X0X0X",
"0X0X0X0X0X0X0X0X0X0X0X0X0X0X0X0X0X0X0X0X0X0X0X0X  % 0X0X0X0X0X0X0X0X0X0X0X0X0X0X0X0X0X0X0X0X0X0X",
"0X0X0X0X0X0X0X0X0X0X0X0X0X0X0X0X0X0X0X0X0X0X0X  :.P.2 0X0X0X0X0X0X0X0X0X0X0X0X0X0X0X0X0X0X0X0X0X",
"0X0X0X0X0X0X0X0X0X0X0X0X0X0X0X0X0X0X0X0X0X0X  >.Q.W.L.5 0X0X0X0X0X0X0X0X0X0X0X0X0X0X0X0X0X0X0X0X",
"0X0X0X0X0X0X0X0X0X0X0X0X0X0X0X0X0X0X0X0X0X$ <.Q./ ^ E.K.5 0X0X0X0X0X0X0X0X0X0X0X0X0X0X0X0X0X0X0X",
"0X0X0X0X0X0X0X0X0X0X0X0X0X0X0X0X0X0X0X0X$ e.!.( / ^ I R.J.5 0X0X0X0X0X0X0X0X0X0X0X0X0X0X0X0X0X0X",
"0X0X0X0X0X0X0X0X0X0X0X0X0X0X0X0X0X0X0X6 {.~._ ( / ~ P K T.H.3 0X0X0X0X0X0X0X0X0X0X0X0X0X0X0X0X0X",
"0X0X0X0X0X0X0X0X0X0X0X0X0X0X0X0X0X0X6 }.^.' ) / ^ ! P K H Y.F.3 0X0X0X0X0X0X0X0X0X0X0X0X0X0X0X0X",
"0X0X0X0X0X0X0X0X0X0X0X0X0X0X0X0X0X6 |.(.] _ ( / ^ ! L J G C U.D.3 0X0X0X0X0X0X0X0X0X0X0X0X0X0X0X",
"0X0X0X0X0X0X0X0X0X0X0X0X0X0X0X0X6  X).[ ' _ ( / ~ P K H Z V M I.d.4 0X0X0X0X0X0X0X0X0X0X0X0X0X0X",
"0X0X0X0X0X0X0X0X0X0X0X0X0X0X0X6  X).{ ] ` ) / ^ ! P K H C B M m 8.s.4 0X0X0X0X0X0X0X0X0X0X0X0X0X",
"0X0X0X0X0X0X0X0X0X0X0X0X0X0X6  X_.} [ ' _ ( / ^ I L J Z C N m b v 5.i.3 0X0X0X0X0X0X0X0X0X0X0X0X",
"0X0X0X0X0X0X0X0X0X0X0X0X0X6  X_.| { ] _ ( / ^ ! P K H Z B M m b v c 4.u.; 0X0X0X0X0X0X0X0X0X0X0X",
"0X0X0X0X0X0X0X0X0X0X0X0X6  X_.| { ] ` ) ( / ^ I L J G C B M m b c x d 3.y.; 0X0X0X0X0X0X0X0X0X0X",
"0X0X0X0X0X0X0X0X0X0X0X6  X_.| { ] ' _ ( / ^ ! P K H Z V M m b v c z d p 1.t.; 0X0X0X0X0X0X0X0X0X",
"0X0X0X0X0X0X0X0X0X0X6  X_.| { ] ' _ ( / ^ ! P K J Z C B M m b v x k s p u -.r.: 0X0X0X0X0X0X0X0X",
"0X0X0X0X0X0X0X0X0X6  X).} { ] ' _ ( / ^ ~ I L K H C B M m b v c z d a i t r &.w.: 0X0X0X0X0X0X0X",
"0X0X0X0X0X0X0X0X6 |.).{ [ ] ` _ ( / ^ ~ I L K H Z V N M b b v x k s p u t r e %.q.- 0X0X0X0X0X0X",
"0X0X0X0X0X0X0X6 }.(.[ ] ' _ ) ( / ^ ~ I P K H Z C B M m b v c z d a i y r e w q $.0.- 0X0X0X0X0X",
"0X0X0X0X0X0X1 {.^.] ' ` _ ( ( / ^ ~ I P K H Z C B M m b v c x d s p u t r e w 0 8 #.;.- 0X0X0X0X",
"0X0X0X0X0X1 {.~.' _ _ ) ( / / ^ ! I L K H Z C B M m b b v c k s p i t r e w q 9 8 7 @.+.- 0X0X0X",
"0X0X0X0X< /.@XO.O.o.o.X... . .! P L K H Z C B M m b b v c z d a p y t D S A j h h g f ,.+., 0X0X",
"0X0X0X$ $X>X>X>X>X>X>X>X>X>X:XP K K H Z C B M m m b v c z d s p u t r >X>X>X>X>X>X>X>X>X>X#XX 0X",
"0X0X& * * * * * * * * * * = ;XK J H Z C B M m m b v c z d s p u t r e >X# # # # X X X o o o o o ",
"0X0X0X0X0X0X0X0X0X0X0X0X0X= =XH Z C V B M m b b v c x k s p i y t r e >X# 0X0X0X0X0X0X0X0X0X0X0X",
"0X0X0X0X0X0X0X0X0X0X0X0X0X= *XZ C B N M m b b v c x k s p i y t r e w >X# 0X0X0X0X0X0X0X0X0X0X0X",
"0X0X0X0X0X0X0X0X0X0X0X0X0X= &XV B M M m b b v c z k s p p u t r e U p.>X# 0X0X0X0X0X0X0X0X0X0X0X",
"0X0X0X0X0X0X0X0X0X0X0X0X0X+ %XM M m b b v v c z d s p p u t l E a.d.d.>X# 0X0X0X0X0X0X0X0X0X0X0X",
"0X0X0X0X0X0X0X0X0X0X0X0X0X+ +Xm m b b v c c z d s p i n Y 6.g.g.g.d.S.>X# 0X0X0X0X0X0X0X0X0X0X0X",
"0X0X0X0X0X0X0X0X0X0X0X0X0X+ OXb b v v c x k d F T *.7.f.h.g.g.g.d.S.A.>XX 0X0X0X0X0X0X0X0X0X0X0X",
"0X0X0X0X0X0X0X0X0X0X0X0X0X+ -XR Q Q W =.2.9.c.c.x.x.h.h.g.g.g.d.S.A.A.>XX 0X0X0X0X0X0X0X0X0X0X0X",
"0X0X0X0X0X0X0X0X0X0X0X0X0X@ 7Xl.k.k.k.j.j.x.c.x.f.h.h.g.g.g.d.S.A.A.b.>XX 0X0X0X0X0X0X0X0X0X0X0X",
"0X0X0X0X0X0X0X0X0X0X0X0X0X@ 6Xk.k.z.j.c.x.x.x.h.h.h.g.g.d.d.S.A.A.b.b.>Xo 0X0X0X0X0X0X0X0X0X0X0X",
"0X0X0X0X0X0X0X0X0X0X0X0X0X@ 8Xj.j.c.x.c.x.f.h.h.g.g.g.d.Z.S.A.G.b.b.b.>Xo 0X0X0X0X0X0X0X0X0X0X0X",
"0X0X0X0X0X0X0X0X0X0X0X0X0X@ 8Xc.c.c.x.x.h.h.h.g.g.g.d.Z.A.A.A.b.b.b.b.>Xo 0X0X0X0X0X0X0X0X0X0X0X",
"0X0X0X0X0X0X0X0X0X0X0X0X0X@ <Xx.x.f.h.h.h.g.g.g.d.d.S.A.A.A.b.b.b.b.v.>Xo 0X0X0X0X0X0X0X0X0X0X0X",
"0X0X0X0X0X0X0X0X0X0X0X0X0XO ,Xh.h.h.h.g.g.g.g.d.Z.S.A.A.G.b.b.b.b.n.n.>Xo 0X0X0X0X0X0X0X0X0X0X0X",
"0X0X0X0X0X0X0X0X0X0X0X0X0XO 3Xh.h.g.g.g.g.d.Z.S.A.A.A.b.b.b.b.b.n.V.N.>Xo 0X0X0X0X0X0X0X0X0X0X0X",
"0X0X0X0X0X0X0X0X0X0X0X0X0XO 1Xg.g.g.g.d.Z.S.A.A.A.G.b.b.b.b.v.n.V.N.N.>Xo 0X0X0X0X0X0X0X0X0X0X0X",
"0X0X0X0X0X0X0X0X0X0X0X0X0X# 1Xg.d.d.Z.S.A.A.A.G.b.b.b.b.b.v.n.V.N.N.N.>Xo 0X0X0X0X0X0X0X0X0X0X0X",
"0X0X0X0X0X0X0X0X0X0X0X0X0X# 1XZ.Z.S.A.A.G.G.b.b.b.b.b.b.n.V.N.N.N.N.M.>Xo 0X0X0X0X0X0X0X0X0X0X0X",
"0X0X0X0X0X0X0X0X0X0X0X0X0X# 2XA.A.A.A.G.b.b.b.b.b.b.n.n.V.N.N.N.N.M.B.>X. 0X0X0X0X0X0X0X0X0X0X0X",
"0X0X0X0X0X0X0X0X0X0X0X0X0X# 2XA.G.G.b.b.b.b.b.b.v.n.V.N.N.N.N.N.B.B.C.>X> 0X0X0X0X0X0X0X0X0X0X0X",
"0X0X0X0X0X0X0X0X0X0X0X0X0X# 5Xb.b.b.b.b.b.b.v.n.V.V.N.N.N.N.M.B.C.C.m.>X> 0X0X0X0X0X0X0X0X0X0X0X",
"0X0X0X0X0X0X0X0X0X0X0X0X0XX 4XXXXXXXXXXX.X.XoXoXoXoXoX`.`.`.].].'.[.[.>X> 0X0X0X0X0X0X0X0X0X0X0X",
"0X0X0X0X0X0X0X0X0X0X0X0X0XX 9X>X>X>X>X>X>X>X>X>X>X>X>X>X>X>X>X>X>X>X>X>X> 0X0X0X0X0X0X0X0X0X0X0X",
"0X0X0X0X0X0X0X0X0X0X0X0X0Xo o o o o o o o o o o o o o o o . . > > > > > > 0X0X0X0X0X0X0X0X0X0X0X"
};
