/* XPM */
static const char *up_24x24_xpm[] = {
/* columns rows colors chars-per-pixel */
"24 24 231 2 ",
"   c #006300",
".  c DarkGreen",
"X  c #006600",
"o  c #006800",
"O  c #006A00",
"+  c #006B00",
"@  c #006C00",
"#  c #006E00",
"$  c #006F00",
"%  c #007000",
"&  c #007200",
"*  c #007300",
"=  c #007600",
"-  c #007A00",
";  c #007C00",
":  c #007D00",
">  c #007E00",
",  c #008100",
"<  c #008300",
"1  c #008500",
"2  c #008800",
"3  c #008900",
"4  c #008C00",
"5  c #008F00",
"6  c #009000",
"7  c #009300",
"8  c #009500",
"9  c #009700",
"0  c #009900",
"q  c #0A971B",
"w  c #0B971C",
"e  c #0D991D",
"r  c #1AA11B",
"t  c #109B20",
"y  c #109C20",
"u  c #139D22",
"i  c #139E22",
"p  c #149E23",
"a  c #169F25",
"s  c #179D27",
"d  c #1C9F2B",
"f  c #279D2A",
"g  c #299B2C",
"h  c #16A025",
"j  c #18A026",
"k  c #18A126",
"l  c #19A127",
"z  c #1AA227",
"x  c #1BA329",
"c  c #1CA329",
"v  c #1DA42A",
"b  c #1FA52B",
"n  c #1EA02E",
"m  c #1FA52C",
"M  c #20A62C",
"N  c #20A62D",
"B  c #21A62D",
"V  c #22A72D",
"C  c #22A72E",
"Z  c #2BA72E",
"A  c #24A82F",
"S  c #21A230",
"D  c #24A233",
"F  c #24A432",
"G  c #26A634",
"H  c #29A736",
"J  c #24A830",
"K  c #25A930",
"L  c #26A931",
"P  c #26AA31",
"I  c #27AA32",
"U  c #28AB32",
"Y  c #28AA33",
"T  c #28AB33",
"R  c #2FAA32",
"E  c #2FAB32",
"W  c #2FAB33",
"Q  c #2AAC34",
"!  c #2BAD35",
"~  c #2CAE36",
"^  c #2EAF37",
"/  c #2BA938",
"(  c #2DAA39",
")  c #2FAB3B",
"_  c #2EAF38",
"`  c #31A433",
"'  c #30A732",
"]  c #30AB34",
"[  c #30A73F",
"{  c #30A93D",
"}  c #32AA3E",
"|  c #30AC3C",
" . c #31AD3D",
".. c #3CAE3E",
"X. c #2FB038",
"o. c #30B039",
"O. c #31B13A",
"+. c #32B13A",
"@. c #33B23C",
"#. c #34B33C",
"$. c #35B33D",
"%. c #35B43D",
"&. c #38B53F",
"*. c #34AB42",
"=. c #34AC40",
"-. c #37AD42",
";. c #3BAC48",
":. c #3CAD49",
">. c #3DAE49",
",. c #3DAD4A",
"<. c #3DAD4B",
"1. c #3FAF4B",
"2. c #3FAD4D",
"3. c #3FAE4C",
"4. c #3AB641",
"5. c #3BB741",
"6. c #3CB842",
"7. c #3DB843",
"8. c #3FBA44",
"9. c #3FBA45",
"0. c #40AE4D",
"q. c #40AD4E",
"w. c #43AF4F",
"e. c #40B042",
"r. c #41B043",
"t. c #42B044",
"y. c #43B144",
"u. c #40BA45",
"i. c #42BC47",
"p. c #44B34F",
"a. c #43BC48",
"s. c #45BD49",
"d. c #45BE49",
"f. c #46BE4A",
"g. c #47BF4B",
"h. c #41AE50",
"j. c #42AE50",
"k. c #43AE50",
"l. c #43AF52",
"z. c #44AF52",
"x. c #45AF53",
"c. c #46AF53",
"v. c #49AF56",
"b. c #4BAF58",
"n. c #4EAE5A",
"m. c #47B054",
"M. c #48B055",
"N. c #48B056",
"B. c #4AB057",
"V. c #4CB557",
"C. c #4CB159",
"Z. c #4BB458",
"A. c #5BB566",
"S. c #5BBE63",
"D. c #58B864",
"F. c #5BB967",
"G. c #5DB569",
"H. c #5DB669",
"J. c #60BB6B",
"K. c #62BB6D",
"L. c #67BA72",
"P. c #68B973",
"I. c #6EBF78",
"U. c #4AC14D",
"Y. c #4BC24E",
"T. c #4DC34F",
"R. c #4EC450",
"E. c #51C553",
"W. c #52C653",
"Q. c #55C856",
"!. c #5ACB5A",
"~. c #5DCD5C",
"^. c #67C36F",
"/. c #69C470",
"(. c #6AC571",
"). c #6BC672",
"_. c #6CC672",
"`. c #6DC773",
"'. c #6EC874",
"]. c #70C975",
"[. c #70C678",
"{. c #75C77D",
"}. c #73CB78",
"|. c #74CC79",
" X c #78CE7C",
".X c #79CF7D",
"XX c #78BF81",
"oX c #78C781",
"OX c #7EC787",
"+X c #79C881",
"@X c #7CC885",
"#X c #7EC887",
"$X c #7DD180",
"%X c #7ED281",
"&X c #82C48B",
"*X c #87C58F",
"=X c #82C98B",
"-X c #86CB8E",
";X c #87CC8F",
":X c #82D484",
">X c #84D685",
",X c #86D787",
"<X c #89D98A",
"1X c #8ADA8A",
"2X c #8EDC8D",
"3X c #90DD8F",
"4X c #88CD90",
"5X c #89CD91",
"6X c #8ACE92",
"7X c #8CCF93",
"8X c #8FCB97",
"9X c #8DD094",
"0X c #8ED095",
"qX c #8ED195",
"wX c #8FD196",
"eX c #90D296",
"rX c #90D297",
"tX c #91DE90",
"yX c #94E092",
"uX c #96E194",
"iX c #9CCFA0",
"pX c #A1D2A8",
"aX c #A3D3A9",
"sX c #A4D4AA",
"dX c #A5D4AB",
"fX c #A8D5AD",
"gX c #A8D6AD",
"hX c #A9D5AE",
"jX c #AAD4B0",
"kX c #ADD7B3",
"lX c None",
/* pixels */
"lXlXlXlXlXlXlXlXlXlXlX0 0 0 lXlXlXlXlXlXlXlXlXlX",
"lXlXlXlXlXlXlXlXlXlX0 ..iXr 0 lXlXlXlXlXlXlXlXlX",
"lXlXlXlXlXlXlXlXlX0 r.jX*X&XZ 0 lXlXlXlXlXlXlXlX",
"lXlXlXlXlXlXlXlX0 e.hXXXn.I.=X] 0 lXlXlXlXlXlXlX",
"lXlXlXlXlXlXlX0 e.fXP.b.N.m.F.#XW 0 lXlXlXlXlXlX",
"lXlXlXlXlXlX0 e.gXL.v.c.l.k.w.D.@XE 0 lXlXlXlXlX",
"lXlXlXlXlX0 e.sXH.N.z.j.q.2.3.0.Z.oXR 8 lXlXlXlX",
"lXlXlXlX0 r.dXH.N.z.h.2.<.:.:.>.1.V.+X' 5 lXlXlX",
"lXlXlX0 r.pXA.B.x.j.2.,.;.*.{ } =.-.p.{.` 3 lXlX",
"lXlX0 t.aXG.C.M.[ D s t t u a l c b V Y S.f < lX",
"lX0 y.kX8XOXK.J.w q e y p j x b C ^./.(._.`.g > ",
"lX0 0 0 0 0 0 -Xd e y p k c M J U ).1 < , > ; - ",
"lXlXlXlXlXlX0 ;Xn t p k v B L Q ^ ]., lXlXlXlXlX",
"lXlXlXlXlXlX9 4XS i j c B P ! X.#.|.> lXlXlXlXlX",
"lXlXlXlXlXlX7 5XF h x N L ! o.$.4..X- lXlXlXlXlX",
"lXlXlXlXlXlX6 6XG z b J Q X.$.5.u.$X= lXlXlXlXlX",
"lXlXlXlXlXlX4 7XH c C U ^ #.4.u.f.:X* lXlXlXlXlX",
"lXlXlXlXlXlX2 9X/ m K ! +.&.8.d.Y.,X$ lXlXlXlXlX",
"lXlXlXlXlXlX1 0X( C T _ %.6.a.U.E.1X+ lXlXlXlXlX",
"lXlXlXlXlXlX, qX) A Q O.&.9.g.R.Q.2Xo lXlXlXlXlX",
"lXlXlXlXlXlX: wX| L ~ @.5.i.U.W.!.tX. lXlXlXlXlX",
"lXlXlXlXlXlX- eX .I ^ $.7.s.T.Q.~.yX  lXlXlXlXlX",
"lXlXlXlXlXlX= rX[./.'.}. X%X>X<X3XuX  lXlXlXlXlX",
"lXlXlXlXlXlX& % # @ O o X .           lXlXlXlXlX"
};
