/* XPM */
static const char *upload_16x16_xpm[] = {
/* columns rows colors chars-per-pixel */
"16 16 123 2 ",
"   c gray40",
".  c #676767",
"X  c #686868",
"o  c #6A6A6A",
"O  c gray42",
"+  c #6D6D6D",
"@  c gray44",
"#  c #747474",
"$  c gray47",
"%  c #7B7B7B",
"&  c #7C7C7C",
"*  c gray49",
"=  c gray50",
"-  c #36C837",
";  c #53B855",
":  c #5FC060",
">  c #5FD460",
",  c #D59D3D",
"<  c #DAA53B",
"1  c #DFAD38",
"2  c #E1A927",
"3  c #E1AA29",
"4  c #E1B238",
"5  c #E1B43B",
"6  c #E3B63B",
"7  c #F2C13D",
"8  c #F7CC3D",
"9  c #F9C83F",
"0  c #FFD43E",
"q  c #E5AE40",
"w  c #E1B641",
"e  c #E1B741",
"r  c #E9B242",
"t  c #E1BB4A",
"y  c #E1BB4B",
"u  c #E3BE4D",
"i  c #F8D650",
"p  c #F2D65E",
"a  c #FFE055",
"s  c #F9E266",
"d  c #FDE76A",
"f  c #FFEA6B",
"g  c gray56",
"h  c #909090",
"j  c #929295",
"k  c #959596",
"l  c #9B9B9B",
"z  c #9497A6",
"x  c #A2A2A2",
"c  c gray64",
"v  c #A9A9A9",
"b  c #AAACB8",
"n  c #ACAFBA",
"m  c #AFB1BC",
"M  c gray69",
"N  c #B2B2B6",
"B  c #B4B4B4",
"V  c gray71",
"C  c #B6B7B7",
"Z  c #B0B2BD",
"A  c #B1B3BD",
"S  c #B2B4BE",
"D  c #B2B4BF",
"F  c #B9B9BA",
"G  c #BCBCBD",
"H  c #CCC5B6",
"J  c #BFBFC0",
"K  c #BCBEC5",
"L  c #B6B8CA",
"P  c #BFC1C7",
"I  c #BFC0CC",
"U  c #C1C2C2",
"Y  c #C4C4C5",
"T  c gray78",
"R  c #C1C3C9",
"E  c #C3C5CA",
"W  c #C7C7C8",
"Q  c #C4C5CA",
"!  c #C4C6CB",
"~  c #C5C7CB",
"^  c #C9C9CA",
"/  c #C8C9CB",
"(  c #CACACC",
")  c #CBCBCC",
"_  c #CBCBCD",
"`  c #CBCCCD",
"'  c gray80",
"]  c gray81",
"[  c #D2D3D5",
"{  c #D7D7DF",
"}  c #DBDADD",
"|  c #DBDCDE",
" . c #DBF5DB",
".. c #F0E8DD",
"X. c #F1E8DF",
"o. c #DDDCE4",
"O. c #DDDCE5",
"+. c #E2E1E4",
"@. c #E1E0E7",
"#. c #E5E4ED",
"$. c #F4EBE0",
"%. c #E0F2E0",
"&. c #E0F9E0",
"*. c #E3FBE3",
"=. c #EBEAF2",
"-. c #F0EFF6",
";. c #F3F4F5",
":. c #F4F5F6",
">. c #F5F5F6",
",. c #F6F6F7",
"<. c #F6F7F7",
"1. c gray97",
"2. c #F3F1F8",
"3. c #F4F3F8",
"4. c #F4F2F9",
"5. c #F5F3FA",
"6. c #F6F4FB",
"7. c #F6F6FA",
"8. c #F7F5FC",
"9. c #FAFEFA",
"0. c #FBF9FD",
"q. c #FDFDFD",
"w. c None",
/* pixels */
"w.w.w.w.w.w.w.2 3 w.w.w.w.w.w.w.",
"w.w.w.w.w.w.5 6 6 5 w.w.w.w.w.w.",
"w.w.w.w.w.y u s s u y w.w.w.w.w.",
"w.w.w.w.t y p f d p y t w.w.w.w.",
"w.w.w.w e e e a i e e e w w.w.w.",
"w.w.' ' ' H 4 0 8 4 M v x l w.w.",
"w.w.] 4.8.X.1 9 7 1 -.=.@.k w.w.",
"w.' +.8.0.$.< r q < 7.3.#.N = w.",
"w.] 4.8.o..., , , , L I #.{ % w.",
"' } 8.8.8.8.8.6.5.2.-.=.#.O.j . ",
"' / ( _ ` ) ^ W Y U J G F C B c ",
"T ;.:.>.,.<.1.1.1.1.1.1.%. .9.h ",
"V ;.b n m Z A S S D D | : > *.* ",
"x ;.z K P R E Q ! ~ ~ [ ; - &.O ",
"g q.:.>.,.<.1.1.1.1.1.1.1.1.1.  ",
"& $ # @ + o X .                 "
};
