/* XPM */
static const char *upload_48x48_xpm[] = {
/* columns rows colors chars-per-pixel */
"48 48 185 2 ",
"   c black",
".  c #494B53",
"X  c #5F647B",
"o  c #6D6D6D",
"O  c #6B6C73",
"+  c #686A76",
"@  c #6F7073",
"#  c #6E7078",
"$  c #737375",
"%  c #717279",
"&  c #00B700",
"*  c #01E301",
"=  c #12E912",
"-  c #33CF33",
";  c #3FD63F",
":  c #B4881B",
">  c #AE882F",
",  c #B58B26",
"<  c #BE9423",
"1  c #AA8731",
"2  c #B58D34",
"3  c #B6903F",
"4  c #BD943E",
"5  c #CB9934",
"6  c #C39639",
"7  c #C89B3B",
"8  c #C69F2B",
"9  c #CAA22C",
"0  c #D4A12D",
"q  c #DBA13B",
"w  c #E7B931",
"e  c #F8C73F",
"r  c #FCCE3D",
"t  c #F6CC3B",
"y  c #FED33C",
"u  c #9E8852",
"i  c #AC8D4A",
"p  c #B08F46",
"a  c #B59143",
"s  c #BC9541",
"d  c #BF9947",
"f  c #A38C56",
"g  c #B89A58",
"h  c #B09967",
"j  c #B8A36D",
"k  c #B0A079",
"l  c #C69D4A",
"z  c #CBA044",
"x  c #D5A749",
"c  c #D9B943",
"v  c #CEA857",
"b  c #D1A953",
"n  c #E8AB48",
"m  c #EEB645",
"M  c #F3BF42",
"N  c #C6A969",
"B  c #D9B96B",
"V  c #CBB276",
"C  c #FFD741",
"Z  c #FFDD4F",
"A  c #FED951",
"S  c #E3C348",
"D  c #FFE35C",
"F  c #F8D672",
"G  c #FFE867",
"H  c #FDE669",
"J  c #FFEE73",
"K  c #6D7187",
"L  c #7A7B83",
"P  c #777989",
"I  c #6D7291",
"U  c #717693",
"Y  c #747994",
"T  c #777C98",
"R  c #7A7E98",
"E  c #646982",
"W  c #7D8296",
"Q  c #7E839D",
"!  c #7FB28B",
"~  c #84848A",
"^  c #888789",
"/  c #858899",
"(  c #878995",
")  c #949496",
"_  c #93949B",
"`  c #999A9D",
"'  c #9D988D",
"]  c #A19B90",
"[  c #8BBB95",
"{  c #B6A886",
"}  c #BFB195",
"|  c #8186A0",
" . c #8489A3",
".. c #898DA5",
"X. c #8E92AA",
"o. c #9E9EA3",
"O. c #9296AD",
"+. c #9A9EAC",
"@. c #9597A8",
"#. c #999DB2",
"$. c #9EA1B4",
"%. c #94B6A2",
"&. c #A2A2A5",
"*. c #A6A5AA",
"=. c #ABAAAC",
"-. c #A8A8AE",
";. c #A7A9B3",
":. c #ABACB5",
">. c #A6A9BB",
",. c #ABADBB",
"<. c #A2A5B8",
"1. c #AEB0BA",
"2. c #B3B3B4",
"3. c #B4B6BD",
"4. c #BAB9BC",
"5. c #B5B0A6",
"6. c #CFBD89",
"7. c #D1BD89",
"8. c #D3BE87",
"9. c #C2B293",
"0. c #C5BAA1",
"q. c #9EC6A8",
"w. c #AED1B6",
"e. c #B4DFB8",
"r. c #AFEEAF",
"t. c #BCEBBC",
"y. c #DBC385",
"u. c #F6D784",
"i. c #E5CE92",
"p. c #E8D39A",
"a. c #E8D28A",
"s. c #FCE989",
"d. c #FCEE97",
"f. c #D9CDBA",
"g. c #ECDBA7",
"h. c #FAECAC",
"j. c #FAE7A3",
"k. c #F5E9BD",
"l. c #F8EDBF",
"z. c #F0E1B0",
"x. c #ACAFC1",
"c. c #AEB1C2",
"v. c #B3B5C4",
"b. c #B7B8C3",
"n. c #BBBDC4",
"m. c #BBBFCA",
"M. c #C3C3C5",
"N. c #C3C4CB",
"B. c #C6C8CD",
"V. c #CBCBCD",
"C. c #DBD5CA",
"Z. c #C6C9D1",
"A. c #CDCDD3",
"S. c #CECFD9",
"D. c #C3C5D2",
"F. c #D0CFD8",
"G. c #CFD0D3",
"H. c #CFD0D9",
"J. c #D1D2D4",
"K. c #D4D4DB",
"L. c #D7D8DC",
"P. c #DCDCDD",
"I. c #E1D9CF",
"U. c #C8E6C9",
"Y. c #F8EEC6",
"T. c #F6EBC1",
"R. c #E5E3DE",
"E. c #D7D7E1",
"W. c #DDDDE3",
"Q. c #D7D9E1",
"!. c #E1DFE6",
"~. c #DFE0E3",
"^. c #E2E2E4",
"/. c #E5E4EB",
"(. c #E8E6EE",
"). c #EBEBEC",
"_. c #EDEDF2",
"`. c #E9E7F0",
"'. c #F1EFF5",
"]. c #EFF0F3",
"[. c #F3F2F4",
"{. c #F6F4FB",
"}. c #F8F6FC",
"|. c #F9F8FA",
" X c None",
/* pixels */
" X X X X X X X X X X X X X X X X X X X X X X X X X X X X X X X X X X X X X X X X X X X X X X X X",
" X X X X X X X X X X X X X X X X X X X X X X X X X X X X X X X X X X X X X X X X X X X X X X X X",
" X X X X X X X X X X X X X X X X X X X X X X X X X X X X X X X X X X X X X X X X X X X X X X X X",
" X X X X X X X X X X X X X X X X X X X X X X X X X X X X X X X X X X X X X X X X X X X X X X X X",
" X X X X X X X X X X X X X X X X X X X X X X X X X X X X X X X X X X X X X X X X X X X X X X X X",
" X X X X X X X X X X X X X X X X X X X X X X X X X X X X X X X X X X X X X X X X X X X X X X X X",
" X X X X X X X X X X X X X X X X X X X X X X X X X X5 5 7 x 5  X X X X X X X X X X X X X X X X X",
" X X X X X X X X X X X X X X X X X X X X X X X5 l B p.k.Y.T.b 5  X X X X X X X X X X X X X X X X",
" X X X X X X X X X X X X X X X X X X X X6 4 b i.k.Y.Y.Y.Y.Y.g.z  X X X X X X X X X X X X X X X X",
" X X X X X X X X X X X X X X X X X X X4 v g.Y.Y.Y.Y.Y.Y.Y.Y.Y.a.7  X X X X X X X X X X X X X X X",
" X X X X X X X X X X X X X X X X X4 z p.Y.Y.Y.Y.Y.Y.Y.Y.Y.Y.Y.T.B 4  X X X X X X X X X X X X X X",
" X X X X X X X X X X X X X X X3 d y.Y.Y.Y.Y.Y.Y.Y.Y.Y.l.h.h.h.Y.z.v 6  X X X X X X X X X X X X X",
" X X X X X X X X X X X X X X Xs y.Y.Y.Y.Y.Y.Y.Y.Y.h.s.H H G G J s.a.z  X X X X X X X X X X X X X",
" X X X X X X X X X X X X X X X X4 , , 7 k.Y.Y.Y.d.J J J J J J J J J B d  X X X X X X X X X X X X",
" X X X X X X X X X X X X X X X X Xa a g Y.Y.T.d.J J J H : 8 8 9 c c x s  X X X X X X X X X X X X",
" X X X X X X X X X X X X X X X X X X XN Y.T.h.G G G G m : a p 2 2 2 , 3  X X X X X X X X X X X X",
" X X X X X X X X X X X X X X X X X Xa V Y.T.G A D D D 8 >  X X X X Xa  X X X X X X X X X X X X X",
" X X X X X X X X X X X X X X X X X Xi y.Y.s.Z Z Z Z Z : a  X X X X X X X X X X X X X X X X X X X",
" X X X X X X X X X X X X X X X X X Xi y.Y.A C C C C t , g  X X X X X X X X X X X X X X X X X X X",
" X X X X X X X X X X X X X X X X X Xh 6.j.y y r y y w , 9.J.A.A.A.A. X X X X X X X X X X X X X X",
" X X X X X X X X X X X X X X X XS.S.9.7.s.r e r e e w > f.{.{.'.`.M.*.) ( ^ ~ W  X X X X X X X X",
" X X X X X X X X X X X X XG.G.L.(.{.f.j F C M C e C w 1 C.{.{.{.(.A.:.=.=.&.` ) ~ L L ~  X X X X",
" X X X X X X X X X XG.G.K./.[.{.[.[.C.j a.w M M M M 0 1 ' &.v.4.=.-.-.*.&.&.o.L o.o._ @.<. X X X",
" X X X X X X X XG.K.!.'./.].|.|.[.[.C.f u.n m m m m 0 1 ' o.o.-.1.&.2.n.N.G.E.H.K.^.(.K.Q  X X X",
" X X X X XG.J.!.`.}.}.(.D._.|.[.[.[.[.u N l x x n n q 1 5.V.E.L.K.n.L.W.E.K.S.Q.]./.D.<.E  X X X",
" X XV.V.!.(.{.{.}.}.}.`.v.W.`.[.[.[.'.R.C.0.} k u f i { K.E.K.F.n.=.K.K.S.L._._.S.x.X.Q X  X X X",
"V.J./.[.{.) M.{.}.}.}.{.`.W.'.[.).(./.!./.!./.~.W.C.=.m.v.,.-.=.b.S.H.K./._.Q.c.#.Q Y I X  X X X",
"V.|.[.).!.!.}.}.|.}.}.|.}.}.[.{._.).!.K.F.m.,.+. ... . .>.b.A.K.H.H.~.].W.m.$...Q I I I +    X X",
"V.[.(.+.;.1.;.,.3.Z.L.(.|.}.|.{.{.{.[.{._.`.`.(././.(.!.W.E.K.S.Q.].`.D.<.X.Q I I I Y # .  X X X",
"V.[.).+.N.B.V.A.G.B.m.b.:.b.B.L._.|.{.[.'.'._.`.S.N.E.Q.K.F.K.`._.H.x.O.Q T I I I Y + O  X X X X",
"V.[.).+.N.B.A.A.G.G.G.J.J.J.V.,.3.,.n.L._.[._.!.D.N.S.S.H./.'.E.v.#. .T I I Y W P O  X X X X X X",
"V.[.).+.N.B.V.V.G.G.G.J.J.J.N.m.B.m.A.b.b.J.).'.'.W.H.W.'.!.m.<...Q I I I R P O +  X X X X X X X",
"C.[.).o.N.B.B.A.G.G.J.J.J.J.B.m.N.N.N.Z.J.J.^.^.^.].].).Z.>.X.Q U I I Y W L O  X X X X X X X X X",
"V.P.|.1.N.N.Z.G.G.G.G.J.G.K.B.m.N.N.N.Z.K.J.~.w.U.R.].x.#.Q T I I U W W # O  X X X X X X X X X X",
" XV.G.R.Q.H.V.G.V.G.G.J.G.J.M.m.N.N.N.Z.J.J.%.; = U.).$.Y I I I W / W o  X X X X X X X X X X X X",
" X X XM.f.G.~.^.~.J.G.G.J.G.N.m.N.N.N.Z.J.J.[ - * r.).O.I I W Q ( @ O  X X X X X X X X X X X X X",
" X X X X X X4.2.w.J.P.^.~.L.V.n.B.N.M.B.J.J.[ & * t.).O.Y W _ L O  X X X X X X X X X X X X X X X",
" X X X X X X X X X X=.=.2.B.J.R.^.J.B.A.J.J.L.q.e.R.).+._ ( $ @  X X X X X X X X X X X X X X X X",
" X X X X X X X X X X X X X X` ) &.2.V.J.)._.).R.~.P.).` % $  X X X X X X X X X X X X X X X X X X",
" X X X X X X X X X X X X X X X X X X^ ^ ^ ) 2.V.P.).2.o  X X X X X X X X X X X X X X X X X X X X",
" X X X X X X X X X X X X X X X X X X X X X X X$ $ @ o  X X X X X X X X X X X X X X X X X X X X X",
" X X X X X X X X X X X X X X X X X X X X X X X X X X X X X X X X X X X X X X X X X X X X X X X X",
" X X X X X X X X X X X X X X X X X X X X X X X X X X X X X X X X X X X X X X X X X X X X X X X X",
" X X X X X X X X X X X X X X X X X X X X X X X X X X X X X X X X X X X X X X X X X X X X X X X X",
" X X X X X X X X X X X X X X X X X X X X X X X X X X X X X X X X X X X X X X X X X X X X X X X X",
" X X X X X X X X X X X X X X X X X X X X X X X X X X X X X X X X X X X X X X X X X X X X X X X X",
" X X X X X X X X X X X X X X X X X X X X X X X X X X X X X X X X X X X X X X X X X X X X X X X X",
" X X X X X X X X X X X X X X X X X X X X X X X X X X X X X X X X X X X X X X X X X X X X X X X X"
};
