/* XPM */
static const char *user_48x48_xpm[] = {
/* columns rows colors chars-per-pixel */
"48 48 181 2 ",
"   c #020202",
".  c #0B0B0B",
"X  c #151515",
"o  c gray14",
"O  c #2D2D2D",
"+  c #323232",
"@  c #3B3B3B",
"#  c #5B3B1C",
"$  c #57391C",
"%  c #613E1E",
"&  c #7B4B1E",
"*  c #77481D",
"=  c #674423",
"-  c #7C4E23",
";  c #734E2B",
":  c #77502A",
">  c #7B522C",
",  c #7F5127",
"<  c #6F4F30",
"1  c #7A5633",
"2  c #7A5C3F",
"3  c #434343",
"4  c #4C4C4C",
"5  c #58524C",
"6  c #545454",
"7  c #5C5C5C",
"8  c #7F6246",
"9  c #636363",
"0  c #6C6C6C",
"q  c #746B61",
"w  c #737373",
"e  c #7B7B7B",
"r  c #834E1E",
"t  c #8C541E",
"y  c #85501E",
"u  c #A4601B",
"i  c #B5661A",
"p  c #B4681B",
"a  c #BB6D1D",
"s  c #82552B",
"d  c #845930",
"f  c #8D5F34",
"g  c #915926",
"h  c #A35F20",
"j  c #9D632B",
"k  c #8E6137",
"l  c #956334",
"z  c #9B6734",
"x  c #94653A",
"c  c #9B6739",
"v  c #9C6839",
"b  c #AD6C2A",
"n  c #B26F2E",
"m  c #BF7526",
"M  c #A36D3C",
"N  c #A66D36",
"B  c #AA713E",
"V  c #AF7034",
"C  c #B87937",
"Z  c #C57621",
"A  c #C37C31",
"S  c #846345",
"D  c #9E6E41",
"F  c #8A6F54",
"G  c #9E7855",
"H  c #A17144",
"J  c #AB7544",
"K  c #A2754B",
"L  c #B17946",
"P  c #B17C4B",
"I  c #B97F4C",
"U  c #CB802C",
"Y  c #D2822A",
"T  c #C8853B",
"R  c #CA8533",
"E  c #D68C36",
"W  c #D28A39",
"Q  c #DB933E",
"!  c #BB824D",
"~  c #BD8553",
"^  c #BE8856",
"/  c #BC895A",
"(  c #B98455",
")  c #B88C62",
"_  c #BA9068",
"`  c #BC9572",
"'  c #CB8C4A",
"]  c #C78B47",
"[  c #CA904E",
"{  c #DB9742",
"}  c #D9964F",
"|  c #DE9B4A",
" . c #DE9844",
".. c #C28954",
"X. c #CE935C",
"o. c #CB995E",
"O. c #D79C5B",
"+. c #E29E4A",
"@. c #E09F52",
"#. c #DDA55B",
"$. c #DAA157",
"%. c #E3A04D",
"&. c #E4A452",
"*. c #E7A856",
"=. c #E4A95C",
"-. c #EAAD5C",
";. c #E4A65C",
":. c #ECB15F",
">. c #D39761",
",. c #DA9D66",
"<. c #D59E6C",
"1. c #D49963",
"2. c #CFA470",
"3. c #DCAA7C",
"4. c #DAB17D",
"5. c #EEB564",
"6. c #E7B06F",
"7. c #F1BA6A",
"8. c #F0B867",
"9. c #E3AE78",
"0. c #E5B475",
"q. c #E8B476",
"w. c #E9B67E",
"e. c #E5B47A",
"r. c #F2BF73",
"t. c #E5AA65",
"y. c #F6C273",
"u. c #F8C677",
"i. c #F9C779",
"p. c #FAC97C",
"a. c #F2C17B",
"s. c #838383",
"d. c #8B8B8B",
"f. c #939393",
"g. c #9B9B9B",
"h. c #A99B86",
"j. c #A4A4A4",
"k. c #ABABAB",
"l. c #B4B4B4",
"z. c #BBBBBB",
"x. c #E6B585",
"c. c #E6BC94",
"v. c #D9BEA5",
"b. c #EEC38C",
"n. c #FACD84",
"m. c #FBCF8A",
"M. c #FBD08E",
"N. c #F4CF96",
"B. c #FBD393",
"V. c #FBD69B",
"C. c #FBD89F",
"Z. c #E4C9AB",
"A. c #E9C9A5",
"S. c #FBD9A3",
"D. c #FCDDAC",
"F. c #F7D6A7",
"G. c #EED0B5",
"H. c #FCDEB0",
"J. c #F0D7B5",
"K. c #FCE0B5",
"L. c #FCE3BB",
"P. c #C3C3C3",
"I. c #CCCCCC",
"U. c #D3D3D3",
"Y. c #DADADA",
"T. c #F2DAC3",
"R. c #E7D9C3",
"E. c #FCE6C2",
"W. c #FDE8C7",
"Q. c #FDEACB",
"!. c #F8E4CB",
"~. c #FDEDD3",
"^. c #FDEFD8",
"/. c #FDF1DD",
"(. c gray89",
"). c #EBEBEB",
"_. c #FDF3E4",
"`. c #FEF7EB",
"'. c #F4F4F4",
"]. c #FEFEFE",
"[. c None",
/* pixels */
"[.[.[.[.[.[.[.[.[.[.[.[.[.[.[.[.[.[.B M v c x f [.[.[.[.[.[.[.[.[.[.[.[.[.[.[.[.[.[.[.[.[.[.[.[.",
"[.[.[.[.[.[.[.[.[.[.[.[.[.[.[.J L ..X.>.>...P D k s > [.[.[.[.[.[.[.[.[.[.[.[.[.[.[.[.[.[.[.[.[.",
"[.[.[.[.[.[.[.[.[.[.[.[.[.J ..>.,.,.,.>.^ P H x d - l x 1 [.[.[.[.[.[.[.[.[.[.[.[.[.[.[.[.[.[.[.",
"[.[.[.[.[.[.[.[.[.[.[.M ! ,.x.x.x.9.<.^ P D x d - c ( 2...= [.[.[.[.[.[.[.[.[.[.[.[.[.[.[.[.[.[.",
"[.[.[.[.[.[.[.[.[.[.B ..c.T.J.G.A.c.3.1.J x d - c ! X.3./ > [.[.[.[.[.[.[.[.[.[.[.[.[.[.[.[.[.[.",
"[.[.[.[.[.[.[.[.[.[.( G.v._ J j N V ! X.' d , v ~ 1.X./ ) - = [.[.[.[.[.[.[.[.[.[.[.[.[.[.[.[.[.",
"[.[.[.[.[.[.[.[.[.J ` K z ..0.0.O.' V h n V V X.3.X.L l G 1 # [.[.[.[.[.[.[.[.[.[.[.[.[.[.[.[.[.",
"[.[.[.[.[.[.[.[.[.M y N N.S.S.C.V.B.m.r.#.' C L Z.) l r S 2 % [.[.[.[.[.[.[.[.[.[.[.[.[.[.[.[.[.",
"[.[.[.[.[.[.[.[.[.M y 4.D.H.H.D.D.V.B.M.p.p.y.=.^ P & * 1 S # [.[.[.[.[.[.[.[.[.[.[.[.[.[.[.[.[.",
"[.[.[.[.[.[.[.[.[.c t A.L.E.E.L.K.D.V.B.M.p.i.7.] j r * : F # [.[.[.[.[.[.[.[.[.[.[.[.[.[.[.[.[.",
"[.[.[.[.[.[.[.[.[.c g L.W.Q.~.W.L.K.D.V.M.p.i.y.O.t r & > F # [.[.[.[.[.[.[.[.[.[.[.[.[.[.[.[.[.",
"[.[.[.[.[.[.[.[.[.[.z J.^._./.^.W.L.D.C.B.n.p.y.$.t y & > F # [.[.[.[.[.[.[.[.[.[.[.[.[.[.[.[.[.",
"[.[.[.[.[.[.[.[.[.[.T Z./.`.`._.Q.L.K.S.B.n.p.u.7.t r * ; S $ [.[.[.[.[.[.[.[.[.[.[.[.[.[.[.[.[.",
"[.[.[.[.[.[.[.[.[.[.{ F./._._./.Q.E.H.C.B.n.p.y.=.j z & ; 2 $ [.[.[.[.[.[.[.[.[.[.[.[.[.[.[.[.[.",
"[.[.[.[.[.[.[.[.[.[.Q b.~.^.^.~.W.K.D.V.M.n.p.u.5.*.+.T ; < $ [.[.[.[.[.[.[.[.[.[.[.[.[.[.[.[.[.",
"[.[.[.[.[.[.[.[.[.[.Q q.E.W.W.E.L.H.C.V.M.p.u.7.5.&.E W < % [.[.[.[.[.[.[.[.[.[.[.[.[.[.[.[.[.[.",
"[.[.[.[.[.[.[.[.[.[.[.&.H.K.L.K.D.S.V.M.n.p.u.7.:.+.E b % $ [.[.[.[.[.[.[.[.[.[.[.[.[.[.[.[.[.[.",
"[.[.[.[.[.[.[.[.[.[.[.Q C.D.D.S.C.V.M.n.p.i.y.5.&.+.Y t # [.[.[.[.[.[.[.[.[.[.[.[.[.[.[.[.[.[.[.",
"[.[.[.[.[.[.[.[.[.[.[.Q r.C.V.B.M.M.n.p.i.y.7.-.+.E Z # $ [.[.[.[.[.[.[.[.[.[.[.[.[.[.[.[.[.[.[.",
"[.[.[.[.[.[.[.[.[.[.[.Q =.m.m.m.n.n.p.p.y.7.:.%.+.Y t $ [.[.[.[.[.[.[.[.[.[.[.[.[.[.[.[.[.[.[.[.",
"[.[.[.[.[.[.[.[.[.[.[.[.Q i.p.p.p.p.u.y.8.:.*.;.w.Z u [.[.[.[.[.[.[.[.[.[.[.[.[.[.[.[.[.[.[.[.[.",
"[.[.[.[.[.[.[.[.[.[.[.[.Q 5.i.y.y.y.7.5.-.&.&.w.} a p [.[.[.[.[.[.[.[.[.[.[.[.[.[.[.[.[.[.[.[.[.",
"[.[.[.[.[.[.[.[.[.[.[.[.[.+.7.7.8.5.:.&.+.t.x.O.a i p [.[.[.[.[.[.[.[.[.[.[.[.[.[.[.[.[.[.[.[.[.",
"[.[.[.[.[.[.[.[.[.[.[.[.[.Q %.-.*.%.+.=.q.q.W a i i f 5 [.[.[.[.[.[.[.[.[.[.[.[.[.[.[.[.[.[.[.[.",
"[.[.[.[.[.[.[.[.[.[.[.[.[.[.o.2.6.q.x.0.} U m a i i q 7 4 4 [.[.[.[.[.[.[.[.[.[.[.[.[.[.[.[.[.[.",
"[.[.[.[.[.[.[.[.[.[.[.[.[.k.k.k.e.| E | { R m p i J w w w 6 4 [.[.[.[.[.[.[.[.[.[.[.[.[.[.[.[.[.",
"[.[.[.[.[.[.[.[.[.[.[.g.k.z.l.l.h.S.M.i.8.&.E R Z.d.e e d.F 0 6 4 [.[.[.[.[.[.[.[.[.[.[.[.[.[.[.",
"[.[.[.[.[.[.[.[.[.[.g.l.z.z.z.l.e S.M.p.8.=.0.).U.f.f.f.d.d.d.s.0 7 [.[.[.[.[.[.[.[.[.[.[.[.[.[.",
"[.[.[.[.[.[.[.[.[.f.P.I.I.P.z.k.e R.m.p.a.!.].].j.g.f.f.d.s.s.d.s.0 7 [.[.[.[.[.[.[.[.[.[.[.[.[.",
"[.[.[.[.[.[.[.[.d.z.U.I.I.P.P.k.s.)._./.].].].Y.g.g.g.f.d.d.s.s.s.s.0 7 [.[.[.[.[.[.[.[.[.[.[.[.",
"[.[.[.[.[.[.[.[.f.U.U.U.I.I.P.j.d.).].].].].'.k.g.g.g.f.d.s.s.w e s.e 9 6 [.[.[.[.[.[.[.[.[.[.[.",
"[.[.[.[.[.[.[.s.j.U.U.U.U.P.P.g.g.'.].].].].U.g.g.g.g.f.d.s.s.e w e e 0 6 [.[.[.[.[.[.[.[.[.[.[.",
"[.[.[.[.[.[.[.e l.I.I.I.I.P.P.f.j.'.].].].).j.g.g.g.f.f.d.s.s.w w w e w 6 6 [.[.[.[.[.[.[.[.[.[.",
"[.[.[.[.[.[.[.e P.P.I.P.P.P.z.d.l.'.].].].l.j.g.g.g.f.f.d.s.e e w 0 e w 6 6 [.[.[.[.[.[.[.[.[.[.",
"[.[.[.[.[.[.[.e z.z.P.z.z.z.z.d.z.'.].].U.j.g.g.g.g.f.f.d.s.e w 0 0 e w 7 6 [.[.[.[.[.[.[.[.[.[.",
"[.[.[.[.[.[.[.s.z.z.z.z.z.l.l.e z.].].'.k.g.g.g.g.g.f.d.d.s.e w w 0 w w 9 4 [.[.[.[.[.[.[.[.[.[.",
"[.[.[.[.[.[.0 s.l.l.l.l.l.l.l.e P.].].P.j.g.g.g.g.f.f.d.d.e e w 0 9 w w 7 4 3 [.[.[.[.[.[.[.[.[.",
"[.[.[.[.[.[.0 e k.l.l.k.k.k.k.s.U.].).j.g.g.g.g.g.f.d.d.s.e w w 0 9 0 w 9 4 3 [.[.[.[.[.[.[.[.[.",
"[.[.[.[.[.[.0 d.k.k.k.k.k.k.k.e Y.].z.g.j.g.g.f.g.f.d.s.s.e w 0 0 9 0 0 9 4 3 [.[.[.[.[.[.[.[.[.",
"[.[.[.[.[.[.9 s.j.j.j.k.j.j.j.e (.Y.g.g.g.g.g.g.f.d.d.s.e e w 0 9 7 9 0 9 3 @ [.[.[.[.[.[.[.[.[.",
"[.[.[.[.[.[.[.0 g.j.j.j.j.j.j.e ).k.g.g.g.f.g.f.d.d.s.e e w 0 0 9 7 7 0 0 3 @ [.[.[.[.[.[.[.[.[.",
"[.[.[.[.[.[.[.[.0 g.g.j.g.j.g.d.z.g.g.g.g.g.f.f.d.d.s.e w 0 0 9 7 7 7 9 9 3 @ [.[.[.[.[.[.[.[.[.",
"[.[.[.[.[.[.[.[.[.9 d.g.g.g.g.f.g.g.g.g.f.f.f.d.s.s.e e w 0 0 9 7 6 6 0 9 @ + [.[.[.[.[.[.[.[.[.",
"[.[.[.[.[.[.[.[.[.[.9 0 d.g.g.d.g.g.g.f.f.d.d.s.s.e e w 0 0 9 7 7 6 4 9 7 @ O [.[.[.[.[.[.[.[.[.",
"[.[.[.[.[.[.[.[.[.[.[.[.7 0 e f.f.g.f.d.d.d.s.s.e w w 0 0 9 7 7 6 4 4 7 3 + [.[.[.[.[.[.[.[.[.[.",
"[.[.[.[.[.[.[.[.[.[.[.[.[.[.7 7 0 e s.d.d.s.e e e w w 0 9 7 7 6 4 4 @ @ o . [.[.[.[.[.[.[.[.[.[.",
"[.[.[.[.[.[.[.[.[.[.[.[.[.[.[.[.[.6 7 6 7 9 7 9 9 9 7 6 6 6 4 3 @ + o . [.[.[.[.[.[.[.[.[.[.[.[.",
"[.[.[.[.[.[.[.[.[.[.[.[.[.[.[.[.[.[.[.[.[.[.[.[.4 @ @ X X X .       [.[.[.[.[.[.[.[.[.[.[.[.[.[."
};
