/* XPM */
static const char *user_32x32_xpm[] = {
/* columns rows colors chars-per-pixel */
"32 32 153 2 ",
"   c #2D2D2D",
".  c #343434",
"X  c #3A3A3A",
"o  c #57391C",
"O  c #5A3B1D",
"+  c #613D1B",
"@  c #5E3E20",
"#  c #7D5026",
"$  c #7B512A",
"%  c #6D4E31",
"&  c #7D5632",
"*  c #755638",
"=  c #745232",
"-  c #444444",
";  c #4B4B4B",
":  c #535353",
">  c #5C5C5C",
",  c #6E645B",
"<  c #636363",
"1  c #6C6C6C",
"2  c #737373",
"3  c #7B7B7B",
"4  c #814D1E",
"5  c #965B1E",
"6  c #B46619",
"7  c #B6691C",
"8  c #825022",
"9  c #8D5725",
"0  c #85592E",
"q  c #8F5F2F",
"w  c #905927",
"e  c #985F29",
"r  c #815730",
"t  c #875A31",
"y  c #8D5F34",
"u  c #966233",
"i  c #94653A",
"p  c #9F6D3D",
"a  c #A1672C",
"s  c #AD6B2C",
"d  c #B46F2E",
"f  c #A66D31",
"g  c #A8713F",
"h  c #B97B39",
"j  c #C27423",
"k  c #C37826",
"l  c #C47B2A",
"z  c #806246",
"x  c #966D46",
"c  c #AF7744",
"v  c #AA7749",
"b  c #AB7849",
"n  c #A57243",
"m  c #B57C46",
"M  c #B07A48",
"N  c #B97F4C",
"B  c #AB7D52",
"V  c #B47F50",
"C  c #CE8736",
"Z  c #C4833B",
"A  c #D88F3B",
"S  c #D58C3C",
"D  c #DB933D",
"F  c #BF956E",
"G  c #BFA07B",
"H  c #C88A43",
"J  c #D69144",
"K  c #C08652",
"L  c #C38A57",
"P  c #C79255",
"I  c #CF9856",
"U  c #CF955F",
"Y  c #DA9F54",
"T  c #E19E4B",
"R  c #E6A653",
"E  c #E7A855",
"W  c #E8A957",
"Q  c #E5A658",
"!  c #E7AB5A",
"~  c #EAAD5B",
"^  c #C18F60",
"/  c #CA9463",
"(  c #CE9E63",
")  c #C4986E",
"_  c #D29660",
"`  c #DB9E67",
"'  c #D29C68",
"]  c #D59963",
"[  c #CA9D71",
"{  c #D3A874",
"}  c #D8A678",
"|  c #E5AC64",
" . c #E1A768",
".. c #E4AB6D",
"X. c #E0A463",
"o. c #EEB564",
"O. c #EDB668",
"+. c #F3BC6C",
"@. c #E2AD70",
"#. c #E8B376",
"$. c #E3B679",
"%. c #E4B575",
"&. c #F3BE71",
"*. c #F0BF7D",
"=. c #F6C273",
"-. c #F8C677",
";. c #F9C779",
":. c #FAC97D",
">. c #838383",
",. c #8C8C8C",
"<. c #949494",
"1. c #9B9B9B",
"2. c #A79E8F",
"3. c #B69E86",
"4. c #A4A4A4",
"5. c #ABABAB",
"6. c #B4B4B4",
"7. c #BCBCBC",
"8. c #D3B496",
"9. c #E1B082",
"0. c #E8BF98",
"q. c #FACD84",
"w. c #F0C58D",
"e. c #FBCF8A",
"r. c #FBD08D",
"t. c #E8C19C",
"y. c #FBD393",
"u. c #FBD599",
"i. c #E5C6A9",
"p. c #F1CFA6",
"a. c #F5D4A0",
"s. c #FBDAA4",
"d. c #F5D9AF",
"f. c #FCDDAB",
"g. c #F4D4A9",
"h. c #F0D7B5",
"j. c #FCE1B7",
"k. c #FCE3BA",
"l. c #C3C3C3",
"z. c gray80",
"x. c #D4D4D4",
"c. c #FCE6C2",
"v. c #FDEACC",
"b. c #ECE7DF",
"n. c #FDEDD2",
"m. c #FDEFDA",
"M. c #FDF0DB",
"N. c gray91",
"B. c #FEF6EA",
"V. c #F4F4F4",
"C. c #FDF8F3",
"Z. c #FDFDFD",
"A. c None",
/* pixels */
"A.A.A.A.A.A.A.A.A.A.A.m N b n i t A.A.A.A.A.A.A.A.A.A.A.A.A.A.A.",
"A.A.A.A.A.A.A.A.c K _ ` ] L b i # y r A.A.A.A.A.A.A.A.A.A.A.A.A.",
"A.A.A.A.A.A.A.N } t.0.9./ b i 8 u / / $ A.A.A.A.A.A.A.A.A.A.A.A.",
"A.A.A.A.A.A.V i.8.) ^ / U m r u L / F # A.A.A.A.A.A.A.A.A.A.A.A.",
"A.A.A.A.A.A.B p ( $.%.I h d s ' } g x = A.A.A.A.A.A.A.A.A.A.A.A.",
"A.A.A.A.A.A.9 { f.f.s.u.e.:.! P [ 8 & * O A.A.A.A.A.A.A.A.A.A.A.",
"A.A.A.A.A.A.w d.c.c.j.f.u.e.;.O.e # # y O A.A.A.A.A.A.A.A.A.A.A.",
"A.A.A.A.A.A.u h.m.m.v.j.s.r.:.&.a 4 $ , O A.A.A.A.A.A.A.A.A.A.A.",
"A.A.A.A.A.A.Z n.B.B.n.k.s.r.:.=.f # $ * A.A.A.A.A.A.A.A.A.A.A.A.",
"A.A.A.A.A.A.D g.M.M.v.j.s.r.:.=.Y H r % A.A.A.A.A.A.A.A.A.A.A.A.",
"A.A.A.A.A.A.A.w.c.c.k.f.u.e.:.+.R D 0 + A.A.A.A.A.A.A.A.A.A.A.A.",
"A.A.A.A.A.A.A.| f.f.f.u.r.:.-.o.T l + o A.A.A.A.A.A.A.A.A.A.A.A.",
"A.A.A.A.A.A.A.T u.u.y.e.:.-.+.W D 5 o A.A.A.A.A.A.A.A.A.A.A.A.A.",
"A.A.A.A.A.A.A.D =.:.:.:.-.+.~ | S 5 A.A.A.A.A.A.A.A.A.A.A.A.A.A.",
"A.A.A.A.A.A.A.A.R -.=.+.o.R | ..j 7 A.A.A.A.A.A.A.A.A.A.A.A.A.A.",
"A.A.A.A.A.A.A.A.D ~ ~ R Q #. .j 6 q A.A.A.A.A.A.A.A.A.A.A.A.A.A.",
"A.A.A.A.A.A.A.A.A.[ @. .X.J k 7 6 , : ; A.A.A.A.A.A.A.A.A.A.A.A.",
"A.A.A.A.A.A.A.1.5.5.2.*.&.! C Z 3.2 3 1 ; A.A.A.A.A.A.A.A.A.A.A.",
"A.A.A.A.A.A.<.5.7.7.>.a.q.o.p.C.4.<.,.>.>.< > A.A.A.A.A.A.A.A.A.",
"A.A.A.A.A.,.5.z.z.7.>.b.c.B.Z.x.<.1.,.>.>.>.< > A.A.A.A.A.A.A.A.",
"A.A.A.A.A.<.x.x.z.l.3 V.Z.Z.Z.4.1.<.,.>.3 3 3 > A.A.A.A.A.A.A.A.",
"A.A.A.A.3 1.z.x.z.l.>.V.Z.Z.z.1.1.1.,.>.3 1 3 1 : A.A.A.A.A.A.A.",
"A.A.A.A.2 4.z.l.l.7.<.V.Z.N.1.1.1.<.,.>.3 1 2 1 : A.A.A.A.A.A.A.",
"A.A.A.A.2 5.7.7.7.5.1.Z.Z.5.1.1.<.<.,.>.2 1 2 2 : A.A.A.A.A.A.A.",
"A.A.A.A.2 1.6.6.6.1.4.Z.x.1.1.1.1.<.>.3 2 1 1 1 : A.A.A.A.A.A.A.",
"A.A.A.A.1 1.5.5.5.1.6.Z.5.1.1.1.<.,.>.3 1 < < 1 : X A.A.A.A.A.A.",
"A.A.A.A.< 1.5.4.4.<.l.l.1.1.1.<.,.>.3 2 1 < > 1 ; . A.A.A.A.A.A.",
"A.A.A.A.A.1 1.4.4.>.l.1.1.1.<.<.>.>.3 1 < > > < ; . A.A.A.A.A.A.",
"A.A.A.A.A.A.< >.1.>.1.1.1.<.<.>.>.3 1 1 > > : < ;   A.A.A.A.A.A.",
"A.A.A.A.A.A.A.> < 3 <.<.<.,.>.>.3 2 1 < > : - : X A.A.A.A.A.A.A.",
"A.A.A.A.A.A.A.A.A.A.> < 1 1 2 2 1 < > : ; - X . A.A.A.A.A.A.A.A.",
"A.A.A.A.A.A.A.A.A.A.A.A.A.: : : : : ; - - A.A.A.A.A.A.A.A.A.A.A."
};
