/* XPM */
static const char *user_64x64_xpm[] = {
/* columns rows colors chars-per-pixel */
"64 64 210 2 ",
"   c #353535",
".  c #3C3C3C",
"X  c #770200",
"o  c #5C3B1B",
"O  c #57371A",
"+  c #44311C",
"@  c #703A0F",
"#  c #6E431A",
"$  c #67421F",
"%  c #7B4B1D",
"&  c #774618",
"*  c #6B4724",
"=  c #744D26",
"-  c #744F29",
";  c #7D4E23",
":  c #76512A",
">  c #79522C",
",  c #7E5025",
"<  c #7B5830",
"1  c #434343",
"2  c #4C4C4C",
"3  c #545454",
"4  c #5C5C5C",
"5  c #565B5D",
"6  c #74665F",
"7  c #646464",
"8  c #6C6C6C",
"9  c #737373",
"0  c #7B7B7B",
"q  c #74797D",
"w  c #6D7274",
"e  c #843900",
"r  c #8C4800",
"t  c #964900",
"y  c #9B5607",
"u  c #834E1D",
"i  c #824916",
"p  c #85511C",
"a  c #8E551C",
"s  c #95591E",
"d  c #AE5F02",
"f  c #B75A00",
"g  c #A65C16",
"h  c #B26205",
"j  c #AE621B",
"k  c #A66217",
"l  c #B66A1D",
"z  c #B96D1D",
"x  c #B86918",
"c  c #BF7118",
"v  c #81552C",
"b  c #895728",
"n  c #975B22",
"m  c #865B32",
"M  c #8A5D33",
"N  c #805630",
"B  c #915E36",
"V  c #9D632A",
"C  c #8C6130",
"Z  c #926339",
"A  c #99653A",
"S  c #9D6A3B",
"D  c #986537",
"F  c #A5672B",
"G  c #B56A2A",
"H  c #A26D3C",
"J  c #A56C30",
"K  c #A7703E",
"L  c #AC7438",
"P  c #B7732C",
"I  c #C8761E",
"U  c #C67B28",
"Y  c #D27E23",
"T  c #C27D33",
"R  c #9C6D41",
"E  c #987055",
"W  c #A16F40",
"Q  c #A57446",
"!  c #AC784B",
"~  c #B37D4B",
"^  c #B97C43",
"/  c #836E62",
"(  c #BE8337",
")  c #D98800",
"_  c #D4852C",
"`  c #D48628",
"'  c #CC853F",
"]  c #D68A34",
"[  c #D78D38",
"{  c #DA923C",
"}  c #CE862C",
"|  c #E29B30",
" . c #BB8349",
".. c #BC8553",
"X. c #B58459",
"o. c #BA8D64",
"O. c #B58A69",
"+. c #C58648",
"@. c #D38E47",
"#. c #DF9945",
"$. c #DD9B4B",
"%. c #DA9546",
"&. c #C48B57",
"*. c #C78C56",
"=. c #CC915C",
"-. c #CA9454",
";. c #DD9C54",
":. c #DC9C5C",
">. c #D49958",
",. c #E29E4A",
"<. c #E19B45",
"1. c #E29D5C",
"2. c #DEA357",
"3. c #E4A14D",
"4. c #E5A553",
"5. c #EAAD5B",
"6. c #E6A759",
"7. c #ECB05F",
"8. c #CB9766",
"9. c #D69B64",
"0. c #DB9C63",
"q. c #D19560",
"w. c #E39F60",
"e. c #DEA269",
"r. c #DEAD6D",
"t. c #CBA177",
"y. c #DEAB7A",
"u. c #E0A364",
"i. c #E3A56C",
"p. c #E3A96A",
"a. c #EEB463",
"s. c #EDB86D",
"d. c #F3BC6C",
"f. c #F1B965",
"g. c #E4AC73",
"h. c #E1AA7A",
"j. c #EDBC78",
"k. c #F4BF70",
"l. c #FBC26D",
"z. c #F6C273",
"x. c #F8C577",
"c. c #F9C778",
"v. c #FAC97C",
"b. c #FFD17E",
"n. c #848484",
"m. c #8C8C8C",
"M. c #8E9092",
"N. c #949494",
"B. c #9B9B9B",
"V. c #B9AA96",
"C. c #A3A3A3",
"Z. c #ABABAB",
"A. c #A8A5A3",
"S. c #AAAEB1",
"D. c #B4B3B3",
"F. c #BCBCBC",
"G. c #B8B7B6",
"H. c #C8A889",
"J. c #D9B187",
"K. c #CDAC96",
"L. c #EBBE82",
"P. c #E4B489",
"I. c #E9BD8F",
"U. c #E5BA93",
"Y. c #FACC83",
"T. c #FACF8A",
"R. c #F4C988",
"E. c #FCD18D",
"W. c #E8C29A",
"Q. c #F6CD92",
"!. c #FBD394",
"~. c #FBD69A",
"^. c #FCD89E",
"/. c #FFDA95",
"(. c #DBC6AE",
"). c #EDCAAC",
"_. c #FBDAA3",
"`. c #FCDDAC",
"'. c #F5D5A4",
"]. c #E8CDB1",
"[. c #F0CDB0",
"{. c #FCDFB1",
"}. c #F3D5BA",
"|. c #FFE1A8",
" X c #FCE1B6",
".X c #FCE2BA",
"XX c #FFEABB",
"oX c #C3C3C3",
"OX c #CCCCCC",
"+X c #D3D3D3",
"@X c #DADADA",
"#X c #F3DFCC",
"$X c #F5DBC3",
"%X c #FCE6C2",
"&X c #FEE9C5",
"*X c #FDEACB",
"=X c #FDECD2",
"-X c #FAEAD7",
";X c #FDF1DB",
":X c #FFF3D4",
">X c #E2E2E2",
",X c #EBEBEB",
"<X c #FCEFE1",
"1X c #FEF3E3",
"2X c #FEF6EA",
"3X c #FFFBE6",
"4X c #F3F3F3",
"5X c #FEFEFE",
"6X c #FEF9F1",
"7X c None",
/* pixels */
"7X7X7X7X7X7X7X7X7X7X7X7X7X7X7X7X7X7X7X7X7X7X7X7X7XH H A B 7X7X7X7X7X7X7X7X7X7X7X7X7X7X7X7X7X7X7X7X7X7X7X7X7X7X7X7X7X7X7X7X7X7X7X",
"7X7X7X7X7X7X7X7X7X7X7X7X7X7X7X7X7X7X7X7X^ &.=.9.9.=.&...~ W M m 7X7X7X7X7X7X7X7X7X7X7X7X7X7X7X7X7X7X7X7X7X7X7X7X7X7X7X7X7X7X7X7X",
"7X7X7X7X7X7X7X7X7X7X7X7X7X7X7X7X7X~ &.0.i.i.0.9.=...~ Q R Z m v v M : 7X7X7X7X7X7X7X7X7X7X7X7X7X7X7X7X7X7X7X7X7X7X7X7X7X7X7X7X7X",
"7X7X7X7X7X7X7X7X7X7X7X7X7X7X7X~ *.u.0.0.0.0.q.=...~ Q R Z m > ; D ~ =.W 7X7X7X7X7X7X7X7X7X7X7X7X7X7X7X7X7X7X7X7X7X7X7X7X7X7X7X7X",
"7X7X7X7X7X7X7X7X7X7X7X7X7X7X^ 1.h.U.U.U.P.y.8...~ Q S Z m : ; A ~ =.e.0.Z 7X7X7X7X7X7X7X7X7X7X7X7X7X7X7X7X7X7X7X7X7X7X7X7X7X7X7X",
"7X7X7X7X7X7X7X7X7X7X7X7X7X@.P.}.#X$X}.).W.I.y.9.~ R Z M ; v S ~ *.9.9.&.^ * 7X7X7X7X7X7X7X7X7X7X7X7X7X7X7X7X7X7X7X7X7X7X7X7X7X7X",
"7X7X7X7X7X7X7X7X7X7X7X7X&.].-X(.H.O.O.~ o.8.9.9.>.H N > v A ~ =.9.=... .D = 7X7X7X7X7X7X7X7X7X7X7X7X7X7X7X7X7X7X7X7X7X7X7X7X7X7X",
"7X7X7X7X7X7X7X7X7X7X7X~ ).K.B e y k n d t r t F ^ +.v > S ^ *.0.=...K H b % 7X7X7X7X7X7X7X7X7X7X7X7X7X7X7X7X7X7X7X7X7X7X7X7X7X7X",
"7X7X7X7X7X7X7X7X7X7X7XO.E X ..L.Q.!.Q.R.z.r.-.L y g s V *.h.P.q. .K B b C * $ 7X7X7X7X7X7X7X7X7X7X7X7X7X7X7X7X7X7X7X7X7X7X7X7X7X",
"7X7X7X7X7X7X7X7X7X7X7Xa @ 9._._._.^.~.!.~.!.E.Y.s.>. .+.F O.].t.V C % % < * O 7X7X7X7X7X7X7X7X7X7X7X7X7X7X7X7X7X7X7X7X7X7X7X7X7X",
"7X7X7X7X7X7X7X7X7X7XR n S ^.`._.`.`._._.^.!.Q.E.T.v.v.z.d.( o.t.p ; % # > : o 7X7X7X7X7X7X7X7X7X7X7X7X7X7X7X7X7X7X7X7X7X7X7X7X7X",
"7X7X7X7X7X7X7X7X7X7XR r o. X X X X.X{.`.`.^.!.E.T.Y.v.x.k.d.^ ~ % % & # : > o 7X7X7X7X7X7X7X7X7X7X7X7X7X7X7X7X7X7X7X7X7X7X7X7X7X",
"7X7X7X7X7X7X7X7X7X7X7Xr t.XX.X&X%X%X.X X`.`._.!.E.Y.v.v.k.k.6.n p p % # = > o 7X7X7X7X7X7X7X7X7X7X7X7X7X7X7X7X7X7X7X7X7X7X7X7X7X",
"7X7X7X7X7X7X7X7X7X7X7Xr H.&X*X*X*X*X*X%X X`._.~.E.T.v.v.x.k.a.n u u % # = > O 7X7X7X7X7X7X7X7X7X7X7X7X7X7X7X7X7X7X7X7X7X7X7X7X7X",
"7X7X7X7X7X7X7X7X7X7X7Xr J.:X-X;X;X;X=X*X.X X`.^.!.T.Y.v.x.k.a.J i u % # = < o 7X7X7X7X7X7X7X7X7X7X7X7X7X7X7X7X7X7X7X7X7X7X7X7X7X",
"7X7X7X7X7X7X7X7X7X7X7X7XH.;X;X2X1X1X-X*X%X.X`._.!.E.Y.v.x.k.d.L i b % # = < O 7X7X7X7X7X7X7X7X7X7X7X7X7X7X7X7X7X7X7X7X7X7X7X7X7X",
"7X7X7X7X7X7X7X7X7X7X7X7XW.3X1X6X6X2X;X=X%X.X`._.~.T.Y.Y.x.k.d.L & p & # = > O 7X7X7X7X7X7X7X7X7X7X7X7X7X7X7X7X7X7X7X7X7X7X7X7X7X",
"7X7X7X7X7X7X7X7X7X7X7X7XW.;X1X2X2X1X;X*X%X.X`._.~.T.Y.v.v.k.d.L p b # # : - O 7X7X7X7X7X7X7X7X7X7X7X7X7X7X7X7X7X7X7X7X7X7X7X7X7X",
"7X7X7X7X7X7X7X7X7X7X7X7X7X:X:X;X1X;X=X*X.X X`.^.!.T.Y.v.x.k.f.4.,.$.T & - * 7X7X7X7X7X7X7X7X7X7X7X7X7X7X7X7X7X7X7X7X7X7X7X7X7X7X",
"7X7X7X7X7X7X7X7X7X7X7X7X7X&X:X=X=X=X*X%X.X{.'.^.!.T.Y.v.x.k.a.5.,.{ ] V * $ 7X7X7X7X7X7X7X7X7X7X7X7X7X7X7X7X7X7X7X7X7X7X7X7X7X7X",
"7X7X7X7X7X7X7X7X7X7X7X7X7X'.&X&X*X%X%X.X{.`._.!.T.Y.Y.c.k.d.a.4.#.] _ V o $ 7X7X7X7X7X7X7X7X7X7X7X7X7X7X7X7X7X7X7X7X7X7X7X7X7X7X",
"7X7X7X7X7X7X7X7X7X7X7X7X7XQ.&X.X.X.X X`.`._.~.!.T.Y.c.x.k.f.a.4.%._ Y p o 7X7X7X7X7X7X7X7X7X7X7X7X7X7X7X7X7X7X7X7X7X7X7X7X7X7X7X",
"7X7X7X7X7X7X7X7X7X7X7X7X7XL.XX|.`.`.`.'.^.~.!.T.Y.v.v.x.k.a.5.,.{ _ z o o 7X7X7X7X7X7X7X7X7X7X7X7X7X7X7X7X7X7X7X7X7X7X7X7X7X7X7X",
"7X7X7X7X7X7X7X7X7X7X7X7X7X7X|._._._._.^.!.!.T.Y.Y.v.x.k.f.a.4.<.] Y a O 7X7X7X7X7X7X7X7X7X7X7X7X7X7X7X7X7X7X7X7X7X7X7X7X7X7X7X7X",
"7X7X7X7X7X7X7X7X7X7X7X7X7X7XR.~.~.~.!.!.E.T.Y.v.c.c.z.d.a.5.,.{ _ z o o 7X7X7X7X7X7X7X7X7X7X7X7X7X7X7X7X7X7X7X7X7X7X7X7X7X7X7X7X",
"7X7X7X7X7X7X7X7X7X7X7X7X7X7Xj./.E.T.T.T.Y.Y.v.v.c.z.d.a.5.,.%._ Y n + 7X7X7X7X7X7X7X7X7X7X7X7X7X7X7X7X7X7X7X7X7X7X7X7X7X7X7X7X7X",
"7X7X7X7X7X7X7X7X7X7X7X7X7X7X7XE.T.Y.Y.v.v.v.c.c.z.d.a.5.4.$._ Y I u 7X7X7X7X7X7X7X7X7X7X7X7X7X7X7X7X7X7X7X7X7X7X7X7X7X7X7X7X7X7X",
"7X7X7X7X7X7X7X7X7X7X7X7X7X7X7Xk.v.c.v.c.c.c.z.d.d.a.5.4.<.] [ Y x 7X7X7X7X7X7X7X7X7X7X7X7X7X7X7X7X7X7X7X7X7X7X7X7X7X7X7X7X7X7X7X",
"7X7X7X7X7X7X7X7X7X7X7X7X7X7X7Xa.b.x.x.z.z.l.d.f.a.5.3.<._ %.u.I g 7X7X7X7X7X7X7X7X7X7X7X7X7X7X7X7X7X7X7X7X7X7X7X7X7X7X7X7X7X7X7X",
"7X7X7X7X7X7X7X7X7X7X7X7X7X7X7X7Xl.z.d.d.d.a.a.5.4.,.<.` @.g.+.d j 7X7X7X7X7X7X7X7X7X7X7X7X7X7X7X7X7X7X7X7X7X7X7X7X7X7X7X7X7X7X7X",
"7X7X7X7X7X7X7X7X7X7X7X7X7X7X7X7X4.l.a.a.5.5.4.3.<.] _ :.g.+.h j j b 7X7X7X7X7X7X7X7X7X7X7X7X7X7X7X7X7X7X7X7X7X7X7X7X7X7X7X7X7X7X",
"7X7X7X7X7X7X7X7X7X7X7X7X7X7X7X7X7X3.4.4.3.<.{ [ ] ;.g.e.U h x j g 6 5 7X7X7X7X7X7X7X7X7X7X7X7X7X7X7X7X7X7X7X7X7X7X7X7X7X7X7X7X7X",
"7X7X7X7X7X7X7X7X7X7X7X7X7X7X7X7X7X7X6.#.;.;.2.e.g.e.@.c l l G d A 8 8 7 3 7X7X7X7X7X7X7X7X7X7X7X7X7X7X7X7X7X7X7X7X7X7X7X7X7X7X7X",
"7X7X7X7X7X7X7X7X7X7X7X7X7X7X7X7XZ.S.Z.J.e.0.:.:.%.} U U z x G f / w w 8 8 4 7X7X7X7X7X7X7X7X7X7X7X7X7X7X7X7X7X7X7X7X7X7X7X7X7X7X",
"7X7X7X7X7X7X7X7X7X7X7X7X7X7X7XS.(.D.S.].!.R.s.s.a.2.@.U G G f Q q 9 9 9 w 7 7 2 7X7X7X7X7X7X7X7X7X7X7X7X7X7X7X7X7X7X7X7X7X7X7X7X",
"7X7X7X7X7X7X7X7X7X7X7X7X7XS.oXoXF.G.Z.V.|.~.E.Y.z.a.6.<.[ h K.A.9 0 n.0 n.n.9 8 4 7X7X7X7X7X7X7X7X7X7X7X7X7X7X7X7X7X7X7X7X7X7X7X",
"7X7X7X7X7X7X7X7X7X7X7X7XG.OXoXF.F.G.S.n.'.~.T.v.d.a.6.{ ) ).,XM.N.N.N.M.m.N.N.n.0 w 4 7X7X7X7X7X7X7X7X7X7X7X7X7X7X7X7X7X7X7X7X7X",
"7X7X7X7X7X7X7X7X7X7XB.OXOXOXoXoXF.F.D.q (.!.T.v.z.5.| p.-X5XF.N.B.B.N.M.m.n.m.N.m.0 9 4 7X7X7X7X7X7X7X7X7X7X7X7X7X7X7X7X7X7X7X7X",
"7X7X7X7X7X7X7X7X7X7X@X+XOXOXOXoXoXF.D.q OX{.v.l.f.j..X6X5X,XN.B.B.N.N.M.m.m.n.n.M.n.0 9 7 7X7X7X7X7X7X7X7X7X7X7X7X7X7X7X7X7X7X7X",
"7X7X7X7X7X7X7X7X7XoX@X+XOXOXOXoXF.oXS.q +X5X1X=X1X5X5X5X5XG.N.B.B.B.N.M.m.m.m./ n.m.n.q 8 4 7X7X7X7X7X7X7X7X7X7X7X7X7X7X7X7X7X7X",
"7X7X7X7X7X7X7X7XZ.@X@X@X+X+XOXoXoXoXZ.0 @X5X5X5X5X5X5X5X>XN.B.B.B.B.N.N.M.n.n.n.q n.n.n.q 7 5 7X7X7X7X7X7X7X7X7X7X7X7X7X7X7X7X7X",
"7X7X7X7X7X7X7X7XF.+X+X+X+XOXOXoXoXF.A.n.>X5X5X5X5X5X5X5XZ.B.B.B.B.N.N.M.M.n.n.q q 9 n.n.q 7 5 7X7X7X7X7X7X7X7X7X7X7X7X7X7X7X7X7X",
"7X7X7X7X7X7X7X7XOX+X+XOXOXOXoXoXF.oXB.m.>X5X5X5X5X5X5X+XN.C.B.B.N.B.N.N.m.n.q O.0 9 q n.q w 7 5 7X7X7X7X7X7X7X7X7X7X7X7X7X7X7X7X",
"7X7X7X7X7X7X7XB.+XOXOXOXOXoXoXoXF.oXB.N.,X5X5X5X5X5X,XB.B.B.B.B.B.B.N.M.M.M.q 0 0 9 w 0 O.9 4 3 7X7X7X7X7X7X7X7X7X7X7X7X7X7X7X7X",
"7X7X7X7X7X7X7XZ.OXoXOXoXoXoXoXF.G.F.N.B.,X5X5X5X5X5XG.B.B.B.B.B.B.N.N.M.m.n.n.0 9 9 8 0 / 0 7 4 7X7X7X7X7X7X7X7X7X7X7X7X7X7X7X7X",
"7X7X7X7X7X7X7XZ.oXoXoXoXoXoXF.F.G.F.M.A.4X5X5X5X5X@XN.C.B.B.B.B.B.B.N.m.m.n.n.0 0 9 8 9 n.0 7 5 3 7X7X7X7X7X7X7X7X7X7X7X7X7X7X7X",
"7X7X7X7X7X7X7XG.F.F.F.F.F.F.F.G.G.G.n.S.4X5X5X5X4XA.B.C.B.B.B.B.N.N.N.m.n.n.0 0 9 9 8 w q 0 8 3 3 7X7X7X7X7X7X7X7X7X7X7X7X7X7X7X",
"7X7X7X7X7X7X7XF.F.F.F.F.G.F.G.D.D.G.n.G.4X5X5X5XoXB.C.B.B.B.B.N.B.N.N.m.m.n.0 0 9 9 8 8 0 0 8 3 3 7X7X7X7X7X7X7X7X7X7X7X7X7X7X7X",
"7X7X7X7X7X7Xm.F.G.G.D.D.G.G.D.D.S.D.n.(.4X5X5X,XN.C.B.B.B.B.N.B.N.N.m.m.n.0 0 0 9 8 8 7 9 0 8 3 3 7X7X7X7X7X7X7X7X7X7X7X7X7X7X7X",
"7X7X7X7X7X7Xm.G.D.S.D.D.Z.D.S.Z.S.Z.0 oX4X5X5XD.B.C.B.B.B.B.B.B.N.m.m.m.n.n.0 9 9 w 8 7 9 9 w 3 3 1 7X7X7X7X7X7X7X7X7X7X7X7X7X7X",
"7X7X7X7X7X7Xm.G.Z.Z.Z.D.Z.Z.Z.Z.Z.A.n.+X5X5X@XN.C.C.B.B.B.B.B.N.N.N.m.n.n.0 0 9 9 8 8 7 9 9 8 3 3 1 7X7X7X7X7X7X7X7X7X7X7X7X7X7X",
"7X7X7X7X7X7Xm.D.Z.Z.Z.Z.Z.Z.Z.Z.A.C.n.+X5X4XZ.B.B.B.B.B.B.N.B.N.N.m.m.n.n.0 0 9 8 8 7 7 9 9 8 3 2 1 7X7X7X7X7X7X7X7X7X7X7X7X7X7X",
"7X7X7X7X7X7XN.S.A.S.A.S.A.Z.C.A.A.B.m.@X5X+XN.C.B.B.B.B.N.B.N.N.m.m.n.n.n.0 q 9 8 8 7 4 8 9 8 3 2 1 7X7X7X7X7X7X7X7X7X7X7X7X7X7X",
"7X7X7X7X7X7X0 Z.C.C.C.C.A.A.C.C.C.B.m.>X4XB.B.B.B.B.B.B.B.N.N.M.m.n.n.n./ 9 9 w 8 8 7 4 7 9 8 3 2 1 7X7X7X7X7X7X7X7X7X7X7X7X7X7X",
"7X7X7X7X7X7X7Xm.S.C.C.C.C.C.C.C.C.N.N.,XoXN.C.B.B.B.B.B.N.N.M.m.n.n.0 0 0 9 9 8 8 7 7 4 7 9 8 3 2 1 7X7X7X7X7X7X7X7X7X7X7X7X7X7X",
"7X7X7X7X7X7X7X7Xm.A.B.C.B.C.C.B.C.M.C.+XB.B.B.B.B.N.B.N.N.N.M.m.n.n.n.0 0 9 8 8 7 7 4 4 4 8 8 3 1 1 7X7X7X7X7X7X7X7X7X7X7X7X7X7X",
"7X7X7X7X7X7X7X7X7Xn.A.C.C.B.C.B.C.m.Z.D.N.B.B.N.B.B.N.N.M.M.m.n.n.n.0 0 9 w 8 7 7 7 4 3 4 8 8 3 1 . 7X7X7X7X7X7X7X7X7X7X7X7X7X7X",
"7X7X7X7X7X7X7X7X7X7X9 C.C.B.B.B.B.N.B.B.B.B.B.B.B.N.N.N.m.m.n.n.n.0 9 9 9 8 8 7 7 4 4 3 4 8 7 3 1 . 7X7X7X7X7X7X7X7X7X7X7X7X7X7X",
"7X7X7X7X7X7X7X7X7X7X7X7Xn.C.C.B.B.N.N.B.B.B.B.N.N.N.m.m.m.n.n.n.0 0 9 9 8 w 8 7 4 4 3 3 3 7 7 3 .   7X7X7X7X7X7X7X7X7X7X7X7X7X7X",
"7X7X7X7X7X7X7X7X7X7X7X7X7Xw n.B.C.B.B.B.N.B.N.N.N.m.m.m.n.n.0 0 9 9 9 9 8 7 7 4 4 4 3 3 3 7 4 2   7X7X7X7X7X7X7X7X7X7X7X7X7X7X7X",
"7X7X7X7X7X7X7X7X7X7X7X7X7X7X7X7Xn.N.B.B.B.N.m.N.m.m.n.n.n.n.q 0 9 9 8 8 8 7 4 4 4 3 3 2 2 3 1   7X7X7X7X7X7X7X7X7X7X7X7X7X7X7X7X",
"7X7X7X7X7X7X7X7X7X7X7X7X7X7X7X7X7X7X9 n.N.N.N.m.m.n.n.n.0 n.0 9 9 8 8 8 7 7 4 4 4 3 3 2 2 . 7X7X7X7X7X7X7X7X7X7X7X7X7X7X7X7X7X7X",
"7X7X7X7X7X7X7X7X7X7X7X7X7X7X7X7X7X7X7X7X7X8 9 0 n.n.n.n./ n.0 0 9 9 w 8 7 7 4 4 2 2 1 1 7X7X7X7X7X7X7X7X7X7X7X7X7X7X7X7X7X7X7X7X",
"7X7X7X7X7X7X7X7X7X7X7X7X7X7X7X7X7X7X7X7X7X7X7X7X7X7X7X7 7 7 4 4 4 4 3 3 3 7X7X7X7X7X7X7X7X7X7X7X7X7X7X7X7X7X7X7X7X7X7X7X7X7X7X7X"
};
