/* XPM */
static const char *zoom_out_24x24_xpm[] = {
/* columns rows colors chars-per-pixel */
"24 24 212 2 ",
"   c #2A2A2A",
".  c #3C3C3C",
"X  c gray24",
"o  c #414141",
"O  c #4E4E4E",
"+  c #5B5B5B",
"@  c gray36",
"#  c #5D5D5D",
"$  c #5F6367",
"%  c gray42",
"&  c #606E7D",
"*  c #294DA3",
"=  c #2D52AB",
"-  c #3258B3",
";  c #365DBA",
":  c #586B80",
">  c #677584",
",  c #677687",
"<  c #6A7784",
"1  c #687787",
"2  c #697887",
"3  c #6A7A8A",
"4  c #6E7C8B",
"5  c #3B63C2",
"6  c #3F68CA",
"7  c #446ED2",
"8  c #4873D9",
"9  c #4D79E1",
"0  c #728394",
"q  c #738394",
"w  c #7A8999",
"e  c #7B8A99",
"r  c #7A8A9B",
"t  c #7E8C9A",
"y  c #7A8B9D",
"u  c #7A8C9F",
"i  c #7B8C9F",
"p  c #6D82A1",
"a  c #7085A3",
"s  c #7C8DA0",
"d  c #798CA6",
"f  c #7E90A4",
"g  c #7D92B5",
"h  c gray53",
"j  c gray56",
"k  c #808D9C",
"l  c #818F9F",
"z  c #83919F",
"x  c #86929D",
"c  c #8B959F",
"v  c gray61",
"b  c #8190A1",
"n  c #8391A0",
"m  c #8090A2",
"M  c #8592A0",
"N  c #8794A1",
"B  c #8092A4",
"V  c #8293A5",
"C  c #8091A7",
"Z  c #8394A7",
"A  c #8494A5",
"S  c #8695A4",
"D  c #8595A6",
"F  c #8595A7",
"G  c #8796A6",
"H  c #8A97A5",
"J  c #8896A6",
"K  c #8293A8",
"L  c #8194A8",
"P  c #8294A8",
"I  c #8596A9",
"U  c #8597AB",
"Y  c #8698AC",
"T  c #8698AD",
"R  c #8A98A8",
"E  c #8B98A9",
"W  c #8898AE",
"Q  c #899BAE",
"!  c #899BAF",
"~  c #929DA9",
"^  c #8B9DB1",
"/  c #8C9DB0",
"(  c #8D9DB0",
")  c #8E9FB1",
"_  c #8D9FB2",
"`  c #8E9FB3",
"'  c #96A1AC",
"]  c #94A1AF",
"[  c #98A2AC",
"{  c #98A3AD",
"}  c #99A4AE",
"|  c #94A2B1",
" . c #91A2B5",
".. c #93A4B7",
"X. c #9CA6B2",
"o. c #9FAAB6",
"O. c #95A6B9",
"+. c #97A8BA",
"@. c #9AA9BA",
"#. c #9FACB9",
"$. c #A7B3BE",
"%. c #B8BBBF",
"&. c #9EABC2",
"*. c #9BB0D5",
"=. c #9AB1D9",
"-. c #A0ADC0",
";. c #A1ADC1",
":. c #A1B1C2",
">. c #A4B5C6",
",. c #ACBCCC",
"<. c #AEBDCD",
"1. c #B1BDCE",
"2. c #B1BFCF",
"3. c #A7B6D1",
"4. c #BAC0C7",
"5. c #BFC4C9",
"6. c #BEC4CE",
"7. c #B1C1D0",
"8. c #B4C0D1",
"9. c #B7C3D3",
"0. c #B6C2D7",
"q. c #B9C7D7",
"w. c #BCC6D6",
"e. c #BCCAD8",
"r. c #BCC8DB",
"t. c #BCCADA",
"y. c #BFCBDF",
"u. c #AEC1E3",
"i. c #BDCAE0",
"p. c #BECEED",
"a. c #BBCFF2",
"s. c #C2CBDB",
"d. c #C0CDDB",
"f. c #C2CFDD",
"g. c #C1CFDE",
"h. c #D8DBDE",
"j. c #C2CDE1",
"k. c #C4D2E0",
"l. c #CDD6E7",
"z. c #D3DBEA",
"x. c #C0D3F7",
"c. c #C4D6F7",
"v. c #CEDEFE",
"b. c #DEE3EC",
"n. c #DAE2F1",
"m. c #D8E3F6",
"M. c #D7E3FB",
"N. c #D1E0FF",
"B. c #D3E1FF",
"V. c #D5E3FE",
"C. c #D4E3FF",
"Z. c #D6E3FF",
"A. c #DAE6FF",
"S. c #DBE7FF",
"D. c #DCE8FF",
"F. c #DDE8FF",
"G. c #DEE9FF",
"H. c #DFE9FF",
"J. c #DFEAFE",
"K. c #E0E7F4",
"L. c #E3EAF7",
"P. c #E0E8F8",
"I. c #E1EAFC",
"U. c #E2EBFC",
"Y. c #E0EAFF",
"T. c #E1EBFF",
"R. c #E3ECFF",
"E. c #E5EDFE",
"W. c #E5EEFE",
"Q. c #E5EEFF",
"!. c #E6EEFE",
"~. c #E6EEFF",
"^. c #E7EFFF",
"/. c #E8F0FF",
"(. c #E9F0FF",
"). c #E9F1FF",
"_. c #EAF1FF",
"`. c #EBF1FF",
"'. c #EBF2FF",
"]. c #ECF1FD",
"[. c #ECF3FF",
"{. c #EDF3FF",
"}. c #EEF3FF",
"|. c #EEF4FF",
" X c #EFF4FF",
".X c #EFF5FF",
"XX c #F4F6FA",
"oX c #F0F5FF",
"OX c #F1F5FF",
"+X c #F1F6FF",
"@X c #F2F6FF",
"#X c #F2F7FF",
"$X c #F3F7FF",
"%X c #F4F7FF",
"&X c #F7F8F9",
"*X c #F4F8FF",
"=X c #F5F8FF",
"-X c #F5F9FF",
";X c #F6F9FF",
":X c #F7F9FF",
">X c #F7FAFF",
",X c #F9F9F9",
"<X c #F8FAFF",
"1X c #F8FBFF",
"2X c #F9FBFF",
"3X c #FAFCFF",
"4X c #FBFCFF",
"5X c #FCFDFF",
"6X c #FEFEFF",
"7X c #FEFFFF",
"8X c white",
"9X c None",
/* pixels */
"9X9X9X9X9X9X9X} ' ~ x 9X9X9X9X9X9X9X9X9X9X9X9X9X",
"9X9X9X9X[ $.d.g.q.7.,.:.S < 9X9X9X9X9X9X9X9X9X9X",
"9X9X9X} f.t.1.r.j.y.0.-.( U , 9X9X9X9X9X9X9X9X9X",
"9X9X{ k.8.l.U.W.!.E.I.m.i.a L 3 9X9X9X9X9X9X9X9X",
"9Xc e.9.P./.(.(.(./.^.^.I.u.p Y > 9X9X9X9X9X9X9X",
"9X#.2.n.^.~._._._._.(./.^.M.=.d B 9X9X9X9X9X9X9X",
"9X<.w.(.~.G.S.Y.Q.'._.)./.T.x.g _ 4 9X9X9X9X9X9X",
"N >.z.`.{.|.{.~.H.F.R._._.(.v.*.T l 9X9X9X9X9X9X",
"n +.K.}.oX9 8 7 6 5 ; - = /.N.a.C b 9X9X9X9X9X9X",
"w / ].OX#X8 7 6 5 ; - = * Z.B.c.K D 9X9X9X9X9X9X",
"1 f b.%X=X;X;X-X*X$X+X.X[.A.C.p.^ R 9X9X9X9X9X9X",
"& P 6.:X2X2X2X<X;X=X#XOX}.S.Z.3...t 9X9X9X9X9X9X",
"9Xi ] XX5X5X5X3X1X;X*X@X~.S.V.W ` 9X9X9X9X9X9X9X",
"9X2 ! 4.7X8X7X5X3X>X=X XT.D.&.Q e 9X9X9X9X9X9X9X",
"9X9Xr ) 5.,X8X6X4X1X$X^.J.;.Z s 9X9X9X9X9X9X9X9X",
"9X9X9Xm  .X.h.&X4X=XL.s.E U u M @.9X9X9X9X9X9X9X",
"9X9X9X9Xk ..O.| H J A I U 0 9X: o.$ @ 9X9X9X9X9X",
"9X9X9X9X9X9Xz G F V y q 9X9X9X9X%.% o # 9X9X9X9X",
"9X9X9X9X9X9X9X9X9X9X9X9X9X9X9X9Xj v O o # 9X9X9X",
"9X9X9X9X9X9X9X9X9X9X9X9X9X9X9X9X9Xh v O o # 9X9X",
"9X9X9X9X9X9X9X9X9X9X9X9X9X9X9X9X9X9Xh v O o # 9X",
"9X9X9X9X9X9X9X9X9X9X9X9X9X9X9X9X9X9X9Xh v O o X ",
"9X9X9X9X9X9X9X9X9X9X9X9X9X9X9X9X9X9X9X9Xh v .   ",
"9X9X9X9X9X9X9X9X9X9X9X9X9X9X9X9X9X9X9X9X9X# + 9X"
};
