/* XPM */
static const char *zoom_in_32x32_xpm[] = {
/* columns rows colors chars-per-pixel */
"32 32 129 2 ",
"   c #2F2F2F",
".  c #343434",
"X  c #3C3C3C",
"o  c #4B4B4B",
"O  c #545454",
"+  c #4D5862",
"@  c #485769",
"#  c #4F5A68",
"$  c #535F6C",
"%  c #495B70",
"&  c #53606D",
"*  c #58616C",
"=  c #576473",
"-  c #596774",
";  c #5D6C7D",
":  c #656565",
">  c #616E7D",
",  c #63707E",
"<  c gray49",
"1  c #274BA0",
"2  c #2A4FA6",
"3  c #2E53AB",
"4  c #3157B1",
"5  c #345BB7",
"6  c #375FBC",
"7  c #657485",
"8  c #6B7683",
"9  c #6E7881",
"0  c #6D7B8A",
"q  c #657A97",
"w  c #6B7E94",
"e  c #687C98",
"r  c #3C65C5",
"t  c #416ACD",
"y  c #446ED2",
"u  c #4772D8",
"i  c #4A76DD",
"p  c #4E7AE3",
"a  c #77808B",
"s  c #7A838B",
"d  c #728393",
"f  c #7B8792",
"g  c #7D8995",
"h  c #758698",
"j  c #7B8B9B",
"k  c #7B8EA2",
"l  c #778BAA",
"z  c #7E91A5",
"x  c #788FB4",
"c  c #8E8E8E",
"v  c #838C95",
"b  c #858F9C",
"n  c #86919E",
"m  c #8A949E",
"M  c #8393A5",
"N  c #8996A3",
"B  c #8294A9",
"V  c #8498AC",
"C  c #8C9BAB",
"Z  c #939FAC",
"A  c #8D9FB1",
"S  c #8498B8",
"D  c #95A0AD",
"F  c #9AA4AE",
"G  c #8EA0B3",
"H  c #8EA0BC",
"J  c #94A3B4",
"K  c #9BA7B5",
"L  c #9CA8B7",
"P  c #97A6B9",
"I  c #98A5B8",
"U  c #96A9BC",
"Y  c #9CACBC",
"T  c #A9A9A9",
"R  c #A4ADB7",
"E  c #A0ABB9",
"W  c #A6B1BD",
"Q  c #AFB6BE",
"!  c #8DA5CE",
"~  c #91A3C2",
"^  c #92A7CB",
"/  c #9FB0C2",
"(  c #96AED5",
")  c #A4B2C3",
"_  c #A9B6C5",
"`  c #A7B8C9",
"'  c #ACBBCB",
"]  c #B1BDCB",
"[  c #A7B8D3",
"{  c #ADBAD1",
"}  c #A1B8E0",
"|  c #B5C3D4",
" . c #BEC7D4",
".. c #BDCAD7",
"X. c #BDCBDA",
"o. c #BBC9E5",
"O. c #B2C8EE",
"+. c #BDCBED",
"@. c #BACDF3",
"#. c #C4C9CE",
"$. c gray81",
"%. c #C3C8D0",
"&. c #C4CFDE",
"*. c #C4D3E1",
"=. c #C8D4E3",
"-. c #CAD9E7",
";. c #D1DBEC",
":. c #D8DEE9",
">. c #C1D2F4",
",. c #CEDAF0",
"<. c #C6D6F9",
"1. c #CCDCFD",
"2. c #D3DEF3",
"3. c #D0DFFE",
"4. c #DFE2E7",
"5. c #DFE3E9",
"6. c #D6E1F3",
"7. c #D9E3F7",
"8. c #D4E2FF",
"9. c #DAE6FE",
"0. c #DEE9FE",
"q. c #E3E5E6",
"w. c #E4EDFF",
"e. c #E8EFFF",
"r. c #EBF1FF",
"t. c #F2F6FF",
"y. c #F6F9FF",
"u. c #FCFDFF",
"i. c None",
/* pixels */
"i.i.i.i.i.i.i.i.i.i.i.i.i.i.i.i.i.i.i.i.i.i.i.i.i.i.i.i.i.i.i.i.",
"i.i.i.i.i.i.i.i.i.m D m N f i.i.i.i.i.i.i.i.i.i.i.i.i.i.i.i.i.i.",
"i.i.i.i.i.i.m R ] X.X.X. .' Y n 8 i.i.i.i.i.i.i.i.i.i.i.i.i.i.i.",
"i.i.i.i.i.K ..-...' ` _ ) I U Y J d i.i.i.i.i.i.i.i.i.i.i.i.i.i.",
"i.i.i.i._ -.X._ ..,.6.6.2.,.| I B V h & i.i.i.i.i.i.i.i.i.i.i.i.",
"i.i.i.W =.] ..0.w.e.e.e.e.w.7.2.[ q z h # i.i.i.i.i.i.i.i.i.i.i.",
"i.i.K &.] *.e.e.e.e.e.e.e.e.e.w.7.( q z d i.i.i.i.i.i.i.i.i.i.i.",
"i.m | ] &.r.e.r.r.r.p i u e.e.e.e.>.! w z ; i.i.i.i.i.i.i.i.i.i.",
"i.Z ..] e.w.0.0.w.e.i u y r.e.e.e.9.O.x k h i.i.i.i.i.i.i.i.i.i.",
"i.) _ ;.e.e.w.0.9.0.u y t r.r.e.e.0.1.} w B & i.i.i.i.i.i.i.i.i.",
"g ` L r.r.t.<.<.>.@.y t r +.+.+.+.w.1.@.l z 7 i.i.i.i.i.i.i.i.i.",
"f ) ) r.r.t.p i u y t r r 6 5 4 3 0.8.<.S k w i.i.i.i.i.i.i.i.i.",
"d U R r.t.t.i u y t t 6 6 5 4 3 2 0.8.1.^ k w i.i.i.i.i.i.i.i.i.",
"0 A K r.t.t.u y t r r 6 5 4 3 2 1 8.8.8.~ k h i.i.i.i.i.i.i.i.i.",
"> B D t.t.y.y.y.y.y.6 5 4 t.t.r.r.8.8.3.J A j i.i.i.i.i.i.i.i.i.",
"i.k k t.y.y.u.y.y.y.5 4 3 t.t.t.r.9.8.3.V U 0 i.i.i.i.i.i.i.i.i.",
"i.d k #.u.u.u.u.u.u.4 3 2 t.t.t.w.9.8.o.V Y & i.i.i.i.i.i.i.i.i.",
"i.; B N y.u.u.u.u.u.3 2 1 t.t.r.0.9.8.P ) C i.i.i.i.i.i.i.i.i.i.",
"i.i.d M R u.u.u.u.u.u.u.u.y.r.e.0.0.{ U ` 9 i.i.i.i.i.i.i.i.i.i.",
"i.i.= k j Q u.u.u.u.u.u.u.t.r.w.0.| I ' g i.i.i.i.i.i.i.i.i.i.i.",
"i.i.i., z k D q.u.u.u.u.t.r.e.6.) Y ` b U @ i.i.i.i.i.i.i.i.i.i.",
"i.i.i.i.- j z j F #.4.5.4. .) J ' | 7 ; W v O i.i.i.i.i.i.i.i.i.",
"i.i.i.i.i.i.0 B G G G D P ) | | ) s i.% N c X O i.i.i.i.i.i.i.i.",
"i.i.i.i.i.i.i.+ 0 N G Y Y L C s i.i.i.i.$.c o X O i.i.i.i.i.i.i.",
"i.i.i.i.i.i.i.i.i.i.i.i.i.i.i.i.i.i.i.i.: T c o X O i.i.i.i.i.i.",
"i.i.i.i.i.i.i.i.i.i.i.i.i.i.i.i.i.i.i.i.i.: T c o X O i.i.i.i.i.",
"i.i.i.i.i.i.i.i.i.i.i.i.i.i.i.i.i.i.i.i.i.i.: T c o X O i.i.i.i.",
"i.i.i.i.i.i.i.i.i.i.i.i.i.i.i.i.i.i.i.i.i.i.i.: T c o X O X i.i.",
"i.i.i.i.i.i.i.i.i.i.i.i.i.i.i.i.i.i.i.i.i.i.i.i.: T c o .   i.i.",
"i.i.i.i.i.i.i.i.i.i.i.i.i.i.i.i.i.i.i.i.i.i.i.i.i.: T <   i.i.i.",
"i.i.i.i.i.i.i.i.i.i.i.i.i.i.i.i.i.i.i.i.i.i.i.i.i.i.o : . i.i.i.",
"i.i.i.i.i.i.i.i.i.i.i.i.i.i.i.i.i.i.i.i.i.i.i.i.i.i.i.i.i.i.i.i."
};
