/* XPM */
static const char *zoom_out_64x64_xpm[] = {
/* columns rows colors chars-per-pixel */
"64 64 209 2 ",
"   c #1D1D1D",
".  c #2D2D2D",
"X  c #222426",
"o  c #353535",
"O  c #3A3A3A",
"+  c #002551",
"@  c #3F4E61",
"#  c #454444",
"$  c #494949",
"%  c #494541",
"&  c #555555",
"*  c #5D5D5D",
"=  c #46566B",
"-  c #515E6B",
";  c #596675",
":  c #5D6B7A",
">  c #586676",
",  c #506274",
"<  c #636363",
"1  c #6A6A6A",
"2  c #636E7A",
"3  c #616B74",
"4  c #63707E",
"5  c #68727C",
"6  c #7B7B7B",
"7  c #00008E",
"8  c #000096",
"9  c #00349C",
"0  c #003DA4",
"q  c #003FAB",
"w  c #0045AC",
"e  c #0642A4",
"r  c #044BB5",
"t  c #0050BE",
"y  c #1653BC",
"u  c #3858AC",
"i  c #395CB4",
"p  c #385CB4",
"a  c #3D62BC",
"s  c #596D82",
"d  c #566D86",
"f  c #5B7189",
"g  c #616F80",
"h  c #637383",
"j  c #6A7684",
"k  c #61758A",
"l  c #6B7B8B",
"z  c #68798B",
"x  c #737C86",
"c  c #727F8D",
"v  c #687B91",
"b  c #576DAF",
"n  c #0557C8",
"m  c #1D58C2",
"M  c #0058D8",
"N  c #155ED2",
"B  c #245DC8",
"V  c #1D63D7",
"C  c #2A62CE",
"Z  c #366BD8",
"A  c #3768CF",
"S  c #4369C6",
"D  c #466DCC",
"F  c #4369C6",
"G  c #4970CF",
"H  c #4A73D4",
"J  c #4E76D8",
"K  c #5379DA",
"L  c #78838D",
"P  c #6F8193",
"I  c #6C819D",
"U  c #738494",
"Y  c #7B8591",
"T  c #738599",
"R  c #76889B",
"E  c #7B8B9C",
"W  c #7D8894",
"Q  c #6F85A4",
"!  c #7C8EA2",
"~  c #758AA8",
"^  c #7F92A6",
"/  c #7F92AC",
"(  c #7183BC",
")  c #7D96BC",
"_  c #788DCD",
"`  c #7488C4",
"'  c #788FD7",
"]  c #7C93D7",
"[  c #878787",
"{  c #8C8C8C",
"}  c #898885",
"|  c #828F9C",
" . c #85919D",
".. c #999898",
"X. c #8393A4",
"o. c #8995A2",
"O. c #8A98A6",
"+. c #8395AA",
"@. c #8599AE",
"#. c #8C9BAB",
"$. c #929EAB",
"%. c #949DA5",
"&. c #8295B3",
"*. c #879BB0",
"=. c #8B9EB2",
"-. c #8E9FB8",
";. c #94A1AE",
":. c #98A3AE",
">. c #9DA1A4",
",. c #8EA2B5",
"<. c #93A3B3",
"1. c #9BA6B3",
"2. c #9DA9B4",
"3. c #94A6BA",
"4. c #96A9BC",
"5. c #9BABBC",
"6. c #99A7BA",
"7. c #A2ACB6",
"8. c #A3AEBB",
"9. c #A3B1BE",
"0. c #BBBBBB",
"q. c #B4B4B4",
"w. c #AEADAC",
"e. c #839BD1",
"r. c #8BA4CA",
"t. c #9BADC0",
"y. c #9FAFC9",
"u. c #9FB0C3",
"i. c #8CA8D6",
"p. c #9CAAD6",
"a. c #96ABDC",
"s. c #9BACDC",
"d. c #93A5D6",
"f. c #98B2DC",
"g. c #A3AFC2",
"h. c #A3B4C4",
"j. c #AEBAC7",
"k. c #A4B6CA",
"l. c #ABBBCB",
"z. c #A8B7C8",
"x. c #B3BECB",
"c. c #B3BAC4",
"v. c #ACBCD1",
"b. c #A5B4D7",
"n. c #A0AED7",
"m. c #879EE6",
"M. c #95A9E5",
"N. c #9DB5E1",
"B. c #A3BBE5",
"V. c #A5B6EA",
"C. c #A6B8E8",
"Z. c #B4C3D4",
"A. c #BAC5D4",
"S. c #B5C5DA",
"D. c #B9C7DC",
"F. c #B7C8D9",
"G. c #BCCBDC",
"H. c #BBC8D6",
"J. c #B4C0CC",
"K. c #ABC2EA",
"L. c #ADC1E3",
"P. c #BDCDE4",
"I. c #B1C6EC",
"U. c #B4C8EE",
"Y. c #BBCCEA",
"T. c #B7C8E4",
"R. c #BFD0EC",
"E. c #BACCF3",
"W. c #B6CBF0",
"Q. c #BFD1F5",
"!. c #D0CFCF",
"~. c #C1C9D5",
"^. c #C0CEDD",
"/. c #CACED4",
"(. c #C7D1DD",
"). c #D5D9DD",
"_. c #C5CACF",
"`. c #C2CEE8",
"'. c #C5D4E3",
"]. c #CAD6E5",
"[. c #C3D2ED",
"{. c #CCDBEA",
"}. c #C9D8EA",
"|. c #D2DFEE",
" X c #D4D9E2",
".X c #C9D7F0",
"XX c #CEDBF3",
"oX c #C7D8FA",
"OX c #CCDDFD",
"+X c #C5D6F8",
"@X c #D1DEF5",
"#X c #D0DFFF",
"$X c #DCE0E7",
"%X c #D2E1F2",
"&X c #D4E2FE",
"*X c #DAE6FE",
"=X c #DEE9FF",
"-X c #DAE3F6",
";X c #E9EBED",
":X c #E7EBEF",
">X c #E3ECFF",
",X c #E8EFFF",
"<X c #E8ECF1",
"1X c #E7F0FF",
"2X c #ECF2FF",
"3X c #F2F6FF",
"4X c #F5F9FF",
"5X c #FCFDFF",
"6X c None",
/* pixels */
"6X6X6X6X6X6X6X6X6X6X6X6X6X6X6X6X6X6X6X6X6X6X6X6X6X6X6X6X6X6X6X6X6X6X6X6X6X6X6X6X6X6X6X6X6X6X6X6X6X6X6X6X6X6X6X6X6X6X6X6X6X6X6X6X",
"6X6X6X6X6X6X6X6X6X6X6X6X6X6X6X6X6X6X6X6X:.:.:.:.:.$.O. .6X6X6X6X6X6X6X6X6X6X6X6X6X6X6X6X6X6X6X6X6X6X6X6X6X6X6X6X6X6X6X6X6X6X6X6X",
"6X6X6X6X6X6X6X6X6X6X6X6X6X6X6X6X1.7.x.H.G.(.G.G.G.F.Z.j.9.#.| Y 6X6X6X6X6X6X6X6X6X6X6X6X6X6X6X6X6X6X6X6X6X6X6X6X6X6X6X6X6X6X6X6X",
"6X6X6X6X6X6X6X6X6X6X6X6X6X6X7.J.(.].{.{.{.].}.'.P.G.G.H.Z.l.h.3.X.c 6X6X6X6X6X6X6X6X6X6X6X6X6X6X6X6X6X6X6X6X6X6X6X6X6X6X6X6X6X6X",
"6X6X6X6X6X6X6X6X6X6X6X6X7.A.].{.@X{.].G.Z.x.h.h.9.9.h.h.z.l.l.k.5.,.E h 6X6X6X6X6X6X6X6X6X6X6X6X6X6X6X6X6X6X6X6X6X6X6X6X6X6X6X6X",
"6X6X6X6X6X6X6X6X6X6X2.j.'.%X%X{.^.x.8.1.<.1.6.6.3.<.#.O.X.O.,.5.u.5.<.^ j 6X6X6X6X6X6X6X6X6X6X6X6X6X6X6X6X6X6X6X6X6X6X6X6X6X6X6X",
"6X6X6X6X6X6X6X6X6X7.G.].%X{.^.9.2.6.l.S.P.`.`.[.[.R.P.T.b.4.O.R X.=.3.,.! P ; 6X6X6X6X6X6X6X6X6X6X6X6X6X6X6X6X6X6X6X6X6X6X6X6X6X",
"6X6X6X6X6X6X6X6X7.(.|.%X(.c.2.h.D..XOX@X@X@X@X@XXX.X.X[.[.R.T.k.X.P E @.@.^ T ; 6X6X6X6X6X6X6X6X6X6X6X6X6X6X6X6X6X6X6X6X6X6X6X6X",
"6X6X6X6X6X6X6X7.(.%X{.G.8.2.G.%X@X-X*X*X*X*X*X*X*X*X-X@XXX.X[.[.Y.r.k P ^ @.X.T ; 6X6X6X6X6X6X6X6X6X6X6X6X6X6X6X6X6X6X6X6X6X6X6X",
"6X6X6X6X6X6X2.(.|.{.Z.1.j.XX*X*X>X>X>X>X>X>X>X>X>X*X>X*X*X*X@X.X[.Y.r.v P / *./ U ; 6X6X6X6X6X6X6X6X6X6X6X6X6X6X6X6X6X6X6X6X6X6X",
"6X6X6X6X6X2.H.{.}.Z.:.Z.*X=X>X>X>X>X>X>X>X>X>X*X>X>X>X>X>X*X*X@XXX.XB.i.Q z ^ @.^ v - 6X6X6X6X6X6X6X6X6X6X6X6X6X6X6X6X6X6X6X6X6X",
"6X6X6X6X6Xj.'.{.Z.;.H.=X>X>X>X>X>X>X>X>X>X>X>X>X*X>X*X>X>X>X>X*X*X&X[.N.a.Q z ^ @.E h 6X6X6X6X6X6X6X6X6X6X6X6X6X6X6X6X6X6X6X6X6X",
"6X6X6X6X1.^.}.F.1.x.>X>X>X>X>X>X>X>X>X>X>X>X>X>X>X>X>X>X*X>X>X>X=X=X@XI.f.a.I P @.@.R > 6X6X6X6X6X6X6X6X6X6X6X6X6X6X6X6X6X6X6X6X",
"6X6X6X6XJ.'.G.9.8.>X>X>X>X>X>X>X>X>X>X>X,X>X>X>X>X>X>X>X>X>X>X*X>X=X=X+XK.f.i.v E @.^ l 6X6X6X6X6X6X6X6X6X6X6X6X6X6X6X6X6X6X6X6X",
"6X6X6X1.G.'.l.$.@X,X>X>X=X>X>X>X>X,X>X,X>X>X>X>X>X>X>X>X>X>X>X>X>X=X>X&XQ.K.N.) l +.@.R ; 6X6X6X6X6X6X6X6X6X6X6X6X6X6X6X6X6X6X6X",
"6X6X6Xl.'.F.;.x.1X>X>X=X*X*X*X*X*X>X>X>X,X,X,X>X>X>X>X>X>X>X>X>X=X>X>X*XOXW.B.f.I U @.^ l 6X6X6X6X6X6X6X6X6X6X6X6X6X6X6X6X6X6X6X",
"6X6X%.Z.G.z.#.-X>X>X,X=X*X*X*X*X*X*X*X*X>X>X>X1X,X>X>X>X,X>X>X>X>X>X>X=X#XoXU.N.e.l +.@.U > 6X6X6X6X6X6X6X6X6X6X6X6X6X6X6X6X6X6X",
"6X6X<.Z.F.;.l.1X>X,X,X>X=X=X*X*X*X=X*X*X*X*X*X>X>X,X,X>X>X>X>X>X>X>X=X=X#XOXQ.K.f.I E =.! : 6X6X6X6X6X6X6X6X6X6X6X6X6X6X6X6X6X6X",
"6X6Xh.Z.z.X.].2X>X,X,X,X1X,X>X>X>X=X=X*X=X=X*X*X*X*X>X>X,X>X>X>X>X>X=X1X&XOXoXW.b.) v @.^ z 6X6X6X6X6X6X6X6X6X6X6X6X6X6X6X6X6X6X",
"6X .z.Z.5.o.>X,X,X,X1X,X1X2X,X1X>X>X>X*X*X*X*X*X*X*X*X>X>X>X>X>X>X=X=X1X&X#X#XQ.K.r.l +.+.U - 6X6X6X6X6X6X6X6X6X6X6X6X6X6X6X6X6X",
"6X .z.v.#.2.,X>X,X,X,X2X2X2X3X3X3X3X3X2X1X>X>X>X>X>X>X*X>X>X,X,X2X2X1X>X&XOX#XoXU.f.P ^ *.R > 6X6X6X6X6X6X6X6X6X6X6X6X6X6X6X6X6X",
"6XX.k.k.X.j.2X,X,X2X2X2X3XE.V.V.V.V.C.V.C.C.N.N.M.M.a.a.a.d.d.a.p.d.`.1X*X#X#XOXW.B.~ R *.R ; 6X6X6X6X6X6X6X6X6X6X6X6X6X6X6X6X6X",
"6XX.h.t.U A.3X,X2X1X2X1X3Xm.M Z V V N N n n n t t r r r w w q 0 e 8 n.2X&X#X#X#XQ.K./ T *.! : 6X6X6X6X6X6X6X6X6X6X6X6X6X6X6X6X6X",
"6XE 5.5.U H.3X,X2X2X3X2X2XM.Z K J H H G D D F F A b A i i p u u i 9 p.1X&X&X#X#XoXK./ U *.! 2 6X6X6X6X6X6X6X6X6X6X6X6X6X6X6X6X6X",
"6XE 4.3.z ~.3X2X2X2X3X2X4XM.Z J H H D D D S S A a a i i p u u u u 9 n.=X&X#X&X#XoXU.*.T @.^ 4 6X6X6X6X6X6X6X6X6X6X6X6X6X6X6X6X6X",
"6XY ,.,.k A.3X2X2X3X2X3X4Xm.M A C C B B m m y y y w r w w e 0 0 e 7 p.=X&X&X&X#XoXW.&.T =.X.4 6X6X6X6X6X6X6X6X6X6X6X6X6X6X6X6X6X",
"6Xl =.=.k c.4X2X2X3X3X3X4XV.' e.] ] ] ] _ _ _ _ _ ` ` ( ` ( ( ( ( b b.=X&X&X&X#XoXW.+.E ,.+.4 6X6X6X6X6X6X6X6X6X6X6X6X6X6X6X6X6X",
"6Xj +.@.z :.4X2X3X3X4X3X3X4X3X4X4X4X3X3X3X3X3X3X2X3X2X3X2X2X2X1X2X<X=X*X&X&X&X&XOXU.! +.4.+.2 6X6X6X6X6X6X6X6X6X6X6X6X6X6X6X6X6X",
"6Xh ^ *.T E 2X3X3X4X4X4X4X4X4X4X4X4X3X4X4X3X3X3X3X3X2X3X2X2X1X2X2X1X>X&X&X&X&X&XOXL.R ,.4.+.3 6X6X6X6X6X6X6X6X6X6X6X6X6X6X6X6X6X",
"6X6XE *.^ k $X5X3X4X4X4X4X4X5X4X4X4X4X4X4X3X3X3X3X3X3X2X2X2X2X2X1X1X=X*X&X&X&X&XOXn.E 5.4.| 6X6X6X6X6X6X6X6X6X6X6X6X6X6X6X6X6X6X",
"6X6Xl +.@.f c.5X4X4X4X4X5X4X5X4X5X4X4X4X4X4X4X3X3X3X2X2X2X2X2X2X2X1X&X*X*X*X&X&XoX,.O.h.3.L 6X6X6X6X6X6X6X6X6X6X6X6X6X6X6X6X6X6X",
"6X6Xh ^ @.T | 3X4X4X4X5X4X5X5X4X4X5X5X4X4X4X4X4X3X3X3X3X3X2X3X1X2X=X=X*X*X&X&X*XY.^ 4.k.<.j 6X6X6X6X6X6X6X6X6X6X6X6X6X6X6X6X6X6X",
"6X6X6XE @.@.s /.5X4X5X5X5X5X5X5X5X5X5X4X4X4X4X4X4X3X3X2X2X2X2X2X1X=X=X*X*X*X&X&Xy.O.k.h.#.: 6X6X6X6X6X6X6X6X6X6X6X6X6X6X6X6X6X6X",
"6X6X6Xz / *.P W 4X5X5X5X5X5X5X5X5X5X4X5X5X5X4X4X3X4X3X3X3X3X3X2X=X=X=X=X*X&X*XQ.X.t.v.5.Y 6X6X6X6X6X6X6X6X6X6X6X6X6X6X6X6X6X6X6X",
"6X6X6X; ! @.+.s 0.5X5X5X5X5X5X5X5X5X5X5X5X4X4X4X4X4X3X3X3X2X2X1X=X=X=X=X*X*X*X4.<.l.z.<.5 6X6X6X6X6X6X6X6X6X6X6X6X6X6X6X6X6X6X6X",
"6X6X6X6Xh ^ @.^ s ).5X5X5X5X5X5X5X5X5X5X4X5X5X4X4X3X3X3X3X3X2X>X>X=X=X=X*X=XZ.+.k.Z.g.W 6X6X6X6X6X6X6X6X6X6X6X6X6X6X6X6X6X6X6X6X",
"6X6X6X6X6XR +.+.R z ;X5X5X5X5X5X5X5X5X5X5X4X4X4X4X4X3X3X3X2X>X>X>X=X=X*X=X`.O.z.Z.l.$.6X6X6X6X6X6X6X6X6X6X6X6X6X6X6X6X6X6X6X6X6X",
"6X6X6X6X6X: ^ @.@.P P ;X5X5X5X5X5X5X5X5X5X5X5X4X4X4X4X4X3X1X>X>X>X>X*X>X'.@.h.Z.Z.5.L 6X6X6X6X6X6X6X6X6X6X6X6X6X6X6X6X6X6X6X6X6X",
"6X6X6X6X6X6X: ^ &.@.U j ).5X5X5X5X5X5X5X5X5X5X4X4X4X3X3X1X1X1X>X>X=X>XG.#.h.F.Z.O.h 6X6X6X6X6X6X6X6X6X6X6X6X6X6X6X6X6X6X6X6X6X6X",
"6X6X6X6X6X6X6Xh ^ *.O.T : J.5X5X5X5X5X5X5X5X4X4X4X4X3X1X1X>X>X>X>X-Xl.#.z.F.F.X.%.x.f 6X6X6X6X6X6X6X6X6X6X6X6X6X6X6X6X6X6X6X6X6X",
"6X6X6X6X6X6X6X6Xh ! @.@.! s  .).5X5X5X5X5X5X4X4X3X3X2X2X1X2X2X>X^.<.<.Z.G.F.X.= 2.<XG.d 6X6X6X6X6X6X6X6X6X6X6X6X6X6X6X6X6X6X6X6X",
"6X6X6X6X6X6X6X6X6Xh ! +.@.@.P s  ._.<X5X5X5X5X5X4X3X3X3X1X%XZ.1.;.z.F.G.F.1.@ : T 8.<XG.f % * 6X6X6X6X6X6X6X6X6X6X6X6X6X6X6X6X6X",
"6X6X6X6X6X6X6X6X6X6X: T ^ @.*.@.E k P %.c.~.). X X(.H.j.1.#.<.k.F.G.F.l.8.Y = d f T 8.$X%.% & < 6X6X6X6X6X6X6X6X6X6X6X6X6X6X6X6X",
"6X6X6X6X6X6X6X6X6X6X6X- h E +.=.<.3.,.+.E R E ! X.+.#.<.9.l.F.G.G.J.h.O.j 6X6X= s , T /.} X $ & < 6X6X6X6X6X6X6X6X6X6X6X6X6X6X6X",
"6X6X6X6X6X6X6X6X6X6X6X6X6X: l X.,.<.t.u.h.k.k.z.l.Z.Z.S.F.Z.Z.x.h.O.[ 6X6X6X6X6X+ c ;Xw.  O O # & * 6X6X6X6X6X6X6X6X6X6X6X6X6X6X",
"6X6X6X6X6X6X6X6X6X6X6X6X6X6X6X: j E @.<.5.u.k.k.l.l.k.v.z.h.;. .x 6X6X6X6X6X6X6X6X4X!.6 1 $ o O # & < 6X6X6X6X6X6X6X6X6X6X6X6X6X",
"6X6X6X6X6X6X6X6X6X6X6X6X6X6X6X6X6X6X5 x Y E  .X.o.o. . .W x 6X6X6X6X6X6X6X6X6X6X0.>.q.0.{ < $ o O # & * 6X6X6X6X6X6X6X6X6X6X6X6X",
"6X6X6X6X6X6X6X6X6X6X6X6X6X6X6X6X6X6X6X6X6X6X6X6X6X6X6X6X6X6X6X6X6X6X6X6X6X6X6X6X6X& { 0.0.{ < $ o O # & < 6X6X6X6X6X6X6X6X6X6X6X",
"6X6X6X6X6X6X6X6X6X6X6X6X6X6X6X6X6X6X6X6X6X6X6X6X6X6X6X6X6X6X6X6X6X6X6X6X6X6X6X6X6X6X* [ 0.0.{ 1 # o O # & * 6X6X6X6X6X6X6X6X6X6X",
"6X6X6X6X6X6X6X6X6X6X6X6X6X6X6X6X6X6X6X6X6X6X6X6X6X6X6X6X6X6X6X6X6X6X6X6X6X6X6X6X6X6X6X* [ 0.0.{ 1 # o O # & < 6X6X6X6X6X6X6X6X6X",
"6X6X6X6X6X6X6X6X6X6X6X6X6X6X6X6X6X6X6X6X6X6X6X6X6X6X6X6X6X6X6X6X6X6X6X6X6X6X6X6X6X6X6X6X* [ 0.0.{ 1 $ o O # & * 6X6X6X6X6X6X6X6X",
"6X6X6X6X6X6X6X6X6X6X6X6X6X6X6X6X6X6X6X6X6X6X6X6X6X6X6X6X6X6X6X6X6X6X6X6X6X6X6X6X6X6X6X6X6X* [ 0.q.{ 1 $ o O # & < 6X6X6X6X6X6X6X",
"6X6X6X6X6X6X6X6X6X6X6X6X6X6X6X6X6X6X6X6X6X6X6X6X6X6X6X6X6X6X6X6X6X6X6X6X6X6X6X6X6X6X6X6X6X6X* [ 0.0.{ 1 # o O # & < 6X6X6X6X6X6X",
"6X6X6X6X6X6X6X6X6X6X6X6X6X6X6X6X6X6X6X6X6X6X6X6X6X6X6X6X6X6X6X6X6X6X6X6X6X6X6X6X6X6X6X6X6X6X6X* [ 0.0.{ 1 $ o O # & * 6X6X6X6X6X",
"6X6X6X6X6X6X6X6X6X6X6X6X6X6X6X6X6X6X6X6X6X6X6X6X6X6X6X6X6X6X6X6X6X6X6X6X6X6X6X6X6X6X6X6X6X6X6X6X* [ 0.0.{ 1 # o O # & & 6X6X6X6X",
"6X6X6X6X6X6X6X6X6X6X6X6X6X6X6X6X6X6X6X6X6X6X6X6X6X6X6X6X6X6X6X6X6X6X6X6X6X6X6X6X6X6X6X6X6X6X6X6X6X* [ 0.0.{ 1 # o O $ # o 6X6X6X",
"6X6X6X6X6X6X6X6X6X6X6X6X6X6X6X6X6X6X6X6X6X6X6X6X6X6X6X6X6X6X6X6X6X6X6X6X6X6X6X6X6X6X6X6X6X6X6X6X6X6X* { 0.0.{ < # o o . O 6X6X6X",
"6X6X6X6X6X6X6X6X6X6X6X6X6X6X6X6X6X6X6X6X6X6X6X6X6X6X6X6X6X6X6X6X6X6X6X6X6X6X6X6X6X6X6X6X6X6X6X6X6X6X6X* [ 0.0.{ 1 #   . 6X6X6X6X",
"6X6X6X6X6X6X6X6X6X6X6X6X6X6X6X6X6X6X6X6X6X6X6X6X6X6X6X6X6X6X6X6X6X6X6X6X6X6X6X6X6X6X6X6X6X6X6X6X6X6X6X6X* [ 0.0.6 O . 6X6X6X6X6X",
"6X6X6X6X6X6X6X6X6X6X6X6X6X6X6X6X6X6X6X6X6X6X6X6X6X6X6X6X6X6X6X6X6X6X6X6X6X6X6X6X6X6X6X6X6X6X6X6X6X6X6X6X6X& [ ..6 & 6X6X6X6X6X6X",
"6X6X6X6X6X6X6X6X6X6X6X6X6X6X6X6X6X6X6X6X6X6X6X6X6X6X6X6X6X6X6X6X6X6X6X6X6X6X6X6X6X6X6X6X6X6X6X6X6X6X6X6X6X6X. # 1 6X6X6X6X6X6X6X",
"6X6X6X6X6X6X6X6X6X6X6X6X6X6X6X6X6X6X6X6X6X6X6X6X6X6X6X6X6X6X6X6X6X6X6X6X6X6X6X6X6X6X6X6X6X6X6X6X6X6X6X6X6X6X6X6X6X6X6X6X6X6X6X6X",
"6X6X6X6X6X6X6X6X6X6X6X6X6X6X6X6X6X6X6X6X6X6X6X6X6X6X6X6X6X6X6X6X6X6X6X6X6X6X6X6X6X6X6X6X6X6X6X6X6X6X6X6X6X6X6X6X6X6X6X6X6X6X6X6X",
"6X6X6X6X6X6X6X6X6X6X6X6X6X6X6X6X6X6X6X6X6X6X6X6X6X6X6X6X6X6X6X6X6X6X6X6X6X6X6X6X6X6X6X6X6X6X6X6X6X6X6X6X6X6X6X6X6X6X6X6X6X6X6X6X"
};
