/* XPM */
static const char *zoom_in_24x24_xpm[] = {
/* columns rows colors chars-per-pixel */
"24 24 210 2 ",
"   c #2A2A2A",
".  c #3C3C3C",
"X  c gray24",
"o  c #414141",
"O  c #4E4E4E",
"+  c #5B5B5B",
"@  c gray36",
"#  c #5D5D5D",
"$  c #5F6367",
"%  c gray42",
"&  c #606E7D",
"*  c #294DA3",
"=  c #2D52AB",
"-  c #3258B3",
";  c #365DBA",
":  c #586B80",
">  c #677584",
",  c #677687",
"<  c #6A7784",
"1  c #687787",
"2  c #697887",
"3  c #6A7A8A",
"4  c #6E7C8B",
"5  c #3B63C2",
"6  c #3F68CA",
"7  c #446ED2",
"8  c #4873D9",
"9  c #4D79E1",
"0  c #728394",
"q  c #738394",
"w  c #7A8999",
"e  c #7B8999",
"r  c #7A8A9B",
"t  c #7E8C9A",
"y  c #7A8B9D",
"u  c #7A8C9F",
"i  c #7B8C9F",
"p  c #6D82A1",
"a  c #7084A3",
"s  c #7C8DA0",
"d  c #798CA6",
"f  c #7E90A4",
"g  c #7D92B5",
"h  c gray53",
"j  c gray56",
"k  c #808D9C",
"l  c #818F9F",
"z  c #83919F",
"x  c #86929D",
"c  c #8B959F",
"v  c gray61",
"b  c #8190A1",
"n  c #8391A0",
"m  c #8090A2",
"M  c #8592A0",
"N  c #8794A1",
"B  c #8092A4",
"V  c #8293A5",
"C  c #8091A7",
"Z  c #8394A7",
"A  c #8494A5",
"S  c #8695A4",
"D  c #8594A6",
"F  c #8595A7",
"G  c #8796A6",
"H  c #8A97A5",
"J  c #8896A6",
"K  c #8293A8",
"L  c #8194A8",
"P  c #8294A8",
"I  c #8596A9",
"U  c #8597AB",
"Y  c #8698AC",
"T  c #8698AD",
"R  c #8A98A8",
"E  c #8B98A9",
"W  c #8898AE",
"Q  c #899BAE",
"!  c #899BAF",
"~  c #929DA9",
"^  c #8B9DB1",
"/  c #8C9DB0",
"(  c #8D9DB0",
")  c #8E9FB1",
"_  c #8D9FB2",
"`  c #8E9FB3",
"'  c #96A1AC",
"]  c #94A1AF",
"[  c #98A2AC",
"{  c #98A3AD",
"}  c #99A4AE",
"|  c #94A2B1",
" . c #90A2B5",
".. c #93A4B7",
"X. c #9CA6B2",
"o. c #9FA9B6",
"O. c #95A6B9",
"+. c #97A8BA",
"@. c #9AA9BB",
"#. c #9FACB9",
"$. c #A7B3BE",
"%. c #B8BBBF",
"&. c #9EABC2",
"*. c #9BB0D5",
"=. c #9AB1D9",
"-. c #A1ADC1",
";. c #A0AEC0",
":. c #A1B1C2",
">. c #A4B5C6",
",. c #ACBCCC",
"<. c #AEBDCD",
"1. c #B1BDCE",
"2. c #B1BFCF",
"3. c #A7B6D1",
"4. c #BAC0C7",
"5. c #BFC4C9",
"6. c #BEC4CE",
"7. c #B1C1D0",
"8. c #B4C0D1",
"9. c #B7C3D3",
"0. c #B6C2D7",
"q. c #B9C7D6",
"w. c #BCC6D6",
"e. c #BCCAD8",
"r. c #BCC8DB",
"t. c #BCCADA",
"y. c #BFCBDF",
"u. c #AEC1E3",
"i. c #BDCAE0",
"p. c #BECEED",
"a. c #BBCFF2",
"s. c #C2CBDB",
"d. c #C0CDDB",
"f. c #C2CFDD",
"g. c #C1CFDE",
"h. c #D9DBDE",
"j. c #C2CDE1",
"k. c #C4D2E0",
"l. c #CDD6E7",
"z. c #D3DBEA",
"x. c #C0D3F7",
"c. c #C4D6F7",
"v. c #CEDEFE",
"b. c #DEE3EC",
"n. c #DAE2F1",
"m. c #D8E3F6",
"M. c #D7E3FB",
"N. c #D1E0FF",
"B. c #D3E1FF",
"V. c #D5E3FE",
"C. c #D4E3FF",
"Z. c #D6E3FF",
"A. c #DAE6FF",
"S. c #DBE7FF",
"D. c #DCE8FF",
"F. c #DEE9FF",
"G. c #DFEAFE",
"H. c #E0E7F4",
"J. c #E3EAF7",
"K. c #E0E8F8",
"L. c #E1EAFC",
"P. c #E2EBFC",
"I. c #E0EAFF",
"U. c #E1EBFF",
"Y. c #E3ECFF",
"T. c #E5EDFE",
"R. c #E5EEFE",
"E. c #E6EEFE",
"W. c #E6EEFF",
"Q. c #E6EFFF",
"!. c #E7EFFF",
"~. c #E8F0FF",
"^. c #E9F0FF",
"/. c #E9F1FF",
"(. c #EAF1FF",
"). c #EBF1FF",
"_. c #ECF1FD",
"`. c #EDF2FF",
"'. c #ECF3FF",
"]. c #EDF3FF",
"[. c #EEF3FF",
"{. c #EEF4FF",
"}. c #EFF4FF",
"|. c #EFF5FF",
" X c #F4F6FA",
".X c #F0F5FF",
"XX c #F1F5FF",
"oX c #F1F6FF",
"OX c #F2F6FF",
"+X c #F2F7FF",
"@X c #F3F7FF",
"#X c #F4F7FF",
"$X c #F7F8F9",
"%X c #F4F8FF",
"&X c #F5F8FF",
"*X c #F5F9FF",
"=X c #F6F9FF",
"-X c #F7F9FF",
";X c #F7FAFF",
":X c #F9F9F9",
">X c #F8FAFF",
",X c #F8FBFF",
"<X c #F9FBFF",
"1X c #FAFCFF",
"2X c #FBFCFF",
"3X c #FCFDFF",
"4X c #FEFEFF",
"5X c #FEFFFF",
"6X c white",
"7X c None",
/* pixels */
"7X7X7X7X7X7X7X} ' ~ x 7X7X7X7X7X7X7X7X7X7X7X7X7X",
"7X7X7X7X[ $.d.g.q.7.,.:.S < 7X7X7X7X7X7X7X7X7X7X",
"7X7X7X} f.t.1.r.j.y.0.;.( U , 7X7X7X7X7X7X7X7X7X",
"7X7X{ k.8.l.P.R.E.T.L.m.i.a L 3 7X7X7X7X7X7X7X7X",
"7Xc e.9.K.~.^.^.^.~.!.Q.L.u.p Y > 7X7X7X7X7X7X7X",
"7X#.2.n.!.W./.(.9 8 ^.~.!.M.=.d B 7X7X7X7X7X7X7X",
"7X<.w.^.W.F.S.I.8 7 (./.~.U.x.g _ 4 7X7X7X7X7X7X",
"N >.z.).].{.`.W.7 6 Y.(.(.~.v.*.T l 7X7X7X7X7X7X",
"n +.H.[..X9 8 7 6 5 ; - = ~.N.a.C b 7X7X7X7X7X7X",
"w / _.XX+X8 7 6 5 ; - = * Z.B.c.K D 7X7X7X7X7X7X",
"1 f b.#X&X=X=X*X; - oX|.'.A.C.p.^ R 7X7X7X7X7X7X",
"& P 6.-X<X<X<X>X- = +XXX[.S.Z.3...t 7X7X7X7X7X7X",
"7Xi ]  X3X3X3X1X= * %XOXW.S.V.W ` 7X7X7X7X7X7X7X",
"7X2 ! 4.5X6X5X3X1X;X&X}.U.D.&.Q e 7X7X7X7X7X7X7X",
"7X7Xr ) 5.:X6X4X2X,X@X!.G.-.Z s 7X7X7X7X7X7X7X7X",
"7X7X7Xm  .X.h.$X2X&XJ.s.E U u M @.7X7X7X7X7X7X7X",
"7X7X7X7Xk ..O.| H J A I U 0 7X: o.$ @ 7X7X7X7X7X",
"7X7X7X7X7X7Xz G F V y q 7X7X7X7X%.% o # 7X7X7X7X",
"7X7X7X7X7X7X7X7X7X7X7X7X7X7X7X7Xj v O o # 7X7X7X",
"7X7X7X7X7X7X7X7X7X7X7X7X7X7X7X7X7Xh v O o # 7X7X",
"7X7X7X7X7X7X7X7X7X7X7X7X7X7X7X7X7X7Xh v O o # 7X",
"7X7X7X7X7X7X7X7X7X7X7X7X7X7X7X7X7X7X7Xh v O o X ",
"7X7X7X7X7X7X7X7X7X7X7X7X7X7X7X7X7X7X7X7Xh v .   ",
"7X7X7X7X7X7X7X7X7X7X7X7X7X7X7X7X7X7X7X7X7X# + 7X"
};
